<svg width="300" height="214" viewBox="0 0 300 214" fill="none" xmlns="http://www.w3.org/2000/svg">
<rect width="300" height="214" rx="10" fill="url(#paint0_linear_2814_124)"/>
<g filter="url(#filter0_d_2814_124)">
<rect x="25" y="76" width="250" height="42" rx="10" fill="url(#paint1_linear_2814_124)"/>
</g>
<path d="M36.4815 83.9077C36.4579 83.6473 36.3525 83.4448 36.1655 83.3004C35.9808 83.1536 35.7169 83.0803 35.3736 83.0803C35.1463 83.0803 34.9569 83.1098 34.8054 83.169C34.6539 83.2282 34.5402 83.3099 34.4645 83.4141C34.3887 83.5159 34.3497 83.633 34.3473 83.7656C34.3426 83.8745 34.3639 83.9704 34.4112 84.0533C34.4609 84.1361 34.532 84.2095 34.6243 84.2734C34.719 84.335 34.8326 84.3894 34.9652 84.4368C35.0978 84.4841 35.2469 84.5256 35.4126 84.5611L36.0376 84.7031C36.3975 84.7812 36.7147 84.8854 36.9893 85.0156C37.2663 85.1458 37.4983 85.3009 37.6854 85.4808C37.8748 85.6607 38.018 85.8679 38.1151 86.1023C38.2121 86.3366 38.2618 86.5994 38.2642 86.8906C38.2618 87.3499 38.1458 87.7441 37.9162 88.0732C37.6866 88.4022 37.3563 88.6544 36.9254 88.8295C36.4969 89.0047 35.9796 89.0923 35.3736 89.0923C34.7652 89.0923 34.2348 89.0012 33.7827 88.8189C33.3305 88.6366 32.9789 88.3596 32.728 87.9879C32.477 87.6162 32.348 87.1463 32.3409 86.5781H34.0241C34.0384 86.8125 34.1011 87.0078 34.2124 87.1641C34.3236 87.3203 34.4763 87.4387 34.6705 87.5192C34.867 87.5997 35.0942 87.6399 35.3523 87.6399C35.589 87.6399 35.7902 87.608 35.956 87.544C36.1241 87.4801 36.2531 87.3913 36.343 87.2777C36.433 87.1641 36.4792 87.0339 36.4815 86.8871C36.4792 86.7498 36.4366 86.6326 36.3537 86.5355C36.2708 86.4361 36.143 86.3509 35.9702 86.2798C35.7997 86.2064 35.5819 86.139 35.3168 86.0774L34.5568 85.8999C33.9271 85.7554 33.4311 85.5223 33.0689 85.2003C32.7067 84.8759 32.5268 84.438 32.5291 83.8864C32.5268 83.4366 32.6475 83.0424 32.8913 82.7038C33.1352 82.3653 33.4725 82.1013 33.9034 81.9119C34.3343 81.7225 34.8255 81.6278 35.3771 81.6278C35.9406 81.6278 36.4295 81.7237 36.8438 81.9155C37.2604 82.1049 37.5836 82.3712 37.8132 82.7145C38.0429 83.0578 38.16 83.4555 38.1648 83.9077H36.4815ZM42.2308 83.5455V84.8239H38.7898V83.5455H42.2308ZM39.5107 82.2386H41.2472V87.2848C41.2472 87.3913 41.2637 87.4777 41.2969 87.544C41.3324 87.608 41.3833 87.6541 41.4496 87.6825C41.5159 87.7086 41.5952 87.7216 41.6875 87.7216C41.7538 87.7216 41.8236 87.7157 41.897 87.7038C41.9728 87.6896 42.0296 87.6778 42.0675 87.6683L42.3303 88.9219C42.2474 88.9455 42.1302 88.9751 41.9787 89.0107C41.8295 89.0462 41.6508 89.0687 41.4425 89.0781C41.0353 89.0971 40.6861 89.0497 40.3949 88.9361C40.1061 88.8201 39.8847 88.6402 39.7308 88.3963C39.5793 88.1525 39.5059 87.8459 39.5107 87.4766V82.2386ZM44.6545 89.0923C44.3065 89.0923 43.9975 89.0343 43.7276 88.9183C43.4601 88.8 43.2482 88.6224 43.092 88.3857C42.9381 88.1465 42.8612 87.8471 42.8612 87.4872C42.8612 87.1842 42.9144 86.9285 43.021 86.7202C43.1275 86.5118 43.2743 86.3426 43.4613 86.2124C43.6483 86.0821 43.8638 85.9839 44.1076 85.9176C44.3514 85.849 44.6119 85.8028 44.8888 85.7791C45.199 85.7507 45.4487 85.7211 45.6381 85.6903C45.8275 85.6572 45.9648 85.611 46.0501 85.5518C46.1377 85.4903 46.1815 85.4039 46.1815 85.2926V85.2749C46.1815 85.0926 46.1187 84.9517 45.9933 84.8523C45.8678 84.7528 45.6985 84.7031 45.4854 84.7031C45.2558 84.7031 45.0711 84.7528 44.9315 84.8523C44.7918 84.9517 44.703 85.089 44.6651 85.2642L43.0636 85.2074C43.1109 84.8759 43.2328 84.58 43.4293 84.3196C43.6282 84.0568 43.9004 83.8509 44.2461 83.7017C44.5941 83.5502 45.012 83.4744 45.4996 83.4744C45.8477 83.4744 46.1684 83.5159 46.462 83.5987C46.7556 83.6792 47.0112 83.7976 47.229 83.9538C47.4469 84.1077 47.6149 84.2971 47.7333 84.522C47.854 84.7469 47.9144 85.0038 47.9144 85.2926V89H46.2809V88.2401H46.2383C46.1412 88.4247 46.0169 88.581 45.8654 88.7088C45.7163 88.8366 45.5399 88.9325 45.3363 88.9964C45.1351 89.0604 44.9078 89.0923 44.6545 89.0923ZM45.1907 87.956C45.3777 87.956 45.5458 87.9181 45.695 87.8423C45.8465 87.7666 45.9672 87.6624 46.0572 87.5298C46.1471 87.3949 46.1921 87.2386 46.1921 87.0611V86.5426C46.1424 86.5687 46.082 86.5923 46.011 86.6136C45.9424 86.6349 45.8666 86.6551 45.7837 86.674C45.7009 86.6929 45.6156 86.7095 45.5281 86.7237C45.4405 86.7379 45.3564 86.7509 45.2759 86.7628C45.1126 86.7888 44.9729 86.8291 44.8569 86.8835C44.7433 86.938 44.6557 87.009 44.5941 87.0966C44.5349 87.1818 44.5053 87.2836 44.5053 87.402C44.5053 87.5819 44.5692 87.7192 44.6971 87.8139C44.8273 87.9086 44.9918 87.956 45.1907 87.956ZM48.9762 89V81.7273H50.7127V84.4794H50.7482C50.8192 84.3137 50.9199 84.1539 51.0501 84C51.1826 83.8461 51.3507 83.7206 51.5543 83.6236C51.7603 83.5241 52.0065 83.4744 52.293 83.4744C52.6718 83.4744 53.0257 83.5739 53.3548 83.7727C53.6862 83.9716 53.9537 84.2782 54.1573 84.6925C54.3609 85.1068 54.4627 85.6347 54.4627 86.2763C54.4627 86.8942 54.3645 87.4115 54.168 87.8281C53.9738 88.2448 53.7111 88.5573 53.3796 88.7656C53.0505 88.974 52.6848 89.0781 52.2823 89.0781C52.0077 89.0781 51.7698 89.0331 51.5685 88.9432C51.3673 88.8532 51.198 88.7348 51.0607 88.5881C50.9258 88.4413 50.8216 88.2839 50.7482 88.1158H50.695V89H48.9762ZM50.6772 86.2727C50.6772 86.5663 50.7163 86.822 50.7944 87.0398C50.8749 87.2576 50.9897 87.4268 51.1388 87.5476C51.2904 87.666 51.4715 87.7251 51.6822 87.7251C51.8952 87.7251 52.0763 87.666 52.2255 87.5476C52.3746 87.4268 52.4871 87.2576 52.5629 87.0398C52.641 86.822 52.68 86.5663 52.68 86.2727C52.68 85.9792 52.641 85.7247 52.5629 85.5092C52.4871 85.2938 52.3746 85.1269 52.2255 85.0085C52.0787 84.8902 51.8976 84.831 51.6822 84.831C51.4691 84.831 51.288 84.889 51.1388 85.005C50.9897 85.121 50.8749 85.2867 50.7944 85.5021C50.7163 85.7176 50.6772 85.9744 50.6772 86.2727ZM57.1092 81.7273V89H55.3727V81.7273H57.1092ZM60.7642 89.103C60.1937 89.103 59.7012 88.9905 59.2869 88.7656C58.875 88.5384 58.5578 88.2152 58.3352 87.7962C58.1151 87.3748 58.005 86.8741 58.005 86.294C58.005 85.7306 58.1162 85.2382 58.3388 84.8168C58.5613 84.393 58.875 84.0639 59.2798 83.8295C59.6847 83.5928 60.1617 83.4744 60.7109 83.4744C61.0992 83.4744 61.4543 83.5348 61.7763 83.6555C62.0982 83.7763 62.3764 83.955 62.6108 84.1918C62.8452 84.4285 63.0275 84.7209 63.1577 85.0689C63.2879 85.4145 63.353 85.8111 63.353 86.2585V86.6918H58.6122V85.6832H61.7372C61.7348 85.4986 61.6911 85.334 61.6058 85.1896C61.5206 85.0452 61.4034 84.9328 61.2543 84.8523C61.1075 84.7694 60.9382 84.728 60.7464 84.728C60.5523 84.728 60.3783 84.7718 60.2244 84.8594C60.0705 84.9446 59.9486 85.0618 59.8587 85.2109C59.7687 85.3577 59.7214 85.5246 59.7166 85.7116V86.7379C59.7166 86.9605 59.7604 87.1558 59.848 87.3239C59.9356 87.4896 60.0599 87.6186 60.2209 87.7109C60.3819 87.8033 60.5736 87.8494 60.7962 87.8494C60.95 87.8494 61.0897 87.8281 61.2152 87.7855C61.3407 87.7429 61.4484 87.6802 61.5384 87.5973C61.6283 87.5144 61.6958 87.4126 61.7408 87.2919L63.3352 87.3381C63.2689 87.6955 63.1233 88.0069 62.8984 88.272C62.6759 88.5348 62.3835 88.7396 62.0213 88.8864C61.6591 89.0308 61.2401 89.103 60.7642 89.103ZM66.786 89.103C66.2108 89.103 65.7172 88.9846 65.3052 88.7479C64.8957 88.5111 64.5808 88.1821 64.3606 87.7607C64.1404 87.3369 64.0304 86.8468 64.0304 86.2905C64.0304 85.7318 64.1404 85.2417 64.3606 84.8203C64.5832 84.3965 64.8992 84.0663 65.3088 83.8295C65.7207 83.5928 66.2119 83.4744 66.7825 83.4744C67.2868 83.4744 67.7259 83.5656 68.1 83.7479C68.4764 83.9302 68.7699 84.1882 68.9806 84.522C69.1937 84.8535 69.3062 85.2429 69.318 85.6903H67.6951C67.662 85.411 67.5673 85.192 67.411 85.0334C67.2572 84.8748 67.0559 84.7955 66.8074 84.7955C66.6061 84.7955 66.4297 84.8523 66.2782 84.9659C66.1267 85.0772 66.0083 85.2429 65.9231 85.4631C65.8403 85.6809 65.7988 85.9508 65.7988 86.2727C65.7988 86.5947 65.8403 86.867 65.9231 87.0895C66.0083 87.3097 66.1267 87.4766 66.2782 87.5902C66.4297 87.7015 66.6061 87.7571 66.8074 87.7571C66.9683 87.7571 67.1104 87.7228 67.2335 87.6541C67.359 87.5855 67.4619 87.4848 67.5424 87.3523C67.6229 87.2173 67.6738 87.054 67.6951 86.8622H69.318C69.3014 87.312 69.189 87.705 68.9806 88.0412C68.7747 88.3774 68.4847 88.639 68.1106 88.826C67.7389 89.0107 67.2974 89.103 66.786 89.103ZM72.7528 89.103C72.1799 89.103 71.6875 88.9858 71.2756 88.7514C70.866 88.5147 70.55 88.1856 70.3274 87.7642C70.1072 87.3404 69.9972 86.8492 69.9972 86.2905C69.9972 85.7294 70.1072 85.2382 70.3274 84.8168C70.55 84.393 70.866 84.0639 71.2756 83.8295C71.6875 83.5928 72.1799 83.4744 72.7528 83.4744C73.3258 83.4744 73.817 83.5928 74.2266 83.8295C74.6385 84.0639 74.9545 84.393 75.1747 84.8168C75.3973 85.2382 75.5085 85.7294 75.5085 86.2905C75.5085 86.8492 75.3973 87.3404 75.1747 87.7642C74.9545 88.1856 74.6385 88.5147 74.2266 88.7514C73.817 88.9858 73.3258 89.103 72.7528 89.103ZM72.7635 87.7926C72.9718 87.7926 73.1482 87.7287 73.2926 87.6009C73.437 87.473 73.5471 87.2955 73.6229 87.0682C73.701 86.8409 73.7401 86.5781 73.7401 86.2798C73.7401 85.9768 73.701 85.7116 73.6229 85.4844C73.5471 85.2571 73.437 85.0795 73.2926 84.9517C73.1482 84.8239 72.9718 84.7599 72.7635 84.7599C72.5481 84.7599 72.3658 84.8239 72.2166 84.9517C72.0698 85.0795 71.9574 85.2571 71.8793 85.4844C71.8035 85.7116 71.7656 85.9768 71.7656 86.2798C71.7656 86.5781 71.8035 86.8409 71.8793 87.0682C71.9574 87.2955 72.0698 87.473 72.2166 87.6009C72.3658 87.7287 72.5481 87.7926 72.7635 87.7926ZM76.3981 89V83.5455H78.1346V89H76.3981ZM77.2681 82.9098C77.0243 82.9098 76.8147 82.8293 76.6396 82.6683C76.4644 82.505 76.3768 82.3085 76.3768 82.0788C76.3768 81.8516 76.4644 81.6574 76.6396 81.4964C76.8147 81.3331 77.0243 81.2514 77.2681 81.2514C77.5143 81.2514 77.7238 81.3331 77.8967 81.4964C78.0719 81.6574 78.1594 81.8516 78.1594 82.0788C78.1594 82.3085 78.0719 82.505 77.8967 82.6683C77.7238 82.8293 77.5143 82.9098 77.2681 82.9098ZM80.9764 85.8892V89H79.2399V83.5455H80.8912V84.5469H80.9515C81.0723 84.2131 81.2782 83.9515 81.5694 83.7621C81.8606 83.5703 82.2074 83.4744 82.6099 83.4744C82.9934 83.4744 83.3261 83.5608 83.6078 83.7337C83.8919 83.9041 84.112 84.1432 84.2683 84.451C84.4269 84.7564 84.505 85.1139 84.5027 85.5234V89H82.7662V85.8643C82.7685 85.5613 82.6916 85.3246 82.5353 85.1541C82.3815 84.9837 82.1672 84.8984 81.8926 84.8984C81.7103 84.8984 81.5493 84.9387 81.4096 85.0192C81.2723 85.0973 81.1658 85.2098 81.09 85.3565C81.0166 85.5033 80.9788 85.6809 80.9764 85.8892ZM87.7262 89V83.5455H89.4627V89H87.7262ZM88.5962 82.9098C88.3524 82.9098 88.1429 82.8293 87.9677 82.6683C87.7925 82.505 87.7049 82.3085 87.7049 82.0788C87.7049 81.8516 87.7925 81.6574 87.9677 81.4964C88.1429 81.3331 88.3524 81.2514 88.5962 81.2514C88.8424 81.2514 89.052 81.3331 89.2248 81.4964C89.4 81.6574 89.4876 81.8516 89.4876 82.0788C89.4876 82.3085 89.4 82.505 89.2248 82.6683C89.052 82.8293 88.8424 82.9098 88.5962 82.9098ZM92.3045 85.8892V89H90.568V83.5455H92.2193V84.5469H92.2797C92.4004 84.2131 92.6064 83.9515 92.8975 83.7621C93.1887 83.5703 93.5356 83.4744 93.938 83.4744C94.3216 83.4744 94.6542 83.5608 94.9359 83.7337C95.22 83.9041 95.4402 84.1432 95.5964 84.451C95.755 84.7564 95.8332 85.1139 95.8308 85.5234V89H94.0943V85.8643C94.0967 85.5613 94.0197 85.3246 93.8635 85.1541C93.7096 84.9837 93.4953 84.8984 93.2207 84.8984C93.0384 84.8984 92.8774 84.9387 92.7377 85.0192C92.6004 85.0973 92.4939 85.2098 92.4181 85.3565C92.3448 85.5033 92.3069 85.6809 92.3045 85.8892ZM100.006 83.5455V84.8239H96.4975V83.5455H100.006ZM97.229 89V83.2685C97.229 82.8471 97.3084 82.4979 97.467 82.2209C97.6256 81.9415 97.8458 81.7332 98.1275 81.5959C98.4092 81.4562 98.7347 81.3864 99.104 81.3864C99.3455 81.3864 99.5728 81.4053 99.7859 81.4432C100.001 81.4787 100.161 81.5107 100.265 81.5391L99.9883 82.8104C99.9244 82.7891 99.8462 82.7713 99.7539 82.7571C99.6639 82.7429 99.5787 82.7358 99.4982 82.7358C99.2946 82.7358 99.1549 82.7808 99.0792 82.8707C99.0034 82.9607 98.9656 83.0838 98.9656 83.2401V89H97.229ZM100.841 89V83.5455H102.528V84.5398H102.585C102.684 84.1799 102.847 83.9124 103.072 83.7372C103.296 83.5597 103.558 83.4709 103.856 83.4709C103.937 83.4709 104.02 83.4768 104.105 83.4886C104.19 83.4981 104.269 83.5135 104.343 83.5348V85.044C104.26 85.0156 104.151 84.9931 104.016 84.9766C103.884 84.96 103.765 84.9517 103.661 84.9517C103.455 84.9517 103.269 84.9979 103.104 85.0902C102.94 85.1802 102.811 85.3068 102.716 85.4702C102.624 85.6312 102.578 85.8205 102.578 86.0384V89H100.841ZM106.383 89.0923C106.035 89.0923 105.726 89.0343 105.456 88.9183C105.189 88.8 104.977 88.6224 104.82 88.3857C104.667 88.1465 104.59 87.8471 104.59 87.4872C104.59 87.1842 104.643 86.9285 104.749 86.7202C104.856 86.5118 105.003 86.3426 105.19 86.2124C105.377 86.0821 105.592 85.9839 105.836 85.9176C106.08 85.849 106.34 85.8028 106.617 85.7791C106.927 85.7507 107.177 85.7211 107.367 85.6903C107.556 85.6572 107.693 85.611 107.779 85.5518C107.866 85.4903 107.91 85.4039 107.91 85.2926V85.2749C107.91 85.0926 107.847 84.9517 107.722 84.8523C107.596 84.7528 107.427 84.7031 107.214 84.7031C106.984 84.7031 106.8 84.7528 106.66 84.8523C106.52 84.9517 106.432 85.089 106.394 85.2642L104.792 85.2074C104.839 84.8759 104.961 84.58 105.158 84.3196C105.357 84.0568 105.629 83.8509 105.975 83.7017C106.323 83.5502 106.74 83.4744 107.228 83.4744C107.576 83.4744 107.897 83.5159 108.191 83.5987C108.484 83.6792 108.74 83.7976 108.958 83.9538C109.175 84.1077 109.343 84.2971 109.462 84.522C109.583 84.7469 109.643 85.0038 109.643 85.2926V89H108.009V88.2401H107.967C107.87 88.4247 107.745 88.581 107.594 88.7088C107.445 88.8366 107.268 88.9325 107.065 88.9964C106.864 89.0604 106.636 89.0923 106.383 89.0923ZM106.919 87.956C107.106 87.956 107.274 87.9181 107.423 87.8423C107.575 87.7666 107.696 87.6624 107.786 87.5298C107.876 87.3949 107.921 87.2386 107.921 87.0611V86.5426C107.871 86.5687 107.811 86.5923 107.74 86.6136C107.671 86.6349 107.595 86.6551 107.512 86.674C107.429 86.6929 107.344 86.7095 107.257 86.7237C107.169 86.7379 107.085 86.7509 107.004 86.7628C106.841 86.7888 106.701 86.8291 106.585 86.8835C106.472 86.938 106.384 87.009 106.323 87.0966C106.263 87.1818 106.234 87.2836 106.234 87.402C106.234 87.5819 106.298 87.7192 106.426 87.8139C106.556 87.9086 106.72 87.956 106.919 87.956ZM115.467 85.2109L113.872 85.2536C113.856 85.1399 113.811 85.0393 113.737 84.9517C113.664 84.8617 113.568 84.7919 113.45 84.7422C113.334 84.6901 113.199 84.6641 113.045 84.6641C112.844 84.6641 112.672 84.7043 112.53 84.7848C112.39 84.8653 112.322 84.9742 112.324 85.1115C112.322 85.218 112.364 85.3104 112.452 85.3885C112.542 85.4666 112.702 85.5294 112.931 85.5767L113.982 85.7756C114.527 85.8797 114.932 86.0526 115.197 86.294C115.464 86.5355 115.599 86.8551 115.602 87.2528C115.599 87.6269 115.488 87.9524 115.268 88.2294C115.05 88.5064 114.752 88.7218 114.373 88.8757C113.994 89.0272 113.561 89.103 113.073 89.103C112.294 89.103 111.68 88.9432 111.23 88.6236C110.783 88.3016 110.527 87.8707 110.463 87.331L112.178 87.2884C112.216 87.4872 112.315 87.6387 112.473 87.7429C112.632 87.8471 112.834 87.8991 113.08 87.8991C113.303 87.8991 113.484 87.8577 113.624 87.7749C113.763 87.692 113.834 87.5819 113.837 87.4446C113.834 87.3215 113.78 87.2232 113.673 87.1499C113.567 87.0741 113.4 87.0149 113.173 86.9723L112.221 86.7912C111.674 86.6918 111.267 86.5083 110.999 86.2408C110.732 85.9709 110.599 85.6276 110.602 85.2109C110.599 84.8464 110.696 84.535 110.893 84.277C111.089 84.0166 111.369 83.8177 111.731 83.6804C112.093 83.5431 112.521 83.4744 113.013 83.4744C113.752 83.4744 114.334 83.6295 114.76 83.9396C115.186 84.2474 115.422 84.6712 115.467 85.2109ZM119.536 83.5455V84.8239H116.094V83.5455H119.536ZM116.815 82.2386H118.552V87.2848C118.552 87.3913 118.568 87.4777 118.602 87.544C118.637 87.608 118.688 87.6541 118.754 87.6825C118.821 87.7086 118.9 87.7216 118.992 87.7216C119.058 87.7216 119.128 87.7157 119.202 87.7038C119.277 87.6896 119.334 87.6778 119.372 87.6683L119.635 88.9219C119.552 88.9455 119.435 88.9751 119.283 89.0107C119.134 89.0462 118.955 89.0687 118.747 89.0781C118.34 89.0971 117.991 89.0497 117.7 88.9361C117.411 88.8201 117.189 88.6402 117.036 88.3963C116.884 88.1525 116.811 87.8459 116.815 87.4766V82.2386ZM120.422 89V83.5455H122.108V84.5398H122.165C122.265 84.1799 122.427 83.9124 122.652 83.7372C122.877 83.5597 123.138 83.4709 123.436 83.4709C123.517 83.4709 123.6 83.4768 123.685 83.4886C123.77 83.4981 123.85 83.5135 123.923 83.5348V85.044C123.84 85.0156 123.731 84.9931 123.596 84.9766C123.464 84.96 123.345 84.9517 123.241 84.9517C123.035 84.9517 122.849 84.9979 122.684 85.0902C122.52 85.1802 122.391 85.3068 122.297 85.4702C122.204 85.6312 122.158 85.8205 122.158 86.0384V89H120.422ZM128.15 86.6456V83.5455H129.883V89H128.228V87.9844H128.171C128.05 88.3182 127.844 88.5833 127.553 88.7798C127.264 88.974 126.915 89.071 126.506 89.071C126.134 89.071 125.807 88.9858 125.525 88.8153C125.244 88.6449 125.025 88.407 124.868 88.1016C124.712 87.7938 124.633 87.4339 124.631 87.022V83.5455H126.367V86.6811C126.369 86.977 126.448 87.2102 126.601 87.3807C126.755 87.5511 126.965 87.6364 127.23 87.6364C127.403 87.6364 127.558 87.5985 127.695 87.5227C127.835 87.4446 127.945 87.3321 128.025 87.1854C128.108 87.0362 128.15 86.8563 128.15 86.6456ZM133.534 89.103C132.959 89.103 132.465 88.9846 132.053 88.7479C131.644 88.5111 131.329 88.1821 131.109 87.7607C130.888 87.3369 130.778 86.8468 130.778 86.2905C130.778 85.7318 130.888 85.2417 131.109 84.8203C131.331 84.3965 131.647 84.0663 132.057 83.8295C132.469 83.5928 132.96 83.4744 133.531 83.4744C134.035 83.4744 134.474 83.5656 134.848 83.7479C135.224 83.9302 135.518 84.1882 135.729 84.522C135.942 84.8535 136.054 85.2429 136.066 85.6903H134.443C134.41 85.411 134.315 85.192 134.159 85.0334C134.005 84.8748 133.804 84.7955 133.555 84.7955C133.354 84.7955 133.178 84.8523 133.026 84.9659C132.875 85.0772 132.756 85.2429 132.671 85.4631C132.588 85.6809 132.547 85.9508 132.547 86.2727C132.547 86.5947 132.588 86.867 132.671 87.0895C132.756 87.3097 132.875 87.4766 133.026 87.5902C133.178 87.7015 133.354 87.7571 133.555 87.7571C133.716 87.7571 133.858 87.7228 133.982 87.6541C134.107 87.5855 134.21 87.4848 134.29 87.3523C134.371 87.2173 134.422 87.054 134.443 86.8622H136.066C136.049 87.312 135.937 87.705 135.729 88.0412C135.523 88.3774 135.233 88.639 134.859 88.826C134.487 89.0107 134.045 89.103 133.534 89.103ZM140.034 83.5455V84.8239H136.593V83.5455H140.034ZM137.313 82.2386H139.05V87.2848C139.05 87.3913 139.066 87.4777 139.1 87.544C139.135 87.608 139.186 87.6541 139.252 87.6825C139.319 87.7086 139.398 87.7216 139.49 87.7216C139.557 87.7216 139.626 87.7157 139.7 87.7038C139.776 87.6896 139.832 87.6778 139.87 87.6683L140.133 88.9219C140.05 88.9455 139.933 88.9751 139.781 89.0107C139.632 89.0462 139.454 89.0687 139.245 89.0781C138.838 89.0971 138.489 89.0497 138.198 88.9361C137.909 88.8201 137.687 88.6402 137.534 88.3963C137.382 88.1525 137.309 87.8459 137.313 87.4766V82.2386ZM144.439 86.6456V83.5455H146.172V89H144.517V87.9844H144.46C144.339 88.3182 144.133 88.5833 143.842 88.7798C143.553 88.974 143.204 89.071 142.795 89.071C142.423 89.071 142.096 88.9858 141.814 88.8153C141.533 88.6449 141.314 88.407 141.157 88.1016C141.001 87.7938 140.922 87.4339 140.92 87.022V83.5455H142.656V86.6811C142.658 86.977 142.737 87.2102 142.89 87.3807C143.044 87.5511 143.254 87.6364 143.519 87.6364C143.692 87.6364 143.847 87.5985 143.984 87.5227C144.124 87.4446 144.234 87.3321 144.314 87.1854C144.397 87.0362 144.439 86.8563 144.439 86.6456ZM147.277 89V83.5455H148.964V84.5398H149.021C149.12 84.1799 149.282 83.9124 149.507 83.7372C149.732 83.5597 149.994 83.4709 150.292 83.4709C150.372 83.4709 150.455 83.4768 150.54 83.4886C150.626 83.4981 150.705 83.5135 150.778 83.5348V85.044C150.696 85.0156 150.587 84.9931 150.452 84.9766C150.319 84.96 150.201 84.9517 150.097 84.9517C149.891 84.9517 149.705 84.9979 149.539 85.0902C149.376 85.1802 149.247 85.3068 149.152 85.4702C149.06 85.6312 149.013 85.8205 149.013 86.0384V89H147.277ZM153.752 89.103C153.182 89.103 152.69 88.9905 152.275 88.7656C151.863 88.5384 151.546 88.2152 151.324 87.7962C151.103 87.3748 150.993 86.8741 150.993 86.294C150.993 85.7306 151.105 85.2382 151.327 84.8168C151.55 84.393 151.863 84.0639 152.268 83.8295C152.673 83.5928 153.15 83.4744 153.699 83.4744C154.087 83.4744 154.443 83.5348 154.765 83.6555C155.087 83.7763 155.365 83.955 155.599 84.1918C155.833 84.4285 156.016 84.7209 156.146 85.0689C156.276 85.4145 156.341 85.8111 156.341 86.2585V86.6918H151.6V85.6832H154.725C154.723 85.4986 154.679 85.334 154.594 85.1896C154.509 85.0452 154.392 84.9328 154.243 84.8523C154.096 84.7694 153.926 84.728 153.735 84.728C153.541 84.728 153.367 84.7718 153.213 84.8594C153.059 84.9446 152.937 85.0618 152.847 85.2109C152.757 85.3577 152.71 85.5246 152.705 85.7116V86.7379C152.705 86.9605 152.749 87.1558 152.836 87.3239C152.924 87.4896 153.048 87.6186 153.209 87.7109C153.37 87.8033 153.562 87.8494 153.784 87.8494C153.938 87.8494 154.078 87.8281 154.203 87.7855C154.329 87.7429 154.437 87.6802 154.527 87.5973C154.617 87.5144 154.684 87.4126 154.729 87.2919L156.324 87.3381C156.257 87.6955 156.112 88.0069 155.887 88.272C155.664 88.5348 155.372 88.7396 155.01 88.8864C154.647 89.0308 154.228 89.103 153.752 89.103ZM159.377 91.0455V83.5455H161.095V84.4794H161.149C161.22 84.3137 161.32 84.1539 161.45 84C161.583 83.8461 161.751 83.7206 161.955 83.6236C162.161 83.5241 162.407 83.4744 162.693 83.4744C163.072 83.4744 163.426 83.5739 163.755 83.7727C164.087 83.9716 164.354 84.2782 164.558 84.6925C164.761 85.1068 164.863 85.6347 164.863 86.2763C164.863 86.8942 164.765 87.4115 164.568 87.8281C164.374 88.2448 164.111 88.5573 163.78 88.7656C163.451 88.974 163.085 89.0781 162.683 89.0781C162.408 89.0781 162.17 89.0331 161.969 88.9432C161.768 88.8532 161.598 88.7348 161.461 88.5881C161.326 88.4413 161.222 88.2839 161.149 88.1158H161.113V91.0455H159.377ZM161.078 86.2727C161.078 86.5663 161.117 86.822 161.195 87.0398C161.275 87.2576 161.39 87.4268 161.539 87.5476C161.691 87.666 161.872 87.7251 162.083 87.7251C162.296 87.7251 162.477 87.666 162.626 87.5476C162.775 87.4268 162.887 87.2576 162.963 87.0398C163.041 86.822 163.08 86.5663 163.08 86.2727C163.08 85.9792 163.041 85.7247 162.963 85.5092C162.887 85.2938 162.775 85.1269 162.626 85.0085C162.479 84.8902 162.298 84.831 162.083 84.831C161.869 84.831 161.688 84.889 161.539 85.005C161.39 85.121 161.275 85.2867 161.195 85.5021C161.117 85.7176 161.078 85.9744 161.078 86.2727ZM165.773 89V83.5455H167.46V84.5398H167.517C167.616 84.1799 167.778 83.9124 168.003 83.7372C168.228 83.5597 168.49 83.4709 168.788 83.4709C168.868 83.4709 168.951 83.4768 169.037 83.4886C169.122 83.4981 169.201 83.5135 169.275 83.5348V85.044C169.192 85.0156 169.083 84.9931 168.948 84.9766C168.815 84.96 168.697 84.9517 168.593 84.9517C168.387 84.9517 168.201 84.9979 168.035 85.0902C167.872 85.1802 167.743 85.3068 167.648 85.4702C167.556 85.6312 167.51 85.8205 167.51 86.0384V89H165.773ZM172.245 89.103C171.672 89.103 171.18 88.9858 170.768 88.7514C170.358 88.5147 170.042 88.1856 169.82 87.7642C169.599 87.3404 169.489 86.8492 169.489 86.2905C169.489 85.7294 169.599 85.2382 169.82 84.8168C170.042 84.393 170.358 84.0639 170.768 83.8295C171.18 83.5928 171.672 83.4744 172.245 83.4744C172.818 83.4744 173.309 83.5928 173.719 83.8295C174.131 84.0639 174.447 84.393 174.667 84.8168C174.889 85.2382 175.001 85.7294 175.001 86.2905C175.001 86.8492 174.889 87.3404 174.667 87.7642C174.447 88.1856 174.131 88.5147 173.719 88.7514C173.309 88.9858 172.818 89.103 172.245 89.103ZM172.256 87.7926C172.464 87.7926 172.64 87.7287 172.785 87.6009C172.929 87.473 173.039 87.2955 173.115 87.0682C173.193 86.8409 173.232 86.5781 173.232 86.2798C173.232 85.9768 173.193 85.7116 173.115 85.4844C173.039 85.2571 172.929 85.0795 172.785 84.9517C172.64 84.8239 172.464 84.7599 172.256 84.7599C172.04 84.7599 171.858 84.8239 171.709 84.9517C171.562 85.0795 171.45 85.2571 171.371 85.4844C171.296 85.7116 171.258 85.9768 171.258 86.2798C171.258 86.5781 171.296 86.8409 171.371 87.0682C171.45 87.2955 171.562 87.473 171.709 87.6009C171.858 87.7287 172.04 87.7926 172.256 87.7926ZM181.006 83.5455L179.134 89H177.146L175.278 83.5455H177.107L178.112 87.3026H178.168L179.177 83.5455H181.006ZM181.672 89V83.5455H183.408V89H181.672ZM182.542 82.9098C182.298 82.9098 182.088 82.8293 181.913 82.6683C181.738 82.505 181.65 82.3085 181.65 82.0788C181.65 81.8516 181.738 81.6574 181.913 81.4964C182.088 81.3331 182.298 81.2514 182.542 81.2514C182.788 81.2514 182.997 81.3331 183.17 81.4964C183.345 81.6574 183.433 81.8516 183.433 82.0788C183.433 82.3085 183.345 82.505 183.17 82.6683C182.997 82.8293 182.788 82.9098 182.542 82.9098ZM186.506 89.0781C186.103 89.0781 185.737 88.974 185.408 88.7656C185.079 88.5573 184.816 88.2448 184.62 87.8281C184.423 87.4115 184.325 86.8942 184.325 86.2763C184.325 85.6347 184.427 85.1068 184.631 84.6925C184.834 84.2782 185.1 83.9716 185.43 83.7727C185.761 83.5739 186.117 83.4744 186.498 83.4744C186.785 83.4744 187.03 83.5241 187.233 83.6236C187.437 83.7206 187.605 83.8461 187.738 84C187.87 84.1539 187.971 84.3137 188.04 84.4794H188.075V81.7273H189.812V89H188.093V88.1158H188.04C187.966 88.2839 187.862 88.4413 187.727 88.5881C187.592 88.7348 187.423 88.8532 187.219 88.9432C187.018 89.0331 186.78 89.0781 186.506 89.0781ZM187.109 87.7251C187.32 87.7251 187.5 87.666 187.649 87.5476C187.798 87.4268 187.913 87.2576 187.993 87.0398C188.074 86.822 188.114 86.5663 188.114 86.2727C188.114 85.9744 188.074 85.7176 187.993 85.5021C187.915 85.2867 187.8 85.121 187.649 85.005C187.5 84.889 187.32 84.831 187.109 84.831C186.894 84.831 186.711 84.8902 186.562 85.0085C186.413 85.1269 186.3 85.2938 186.221 85.5092C186.146 85.7247 186.108 85.9792 186.108 86.2727C186.108 86.5663 186.147 86.822 186.225 87.0398C186.303 87.2576 186.416 87.4268 186.562 87.5476C186.711 87.666 186.894 87.7251 187.109 87.7251ZM193.46 89.103C192.889 89.103 192.397 88.9905 191.982 88.7656C191.57 88.5384 191.253 88.2152 191.031 87.7962C190.81 87.3748 190.7 86.8741 190.7 86.294C190.7 85.7306 190.812 85.2382 191.034 84.8168C191.257 84.393 191.57 84.0639 191.975 83.8295C192.38 83.5928 192.857 83.4744 193.406 83.4744C193.795 83.4744 194.15 83.5348 194.472 83.6555C194.794 83.7763 195.072 83.955 195.306 84.1918C195.54 84.4285 195.723 84.7209 195.853 85.0689C195.983 85.4145 196.048 85.8111 196.048 86.2585V86.6918H191.308V85.6832H194.433C194.43 85.4986 194.386 85.334 194.301 85.1896C194.216 85.0452 194.099 84.9328 193.95 84.8523C193.803 84.7694 193.634 84.728 193.442 84.728C193.248 84.728 193.074 84.7718 192.92 84.8594C192.766 84.9446 192.644 85.0618 192.554 85.2109C192.464 85.3577 192.417 85.5246 192.412 85.7116V86.7379C192.412 86.9605 192.456 87.1558 192.543 87.3239C192.631 87.4896 192.755 87.6186 192.916 87.7109C193.077 87.8033 193.269 87.8494 193.491 87.8494C193.645 87.8494 193.785 87.8281 193.911 87.7855C194.036 87.7429 194.144 87.6802 194.234 87.5973C194.324 87.5144 194.391 87.4126 194.436 87.2919L196.031 87.3381C195.964 87.6955 195.819 88.0069 195.594 88.272C195.371 88.5348 195.079 88.7396 194.717 88.8864C194.354 89.0308 193.935 89.103 193.46 89.103ZM196.935 89V83.5455H198.622V84.5398H198.679C198.778 84.1799 198.94 83.9124 199.165 83.7372C199.39 83.5597 199.652 83.4709 199.95 83.4709C200.031 83.4709 200.113 83.4768 200.199 83.4886C200.284 83.4981 200.363 83.5135 200.437 83.5348V85.044C200.354 85.0156 200.245 84.9931 200.11 84.9766C199.977 84.96 199.859 84.9517 199.755 84.9517C199.549 84.9517 199.363 84.9979 199.197 85.0902C199.034 85.1802 198.905 85.3068 198.81 85.4702C198.718 85.6312 198.672 85.8205 198.672 86.0384V89H196.935ZM208.055 85.2109L206.46 85.2536C206.444 85.1399 206.399 85.0393 206.325 84.9517C206.252 84.8617 206.156 84.7919 206.038 84.7422C205.922 84.6901 205.787 84.6641 205.633 84.6641C205.432 84.6641 205.26 84.7043 205.118 84.7848C204.978 84.8653 204.91 84.9742 204.912 85.1115C204.91 85.218 204.952 85.3104 205.04 85.3885C205.13 85.4666 205.29 85.5294 205.519 85.5767L206.57 85.7756C207.115 85.8797 207.52 86.0526 207.785 86.294C208.052 86.5355 208.187 86.8551 208.19 87.2528C208.187 87.6269 208.076 87.9524 207.856 88.2294C207.638 88.5064 207.34 88.7218 206.961 88.8757C206.582 89.0272 206.149 89.103 205.661 89.103C204.882 89.103 204.268 88.9432 203.818 88.6236C203.371 88.3016 203.115 87.8707 203.051 87.331L204.766 87.2884C204.804 87.4872 204.902 87.6387 205.061 87.7429C205.22 87.8471 205.422 87.8991 205.668 87.8991C205.891 87.8991 206.072 87.8577 206.212 87.7749C206.351 87.692 206.422 87.5819 206.425 87.4446C206.422 87.3215 206.368 87.2232 206.261 87.1499C206.155 87.0741 205.988 87.0149 205.761 86.9723L204.809 86.7912C204.262 86.6918 203.855 86.5083 203.587 86.2408C203.32 85.9709 203.187 85.6276 203.19 85.2109C203.187 84.8464 203.284 84.535 203.481 84.277C203.677 84.0166 203.957 83.8177 204.319 83.6804C204.681 83.5431 205.108 83.4744 205.601 83.4744C206.339 83.4744 206.922 83.6295 207.348 83.9396C207.774 84.2474 208.01 84.6712 208.055 85.2109ZM212.564 86.6456V83.5455H214.297V89H212.642V87.9844H212.585C212.464 88.3182 212.258 88.5833 211.967 88.7798C211.678 88.974 211.329 89.071 210.92 89.071C210.548 89.071 210.221 88.9858 209.939 88.8153C209.658 88.6449 209.439 88.407 209.282 88.1016C209.126 87.7938 209.047 87.4339 209.045 87.022V83.5455H210.781V86.6811C210.783 86.977 210.862 87.2102 211.015 87.3807C211.169 87.5511 211.379 87.6364 211.644 87.6364C211.817 87.6364 211.972 87.5985 212.109 87.5227C212.249 87.4446 212.359 87.3321 212.439 87.1854C212.522 87.0362 212.564 86.8563 212.564 86.6456ZM215.402 91.0455V83.5455H217.121V84.4794H217.174C217.245 84.3137 217.346 84.1539 217.476 84C217.608 83.8461 217.777 83.7206 217.98 83.6236C218.186 83.5241 218.432 83.4744 218.719 83.4744C219.098 83.4744 219.451 83.5739 219.781 83.7727C220.112 83.9716 220.379 84.2782 220.583 84.6925C220.787 85.1068 220.888 85.6347 220.888 86.2763C220.888 86.8942 220.79 87.4115 220.594 87.8281C220.4 88.2448 220.137 88.5573 219.805 88.7656C219.476 88.974 219.111 89.0781 218.708 89.0781C218.433 89.0781 218.196 89.0331 217.994 88.9432C217.793 88.8532 217.624 88.7348 217.487 88.5881C217.352 88.4413 217.247 88.2839 217.174 88.1158H217.138V91.0455H215.402ZM217.103 86.2727C217.103 86.5663 217.142 86.822 217.22 87.0398C217.301 87.2576 217.415 87.4268 217.565 87.5476C217.716 87.666 217.897 87.7251 218.108 87.7251C218.321 87.7251 218.502 87.666 218.651 87.5476C218.8 87.4268 218.913 87.2576 218.989 87.0398C219.067 86.822 219.106 86.5663 219.106 86.2727C219.106 85.9792 219.067 85.7247 218.989 85.5092C218.913 85.2938 218.8 85.1269 218.651 85.0085C218.504 84.8902 218.323 84.831 218.108 84.831C217.895 84.831 217.714 84.889 217.565 85.005C217.415 85.121 217.301 85.2867 217.22 85.5021C217.142 85.7176 217.103 85.9744 217.103 86.2727ZM221.798 91.0455V83.5455H223.517V84.4794H223.57C223.642 84.3137 223.742 84.1539 223.872 84C224.005 83.8461 224.173 83.7206 224.377 83.6236C224.583 83.5241 224.829 83.4744 225.115 83.4744C225.494 83.4744 225.848 83.5739 226.177 83.7727C226.508 83.9716 226.776 84.2782 226.98 84.6925C227.183 85.1068 227.285 85.6347 227.285 86.2763C227.285 86.8942 227.187 87.4115 226.99 87.8281C226.796 88.2448 226.533 88.5573 226.202 88.7656C225.873 88.974 225.507 89.0781 225.105 89.0781C224.83 89.0781 224.592 89.0331 224.391 88.9432C224.19 88.8532 224.02 88.7348 223.883 88.5881C223.748 88.4413 223.644 88.2839 223.57 88.1158H223.535V91.0455H221.798ZM223.499 86.2727C223.499 86.5663 223.539 86.822 223.617 87.0398C223.697 87.2576 223.812 87.4268 223.961 87.5476C224.113 87.666 224.294 87.7251 224.504 87.7251C224.718 87.7251 224.899 87.666 225.048 87.5476C225.197 87.4268 225.309 87.2576 225.385 87.0398C225.463 86.822 225.502 86.5663 225.502 86.2727C225.502 85.9792 225.463 85.7247 225.385 85.5092C225.309 85.2938 225.197 85.1269 225.048 85.0085C224.901 84.8902 224.72 84.831 224.504 84.831C224.291 84.831 224.11 84.889 223.961 85.005C223.812 85.121 223.697 85.2867 223.617 85.5021C223.539 85.7176 223.499 85.9744 223.499 86.2727ZM230.741 89.103C230.168 89.103 229.676 88.9858 229.264 88.7514C228.854 88.5147 228.538 88.1856 228.316 87.7642C228.096 87.3404 227.985 86.8492 227.985 86.2905C227.985 85.7294 228.096 85.2382 228.316 84.8168C228.538 84.393 228.854 84.0639 229.264 83.8295C229.676 83.5928 230.168 83.4744 230.741 83.4744C231.314 83.4744 231.805 83.5928 232.215 83.8295C232.627 84.0639 232.943 84.393 233.163 84.8168C233.386 85.2382 233.497 85.7294 233.497 86.2905C233.497 86.8492 233.386 87.3404 233.163 87.7642C232.943 88.1856 232.627 88.5147 232.215 88.7514C231.805 88.9858 231.314 89.103 230.741 89.103ZM230.752 87.7926C230.96 87.7926 231.136 87.7287 231.281 87.6009C231.425 87.473 231.535 87.2955 231.611 87.0682C231.689 86.8409 231.728 86.5781 231.728 86.2798C231.728 85.9768 231.689 85.7116 231.611 85.4844C231.535 85.2571 231.425 85.0795 231.281 84.9517C231.136 84.8239 230.96 84.7599 230.752 84.7599C230.536 84.7599 230.354 84.8239 230.205 84.9517C230.058 85.0795 229.946 85.2571 229.868 85.4844C229.792 85.7116 229.754 85.9768 229.754 86.2798C229.754 86.5781 229.792 86.8409 229.868 87.0682C229.946 87.2955 230.058 87.473 230.205 87.6009C230.354 87.7287 230.536 87.7926 230.752 87.7926ZM234.386 89V83.5455H236.073V84.5398H236.13C236.229 84.1799 236.392 83.9124 236.616 83.7372C236.841 83.5597 237.103 83.4709 237.401 83.4709C237.482 83.4709 237.565 83.4768 237.65 83.4886C237.735 83.4981 237.814 83.5135 237.888 83.5348V85.044C237.805 85.0156 237.696 84.9931 237.561 84.9766C237.429 84.96 237.31 84.9517 237.206 84.9517C237 84.9517 236.814 84.9979 236.648 85.0902C236.485 85.1802 236.356 85.3068 236.261 85.4702C236.169 85.6312 236.123 85.8205 236.123 86.0384V89H234.386ZM241.928 83.5455V84.8239H238.487V83.5455H241.928ZM239.208 82.2386H240.944V87.2848C240.944 87.3913 240.961 87.4777 240.994 87.544C241.03 87.608 241.081 87.6541 241.147 87.6825C241.213 87.7086 241.292 87.7216 241.385 87.7216C241.451 87.7216 241.521 87.7157 241.594 87.7038C241.67 87.6896 241.727 87.6778 241.765 87.6683L242.028 88.9219C241.945 88.9455 241.827 88.9751 241.676 89.0107C241.527 89.0462 241.348 89.0687 241.14 89.0781C240.733 89.0971 240.383 89.0497 240.092 88.9361C239.803 88.8201 239.582 88.6402 239.428 88.3963C239.277 88.1525 239.203 87.8459 239.208 87.4766V82.2386ZM242.814 89V83.5455H244.551V89H242.814ZM243.684 82.9098C243.44 82.9098 243.231 82.8293 243.056 82.6683C242.88 82.505 242.793 82.3085 242.793 82.0788C242.793 81.8516 242.88 81.6574 243.056 81.4964C243.231 81.3331 243.44 81.2514 243.684 81.2514C243.93 81.2514 244.14 81.3331 244.313 81.4964C244.488 81.6574 244.575 81.8516 244.575 82.0788C244.575 82.3085 244.488 82.505 244.313 82.6683C244.14 82.8293 243.93 82.9098 243.684 82.9098ZM247.392 85.8892V89H245.656V83.5455H247.307V84.5469H247.368C247.488 84.2131 247.694 83.9515 247.985 83.7621C248.277 83.5703 248.623 83.4744 249.026 83.4744C249.409 83.4744 249.742 83.5608 250.024 83.7337C250.308 83.9041 250.528 84.1432 250.684 84.451C250.843 84.7564 250.921 85.1139 250.919 85.5234V89H249.182V85.8643C249.185 85.5613 249.108 85.3246 248.951 85.1541C248.797 84.9837 248.583 84.8984 248.309 84.8984C248.126 84.8984 247.965 84.9387 247.826 85.0192C247.688 85.0973 247.582 85.2098 247.506 85.3565C247.433 85.5033 247.395 85.6809 247.392 85.8892ZM254.536 91.1591C254.018 91.1591 253.574 91.0869 253.205 90.9425C252.835 90.7981 252.545 90.6004 252.335 90.3494C252.124 90.0985 251.997 89.8144 251.955 89.4972L253.599 89.4048C253.63 89.5161 253.686 89.6132 253.769 89.696C253.855 89.7789 253.965 89.8428 254.1 89.8878C254.237 89.9328 254.398 89.9553 254.583 89.9553C254.874 89.9553 255.114 89.8842 255.303 89.7422C255.495 89.6025 255.591 89.3575 255.591 89.0071V88.0483H255.531C255.462 88.2164 255.358 88.3667 255.218 88.4993C255.079 88.6319 254.905 88.736 254.696 88.8118C254.49 88.8875 254.253 88.9254 253.986 88.9254C253.588 88.9254 253.224 88.8331 252.892 88.6484C252.563 88.4614 252.299 88.1726 252.1 87.782C251.904 87.389 251.806 86.8835 251.806 86.2656C251.806 85.6288 251.907 85.1044 252.111 84.6925C252.315 84.2782 252.581 83.9716 252.91 83.7727C253.241 83.5739 253.598 83.4744 253.979 83.4744C254.265 83.4744 254.51 83.5241 254.714 83.6236C254.92 83.7206 255.089 83.8461 255.222 84C255.354 84.1539 255.455 84.3137 255.524 84.4794H255.573V83.5455H257.303V89.0213C257.303 89.483 257.187 89.8724 256.955 90.1896C256.723 90.5069 256.398 90.7472 255.982 90.9105C255.565 91.0762 255.083 91.1591 254.536 91.1591ZM254.59 87.6612C254.8 87.6612 254.98 87.6056 255.129 87.4943C255.279 87.383 255.393 87.2232 255.474 87.0149C255.554 86.8066 255.595 86.5568 255.595 86.2656C255.595 85.9697 255.554 85.7152 255.474 85.5021C255.396 85.2867 255.281 85.121 255.129 85.005C254.98 84.889 254.8 84.831 254.59 84.831C254.374 84.831 254.192 84.8902 254.043 85.0085C253.894 85.1269 253.78 85.2938 253.702 85.5092C253.626 85.7223 253.588 85.9744 253.588 86.2656C253.588 86.5568 253.627 86.8066 253.705 87.0149C253.784 87.2232 253.896 87.383 254.043 87.4943C254.192 87.6056 254.374 87.6612 254.59 87.6612ZM35.0966 101.103C34.5237 101.103 34.0313 100.986 33.6193 100.751C33.2098 100.515 32.8937 100.186 32.6712 99.7642C32.451 99.3404 32.3409 98.8492 32.3409 98.2905C32.3409 97.7294 32.451 97.2382 32.6712 96.8168C32.8937 96.393 33.2098 96.0639 33.6193 95.8295C34.0313 95.5928 34.5237 95.4744 35.0966 95.4744C35.6695 95.4744 36.1607 95.5928 36.5703 95.8295C36.9822 96.0639 37.2983 96.393 37.5185 96.8168C37.741 97.2382 37.8523 97.7294 37.8523 98.2905C37.8523 98.8492 37.741 99.3404 37.5185 99.7642C37.2983 100.186 36.9822 100.515 36.5703 100.751C36.1607 100.986 35.6695 101.103 35.0966 101.103ZM35.1072 99.7926C35.3156 99.7926 35.492 99.7287 35.6364 99.6009C35.7808 99.473 35.8909 99.2955 35.9666 99.0682C36.0447 98.8409 36.0838 98.5781 36.0838 98.2798C36.0838 97.9768 36.0447 97.7116 35.9666 97.4844C35.8909 97.2571 35.7808 97.0795 35.6364 96.9517C35.492 96.8239 35.3156 96.7599 35.1072 96.7599C34.8918 96.7599 34.7095 96.8239 34.5604 96.9517C34.4136 97.0795 34.3011 97.2571 34.223 97.4844C34.1473 97.7116 34.1094 97.9768 34.1094 98.2798C34.1094 98.5781 34.1473 98.8409 34.223 99.0682C34.3011 99.2955 34.4136 99.473 34.5604 99.6009C34.7095 99.7287 34.8918 99.7926 35.1072 99.7926ZM40.4783 97.8892V101H38.7418V95.5455H40.3931V96.5469H40.4535C40.5742 96.2131 40.7802 95.9515 41.0714 95.7621C41.3626 95.5703 41.7094 95.4744 42.1119 95.4744C42.4954 95.4744 42.828 95.5608 43.1097 95.7337C43.3938 95.9041 43.614 96.1432 43.7702 96.451C43.9289 96.7564 44.007 97.1139 44.0046 97.5234V101H42.2681V97.8643C42.2705 97.5613 42.1935 97.3246 42.0373 97.1541C41.8834 96.9837 41.6692 96.8984 41.3945 96.8984C41.2122 96.8984 41.0513 96.9387 40.9116 97.0192C40.7743 97.0973 40.6677 97.2098 40.592 97.3565C40.5186 97.5033 40.4807 97.6809 40.4783 97.8892ZM48.5705 97.3885V98.7273H45.204V97.3885H48.5705ZM49.7965 101V95.5455H51.4833V96.5398H51.5401C51.6396 96.1799 51.8017 95.9124 52.0266 95.7372C52.2515 95.5597 52.5131 95.4709 52.8114 95.4709C52.8919 95.4709 52.9748 95.4768 53.06 95.4886C53.1452 95.4981 53.2246 95.5135 53.2979 95.5348V97.044C53.2151 97.0156 53.1062 96.9931 52.9712 96.9766C52.8387 96.96 52.7203 96.9517 52.6161 96.9517C52.4102 96.9517 52.2243 96.9979 52.0586 97.0902C51.8952 97.1802 51.7662 97.3068 51.6715 97.4702C51.5792 97.6312 51.533 97.8205 51.533 98.0384V101H49.7965ZM55.3381 101.092C54.9901 101.092 54.6811 101.034 54.4112 100.918C54.1437 100.8 53.9318 100.622 53.7756 100.386C53.6217 100.147 53.5447 99.8471 53.5447 99.4872C53.5447 99.1842 53.598 98.9285 53.7045 98.7202C53.8111 98.5118 53.9579 98.3426 54.1449 98.2124C54.3319 98.0821 54.5473 97.9839 54.7912 97.9176C55.035 97.849 55.2955 97.8028 55.5724 97.7791C55.8826 97.7507 56.1323 97.7211 56.3217 97.6903C56.5111 97.6572 56.6484 97.611 56.7337 97.5518C56.8213 97.4903 56.8651 97.4039 56.8651 97.2926V97.2749C56.8651 97.0926 56.8023 96.9517 56.6768 96.8523C56.5514 96.7528 56.3821 96.7031 56.169 96.7031C55.9394 96.7031 55.7547 96.7528 55.6151 96.8523C55.4754 96.9517 55.3866 97.089 55.3487 97.2642L53.7472 97.2074C53.7945 96.8759 53.9164 96.58 54.1129 96.3196C54.3118 96.0568 54.584 95.8509 54.9297 95.7017C55.2777 95.5502 55.6955 95.4744 56.1832 95.4744C56.5313 95.4744 56.852 95.5159 57.1456 95.5987C57.4392 95.6792 57.6948 95.7976 57.9126 95.9538C58.1304 96.1077 58.2985 96.2971 58.4169 96.522C58.5376 96.7469 58.598 97.0038 58.598 97.2926V101H56.9645V100.24H56.9219C56.8248 100.425 56.7005 100.581 56.549 100.709C56.3999 100.837 56.2235 100.933 56.0199 100.996C55.8187 101.06 55.5914 101.092 55.3381 101.092ZM55.8743 99.956C56.0613 99.956 56.2294 99.9181 56.3786 99.8423C56.5301 99.7666 56.6508 99.6624 56.7408 99.5298C56.8307 99.3949 56.8757 99.2386 56.8757 99.0611V98.5426C56.826 98.5687 56.7656 98.5923 56.6946 98.6136C56.6259 98.6349 56.5502 98.6551 56.4673 98.674C56.3845 98.6929 56.2992 98.7095 56.2116 98.7237C56.1241 98.7379 56.04 98.7509 55.9595 98.7628C55.7962 98.7888 55.6565 98.8291 55.5405 98.8835C55.4268 98.938 55.3393 99.009 55.2777 99.0966C55.2185 99.1818 55.1889 99.2836 55.1889 99.402C55.1889 99.5819 55.2528 99.7192 55.3807 99.8139C55.5109 99.9086 55.6754 99.956 55.8743 99.956ZM59.6598 101V95.5455H61.3111V96.5469H61.3714C61.4851 96.2154 61.6768 95.9538 61.9467 95.7621C62.2166 95.5703 62.5386 95.4744 62.9126 95.4744C63.2914 95.4744 63.6158 95.5715 63.8857 95.7656C64.1555 95.9598 64.3272 96.2202 64.4006 96.5469H64.4574C64.5592 96.2225 64.758 95.9633 65.054 95.7692C65.3499 95.5727 65.6991 95.4744 66.1016 95.4744C66.6177 95.4744 67.0367 95.6402 67.3587 95.9716C67.6806 96.3007 67.8416 96.7528 67.8416 97.3281V101H66.1051V97.7259C66.1051 97.4536 66.0353 97.2464 65.8956 97.1044C65.7559 96.96 65.5748 96.8878 65.3523 96.8878C65.1132 96.8878 64.925 96.9659 64.7876 97.1222C64.6527 97.276 64.5852 97.4832 64.5852 97.7436V101H62.9162V97.7081C62.9162 97.4548 62.8475 97.2547 62.7102 97.108C62.5729 96.9612 62.3918 96.8878 62.1669 96.8878C62.0154 96.8878 61.8816 96.9245 61.7656 96.9979C61.6496 97.0689 61.5585 97.1707 61.4922 97.3033C61.4283 97.4358 61.3963 97.5921 61.3963 97.772V101H59.6598ZM68.9176 103.045V95.5455H70.6364V96.4794H70.6896C70.7607 96.3137 70.8613 96.1539 70.9915 96C71.1241 95.8461 71.2921 95.7206 71.4957 95.6236C71.7017 95.5241 71.9479 95.4744 72.2344 95.4744C72.6132 95.4744 72.9671 95.5739 73.2962 95.7727C73.6276 95.9716 73.8951 96.2782 74.0987 96.6925C74.3023 97.1068 74.4041 97.6347 74.4041 98.2763C74.4041 98.8942 74.3059 99.4115 74.1094 99.8281C73.9152 100.245 73.6525 100.557 73.321 100.766C72.992 100.974 72.6262 101.078 72.2237 101.078C71.9491 101.078 71.7112 101.033 71.5099 100.943C71.3087 100.853 71.1394 100.735 71.0021 100.588C70.8672 100.441 70.763 100.284 70.6896 100.116H70.6541V103.045H68.9176ZM70.6186 98.2727C70.6186 98.5663 70.6577 98.822 70.7358 99.0398C70.8163 99.2576 70.9311 99.4268 71.0803 99.5476C71.2318 99.666 71.4129 99.7251 71.6236 99.7251C71.8366 99.7251 72.0178 99.666 72.1669 99.5476C72.3161 99.4268 72.4285 99.2576 72.5043 99.0398C72.5824 98.822 72.6214 98.5663 72.6214 98.2727C72.6214 97.9792 72.5824 97.7247 72.5043 97.5092C72.4285 97.2938 72.3161 97.1269 72.1669 97.0085C72.0201 96.8902 71.839 96.831 71.6236 96.831C71.4105 96.831 71.2294 96.889 71.0803 97.005C70.9311 97.121 70.8163 97.2867 70.7358 97.5021C70.6577 97.7176 70.6186 97.9744 70.6186 98.2727ZM80.0762 97.2109L78.4817 97.2536C78.4651 97.1399 78.4202 97.0393 78.3468 96.9517C78.2734 96.8617 78.1775 96.7919 78.0591 96.7422C77.9431 96.6901 77.8082 96.6641 77.6543 96.6641C77.4531 96.6641 77.2814 96.7043 77.1394 96.7848C76.9997 96.8653 76.931 96.9742 76.9334 97.1115C76.931 97.218 76.9737 97.3104 77.0613 97.3885C77.1512 97.4666 77.311 97.5294 77.5407 97.5767L78.5918 97.7756C79.1363 97.8797 79.5411 98.0526 79.8063 98.294C80.0738 98.5355 80.2087 98.8551 80.2111 99.2528C80.2087 99.6269 80.0975 99.9524 79.8773 100.229C79.6595 100.506 79.3612 100.722 78.9824 100.876C78.6036 101.027 78.1704 101.103 77.6827 101.103C76.9038 101.103 76.2895 100.943 75.8397 100.624C75.3922 100.302 75.1365 99.8707 75.0726 99.331L76.7878 99.2884C76.8257 99.4872 76.9239 99.6387 77.0826 99.7429C77.2412 99.8471 77.4436 99.8991 77.6898 99.8991C77.9123 99.8991 78.0935 99.8577 78.2331 99.7749C78.3728 99.692 78.4438 99.5819 78.4462 99.4446C78.4438 99.3215 78.3894 99.2232 78.2828 99.1499C78.1763 99.0741 78.0094 99.0149 77.7821 98.9723L76.8304 98.7912C76.2836 98.6918 75.8764 98.5083 75.6088 98.2408C75.3413 97.9709 75.2087 97.6276 75.2111 97.2109C75.2087 96.8464 75.3058 96.535 75.5023 96.277C75.6988 96.0166 75.9782 95.8177 76.3404 95.6804C76.7026 95.5431 77.1299 95.4744 77.6223 95.4744C78.361 95.4744 78.9434 95.6295 79.3695 95.9396C79.7956 96.2474 80.0312 96.6712 80.0762 97.2109ZM82.8381 100.006L82.8061 100.4C82.7777 100.727 82.7197 101.045 82.6321 101.355C82.5469 101.668 82.4557 101.948 82.3587 102.197C82.2616 102.445 82.1847 102.638 82.1278 102.776H81.0341C81.072 102.638 81.1229 102.445 81.1868 102.197C81.2531 101.948 81.3146 101.668 81.3714 101.355C81.4283 101.043 81.4602 100.725 81.4673 100.403L81.4744 100.006H82.8381ZM88.4071 101.103C87.8342 101.103 87.3418 100.986 86.9299 100.751C86.5203 100.515 86.2042 100.186 85.9817 99.7642C85.7615 99.3404 85.6515 98.8492 85.6515 98.2905C85.6515 97.7294 85.7615 97.2382 85.9817 96.8168C86.2042 96.393 86.5203 96.0639 86.9299 95.8295C87.3418 95.5928 87.8342 95.4744 88.4071 95.4744C88.9801 95.4744 89.4713 95.5928 89.8809 95.8295C90.2928 96.0639 90.6088 96.393 90.829 96.8168C91.0516 97.2382 91.1628 97.7294 91.1628 98.2905C91.1628 98.8492 91.0516 99.3404 90.829 99.7642C90.6088 100.186 90.2928 100.515 89.8809 100.751C89.4713 100.986 88.9801 101.103 88.4071 101.103ZM88.4178 99.7926C88.6261 99.7926 88.8025 99.7287 88.9469 99.6009C89.0913 99.473 89.2014 99.2955 89.2772 99.0682C89.3553 98.8409 89.3944 98.5781 89.3944 98.2798C89.3944 97.9768 89.3553 97.7116 89.2772 97.4844C89.2014 97.2571 89.0913 97.0795 88.9469 96.9517C88.8025 96.8239 88.6261 96.7599 88.4178 96.7599C88.2024 96.7599 88.0201 96.8239 87.8709 96.9517C87.7241 97.0795 87.6117 97.2571 87.5336 97.4844C87.4578 97.7116 87.4199 97.9768 87.4199 98.2798C87.4199 98.5781 87.4578 98.8409 87.5336 99.0682C87.6117 99.2955 87.7241 99.473 87.8709 99.6009C88.0201 99.7287 88.2024 99.7926 88.4178 99.7926ZM95.1525 95.5455V96.8239H91.644V95.5455H95.1525ZM92.3755 101V95.2685C92.3755 94.8471 92.4548 94.4979 92.6135 94.2209C92.7721 93.9415 92.9922 93.7332 93.274 93.5959C93.5557 93.4562 93.8812 93.3864 94.2505 93.3864C94.492 93.3864 94.7193 93.4053 94.9324 93.4432C95.1478 93.4787 95.3076 93.5107 95.4118 93.5391L95.1348 94.8104C95.0708 94.7891 94.9927 94.7713 94.9004 94.7571C94.8104 94.7429 94.7252 94.7358 94.6447 94.7358C94.4411 94.7358 94.3014 94.7808 94.2257 94.8707C94.1499 94.9607 94.112 95.0838 94.112 95.2401V101H92.3755ZM99.0881 95.5455V96.8239H95.5795V95.5455H99.0881ZM96.3111 101V95.2685C96.3111 94.8471 96.3904 94.4979 96.549 94.2209C96.7076 93.9415 96.9278 93.7332 97.2095 93.5959C97.4912 93.4562 97.8168 93.3864 98.1861 93.3864C98.4276 93.3864 98.6548 93.4053 98.8679 93.4432C99.0833 93.4787 99.2431 93.5107 99.3473 93.5391L99.0703 94.8104C99.0064 94.7891 98.9283 94.7713 98.8359 94.7571C98.746 94.7429 98.6607 94.7358 98.5803 94.7358C98.3767 94.7358 98.237 94.7808 98.1612 94.8707C98.0855 94.9607 98.0476 95.0838 98.0476 95.2401V101H96.3111ZM103.248 97.3885V98.7273H99.8817V97.3885H103.248ZM104.474 101V95.5455H106.161V96.5398H106.218C106.317 96.1799 106.479 95.9124 106.704 95.7372C106.929 95.5597 107.191 95.4709 107.489 95.4709C107.57 95.4709 107.653 95.4768 107.738 95.4886C107.823 95.4981 107.902 95.5135 107.976 95.5348V97.044C107.893 97.0156 107.784 96.9931 107.649 96.9766C107.516 96.96 107.398 96.9517 107.294 96.9517C107.088 96.9517 106.902 96.9979 106.736 97.0902C106.573 97.1802 106.444 97.3068 106.349 97.4702C106.257 97.6312 106.211 97.8205 106.211 98.0384V101H104.474ZM110.016 101.092C109.668 101.092 109.359 101.034 109.089 100.918C108.821 100.8 108.61 100.622 108.453 100.386C108.299 100.147 108.222 99.8471 108.222 99.4872C108.222 99.1842 108.276 98.9285 108.382 98.7202C108.489 98.5118 108.636 98.3426 108.823 98.2124C109.01 98.0821 109.225 97.9839 109.469 97.9176C109.713 97.849 109.973 97.8028 110.25 97.7791C110.56 97.7507 110.81 97.7211 110.999 97.6903C111.189 97.6572 111.326 97.611 111.411 97.5518C111.499 97.4903 111.543 97.4039 111.543 97.2926V97.2749C111.543 97.0926 111.48 96.9517 111.355 96.8523C111.229 96.7528 111.06 96.7031 110.847 96.7031C110.617 96.7031 110.432 96.7528 110.293 96.8523C110.153 96.9517 110.064 97.089 110.026 97.2642L108.425 97.2074C108.472 96.8759 108.594 96.58 108.791 96.3196C108.99 96.0568 109.262 95.8509 109.607 95.7017C109.955 95.5502 110.373 95.4744 110.861 95.4744C111.209 95.4744 111.53 95.5159 111.823 95.5987C112.117 95.6792 112.373 95.7976 112.59 95.9538C112.808 96.1077 112.976 96.2971 113.095 96.522C113.215 96.7469 113.276 97.0038 113.276 97.2926V101H111.642V100.24H111.6C111.503 100.425 111.378 100.581 111.227 100.709C111.078 100.837 110.901 100.933 110.698 100.996C110.496 101.06 110.269 101.092 110.016 101.092ZM110.552 99.956C110.739 99.956 110.907 99.9181 111.056 99.8423C111.208 99.7666 111.329 99.6624 111.419 99.5298C111.508 99.3949 111.553 99.2386 111.553 99.0611V98.5426C111.504 98.5687 111.443 98.5923 111.372 98.6136C111.304 98.6349 111.228 98.6551 111.145 98.674C111.062 98.6929 110.977 98.7095 110.889 98.7237C110.802 98.7379 110.718 98.7509 110.637 98.7628C110.474 98.7888 110.334 98.8291 110.218 98.8835C110.105 98.938 110.017 99.009 109.955 99.0966C109.896 99.1818 109.867 99.2836 109.867 99.402C109.867 99.5819 109.931 99.7192 110.058 99.8139C110.189 99.9086 110.353 99.956 110.552 99.956ZM114.338 101V95.5455H115.989V96.5469H116.049C116.163 96.2154 116.355 95.9538 116.624 95.7621C116.894 95.5703 117.216 95.4744 117.59 95.4744C117.969 95.4744 118.294 95.5715 118.563 95.7656C118.833 95.9598 119.005 96.2202 119.078 96.5469H119.135C119.237 96.2225 119.436 95.9633 119.732 95.7692C120.028 95.5727 120.377 95.4744 120.779 95.4744C121.295 95.4744 121.714 95.6402 122.036 95.9716C122.358 96.3007 122.519 96.7528 122.519 97.3281V101H120.783V97.7259C120.783 97.4536 120.713 97.2464 120.573 97.1044C120.434 96.96 120.253 96.8878 120.03 96.8878C119.791 96.8878 119.603 96.9659 119.465 97.1222C119.33 97.276 119.263 97.4832 119.263 97.7436V101H117.594V97.7081C117.594 97.4548 117.525 97.2547 117.388 97.108C117.251 96.9612 117.07 96.8878 116.845 96.8878C116.693 96.8878 116.559 96.9245 116.443 96.9979C116.327 97.0689 116.236 97.1707 116.17 97.3033C116.106 97.4358 116.074 97.5921 116.074 97.772V101H114.338ZM123.595 103.045V95.5455H125.314V96.4794H125.367C125.438 96.3137 125.539 96.1539 125.669 96C125.802 95.8461 125.97 95.7206 126.173 95.6236C126.379 95.5241 126.626 95.4744 126.912 95.4744C127.291 95.4744 127.645 95.5739 127.974 95.7727C128.305 95.9716 128.573 96.2782 128.776 96.6925C128.98 97.1068 129.082 97.6347 129.082 98.2763C129.082 98.8942 128.984 99.4115 128.787 99.8281C128.593 100.245 128.33 100.557 127.999 100.766C127.67 100.974 127.304 101.078 126.901 101.078C126.627 101.078 126.389 101.033 126.188 100.943C125.986 100.853 125.817 100.735 125.68 100.588C125.545 100.441 125.441 100.284 125.367 100.116H125.332V103.045H123.595ZM125.296 98.2727C125.296 98.5663 125.335 98.822 125.414 99.0398C125.494 99.2576 125.609 99.4268 125.758 99.5476C125.91 99.666 126.091 99.7251 126.301 99.7251C126.514 99.7251 126.695 99.666 126.845 99.5476C126.994 99.4268 127.106 99.2576 127.182 99.0398C127.26 98.822 127.299 98.5663 127.299 98.2727C127.299 97.9792 127.26 97.7247 127.182 97.5092C127.106 97.2938 126.994 97.1269 126.845 97.0085C126.698 96.8902 126.517 96.831 126.301 96.831C126.088 96.831 125.907 96.889 125.758 97.005C125.609 97.121 125.494 97.2867 125.414 97.5021C125.335 97.7176 125.296 97.9744 125.296 98.2727ZM134.754 97.2109L133.159 97.2536C133.143 97.1399 133.098 97.0393 133.025 96.9517C132.951 96.8617 132.855 96.7919 132.737 96.7422C132.621 96.6901 132.486 96.6641 132.332 96.6641C132.131 96.6641 131.959 96.7043 131.817 96.7848C131.677 96.8653 131.609 96.9742 131.611 97.1115C131.609 97.218 131.651 97.3104 131.739 97.3885C131.829 97.4666 131.989 97.5294 132.218 97.5767L133.27 97.7756C133.814 97.8797 134.219 98.0526 134.484 98.294C134.752 98.5355 134.886 98.8551 134.889 99.2528C134.886 99.6269 134.775 99.9524 134.555 100.229C134.337 100.506 134.039 100.722 133.66 100.876C133.281 101.027 132.848 101.103 132.36 101.103C131.582 101.103 130.967 100.943 130.517 100.624C130.07 100.302 129.814 99.8707 129.75 99.331L131.466 99.2884C131.503 99.4872 131.602 99.6387 131.76 99.7429C131.919 99.8471 132.121 99.8991 132.368 99.8991C132.59 99.8991 132.771 99.8577 132.911 99.7749C133.051 99.692 133.122 99.5819 133.124 99.4446C133.122 99.3215 133.067 99.2232 132.961 99.1499C132.854 99.0741 132.687 99.0149 132.46 98.9723L131.508 98.7912C130.961 98.6918 130.554 98.5083 130.287 98.2408C130.019 97.9709 129.886 97.6276 129.889 97.2109C129.886 96.8464 129.984 96.535 130.18 96.277C130.377 96.0166 130.656 95.8177 131.018 95.6804C131.38 95.5431 131.808 95.4744 132.3 95.4744C133.039 95.4744 133.621 95.6295 134.047 95.9396C134.473 96.2474 134.709 96.6712 134.754 97.2109ZM137.516 100.006L137.484 100.4C137.455 100.727 137.397 101.045 137.31 101.355C137.225 101.668 137.133 101.948 137.036 102.197C136.939 102.445 136.862 102.638 136.806 102.776H135.712C135.75 102.638 135.801 102.445 135.865 102.197C135.931 101.948 135.992 101.668 136.049 101.355C136.106 101.043 136.138 100.725 136.145 100.403L136.152 100.006H137.516ZM145.301 97.2109L143.706 97.2536C143.69 97.1399 143.645 97.0393 143.571 96.9517C143.498 96.8617 143.402 96.7919 143.284 96.7422C143.168 96.6901 143.033 96.6641 142.879 96.6641C142.678 96.6641 142.506 96.7043 142.364 96.7848C142.224 96.8653 142.156 96.9742 142.158 97.1115C142.156 97.218 142.198 97.3104 142.286 97.3885C142.376 97.4666 142.536 97.5294 142.765 97.5767L143.816 97.7756C144.361 97.8797 144.766 98.0526 145.031 98.294C145.298 98.5355 145.433 98.8551 145.436 99.2528C145.433 99.6269 145.322 99.9524 145.102 100.229C144.884 100.506 144.586 100.722 144.207 100.876C143.828 101.027 143.395 101.103 142.907 101.103C142.128 101.103 141.514 100.943 141.064 100.624C140.617 100.302 140.361 99.8707 140.297 99.331L142.012 99.2884C142.05 99.4872 142.149 99.6387 142.307 99.7429C142.466 99.8471 142.668 99.8991 142.914 99.8991C143.137 99.8991 143.318 99.8577 143.458 99.7749C143.597 99.692 143.668 99.5819 143.671 99.4446C143.668 99.3215 143.614 99.2232 143.507 99.1499C143.401 99.0741 143.234 99.0149 143.007 98.9723L142.055 98.7912C141.508 98.6918 141.101 98.5083 140.833 98.2408C140.566 97.9709 140.433 97.6276 140.436 97.2109C140.433 96.8464 140.53 96.535 140.727 96.277C140.923 96.0166 141.203 95.8177 141.565 95.6804C141.927 95.5431 142.355 95.4744 142.847 95.4744C143.586 95.4744 144.168 95.6295 144.594 95.9396C145.02 96.2474 145.256 96.6712 145.301 97.2109ZM147.31 101L145.889 95.5455H147.633L148.368 99.0398H148.414L149.203 95.5455H150.904L151.713 99.0149H151.759L152.473 95.5455H154.217L152.793 101H150.936L150.083 97.8217H150.023L149.171 101H147.31ZM156.451 101.092C156.103 101.092 155.794 101.034 155.525 100.918C155.257 100.8 155.045 100.622 154.889 100.386C154.735 100.147 154.658 99.8471 154.658 99.4872C154.658 99.1842 154.711 98.9285 154.818 98.7202C154.924 98.5118 155.071 98.3426 155.258 98.2124C155.445 98.0821 155.661 97.9839 155.904 97.9176C156.148 97.849 156.409 97.8028 156.686 97.7791C156.996 97.7507 157.246 97.7211 157.435 97.6903C157.624 97.6572 157.762 97.611 157.847 97.5518C157.935 97.4903 157.978 97.4039 157.978 97.2926V97.2749C157.978 97.0926 157.916 96.9517 157.79 96.8523C157.665 96.7528 157.495 96.7031 157.282 96.7031C157.053 96.7031 156.868 96.7528 156.728 96.8523C156.589 96.9517 156.5 97.089 156.462 97.2642L154.86 97.2074C154.908 96.8759 155.03 96.58 155.226 96.3196C155.425 96.0568 155.697 95.8509 156.043 95.7017C156.391 95.5502 156.809 95.4744 157.297 95.4744C157.645 95.4744 157.965 95.5159 158.259 95.5987C158.552 95.6792 158.808 95.7976 159.026 95.9538C159.244 96.1077 159.412 96.2971 159.53 96.522C159.651 96.7469 159.711 97.0038 159.711 97.2926V101H158.078V100.24H158.035C157.938 100.425 157.814 100.581 157.662 100.709C157.513 100.837 157.337 100.933 157.133 100.996C156.932 101.06 156.705 101.092 156.451 101.092ZM156.988 99.956C157.175 99.956 157.343 99.9181 157.492 99.8423C157.643 99.7666 157.764 99.6624 157.854 99.5298C157.944 99.3949 157.989 99.2386 157.989 99.0611V98.5426C157.939 98.5687 157.879 98.5923 157.808 98.6136C157.739 98.6349 157.663 98.6551 157.581 98.674C157.498 98.6929 157.413 98.7095 157.325 98.7237C157.237 98.7379 157.153 98.7509 157.073 98.7628C156.909 98.7888 156.77 98.8291 156.654 98.8835C156.54 98.938 156.453 99.009 156.391 99.0966C156.332 99.1818 156.302 99.2836 156.302 99.402C156.302 99.5819 156.366 99.7192 156.494 99.8139C156.624 99.9086 156.789 99.956 156.988 99.956ZM160.773 103.045V95.5455H162.492V96.4794H162.545C162.616 96.3137 162.717 96.1539 162.847 96C162.98 95.8461 163.148 95.7206 163.351 95.6236C163.557 95.5241 163.803 95.4744 164.09 95.4744C164.469 95.4744 164.823 95.5739 165.152 95.7727C165.483 95.9716 165.751 96.2782 165.954 96.6925C166.158 97.1068 166.26 97.6347 166.26 98.2763C166.26 98.8942 166.161 99.4115 165.965 99.8281C165.771 100.245 165.508 100.557 165.176 100.766C164.847 100.974 164.482 101.078 164.079 101.078C163.805 101.078 163.567 101.033 163.365 100.943C163.164 100.853 162.995 100.735 162.858 100.588C162.723 100.441 162.618 100.284 162.545 100.116H162.51V103.045H160.773ZM162.474 98.2727C162.474 98.5663 162.513 98.822 162.591 99.0398C162.672 99.2576 162.787 99.4268 162.936 99.5476C163.087 99.666 163.268 99.7251 163.479 99.7251C163.692 99.7251 163.873 99.666 164.022 99.5476C164.172 99.4268 164.284 99.2576 164.36 99.0398C164.438 98.822 164.477 98.5663 164.477 98.2727C164.477 97.9792 164.438 97.7247 164.36 97.5092C164.284 97.2938 164.172 97.1269 164.022 97.0085C163.876 96.8902 163.694 96.831 163.479 96.831C163.266 96.831 163.085 96.889 162.936 97.005C162.787 97.121 162.672 97.2867 162.591 97.5021C162.513 97.7176 162.474 97.9744 162.474 98.2727ZM171.932 97.2109L170.337 97.2536C170.321 97.1399 170.276 97.0393 170.202 96.9517C170.129 96.8617 170.033 96.7919 169.915 96.7422C169.799 96.6901 169.664 96.6641 169.51 96.6641C169.309 96.6641 169.137 96.7043 168.995 96.7848C168.855 96.8653 168.787 96.9742 168.789 97.1115C168.787 97.218 168.829 97.3104 168.917 97.3885C169.007 97.4666 169.166 97.5294 169.396 97.5767L170.447 97.7756C170.992 97.8797 171.397 98.0526 171.662 98.294C171.929 98.5355 172.064 98.8551 172.067 99.2528C172.064 99.6269 171.953 99.9524 171.733 100.229C171.515 100.506 171.217 100.722 170.838 100.876C170.459 101.027 170.026 101.103 169.538 101.103C168.759 101.103 168.145 100.943 167.695 100.624C167.248 100.302 166.992 99.8707 166.928 99.331L168.643 99.2884C168.681 99.4872 168.779 99.6387 168.938 99.7429C169.097 99.8471 169.299 99.8991 169.545 99.8991C169.768 99.8991 169.949 99.8577 170.089 99.7749C170.228 99.692 170.299 99.5819 170.302 99.4446C170.299 99.3215 170.245 99.2232 170.138 99.1499C170.032 99.0741 169.865 99.0149 169.638 98.9723L168.686 98.7912C168.139 98.6918 167.732 98.5083 167.464 98.2408C167.197 97.9709 167.064 97.6276 167.067 97.2109C167.064 96.8464 167.161 96.535 167.358 96.277C167.554 96.0166 167.834 95.8177 168.196 95.6804C168.558 95.5431 168.985 95.4744 169.478 95.4744C170.216 95.4744 170.799 95.6295 171.225 95.9396C171.651 96.2474 171.887 96.6712 171.932 97.2109ZM176.608 101.092C176.26 101.092 175.951 101.034 175.681 100.918C175.413 100.8 175.201 100.622 175.045 100.386C174.891 100.147 174.814 99.8471 174.814 99.4872C174.814 99.1842 174.868 98.9285 174.974 98.7202C175.081 98.5118 175.227 98.3426 175.414 98.2124C175.601 98.0821 175.817 97.9839 176.061 97.9176C176.305 97.849 176.565 97.8028 176.842 97.7791C177.152 97.7507 177.402 97.7211 177.591 97.6903C177.781 97.6572 177.918 97.611 178.003 97.5518C178.091 97.4903 178.135 97.4039 178.135 97.2926V97.2749C178.135 97.0926 178.072 96.9517 177.946 96.8523C177.821 96.7528 177.652 96.7031 177.439 96.7031C177.209 96.7031 177.024 96.7528 176.885 96.8523C176.745 96.9517 176.656 97.089 176.618 97.2642L175.017 97.2074C175.064 96.8759 175.186 96.58 175.382 96.3196C175.581 96.0568 175.854 95.8509 176.199 95.7017C176.547 95.5502 176.965 95.4744 177.453 95.4744C177.801 95.4744 178.122 95.5159 178.415 95.5987C178.709 95.6792 178.964 95.7976 179.182 95.9538C179.4 96.1077 179.568 96.2971 179.686 96.522C179.807 96.7469 179.868 97.0038 179.868 97.2926V101H178.234V100.24H178.191C178.094 100.425 177.97 100.581 177.819 100.709C177.669 100.837 177.493 100.933 177.289 100.996C177.088 101.06 176.861 101.092 176.608 101.092ZM177.144 99.956C177.331 99.956 177.499 99.9181 177.648 99.8423C177.8 99.7666 177.92 99.6624 178.01 99.5298C178.1 99.3949 178.145 99.2386 178.145 99.0611V98.5426C178.096 98.5687 178.035 98.5923 177.964 98.6136C177.895 98.6349 177.82 98.6551 177.737 98.674C177.654 98.6929 177.569 98.7095 177.481 98.7237C177.394 98.7379 177.31 98.7509 177.229 98.7628C177.066 98.7888 176.926 98.8291 176.81 98.8835C176.696 98.938 176.609 99.009 176.547 99.0966C176.488 99.1818 176.458 99.2836 176.458 99.402C176.458 99.5819 176.522 99.7192 176.65 99.8139C176.78 99.9086 176.945 99.956 177.144 99.956ZM182.666 97.8892V101H180.929V95.5455H182.581V96.5469H182.641C182.762 96.2131 182.968 95.9515 183.259 95.7621C183.55 95.5703 183.897 95.4744 184.299 95.4744C184.683 95.4744 185.016 95.5608 185.297 95.7337C185.581 95.9041 185.801 96.1432 185.958 96.451C186.116 96.7564 186.194 97.1139 186.192 97.5234V101H184.456V97.8643C184.458 97.5613 184.381 97.3246 184.225 97.1541C184.071 96.9837 183.857 96.8984 183.582 96.8984C183.4 96.8984 183.239 96.9387 183.099 97.0192C182.962 97.0973 182.855 97.2098 182.779 97.3565C182.706 97.5033 182.668 97.6809 182.666 97.8892ZM189.259 101.078C188.857 101.078 188.491 100.974 188.162 100.766C187.833 100.557 187.57 100.245 187.374 99.8281C187.177 99.4115 187.079 98.8942 187.079 98.2763C187.079 97.6347 187.181 97.1068 187.384 96.6925C187.588 96.2782 187.854 95.9716 188.183 95.7727C188.515 95.5739 188.871 95.4744 189.252 95.4744C189.539 95.4744 189.784 95.5241 189.987 95.6236C190.191 95.7206 190.359 95.8461 190.492 96C190.624 96.1539 190.725 96.3137 190.794 96.4794H190.829V93.7273H192.566V101H190.847V100.116H190.794C190.72 100.284 190.616 100.441 190.481 100.588C190.346 100.735 190.177 100.853 189.973 100.943C189.772 101.033 189.534 101.078 189.259 101.078ZM189.863 99.7251C190.074 99.7251 190.254 99.666 190.403 99.5476C190.552 99.4268 190.667 99.2576 190.747 99.0398C190.828 98.822 190.868 98.5663 190.868 98.2727C190.868 97.9744 190.828 97.7176 190.747 97.5021C190.669 97.2867 190.554 97.121 190.403 97.005C190.254 96.889 190.074 96.831 189.863 96.831C189.648 96.831 189.465 96.8902 189.316 97.0085C189.167 97.1269 189.053 97.2938 188.975 97.5092C188.9 97.7247 188.862 97.9792 188.862 98.2727C188.862 98.5663 188.901 98.822 188.979 99.0398C189.057 99.2576 189.169 99.4268 189.316 99.5476C189.465 99.666 189.648 99.7251 189.863 99.7251ZM197.549 93.7273V101H195.812V93.7273H197.549ZM198.654 101V95.5455H200.39V101H198.654ZM199.524 94.9098C199.28 94.9098 199.071 94.8293 198.895 94.6683C198.72 94.505 198.633 94.3085 198.633 94.0788C198.633 93.8516 198.72 93.6574 198.895 93.4964C199.071 93.3331 199.28 93.2514 199.524 93.2514C199.77 93.2514 199.98 93.3331 200.153 93.4964C200.328 93.6574 200.415 93.8516 200.415 94.0788C200.415 94.3085 200.328 94.505 200.153 94.6683C199.98 94.8293 199.77 94.9098 199.524 94.9098ZM205.058 103.045V100.116H205.022C204.949 100.284 204.844 100.441 204.71 100.588C204.575 100.735 204.405 100.853 204.202 100.943C204 101.033 203.763 101.078 203.488 101.078C203.085 101.078 202.72 100.974 202.391 100.766C202.062 100.557 201.799 100.245 201.602 99.8281C201.406 99.4115 201.308 98.8942 201.308 98.2763C201.308 97.6347 201.409 97.1068 201.613 96.6925C201.817 96.2782 202.083 95.9716 202.412 95.7727C202.743 95.5739 203.1 95.4744 203.481 95.4744C203.767 95.4744 204.012 95.5241 204.216 95.6236C204.42 95.7206 204.588 95.8461 204.72 96C204.853 96.1539 204.953 96.3137 205.022 96.4794H205.075V95.5455H206.794V103.045H205.058ZM204.092 99.7251C204.302 99.7251 204.482 99.666 204.631 99.5476C204.781 99.4268 204.895 99.2576 204.976 99.0398C205.056 98.822 205.097 98.5663 205.097 98.2727C205.097 97.9744 205.056 97.7176 204.976 97.5021C204.898 97.2867 204.783 97.121 204.631 97.005C204.482 96.889 204.302 96.831 204.092 96.831C203.876 96.831 203.694 96.8902 203.545 97.0085C203.396 97.1269 203.282 97.2938 203.204 97.5092C203.128 97.7247 203.09 97.9792 203.09 98.2727C203.09 98.5663 203.129 98.822 203.207 99.0398C203.286 99.2576 203.398 99.4268 203.545 99.5476C203.694 99.666 203.876 99.7251 204.092 99.7251ZM211.411 98.6456V95.5455H213.144V101H211.49V99.9844H211.433C211.312 100.318 211.106 100.583 210.815 100.78C210.526 100.974 210.177 101.071 209.767 101.071C209.396 101.071 209.069 100.986 208.787 100.815C208.505 100.645 208.286 100.407 208.13 100.102C207.974 99.7938 207.895 99.4339 207.892 99.022V95.5455H209.629V98.6811C209.631 98.977 209.709 99.2102 209.863 99.3807C210.017 99.5511 210.227 99.6364 210.492 99.6364C210.664 99.6364 210.82 99.5985 210.957 99.5227C211.097 99.4446 211.207 99.3321 211.287 99.1854C211.37 99.0362 211.411 98.8563 211.411 98.6456ZM214.25 101V95.5455H215.986V101H214.25ZM215.12 94.9098C214.876 94.9098 214.666 94.8293 214.491 94.6683C214.316 94.505 214.228 94.3085 214.228 94.0788C214.228 93.8516 214.316 93.6574 214.491 93.4964C214.666 93.3331 214.876 93.2514 215.12 93.2514C215.366 93.2514 215.575 93.3331 215.748 93.4964C215.923 93.6574 216.011 93.8516 216.011 94.0788C216.011 94.3085 215.923 94.505 215.748 94.6683C215.575 94.8293 215.366 94.9098 215.12 94.9098ZM219.084 101.078C218.681 101.078 218.315 100.974 217.986 100.766C217.657 100.557 217.394 100.245 217.198 99.8281C217.001 99.4115 216.903 98.8942 216.903 98.2763C216.903 97.6347 217.005 97.1068 217.209 96.6925C217.412 96.2782 217.679 95.9716 218.008 95.7727C218.339 95.5739 218.695 95.4744 219.077 95.4744C219.363 95.4744 219.608 95.5241 219.812 95.6236C220.015 95.7206 220.183 95.8461 220.316 96C220.448 96.1539 220.549 96.3137 220.618 96.4794H220.653V93.7273H222.39V101H220.671V100.116H220.618C220.544 100.284 220.44 100.441 220.305 100.588C220.17 100.735 220.001 100.853 219.797 100.943C219.596 101.033 219.358 101.078 219.084 101.078ZM219.687 99.7251C219.898 99.7251 220.078 99.666 220.227 99.5476C220.376 99.4268 220.491 99.2576 220.572 99.0398C220.652 98.822 220.692 98.5663 220.692 98.2727C220.692 97.9744 220.652 97.7176 220.572 97.5021C220.493 97.2867 220.379 97.121 220.227 97.005C220.078 96.889 219.898 96.831 219.687 96.831C219.472 96.831 219.29 96.8902 219.14 97.0085C218.991 97.1269 218.878 97.2938 218.8 97.5092C218.724 97.7247 218.686 97.9792 218.686 98.2727C218.686 98.5663 218.725 98.822 218.803 99.0398C218.881 99.2576 218.994 99.4268 219.14 99.5476C219.29 99.666 219.472 99.7251 219.687 99.7251ZM223.488 101V95.5455H225.224V101H223.488ZM224.358 94.9098C224.114 94.9098 223.905 94.8293 223.729 94.6683C223.554 94.505 223.467 94.3085 223.467 94.0788C223.467 93.8516 223.554 93.6574 223.729 93.4964C223.905 93.3331 224.114 93.2514 224.358 93.2514C224.604 93.2514 224.814 93.3331 224.987 93.4964C225.162 93.6574 225.249 93.8516 225.249 94.0788C225.249 94.3085 225.162 94.505 224.987 94.6683C224.814 94.8293 224.604 94.9098 224.358 94.9098ZM229.409 95.5455V96.8239H225.968V95.5455H229.409ZM226.688 94.2386H228.425V99.2848C228.425 99.3913 228.441 99.4777 228.475 99.544C228.51 99.608 228.561 99.6541 228.627 99.6825C228.694 99.7086 228.773 99.7216 228.865 99.7216C228.932 99.7216 229.001 99.7157 229.075 99.7038C229.151 99.6896 229.207 99.6778 229.245 99.6683L229.508 100.922C229.425 100.946 229.308 100.975 229.156 101.011C229.007 101.046 228.829 101.069 228.62 101.078C228.213 101.097 227.864 101.05 227.573 100.936C227.284 100.82 227.062 100.64 226.909 100.396C226.757 100.152 226.684 99.8459 226.688 99.4766V94.2386ZM231.356 103.045C231.148 103.045 230.952 103.029 230.767 102.996C230.582 102.965 230.424 102.924 230.291 102.871L230.675 101.611C230.845 101.668 230.999 101.701 231.136 101.71C231.276 101.72 231.395 101.697 231.495 101.643C231.597 101.591 231.675 101.497 231.729 101.362L231.797 101.199L229.858 95.5455H231.676L232.681 99.4375H232.738L233.757 95.5455H235.586L233.53 101.522C233.43 101.82 233.289 102.083 233.107 102.31C232.927 102.54 232.694 102.72 232.407 102.85C232.123 102.98 231.773 103.045 231.356 103.045ZM32.5504 115.045V107.545H34.2692V108.479H34.3224C34.3935 108.314 34.4941 108.154 34.6243 108C34.7569 107.846 34.925 107.721 35.1286 107.624C35.3345 107.524 35.5807 107.474 35.8672 107.474C36.246 107.474 36.5999 107.574 36.929 107.773C37.2604 107.972 37.5279 108.278 37.7315 108.692C37.9351 109.107 38.0369 109.635 38.0369 110.276C38.0369 110.894 37.9387 111.411 37.7422 111.828C37.5481 112.245 37.2853 112.557 36.9538 112.766C36.6248 112.974 36.259 113.078 35.8565 113.078C35.5819 113.078 35.344 113.033 35.1428 112.943C34.9415 112.853 34.7723 112.735 34.6349 112.588C34.5 112.441 34.3958 112.284 34.3224 112.116H34.2869V115.045H32.5504ZM34.2514 110.273C34.2514 110.566 34.2905 110.822 34.3686 111.04C34.4491 111.258 34.5639 111.427 34.7131 111.548C34.8646 111.666 35.0457 111.725 35.2564 111.725C35.4695 111.725 35.6506 111.666 35.7997 111.548C35.9489 111.427 36.0613 111.258 36.1371 111.04C36.2152 110.822 36.2543 110.566 36.2543 110.273C36.2543 109.979 36.2152 109.725 36.1371 109.509C36.0613 109.294 35.9489 109.127 35.7997 109.009C35.6529 108.89 35.4718 108.831 35.2564 108.831C35.0433 108.831 34.8622 108.889 34.7131 109.005C34.5639 109.121 34.4491 109.287 34.3686 109.502C34.2905 109.718 34.2514 109.974 34.2514 110.273ZM41.4931 113.103C40.9202 113.103 40.4277 112.986 40.0158 112.751C39.6062 112.515 39.2902 112.186 39.0676 111.764C38.8475 111.34 38.7374 110.849 38.7374 110.29C38.7374 109.729 38.8475 109.238 39.0676 108.817C39.2902 108.393 39.6062 108.064 40.0158 107.83C40.4277 107.593 40.9202 107.474 41.4931 107.474C42.066 107.474 42.5572 107.593 42.9668 107.83C43.3787 108.064 43.6948 108.393 43.915 108.817C44.1375 109.238 44.2488 109.729 44.2488 110.29C44.2488 110.849 44.1375 111.34 43.915 111.764C43.6948 112.186 43.3787 112.515 42.9668 112.751C42.5572 112.986 42.066 113.103 41.4931 113.103ZM41.5037 111.793C41.7121 111.793 41.8884 111.729 42.0328 111.601C42.1773 111.473 42.2873 111.295 42.3631 111.068C42.4412 110.841 42.4803 110.578 42.4803 110.28C42.4803 109.977 42.4412 109.712 42.3631 109.484C42.2873 109.257 42.1773 109.08 42.0328 108.952C41.8884 108.824 41.7121 108.76 41.5037 108.76C41.2883 108.76 41.106 108.824 40.9569 108.952C40.8101 109.08 40.6976 109.257 40.6195 109.484C40.5437 109.712 40.5059 109.977 40.5059 110.28C40.5059 110.578 40.5437 110.841 40.6195 111.068C40.6976 111.295 40.8101 111.473 40.9569 111.601C41.106 111.729 41.2883 111.793 41.5037 111.793ZM47.6845 113.103C47.1116 113.103 46.6191 112.986 46.2072 112.751C45.7976 112.515 45.4816 112.186 45.2591 111.764C45.0389 111.34 44.9288 110.849 44.9288 110.29C44.9288 109.729 45.0389 109.238 45.2591 108.817C45.4816 108.393 45.7976 108.064 46.2072 107.83C46.6191 107.593 47.1116 107.474 47.6845 107.474C48.2574 107.474 48.7486 107.593 49.1582 107.83C49.5701 108.064 49.8862 108.393 50.1064 108.817C50.3289 109.238 50.4402 109.729 50.4402 110.29C50.4402 110.849 50.3289 111.34 50.1064 111.764C49.8862 112.186 49.5701 112.515 49.1582 112.751C48.7486 112.986 48.2574 113.103 47.6845 113.103ZM47.6951 111.793C47.9035 111.793 48.0798 111.729 48.2243 111.601C48.3687 111.473 48.4788 111.295 48.5545 111.068C48.6326 110.841 48.6717 110.578 48.6717 110.28C48.6717 109.977 48.6326 109.712 48.5545 109.484C48.4788 109.257 48.3687 109.08 48.2243 108.952C48.0798 108.824 47.9035 108.76 47.6951 108.76C47.4797 108.76 47.2974 108.824 47.1483 108.952C47.0015 109.08 46.889 109.257 46.8109 109.484C46.7351 109.712 46.6973 109.977 46.6973 110.28C46.6973 110.578 46.7351 110.841 46.8109 111.068C46.889 111.295 47.0015 111.473 47.1483 111.601C47.2974 111.729 47.4797 111.793 47.6951 111.793ZM53.0662 105.727V113H51.3297V105.727H53.0662ZM58.9336 109.211L57.3391 109.254C57.3226 109.14 57.2776 109.039 57.2042 108.952C57.1308 108.862 57.0349 108.792 56.9165 108.742C56.8005 108.69 56.6656 108.664 56.5117 108.664C56.3105 108.664 56.1388 108.704 55.9968 108.785C55.8571 108.865 55.7885 108.974 55.7908 109.112C55.7885 109.218 55.8311 109.31 55.9187 109.388C56.0086 109.467 56.1684 109.529 56.3981 109.577L57.4492 109.776C57.9937 109.88 58.3986 110.053 58.6637 110.294C58.9312 110.536 59.0662 110.855 59.0685 111.253C59.0662 111.627 58.9549 111.952 58.7347 112.229C58.5169 112.506 58.2186 112.722 57.8398 112.876C57.4611 113.027 57.0278 113.103 56.5401 113.103C55.7612 113.103 55.1469 112.943 54.6971 112.624C54.2496 112.302 53.994 111.871 53.93 111.331L55.6452 111.288C55.6831 111.487 55.7814 111.639 55.94 111.743C56.0986 111.847 56.301 111.899 56.5472 111.899C56.7698 111.899 56.9509 111.858 57.0906 111.775C57.2302 111.692 57.3013 111.582 57.3036 111.445C57.3013 111.321 57.2468 111.223 57.1403 111.15C57.0337 111.074 56.8668 111.015 56.6396 110.972L55.6879 110.791C55.141 110.692 54.7338 110.508 54.4663 110.241C54.1987 109.971 54.0662 109.628 54.0685 109.211C54.0662 108.846 54.1632 108.535 54.3597 108.277C54.5562 108.017 54.8356 107.818 55.1978 107.68C55.56 107.543 55.9873 107.474 56.4798 107.474C57.2184 107.474 57.8008 107.629 58.2269 107.94C58.6531 108.247 58.8886 108.671 58.9336 109.211ZM60.9 113.103C60.6444 113.103 60.4254 113.013 60.2431 112.833C60.0632 112.653 59.9744 112.435 59.9767 112.18C59.9744 111.929 60.0632 111.714 60.2431 111.537C60.4254 111.357 60.6444 111.267 60.9 111.267C61.1415 111.267 61.3546 111.357 61.5392 111.537C61.7263 111.714 61.821 111.929 61.8233 112.18C61.821 112.35 61.776 112.505 61.6884 112.645C61.6032 112.785 61.4907 112.896 61.351 112.979C61.2137 113.062 61.0634 113.103 60.9 113.103Z" fill="#585B68"/>
<g filter="url(#filter1_d_2814_124)">
<rect x="27" y="153" width="250" height="30" rx="10" fill="#00A0FF"/>
</g>
<path d="M121.076 167.112H119.3C119.277 166.93 119.228 166.765 119.155 166.619C119.081 166.472 118.984 166.346 118.863 166.242C118.743 166.138 118.599 166.059 118.434 166.004C118.27 165.947 118.089 165.919 117.89 165.919C117.538 165.919 117.233 166.005 116.978 166.178C116.724 166.351 116.529 166.601 116.392 166.928C116.257 167.254 116.189 167.65 116.189 168.114C116.189 168.597 116.258 169.001 116.395 169.328C116.535 169.652 116.73 169.897 116.981 170.063C117.235 170.227 117.534 170.308 117.88 170.308C118.074 170.308 118.25 170.283 118.409 170.234C118.57 170.184 118.711 170.112 118.831 170.017C118.955 169.92 119.055 169.803 119.133 169.665C119.214 169.526 119.269 169.368 119.3 169.193L121.076 169.204C121.045 169.526 120.952 169.843 120.795 170.156C120.641 170.468 120.43 170.753 120.16 171.011C119.89 171.267 119.561 171.471 119.172 171.622C118.787 171.774 118.344 171.849 117.844 171.849C117.186 171.849 116.597 171.705 116.076 171.416C115.557 171.125 115.148 170.701 114.847 170.145C114.546 169.589 114.396 168.911 114.396 168.114C114.396 167.313 114.549 166.635 114.854 166.079C115.16 165.522 115.573 165.1 116.094 164.811C116.614 164.522 117.198 164.378 117.844 164.378C118.285 164.378 118.692 164.439 119.066 164.562C119.44 164.683 119.769 164.861 120.053 165.095C120.337 165.327 120.568 165.612 120.746 165.951C120.923 166.29 121.033 166.677 121.076 167.112ZM124.628 171.853C124.055 171.853 123.563 171.736 123.151 171.501C122.741 171.265 122.425 170.936 122.202 170.514C121.982 170.09 121.872 169.599 121.872 169.04C121.872 168.479 121.982 167.988 122.202 167.567C122.425 167.143 122.741 166.814 123.151 166.58C123.563 166.343 124.055 166.224 124.628 166.224C125.201 166.224 125.692 166.343 126.102 166.58C126.513 166.814 126.83 167.143 127.05 167.567C127.272 167.988 127.384 168.479 127.384 169.04C127.384 169.599 127.272 170.09 127.05 170.514C126.83 170.936 126.513 171.265 126.102 171.501C125.692 171.736 125.201 171.853 124.628 171.853ZM124.638 170.543C124.847 170.543 125.023 170.479 125.168 170.351C125.312 170.223 125.422 170.045 125.498 169.818C125.576 169.591 125.615 169.328 125.615 169.03C125.615 168.727 125.576 168.462 125.498 168.234C125.422 168.007 125.312 167.83 125.168 167.702C125.023 167.574 124.847 167.51 124.638 167.51C124.423 167.51 124.241 167.574 124.092 167.702C123.945 167.83 123.832 168.007 123.754 168.234C123.679 168.462 123.641 168.727 123.641 169.03C123.641 169.328 123.679 169.591 123.754 169.818C123.832 170.045 123.945 170.223 124.092 170.351C124.241 170.479 124.423 170.543 124.638 170.543ZM130.01 168.639V171.75H128.273V166.295H129.924V167.297H129.985C130.105 166.963 130.311 166.701 130.603 166.512C130.894 166.32 131.241 166.224 131.643 166.224C132.027 166.224 132.359 166.311 132.641 166.484C132.925 166.654 133.145 166.893 133.301 167.201C133.46 167.506 133.538 167.864 133.536 168.273V171.75H131.799V168.614C131.802 168.311 131.725 168.075 131.569 167.904C131.415 167.734 131.2 167.648 130.926 167.648C130.743 167.648 130.583 167.689 130.443 167.769C130.306 167.847 130.199 167.96 130.123 168.107C130.05 168.253 130.012 168.431 130.01 168.639ZM136.347 168.639V171.75H134.611V166.295H136.262V167.297H136.323C136.443 166.963 136.649 166.701 136.941 166.512C137.232 166.32 137.579 166.224 137.981 166.224C138.365 166.224 138.697 166.311 138.979 166.484C139.263 166.654 139.483 166.893 139.639 167.201C139.798 167.506 139.876 167.864 139.874 168.273V171.75H138.137V168.614C138.14 168.311 138.063 168.075 137.906 167.904C137.753 167.734 137.538 167.648 137.264 167.648C137.081 167.648 136.92 167.689 136.781 167.769C136.643 167.847 136.537 167.96 136.461 168.107C136.388 168.253 136.35 168.431 136.347 168.639ZM143.499 171.853C142.928 171.853 142.436 171.741 142.021 171.516C141.609 171.288 141.292 170.965 141.07 170.546C140.849 170.125 140.739 169.624 140.739 169.044C140.739 168.481 140.851 167.988 141.073 167.567C141.296 167.143 141.609 166.814 142.014 166.58C142.419 166.343 142.896 166.224 143.445 166.224C143.834 166.224 144.189 166.285 144.511 166.406C144.833 166.526 145.111 166.705 145.345 166.942C145.58 167.179 145.762 167.471 145.892 167.819C146.022 168.165 146.087 168.561 146.087 169.009V169.442H141.347V168.433H144.472C144.469 168.249 144.425 168.084 144.34 167.94C144.255 167.795 144.138 167.683 143.989 167.602C143.842 167.519 143.673 167.478 143.481 167.478C143.287 167.478 143.113 167.522 142.959 167.609C142.805 167.695 142.683 167.812 142.593 167.961C142.503 168.108 142.456 168.275 142.451 168.462V169.488C142.451 169.71 142.495 169.906 142.582 170.074C142.67 170.24 142.794 170.369 142.955 170.461C143.116 170.553 143.308 170.599 143.531 170.599C143.684 170.599 143.824 170.578 143.95 170.536C144.075 170.493 144.183 170.43 144.273 170.347C144.363 170.264 144.43 170.163 144.475 170.042L146.07 170.088C146.003 170.446 145.858 170.757 145.633 171.022C145.41 171.285 145.118 171.49 144.756 171.636C144.393 171.781 143.974 171.853 143.499 171.853ZM149.52 171.853C148.945 171.853 148.452 171.735 148.04 171.498C147.63 171.261 147.315 170.932 147.095 170.511C146.875 170.087 146.765 169.597 146.765 169.04C146.765 168.482 146.875 167.992 147.095 167.57C147.318 167.147 147.634 166.816 148.043 166.58C148.455 166.343 148.946 166.224 149.517 166.224C150.021 166.224 150.46 166.316 150.834 166.498C151.211 166.68 151.504 166.938 151.715 167.272C151.928 167.603 152.041 167.993 152.052 168.44H150.43C150.396 168.161 150.302 167.942 150.145 167.783C149.992 167.625 149.79 167.545 149.542 167.545C149.34 167.545 149.164 167.602 149.013 167.716C148.861 167.827 148.743 167.993 148.657 168.213C148.575 168.431 148.533 168.701 148.533 169.023C148.533 169.345 148.575 169.617 148.657 169.839C148.743 170.06 148.861 170.227 149.013 170.34C149.164 170.451 149.34 170.507 149.542 170.507C149.703 170.507 149.845 170.473 149.968 170.404C150.093 170.335 150.196 170.235 150.277 170.102C150.357 169.967 150.408 169.804 150.43 169.612H152.052C152.036 170.062 151.923 170.455 151.715 170.791C151.509 171.127 151.219 171.389 150.845 171.576C150.473 171.761 150.032 171.853 149.52 171.853ZM156.02 166.295V167.574H152.579V166.295H156.02ZM153.3 164.989H155.036V170.035C155.036 170.141 155.053 170.228 155.086 170.294C155.121 170.358 155.172 170.404 155.239 170.433C155.305 170.459 155.384 170.472 155.477 170.472C155.543 170.472 155.613 170.466 155.686 170.454C155.762 170.44 155.819 170.428 155.857 170.418L156.119 171.672C156.036 171.696 155.919 171.725 155.768 171.761C155.619 171.796 155.44 171.819 155.232 171.828C154.824 171.847 154.475 171.8 154.184 171.686C153.895 171.57 153.674 171.39 153.52 171.146C153.368 170.902 153.295 170.596 153.3 170.227V164.989ZM160.798 171.75L158.681 164.477H160.624L161.721 169.243H161.782L163.035 164.477H164.619L165.873 169.254H165.933L167.034 164.477H168.973L166.86 171.75H165.166L163.855 167.339H163.799L162.488 171.75H160.798ZM170.631 171.842C170.283 171.842 169.974 171.784 169.704 171.668C169.437 171.55 169.225 171.372 169.069 171.136C168.915 170.897 168.838 170.597 168.838 170.237C168.838 169.934 168.891 169.679 168.998 169.47C169.104 169.262 169.251 169.093 169.438 168.962C169.625 168.832 169.84 168.734 170.084 168.668C170.328 168.599 170.588 168.553 170.865 168.529C171.176 168.501 171.425 168.471 171.615 168.44C171.804 168.407 171.941 168.361 172.027 168.302C172.114 168.24 172.158 168.154 172.158 168.043V168.025C172.158 167.843 172.095 167.702 171.97 167.602C171.844 167.503 171.675 167.453 171.462 167.453C171.232 167.453 171.048 167.503 170.908 167.602C170.768 167.702 170.68 167.839 170.642 168.014L169.04 167.957C169.087 167.626 169.209 167.33 169.406 167.07C169.605 166.807 169.877 166.601 170.223 166.452C170.571 166.3 170.989 166.224 171.476 166.224C171.824 166.224 172.145 166.266 172.439 166.349C172.732 166.429 172.988 166.548 173.206 166.704C173.423 166.858 173.592 167.047 173.71 167.272C173.831 167.497 173.891 167.754 173.891 168.043V171.75H172.257V170.99H172.215C172.118 171.175 171.993 171.331 171.842 171.459C171.693 171.587 171.516 171.683 171.313 171.746C171.112 171.81 170.884 171.842 170.631 171.842ZM171.167 170.706C171.354 170.706 171.522 170.668 171.672 170.592C171.823 170.517 171.944 170.412 172.034 170.28C172.124 170.145 172.169 169.989 172.169 169.811V169.293C172.119 169.319 172.059 169.342 171.988 169.364C171.919 169.385 171.843 169.405 171.76 169.424C171.677 169.443 171.592 169.46 171.505 169.474C171.417 169.488 171.333 169.501 171.252 169.513C171.089 169.539 170.949 169.579 170.833 169.634C170.72 169.688 170.632 169.759 170.571 169.847C170.511 169.932 170.482 170.034 170.482 170.152C170.482 170.332 170.546 170.469 170.674 170.564C170.804 170.659 170.968 170.706 171.167 170.706ZM176.689 164.477V171.75H174.953V164.477H176.689ZM179.531 164.477V171.75H177.795V164.477H179.531ZM183.186 171.853C182.616 171.853 182.123 171.741 181.709 171.516C181.297 171.288 180.98 170.965 180.757 170.546C180.537 170.125 180.427 169.624 180.427 169.044C180.427 168.481 180.538 167.988 180.761 167.567C180.983 167.143 181.297 166.814 181.702 166.58C182.107 166.343 182.584 166.224 183.133 166.224C183.521 166.224 183.876 166.285 184.198 166.406C184.52 166.526 184.798 166.705 185.033 166.942C185.267 167.179 185.449 167.471 185.58 167.819C185.71 168.165 185.775 168.561 185.775 169.009V169.442H181.034V168.433H184.159C184.157 168.249 184.113 168.084 184.028 167.94C183.942 167.795 183.825 167.683 183.676 167.602C183.529 167.519 183.36 167.478 183.168 167.478C182.974 167.478 182.8 167.522 182.646 167.609C182.492 167.695 182.371 167.812 182.281 167.961C182.191 168.108 182.143 168.275 182.138 168.462V169.488C182.138 169.71 182.182 169.906 182.27 170.074C182.357 170.24 182.482 170.369 182.643 170.461C182.804 170.553 182.996 170.599 183.218 170.599C183.372 170.599 183.512 170.578 183.637 170.536C183.763 170.493 183.87 170.43 183.96 170.347C184.05 170.264 184.118 170.163 184.163 170.042L185.757 170.088C185.691 170.446 185.545 170.757 185.32 171.022C185.098 171.285 184.805 171.49 184.443 171.636C184.081 171.781 183.662 171.853 183.186 171.853ZM189.741 166.295V167.574H186.3V166.295H189.741ZM187.02 164.989H188.757V170.035C188.757 170.141 188.773 170.228 188.807 170.294C188.842 170.358 188.893 170.404 188.959 170.433C189.026 170.459 189.105 170.472 189.197 170.472C189.264 170.472 189.333 170.466 189.407 170.454C189.483 170.44 189.539 170.428 189.577 170.418L189.84 171.672C189.757 171.696 189.64 171.725 189.488 171.761C189.339 171.796 189.161 171.819 188.952 171.828C188.545 171.847 188.196 171.8 187.905 171.686C187.616 171.57 187.394 171.39 187.241 171.146C187.089 170.902 187.016 170.596 187.02 170.227V164.989Z" fill="#FFFDF7"/>
<path fill-rule="evenodd" clip-rule="evenodd" d="M107.086 24.1523H107.278C108.628 24.1523 109.9 24.6447 111.095 25.6295C111.211 25.7526 111.403 25.9578 111.712 26.286C112.097 25.8757 112.406 25.5885 112.56 25.4654C113.678 24.5627 114.912 24.1523 116.222 24.1523H116.338C117.726 24.1523 118.998 24.6447 120.154 25.6295C120.501 25.9578 120.771 26.245 120.964 26.4912C121.851 27.7221 122.313 29.0762 122.313 30.4713V46.638C122.313 46.6791 122.313 46.6791 122.275 46.6791H119.345C119.306 46.6791 119.306 46.6791 119.306 46.638V30.5534C119.306 29.4455 118.844 28.5838 117.918 27.8863C117.417 27.517 116.839 27.3529 116.261 27.3529C115.297 27.3529 114.526 27.7632 113.871 28.6249C113.447 29.1993 113.215 29.8148 113.215 30.4713V46.6791H110.247C110.208 46.6791 110.208 46.6791 110.208 46.638V30.4713C110.208 29.6096 109.861 28.789 109.129 28.0914C108.551 27.5991 107.895 27.3529 107.201 27.3529C106.16 27.3529 105.312 27.8042 104.657 28.789C104.31 29.3634 104.156 29.9379 104.156 30.5534V46.638C104.156 46.6791 104.156 46.6791 104.156 46.6791H101.149C101.149 46.6791 101.11 46.6791 101.11 46.638V30.9227C101.11 29.5686 101.342 28.4607 101.843 27.558C101.997 27.1887 102.305 26.7374 102.768 26.1629C103.346 25.5474 103.77 25.1782 104.079 25.0551C105.043 24.4396 106.045 24.1523 107.086 24.1523ZM125.667 24.1523H128.674H128.713V35.2311C128.713 36.1338 128.867 36.7903 129.214 37.2006C129.522 37.6109 129.792 37.8161 130.023 37.9392C130.447 38.1854 131.411 38.5547 132.915 39.006C133.647 39.2522 134.303 39.4574 134.765 39.7036V24.1523C134.765 24.1523 134.765 24.1523 134.804 24.1523H137.772V45.2429C137.772 46.7611 137.271 48.1972 136.23 49.4692C135.69 50.0437 135.266 50.413 134.919 50.6181C133.917 51.2747 132.876 51.5619 131.797 51.5619H131.643C130.139 51.5619 128.751 50.9874 127.518 49.7565C127.094 49.3051 126.785 48.8948 126.554 48.4845C125.937 47.4587 125.667 46.3508 125.667 45.2019V45.1609V45.1198H128.674L128.713 45.1609C128.713 46.1867 129.098 47.0483 129.908 47.7459C130.486 48.1562 131.064 48.3614 131.72 48.3614H131.758C132.683 48.3614 133.493 47.9511 134.148 47.0894C134.572 46.4739 134.765 45.8584 134.765 45.2429C134.765 44.053 134.341 43.1913 133.454 42.6989C133.069 42.4117 132.105 42.0424 130.525 41.5911C129.484 41.2628 128.674 40.9345 128.096 40.5652C127.132 39.9908 126.438 39.1291 126.014 37.9802C125.821 37.2827 125.706 36.7903 125.706 36.5031C125.706 36.3389 125.667 36.0517 125.667 35.7234V24.1523ZM141.01 24.1523H143.979C144.017 24.1523 144.017 24.1523 144.017 24.1523V35.4772C144.75 35.149 145.791 34.7797 147.101 34.4104C147.988 34.1232 148.605 33.836 148.952 33.5487C149.453 33.2615 149.761 32.7691 149.954 32.1536C150.031 31.9074 150.07 31.5381 150.07 31.0047V24.1523C150.07 24.1523 150.07 24.1523 150.108 24.1523H153.038C153.077 24.1523 153.077 24.1523 153.077 24.1523V31.5381C153.077 32.9743 152.73 34.2052 151.959 35.2311C151.612 35.6414 151.303 35.9286 151.149 36.0107C151.034 36.0927 150.995 36.1338 150.956 36.1338V36.1748C151.496 36.7082 151.766 36.9954 151.843 37.1185C152.421 37.9392 152.807 38.8419 152.961 39.7856C153.038 40.1549 153.077 40.5242 153.077 40.8525V46.638C153.077 46.6791 153.077 46.6791 153.038 46.6791H150.108C150.07 46.6791 150.07 46.6791 150.07 46.638V41.2628C150.07 40.237 149.8 39.4574 149.222 38.8419C148.913 38.4316 148.374 38.1033 147.603 37.8571L147.101 37.734C146.446 37.9392 145.906 38.1443 145.482 38.3905C144.865 38.7188 144.441 39.1701 144.21 39.7036C144.094 40.0318 144.017 40.5242 144.017 41.1807V46.638C144.017 46.6791 144.017 46.6791 143.979 46.6791H141.01C141.01 46.6791 140.972 46.6791 140.972 46.638V24.1523H141.01ZM162.29 24.1523H162.445C163.832 24.1523 165.105 24.6447 166.222 25.6295C166.647 25.9578 166.916 26.286 167.071 26.4912C167.957 27.7221 168.42 29.0762 168.42 30.4713V34.4104C168.42 35.8876 167.957 37.2006 167.032 38.4726C166.647 38.965 166.3 39.2932 165.991 39.5394C164.873 40.4011 163.678 40.8114 162.367 40.8114C160.748 40.8114 159.36 40.196 158.127 38.965C157.626 38.4316 157.279 37.9392 157.047 37.4058C156.546 36.5031 156.315 35.3952 156.315 34.0821V30.9227C156.315 29.5686 156.546 28.4197 157.047 27.517C157.24 27.1067 157.549 26.6553 158.011 26.0809C158.551 25.5474 158.975 25.1782 159.245 25.0551C160.209 24.4396 161.249 24.1523 162.29 24.1523ZM159.36 30.5123V34.4104C159.36 35.3952 159.746 36.2569 160.556 36.9544C161.095 37.3647 161.674 37.6109 162.252 37.6109H162.445C163.293 37.6109 164.064 37.2006 164.719 36.38C165.182 35.7645 165.413 35.108 165.413 34.4104V30.5123C165.413 29.6096 165.066 28.789 164.334 28.0914C163.755 27.5991 163.1 27.3529 162.406 27.3529H162.367C161.365 27.3529 160.517 27.8042 159.862 28.789C159.515 29.3634 159.36 29.9379 159.36 30.5123ZM156.354 43.4785H168.381C168.42 43.4785 168.42 43.4785 168.42 43.5196V46.638C168.42 46.6791 168.42 46.6791 168.381 46.6791H156.354C156.315 46.6791 156.315 46.6791 156.315 46.638V43.5196L156.354 43.4785ZM177.903 46.6791C176.593 46.6791 175.359 46.2277 174.241 45.325C173.933 45.0788 173.624 44.7505 173.277 44.2992C172.391 43.1503 171.928 41.6731 171.928 39.9498V24.1523C171.928 24.1523 171.928 24.1523 171.967 24.1523H174.935H174.974V25.4654C174.974 26.0398 175.012 26.4091 175.089 26.6553C175.243 27.2708 175.59 27.7632 176.091 28.0914C176.4 28.2966 176.824 28.5428 177.287 28.7069L179.985 29.5276C180.833 29.8558 181.566 30.2251 182.144 30.6765C182.375 30.8816 182.645 31.1689 182.992 31.5381C183.686 32.5229 184.033 33.7539 184.033 35.149V40.3191C184.033 41.4269 183.725 42.4938 183.185 43.5196C183.031 43.8478 182.684 44.2992 182.144 44.9147C180.91 46.1046 179.561 46.6791 178.058 46.6791H177.903ZM174.974 40.278C174.974 40.9345 175.166 41.55 175.552 42.1245C176.207 43.0272 177.017 43.4785 177.942 43.4785H178.019C178.636 43.4785 179.214 43.2734 179.754 42.8631C180.602 42.1245 181.026 41.2628 181.026 40.278V35.6824C181.026 35.0259 180.949 34.5335 180.795 34.2052C180.525 33.5487 179.985 33.0563 179.137 32.6871C178.751 32.4819 178.366 32.3588 177.98 32.2767C176.516 31.8254 175.513 31.4561 174.974 31.2099V40.278ZM192.977 24.1523H193.092C194.48 24.1523 195.752 24.6447 196.909 25.6295C197.294 25.9578 197.564 26.286 197.718 26.4912C198.644 27.7221 199.068 29.0762 199.068 30.4713V34.4104C199.068 35.8876 198.605 37.2006 197.718 38.4726C197.294 38.965 196.947 39.2932 196.639 39.5394C195.521 40.4011 194.326 40.8114 193.015 40.8114C191.435 40.8114 190.008 40.196 188.775 38.965C188.312 38.4316 187.927 37.9392 187.695 37.4058C187.233 36.5031 186.963 35.3952 186.963 34.0821V30.9227C186.963 29.5686 187.233 28.4197 187.695 27.517C187.888 27.1067 188.196 26.6553 188.659 26.0809C189.199 25.5474 189.623 25.1782 189.893 25.0551C190.856 24.4396 191.897 24.1523 192.977 24.1523ZM190.008 30.5123V34.4104C190.008 35.3952 190.432 36.2569 191.203 36.9544C191.782 37.3647 192.321 37.6109 192.9 37.6109H193.092C193.979 37.6109 194.711 37.2006 195.405 36.38C195.829 35.7645 196.061 35.108 196.061 34.4104V30.5123C196.061 29.6096 195.714 28.789 195.02 28.0914C194.403 27.5991 193.748 27.3529 193.054 27.3529H193.015C192.013 27.3529 191.203 27.8042 190.509 28.789C190.201 29.3634 190.008 29.9379 190.008 30.5123ZM187.001 43.4785H199.029C199.068 43.4785 199.068 43.4785 199.068 43.5196V46.638C199.068 46.6791 199.068 46.6791 199.029 46.6791H187.001C187.001 46.6791 186.963 46.6791 186.963 46.638V43.5196L187.001 43.4785Z" fill="#FFFDF7"/>
<path fill-rule="evenodd" clip-rule="evenodd" d="M162.407 24.0391C165.722 24.0391 168.46 26.9524 168.46 30.5222V34.5023C168.46 38.0721 165.722 40.9444 162.407 40.9444C159.053 40.9444 156.315 38.0721 156.315 34.5023V30.5222C156.315 26.9524 159.053 24.0391 162.407 24.0391Z" fill="#FFFDF7"/>
<path fill-rule="evenodd" clip-rule="evenodd" d="M193.053 24C196.369 24 199.106 26.9133 199.106 30.4831V34.4632C199.106 38.033 196.369 40.9053 193.053 40.9053C189.699 40.9053 186.962 38.033 186.962 34.4632V30.4831C186.962 26.9133 189.699 24 193.053 24Z" fill="#FFFDF7"/>
<defs>
<filter id="filter0_d_2814_124" x="21" y="76" width="258" height="50" filterUnits="userSpaceOnUse" color-interpolation-filters="sRGB">
<feFlood flood-opacity="0" result="BackgroundImageFix"/>
<feColorMatrix in="SourceAlpha" type="matrix" values="0 0 0 0 0 0 0 0 0 0 0 0 0 0 0 0 0 0 127 0" result="hardAlpha"/>
<feOffset dy="4"/>
<feGaussianBlur stdDeviation="2"/>
<feComposite in2="hardAlpha" operator="out"/>
<feColorMatrix type="matrix" values="0 0 0 0 0 0 0 0 0 0 0 0 0 0 0 0 0 0 0.25 0"/>
<feBlend mode="normal" in2="BackgroundImageFix" result="effect1_dropShadow_2814_124"/>
<feBlend mode="normal" in="SourceGraphic" in2="effect1_dropShadow_2814_124" result="shape"/>
</filter>
<filter id="filter1_d_2814_124" x="23" y="153" width="258" height="38" filterUnits="userSpaceOnUse" color-interpolation-filters="sRGB">
<feFlood flood-opacity="0" result="BackgroundImageFix"/>
<feColorMatrix in="SourceAlpha" type="matrix" values="0 0 0 0 0 0 0 0 0 0 0 0 0 0 0 0 0 0 127 0" result="hardAlpha"/>
<feOffset dy="4"/>
<feGaussianBlur stdDeviation="2"/>
<feComposite in2="hardAlpha" operator="out"/>
<feColorMatrix type="matrix" values="0 0 0 0 0 0 0 0 0 0 0 0 0 0 0 0 0 0 0.25 0"/>
<feBlend mode="normal" in2="BackgroundImageFix" result="effect1_dropShadow_2814_124"/>
<feBlend mode="normal" in="SourceGraphic" in2="effect1_dropShadow_2814_124" result="shape"/>
</filter>
<linearGradient id="paint0_linear_2814_124" x1="150" y1="0" x2="150" y2="214" gradientUnits="userSpaceOnUse">
<stop offset="0.355769" stop-color="#929292"/>
<stop offset="0.7" stop-color="#585B68"/>
</linearGradient>
<linearGradient id="paint1_linear_2814_124" x1="150" y1="76" x2="150" y2="118" gradientUnits="userSpaceOnUse">
<stop stop-color="#ECECEC"/>
<stop offset="1" stop-color="#D1D0D0"/>
</linearGradient>
</defs>
</svg>
