<svg width="300" height="249" viewBox="0 0 300 249" fill="none" xmlns="http://www.w3.org/2000/svg">
<rect width="300" height="249" rx="10" fill="url(#paint0_linear_2846_1033)"/>
<path fill-rule="evenodd" clip-rule="evenodd" d="M120.388 51.1445H120.53C121.521 51.1445 122.456 51.506 123.334 52.229C123.419 52.3194 123.56 52.4701 123.787 52.7111C124.07 52.4098 124.297 52.1989 124.41 52.1085C125.231 51.4458 126.138 51.1445 127.101 51.1445H127.186C128.205 51.1445 129.14 51.506 129.99 52.229C130.245 52.4701 130.443 52.6809 130.584 52.8617C131.236 53.7654 131.576 54.7596 131.576 55.7839V67.6533C131.576 67.6834 131.576 67.6834 131.547 67.6834H129.395C129.367 67.6834 129.367 67.6834 129.367 67.6533V55.8441C129.367 55.0307 129.027 54.3981 128.347 53.8859C127.979 53.6148 127.554 53.4943 127.129 53.4943C126.421 53.4943 125.855 53.7956 125.373 54.4282C125.061 54.85 124.892 55.3018 124.892 55.7839V67.6834H122.711C122.682 67.6834 122.682 67.6834 122.682 67.6533V55.7839C122.682 55.1512 122.427 54.5487 121.889 54.0366C121.464 53.6751 120.983 53.4943 120.473 53.4943C119.708 53.4943 119.085 53.8257 118.604 54.5487C118.349 54.9705 118.236 55.3922 118.236 55.8441V67.6533C118.236 67.6834 118.236 67.6834 118.236 67.6834H116.026C116.026 67.6834 115.998 67.6834 115.998 67.6533V56.1152C115.998 55.1211 116.168 54.3077 116.536 53.6449C116.649 53.3738 116.876 53.0424 117.216 52.6207C117.641 52.1688 117.952 51.8977 118.179 51.8073C118.887 51.3554 119.623 51.1445 120.388 51.1445ZM134.04 51.1445H136.249H136.277V59.2784C136.277 59.9412 136.391 60.4232 136.646 60.7244C136.872 61.0257 137.07 61.1763 137.24 61.2667C137.552 61.4474 138.26 61.7186 139.365 62.0499C139.903 62.2307 140.384 62.3813 140.724 62.5621V51.1445C140.724 51.1445 140.724 51.1445 140.752 51.1445H142.933V66.629C142.933 67.7437 142.565 68.798 141.8 69.7319C141.404 70.1537 141.092 70.4248 140.837 70.5755C140.101 71.0575 139.336 71.2683 138.543 71.2683H138.43C137.325 71.2683 136.306 70.8466 135.399 69.9428C135.088 69.6114 134.861 69.3102 134.691 69.0089C134.238 68.2558 134.04 67.4424 134.04 66.5989V66.5688V66.5386H136.249L136.277 66.5688C136.277 67.3219 136.561 67.9545 137.155 68.4667C137.58 68.7679 138.005 68.9186 138.487 68.9186H138.515C139.195 68.9186 139.79 68.6173 140.271 67.9847C140.583 67.5328 140.724 67.0809 140.724 66.629C140.724 65.7554 140.413 65.1227 139.761 64.7612C139.478 64.5504 138.77 64.2792 137.609 63.9479C136.844 63.7068 136.249 63.4658 135.824 63.1947C135.116 62.773 134.606 62.1403 134.295 61.2968C134.153 60.7847 134.068 60.4232 134.068 60.2123C134.068 60.0918 134.04 59.8809 134.04 59.6399V51.1445ZM145.313 51.1445H147.493C147.522 51.1445 147.522 51.1445 147.522 51.1445V59.4592C148.06 59.2182 148.825 58.947 149.788 58.6759C150.439 58.465 150.892 58.2541 151.147 58.0433C151.515 57.8324 151.742 57.4709 151.883 57.019C151.94 56.8382 151.968 56.5671 151.968 56.1755V51.1445C151.968 51.1445 151.968 51.1445 151.997 51.1445H154.149C154.178 51.1445 154.178 51.1445 154.178 51.1445V56.5671C154.178 57.6215 153.923 58.5253 153.356 59.2784C153.101 59.5797 152.875 59.7905 152.762 59.8508C152.677 59.911 152.648 59.9412 152.62 59.9412V59.9713C153.016 60.3629 153.215 60.5738 153.271 60.6642C153.696 61.2667 153.979 61.9294 154.093 62.6223C154.149 62.8935 154.178 63.1646 154.178 63.4056V67.6533C154.178 67.6834 154.178 67.6834 154.149 67.6834H151.997C151.968 67.6834 151.968 67.6834 151.968 67.6533V63.7068C151.968 62.9537 151.77 62.3813 151.345 61.9294C151.119 61.6282 150.722 61.3872 150.156 61.2064L149.788 61.1161C149.306 61.2667 148.91 61.4173 148.598 61.5981C148.145 61.8391 147.833 62.1704 147.663 62.5621C147.578 62.8031 147.522 63.1646 147.522 63.6466V67.6533C147.522 67.6834 147.522 67.6834 147.493 67.6834H145.313C145.313 67.6834 145.284 67.6834 145.284 67.6533V51.1445H145.313ZM160.947 51.1445H161.06C162.08 51.1445 163.015 51.506 163.836 52.229C164.147 52.4701 164.346 52.7111 164.459 52.8617C165.11 53.7654 165.45 54.7596 165.45 55.7839V58.6759C165.45 59.7604 165.11 60.7244 164.431 61.6583C164.147 62.0198 163.893 62.2608 163.666 62.4416C162.845 63.0742 161.967 63.3755 161.004 63.3755C159.814 63.3755 158.794 62.9236 157.888 62.0198C157.52 61.6282 157.265 61.2667 157.095 60.8751C156.727 60.2123 156.557 59.3989 156.557 58.4349V56.1152C156.557 55.1211 156.727 54.2776 157.095 53.6148C157.237 53.3136 157.463 52.9822 157.803 52.5604C158.2 52.1688 158.511 51.8977 158.709 51.8073C159.417 51.3554 160.182 51.1445 160.947 51.1445ZM158.794 55.814V58.6759C158.794 59.3989 159.078 60.0315 159.672 60.5437C160.069 60.8449 160.494 61.0257 160.919 61.0257H161.06C161.683 61.0257 162.25 60.7244 162.731 60.1219C163.071 59.67 163.241 59.188 163.241 58.6759V55.814C163.241 55.1512 162.986 54.5487 162.448 54.0366C162.023 53.6751 161.542 53.4943 161.032 53.4943H161.004C160.267 53.4943 159.644 53.8257 159.163 54.5487C158.908 54.9705 158.794 55.3922 158.794 55.814ZM156.585 65.3336H165.422C165.45 65.3336 165.45 65.3336 165.45 65.3637V67.6533C165.45 67.6834 165.45 67.6834 165.422 67.6834H156.585C156.557 67.6834 156.557 67.6834 156.557 67.6533V65.3637L156.585 65.3336ZM172.418 67.6834C171.455 67.6834 170.548 67.352 169.727 66.6893C169.501 66.5085 169.274 66.2675 169.019 65.9361C168.368 65.0926 168.028 64.0081 168.028 62.7428V51.1445C168.028 51.1445 168.028 51.1445 168.056 51.1445H170.237H170.265V52.1085C170.265 52.5303 170.294 52.8014 170.35 52.9822C170.463 53.4341 170.718 53.7956 171.087 54.0366C171.313 54.1872 171.625 54.368 171.965 54.4885L173.947 55.091C174.57 55.332 175.108 55.6031 175.533 55.9345C175.703 56.0851 175.902 56.296 176.156 56.5671C176.666 57.2901 176.921 58.1939 176.921 59.2182V63.014C176.921 63.8273 176.695 64.6106 176.298 65.3637C176.185 65.6048 175.93 65.9361 175.533 66.388C174.627 67.2617 173.636 67.6834 172.531 67.6834H172.418ZM170.265 62.9838C170.265 63.4658 170.407 63.9177 170.69 64.3395C171.172 65.0022 171.766 65.3336 172.446 65.3336H172.503C172.956 65.3336 173.381 65.183 173.777 64.8817C174.4 64.3395 174.712 63.7068 174.712 62.9838V59.6098C174.712 59.1278 174.655 58.7663 174.542 58.5253C174.344 58.0433 173.947 57.6818 173.324 57.4106C173.041 57.26 172.758 57.1696 172.474 57.1094C171.398 56.778 170.662 56.5069 170.265 56.3261V62.9838ZM183.492 51.1445H183.577C184.597 51.1445 185.531 51.506 186.381 52.229C186.664 52.4701 186.863 52.7111 186.976 52.8617C187.656 53.7654 187.967 54.7596 187.967 55.7839V58.6759C187.967 59.7604 187.627 60.7244 186.976 61.6583C186.664 62.0198 186.409 62.2608 186.183 62.4416C185.361 63.0742 184.483 63.3755 183.52 63.3755C182.359 63.3755 181.311 62.9236 180.405 62.0198C180.065 61.6282 179.782 61.2667 179.612 60.8751C179.272 60.2123 179.074 59.3989 179.074 58.4349V56.1152C179.074 55.1211 179.272 54.2776 179.612 53.6148C179.753 53.3136 179.98 52.9822 180.32 52.5604C180.716 52.1688 181.028 51.8977 181.226 51.8073C181.934 51.3554 182.699 51.1445 183.492 51.1445ZM181.311 55.814V58.6759C181.311 59.3989 181.623 60.0315 182.189 60.5437C182.614 60.8449 183.011 61.0257 183.436 61.0257H183.577C184.229 61.0257 184.767 60.7244 185.277 60.1219C185.588 59.67 185.758 59.188 185.758 58.6759V55.814C185.758 55.1512 185.503 54.5487 184.993 54.0366C184.54 53.6751 184.059 53.4943 183.549 53.4943H183.52C182.784 53.4943 182.189 53.8257 181.679 54.5487C181.453 54.9705 181.311 55.3922 181.311 55.814ZM179.102 65.3336H187.939C187.967 65.3336 187.967 65.3336 187.967 65.3637V67.6533C187.967 67.6834 187.967 67.6834 187.939 67.6834H179.102C179.102 67.6834 179.074 67.6834 179.074 67.6533V65.3637L179.102 65.3336Z" fill="#FFFDF7"/>
<path fill-rule="evenodd" clip-rule="evenodd" d="M161.031 51.0391C163.467 51.0391 165.478 53.178 165.478 55.7989V58.7211C165.478 61.342 163.467 63.4508 161.031 63.4508C158.567 63.4508 156.556 61.342 156.556 58.7211V55.7989C156.556 53.178 158.567 51.0391 161.031 51.0391Z" fill="#FFFDF7"/>
<path fill-rule="evenodd" clip-rule="evenodd" d="M183.551 51C185.986 51 187.998 53.1389 187.998 55.7598V58.682C187.998 61.3029 185.986 63.4117 183.551 63.4117C181.086 63.4117 179.075 61.3029 179.075 58.682V55.7598C179.075 53.1389 181.086 51 183.551 51Z" fill="#FFFDF7"/>
<rect x="25" y="81.3516" width="250" height="30" rx="10" fill="url(#paint1_linear_2846_1033)"/>
<path d="M189.892 99.3516H187.741V93.5334H189.889C190.482 93.5334 190.992 93.6499 191.42 93.8828C191.85 94.1139 192.181 94.4472 192.414 94.8828C192.647 95.3165 192.764 95.8355 192.764 96.4396C192.764 97.0457 192.647 97.5665 192.414 98.0021C192.183 98.4377 191.853 98.772 191.423 99.005C190.993 99.236 190.483 99.3516 189.892 99.3516ZM189.147 98.1527H189.838C190.163 98.1527 190.439 98.0978 190.664 97.9879C190.892 97.8762 191.063 97.6953 191.179 97.4453C191.296 97.1934 191.355 96.8582 191.355 96.4396C191.355 96.0211 191.296 95.6877 191.179 95.4396C191.061 95.1896 190.888 95.0097 190.659 94.8999C190.431 94.7881 190.151 94.7322 189.818 94.7322H189.147V98.1527ZM193.585 99.3516V94.9879H194.974V99.3516H193.585ZM194.281 94.4794C194.086 94.4794 193.918 94.415 193.778 94.2862C193.638 94.1555 193.568 93.9983 193.568 93.8146C193.568 93.6328 193.638 93.4775 193.778 93.3487C193.918 93.218 194.086 93.1527 194.281 93.1527C194.478 93.1527 194.645 93.218 194.784 93.3487C194.924 93.4775 194.994 93.6328 194.994 93.8146C194.994 93.9983 194.924 94.1555 194.784 94.2862C194.645 94.415 194.478 94.4794 194.281 94.4794ZM199.668 96.3203L198.392 96.3544C198.379 96.2635 198.343 96.183 198.284 96.1129C198.226 96.041 198.149 95.9851 198.054 95.9453C197.962 95.9036 197.854 95.8828 197.73 95.8828C197.569 95.8828 197.432 95.915 197.319 95.9794C197.207 96.0438 197.152 96.1309 197.154 96.2408C197.152 96.326 197.186 96.3999 197.256 96.4624C197.328 96.5249 197.456 96.575 197.64 96.6129L198.48 96.772C198.916 96.8554 199.24 96.9936 199.452 97.1868C199.666 97.38 199.774 97.6357 199.776 97.9538C199.774 98.2531 199.685 98.5135 199.509 98.7351C199.335 98.9567 199.096 99.129 198.793 99.2521C198.49 99.3733 198.143 99.4339 197.753 99.4339C197.13 99.4339 196.639 99.3061 196.279 99.0504C195.921 98.7929 195.716 98.4482 195.665 98.0163L197.037 97.9822C197.068 98.1413 197.146 98.2625 197.273 98.3459C197.4 98.4292 197.562 98.4709 197.759 98.4709C197.937 98.4709 198.082 98.4377 198.194 98.3714C198.305 98.3052 198.362 98.2171 198.364 98.1072C198.362 98.0088 198.319 97.9302 198.233 97.8714C198.148 97.8108 198.015 97.7635 197.833 97.7294L197.071 97.5845C196.634 97.505 196.308 97.3582 196.094 97.1442C195.88 96.9283 195.774 96.6536 195.776 96.3203C195.774 96.0286 195.852 95.7796 196.009 95.5732C196.166 95.3648 196.39 95.2057 196.679 95.0959C196.969 94.986 197.311 94.9311 197.705 94.9311C198.296 94.9311 198.762 95.0552 199.103 95.3033C199.444 95.5495 199.632 95.8885 199.668 96.3203ZM202.497 99.4339C202.037 99.4339 201.642 99.3393 201.312 99.1499C200.984 98.9605 200.733 98.6972 200.556 98.3601C200.38 98.0211 200.292 97.629 200.292 97.1839C200.292 96.737 200.38 96.3449 200.556 96.0078C200.734 95.6688 200.987 95.4046 201.315 95.2152C201.645 95.0258 202.038 94.9311 202.494 94.9311C202.897 94.9311 203.249 95.004 203.548 95.1499C203.849 95.2957 204.084 95.5021 204.252 95.7692C204.423 96.0343 204.513 96.3459 204.522 96.7038H203.224C203.198 96.4804 203.122 96.3052 202.997 96.1783C202.874 96.0514 202.713 95.9879 202.514 95.9879C202.353 95.9879 202.212 96.0334 202.091 96.1243C201.969 96.2133 201.875 96.3459 201.806 96.522C201.74 96.6963 201.707 96.9122 201.707 97.1697C201.707 97.4273 201.74 97.6451 201.806 97.8232C201.875 97.9993 201.969 98.1328 202.091 98.2237C202.212 98.3127 202.353 98.3572 202.514 98.3572C202.643 98.3572 202.756 98.3298 202.855 98.2749C202.955 98.2199 203.038 98.1394 203.102 98.0334C203.166 97.9254 203.207 97.7947 203.224 97.6413H204.522C204.509 98.0012 204.419 98.3156 204.252 98.5845C204.088 98.8535 203.856 99.0627 203.556 99.2124C203.259 99.3601 202.906 99.4339 202.497 99.4339ZM207.27 99.4339C206.812 99.4339 206.418 99.3402 206.088 99.1527C205.761 98.9633 205.508 98.7 205.33 98.3629C205.154 98.0239 205.066 97.6309 205.066 97.1839C205.066 96.7351 205.154 96.3421 205.33 96.005C205.508 95.666 205.761 95.4027 206.088 95.2152C206.418 95.0258 206.812 94.9311 207.27 94.9311C207.729 94.9311 208.122 95.0258 208.449 95.2152C208.779 95.4027 209.032 95.666 209.208 96.005C209.386 96.3421 209.475 96.7351 209.475 97.1839C209.475 97.6309 209.386 98.0239 209.208 98.3629C209.032 98.7 208.779 98.9633 208.449 99.1527C208.122 99.3402 207.729 99.4339 207.27 99.4339ZM207.279 98.3857C207.445 98.3857 207.587 98.3345 207.702 98.2322C207.818 98.13 207.906 97.9879 207.966 97.8061C208.029 97.6243 208.06 97.4141 208.06 97.1754C208.06 96.933 208.029 96.7209 207.966 96.5391C207.906 96.3572 207.818 96.2152 207.702 96.1129C207.587 96.0107 207.445 95.9595 207.279 95.9595C207.106 95.9595 206.961 96.0107 206.841 96.1129C206.724 96.2152 206.634 96.3572 206.571 96.5391C206.511 96.7209 206.48 96.933 206.48 97.1754C206.48 97.4141 206.511 97.6243 206.571 97.8061C206.634 97.9879 206.724 98.13 206.841 98.2322C206.961 98.3345 207.106 98.3857 207.279 98.3857ZM211.576 96.8629V99.3516H210.186V94.9879H211.507V95.7891H211.556C211.652 95.522 211.817 95.3127 212.05 95.1612C212.283 95.0078 212.56 94.9311 212.882 94.9311C213.189 94.9311 213.455 95.0002 213.681 95.1385C213.908 95.2749 214.084 95.4661 214.209 95.7124C214.336 95.9567 214.399 96.2427 214.397 96.5703V99.3516H213.007V96.843C213.009 96.6006 212.948 96.4112 212.823 96.2749C212.7 96.1385 212.528 96.0703 212.309 96.0703C212.163 96.0703 212.034 96.1025 211.922 96.1669C211.812 96.2294 211.727 96.3194 211.667 96.4368C211.608 96.5542 211.578 96.6963 211.576 96.8629ZM216.646 96.8629V99.3516H215.257V94.9879H216.578V95.7891H216.626C216.723 95.522 216.887 95.3127 217.12 95.1612C217.353 95.0078 217.631 94.9311 217.953 94.9311C218.26 94.9311 218.526 95.0002 218.751 95.1385C218.978 95.2749 219.154 95.4661 219.279 95.7124C219.406 95.9567 219.469 96.2427 219.467 96.5703V99.3516H218.078V96.843C218.08 96.6006 218.018 96.4112 217.893 96.2749C217.77 96.1385 217.599 96.0703 217.379 96.0703C217.233 96.0703 217.104 96.1025 216.993 96.1669C216.883 96.2294 216.797 96.3194 216.737 96.4368C216.678 96.5542 216.648 96.6963 216.646 96.8629ZM221.716 96.8629V99.3516H220.327V94.9879H221.648V95.7891H221.696C221.793 95.522 221.958 95.3127 222.191 95.1612C222.424 95.0078 222.701 94.9311 223.023 94.9311C223.33 94.9311 223.596 95.0002 223.821 95.1385C224.049 95.2749 224.225 95.4661 224.35 95.7124C224.477 95.9567 224.539 96.2427 224.537 96.5703V99.3516H223.148V96.843C223.15 96.6006 223.088 96.4112 222.963 96.2749C222.84 96.1385 222.669 96.0703 222.449 96.0703C222.303 96.0703 222.175 96.1025 222.063 96.1669C221.953 96.2294 221.868 96.3194 221.807 96.4368C221.748 96.5542 221.718 96.6963 221.716 96.8629ZM227.437 99.4339C226.981 99.4339 226.587 99.344 226.255 99.1641C225.926 98.9822 225.672 98.7237 225.494 98.3885C225.318 98.0514 225.23 97.6508 225.23 97.1868C225.23 96.736 225.319 96.3421 225.497 96.005C225.675 95.666 225.926 95.4027 226.25 95.2152C226.574 95.0258 226.955 94.9311 227.395 94.9311C227.705 94.9311 227.989 94.9794 228.247 95.076C228.504 95.1726 228.727 95.3156 228.914 95.505C229.102 95.6944 229.248 95.9283 229.352 96.2067C229.456 96.4832 229.508 96.8004 229.508 97.1584V97.505H225.716V96.6982H228.216C228.214 96.5504 228.179 96.4188 228.11 96.3033C228.042 96.1877 227.949 96.0978 227.829 96.0334C227.712 95.9671 227.576 95.9339 227.423 95.9339C227.268 95.9339 227.128 95.969 227.005 96.0391C226.882 96.1072 226.785 96.201 226.713 96.3203C226.641 96.4377 226.603 96.5713 226.599 96.7209V97.5419C226.599 97.7199 226.634 97.8762 226.704 98.0107C226.774 98.1432 226.874 98.2464 227.002 98.3203C227.131 98.3942 227.285 98.4311 227.463 98.4311C227.586 98.4311 227.698 98.4141 227.798 98.38C227.898 98.3459 227.984 98.2957 228.056 98.2294C228.128 98.1631 228.182 98.0817 228.218 97.9851L229.494 98.022C229.441 98.308 229.324 98.5571 229.145 98.7692C228.967 98.9794 228.733 99.1432 228.443 99.2607C228.153 99.3762 227.818 99.4339 227.437 99.4339ZM232.255 99.4339C231.794 99.4339 231.4 99.3393 231.07 99.1499C230.742 98.9605 230.49 98.6972 230.314 98.3601C230.138 98.0211 230.05 97.629 230.05 97.1839C230.05 96.737 230.138 96.3449 230.314 96.0078C230.492 95.6688 230.745 95.4046 231.073 95.2152C231.402 95.0258 231.795 94.9311 232.252 94.9311C232.655 94.9311 233.007 95.004 233.306 95.1499C233.607 95.2957 233.842 95.5021 234.01 95.7692C234.181 96.0343 234.271 96.3459 234.28 96.7038H232.982C232.955 96.4804 232.88 96.3052 232.755 96.1783C232.632 96.0514 232.471 95.9879 232.272 95.9879C232.111 95.9879 231.97 96.0334 231.848 96.1243C231.727 96.2133 231.632 96.3459 231.564 96.522C231.498 96.6963 231.465 96.9122 231.465 97.1697C231.465 97.4273 231.498 97.6451 231.564 97.8232C231.632 97.9993 231.727 98.1328 231.848 98.2237C231.97 98.3127 232.111 98.3572 232.272 98.3572C232.4 98.3572 232.514 98.3298 232.613 98.2749C232.713 98.2199 232.795 98.1394 232.86 98.0334C232.924 97.9254 232.965 97.7947 232.982 97.6413H234.28C234.267 98.0012 234.177 98.3156 234.01 98.5845C233.846 98.8535 233.614 99.0627 233.314 99.2124C233.017 99.3601 232.664 99.4339 232.255 99.4339ZM237.454 94.9879V96.0107H234.701V94.9879H237.454ZM235.278 93.9425H236.667V97.9794C236.667 98.0646 236.681 98.1338 236.707 98.1868C236.735 98.2379 236.776 98.2749 236.829 98.2976C236.882 98.3184 236.946 98.3288 237.02 98.3288C237.073 98.3288 237.128 98.3241 237.187 98.3146C237.248 98.3033 237.293 98.2938 237.324 98.2862L237.534 99.2891C237.467 99.308 237.374 99.3317 237.252 99.3601C237.133 99.3885 236.99 99.4065 236.824 99.4141C236.498 99.4292 236.218 99.3913 235.985 99.3004C235.754 99.2076 235.577 99.0637 235.454 98.8686C235.333 98.6735 235.274 98.4283 235.278 98.1328V93.9425ZM241.277 99.3516L239.583 93.5334H241.137L242.015 97.3459H242.064L243.066 93.5334H244.333L245.336 97.3544H245.385L246.265 93.5334H247.816L246.126 99.3516H244.771L243.723 95.8232H243.677L242.629 99.3516H241.277ZM249.143 99.4254C248.865 99.4254 248.618 99.379 248.402 99.2862C248.188 99.1915 248.018 99.0495 247.893 98.8601C247.77 98.6688 247.708 98.4292 247.708 98.1413C247.708 97.8989 247.751 97.6944 247.836 97.5277C247.922 97.361 248.039 97.2256 248.189 97.1214C248.338 97.0173 248.511 96.9387 248.706 96.8857C248.901 96.8307 249.109 96.7938 249.331 96.7749C249.579 96.7521 249.779 96.7285 249.93 96.7038C250.082 96.6773 250.191 96.6404 250.26 96.593C250.33 96.5438 250.365 96.4747 250.365 96.3857V96.3714C250.365 96.2256 250.315 96.1129 250.214 96.0334C250.114 95.9538 249.978 95.9141 249.808 95.9141C249.624 95.9141 249.476 95.9538 249.365 96.0334C249.253 96.1129 249.182 96.2228 249.152 96.3629L247.87 96.3175C247.908 96.0523 248.006 95.8156 248.163 95.6072C248.322 95.397 248.54 95.2322 248.816 95.1129C249.095 94.9917 249.429 94.9311 249.819 94.9311C250.098 94.9311 250.354 94.9643 250.589 95.0305C250.824 95.0949 251.029 95.1896 251.203 95.3146C251.377 95.4377 251.511 95.5893 251.606 95.7692C251.703 95.9491 251.751 96.1546 251.751 96.3857V99.3516H250.444V98.7436H250.41C250.333 98.8913 250.233 99.0163 250.112 99.1186C249.993 99.2209 249.851 99.2976 249.689 99.3487C249.528 99.3999 249.346 99.4254 249.143 99.4254ZM249.572 98.5163C249.722 98.5163 249.856 98.486 249.975 98.4254C250.097 98.3648 250.193 98.2815 250.265 98.1754C250.337 98.0675 250.373 97.9425 250.373 97.8004V97.3857C250.333 97.4065 250.285 97.4254 250.228 97.4425C250.173 97.4595 250.113 97.4756 250.047 97.4908C249.98 97.5059 249.912 97.5192 249.842 97.5305C249.772 97.5419 249.705 97.5523 249.64 97.5618C249.51 97.5826 249.398 97.6148 249.305 97.6584C249.214 97.7019 249.144 97.7588 249.095 97.8288C249.047 97.897 249.024 97.9785 249.024 98.0732C249.024 98.2171 249.075 98.3269 249.177 98.4027C249.281 98.4785 249.413 98.5163 249.572 98.5163ZM253.99 93.5334V99.3516H252.6V93.5334H253.99ZM256.263 93.5334V99.3516H254.874V93.5334H256.263ZM259.187 99.4339C258.731 99.4339 258.337 99.344 258.005 99.1641C257.676 98.9822 257.422 98.7237 257.244 98.3885C257.068 98.0514 256.98 97.6508 256.98 97.1868C256.98 96.736 257.069 96.3421 257.247 96.005C257.425 95.666 257.676 95.4027 258 95.2152C258.324 95.0258 258.705 94.9311 259.145 94.9311C259.455 94.9311 259.739 94.9794 259.997 95.076C260.254 95.1726 260.477 95.3156 260.664 95.505C260.852 95.6944 260.998 95.9283 261.102 96.2067C261.206 96.4832 261.258 96.8004 261.258 97.1584V97.505H257.466V96.6982H259.966C259.964 96.5504 259.929 96.4188 259.86 96.3033C259.792 96.1877 259.699 96.0978 259.579 96.0334C259.462 95.9671 259.326 95.9339 259.173 95.9339C259.018 95.9339 258.878 95.969 258.755 96.0391C258.632 96.1072 258.535 96.201 258.463 96.3203C258.391 96.4377 258.353 96.5713 258.349 96.7209V97.5419C258.349 97.7199 258.384 97.8762 258.454 98.0107C258.524 98.1432 258.624 98.2464 258.752 98.3203C258.881 98.3942 259.035 98.4311 259.213 98.4311C259.336 98.4311 259.448 98.4141 259.548 98.38C259.648 98.3459 259.734 98.2957 259.806 98.2294C259.878 98.1631 259.932 98.0817 259.968 97.9851L261.244 98.022C261.191 98.308 261.074 98.5571 260.895 98.7692C260.717 98.9794 260.483 99.1432 260.193 99.2607C259.903 99.3762 259.568 99.4339 259.187 99.4339ZM264.431 94.9879V96.0107H261.678V94.9879H264.431ZM262.255 93.9425H263.644V97.9794C263.644 98.0646 263.657 98.1338 263.684 98.1868C263.712 98.2379 263.753 98.2749 263.806 98.2976C263.859 98.3184 263.922 98.3288 263.996 98.3288C264.049 98.3288 264.105 98.3241 264.164 98.3146C264.224 98.3033 264.27 98.2938 264.3 98.2862L264.51 99.2891C264.444 99.308 264.35 99.3317 264.229 99.3601C264.11 99.3885 263.967 99.4065 263.8 99.4141C263.474 99.4292 263.195 99.3913 262.962 99.3004C262.731 99.2076 262.554 99.0637 262.431 98.8686C262.31 98.6735 262.251 98.4283 262.255 98.1328V93.9425Z" fill="#00A0FF"/>
<path d="M38.571 95.4339C38.5388 95.3146 38.4915 95.2095 38.429 95.1186C38.3665 95.0258 38.2898 94.9472 38.1989 94.8828C38.108 94.8184 38.0038 94.7701 37.8864 94.7379C37.7689 94.7038 37.6402 94.6868 37.5 94.6868C37.2178 94.6868 36.9735 94.755 36.767 94.8913C36.5625 95.0277 36.4044 95.2266 36.2926 95.4879C36.1809 95.7474 36.125 96.0627 36.125 96.4339C36.125 96.8071 36.179 97.1252 36.2869 97.3885C36.3949 97.6518 36.5511 97.8525 36.7557 97.9908C36.9602 98.129 37.2083 98.1982 37.5 98.1982C37.7576 98.1982 37.9754 98.1565 38.1534 98.0732C38.3333 97.9879 38.4697 97.8677 38.5625 97.7124C38.6553 97.5571 38.7017 97.3743 38.7017 97.1641L38.9631 97.1953H37.5483V96.1697H40.0568V96.9396C40.0568 97.4605 39.946 97.9065 39.7244 98.2777C39.5047 98.6489 39.2017 98.9339 38.8153 99.1328C38.4309 99.3317 37.9886 99.4311 37.4886 99.4311C36.9337 99.4311 36.446 99.3108 36.0256 99.0703C35.6051 98.8298 35.2775 98.487 35.0426 98.0419C34.8078 97.5949 34.6903 97.0646 34.6903 96.451C34.6903 95.9737 34.7614 95.5504 34.9034 95.1811C35.0455 94.8099 35.2434 94.4955 35.4972 94.2379C35.7528 93.9804 36.0483 93.7853 36.3835 93.6527C36.7206 93.5201 37.0833 93.4538 37.4716 93.4538C37.8087 93.4538 38.1222 93.5021 38.4119 93.5987C38.7036 93.6953 38.9612 93.8317 39.1847 94.0078C39.41 94.1839 39.5928 94.3932 39.733 94.6357C39.8731 94.8781 39.9602 95.1442 39.9943 95.4339H38.571ZM42.1527 93.5334L43.2152 95.3714H43.2607L44.3345 93.5334H45.9084L44.1527 96.4425L45.9652 99.3516H44.3516L43.2607 97.4936H43.2152L42.1243 99.3516H40.522L42.326 96.4425L40.5675 93.5334H42.1527ZM46.6357 93.5334H48.3771L49.8544 97.1357H49.9226L51.3999 93.5334H53.1413V99.3516H51.772V95.7777H51.7237L50.326 99.3146H49.451L48.0533 95.7578H48.005V99.3516H46.6357V93.5334ZM55.2713 98.2067L55.277 96.5504H55.4702L56.6974 94.9879H58.2713L56.4474 97.2266H56.081L55.2713 98.2067ZM54.0185 99.3516V93.5334H55.4077V99.3516H54.0185ZM56.7287 99.3516L55.5866 97.5391L56.5014 96.5533L58.3338 99.3516H56.7287ZM61.0298 99.4311C60.5772 99.4311 60.1728 99.3591 59.8168 99.2152C59.4626 99.0694 59.1842 98.8724 58.9815 98.6243C58.7808 98.3743 58.6804 98.0921 58.6804 97.7777C58.6804 97.5372 58.7382 97.3165 58.8537 97.1158C58.9692 96.915 59.1255 96.7483 59.3224 96.6158C59.5213 96.4813 59.7429 96.3951 59.9872 96.3572V96.3118C59.6671 96.2531 59.4048 96.1044 59.2003 95.8658C58.9976 95.6271 58.8963 95.3478 58.8963 95.0277C58.8963 94.7247 58.9882 94.4548 59.1719 94.218C59.3575 93.9813 59.6103 93.7947 59.9304 93.6584C60.2524 93.522 60.6188 93.4538 61.0298 93.4538C61.4408 93.4538 61.8063 93.522 62.1264 93.6584C62.4484 93.7947 62.7012 93.9813 62.8849 94.218C63.0705 94.4548 63.1634 94.7247 63.1634 95.0277C63.1634 95.3497 63.0601 95.63 62.8537 95.8686C62.6491 96.1054 62.3887 96.2531 62.0724 96.3118V96.3572C62.3149 96.3951 62.5346 96.4813 62.7315 96.6158C62.9304 96.7483 63.0876 96.915 63.2031 97.1158C63.3205 97.3165 63.3793 97.5372 63.3793 97.7777C63.3793 98.0921 63.2779 98.3743 63.0753 98.6243C62.8726 98.8724 62.5942 99.0694 62.2401 99.2152C61.8878 99.3591 61.4844 99.4311 61.0298 99.4311ZM61.0298 98.4339C61.2022 98.4339 61.3537 98.4018 61.4844 98.3374C61.6151 98.2711 61.7173 98.1792 61.7912 98.0618C61.867 97.9444 61.9048 97.8118 61.9048 97.6641C61.9048 97.5125 61.867 97.3781 61.7912 97.2607C61.7154 97.1432 61.6113 97.0514 61.4787 96.9851C61.348 96.9169 61.1984 96.8828 61.0298 96.8828C60.8632 96.8828 60.7135 96.9169 60.581 96.9851C60.4484 97.0514 60.3442 97.1432 60.2685 97.2607C60.1927 97.3781 60.1548 97.5125 60.1548 97.6641C60.1548 97.8118 60.1918 97.9444 60.2656 98.0618C60.3414 98.1773 60.4446 98.2682 60.5753 98.3345C60.7079 98.4008 60.8594 98.4339 61.0298 98.4339ZM61.0298 95.8913C61.1776 95.8913 61.3082 95.861 61.4219 95.8004C61.5374 95.7398 61.6274 95.6555 61.6918 95.5476C61.758 95.4396 61.7912 95.3175 61.7912 95.1811C61.7912 95.0447 61.758 94.9245 61.6918 94.8203C61.6274 94.7161 61.5384 94.6347 61.4247 94.576C61.3111 94.5154 61.1795 94.4851 61.0298 94.4851C60.8821 94.4851 60.7505 94.5154 60.6349 94.576C60.5194 94.6347 60.4295 94.7161 60.3651 94.8203C60.3007 94.9245 60.2685 95.0447 60.2685 95.1811C60.2685 95.3175 60.3007 95.4396 60.3651 95.5476C60.4313 95.6536 60.5223 95.7379 60.6378 95.8004C60.7533 95.861 60.884 95.8913 61.0298 95.8913ZM64.1747 99.3516V94.9879H65.5241V95.7834H65.5696C65.6491 95.4955 65.7789 95.2815 65.9588 95.1413C66.1387 94.9993 66.348 94.9283 66.5866 94.9283C66.651 94.9283 66.7173 94.933 66.7855 94.9425C66.8537 94.95 66.9171 94.9624 66.9759 94.9794V96.1868C66.9096 96.1641 66.8224 96.1461 66.7145 96.1328C66.6084 96.1196 66.5137 96.1129 66.4304 96.1129C66.2656 96.1129 66.117 96.1499 65.9844 96.2237C65.8537 96.2957 65.7505 96.397 65.6747 96.5277C65.6009 96.6565 65.5639 96.808 65.5639 96.9822V99.3516H64.1747ZM67.8232 99.4339C67.6186 99.4339 67.4434 99.362 67.2976 99.218C67.1536 99.0741 67.0826 98.8999 67.0845 98.6953C67.0826 98.4946 67.1536 98.3232 67.2976 98.1811C67.4434 98.0372 67.6186 97.9652 67.8232 97.9652C68.0163 97.9652 68.1868 98.0372 68.3345 98.1811C68.4841 98.3232 68.5599 98.4946 68.5618 98.6953C68.5599 98.8317 68.5239 98.9557 68.4538 99.0675C68.3857 99.1792 68.2957 99.2682 68.1839 99.3345C68.0741 99.4008 67.9538 99.4339 67.8232 99.4339ZM70.2607 99.4339C70.0561 99.4339 69.8809 99.362 69.7351 99.218C69.5911 99.0741 69.5201 98.8999 69.522 98.6953C69.5201 98.4946 69.5911 98.3232 69.7351 98.1811C69.8809 98.0372 70.0561 97.9652 70.2607 97.9652C70.4538 97.9652 70.6243 98.0372 70.772 98.1811C70.9216 98.3232 70.9974 98.4946 70.9993 98.6953C70.9974 98.8317 70.9614 98.9557 70.8913 99.0675C70.8232 99.1792 70.7332 99.2682 70.6214 99.3345C70.5116 99.4008 70.3913 99.4339 70.2607 99.4339ZM72.6982 99.4339C72.4936 99.4339 72.3184 99.362 72.1726 99.218C72.0286 99.0741 71.9576 98.8999 71.9595 98.6953C71.9576 98.4946 72.0286 98.3232 72.1726 98.1811C72.3184 98.0372 72.4936 97.9652 72.6982 97.9652C72.8913 97.9652 73.0618 98.0372 73.2095 98.1811C73.3591 98.3232 73.4349 98.4946 73.4368 98.6953C73.4349 98.8317 73.3989 98.9557 73.3288 99.0675C73.2607 99.1792 73.1707 99.2682 73.0589 99.3345C72.9491 99.4008 72.8288 99.4339 72.6982 99.4339ZM74.3544 99.3516V93.5334H76.7578C77.1934 93.5334 77.5694 93.6186 77.8857 93.7891C78.2038 93.9576 78.4491 94.1934 78.6214 94.4964C78.7938 94.7976 78.88 95.148 78.88 95.5476C78.88 95.9491 78.7919 96.3004 78.6158 96.6016C78.4415 96.9008 78.1925 97.1328 77.8686 97.2976C77.5447 97.4624 77.1603 97.5447 76.7152 97.5447H75.2322V96.4368H76.4538C76.666 96.4368 76.843 96.3999 76.9851 96.326C77.129 96.2521 77.2379 96.1489 77.3118 96.0163C77.3857 95.8819 77.4226 95.7256 77.4226 95.5476C77.4226 95.3677 77.3857 95.2124 77.3118 95.0817C77.2379 94.9491 77.129 94.8468 76.9851 94.7749C76.8411 94.7029 76.6641 94.6669 76.4538 94.6669H75.7607V99.3516H74.3544ZM79.5732 99.3516V93.5334H80.9624V95.7351H80.9908C81.0476 95.6025 81.1281 95.4747 81.2322 95.3516C81.3383 95.2285 81.4728 95.1281 81.6357 95.0504C81.8004 94.9709 81.9974 94.9311 82.2266 94.9311C82.5296 94.9311 82.8127 95.0107 83.076 95.1697C83.3411 95.3288 83.5552 95.5741 83.718 95.9055C83.8809 96.237 83.9624 96.6593 83.9624 97.1726C83.9624 97.6669 83.8838 98.0807 83.7266 98.4141C83.5713 98.7474 83.361 98.9974 83.0959 99.1641C82.8326 99.3307 82.54 99.4141 82.218 99.4141C81.9983 99.4141 81.808 99.3781 81.647 99.3061C81.486 99.2341 81.3506 99.1394 81.2408 99.022C81.1328 98.9046 81.0495 98.7786 80.9908 98.6442H80.9482V99.3516H79.5732ZM80.9339 97.1697C80.9339 97.4046 80.9652 97.6091 81.0277 97.7834C81.0921 97.9576 81.1839 98.093 81.3033 98.1896C81.4245 98.2843 81.5694 98.3317 81.7379 98.3317C81.9084 98.3317 82.0533 98.2843 82.1726 98.1896C82.2919 98.093 82.3819 97.9576 82.4425 97.7834C82.505 97.6091 82.5362 97.4046 82.5362 97.1697C82.5362 96.9349 82.505 96.7313 82.4425 96.5589C82.3819 96.3866 82.2919 96.2531 82.1726 96.1584C82.0552 96.0637 81.9103 96.0163 81.7379 96.0163C81.5675 96.0163 81.4226 96.0627 81.3033 96.1555C81.1839 96.2483 81.0921 96.3809 81.0277 96.5533C80.9652 96.7256 80.9339 96.9311 80.9339 97.1697ZM85.3991 100.988C85.2325 100.988 85.0753 100.975 84.9276 100.948C84.7798 100.924 84.6529 100.89 84.5469 100.849L84.8537 99.8402C84.9901 99.8857 85.1132 99.9122 85.223 99.9197C85.3348 99.9273 85.4304 99.9093 85.5099 99.8658C85.5914 99.8241 85.6539 99.7493 85.6974 99.6413L85.7514 99.5107L84.2003 94.9879H85.6548L86.4588 98.1016H86.5043L87.3196 94.9879H88.7827L87.1378 99.7692C87.0582 100.008 86.9455 100.218 86.7997 100.4C86.6558 100.584 86.4692 100.728 86.2401 100.832C86.0128 100.936 85.7325 100.988 85.3991 100.988ZM91.2116 99.4339C90.7533 99.4339 90.3594 99.3402 90.0298 99.1527C89.7022 98.9633 89.4493 98.7 89.2713 98.3629C89.0952 98.0239 89.0071 97.6309 89.0071 97.1839C89.0071 96.7351 89.0952 96.3421 89.2713 96.005C89.4493 95.666 89.7022 95.4027 90.0298 95.2152C90.3594 95.0258 90.7533 94.9311 91.2116 94.9311C91.67 94.9311 92.063 95.0258 92.3906 95.2152C92.7202 95.4027 92.973 95.666 93.1491 96.005C93.3272 96.3421 93.4162 96.7351 93.4162 97.1839C93.4162 97.6309 93.3272 98.0239 93.1491 98.3629C92.973 98.7 92.7202 98.9633 92.3906 99.1527C92.063 99.3402 91.67 99.4339 91.2116 99.4339ZM91.2202 98.3857C91.3868 98.3857 91.5279 98.3345 91.6435 98.2322C91.759 98.13 91.8471 97.9879 91.9077 97.8061C91.9702 97.6243 92.0014 97.4141 92.0014 97.1754C92.0014 96.933 91.9702 96.7209 91.9077 96.5391C91.8471 96.3572 91.759 96.2152 91.6435 96.1129C91.5279 96.0107 91.3868 95.9595 91.2202 95.9595C91.0478 95.9595 90.902 96.0107 90.7827 96.1129C90.6652 96.2152 90.5753 96.3572 90.5128 96.5391C90.4522 96.7209 90.4219 96.933 90.4219 97.1754C90.4219 97.4141 90.4522 97.6243 90.5128 97.8061C90.5753 97.9879 90.6652 98.13 90.7827 98.2322C90.902 98.3345 91.0478 98.3857 91.2202 98.3857Z" fill="#585B68"/>
<rect x="195" y="121" width="80" height="38" rx="10" fill="#585B68"/>
<path d="M217.921 152V150.989L220.043 149.131C220.202 148.987 220.338 148.855 220.45 148.736C220.561 148.615 220.647 148.493 220.705 148.372C220.764 148.249 220.793 148.116 220.793 147.972C220.793 147.811 220.758 147.673 220.688 147.56C220.618 147.444 220.522 147.355 220.398 147.293C220.275 147.23 220.134 147.199 219.975 147.199C219.814 147.199 219.673 147.232 219.552 147.298C219.431 147.363 219.336 147.456 219.268 147.58C219.201 147.703 219.168 147.852 219.168 148.028H217.836C217.836 147.633 217.925 147.291 218.103 147.003C218.281 146.715 218.531 146.493 218.853 146.338C219.177 146.181 219.553 146.102 219.981 146.102C220.422 146.102 220.806 146.176 221.131 146.324C221.457 146.472 221.709 146.678 221.887 146.943C222.067 147.206 222.157 147.512 222.157 147.861C222.157 148.082 222.112 148.302 222.023 148.52C221.934 148.738 221.774 148.978 221.543 149.241C221.314 149.505 220.988 149.82 220.566 150.188L219.87 150.83V150.866H222.228V152H217.921ZM224.452 151.205L224.426 151.52C224.403 151.781 224.357 152.036 224.287 152.284C224.219 152.534 224.146 152.759 224.068 152.957C223.991 153.156 223.929 153.311 223.884 153.42H223.009C223.039 153.311 223.08 153.156 223.131 152.957C223.184 152.759 223.233 152.534 223.278 152.284C223.324 152.034 223.349 151.78 223.355 151.523L223.361 151.205H224.452ZM225.507 152V150.989L227.629 149.131C227.788 148.987 227.924 148.855 228.036 148.736C228.147 148.615 228.232 148.493 228.291 148.372C228.35 148.249 228.379 148.116 228.379 147.972C228.379 147.811 228.344 147.673 228.274 147.56C228.204 147.444 228.107 147.355 227.984 147.293C227.861 147.23 227.72 147.199 227.561 147.199C227.4 147.199 227.259 147.232 227.138 147.298C227.017 147.363 226.922 147.456 226.854 147.58C226.787 147.703 226.754 147.852 226.754 148.028H225.422C225.422 147.633 225.511 147.291 225.689 147.003C225.867 146.715 226.117 146.493 226.439 146.338C226.763 146.181 227.139 146.102 227.567 146.102C228.008 146.102 228.392 146.176 228.717 146.324C229.043 146.472 229.295 146.678 229.473 146.943C229.653 147.206 229.743 147.512 229.743 147.861C229.743 148.082 229.698 148.302 229.609 148.52C229.52 148.738 229.36 148.978 229.129 149.241C228.9 149.505 228.574 149.82 228.152 150.188L227.456 150.83V150.866H229.814V152H225.507ZM230.856 152L233.202 147.352V147.315H230.458V146.182H234.657V147.324L232.302 152H230.856ZM235.832 152L238.179 147.352V147.315H235.435V146.182H239.634V147.324L237.278 152H235.832ZM240.198 152.082C239.994 152.082 239.818 152.01 239.673 151.866C239.529 151.723 239.458 151.548 239.46 151.344C239.458 151.143 239.529 150.972 239.673 150.83C239.818 150.686 239.994 150.614 240.198 150.614C240.391 150.614 240.562 150.686 240.71 150.83C240.859 150.972 240.935 151.143 240.937 151.344C240.935 151.48 240.899 151.604 240.829 151.716C240.761 151.828 240.671 151.917 240.559 151.983C240.449 152.049 240.329 152.082 240.198 152.082ZM243.999 152.142C243.492 152.142 243.054 152.022 242.687 151.781C242.319 151.539 242.036 151.191 241.837 150.739C241.638 150.284 241.54 149.738 241.542 149.099C241.544 148.461 241.643 147.92 241.84 147.474C242.039 147.027 242.321 146.687 242.687 146.455C243.054 146.22 243.492 146.102 243.999 146.102C244.507 146.102 244.944 146.22 245.312 146.455C245.681 146.687 245.965 147.027 246.164 147.474C246.363 147.921 246.461 148.463 246.46 149.099C246.46 149.74 246.36 150.287 246.161 150.741C245.962 151.196 245.679 151.544 245.312 151.784C244.946 152.023 244.509 152.142 243.999 152.142ZM243.999 150.991C244.302 150.991 244.548 150.837 244.735 150.528C244.923 150.218 245.015 149.741 245.013 149.099C245.013 148.679 244.971 148.332 244.886 148.06C244.8 147.785 244.682 147.58 244.531 147.446C244.379 147.312 244.202 147.244 243.999 147.244C243.698 147.244 243.455 147.397 243.269 147.702C243.084 148.005 242.99 148.471 242.988 149.099C242.986 149.526 243.027 149.879 243.11 150.159C243.195 150.439 243.315 150.649 243.468 150.787C243.621 150.923 243.799 150.991 243.999 150.991ZM249.671 152.142C249.164 152.142 248.726 152.022 248.359 151.781C247.991 151.539 247.708 151.191 247.509 150.739C247.31 150.284 247.212 149.738 247.214 149.099C247.216 148.461 247.315 147.92 247.512 147.474C247.711 147.027 247.993 146.687 248.359 146.455C248.726 146.22 249.164 146.102 249.671 146.102C250.179 146.102 250.616 146.22 250.984 146.455C251.353 146.687 251.637 147.027 251.836 147.474C252.035 147.921 252.133 148.463 252.131 149.099C252.131 149.74 252.032 150.287 251.833 150.741C251.634 151.196 251.351 151.544 250.984 151.784C250.618 152.023 250.181 152.142 249.671 152.142ZM249.671 150.991C249.974 150.991 250.219 150.837 250.407 150.528C250.594 150.218 250.687 149.741 250.685 149.099C250.685 148.679 250.643 148.332 250.558 148.06C250.472 147.785 250.354 147.58 250.202 147.446C250.051 147.312 249.874 147.244 249.671 147.244C249.37 147.244 249.127 147.397 248.941 147.702C248.755 148.005 248.662 148.471 248.66 149.099C248.658 149.526 248.699 149.879 248.782 150.159C248.867 150.439 248.987 150.649 249.14 150.787C249.293 150.923 249.47 150.991 249.671 150.991Z" fill="#FFFDF7"/>
<g clip-path="url(#clip0_2846_1033)">
<path d="M235 141.853C238.785 141.853 241.854 138.784 241.854 134.999C241.854 131.213 238.785 128.145 235 128.145C231.214 128.145 228.146 131.213 228.146 134.999C228.146 138.784 231.214 141.853 235 141.853Z" fill="#0B53BF"/>
<path d="M236.233 130.008V130.89C237.994 131.421 239.284 133.058 239.284 134.999C239.284 136.939 237.994 138.576 236.233 139.107V139.989C238.478 139.441 240.14 137.415 240.14 134.999C240.14 132.582 238.478 130.556 236.233 130.008Z" fill="white"/>
<path d="M230.716 134.999C230.716 133.058 232.006 131.421 233.766 130.89V130.008C231.522 130.556 229.859 132.582 229.859 134.999C229.859 137.415 231.522 139.441 233.766 139.989V139.107C232.006 138.58 230.716 136.939 230.716 134.999Z" fill="white"/>
<path d="M236.842 135.954C236.842 134.202 234.097 134.922 234.097 133.953C234.097 133.606 234.375 133.384 234.906 133.384C235.54 133.384 235.759 133.692 235.827 134.108H236.701C236.623 133.328 236.176 132.835 235.429 132.689V132H234.572V132.664C233.754 132.768 233.24 133.245 233.24 133.953C233.24 135.714 235.99 135.054 235.99 136.005C235.99 136.365 235.643 136.605 235.056 136.605C234.289 136.605 234.037 136.267 233.942 135.8H233.09C233.145 136.654 233.672 137.189 234.572 137.322V137.997H235.429V137.331C236.307 137.217 236.842 136.706 236.842 135.954Z" fill="white"/>
</g>
<rect x="110" y="121" width="80" height="38" rx="10" fill="#585B68"/>
<path d="M142.859 152.142C142.351 152.142 141.914 152.022 141.546 151.781C141.179 151.539 140.896 151.191 140.697 150.739C140.498 150.284 140.399 149.738 140.401 149.099C140.403 148.461 140.503 147.92 140.7 147.474C140.898 147.027 141.181 146.687 141.546 146.455C141.914 146.22 142.351 146.102 142.859 146.102C143.366 146.102 143.804 146.22 144.171 146.455C144.54 146.687 144.825 147.027 145.023 147.474C145.222 147.921 145.321 148.463 145.319 149.099C145.319 149.74 145.219 150.287 145.021 150.741C144.822 151.196 144.539 151.544 144.171 151.784C143.806 152.023 143.368 152.142 142.859 152.142ZM142.859 150.991C143.162 150.991 143.407 150.837 143.594 150.528C143.782 150.218 143.875 149.741 143.873 149.099C143.873 148.679 143.83 148.332 143.745 148.06C143.66 147.785 143.541 147.58 143.39 147.446C143.238 147.312 143.061 147.244 142.859 147.244C142.558 147.244 142.314 147.397 142.129 147.702C141.943 148.005 141.849 148.471 141.847 149.099C141.845 149.526 141.886 149.879 141.969 150.159C142.055 150.439 142.174 150.649 142.327 150.787C142.481 150.923 142.658 150.991 142.859 150.991ZM146.667 152.082C146.462 152.082 146.287 152.01 146.141 151.866C145.997 151.723 145.926 151.548 145.928 151.344C145.926 151.143 145.997 150.972 146.141 150.83C146.287 150.686 146.462 150.614 146.667 150.614C146.86 150.614 147.031 150.686 147.178 150.83C147.328 150.972 147.404 151.143 147.406 151.344C147.404 151.48 147.368 151.604 147.298 151.716C147.229 151.828 147.139 151.917 147.028 151.983C146.918 152.049 146.798 152.082 146.667 152.082ZM150.468 152.142C149.96 152.142 149.523 152.022 149.156 151.781C148.788 151.539 148.505 151.191 148.306 150.739C148.107 150.284 148.009 149.738 148.011 149.099C148.013 148.461 148.112 147.92 148.309 147.474C148.508 147.027 148.79 146.687 149.156 146.455C149.523 146.22 149.96 146.102 150.468 146.102C150.976 146.102 151.413 146.22 151.781 146.455C152.15 146.687 152.434 147.027 152.633 147.474C152.832 147.921 152.93 148.463 152.928 149.099C152.928 149.74 152.829 150.287 152.63 150.741C152.431 151.196 152.148 151.544 151.781 151.784C151.415 152.023 150.978 152.142 150.468 152.142ZM150.468 150.991C150.771 150.991 151.016 150.837 151.204 150.528C151.391 150.218 151.484 149.741 151.482 149.099C151.482 148.679 151.44 148.332 151.354 148.06C151.269 147.785 151.151 147.58 150.999 147.446C150.848 147.312 150.671 147.244 150.468 147.244C150.167 147.244 149.924 147.397 149.738 147.702C149.552 148.005 149.459 148.471 149.457 149.099C149.455 149.526 149.496 149.879 149.579 150.159C149.664 150.439 149.783 150.649 149.937 150.787C150.09 150.923 150.267 150.991 150.468 150.991ZM156.14 152.142C155.632 152.142 155.195 152.022 154.827 151.781C154.46 151.539 154.177 151.191 153.978 150.739C153.779 150.284 153.681 149.738 153.683 149.099C153.684 148.461 153.784 147.92 153.981 147.474C154.18 147.027 154.462 146.687 154.827 146.455C155.195 146.22 155.632 146.102 156.14 146.102C156.647 146.102 157.085 146.22 157.452 146.455C157.822 146.687 158.106 147.027 158.305 147.474C158.504 147.921 158.602 148.463 158.6 149.099C158.6 149.74 158.501 150.287 158.302 150.741C158.103 151.196 157.82 151.544 157.452 151.784C157.087 152.023 156.649 152.142 156.14 152.142ZM156.14 150.991C156.443 150.991 156.688 150.837 156.876 150.528C157.063 150.218 157.156 149.741 157.154 149.099C157.154 148.679 157.112 148.332 157.026 148.06C156.941 147.785 156.823 147.58 156.671 147.446C156.52 147.312 156.343 147.244 156.14 147.244C155.839 147.244 155.595 147.397 155.41 147.702C155.224 148.005 155.13 148.471 155.129 149.099C155.127 149.526 155.167 149.879 155.251 150.159C155.336 150.439 155.455 150.649 155.609 150.787C155.762 150.923 155.939 150.991 156.14 150.991Z" fill="#FFFDF7"/>
<g clip-path="url(#clip1_2846_1033)">
<mask id="mask0_2846_1033" style="mask-type:luminance" maskUnits="userSpaceOnUse" x="143" y="128" width="14" height="14">
<path d="M157 128H143V142H157V128Z" fill="white"/>
</mask>
<g mask="url(#mask0_2846_1033)">
<path d="M150 142C153.866 142 157 138.866 157 135C157 131.134 153.866 128 150 128C146.134 128 143 131.134 143 135C143 138.866 146.134 142 150 142Z" fill="#0B53BF"/>
<path d="M151.488 136.667C151.182 136.789 150.849 136.859 150.53 136.859C149.897 136.859 149.301 136.59 149.016 135.941H150.407L150.678 135.284H148.854C148.845 135.194 148.841 135.099 148.841 135C148.841 134.901 148.845 134.806 148.854 134.716H150.91L151.182 134.059H149.016C149.301 133.41 149.897 133.141 150.53 133.141C150.849 133.141 151.182 133.211 151.488 133.333L151.768 132.668C151.392 132.471 150.967 132.375 150.543 132.375C149.518 132.375 148.483 132.948 148.108 134.059H147.437V134.716H147.974C147.966 134.808 147.962 134.903 147.962 135C147.962 135.097 147.966 135.192 147.974 135.284H147.437V135.941H148.108C148.483 137.052 149.518 137.625 150.543 137.625C150.967 137.625 151.392 137.529 151.768 137.332L151.488 136.667Z" fill="white" stroke="#0B53BF" stroke-width="0.03" stroke-miterlimit="10"/>
<path d="M145.625 134.999C145.625 133.017 146.942 131.346 148.74 130.804V129.902C146.447 130.462 144.75 132.532 144.75 134.999C144.75 137.467 146.447 139.536 148.74 140.096V139.195C146.942 138.657 145.625 136.981 145.625 134.999Z" fill="white" stroke="#0B53BF" stroke-width="0.03" stroke-miterlimit="10"/>
<path d="M151.26 129.902V130.804C153.058 131.346 154.375 133.017 154.375 134.999C154.375 136.981 153.058 138.652 151.26 139.195V140.096C153.552 139.536 155.25 137.467 155.25 134.999C155.25 132.532 153.552 130.462 151.26 129.902Z" fill="white" stroke="#0B53BF" stroke-width="0.03" stroke-miterlimit="10"/>
</g>
</g>
<rect x="25" y="121" width="80" height="38" rx="10" fill="#585B68"/>
<path d="M57.93 152L60.2766 147.352V147.315H57.5323V146.182H61.7312V147.324L59.3761 152H57.93ZM62.2958 152.082C62.0913 152.082 61.9161 152.01 61.7702 151.866C61.6263 151.723 61.5553 151.548 61.5572 151.344C61.5553 151.143 61.6263 150.972 61.7702 150.83C61.9161 150.686 62.0913 150.614 62.2958 150.614C62.489 150.614 62.6594 150.686 62.8072 150.83C62.9568 150.972 63.0326 151.143 63.0344 151.344C63.0326 151.48 62.9966 151.604 62.9265 151.716C62.8583 151.828 62.7683 151.917 62.6566 151.983C62.5468 152.049 62.4265 152.082 62.2958 152.082ZM66.006 146.102C66.3242 146.102 66.6282 146.154 66.918 146.259C67.2077 146.361 67.4663 146.525 67.6935 146.75C67.9208 146.973 68.0998 147.268 68.2305 147.634C68.3612 147.999 68.4265 148.445 68.4265 148.972C68.4284 149.456 68.3716 149.891 68.256 150.276C68.1405 150.658 67.9748 150.984 67.7589 151.253C67.5449 151.522 67.2873 151.727 66.9862 151.869C66.685 152.009 66.3488 152.08 65.9776 152.08C65.5685 152.08 65.2077 152.001 64.8952 151.844C64.5846 151.685 64.3356 151.471 64.1481 151.202C63.9625 150.933 63.8517 150.632 63.8157 150.298H65.1992C65.2428 150.491 65.3346 150.637 65.4748 150.736C65.6149 150.832 65.7826 150.881 65.9776 150.881C66.3337 150.881 66.5998 150.726 66.7759 150.418C66.9521 150.109 67.0401 149.689 67.0401 149.159H67.006C66.9246 149.333 66.8091 149.483 66.6594 149.608C66.5117 149.733 66.3403 149.829 66.1452 149.895C65.9502 149.961 65.7447 149.994 65.5288 149.994C65.1803 149.994 64.8725 149.915 64.6055 149.756C64.3403 149.597 64.132 149.378 63.9805 149.099C63.8308 148.821 63.7551 148.503 63.7532 148.145C63.7513 147.743 63.8451 147.389 64.0344 147.082C64.2238 146.774 64.488 146.533 64.8271 146.361C65.1661 146.187 65.5591 146.1 66.006 146.102ZM66.0146 147.182C65.8403 147.182 65.685 147.223 65.5487 147.304C65.4142 147.385 65.3081 147.495 65.2305 147.634C65.1528 147.772 65.1149 147.927 65.1168 148.099C65.1187 148.272 65.1576 148.427 65.2333 148.565C65.311 148.704 65.4161 148.813 65.5487 148.895C65.6831 148.976 65.8365 149.017 66.0089 149.017C66.1377 149.017 66.257 148.993 66.3668 148.946C66.4767 148.899 66.5723 148.833 66.6538 148.75C66.7352 148.665 66.7987 148.566 66.8441 148.455C66.8915 148.343 66.9142 148.223 66.9123 148.097C66.9104 147.928 66.8706 147.775 66.793 147.636C66.7153 147.498 66.6083 147.388 66.4719 147.307C66.3375 147.223 66.185 147.182 66.0146 147.182ZM71.8888 146.182V152H70.4854V147.494H70.4513L69.1502 148.29V147.074L70.5849 146.182H71.8888Z" fill="#FFFDF7"/>
<g clip-path="url(#clip2_2846_1033)">
<circle cx="64.65" cy="134.65" r="6.65" fill="#393939"/>
<g clip-path="url(#clip3_2846_1033)">
<path d="M67.941 136.42L66.8432 137.579C66.8193 137.605 66.7904 137.625 66.7583 137.638C66.7263 137.652 66.6916 137.659 66.6567 137.659H61.4526C61.4278 137.659 61.4035 137.652 61.3828 137.639C61.362 137.625 61.3457 137.606 61.3358 137.584C61.3259 137.561 61.3228 137.536 61.327 137.512C61.3313 137.488 61.3425 137.466 61.3595 137.448L62.4581 136.288C62.4819 136.263 62.5107 136.243 62.5426 136.229C62.5746 136.216 62.6091 136.209 62.644 136.208H67.8478C67.8726 136.208 67.8969 136.216 67.9177 136.229C67.9384 136.242 67.9547 136.262 67.9647 136.284C67.9745 136.306 67.9776 136.331 67.9734 136.355C67.9691 136.379 67.9579 136.402 67.941 136.42ZM66.8432 134.084C66.8193 134.059 66.7904 134.039 66.7583 134.025C66.7263 134.012 66.6916 134.005 66.6567 134.005H61.4526C61.4278 134.005 61.4035 134.012 61.3828 134.025C61.362 134.039 61.3457 134.058 61.3358 134.08C61.3259 134.103 61.3228 134.127 61.327 134.151C61.3313 134.176 61.3425 134.198 61.3595 134.216L62.4581 135.375C62.4819 135.401 62.5107 135.421 62.5426 135.434C62.5746 135.448 62.6091 135.455 62.644 135.455H67.8478C67.8726 135.455 67.8969 135.448 67.9177 135.435C67.9384 135.421 67.9547 135.402 67.9647 135.38C67.9745 135.357 67.9776 135.333 67.9734 135.308C67.9691 135.284 67.9579 135.262 67.941 135.244L66.8432 134.084ZM61.4526 133.251H66.6567C66.6916 133.251 66.7263 133.244 66.7583 133.231C66.7904 133.217 66.8193 133.197 66.8432 133.172L67.941 132.012C67.9579 131.994 67.9691 131.972 67.9734 131.948C67.9776 131.924 67.9745 131.899 67.9647 131.876C67.9547 131.854 67.9384 131.835 67.9177 131.821C67.8969 131.808 67.8726 131.801 67.8478 131.801H62.644C62.6091 131.801 62.5746 131.808 62.5426 131.822C62.5107 131.835 62.4819 131.855 62.4581 131.881L61.3597 133.04C61.3428 133.058 61.3316 133.08 61.3273 133.105C61.3231 133.129 61.3261 133.153 61.336 133.176C61.3458 133.198 61.3621 133.217 61.3829 133.231C61.4036 133.244 61.4278 133.251 61.4526 133.251Z" fill="white"/>
</g>
</g>
<rect x="25" y="169" width="250" height="30" rx="10" fill="url(#paint2_linear_2846_1033)"/>
<path d="M41.392 181.182V187H40.1989L37.8835 183.642H37.8466V187H36.4403V181.182H37.6506L39.9403 184.534H39.9886V181.182H41.392ZM44.3132 187.082C43.8549 187.082 43.4609 186.989 43.1314 186.801C42.8037 186.612 42.5509 186.348 42.3729 186.011C42.1967 185.672 42.1087 185.279 42.1087 184.832C42.1087 184.384 42.1967 183.991 42.3729 183.653C42.5509 183.314 42.8037 183.051 43.1314 182.864C43.4609 182.674 43.8549 182.58 44.3132 182.58C44.7715 182.58 45.1645 182.674 45.4922 182.864C45.8217 183.051 46.0746 183.314 46.2507 183.653C46.4287 183.991 46.5178 184.384 46.5178 184.832C46.5178 185.279 46.4287 185.672 46.2507 186.011C46.0746 186.348 45.8217 186.612 45.4922 186.801C45.1645 186.989 44.7715 187.082 44.3132 187.082ZM44.3217 186.034C44.4884 186.034 44.6295 185.983 44.745 185.881C44.8606 185.778 44.9486 185.636 45.0092 185.455C45.0717 185.273 45.103 185.062 45.103 184.824C45.103 184.581 45.0717 184.369 45.0092 184.188C44.9486 184.006 44.8606 183.864 44.745 183.761C44.6295 183.659 44.4884 183.608 44.3217 183.608C44.1494 183.608 44.0036 183.659 43.8842 183.761C43.7668 183.864 43.6768 184.006 43.6143 184.188C43.5537 184.369 43.5234 184.581 43.5234 184.824C43.5234 185.062 43.5537 185.273 43.6143 185.455C43.6768 185.636 43.7668 185.778 43.8842 185.881C44.0036 185.983 44.1494 186.034 44.3217 186.034ZM51.4112 182.636V183.659H48.6584V182.636H51.4112ZM49.2351 181.591H50.6243V185.628C50.6243 185.713 50.6375 185.782 50.6641 185.835C50.6925 185.886 50.7332 185.923 50.7862 185.946C50.8393 185.967 50.9027 185.977 50.9766 185.977C51.0296 185.977 51.0855 185.973 51.1442 185.963C51.2048 185.952 51.2502 185.942 51.2805 185.935L51.4908 186.938C51.4245 186.956 51.3307 186.98 51.2095 187.009C51.0902 187.037 50.9472 187.055 50.7805 187.062C50.4548 187.078 50.1754 187.04 49.9425 186.949C49.7114 186.856 49.5343 186.712 49.4112 186.517C49.29 186.322 49.2313 186.077 49.2351 185.781V181.591ZM52.12 187V182.636H53.4695V183.432H53.5149C53.5945 183.144 53.7242 182.93 53.9041 182.79C54.084 182.648 54.2933 182.577 54.532 182.577C54.5964 182.577 54.6626 182.581 54.7308 182.591C54.799 182.598 54.8625 182.611 54.9212 182.628V183.835C54.8549 183.812 54.7678 183.795 54.6598 183.781C54.5537 183.768 54.459 183.761 54.3757 183.761C54.2109 183.761 54.0623 183.798 53.9297 183.872C53.799 183.944 53.6958 184.045 53.62 184.176C53.5462 184.305 53.5092 184.456 53.5092 184.631V187H52.12ZM56.5533 187.074C56.2749 187.074 56.0277 187.027 55.8118 186.935C55.5978 186.84 55.4283 186.698 55.3033 186.509C55.1802 186.317 55.1186 186.078 55.1186 185.79C55.1186 185.547 55.1612 185.343 55.2464 185.176C55.3317 185.009 55.4491 184.874 55.5987 184.77C55.7483 184.666 55.9207 184.587 56.1158 184.534C56.3108 184.479 56.5192 184.442 56.7408 184.423C56.9889 184.401 57.1887 184.377 57.3402 184.352C57.4917 184.326 57.6016 184.289 57.6697 184.241C57.7398 184.192 57.7749 184.123 57.7749 184.034V184.02C57.7749 183.874 57.7247 183.761 57.6243 183.682C57.5239 183.602 57.3885 183.562 57.218 183.562C57.0343 183.562 56.8866 183.602 56.7749 183.682C56.6631 183.761 56.5921 183.871 56.5618 184.011L55.2805 183.966C55.3184 183.701 55.416 183.464 55.5732 183.256C55.7322 183.045 55.95 182.881 56.2266 182.761C56.505 182.64 56.8393 182.58 57.2294 182.58C57.5078 182.58 57.7644 182.613 57.9993 182.679C58.2341 182.743 58.4387 182.838 58.6129 182.963C58.7872 183.086 58.9216 183.238 59.0163 183.418C59.1129 183.598 59.1612 183.803 59.1612 184.034V187H57.8544V186.392H57.8203C57.7427 186.54 57.6432 186.665 57.522 186.767C57.4027 186.869 57.2616 186.946 57.0987 186.997C56.9377 187.048 56.7559 187.074 56.5533 187.074ZM56.9822 186.165C57.1319 186.165 57.2663 186.134 57.3857 186.074C57.5069 186.013 57.6035 185.93 57.6754 185.824C57.7474 185.716 57.7834 185.591 57.7834 185.449V185.034C57.7436 185.055 57.6953 185.074 57.6385 185.091C57.5836 185.108 57.523 185.124 57.4567 185.139C57.3904 185.154 57.3222 185.168 57.2521 185.179C57.1821 185.19 57.1148 185.201 57.0504 185.21C56.9197 185.231 56.808 185.263 56.7152 185.307C56.6243 185.35 56.5542 185.407 56.505 185.477C56.4576 185.545 56.4339 185.627 56.4339 185.722C56.4339 185.866 56.4851 185.975 56.5874 186.051C56.6915 186.127 56.8232 186.165 56.9822 186.165ZM61.3999 184.511V187H60.0107V182.636H61.3317V183.438H61.38C61.4766 183.17 61.6413 182.961 61.8743 182.81C62.1072 182.656 62.3847 182.58 62.7067 182.58C63.0135 182.58 63.2796 182.649 63.505 182.787C63.7322 182.923 63.9084 183.115 64.0334 183.361C64.1603 183.605 64.2228 183.891 64.2209 184.219V187H62.8317V184.491C62.8336 184.249 62.772 184.06 62.647 183.923C62.5239 183.787 62.3525 183.719 62.1328 183.719C61.987 183.719 61.8582 183.751 61.7464 183.815C61.6366 183.878 61.5514 183.968 61.4908 184.085C61.4321 184.203 61.4018 184.345 61.3999 184.511ZM68.8906 183.969L67.6151 184.003C67.6018 183.912 67.5658 183.831 67.5071 183.761C67.4484 183.689 67.3717 183.634 67.277 183.594C67.1842 183.552 67.0762 183.531 66.9531 183.531C66.7921 183.531 66.6548 183.563 66.5412 183.628C66.4295 183.692 66.3745 183.779 66.3764 183.889C66.3745 183.974 66.4086 184.048 66.4787 184.111C66.5507 184.173 66.6785 184.223 66.8622 184.261L67.7031 184.42C68.1387 184.504 68.4626 184.642 68.6747 184.835C68.8887 185.028 68.9967 185.284 68.9986 185.602C68.9967 185.902 68.9077 186.162 68.7315 186.384C68.5573 186.605 68.3187 186.777 68.0156 186.901C67.7126 187.022 67.366 187.082 66.9759 187.082C66.3527 187.082 65.8613 186.955 65.5014 186.699C65.1435 186.441 64.9389 186.097 64.8878 185.665L66.2599 185.631C66.2902 185.79 66.3688 185.911 66.4957 185.994C66.6226 186.078 66.7846 186.119 66.9815 186.119C67.1596 186.119 67.3045 186.086 67.4162 186.02C67.5279 185.954 67.5848 185.866 67.5866 185.756C67.5848 185.657 67.5412 185.579 67.456 185.52C67.3707 185.459 67.2372 185.412 67.0554 185.378L66.294 185.233C65.8565 185.153 65.5308 185.007 65.3168 184.793C65.1027 184.577 64.9967 184.302 64.9986 183.969C64.9967 183.677 65.0743 183.428 65.2315 183.222C65.3887 183.013 65.6122 182.854 65.902 182.744C66.1918 182.634 66.5336 182.58 66.9276 182.58C67.5185 182.58 67.9844 182.704 68.3253 182.952C68.6662 183.198 68.8546 183.537 68.8906 183.969ZM70.9126 187.074C70.6342 187.074 70.3871 187.027 70.1712 186.935C69.9571 186.84 69.7876 186.698 69.6626 186.509C69.5395 186.317 69.478 186.078 69.478 185.79C69.478 185.547 69.5206 185.343 69.6058 185.176C69.6911 185.009 69.8085 184.874 69.9581 184.77C70.1077 184.666 70.2801 184.587 70.4751 184.534C70.6702 184.479 70.8786 184.442 71.1001 184.423C71.3482 184.401 71.5481 184.377 71.6996 184.352C71.8511 184.326 71.9609 184.289 72.0291 184.241C72.0992 184.192 72.1342 184.123 72.1342 184.034V184.02C72.1342 183.874 72.084 183.761 71.9837 183.682C71.8833 183.602 71.7479 183.562 71.5774 183.562C71.3937 183.562 71.246 183.602 71.1342 183.682C71.0225 183.761 70.9515 183.871 70.9212 184.011L69.6399 183.966C69.6778 183.701 69.7753 183.464 69.9325 183.256C70.0916 183.045 70.3094 182.881 70.5859 182.761C70.8643 182.64 71.1986 182.58 71.5888 182.58C71.8672 182.58 72.1238 182.613 72.3587 182.679C72.5935 182.743 72.7981 182.838 72.9723 182.963C73.1465 183.086 73.281 183.238 73.3757 183.418C73.4723 183.598 73.5206 183.803 73.5206 184.034V187H72.2138V186.392H72.1797C72.102 186.54 72.0026 186.665 71.8814 186.767C71.7621 186.869 71.621 186.946 71.4581 186.997C71.2971 187.048 71.1153 187.074 70.9126 187.074ZM71.3416 186.165C71.4912 186.165 71.6257 186.134 71.745 186.074C71.8662 186.013 71.9628 185.93 72.0348 185.824C72.1068 185.716 72.1428 185.591 72.1428 185.449V185.034C72.103 185.055 72.0547 185.074 71.9979 185.091C71.9429 185.108 71.8823 185.124 71.8161 185.139C71.7498 185.154 71.6816 185.168 71.6115 185.179C71.5414 185.19 71.4742 185.201 71.4098 185.21C71.2791 185.231 71.1674 185.263 71.0746 185.307C70.9837 185.35 70.9136 185.407 70.8643 185.477C70.817 185.545 70.7933 185.627 70.7933 185.722C70.7933 185.866 70.8445 185.975 70.9467 186.051C71.0509 186.127 71.1825 186.165 71.3416 186.165ZM76.407 187.082C75.9467 187.082 75.5518 186.988 75.2223 186.798C74.8946 186.609 74.6428 186.346 74.4666 186.009C74.2905 185.67 74.2024 185.277 74.2024 184.832C74.2024 184.385 74.2905 183.993 74.4666 183.656C74.6446 183.317 74.8975 183.053 75.2251 182.864C75.5547 182.674 75.9477 182.58 76.4041 182.58C76.8075 182.58 77.1589 182.652 77.4581 182.798C77.7592 182.944 77.9941 183.151 78.1626 183.418C78.3331 183.683 78.4231 183.994 78.4325 184.352H77.1342C77.1077 184.129 77.032 183.954 76.907 183.827C76.7839 183.7 76.6229 183.636 76.424 183.636C76.263 183.636 76.1219 183.682 76.0007 183.773C75.8795 183.862 75.7848 183.994 75.7166 184.17C75.6503 184.345 75.6172 184.561 75.6172 184.818C75.6172 185.076 75.6503 185.294 75.7166 185.472C75.7848 185.648 75.8795 185.781 76.0007 185.872C76.1219 185.961 76.263 186.006 76.424 186.006C76.5528 186.006 76.6664 185.978 76.7649 185.923C76.8653 185.868 76.9477 185.788 77.0121 185.682C77.0765 185.574 77.1172 185.443 77.1342 185.29H78.4325C78.4193 185.65 78.3293 185.964 78.1626 186.233C77.9979 186.502 77.7659 186.711 77.4666 186.861C77.1693 187.009 76.8161 187.082 76.407 187.082ZM81.6065 182.636V183.659H78.8537V182.636H81.6065ZM79.4304 181.591H80.8196V185.628C80.8196 185.713 80.8329 185.782 80.8594 185.835C80.8878 185.886 80.9285 185.923 80.9815 185.946C81.0346 185.967 81.098 185.977 81.1719 185.977C81.2249 185.977 81.2808 185.973 81.3395 185.963C81.4001 185.952 81.4455 185.942 81.4759 185.935L81.6861 186.938C81.6198 186.956 81.526 186.98 81.4048 187.009C81.2855 187.037 81.1425 187.055 80.9759 187.062C80.6501 187.078 80.3707 187.04 80.1378 186.949C79.9067 186.856 79.7296 186.712 79.6065 186.517C79.4853 186.322 79.4266 186.077 79.4304 185.781V181.591ZM82.3153 187V182.636H83.7045V187H82.3153ZM83.0114 182.128C82.8163 182.128 82.6487 182.063 82.5085 181.935C82.3684 181.804 82.2983 181.647 82.2983 181.463C82.2983 181.281 82.3684 181.126 82.5085 180.997C82.6487 180.866 82.8163 180.801 83.0114 180.801C83.2083 180.801 83.3759 180.866 83.5142 180.997C83.6544 181.126 83.7244 181.281 83.7244 181.463C83.7244 181.647 83.6544 181.804 83.5142 181.935C83.3759 182.063 83.2083 182.128 83.0114 182.128ZM86.6257 187.082C86.1674 187.082 85.7734 186.989 85.4439 186.801C85.1162 186.612 84.8634 186.348 84.6854 186.011C84.5092 185.672 84.4212 185.279 84.4212 184.832C84.4212 184.384 84.5092 183.991 84.6854 183.653C84.8634 183.314 85.1162 183.051 85.4439 182.864C85.7734 182.674 86.1674 182.58 86.6257 182.58C87.084 182.58 87.477 182.674 87.8047 182.864C88.1342 183.051 88.3871 183.314 88.5632 183.653C88.7412 183.991 88.8303 184.384 88.8303 184.832C88.8303 185.279 88.7412 185.672 88.5632 186.011C88.3871 186.348 88.1342 186.612 87.8047 186.801C87.477 186.989 87.084 187.082 86.6257 187.082ZM86.6342 186.034C86.8009 186.034 86.942 185.983 87.0575 185.881C87.1731 185.778 87.2611 185.636 87.3217 185.455C87.3842 185.273 87.4155 185.062 87.4155 184.824C87.4155 184.581 87.3842 184.369 87.3217 184.188C87.2611 184.006 87.1731 183.864 87.0575 183.761C86.942 183.659 86.8009 183.608 86.6342 183.608C86.4619 183.608 86.3161 183.659 86.1967 183.761C86.0793 183.864 85.9893 184.006 85.9268 184.188C85.8662 184.369 85.8359 184.581 85.8359 184.824C85.8359 185.062 85.8662 185.273 85.9268 185.455C85.9893 185.636 86.0793 185.778 86.1967 185.881C86.3161 185.983 86.4619 186.034 86.6342 186.034ZM90.9311 184.511V187H89.5419V182.636H90.8629V183.438H90.9112C91.0078 183.17 91.1726 182.961 91.4055 182.81C91.6385 182.656 91.916 182.58 92.2379 182.58C92.5447 182.58 92.8108 182.649 93.0362 182.787C93.2635 182.923 93.4396 183.115 93.5646 183.361C93.6915 183.605 93.754 183.891 93.7521 184.219V187H92.3629V184.491C92.3648 184.249 92.3033 184.06 92.1783 183.923C92.0552 183.787 91.8838 183.719 91.6641 183.719C91.5182 183.719 91.3894 183.751 91.2777 183.815C91.1679 183.878 91.0826 183.968 91.022 184.085C90.9633 184.203 90.933 184.345 90.9311 184.511ZM98.4219 183.969L97.1463 184.003C97.133 183.912 97.0971 183.831 97.0384 183.761C96.9796 183.689 96.9029 183.634 96.8082 183.594C96.7154 183.552 96.6075 183.531 96.4844 183.531C96.3234 183.531 96.1861 183.563 96.0724 183.628C95.9607 183.692 95.9058 183.779 95.9077 183.889C95.9058 183.974 95.9399 184.048 96.0099 184.111C96.0819 184.173 96.2098 184.223 96.3935 184.261L97.2344 184.42C97.67 184.504 97.9938 184.642 98.206 184.835C98.42 185.028 98.5279 185.284 98.5298 185.602C98.5279 185.902 98.4389 186.162 98.2628 186.384C98.0885 186.605 97.8499 186.777 97.5469 186.901C97.2438 187.022 96.8973 187.082 96.5071 187.082C95.884 187.082 95.3925 186.955 95.0327 186.699C94.6747 186.441 94.4702 186.097 94.419 185.665L95.7912 185.631C95.8215 185.79 95.9001 185.911 96.027 185.994C96.1539 186.078 96.3158 186.119 96.5128 186.119C96.6908 186.119 96.8357 186.086 96.9474 186.02C97.0592 185.954 97.116 185.866 97.1179 185.756C97.116 185.657 97.0724 185.579 96.9872 185.52C96.902 185.459 96.7685 185.412 96.5866 185.378L95.8253 185.233C95.3878 185.153 95.062 185.007 94.848 184.793C94.634 184.577 94.5279 184.302 94.5298 183.969C94.5279 183.677 94.6056 183.428 94.7628 183.222C94.92 183.013 95.1435 182.854 95.4332 182.744C95.723 182.634 96.0649 182.58 96.4588 182.58C97.0497 182.58 97.5156 182.704 97.8565 182.952C98.1974 183.198 98.3859 183.537 98.4219 183.969Z" fill="#585B68"/>
<defs>
<linearGradient id="paint0_linear_2846_1033" x1="150" y1="0" x2="150" y2="249" gradientUnits="userSpaceOnUse">
<stop offset="0.355769" stop-color="#929292"/>
<stop offset="0.7" stop-color="#585B68"/>
</linearGradient>
<linearGradient id="paint1_linear_2846_1033" x1="150" y1="81.3516" x2="150" y2="111.352" gradientUnits="userSpaceOnUse">
<stop stop-color="#ECECEC"/>
<stop offset="1" stop-color="#D1D0D0"/>
</linearGradient>
<linearGradient id="paint2_linear_2846_1033" x1="150" y1="169" x2="150" y2="199" gradientUnits="userSpaceOnUse">
<stop stop-color="#ECECEC"/>
<stop offset="1" stop-color="#D1D0D0"/>
</linearGradient>
<clipPath id="clip0_2846_1033">
<rect width="14" height="14" fill="white" transform="translate(228 128)"/>
</clipPath>
<clipPath id="clip1_2846_1033">
<rect width="14" height="14" fill="white" transform="translate(143 128)"/>
</clipPath>
<clipPath id="clip2_2846_1033">
<rect width="14" height="14" fill="white" transform="translate(58 128)"/>
</clipPath>
<clipPath id="clip3_2846_1033">
<rect width="6.65" height="5.85833" fill="white" transform="translate(61.3252 131.801)"/>
</clipPath>
</defs>
</svg>
