<svg width="300" height="214" viewBox="0 0 300 214" fill="none" xmlns="http://www.w3.org/2000/svg">
<rect width="300" height="214" rx="10" fill="url(#paint0_linear_2814_168)"/>
<path fill-rule="evenodd" clip-rule="evenodd" d="M107.086 24.1523H107.278C108.628 24.1523 109.9 24.6447 111.095 25.6295C111.211 25.7526 111.403 25.9578 111.712 26.286C112.097 25.8757 112.406 25.5885 112.56 25.4654C113.678 24.5627 114.912 24.1523 116.222 24.1523H116.338C117.726 24.1523 118.998 24.6447 120.154 25.6295C120.501 25.9578 120.771 26.245 120.964 26.4912C121.851 27.7221 122.313 29.0762 122.313 30.4713V46.638C122.313 46.6791 122.313 46.6791 122.275 46.6791H119.345C119.306 46.6791 119.306 46.6791 119.306 46.638V30.5534C119.306 29.4455 118.844 28.5838 117.918 27.8863C117.417 27.517 116.839 27.3529 116.261 27.3529C115.297 27.3529 114.526 27.7632 113.871 28.6249C113.447 29.1993 113.215 29.8148 113.215 30.4713V46.6791H110.247C110.208 46.6791 110.208 46.6791 110.208 46.638V30.4713C110.208 29.6096 109.861 28.789 109.129 28.0914C108.551 27.5991 107.895 27.3529 107.201 27.3529C106.16 27.3529 105.312 27.8042 104.657 28.789C104.31 29.3634 104.156 29.9379 104.156 30.5534V46.638C104.156 46.6791 104.156 46.6791 104.156 46.6791H101.149C101.149 46.6791 101.11 46.6791 101.11 46.638V30.9227C101.11 29.5686 101.342 28.4607 101.843 27.558C101.997 27.1887 102.305 26.7374 102.768 26.1629C103.346 25.5474 103.77 25.1782 104.079 25.0551C105.043 24.4396 106.045 24.1523 107.086 24.1523ZM125.667 24.1523H128.674H128.713V35.2311C128.713 36.1338 128.867 36.7903 129.214 37.2006C129.522 37.6109 129.792 37.8161 130.023 37.9392C130.447 38.1854 131.411 38.5547 132.915 39.006C133.647 39.2522 134.303 39.4574 134.765 39.7036V24.1523C134.765 24.1523 134.765 24.1523 134.804 24.1523H137.772V45.2429C137.772 46.7611 137.271 48.1972 136.23 49.4692C135.69 50.0437 135.266 50.413 134.919 50.6181C133.917 51.2747 132.876 51.5619 131.797 51.5619H131.643C130.139 51.5619 128.751 50.9874 127.518 49.7565C127.094 49.3051 126.785 48.8948 126.554 48.4845C125.937 47.4587 125.667 46.3508 125.667 45.2019V45.1609V45.1198H128.674L128.713 45.1609C128.713 46.1867 129.098 47.0483 129.908 47.7459C130.486 48.1562 131.064 48.3614 131.72 48.3614H131.758C132.683 48.3614 133.493 47.9511 134.148 47.0894C134.572 46.4739 134.765 45.8584 134.765 45.2429C134.765 44.053 134.341 43.1913 133.454 42.6989C133.069 42.4117 132.105 42.0424 130.525 41.5911C129.484 41.2628 128.674 40.9345 128.096 40.5652C127.132 39.9908 126.438 39.1291 126.014 37.9802C125.821 37.2827 125.706 36.7903 125.706 36.5031C125.706 36.3389 125.667 36.0517 125.667 35.7234V24.1523ZM141.01 24.1523H143.979C144.017 24.1523 144.017 24.1523 144.017 24.1523V35.4772C144.75 35.149 145.791 34.7797 147.101 34.4104C147.988 34.1232 148.605 33.836 148.952 33.5487C149.453 33.2615 149.761 32.7691 149.954 32.1536C150.031 31.9074 150.07 31.5381 150.07 31.0047V24.1523C150.07 24.1523 150.07 24.1523 150.108 24.1523H153.038C153.077 24.1523 153.077 24.1523 153.077 24.1523V31.5381C153.077 32.9743 152.73 34.2052 151.959 35.2311C151.612 35.6414 151.303 35.9286 151.149 36.0107C151.034 36.0927 150.995 36.1338 150.956 36.1338V36.1748C151.496 36.7082 151.766 36.9954 151.843 37.1185C152.421 37.9392 152.807 38.8419 152.961 39.7856C153.038 40.1549 153.077 40.5242 153.077 40.8525V46.638C153.077 46.6791 153.077 46.6791 153.038 46.6791H150.108C150.07 46.6791 150.07 46.6791 150.07 46.638V41.2628C150.07 40.237 149.8 39.4574 149.222 38.8419C148.913 38.4316 148.374 38.1033 147.603 37.8571L147.101 37.734C146.446 37.9392 145.906 38.1443 145.482 38.3905C144.865 38.7188 144.441 39.1701 144.21 39.7036C144.094 40.0318 144.017 40.5242 144.017 41.1807V46.638C144.017 46.6791 144.017 46.6791 143.979 46.6791H141.01C141.01 46.6791 140.972 46.6791 140.972 46.638V24.1523H141.01ZM162.29 24.1523H162.445C163.832 24.1523 165.105 24.6447 166.222 25.6295C166.647 25.9578 166.916 26.286 167.071 26.4912C167.957 27.7221 168.42 29.0762 168.42 30.4713V34.4104C168.42 35.8876 167.957 37.2006 167.032 38.4726C166.647 38.965 166.3 39.2932 165.991 39.5394C164.873 40.4011 163.678 40.8114 162.367 40.8114C160.748 40.8114 159.36 40.196 158.127 38.965C157.626 38.4316 157.279 37.9392 157.047 37.4058C156.546 36.5031 156.315 35.3952 156.315 34.0821V30.9227C156.315 29.5686 156.546 28.4197 157.047 27.517C157.24 27.1067 157.549 26.6553 158.011 26.0809C158.551 25.5474 158.975 25.1782 159.245 25.0551C160.209 24.4396 161.249 24.1523 162.29 24.1523ZM159.36 30.5123V34.4104C159.36 35.3952 159.746 36.2569 160.556 36.9544C161.095 37.3647 161.674 37.6109 162.252 37.6109H162.445C163.293 37.6109 164.064 37.2006 164.719 36.38C165.182 35.7645 165.413 35.108 165.413 34.4104V30.5123C165.413 29.6096 165.066 28.789 164.334 28.0914C163.755 27.5991 163.1 27.3529 162.406 27.3529H162.367C161.365 27.3529 160.517 27.8042 159.862 28.789C159.515 29.3634 159.36 29.9379 159.36 30.5123ZM156.354 43.4785H168.381C168.42 43.4785 168.42 43.4785 168.42 43.5196V46.638C168.42 46.6791 168.42 46.6791 168.381 46.6791H156.354C156.315 46.6791 156.315 46.6791 156.315 46.638V43.5196L156.354 43.4785ZM177.903 46.6791C176.593 46.6791 175.359 46.2277 174.241 45.325C173.933 45.0788 173.624 44.7505 173.277 44.2992C172.391 43.1503 171.928 41.6731 171.928 39.9498V24.1523C171.928 24.1523 171.928 24.1523 171.967 24.1523H174.935H174.974V25.4654C174.974 26.0398 175.012 26.4091 175.089 26.6553C175.243 27.2708 175.59 27.7632 176.091 28.0914C176.4 28.2966 176.824 28.5428 177.287 28.7069L179.985 29.5276C180.833 29.8558 181.566 30.2251 182.144 30.6765C182.375 30.8816 182.645 31.1689 182.992 31.5381C183.686 32.5229 184.033 33.7539 184.033 35.149V40.3191C184.033 41.4269 183.725 42.4938 183.185 43.5196C183.031 43.8478 182.684 44.2992 182.144 44.9147C180.91 46.1046 179.561 46.6791 178.058 46.6791H177.903ZM174.974 40.278C174.974 40.9345 175.166 41.55 175.552 42.1245C176.207 43.0272 177.017 43.4785 177.942 43.4785H178.019C178.636 43.4785 179.214 43.2734 179.754 42.8631C180.602 42.1245 181.026 41.2628 181.026 40.278V35.6824C181.026 35.0259 180.949 34.5335 180.795 34.2052C180.525 33.5487 179.985 33.0563 179.137 32.6871C178.751 32.4819 178.366 32.3588 177.98 32.2767C176.516 31.8254 175.513 31.4561 174.974 31.2099V40.278ZM192.977 24.1523H193.092C194.48 24.1523 195.752 24.6447 196.909 25.6295C197.294 25.9578 197.564 26.286 197.718 26.4912C198.644 27.7221 199.068 29.0762 199.068 30.4713V34.4104C199.068 35.8876 198.605 37.2006 197.718 38.4726C197.294 38.965 196.947 39.2932 196.639 39.5394C195.521 40.4011 194.326 40.8114 193.015 40.8114C191.435 40.8114 190.008 40.196 188.775 38.965C188.312 38.4316 187.927 37.9392 187.695 37.4058C187.233 36.5031 186.963 35.3952 186.963 34.0821V30.9227C186.963 29.5686 187.233 28.4197 187.695 27.517C187.888 27.1067 188.196 26.6553 188.659 26.0809C189.199 25.5474 189.623 25.1782 189.893 25.0551C190.856 24.4396 191.897 24.1523 192.977 24.1523ZM190.008 30.5123V34.4104C190.008 35.3952 190.432 36.2569 191.203 36.9544C191.782 37.3647 192.321 37.6109 192.9 37.6109H193.092C193.979 37.6109 194.711 37.2006 195.405 36.38C195.829 35.7645 196.061 35.108 196.061 34.4104V30.5123C196.061 29.6096 195.714 28.789 195.02 28.0914C194.403 27.5991 193.748 27.3529 193.054 27.3529H193.015C192.013 27.3529 191.203 27.8042 190.509 28.789C190.201 29.3634 190.008 29.9379 190.008 30.5123ZM187.001 43.4785H199.029C199.068 43.4785 199.068 43.4785 199.068 43.5196V46.638C199.068 46.6791 199.068 46.6791 199.029 46.6791H187.001C187.001 46.6791 186.963 46.6791 186.963 46.638V43.5196L187.001 43.4785Z" fill="#FFFDF7"/>
<path fill-rule="evenodd" clip-rule="evenodd" d="M162.407 24.0391C165.722 24.0391 168.46 26.9524 168.46 30.5222V34.5023C168.46 38.0721 165.722 40.9444 162.407 40.9444C159.053 40.9444 156.315 38.0721 156.315 34.5023V30.5222C156.315 26.9524 159.053 24.0391 162.407 24.0391Z" fill="#FFFDF7"/>
<path fill-rule="evenodd" clip-rule="evenodd" d="M193.053 24C196.369 24 199.106 26.9133 199.106 30.4831V34.4632C199.106 38.033 196.369 40.9053 193.053 40.9053C189.699 40.9053 186.962 38.033 186.962 34.4632V30.4831C186.962 26.9133 189.699 24 193.053 24Z" fill="#FFFDF7"/>
<circle cx="156" cy="85" r="15" fill="#117435"/>
<path d="M163.41 77.7184C163.913 78.084 164.025 78.7872 163.66 79.2899L154.66 91.6649C154.466 91.9321 154.167 92.0973 153.837 92.1254C153.507 92.1536 153.187 92.0305 152.955 91.7985L148.455 87.2985C148.015 86.859 148.015 86.1454 148.455 85.7059C148.894 85.2665 149.608 85.2665 150.047 85.7059L153.616 89.2743L161.842 77.9645C162.208 77.4618 162.911 77.3493 163.414 77.7149L163.41 77.7184Z" fill="white"/>
<g filter="url(#filter0_d_2814_168)">
<rect x="27" y="118" width="250" height="30" rx="10" fill="url(#paint1_linear_2814_168)"/>
</g>
<path d="M132.152 132.362H130.376C130.353 132.18 130.304 132.015 130.231 131.869C130.157 131.722 130.06 131.596 129.94 131.492C129.819 131.388 129.676 131.309 129.51 131.254C129.347 131.197 129.165 131.169 128.967 131.169C128.614 131.169 128.31 131.255 128.054 131.428C127.801 131.601 127.605 131.851 127.468 132.178C127.333 132.504 127.266 132.9 127.266 133.364C127.266 133.847 127.334 134.251 127.472 134.578C127.611 134.902 127.807 135.147 128.058 135.313C128.311 135.477 128.61 135.558 128.956 135.558C129.15 135.558 129.326 135.533 129.485 135.484C129.646 135.434 129.787 135.362 129.908 135.267C130.031 135.17 130.131 135.053 130.21 134.915C130.29 134.776 130.346 134.618 130.376 134.443L132.152 134.454C132.121 134.776 132.028 135.093 131.871 135.406C131.718 135.718 131.506 136.003 131.236 136.261C130.966 136.517 130.637 136.721 130.249 136.872C129.863 137.024 129.42 137.099 128.92 137.099C128.262 137.099 127.673 136.955 127.152 136.666C126.634 136.375 126.224 135.951 125.923 135.395C125.623 134.839 125.472 134.161 125.472 133.364C125.472 132.563 125.625 131.885 125.93 131.329C126.236 130.772 126.649 130.35 127.17 130.061C127.691 129.772 128.274 129.628 128.92 129.628C129.361 129.628 129.768 129.689 130.142 129.812C130.516 129.933 130.845 130.111 131.129 130.345C131.413 130.577 131.644 130.862 131.822 131.201C131.999 131.54 132.109 131.927 132.152 132.362ZM135.704 137.103C135.131 137.103 134.639 136.986 134.227 136.751C133.817 136.515 133.501 136.186 133.279 135.764C133.058 135.34 132.948 134.849 132.948 134.29C132.948 133.729 133.058 133.238 133.279 132.817C133.501 132.393 133.817 132.064 134.227 131.83C134.639 131.593 135.131 131.474 135.704 131.474C136.277 131.474 136.768 131.593 137.178 131.83C137.59 132.064 137.906 132.393 138.126 132.817C138.348 133.238 138.46 133.729 138.46 134.29C138.46 134.849 138.348 135.34 138.126 135.764C137.906 136.186 137.59 136.515 137.178 136.751C136.768 136.986 136.277 137.103 135.704 137.103ZM135.715 135.793C135.923 135.793 136.099 135.729 136.244 135.601C136.388 135.473 136.498 135.295 136.574 135.068C136.652 134.841 136.691 134.578 136.691 134.28C136.691 133.977 136.652 133.712 136.574 133.484C136.498 133.257 136.388 133.08 136.244 132.952C136.099 132.824 135.923 132.76 135.715 132.76C135.499 132.76 135.317 132.824 135.168 132.952C135.021 133.08 134.909 133.257 134.83 133.484C134.755 133.712 134.717 133.977 134.717 134.28C134.717 134.578 134.755 134.841 134.83 135.068C134.909 135.295 135.021 135.473 135.168 135.601C135.317 135.729 135.499 135.793 135.715 135.793ZM141.086 133.889V137H139.349V131.545H141.001V132.547H141.061C141.182 132.213 141.388 131.951 141.679 131.762C141.97 131.57 142.317 131.474 142.719 131.474C143.103 131.474 143.435 131.561 143.717 131.734C144.001 131.904 144.221 132.143 144.378 132.451C144.536 132.756 144.614 133.114 144.612 133.523V137H142.876V133.864C142.878 133.561 142.801 133.325 142.645 133.154C142.491 132.984 142.277 132.898 142.002 132.898C141.82 132.898 141.659 132.939 141.519 133.019C141.382 133.097 141.275 133.21 141.199 133.357C141.126 133.503 141.088 133.681 141.086 133.889ZM147.424 133.889V137H145.687V131.545H147.338V132.547H147.399C147.52 132.213 147.725 131.951 148.017 131.762C148.308 131.57 148.655 131.474 149.057 131.474C149.441 131.474 149.773 131.561 150.055 131.734C150.339 131.904 150.559 132.143 150.716 132.451C150.874 132.756 150.952 133.114 150.95 133.523V137H149.213V133.864C149.216 133.561 149.139 133.325 148.983 133.154C148.829 132.984 148.614 132.898 148.34 132.898C148.158 132.898 147.997 132.939 147.857 133.019C147.72 133.097 147.613 133.21 147.537 133.357C147.464 133.503 147.426 133.681 147.424 133.889ZM154.575 137.103C154.004 137.103 153.512 136.991 153.097 136.766C152.686 136.538 152.368 136.215 152.146 135.796C151.926 135.375 151.816 134.874 151.816 134.294C151.816 133.731 151.927 133.238 152.149 132.817C152.372 132.393 152.686 132.064 153.09 131.83C153.495 131.593 153.972 131.474 154.521 131.474C154.91 131.474 155.265 131.535 155.587 131.656C155.909 131.776 156.187 131.955 156.421 132.192C156.656 132.429 156.838 132.721 156.968 133.069C157.098 133.415 157.164 133.811 157.164 134.259V134.692H152.423V133.683H155.548C155.545 133.499 155.502 133.334 155.416 133.19C155.331 133.045 155.214 132.933 155.065 132.852C154.918 132.769 154.749 132.728 154.557 132.728C154.363 132.728 154.189 132.772 154.035 132.859C153.881 132.945 153.759 133.062 153.669 133.211C153.579 133.358 153.532 133.525 153.527 133.712V134.738C153.527 134.96 153.571 135.156 153.659 135.324C153.746 135.49 153.87 135.619 154.031 135.711C154.192 135.803 154.384 135.849 154.607 135.849C154.761 135.849 154.9 135.828 155.026 135.786C155.151 135.743 155.259 135.68 155.349 135.597C155.439 135.514 155.506 135.413 155.551 135.292L157.146 135.338C157.079 135.696 156.934 136.007 156.709 136.272C156.486 136.535 156.194 136.74 155.832 136.886C155.47 137.031 155.051 137.103 154.575 137.103ZM160.597 137.103C160.021 137.103 159.528 136.985 159.116 136.748C158.706 136.511 158.391 136.182 158.171 135.761C157.951 135.337 157.841 134.847 157.841 134.29C157.841 133.732 157.951 133.242 158.171 132.82C158.394 132.397 158.71 132.066 159.119 131.83C159.531 131.593 160.022 131.474 160.593 131.474C161.097 131.474 161.536 131.566 161.911 131.748C162.287 131.93 162.58 132.188 162.791 132.522C163.004 132.853 163.117 133.243 163.129 133.69H161.506C161.473 133.411 161.378 133.192 161.222 133.033C161.068 132.875 160.866 132.795 160.618 132.795C160.417 132.795 160.24 132.852 160.089 132.966C159.937 133.077 159.819 133.243 159.734 133.463C159.651 133.681 159.609 133.951 159.609 134.273C159.609 134.595 159.651 134.867 159.734 135.089C159.819 135.31 159.937 135.477 160.089 135.59C160.24 135.701 160.417 135.757 160.618 135.757C160.779 135.757 160.921 135.723 161.044 135.654C161.17 135.585 161.272 135.485 161.353 135.352C161.433 135.217 161.484 135.054 161.506 134.862H163.129C163.112 135.312 163 135.705 162.791 136.041C162.585 136.377 162.295 136.639 161.921 136.826C161.549 137.011 161.108 137.103 160.597 137.103ZM167.096 131.545V132.824H163.655V131.545H167.096ZM164.376 130.239H166.112V135.285C166.112 135.391 166.129 135.478 166.162 135.544C166.198 135.608 166.249 135.654 166.315 135.683C166.381 135.709 166.46 135.722 166.553 135.722C166.619 135.722 166.689 135.716 166.762 135.704C166.838 135.69 166.895 135.678 166.933 135.668L167.195 136.922C167.113 136.946 166.995 136.975 166.844 137.011C166.695 137.046 166.516 137.069 166.308 137.078C165.901 137.097 165.551 137.05 165.26 136.936C164.971 136.82 164.75 136.64 164.596 136.396C164.445 136.152 164.371 135.846 164.376 135.477V130.239ZM170.473 137.103C169.903 137.103 169.41 136.991 168.996 136.766C168.584 136.538 168.267 136.215 168.044 135.796C167.824 135.375 167.714 134.874 167.714 134.294C167.714 133.731 167.825 133.238 168.048 132.817C168.27 132.393 168.584 132.064 168.989 131.83C169.394 131.593 169.871 131.474 170.42 131.474C170.808 131.474 171.163 131.535 171.485 131.656C171.807 131.776 172.085 131.955 172.32 132.192C172.554 132.429 172.736 132.721 172.867 133.069C172.997 133.415 173.062 133.811 173.062 134.259V134.692H168.321V133.683H171.446C171.444 133.499 171.4 133.334 171.315 133.19C171.23 133.045 171.112 132.933 170.963 132.852C170.816 132.769 170.647 132.728 170.455 132.728C170.261 132.728 170.087 132.772 169.933 132.859C169.78 132.945 169.658 133.062 169.568 133.211C169.478 133.358 169.43 133.525 169.426 133.712V134.738C169.426 134.96 169.469 135.156 169.557 135.324C169.645 135.49 169.769 135.619 169.93 135.711C170.091 135.803 170.283 135.849 170.505 135.849C170.659 135.849 170.799 135.828 170.924 135.786C171.05 135.743 171.157 135.68 171.247 135.597C171.337 135.514 171.405 135.413 171.45 135.292L173.044 135.338C172.978 135.696 172.832 136.007 172.607 136.272C172.385 136.535 172.093 136.74 171.73 136.886C171.368 137.031 170.949 137.103 170.473 137.103ZM175.941 137.078C175.539 137.078 175.173 136.974 174.844 136.766C174.515 136.557 174.252 136.245 174.055 135.828C173.859 135.411 173.761 134.894 173.761 134.276C173.761 133.635 173.862 133.107 174.066 132.692C174.27 132.278 174.536 131.972 174.865 131.773C175.196 131.574 175.553 131.474 175.934 131.474C176.22 131.474 176.465 131.524 176.669 131.624C176.873 131.721 177.041 131.846 177.173 132C177.306 132.154 177.406 132.314 177.475 132.479H177.511V129.727H179.247V137H177.528V136.116H177.475C177.402 136.284 177.298 136.441 177.163 136.588C177.028 136.735 176.858 136.853 176.655 136.943C176.454 137.033 176.216 137.078 175.941 137.078ZM176.545 135.725C176.755 135.725 176.935 135.666 177.085 135.548C177.234 135.427 177.348 135.258 177.429 135.04C177.509 134.822 177.55 134.566 177.55 134.273C177.55 133.974 177.509 133.718 177.429 133.502C177.351 133.287 177.236 133.121 177.085 133.005C176.935 132.889 176.755 132.831 176.545 132.831C176.329 132.831 176.147 132.89 175.998 133.009C175.849 133.127 175.735 133.294 175.657 133.509C175.581 133.725 175.543 133.979 175.543 134.273C175.543 134.566 175.582 134.822 175.661 135.04C175.739 135.258 175.851 135.427 175.998 135.548C176.147 135.666 176.329 135.725 176.545 135.725Z" fill="#585B68"/>
<g filter="url(#filter1_d_2814_168)">
<rect x="27" y="165" width="250" height="30" rx="10" fill="#00A0FF"/>
</g>
<path d="M142.309 183.75H139.621V176.477H142.305C143.046 176.477 143.684 176.623 144.219 176.914C144.757 177.203 145.171 177.62 145.462 178.164C145.754 178.706 145.899 179.355 145.899 180.11C145.899 180.868 145.754 181.519 145.462 182.063C145.174 182.608 144.76 183.026 144.223 183.317C143.686 183.606 143.048 183.75 142.309 183.75ZM141.379 182.251H142.241C142.649 182.251 142.993 182.183 143.275 182.045C143.559 181.906 143.773 181.68 143.918 181.367C144.064 181.052 144.138 180.633 144.138 180.11C144.138 179.587 144.064 179.17 143.918 178.86C143.771 178.548 143.554 178.323 143.268 178.185C142.984 178.046 142.633 177.976 142.217 177.976H141.379V182.251ZM149.472 183.853C148.899 183.853 148.406 183.736 147.994 183.501C147.585 183.265 147.269 182.936 147.046 182.514C146.826 182.09 146.716 181.599 146.716 181.04C146.716 180.479 146.826 179.988 147.046 179.567C147.269 179.143 147.585 178.814 147.994 178.58C148.406 178.343 148.899 178.224 149.472 178.224C150.045 178.224 150.536 178.343 150.945 178.58C151.357 178.814 151.673 179.143 151.893 179.567C152.116 179.988 152.227 180.479 152.227 181.04C152.227 181.599 152.116 182.09 151.893 182.514C151.673 182.936 151.357 183.265 150.945 183.501C150.536 183.736 150.045 183.853 149.472 183.853ZM149.482 182.543C149.691 182.543 149.867 182.479 150.011 182.351C150.156 182.223 150.266 182.045 150.342 181.818C150.42 181.591 150.459 181.328 150.459 181.03C150.459 180.727 150.42 180.462 150.342 180.234C150.266 180.007 150.156 179.83 150.011 179.702C149.867 179.574 149.691 179.51 149.482 179.51C149.267 179.51 149.085 179.574 148.935 179.702C148.789 179.83 148.676 180.007 148.598 180.234C148.522 180.462 148.484 180.727 148.484 181.03C148.484 181.328 148.522 181.591 148.598 181.818C148.676 182.045 148.789 182.223 148.935 182.351C149.085 182.479 149.267 182.543 149.482 182.543ZM154.853 180.639V183.75H153.117V178.295H154.768V179.297H154.828C154.949 178.963 155.155 178.701 155.446 178.512C155.738 178.32 156.084 178.224 156.487 178.224C156.87 178.224 157.203 178.311 157.485 178.484C157.769 178.654 157.989 178.893 158.145 179.201C158.304 179.506 158.382 179.864 158.38 180.273V183.75H156.643V180.614C156.645 180.311 156.569 180.075 156.412 179.904C156.258 179.734 156.044 179.648 155.77 179.648C155.587 179.648 155.426 179.689 155.287 179.769C155.149 179.847 155.043 179.96 154.967 180.107C154.894 180.253 154.856 180.431 154.853 180.639ZM162.004 183.853C161.434 183.853 160.941 183.741 160.527 183.516C160.115 183.288 159.798 182.965 159.575 182.546C159.355 182.125 159.245 181.624 159.245 181.044C159.245 180.481 159.356 179.988 159.579 179.567C159.802 179.143 160.115 178.814 160.52 178.58C160.925 178.343 161.402 178.224 161.951 178.224C162.339 178.224 162.695 178.285 163.017 178.406C163.338 178.526 163.617 178.705 163.851 178.942C164.085 179.179 164.268 179.471 164.398 179.819C164.528 180.165 164.593 180.561 164.593 181.009V181.442H159.852V180.433H162.977C162.975 180.249 162.931 180.084 162.846 179.94C162.761 179.795 162.644 179.683 162.494 179.602C162.348 179.519 162.178 179.478 161.987 179.478C161.793 179.478 161.619 179.522 161.465 179.609C161.311 179.695 161.189 179.812 161.099 179.961C161.009 180.108 160.962 180.275 160.957 180.462V181.488C160.957 181.71 161.001 181.906 161.088 182.074C161.176 182.24 161.3 182.369 161.461 182.461C161.622 182.553 161.814 182.599 162.036 182.599C162.19 182.599 162.33 182.578 162.455 182.536C162.581 182.493 162.689 182.43 162.779 182.347C162.869 182.264 162.936 182.163 162.981 182.042L164.575 182.088C164.509 182.446 164.364 182.757 164.139 183.022C163.916 183.285 163.624 183.49 163.262 183.636C162.899 183.781 162.48 183.853 162.004 183.853Z" fill="#FFFDF7"/>
<defs>
<filter id="filter0_d_2814_168" x="23" y="118" width="258" height="38" filterUnits="userSpaceOnUse" color-interpolation-filters="sRGB">
<feFlood flood-opacity="0" result="BackgroundImageFix"/>
<feColorMatrix in="SourceAlpha" type="matrix" values="0 0 0 0 0 0 0 0 0 0 0 0 0 0 0 0 0 0 127 0" result="hardAlpha"/>
<feOffset dy="4"/>
<feGaussianBlur stdDeviation="2"/>
<feComposite in2="hardAlpha" operator="out"/>
<feColorMatrix type="matrix" values="0 0 0 0 0 0 0 0 0 0 0 0 0 0 0 0 0 0 0.25 0"/>
<feBlend mode="normal" in2="BackgroundImageFix" result="effect1_dropShadow_2814_168"/>
<feBlend mode="normal" in="SourceGraphic" in2="effect1_dropShadow_2814_168" result="shape"/>
</filter>
<filter id="filter1_d_2814_168" x="23" y="165" width="258" height="38" filterUnits="userSpaceOnUse" color-interpolation-filters="sRGB">
<feFlood flood-opacity="0" result="BackgroundImageFix"/>
<feColorMatrix in="SourceAlpha" type="matrix" values="0 0 0 0 0 0 0 0 0 0 0 0 0 0 0 0 0 0 127 0" result="hardAlpha"/>
<feOffset dy="4"/>
<feGaussianBlur stdDeviation="2"/>
<feComposite in2="hardAlpha" operator="out"/>
<feColorMatrix type="matrix" values="0 0 0 0 0 0 0 0 0 0 0 0 0 0 0 0 0 0 0.25 0"/>
<feBlend mode="normal" in2="BackgroundImageFix" result="effect1_dropShadow_2814_168"/>
<feBlend mode="normal" in="SourceGraphic" in2="effect1_dropShadow_2814_168" result="shape"/>
</filter>
<linearGradient id="paint0_linear_2814_168" x1="150" y1="0" x2="150" y2="214" gradientUnits="userSpaceOnUse">
<stop offset="0.355769" stop-color="#929292"/>
<stop offset="0.7" stop-color="#585B68"/>
</linearGradient>
<linearGradient id="paint1_linear_2814_168" x1="152" y1="118" x2="152" y2="148" gradientUnits="userSpaceOnUse">
<stop stop-color="#ECECEC"/>
<stop offset="1" stop-color="#D1D0D0"/>
</linearGradient>
</defs>
</svg>
