<svg width="300" height="363" viewBox="0 0 300 363" fill="none" xmlns="http://www.w3.org/2000/svg">
<rect width="300" height="363" rx="10" fill="url(#paint0_linear_2823_152)"/>
<g filter="url(#filter0_d_2823_152)">
<rect x="26" y="316" width="250" height="30" rx="10" fill="#929292"/>
</g>
<path d="M117.01 335V327.727H118.768V333.572H121.794V335H117.01ZM122.704 335V329.545H124.44V335H122.704ZM123.574 328.91C123.33 328.91 123.12 328.829 122.945 328.668C122.77 328.505 122.682 328.308 122.682 328.079C122.682 327.852 122.77 327.657 122.945 327.496C123.12 327.333 123.33 327.251 123.574 327.251C123.82 327.251 124.03 327.333 124.202 327.496C124.378 327.657 124.465 327.852 124.465 328.079C124.465 328.308 124.378 328.505 124.202 328.668C124.03 328.829 123.82 328.91 123.574 328.91ZM129.107 337.045V334.116H129.072C128.998 334.284 128.894 334.441 128.759 334.588C128.624 334.735 128.455 334.853 128.252 334.943C128.05 335.033 127.812 335.078 127.538 335.078C127.135 335.078 126.77 334.974 126.44 334.766C126.111 334.557 125.849 334.245 125.652 333.828C125.456 333.411 125.357 332.894 125.357 332.276C125.357 331.635 125.459 331.107 125.663 330.692C125.866 330.278 126.133 329.972 126.462 329.773C126.793 329.574 127.149 329.474 127.531 329.474C127.817 329.474 128.062 329.524 128.266 329.624C128.469 329.721 128.637 329.846 128.77 330C128.903 330.154 129.003 330.314 129.072 330.479H129.125V329.545H130.844V337.045H129.107ZM128.141 333.725C128.352 333.725 128.532 333.666 128.681 333.548C128.83 333.427 128.945 333.258 129.026 333.04C129.106 332.822 129.146 332.566 129.146 332.273C129.146 331.974 129.106 331.718 129.026 331.502C128.948 331.287 128.833 331.121 128.681 331.005C128.532 330.889 128.352 330.831 128.141 330.831C127.926 330.831 127.744 330.89 127.595 331.009C127.445 331.127 127.332 331.294 127.254 331.509C127.178 331.725 127.14 331.979 127.14 332.273C127.14 332.566 127.179 332.822 127.257 333.04C127.335 333.258 127.448 333.427 127.595 333.548C127.744 333.666 127.926 333.725 128.141 333.725ZM135.461 332.646V329.545H137.194V335H135.539V333.984H135.483C135.362 334.318 135.156 334.583 134.865 334.78C134.576 334.974 134.227 335.071 133.817 335.071C133.445 335.071 133.119 334.986 132.837 334.815C132.555 334.645 132.336 334.407 132.18 334.102C132.024 333.794 131.944 333.434 131.942 333.022V329.545H133.679V332.681C133.681 332.977 133.759 333.21 133.913 333.381C134.067 333.551 134.276 333.636 134.541 333.636C134.714 333.636 134.869 333.598 135.007 333.523C135.146 333.445 135.256 333.332 135.337 333.185C135.42 333.036 135.461 332.856 135.461 332.646ZM138.299 335V329.545H140.036V335H138.299ZM139.169 328.91C138.926 328.91 138.716 328.829 138.541 328.668C138.366 328.505 138.278 328.308 138.278 328.079C138.278 327.852 138.366 327.657 138.541 327.496C138.716 327.333 138.926 327.251 139.169 327.251C139.416 327.251 139.625 327.333 139.798 327.496C139.973 327.657 140.061 327.852 140.061 328.079C140.061 328.308 139.973 328.505 139.798 328.668C139.625 328.829 139.416 328.91 139.169 328.91ZM143.133 335.078C142.731 335.078 142.365 334.974 142.036 334.766C141.707 334.557 141.444 334.245 141.248 333.828C141.051 333.411 140.953 332.894 140.953 332.276C140.953 331.635 141.055 331.107 141.258 330.692C141.462 330.278 141.728 329.972 142.057 329.773C142.389 329.574 142.745 329.474 143.126 329.474C143.413 329.474 143.658 329.524 143.861 329.624C144.065 329.721 144.233 329.846 144.366 330C144.498 330.154 144.599 330.314 144.668 330.479H144.703V327.727H146.44V335H144.721V334.116H144.668C144.594 334.284 144.49 334.441 144.355 334.588C144.22 334.735 144.051 334.853 143.847 334.943C143.646 335.033 143.408 335.078 143.133 335.078ZM143.737 333.725C143.948 333.725 144.128 333.666 144.277 333.548C144.426 333.427 144.541 333.258 144.621 333.04C144.702 332.822 144.742 332.566 144.742 332.273C144.742 331.974 144.702 331.718 144.621 331.502C144.543 331.287 144.428 331.121 144.277 331.005C144.128 330.889 143.948 330.831 143.737 330.831C143.522 330.831 143.339 330.89 143.19 331.009C143.041 331.127 142.927 331.294 142.849 331.509C142.774 331.725 142.736 331.979 142.736 332.273C142.736 332.566 142.775 332.822 142.853 333.04C142.931 333.258 143.043 333.427 143.19 333.548C143.339 333.666 143.522 333.725 143.737 333.725ZM147.538 335V329.545H149.274V335H147.538ZM148.408 328.91C148.164 328.91 147.954 328.829 147.779 328.668C147.604 328.505 147.516 328.308 147.516 328.079C147.516 327.852 147.604 327.657 147.779 327.496C147.954 327.333 148.164 327.251 148.408 327.251C148.654 327.251 148.863 327.333 149.036 327.496C149.211 327.657 149.299 327.852 149.299 328.079C149.299 328.308 149.211 328.505 149.036 328.668C148.863 328.829 148.654 328.91 148.408 328.91ZM153.458 329.545V330.824H150.017V329.545H153.458ZM150.738 328.239H152.475V333.285C152.475 333.391 152.491 333.478 152.524 333.544C152.56 333.608 152.611 333.654 152.677 333.683C152.743 333.709 152.823 333.722 152.915 333.722C152.981 333.722 153.051 333.716 153.125 333.704C153.2 333.69 153.257 333.678 153.295 333.668L153.558 334.922C153.475 334.946 153.358 334.975 153.206 335.011C153.057 335.046 152.878 335.069 152.67 335.078C152.263 335.097 151.914 335.05 151.622 334.936C151.334 334.82 151.112 334.64 150.958 334.396C150.807 334.152 150.733 333.846 150.738 333.477V328.239ZM155.406 337.045C155.198 337.045 155.001 337.029 154.817 336.996C154.632 336.965 154.473 336.924 154.341 336.871L154.724 335.611C154.895 335.668 155.049 335.701 155.186 335.71C155.326 335.72 155.445 335.697 155.545 335.643C155.646 335.591 155.725 335.497 155.779 335.362L155.847 335.199L153.908 329.545H155.726L156.731 333.438H156.788L157.807 329.545H159.636L157.579 335.522C157.48 335.82 157.339 336.083 157.157 336.31C156.977 336.54 156.744 336.72 156.457 336.85C156.173 336.98 155.823 337.045 155.406 337.045ZM162.45 335V327.727H165.454C165.999 327.727 166.469 327.834 166.864 328.047C167.262 328.258 167.568 328.552 167.784 328.931C167.999 329.308 168.107 329.746 168.107 330.245C168.107 330.747 167.997 331.186 167.777 331.562C167.559 331.937 167.247 332.227 166.843 332.433C166.438 332.638 165.957 332.741 165.401 332.741H163.547V331.357H165.074C165.339 331.357 165.561 331.31 165.738 331.218C165.918 331.126 166.054 330.997 166.147 330.831C166.239 330.663 166.285 330.468 166.285 330.245C166.285 330.02 166.239 329.826 166.147 329.663C166.054 329.497 165.918 329.369 165.738 329.279C165.558 329.189 165.337 329.144 165.074 329.144H164.208V335H162.45ZM171.412 335.103C170.839 335.103 170.347 334.986 169.935 334.751C169.525 334.515 169.209 334.186 168.987 333.764C168.766 333.34 168.656 332.849 168.656 332.29C168.656 331.729 168.766 331.238 168.987 330.817C169.209 330.393 169.525 330.064 169.935 329.83C170.347 329.593 170.839 329.474 171.412 329.474C171.985 329.474 172.476 329.593 172.886 329.83C173.298 330.064 173.614 330.393 173.834 330.817C174.056 331.238 174.168 331.729 174.168 332.29C174.168 332.849 174.056 333.34 173.834 333.764C173.614 334.186 173.298 334.515 172.886 334.751C172.476 334.986 171.985 335.103 171.412 335.103ZM171.423 333.793C171.631 333.793 171.807 333.729 171.952 333.601C172.096 333.473 172.206 333.295 172.282 333.068C172.36 332.841 172.399 332.578 172.399 332.28C172.399 331.977 172.36 331.712 172.282 331.484C172.206 331.257 172.096 331.08 171.952 330.952C171.807 330.824 171.631 330.76 171.423 330.76C171.207 330.76 171.025 330.824 170.876 330.952C170.729 331.08 170.617 331.257 170.538 331.484C170.463 331.712 170.425 331.977 170.425 332.28C170.425 332.578 170.463 332.841 170.538 333.068C170.617 333.295 170.729 333.473 170.876 333.601C171.025 333.729 171.207 333.793 171.423 333.793ZM177.603 335.103C177.031 335.103 176.538 334.986 176.126 334.751C175.717 334.515 175.401 334.186 175.178 333.764C174.958 333.34 174.848 332.849 174.848 332.29C174.848 331.729 174.958 331.238 175.178 330.817C175.401 330.393 175.717 330.064 176.126 329.83C176.538 329.593 177.031 329.474 177.603 329.474C178.176 329.474 178.668 329.593 179.077 329.83C179.489 330.064 179.805 330.393 180.025 330.817C180.248 331.238 180.359 331.729 180.359 332.29C180.359 332.849 180.248 333.34 180.025 333.764C179.805 334.186 179.489 334.515 179.077 334.751C178.668 334.986 178.176 335.103 177.603 335.103ZM177.614 333.793C177.822 333.793 177.999 333.729 178.143 333.601C178.288 333.473 178.398 333.295 178.473 333.068C178.552 332.841 178.591 332.578 178.591 332.28C178.591 331.977 178.552 331.712 178.473 331.484C178.398 331.257 178.288 331.08 178.143 330.952C177.999 330.824 177.822 330.76 177.614 330.76C177.399 330.76 177.216 330.824 177.067 330.952C176.92 331.08 176.808 331.257 176.73 331.484C176.654 331.712 176.616 331.977 176.616 332.28C176.616 332.578 176.654 332.841 176.73 333.068C176.808 333.295 176.92 333.473 177.067 333.601C177.216 333.729 177.399 333.793 177.614 333.793ZM182.985 327.727V335H181.249V327.727H182.985Z" fill="#FFFDF7"/>
<g filter="url(#filter1_d_2823_152)">
<rect x="26" y="271" width="250" height="30" rx="10" fill="#929292"/>
</g>
<path d="M140.741 284.908C140.718 284.647 140.612 284.445 140.425 284.3C140.241 284.154 139.977 284.08 139.633 284.08C139.406 284.08 139.217 284.11 139.065 284.169C138.914 284.228 138.8 284.31 138.724 284.414C138.648 284.516 138.609 284.633 138.607 284.766C138.602 284.875 138.624 284.97 138.671 285.053C138.721 285.136 138.792 285.21 138.884 285.273C138.979 285.335 139.092 285.389 139.225 285.437C139.358 285.484 139.507 285.526 139.672 285.561L140.297 285.703C140.657 285.781 140.974 285.885 141.249 286.016C141.526 286.146 141.758 286.301 141.945 286.481C142.135 286.661 142.278 286.868 142.375 287.102C142.472 287.337 142.522 287.599 142.524 287.891C142.522 288.35 142.406 288.744 142.176 289.073C141.946 289.402 141.616 289.654 141.185 289.83C140.757 290.005 140.239 290.092 139.633 290.092C139.025 290.092 138.495 290.001 138.042 289.819C137.59 289.637 137.239 289.36 136.988 288.988C136.737 288.616 136.608 288.146 136.601 287.578H138.284C138.298 287.812 138.361 288.008 138.472 288.164C138.583 288.32 138.736 288.439 138.93 288.519C139.127 288.6 139.354 288.64 139.612 288.64C139.849 288.64 140.05 288.608 140.216 288.544C140.384 288.48 140.513 288.391 140.603 288.278C140.693 288.164 140.739 288.034 140.741 287.887C140.739 287.75 140.696 287.633 140.613 287.536C140.531 287.436 140.403 287.351 140.23 287.28C140.059 287.206 139.842 287.139 139.577 287.077L138.817 286.9C138.187 286.755 137.691 286.522 137.329 286.2C136.966 285.876 136.787 285.438 136.789 284.886C136.787 284.437 136.907 284.042 137.151 283.704C137.395 283.365 137.732 283.101 138.163 282.912C138.594 282.723 139.085 282.628 139.637 282.628C140.2 282.628 140.689 282.724 141.104 282.915C141.52 283.105 141.843 283.371 142.073 283.714C142.303 284.058 142.42 284.455 142.425 284.908H140.741ZM144.431 290L143.01 284.545H144.754L145.489 288.04H145.535L146.324 284.545H148.025L148.834 288.015H148.881L149.594 284.545H151.338L149.914 290H148.057L147.204 286.822H147.144L146.292 290H144.431ZM153.572 290.092C153.224 290.092 152.915 290.034 152.646 289.918C152.378 289.8 152.166 289.622 152.01 289.386C151.856 289.147 151.779 288.847 151.779 288.487C151.779 288.184 151.832 287.929 151.939 287.72C152.045 287.512 152.192 287.343 152.379 287.212C152.566 287.082 152.782 286.984 153.026 286.918C153.269 286.849 153.53 286.803 153.807 286.779C154.117 286.751 154.367 286.721 154.556 286.69C154.746 286.657 154.883 286.611 154.968 286.552C155.056 286.49 155.099 286.404 155.099 286.293V286.275C155.099 286.093 155.037 285.952 154.911 285.852C154.786 285.753 154.616 285.703 154.403 285.703C154.174 285.703 153.989 285.753 153.849 285.852C153.71 285.952 153.621 286.089 153.583 286.264L151.982 286.207C152.029 285.876 152.151 285.58 152.347 285.32C152.546 285.057 152.818 284.851 153.164 284.702C153.512 284.55 153.93 284.474 154.418 284.474C154.766 284.474 155.086 284.516 155.38 284.599C155.674 284.679 155.929 284.798 156.147 284.954C156.365 285.108 156.533 285.297 156.651 285.522C156.772 285.747 156.832 286.004 156.832 286.293V290H155.199V289.24H155.156C155.059 289.425 154.935 289.581 154.783 289.709C154.634 289.837 154.458 289.933 154.254 289.996C154.053 290.06 153.826 290.092 153.572 290.092ZM154.109 288.956C154.296 288.956 154.464 288.918 154.613 288.842C154.764 288.767 154.885 288.662 154.975 288.53C155.065 288.395 155.11 288.239 155.11 288.061V287.543C155.06 287.569 155 287.592 154.929 287.614C154.86 287.635 154.785 287.655 154.702 287.674C154.619 287.693 154.534 287.71 154.446 287.724C154.358 287.738 154.274 287.751 154.194 287.763C154.031 287.789 153.891 287.829 153.775 287.884C153.661 287.938 153.574 288.009 153.512 288.097C153.453 288.182 153.423 288.284 153.423 288.402C153.423 288.582 153.487 288.719 153.615 288.814C153.745 288.909 153.91 288.956 154.109 288.956ZM157.894 292.045V284.545H159.613V285.479H159.666C159.737 285.314 159.838 285.154 159.968 285C160.101 284.846 160.269 284.721 160.472 284.624C160.678 284.524 160.924 284.474 161.211 284.474C161.59 284.474 161.944 284.574 162.273 284.773C162.604 284.972 162.872 285.278 163.075 285.692C163.279 286.107 163.381 286.635 163.381 287.276C163.381 287.894 163.282 288.411 163.086 288.828C162.892 289.245 162.629 289.557 162.298 289.766C161.969 289.974 161.603 290.078 161.2 290.078C160.926 290.078 160.688 290.033 160.487 289.943C160.285 289.853 160.116 289.735 159.979 289.588C159.844 289.441 159.74 289.284 159.666 289.116H159.631V292.045H157.894ZM159.595 287.273C159.595 287.566 159.634 287.822 159.712 288.04C159.793 288.258 159.908 288.427 160.057 288.548C160.208 288.666 160.389 288.725 160.6 288.725C160.813 288.725 160.994 288.666 161.143 288.548C161.293 288.427 161.405 288.258 161.481 288.04C161.559 287.822 161.598 287.566 161.598 287.273C161.598 286.979 161.559 286.725 161.481 286.509C161.405 286.294 161.293 286.127 161.143 286.009C160.997 285.89 160.816 285.831 160.6 285.831C160.387 285.831 160.206 285.889 160.057 286.005C159.908 286.121 159.793 286.287 159.712 286.502C159.634 286.718 159.595 286.974 159.595 287.273Z" fill="#FFFDF7"/>
<g filter="url(#filter2_d_2823_152)">
<rect x="26" y="223" width="250" height="30" rx="10" fill="#929292"/>
</g>
<path d="M123.968 243L121.428 234.273H123.759L125.076 239.991H125.148L126.652 234.273H128.553L130.057 240.004H130.13L131.451 234.273H133.777L131.242 243H129.209L127.637 237.707H127.569L125.996 243H123.968ZM134.649 243V236.455H136.733V243H134.649ZM135.693 235.692C135.4 235.692 135.149 235.595 134.939 235.402C134.728 235.206 134.623 234.97 134.623 234.695C134.623 234.422 134.728 234.189 134.939 233.996C135.149 233.8 135.4 233.702 135.693 233.702C135.988 233.702 136.24 233.8 136.447 233.996C136.657 234.189 136.762 234.422 136.762 234.695C136.762 234.97 136.657 235.206 136.447 235.402C136.24 235.595 135.988 235.692 135.693 235.692ZM141.754 236.455V237.989H137.624V236.455H141.754ZM138.489 234.886H140.573V240.942C140.573 241.07 140.593 241.173 140.633 241.253C140.675 241.33 140.737 241.385 140.816 241.419C140.896 241.45 140.991 241.466 141.102 241.466C141.181 241.466 141.265 241.459 141.353 241.445C141.444 241.428 141.512 241.413 141.558 241.402L141.873 242.906C141.773 242.935 141.633 242.97 141.451 243.013C141.272 243.055 141.058 243.082 140.808 243.094C140.319 243.116 139.9 243.06 139.55 242.923C139.204 242.784 138.938 242.568 138.754 242.276C138.572 241.983 138.484 241.615 138.489 241.172V234.886ZM145.041 239.267V243H142.957V234.273H144.973V237.656H145.045C145.193 237.253 145.435 236.937 145.77 236.71C146.108 236.483 146.521 236.369 147.01 236.369C147.47 236.369 147.871 236.472 148.212 236.676C148.553 236.878 148.817 237.163 149.004 237.533C149.195 237.902 149.288 238.334 149.286 238.828V243H147.202V239.237C147.205 238.874 147.114 238.589 146.929 238.385C146.744 238.18 146.484 238.078 146.149 238.078C145.93 238.078 145.737 238.126 145.57 238.223C145.405 238.317 145.276 238.452 145.182 238.628C145.091 238.804 145.044 239.017 145.041 239.267ZM152.977 243.094C152.494 243.094 152.055 242.969 151.66 242.719C151.265 242.469 150.95 242.094 150.714 241.594C150.478 241.094 150.36 240.473 150.36 239.732C150.36 238.962 150.483 238.328 150.727 237.831C150.971 237.334 151.291 236.966 151.686 236.727C152.083 236.489 152.511 236.369 152.968 236.369C153.312 236.369 153.606 236.429 153.85 236.548C154.095 236.665 154.297 236.815 154.456 237C154.615 237.185 154.735 237.376 154.818 237.575H154.86V234.273H156.944V243H154.882V241.939H154.818C154.73 242.141 154.605 242.33 154.443 242.506C154.281 242.682 154.078 242.824 153.833 242.932C153.592 243.04 153.306 243.094 152.977 243.094ZM153.701 241.47C153.954 241.47 154.17 241.399 154.349 241.257C154.528 241.112 154.666 240.909 154.762 240.648C154.859 240.386 154.907 240.08 154.907 239.727C154.907 239.369 154.859 239.061 154.762 238.803C154.669 238.544 154.531 238.345 154.349 238.206C154.17 238.067 153.954 237.997 153.701 237.997C153.443 237.997 153.224 238.068 153.045 238.21C152.866 238.352 152.73 238.553 152.636 238.811C152.545 239.07 152.5 239.375 152.5 239.727C152.5 240.08 152.547 240.386 152.64 240.648C152.734 240.909 152.869 241.112 153.045 241.257C153.224 241.399 153.443 241.47 153.701 241.47ZM158.262 243V236.455H160.286V237.648H160.354C160.474 237.216 160.668 236.895 160.938 236.685C161.208 236.472 161.522 236.365 161.88 236.365C161.977 236.365 162.076 236.372 162.178 236.386C162.281 236.398 162.376 236.416 162.464 236.442V238.253C162.364 238.219 162.234 238.192 162.072 238.172C161.913 238.152 161.771 238.142 161.646 238.142C161.398 238.142 161.175 238.197 160.977 238.308C160.781 238.416 160.626 238.568 160.512 238.764C160.401 238.957 160.346 239.185 160.346 239.446V243H158.262ZM164.912 243.111C164.494 243.111 164.124 243.041 163.8 242.902C163.479 242.76 163.224 242.547 163.037 242.263C162.852 241.976 162.76 241.616 162.76 241.185C162.76 240.821 162.824 240.514 162.952 240.264C163.08 240.014 163.256 239.811 163.48 239.655C163.705 239.499 163.963 239.381 164.256 239.301C164.548 239.219 164.861 239.163 165.193 239.135C165.565 239.101 165.865 239.065 166.092 239.028C166.32 238.989 166.484 238.933 166.587 238.862C166.692 238.788 166.744 238.685 166.744 238.551V238.53C166.744 238.311 166.669 238.142 166.518 238.023C166.368 237.903 166.165 237.844 165.909 237.844C165.634 237.844 165.412 237.903 165.244 238.023C165.077 238.142 164.97 238.307 164.925 238.517L163.003 238.449C163.06 238.051 163.206 237.696 163.442 237.384C163.68 237.068 164.007 236.821 164.422 236.642C164.839 236.46 165.341 236.369 165.926 236.369C166.344 236.369 166.729 236.419 167.081 236.518C167.433 236.615 167.74 236.757 168.001 236.945C168.263 237.129 168.464 237.357 168.607 237.626C168.751 237.896 168.824 238.205 168.824 238.551V243H166.864V242.088H166.812C166.696 242.31 166.547 242.497 166.365 242.651C166.186 242.804 165.974 242.919 165.73 242.996C165.489 243.072 165.216 243.111 164.912 243.111ZM165.555 241.747C165.78 241.747 165.982 241.702 166.161 241.611C166.342 241.52 166.487 241.395 166.595 241.236C166.703 241.074 166.757 240.886 166.757 240.673V240.051C166.697 240.082 166.625 240.111 166.54 240.136C166.457 240.162 166.366 240.186 166.267 240.209C166.168 240.232 166.065 240.251 165.96 240.268C165.855 240.286 165.754 240.301 165.658 240.315C165.462 240.347 165.294 240.395 165.155 240.46C165.018 240.526 164.913 240.611 164.839 240.716C164.768 240.818 164.733 240.94 164.733 241.082C164.733 241.298 164.81 241.463 164.963 241.577C165.119 241.69 165.317 241.747 165.555 241.747ZM171.321 243L169.616 236.455H171.709L172.591 240.648H172.646L173.592 236.455H175.634L176.605 240.618H176.661L177.517 236.455H179.609L177.901 243H175.672L174.649 239.186H174.577L173.554 243H171.321Z" fill="#FFFDF7"/>
<g filter="url(#filter3_d_2823_152)">
<rect x="26" y="180" width="250" height="30" rx="10" fill="#929292"/>
</g>
<path d="M134.5 199H131.812V191.727H134.497C135.238 191.727 135.876 191.873 136.411 192.164C136.948 192.453 137.363 192.87 137.654 193.414C137.945 193.956 138.091 194.605 138.091 195.36C138.091 196.118 137.945 196.769 137.654 197.313C137.365 197.858 136.952 198.276 136.414 198.567C135.877 198.856 135.239 199 134.5 199ZM133.57 197.501H134.433C134.84 197.501 135.185 197.433 135.466 197.295C135.75 197.156 135.965 196.93 136.109 196.617C136.256 196.302 136.329 195.883 136.329 195.36C136.329 194.837 136.256 194.42 136.109 194.11C135.962 193.798 135.746 193.573 135.459 193.435C135.175 193.296 134.825 193.226 134.408 193.226H133.57V197.501ZM141.667 199.103C141.096 199.103 140.604 198.991 140.189 198.766C139.777 198.538 139.46 198.215 139.238 197.796C139.017 197.375 138.907 196.874 138.907 196.294C138.907 195.731 139.019 195.238 139.241 194.817C139.464 194.393 139.777 194.064 140.182 193.83C140.587 193.593 141.064 193.474 141.613 193.474C142.002 193.474 142.357 193.535 142.679 193.656C143.001 193.776 143.279 193.955 143.513 194.192C143.748 194.429 143.93 194.721 144.06 195.069C144.19 195.415 144.255 195.811 144.255 196.259V196.692H139.515V195.683H142.64C142.637 195.499 142.593 195.334 142.508 195.19C142.423 195.045 142.306 194.933 142.157 194.852C142.01 194.769 141.841 194.728 141.649 194.728C141.455 194.728 141.281 194.772 141.127 194.859C140.973 194.945 140.851 195.062 140.761 195.211C140.671 195.358 140.624 195.525 140.619 195.712V196.738C140.619 196.96 140.663 197.156 140.75 197.324C140.838 197.49 140.962 197.619 141.123 197.711C141.284 197.803 141.476 197.849 141.699 197.849C141.852 197.849 141.992 197.828 142.118 197.786C142.243 197.743 142.351 197.68 142.441 197.597C142.531 197.514 142.598 197.413 142.643 197.292L144.238 197.338C144.171 197.696 144.026 198.007 143.801 198.272C143.578 198.535 143.286 198.74 142.924 198.886C142.561 199.031 142.142 199.103 141.667 199.103ZM145.142 201.045V193.545H146.861V194.479H146.914C146.985 194.314 147.086 194.154 147.216 194C147.349 193.846 147.517 193.721 147.72 193.624C147.926 193.524 148.173 193.474 148.459 193.474C148.838 193.474 149.192 193.574 149.521 193.773C149.852 193.972 150.12 194.278 150.323 194.692C150.527 195.107 150.629 195.635 150.629 196.276C150.629 196.894 150.53 197.411 150.334 197.828C150.14 198.245 149.877 198.557 149.546 198.766C149.217 198.974 148.851 199.078 148.448 199.078C148.174 199.078 147.936 199.033 147.735 198.943C147.533 198.853 147.364 198.735 147.227 198.588C147.092 198.441 146.988 198.284 146.914 198.116H146.879V201.045H145.142ZM146.843 196.273C146.843 196.566 146.882 196.822 146.96 197.04C147.041 197.258 147.156 197.427 147.305 197.548C147.456 197.666 147.637 197.725 147.848 197.725C148.061 197.725 148.242 197.666 148.392 197.548C148.541 197.427 148.653 197.258 148.729 197.04C148.807 196.822 148.846 196.566 148.846 196.273C148.846 195.979 148.807 195.725 148.729 195.509C148.653 195.294 148.541 195.127 148.392 195.009C148.245 194.89 148.064 194.831 147.848 194.831C147.635 194.831 147.454 194.889 147.305 195.005C147.156 195.121 147.041 195.287 146.96 195.502C146.882 195.718 146.843 195.974 146.843 196.273ZM154.085 199.103C153.512 199.103 153.02 198.986 152.608 198.751C152.198 198.515 151.882 198.186 151.659 197.764C151.439 197.34 151.329 196.849 151.329 196.29C151.329 195.729 151.439 195.238 151.659 194.817C151.882 194.393 152.198 194.064 152.608 193.83C153.02 193.593 153.512 193.474 154.085 193.474C154.658 193.474 155.149 193.593 155.559 193.83C155.971 194.064 156.287 194.393 156.507 194.817C156.729 195.238 156.841 195.729 156.841 196.29C156.841 196.849 156.729 197.34 156.507 197.764C156.287 198.186 155.971 198.515 155.559 198.751C155.149 198.986 154.658 199.103 154.085 199.103ZM154.096 197.793C154.304 197.793 154.48 197.729 154.625 197.601C154.769 197.473 154.879 197.295 154.955 197.068C155.033 196.841 155.072 196.578 155.072 196.28C155.072 195.977 155.033 195.712 154.955 195.484C154.879 195.257 154.769 195.08 154.625 194.952C154.48 194.824 154.304 194.76 154.096 194.76C153.88 194.76 153.698 194.824 153.549 194.952C153.402 195.08 153.289 195.257 153.211 195.484C153.136 195.712 153.098 195.977 153.098 196.28C153.098 196.578 153.136 196.841 153.211 197.068C153.289 197.295 153.402 197.473 153.549 197.601C153.698 197.729 153.88 197.793 154.096 197.793ZM162.492 195.211L160.898 195.254C160.881 195.14 160.836 195.039 160.763 194.952C160.689 194.862 160.594 194.792 160.475 194.742C160.359 194.69 160.224 194.664 160.07 194.664C159.869 194.664 159.697 194.704 159.555 194.785C159.416 194.865 159.347 194.974 159.349 195.112C159.347 195.218 159.39 195.31 159.477 195.388C159.567 195.467 159.727 195.529 159.957 195.577L161.008 195.776C161.552 195.88 161.957 196.053 162.222 196.294C162.49 196.536 162.625 196.855 162.627 197.253C162.625 197.627 162.513 197.952 162.293 198.229C162.076 198.506 161.777 198.722 161.398 198.876C161.02 199.027 160.586 199.103 160.099 199.103C159.32 199.103 158.705 198.943 158.256 198.624C157.808 198.302 157.553 197.871 157.489 197.331L159.204 197.288C159.242 197.487 159.34 197.639 159.499 197.743C159.657 197.847 159.86 197.899 160.106 197.899C160.328 197.899 160.509 197.858 160.649 197.775C160.789 197.692 160.86 197.582 160.862 197.445C160.86 197.321 160.805 197.223 160.699 197.15C160.592 197.074 160.425 197.015 160.198 196.972L159.246 196.791C158.7 196.692 158.292 196.508 158.025 196.241C157.757 195.971 157.625 195.628 157.627 195.211C157.625 194.846 157.722 194.535 157.918 194.277C158.115 194.017 158.394 193.818 158.756 193.68C159.119 193.543 159.546 193.474 160.038 193.474C160.777 193.474 161.359 193.629 161.786 193.94C162.212 194.247 162.447 194.671 162.492 195.211ZM163.482 199V193.545H165.219V199H163.482ZM164.352 192.91C164.108 192.91 163.899 192.829 163.724 192.668C163.548 192.505 163.461 192.308 163.461 192.079C163.461 191.852 163.548 191.657 163.724 191.496C163.899 191.333 164.108 191.251 164.352 191.251C164.598 191.251 164.808 191.333 164.981 191.496C165.156 191.657 165.243 191.852 165.243 192.079C165.243 192.308 165.156 192.505 164.981 192.668C164.808 192.829 164.598 192.91 164.352 192.91ZM169.403 193.545V194.824H165.962V193.545H169.403ZM166.683 192.239H168.419V197.285C168.419 197.391 168.436 197.478 168.469 197.544C168.504 197.608 168.555 197.654 168.621 197.683C168.688 197.709 168.767 197.722 168.859 197.722C168.926 197.722 168.996 197.716 169.069 197.704C169.145 197.69 169.201 197.678 169.239 197.668L169.502 198.922C169.419 198.946 169.302 198.975 169.151 199.011C169.001 199.046 168.823 199.069 168.614 199.078C168.207 199.097 167.858 199.05 167.567 198.936C167.278 198.82 167.057 198.64 166.903 198.396C166.751 198.152 166.678 197.846 166.683 197.477V192.239Z" fill="#FFFDF7"/>
<g filter="url(#filter4_d_2823_152)">
<rect x="25" y="137" width="250" height="30" rx="10" fill="#00A0FF"/>
</g>
<path d="M126.323 151.103C126.283 150.954 126.224 150.822 126.146 150.709C126.067 150.593 125.972 150.495 125.858 150.414C125.744 150.334 125.614 150.273 125.467 150.233C125.321 150.19 125.16 150.169 124.984 150.169C124.632 150.169 124.326 150.254 124.068 150.425C123.812 150.595 123.615 150.844 123.475 151.17C123.335 151.495 123.266 151.889 123.266 152.353C123.266 152.819 123.333 153.217 123.468 153.546C123.603 153.875 123.798 154.126 124.054 154.299C124.31 154.472 124.62 154.558 124.984 154.558C125.306 154.558 125.579 154.506 125.801 154.402C126.026 154.295 126.196 154.145 126.312 153.951C126.429 153.757 126.487 153.528 126.487 153.266L126.813 153.305H125.045V152.023H128.18V152.985C128.18 153.636 128.042 154.194 127.765 154.658C127.49 155.122 127.112 155.478 126.629 155.727C126.148 155.975 125.595 156.099 124.97 156.099C124.277 156.099 123.667 155.949 123.141 155.648C122.616 155.348 122.206 154.919 121.913 154.363C121.619 153.804 121.472 153.141 121.472 152.374C121.472 151.778 121.561 151.249 121.739 150.787C121.916 150.323 122.164 149.93 122.481 149.608C122.8 149.286 123.17 149.042 123.589 148.876C124.01 148.711 124.464 148.628 124.949 148.628C125.37 148.628 125.762 148.688 126.124 148.809C126.489 148.93 126.811 149.1 127.09 149.32C127.372 149.54 127.6 149.802 127.776 150.105C127.951 150.408 128.06 150.741 128.102 151.103H126.323ZM131.766 156.103C131.196 156.103 130.703 155.991 130.289 155.766C129.877 155.538 129.56 155.215 129.337 154.796C129.117 154.375 129.007 153.874 129.007 153.294C129.007 152.731 129.118 152.238 129.341 151.817C129.563 151.393 129.877 151.064 130.282 150.83C130.687 150.593 131.164 150.474 131.713 150.474C132.101 150.474 132.456 150.535 132.778 150.656C133.1 150.776 133.378 150.955 133.613 151.192C133.847 151.429 134.029 151.721 134.16 152.069C134.29 152.415 134.355 152.811 134.355 153.259V153.692H129.614V152.683H132.739C132.737 152.499 132.693 152.334 132.608 152.19C132.523 152.045 132.405 151.933 132.256 151.852C132.109 151.769 131.94 151.728 131.748 151.728C131.554 151.728 131.38 151.772 131.226 151.859C131.073 151.945 130.951 152.062 130.861 152.211C130.771 152.358 130.723 152.525 130.719 152.712V153.738C130.719 153.96 130.762 154.156 130.85 154.324C130.938 154.49 131.062 154.619 131.223 154.711C131.384 154.803 131.576 154.849 131.798 154.849C131.952 154.849 132.092 154.828 132.217 154.786C132.343 154.743 132.45 154.68 132.54 154.597C132.63 154.514 132.698 154.413 132.743 154.292L134.337 154.338C134.271 154.696 134.125 155.007 133.9 155.272C133.678 155.535 133.385 155.74 133.023 155.886C132.661 156.031 132.242 156.103 131.766 156.103ZM138.321 150.545V151.824H134.88V150.545H138.321ZM135.6 149.239H137.337V154.285C137.337 154.391 137.354 154.478 137.387 154.544C137.422 154.608 137.473 154.654 137.539 154.683C137.606 154.709 137.685 154.722 137.777 154.722C137.844 154.722 137.913 154.716 137.987 154.704C138.063 154.69 138.119 154.678 138.157 154.668L138.42 155.922C138.337 155.946 138.22 155.975 138.069 156.011C137.919 156.046 137.741 156.069 137.532 156.078C137.125 156.097 136.776 156.05 136.485 155.936C136.196 155.82 135.975 155.64 135.821 155.396C135.669 155.152 135.596 154.846 135.6 154.477V149.239ZM146.646 150.545L144.775 156H142.786L140.918 150.545H142.747L143.752 154.303H143.809L144.817 150.545H146.646ZM149.686 156.103C149.116 156.103 148.623 155.991 148.209 155.766C147.797 155.538 147.48 155.215 147.257 154.796C147.037 154.375 146.927 153.874 146.927 153.294C146.927 152.731 147.038 152.238 147.261 151.817C147.483 151.393 147.797 151.064 148.202 150.83C148.607 150.593 149.084 150.474 149.633 150.474C150.021 150.474 150.376 150.535 150.698 150.656C151.02 150.776 151.298 150.955 151.533 151.192C151.767 151.429 151.949 151.721 152.08 152.069C152.21 152.415 152.275 152.811 152.275 153.259V153.692H147.534V152.683H150.659C150.657 152.499 150.613 152.334 150.528 152.19C150.442 152.045 150.325 151.933 150.176 151.852C150.029 151.769 149.86 151.728 149.668 151.728C149.474 151.728 149.3 151.772 149.146 151.859C148.992 151.945 148.871 152.062 148.781 152.211C148.691 152.358 148.643 152.525 148.638 152.712V153.738C148.638 153.96 148.682 154.156 148.77 154.324C148.857 154.49 148.982 154.619 149.143 154.711C149.304 154.803 149.496 154.849 149.718 154.849C149.872 154.849 150.012 154.828 150.137 154.786C150.263 154.743 150.37 154.68 150.46 154.597C150.55 154.514 150.618 154.413 150.663 154.292L152.257 154.338C152.191 154.696 152.045 155.007 151.82 155.272C151.598 155.535 151.305 155.74 150.943 155.886C150.581 156.031 150.162 156.103 149.686 156.103ZM153.162 156V150.545H154.849V151.54H154.905C155.005 151.18 155.167 150.912 155.392 150.737C155.617 150.56 155.878 150.471 156.177 150.471C156.257 150.471 156.34 150.477 156.425 150.489C156.51 150.498 156.59 150.513 156.663 150.535V152.044C156.58 152.016 156.471 151.993 156.336 151.977C156.204 151.96 156.086 151.952 155.981 151.952C155.775 151.952 155.59 151.998 155.424 152.09C155.26 152.18 155.131 152.307 155.037 152.47C154.944 152.631 154.898 152.821 154.898 153.038V156H153.162ZM157.371 156V150.545H159.107V156H157.371ZM158.241 149.91C157.997 149.91 157.787 149.829 157.612 149.668C157.437 149.505 157.349 149.308 157.349 149.079C157.349 148.852 157.437 148.657 157.612 148.496C157.787 148.333 157.997 148.251 158.241 148.251C158.487 148.251 158.696 148.333 158.869 148.496C159.045 148.657 159.132 148.852 159.132 149.079C159.132 149.308 159.045 149.505 158.869 149.668C158.696 149.829 158.487 149.91 158.241 149.91ZM163.313 150.545V151.824H159.804V150.545H163.313ZM160.536 156V150.268C160.536 149.847 160.615 149.498 160.774 149.221C160.932 148.942 161.152 148.733 161.434 148.596C161.716 148.456 162.041 148.386 162.411 148.386C162.652 148.386 162.879 148.405 163.093 148.443C163.308 148.479 163.468 148.511 163.572 148.539L163.295 149.81C163.231 149.789 163.153 149.771 163.061 149.757C162.971 149.743 162.885 149.736 162.805 149.736C162.601 149.736 162.462 149.781 162.386 149.871C162.31 149.961 162.272 150.084 162.272 150.24V156H160.536ZM164.148 156V150.545H165.885V156H164.148ZM165.018 149.91C164.774 149.91 164.565 149.829 164.39 149.668C164.214 149.505 164.127 149.308 164.127 149.079C164.127 148.852 164.214 148.657 164.39 148.496C164.565 148.333 164.774 148.251 165.018 148.251C165.264 148.251 165.474 148.333 165.647 148.496C165.822 148.657 165.909 148.852 165.909 149.079C165.909 149.308 165.822 149.505 165.647 149.668C165.474 149.829 165.264 149.91 165.018 149.91ZM169.54 156.103C168.969 156.103 168.477 155.991 168.062 155.766C167.65 155.538 167.333 155.215 167.111 154.796C166.89 154.375 166.78 153.874 166.78 153.294C166.78 152.731 166.892 152.238 167.114 151.817C167.337 151.393 167.65 151.064 168.055 150.83C168.46 150.593 168.937 150.474 169.486 150.474C169.875 150.474 170.23 150.535 170.552 150.656C170.874 150.776 171.152 150.955 171.386 151.192C171.621 151.429 171.803 151.721 171.933 152.069C172.063 152.415 172.128 152.811 172.128 153.259V153.692H167.388V152.683H170.513C170.51 152.499 170.466 152.334 170.381 152.19C170.296 152.045 170.179 151.933 170.03 151.852C169.883 151.769 169.714 151.728 169.522 151.728C169.328 151.728 169.154 151.772 169 151.859C168.846 151.945 168.724 152.062 168.634 152.211C168.544 152.358 168.497 152.525 168.492 152.712V153.738C168.492 153.96 168.536 154.156 168.623 154.324C168.711 154.49 168.835 154.619 168.996 154.711C169.157 154.803 169.349 154.849 169.572 154.849C169.725 154.849 169.865 154.828 169.991 154.786C170.116 154.743 170.224 154.68 170.314 154.597C170.404 154.514 170.471 154.413 170.516 154.292L172.111 154.338C172.044 154.696 171.899 155.007 171.674 155.272C171.451 155.535 171.159 155.74 170.797 155.886C170.434 156.031 170.015 156.103 169.54 156.103ZM175.007 156.078C174.605 156.078 174.239 155.974 173.91 155.766C173.581 155.557 173.318 155.245 173.122 154.828C172.925 154.411 172.827 153.894 172.827 153.276C172.827 152.635 172.929 152.107 173.132 151.692C173.336 151.278 173.602 150.972 173.931 150.773C174.263 150.574 174.619 150.474 175 150.474C175.287 150.474 175.532 150.524 175.735 150.624C175.939 150.721 176.107 150.846 176.24 151C176.372 151.154 176.473 151.314 176.542 151.479H176.577V148.727H178.314V156H176.595V155.116H176.542C176.468 155.284 176.364 155.441 176.229 155.588C176.094 155.735 175.925 155.853 175.721 155.943C175.52 156.033 175.282 156.078 175.007 156.078ZM175.611 154.725C175.822 154.725 176.002 154.666 176.151 154.548C176.3 154.427 176.415 154.258 176.495 154.04C176.576 153.822 176.616 153.566 176.616 153.273C176.616 152.974 176.576 152.718 176.495 152.502C176.417 152.287 176.302 152.121 176.151 152.005C176.002 151.889 175.822 151.831 175.611 151.831C175.396 151.831 175.213 151.89 175.064 152.009C174.915 152.127 174.801 152.294 174.723 152.509C174.648 152.725 174.61 152.979 174.61 153.273C174.61 153.566 174.649 153.822 174.727 154.04C174.805 154.258 174.917 154.427 175.064 154.548C175.213 154.666 175.396 154.725 175.611 154.725Z" fill="#FFFDF7"/>
<g filter="url(#filter5_d_2823_152)">
<rect x="196" y="90" width="80" height="30" rx="10" fill="#00A0FF"/>
</g>
<path d="M226.651 109V107.736L229.304 105.413C229.503 105.233 229.672 105.069 229.812 104.92C229.952 104.768 230.058 104.617 230.132 104.465C230.205 104.311 230.242 104.144 230.242 103.964C230.242 103.763 230.198 103.592 230.11 103.45C230.023 103.305 229.902 103.194 229.748 103.116C229.594 103.038 229.418 102.999 229.219 102.999C229.018 102.999 228.841 103.04 228.69 103.123C228.538 103.203 228.42 103.321 228.335 103.474C228.252 103.628 228.21 103.815 228.21 104.036H226.545C226.545 103.541 226.656 103.113 226.879 102.754C227.101 102.394 227.414 102.117 227.816 101.923C228.221 101.726 228.691 101.628 229.226 101.628C229.778 101.628 230.257 101.72 230.664 101.905C231.071 102.089 231.386 102.348 231.609 102.679C231.834 103.008 231.946 103.39 231.946 103.826C231.946 104.103 231.891 104.378 231.779 104.65C231.668 104.922 231.468 105.223 231.179 105.552C230.893 105.881 230.485 106.275 229.958 106.734L229.088 107.537V107.583H232.035V109H226.651ZM234.815 108.006L234.783 108.4C234.754 108.727 234.696 109.045 234.609 109.355C234.523 109.668 234.432 109.948 234.335 110.197C234.238 110.445 234.161 110.638 234.104 110.776H233.011C233.049 110.638 233.099 110.445 233.163 110.197C233.23 109.948 233.291 109.668 233.348 109.355C233.405 109.043 233.437 108.725 233.444 108.403L233.451 108.006H234.815ZM236.134 109V107.736L238.787 105.413C238.985 105.233 239.155 105.069 239.294 104.92C239.434 104.768 239.541 104.617 239.614 104.465C239.687 104.311 239.724 104.144 239.724 103.964C239.724 103.763 239.68 103.592 239.593 103.45C239.505 103.305 239.384 103.194 239.23 103.116C239.077 103.038 238.9 102.999 238.701 102.999C238.5 102.999 238.324 103.04 238.172 103.123C238.021 103.203 237.902 103.321 237.817 103.474C237.734 103.628 237.693 103.815 237.693 104.036H236.027C236.027 103.541 236.139 103.113 236.361 102.754C236.584 102.394 236.896 102.117 237.299 101.923C237.703 101.726 238.173 101.628 238.708 101.628C239.26 101.628 239.739 101.72 240.147 101.905C240.554 102.089 240.869 102.348 241.091 102.679C241.316 103.008 241.429 103.39 241.429 103.826C241.429 104.103 241.373 104.378 241.262 104.65C241.15 104.922 240.95 105.223 240.662 105.552C240.375 105.881 239.968 106.275 239.44 106.734L238.57 107.537V107.583H241.517V109H236.134ZM242.82 109L245.753 103.19V103.144H242.323V101.727H247.571V103.155L244.627 109H242.82ZM249.04 109L251.974 103.19V103.144H248.543V101.727H253.792V103.155L250.848 109H249.04ZM254.498 109.103C254.242 109.103 254.023 109.013 253.841 108.833C253.661 108.653 253.572 108.435 253.574 108.18C253.572 107.929 253.661 107.714 253.841 107.537C254.023 107.357 254.242 107.267 254.498 107.267C254.739 107.267 254.952 107.357 255.137 107.537C255.324 107.714 255.419 107.929 255.421 108.18C255.419 108.35 255.374 108.505 255.286 108.645C255.201 108.785 255.088 108.896 254.949 108.979C254.811 109.062 254.661 109.103 254.498 109.103ZM259.249 109.178C258.615 109.178 258.068 109.027 257.608 108.727C257.149 108.424 256.795 107.989 256.547 107.423C256.298 106.855 256.175 106.172 256.177 105.374C256.18 104.576 256.304 103.899 256.55 103.343C256.799 102.784 257.152 102.359 257.608 102.068C258.068 101.775 258.615 101.628 259.249 101.628C259.884 101.628 260.43 101.775 260.89 102.068C261.351 102.359 261.706 102.784 261.955 103.343C262.204 103.902 262.327 104.579 262.324 105.374C262.324 106.174 262.2 106.859 261.952 107.427C261.703 107.995 261.349 108.429 260.89 108.73C260.433 109.028 259.886 109.178 259.249 109.178ZM259.249 107.739C259.628 107.739 259.934 107.546 260.169 107.161C260.403 106.772 260.519 106.177 260.517 105.374C260.517 104.849 260.464 104.415 260.357 104.075C260.251 103.731 260.103 103.476 259.913 103.308C259.724 103.139 259.502 103.055 259.249 103.055C258.873 103.055 258.568 103.246 258.336 103.627C258.104 104.006 257.987 104.588 257.985 105.374C257.983 105.907 258.033 106.348 258.138 106.699C258.244 107.049 258.393 107.311 258.585 107.484C258.777 107.654 258.998 107.739 259.249 107.739ZM266.339 109.178C265.704 109.178 265.158 109.027 264.698 108.727C264.239 108.424 263.885 107.989 263.637 107.423C263.388 106.855 263.265 106.172 263.267 105.374C263.27 104.576 263.394 103.899 263.64 103.343C263.889 102.784 264.241 102.359 264.698 102.068C265.158 101.775 265.704 101.628 266.339 101.628C266.973 101.628 267.52 101.775 267.98 102.068C268.441 102.359 268.796 102.784 269.045 103.343C269.294 103.902 269.417 104.579 269.414 105.374C269.414 106.174 269.29 106.859 269.041 107.427C268.793 107.995 268.439 108.429 267.98 108.73C267.523 109.028 266.976 109.178 266.339 109.178ZM266.339 107.739C266.718 107.739 267.024 107.546 267.259 107.161C267.493 106.772 267.609 106.177 267.607 105.374C267.607 104.849 267.553 104.415 267.447 104.075C267.34 103.731 267.192 103.476 267.003 103.308C266.814 103.139 266.592 103.055 266.339 103.055C265.963 103.055 265.658 103.246 265.426 103.627C265.194 104.006 265.077 104.588 265.075 105.374C265.072 105.907 265.123 106.348 265.227 106.699C265.334 107.049 265.483 107.311 265.675 107.484C265.867 107.654 266.088 107.739 266.339 107.739Z" fill="#FFFDF7"/>
<g clip-path="url(#clip0_2823_152)">
<path d="M208 111.853C211.785 111.853 214.854 108.784 214.854 104.999C214.854 101.213 211.785 98.1445 208 98.1445C204.214 98.1445 201.146 101.213 201.146 104.999C201.146 108.784 204.214 111.853 208 111.853Z" fill="#0B53BF"/>
<path d="M209.233 100.008V100.89C210.994 101.421 212.284 103.058 212.284 104.999C212.284 106.939 210.994 108.576 209.233 109.107V109.989C211.478 109.441 213.14 107.415 213.14 104.999C213.14 102.582 211.478 100.556 209.233 100.008Z" fill="white"/>
<path d="M203.716 104.999C203.716 103.058 205.006 101.421 206.766 100.89V100.008C204.522 100.556 202.859 102.582 202.859 104.999C202.859 107.415 204.522 109.441 206.766 109.989V109.107C205.006 108.58 203.716 106.939 203.716 104.999Z" fill="white"/>
<path d="M209.843 105.954C209.843 104.202 207.097 104.922 207.097 103.953C207.097 103.606 207.375 103.384 207.906 103.384C208.54 103.384 208.759 103.692 208.827 104.108H209.701C209.623 103.328 209.176 102.835 208.429 102.689V102H207.572V102.664C206.754 102.768 206.24 103.245 206.24 103.953C206.24 105.714 208.99 105.054 208.99 106.005C208.99 106.365 208.643 106.605 208.056 106.605C207.289 106.605 207.037 106.267 206.942 105.8H206.09C206.145 106.654 206.672 107.189 207.572 107.322V107.997H208.429V107.331C209.307 107.217 209.843 106.706 209.843 105.954Z" fill="white"/>
</g>
<g filter="url(#filter6_d_2823_152)">
<rect x="111" y="89" width="80" height="30" rx="10" fill="#00A0FF"/>
</g>
<path d="M157.698 107.178C157.064 107.178 156.517 107.027 156.058 106.727C155.598 106.424 155.244 105.989 154.996 105.423C154.747 104.855 154.624 104.172 154.627 103.374C154.629 102.576 154.753 101.899 154.999 101.343C155.248 100.784 155.601 100.359 156.058 100.068C156.517 99.7746 157.064 99.6278 157.698 99.6278C158.333 99.6278 158.88 99.7746 159.339 100.068C159.801 100.359 160.156 100.784 160.404 101.343C160.653 101.902 160.776 102.579 160.774 103.374C160.774 104.174 160.649 104.859 160.401 105.427C160.152 105.995 159.798 106.429 159.339 106.73C158.882 107.028 158.335 107.178 157.698 107.178ZM157.698 105.739C158.077 105.739 158.384 105.546 158.618 105.161C158.852 104.772 158.968 104.177 158.966 103.374C158.966 102.849 158.913 102.415 158.806 102.075C158.7 101.731 158.552 101.476 158.362 101.308C158.173 101.139 157.952 101.055 157.698 101.055C157.322 101.055 157.018 101.246 156.786 101.627C156.554 102.006 156.436 102.588 156.434 103.374C156.432 103.907 156.483 104.348 156.587 104.699C156.693 105.049 156.843 105.311 157.034 105.484C157.226 105.654 157.447 105.739 157.698 105.739ZM162.459 107.103C162.203 107.103 161.984 107.013 161.802 106.833C161.622 106.653 161.533 106.435 161.535 106.18C161.533 105.929 161.622 105.714 161.802 105.537C161.984 105.357 162.203 105.267 162.459 105.267C162.7 105.267 162.913 105.357 163.098 105.537C163.285 105.714 163.38 105.929 163.382 106.18C163.38 106.35 163.335 106.505 163.247 106.645C163.162 106.785 163.049 106.896 162.91 106.979C162.772 107.062 162.622 107.103 162.459 107.103ZM167.21 107.178C166.576 107.178 166.029 107.027 165.569 106.727C165.11 106.424 164.756 105.989 164.508 105.423C164.259 104.855 164.136 104.172 164.138 103.374C164.141 102.576 164.265 101.899 164.511 101.343C164.76 100.784 165.113 100.359 165.569 100.068C166.029 99.7746 166.576 99.6278 167.21 99.6278C167.845 99.6278 168.391 99.7746 168.851 100.068C169.312 100.359 169.667 100.784 169.916 101.343C170.165 101.902 170.288 102.579 170.285 103.374C170.285 104.174 170.161 104.859 169.912 105.427C169.664 105.995 169.31 106.429 168.851 106.73C168.394 107.028 167.847 107.178 167.21 107.178ZM167.21 105.739C167.589 105.739 167.895 105.546 168.13 105.161C168.364 104.772 168.48 104.177 168.478 103.374C168.478 102.849 168.425 102.415 168.318 102.075C168.211 101.731 168.064 101.476 167.874 101.308C167.685 101.139 167.463 101.055 167.21 101.055C166.834 101.055 166.529 101.246 166.297 101.627C166.065 102.006 165.948 102.588 165.946 103.374C165.943 103.907 165.994 104.348 166.099 104.699C166.205 105.049 166.354 105.311 166.546 105.484C166.738 105.654 166.959 105.739 167.21 105.739ZM174.3 107.178C173.665 107.178 173.119 107.027 172.659 106.727C172.2 106.424 171.846 105.989 171.597 105.423C171.349 104.855 171.226 104.172 171.228 103.374C171.231 102.576 171.355 101.899 171.601 101.343C171.85 100.784 172.202 100.359 172.659 100.068C173.119 99.7746 173.665 99.6278 174.3 99.6278C174.934 99.6278 175.481 99.7746 175.941 100.068C176.402 100.359 176.757 100.784 177.006 101.343C177.254 101.902 177.378 102.579 177.375 103.374C177.375 104.174 177.251 104.859 177.002 105.427C176.754 105.995 176.4 106.429 175.941 106.73C175.484 107.028 174.937 107.178 174.3 107.178ZM174.3 105.739C174.679 105.739 174.985 105.546 175.22 105.161C175.454 104.772 175.57 104.177 175.568 103.374C175.568 102.849 175.514 102.415 175.408 102.075C175.301 101.731 175.153 101.476 174.964 101.308C174.775 101.139 174.553 101.055 174.3 101.055C173.923 101.055 173.619 101.246 173.387 101.627C173.155 102.006 173.038 102.588 173.036 103.374C173.033 103.907 173.084 104.348 173.188 104.699C173.295 105.049 173.444 105.311 173.636 105.484C173.828 105.654 174.049 105.739 174.3 105.739Z" fill="#FFFDF7"/>
<g clip-path="url(#clip1_2823_152)">
<mask id="mask0_2823_152" style="mask-type:luminance" maskUnits="userSpaceOnUse" x="116" y="97" width="14" height="14">
<path d="M130 97H116V111H130V97Z" fill="white"/>
</mask>
<g mask="url(#mask0_2823_152)">
<path d="M123 111C126.866 111 130 107.866 130 104C130 100.134 126.866 97 123 97C119.134 97 116 100.134 116 104C116 107.866 119.134 111 123 111Z" fill="#0B53BF"/>
<path d="M124.488 105.667C124.182 105.789 123.849 105.859 123.53 105.859C122.897 105.859 122.301 105.59 122.016 104.941H123.407L123.678 104.284H121.854C121.845 104.194 121.841 104.099 121.841 104C121.841 103.901 121.845 103.806 121.854 103.716H123.91L124.182 103.059H122.016C122.301 102.41 122.897 102.141 123.53 102.141C123.849 102.141 124.182 102.211 124.488 102.333L124.768 101.668C124.392 101.471 123.967 101.375 123.543 101.375C122.518 101.375 121.483 101.948 121.108 103.059H120.437V103.716H120.974C120.966 103.808 120.962 103.903 120.962 104C120.962 104.097 120.966 104.192 120.974 104.284H120.437V104.941H121.108C121.483 106.052 122.518 106.625 123.543 106.625C123.967 106.625 124.392 106.529 124.768 106.332L124.488 105.667Z" fill="white" stroke="#0B53BF" stroke-width="0.03" stroke-miterlimit="10"/>
<path d="M118.625 103.999C118.625 102.017 119.942 100.346 121.74 99.8036V98.9023C119.447 99.4623 117.75 101.532 117.75 103.999C117.75 106.467 119.447 108.536 121.74 109.096V108.195C119.942 107.657 118.625 105.981 118.625 103.999Z" fill="white" stroke="#0B53BF" stroke-width="0.03" stroke-miterlimit="10"/>
<path d="M124.26 98.9023V99.8036C126.058 100.346 127.375 102.017 127.375 103.999C127.375 105.981 126.058 107.652 124.26 108.195V109.096C126.552 108.536 128.25 106.467 128.25 103.999C128.25 101.532 126.552 99.4623 124.26 98.9023Z" fill="white" stroke="#0B53BF" stroke-width="0.03" stroke-miterlimit="10"/>
</g>
</g>
<g filter="url(#filter7_d_2823_152)">
<rect x="26" y="89" width="80" height="30" rx="10" fill="#585B68"/>
</g>
<path d="M70.1626 108L73.0958 102.19V102.144H69.6654V100.727H74.914V102.155L71.9701 108H70.1626ZM75.6198 108.103C75.3641 108.103 75.1451 108.013 74.9628 107.833C74.7829 107.653 74.6941 107.435 74.6965 107.18C74.6941 106.929 74.7829 106.714 74.9628 106.537C75.1451 106.357 75.3641 106.267 75.6198 106.267C75.8612 106.267 76.0743 106.357 76.259 106.537C76.446 106.714 76.5407 106.929 76.5431 107.18C76.5407 107.35 76.4957 107.505 76.4081 107.645C76.3229 107.785 76.2104 107.896 76.0708 107.979C75.9334 108.062 75.7831 108.103 75.6198 108.103ZM80.2575 100.628C80.6553 100.628 81.0352 100.693 81.3975 100.823C81.7597 100.951 82.0828 101.156 82.3669 101.438C82.651 101.717 82.8747 102.085 83.0381 102.542C83.2014 102.999 83.2831 103.556 83.2831 104.214C83.2855 104.821 83.2145 105.364 83.07 105.844C82.9256 106.323 82.7185 106.73 82.4486 107.066C82.1811 107.402 81.8591 107.659 81.4827 107.837C81.1063 108.012 80.686 108.099 80.222 108.099C79.7107 108.099 79.2597 108.001 78.8691 107.805C78.4808 107.606 78.1695 107.338 77.9351 107.002C77.7031 106.666 77.5646 106.29 77.5196 105.873H79.249C79.3035 106.114 79.4183 106.297 79.5935 106.42C79.7687 106.54 79.9782 106.601 80.222 106.601C80.6671 106.601 80.9997 106.408 81.2199 106.022C81.4401 105.636 81.5502 105.112 81.5502 104.449H81.5075C81.4057 104.667 81.2613 104.854 81.0743 105.01C80.8896 105.166 80.6754 105.286 80.4316 105.369C80.1877 105.451 79.9308 105.493 79.661 105.493C79.2253 105.493 78.8406 105.393 78.5068 105.195C78.1754 104.996 77.915 104.722 77.7256 104.374C77.5386 104.026 77.4439 103.629 77.4415 103.181C77.4391 102.679 77.5563 102.237 77.7931 101.853C78.0298 101.467 78.3601 101.166 78.7838 100.951C79.2076 100.733 79.6988 100.625 80.2575 100.628ZM80.2682 101.977C80.0504 101.977 79.8563 102.028 79.6858 102.13C79.5177 102.232 79.3852 102.369 79.2881 102.542C79.191 102.715 79.1437 102.909 79.146 103.124C79.1484 103.34 79.1969 103.534 79.2916 103.707C79.3887 103.879 79.5201 104.017 79.6858 104.119C79.8539 104.22 80.0457 104.271 80.2611 104.271C80.4221 104.271 80.5712 104.242 80.7085 104.183C80.8459 104.123 80.9654 104.042 81.0672 103.938C81.169 103.831 81.2483 103.708 81.3051 103.568C81.3643 103.429 81.3927 103.279 81.3904 103.121C81.388 102.91 81.3383 102.718 81.2412 102.545C81.1441 102.373 81.0104 102.235 80.8399 102.134C80.6718 102.029 80.4813 101.977 80.2682 101.977ZM87.6111 100.727V108H85.8568V102.368H85.8142L84.1878 103.362V101.842L85.9811 100.727H87.6111Z" fill="#FFFDF7"/>
<g clip-path="url(#clip2_2823_152)">
<circle cx="37.65" cy="103.65" r="6.65" fill="#393939"/>
<g clip-path="url(#clip3_2823_152)">
<path d="M40.941 105.42L39.8432 106.579C39.8193 106.605 39.7904 106.625 39.7583 106.638C39.7263 106.652 39.6916 106.659 39.6567 106.659H34.4526C34.4278 106.659 34.4035 106.652 34.3828 106.639C34.362 106.625 34.3457 106.606 34.3358 106.584C34.3259 106.561 34.3228 106.536 34.327 106.512C34.3313 106.488 34.3425 106.466 34.3595 106.448L35.4581 105.288C35.4819 105.263 35.5107 105.243 35.5426 105.229C35.5746 105.216 35.6091 105.209 35.644 105.208H40.8478C40.8726 105.208 40.8969 105.216 40.9177 105.229C40.9384 105.242 40.9547 105.262 40.9647 105.284C40.9745 105.306 40.9776 105.331 40.9734 105.355C40.9691 105.379 40.9579 105.402 40.941 105.42ZM39.8432 103.084C39.8193 103.059 39.7904 103.039 39.7583 103.025C39.7263 103.012 39.6916 103.005 39.6567 103.005H34.4526C34.4278 103.005 34.4035 103.012 34.3828 103.025C34.362 103.039 34.3457 103.058 34.3358 103.08C34.3259 103.103 34.3228 103.127 34.327 103.151C34.3313 103.176 34.3425 103.198 34.3595 103.216L35.4581 104.375C35.4819 104.401 35.5107 104.421 35.5426 104.434C35.5746 104.448 35.6091 104.455 35.644 104.455H40.8478C40.8726 104.455 40.8969 104.448 40.9177 104.435C40.9384 104.421 40.9547 104.402 40.9647 104.38C40.9745 104.357 40.9776 104.333 40.9734 104.308C40.9691 104.284 40.9579 104.262 40.941 104.244L39.8432 103.084ZM34.4526 102.251H39.6567C39.6916 102.251 39.7263 102.244 39.7583 102.231C39.7904 102.217 39.8193 102.197 39.8432 102.172L40.941 101.012C40.9579 100.994 40.9691 100.972 40.9734 100.948C40.9776 100.924 40.9745 100.899 40.9647 100.876C40.9547 100.854 40.9384 100.835 40.9177 100.821C40.8969 100.808 40.8726 100.801 40.8478 100.801H35.644C35.6091 100.801 35.5746 100.808 35.5426 100.822C35.5107 100.835 35.4819 100.855 35.4581 100.881L34.3597 102.04C34.3428 102.058 34.3316 102.08 34.3273 102.105C34.3231 102.129 34.3261 102.153 34.336 102.176C34.3458 102.198 34.3621 102.217 34.3829 102.231C34.4036 102.244 34.4278 102.251 34.4526 102.251Z" fill="white"/>
</g>
</g>
<g filter="url(#filter8_d_2823_152)">
<rect x="26" y="52" width="250" height="30" rx="10" fill="url(#paint1_linear_2823_152)"/>
</g>
<g clip-path="url(#clip4_2823_152)">
<path d="M256.857 63.482L259.735 66.3602C259.904 66.5289 260 66.7609 260 67C260 67.2391 259.904 67.4711 259.735 67.6398L256.857 70.518C256.707 70.668 256.505 70.75 256.295 70.75C255.856 70.75 255.5 70.3937 255.5 69.9555V68.5H252.5C252.085 68.5 251.75 68.1648 251.75 67.75V66.25C251.75 65.8352 252.085 65.5 252.5 65.5H255.5V64.0445C255.5 63.6062 255.856 63.25 256.295 63.25C256.505 63.25 256.707 63.3344 256.857 63.482ZM251.75 63.25H250.25C249.835 63.25 249.5 63.5852 249.5 64V70C249.5 70.4148 249.835 70.75 250.25 70.75H251.75C252.165 70.75 252.5 71.0852 252.5 71.5C252.5 71.9148 252.165 72.25 251.75 72.25H250.25C249.008 72.25 248 71.2422 248 70V64C248 62.7578 249.008 61.75 250.25 61.75H251.75C252.165 61.75 252.5 62.0852 252.5 62.5C252.5 62.9148 252.165 63.25 251.75 63.25Z" fill="#00A0FF"/>
</g>
<path d="M48.516 71H45.8278V63.7273H48.5124C49.2534 63.7273 49.8915 63.8729 50.4265 64.1641C50.9639 64.4529 51.3782 64.8696 51.6694 65.4141C51.9606 65.9562 52.1062 66.6049 52.1062 67.3601C52.1062 68.1177 51.9606 68.7687 51.6694 69.3132C51.3806 69.8577 50.9674 70.2756 50.43 70.5668C49.8926 70.8556 49.2546 71 48.516 71ZM47.5856 69.5014H48.4485C48.8557 69.5014 49.2002 69.4328 49.4819 69.2955C49.766 69.1558 49.9802 68.9297 50.1246 68.6172C50.2714 68.3023 50.3448 67.8833 50.3448 67.3601C50.3448 66.8369 50.2714 66.4202 50.1246 66.1101C49.9779 65.7976 49.7612 65.5727 49.4748 65.4354C49.1907 65.2957 48.8403 65.2259 48.4237 65.2259H47.5856V69.5014ZM53.1325 71V63.7273H54.869V66.4794H54.9045C54.9755 66.3137 55.0761 66.1539 55.2063 66C55.3389 65.8461 55.507 65.7206 55.7106 65.6236C55.9165 65.5241 56.1628 65.4744 56.4492 65.4744C56.828 65.4744 57.1819 65.5739 57.511 65.7727C57.8424 65.9716 58.11 66.2782 58.3136 66.6925C58.5172 67.1068 58.619 67.6347 58.619 68.2763C58.619 68.8942 58.5207 69.4115 58.3242 69.8281C58.1301 70.2448 57.8673 70.5573 57.5359 70.7656C57.2068 70.974 56.841 71.0781 56.4386 71.0781C56.1639 71.0781 55.926 71.0331 55.7248 70.9432C55.5236 70.8532 55.3543 70.7348 55.217 70.5881C55.082 70.4413 54.9779 70.2839 54.9045 70.1158H54.8512V71H53.1325ZM54.8335 68.2727C54.8335 68.5663 54.8725 68.822 54.9506 69.0398C55.0311 69.2576 55.146 69.4268 55.2951 69.5476C55.4466 69.666 55.6277 69.7251 55.8384 69.7251C56.0515 69.7251 56.2326 69.666 56.3817 69.5476C56.5309 69.4268 56.6433 69.2576 56.7191 69.0398C56.7972 68.822 56.8363 68.5663 56.8363 68.2727C56.8363 67.9792 56.7972 67.7247 56.7191 67.5092C56.6433 67.2938 56.5309 67.1269 56.3817 67.0085C56.235 66.8902 56.0539 66.831 55.8384 66.831C55.6254 66.831 55.4442 66.889 55.2951 67.005C55.146 67.121 55.0311 67.2867 54.9506 67.5021C54.8725 67.7176 54.8335 67.9744 54.8335 68.2727ZM60.7603 71H58.8711L61.3249 63.7273H63.6651L66.119 71H64.2298L62.5217 65.5597H62.4648L60.7603 71ZM60.5082 68.1378H64.457V69.473H60.5082V68.1378ZM70.122 73.0455V70.1158H70.0865C70.0131 70.2839 69.9089 70.4413 69.774 70.5881C69.639 70.7348 69.4698 70.8532 69.2662 70.9432C69.0649 71.0331 68.827 71.0781 68.5524 71.0781C68.1499 71.0781 67.7842 70.974 67.4551 70.7656C67.126 70.5573 66.8632 70.2448 66.6667 69.8281C66.4702 69.4115 66.372 68.8942 66.372 68.2763C66.372 67.6347 66.4738 67.1068 66.6774 66.6925C66.881 66.2782 67.1473 65.9716 67.4764 65.7727C67.8078 65.5739 68.1641 65.4744 68.5453 65.4744C68.8317 65.4744 69.0768 65.5241 69.2804 65.6236C69.484 65.7206 69.652 65.8461 69.7846 66C69.9172 66.1539 70.0178 66.3137 70.0865 66.4794H70.1397V65.5455H71.8585V73.0455H70.122ZM69.1561 69.7251C69.3668 69.7251 69.5467 69.666 69.6958 69.5476C69.845 69.4268 69.9598 69.2576 70.0403 69.0398C70.1208 68.822 70.161 68.5663 70.161 68.2727C70.161 67.9744 70.1208 67.7176 70.0403 67.5021C69.9622 67.2867 69.8474 67.121 69.6958 67.005C69.5467 66.889 69.3668 66.831 69.1561 66.831C68.9406 66.831 68.7583 66.8902 68.6092 67.0085C68.46 67.1269 68.3464 67.2938 68.2683 67.5092C68.1925 67.7247 68.1547 67.9792 68.1547 68.2727C68.1547 68.5663 68.1937 68.822 68.2718 69.0398C68.35 69.2576 68.4624 69.4268 68.6092 69.5476C68.7583 69.666 68.9406 69.7251 69.1561 69.7251ZM75.858 71.0994C75.4602 71.0994 75.0791 71.0355 74.7145 70.9077C74.3499 70.7775 74.0256 70.5715 73.7415 70.2898C73.4574 70.0057 73.2337 69.634 73.0703 69.1747C72.907 68.7131 72.8265 68.1508 72.8288 67.4879C72.8312 66.889 72.9046 66.3516 73.049 65.8757C73.1934 65.3975 73.3994 64.9915 73.6669 64.6577C73.9368 64.3239 74.2588 64.0694 74.6328 63.8942C75.0092 63.7166 75.4295 63.6278 75.8935 63.6278C76.4025 63.6278 76.8511 63.7273 77.2393 63.9261C77.63 64.1226 77.9425 64.3878 78.1768 64.7216C78.4112 65.053 78.5497 65.4223 78.5923 65.8295H76.8629C76.8108 65.5999 76.696 65.4259 76.5185 65.3075C76.3433 65.1868 76.1349 65.1264 75.8935 65.1264C75.4484 65.1264 75.1158 65.3194 74.8956 65.7053C74.6778 66.0911 74.5665 66.6072 74.5618 67.2536H74.608C74.7074 67.0357 74.8506 66.8487 75.0376 66.6925C75.2247 66.5362 75.4389 66.4167 75.6804 66.3338C75.9242 66.2486 76.1823 66.206 76.4545 66.206C76.8902 66.206 77.2749 66.3066 77.6087 66.5078C77.9425 66.709 78.2041 66.9848 78.3935 67.3352C78.5829 67.6832 78.6764 68.0821 78.674 68.532C78.6764 69.0386 78.558 69.486 78.3189 69.8743C78.0798 70.2602 77.7483 70.5608 77.3246 70.7763C76.9032 70.9917 76.4143 71.0994 75.858 71.0994ZM75.8473 69.75C76.0627 69.75 76.2557 69.6991 76.4261 69.5973C76.5966 69.4955 76.7304 69.357 76.8274 69.1818C76.9245 69.0066 76.9718 68.8089 76.9695 68.5888C76.9718 68.3662 76.9245 68.1686 76.8274 67.9957C76.7327 67.8229 76.6001 67.6856 76.4297 67.5838C76.2616 67.482 76.0687 67.4311 75.8509 67.4311C75.6922 67.4311 75.5443 67.4607 75.407 67.5199C75.2696 67.5791 75.1501 67.6619 75.0483 67.7685C74.9489 67.8726 74.8707 67.9957 74.8139 68.1378C74.7571 68.2775 74.7275 68.429 74.7251 68.5923C74.7275 68.8078 74.7772 69.0031 74.8743 69.1783C74.9714 69.3535 75.1039 69.4931 75.272 69.5973C75.4401 69.6991 75.6319 69.75 75.8473 69.75ZM79.6994 71V70.0092L82.2278 66.9304V66.8949H79.7882V65.5455H84.2981V66.6321L81.9544 69.6151V69.6506H84.3833V71H79.6994ZM88.2576 71.0994C87.7037 71.0994 87.2124 71.0047 86.7839 70.8153C86.3578 70.6236 86.0216 70.3596 85.7754 70.0234C85.5292 69.6873 85.4037 69.3002 85.399 68.8622H87.1674C87.1745 69.0208 87.2254 69.1617 87.3201 69.2848C87.4148 69.4055 87.5439 69.5002 87.7072 69.5689C87.8706 69.6375 88.0564 69.6719 88.2647 69.6719C88.4731 69.6719 88.6565 69.6352 88.8152 69.5618C88.9761 69.486 89.1016 69.383 89.1916 69.2528C89.2815 69.1203 89.3253 68.9687 89.323 68.7983C89.3253 68.6278 89.2768 68.4763 89.1774 68.3438C89.0779 68.2112 88.9371 68.1082 88.7548 68.0348C88.5749 67.9614 88.3618 67.9247 88.1156 67.9247H87.4089V66.6747H88.1156C88.331 66.6747 88.5204 66.6392 88.6838 66.5682C88.8495 66.4972 88.9785 66.3977 89.0708 66.2699C89.1632 66.1397 89.2082 65.9905 89.2058 65.8224C89.2082 65.6591 89.1691 65.5159 89.0886 65.3928C89.0105 65.2673 88.9004 65.1702 88.7583 65.1016C88.6187 65.0329 88.4565 64.9986 88.2718 64.9986C88.0777 64.9986 87.9013 65.0329 87.7427 65.1016C87.5865 65.1702 87.4622 65.2673 87.3699 65.3928C87.2775 65.5182 87.229 65.6638 87.2243 65.8295H85.5446C85.5493 65.3963 85.67 65.0152 85.9068 64.6861C86.1435 64.3546 86.4655 64.0954 86.8727 63.9084C87.2823 63.7214 87.7486 63.6278 88.2718 63.6278C88.7927 63.6278 89.2508 63.719 89.6461 63.9013C90.0415 64.0836 90.3493 64.3321 90.5694 64.647C90.7896 64.9595 90.8997 65.3134 90.8997 65.7088C90.902 66.1184 90.7683 66.4557 90.4984 66.7209C90.2309 66.986 89.8864 67.1494 89.465 67.2109V67.2678C90.0285 67.334 90.4534 67.5163 90.7399 67.8146C91.0287 68.1129 91.1719 68.4858 91.1696 68.9332C91.1696 69.3546 91.0453 69.7287 90.7967 70.0554C90.5505 70.3797 90.2072 70.6354 89.7669 70.8224C89.3289 71.0071 88.8258 71.0994 88.2576 71.0994ZM95.2543 65.5455V66.8239H91.8132V65.5455H95.2543ZM92.5341 64.2386H94.2706V69.2848C94.2706 69.3913 94.2872 69.4777 94.3203 69.544C94.3558 69.608 94.4067 69.6541 94.473 69.6825C94.5393 69.7086 94.6186 69.7216 94.7109 69.7216C94.7772 69.7216 94.8471 69.7157 94.9205 69.7038C94.9962 69.6896 95.053 69.6778 95.0909 69.6683L95.3537 70.9219C95.2708 70.9455 95.1536 70.9751 95.0021 71.0107C94.853 71.0462 94.6742 71.0687 94.4659 71.0781C94.0587 71.0971 93.7095 71.0497 93.4183 70.9361C93.1295 70.8201 92.9081 70.6402 92.7543 70.3963C92.6027 70.1525 92.5294 69.8459 92.5341 69.4766V64.2386ZM99.0948 63.7273H100.828V68.7557C100.825 69.2268 100.713 69.6387 100.49 69.9915C100.268 70.3419 99.9601 70.6141 99.5671 70.8082C99.1765 71.0024 98.7243 71.0994 98.2106 71.0994C97.756 71.0994 97.3429 71.0201 96.9712 70.8615C96.6019 70.7029 96.3072 70.4567 96.087 70.1229C95.8692 69.7891 95.7615 69.3617 95.7638 68.8409H97.5146C97.5217 69.0279 97.5572 69.1877 97.6211 69.3203C97.6874 69.4505 97.7785 69.5488 97.8945 69.6151C98.0105 69.6813 98.149 69.7145 98.31 69.7145C98.4781 69.7145 98.6201 69.679 98.7362 69.608C98.8522 69.5346 98.9397 69.4268 98.9989 69.2848C99.0605 69.1428 99.0924 68.9664 99.0948 68.7557V63.7273ZM103.668 67.8892V71H101.931V65.5455H103.583V66.5469H103.643C103.764 66.2131 103.97 65.9515 104.261 65.7621C104.552 65.5703 104.899 65.4744 105.301 65.4744C105.685 65.4744 106.017 65.5608 106.299 65.7337C106.583 65.9041 106.803 66.1432 106.96 66.451C107.118 66.7564 107.196 67.1139 107.194 67.5234V71H105.458V67.8643C105.46 67.5613 105.383 67.3246 105.227 67.1541C105.073 66.9837 104.859 66.8984 104.584 66.8984C104.402 66.8984 104.241 66.9387 104.101 67.0192C103.964 67.0973 103.857 67.2098 103.781 67.3565C103.708 67.5033 103.67 67.6809 103.668 67.8892ZM109.246 71.103C108.99 71.103 108.771 71.013 108.589 70.8331C108.409 70.6532 108.32 70.4354 108.322 70.1797C108.32 69.9287 108.409 69.7145 108.589 69.5369C108.771 69.357 108.99 69.267 109.246 69.267C109.487 69.267 109.7 69.357 109.885 69.5369C110.072 69.7145 110.167 69.9287 110.169 70.1797C110.167 70.3501 110.122 70.5052 110.034 70.6449C109.949 70.7846 109.836 70.8958 109.697 70.9787C109.559 71.0616 109.409 71.103 109.246 71.103ZM112.293 71.103C112.037 71.103 111.818 71.013 111.636 70.8331C111.456 70.6532 111.367 70.4354 111.369 70.1797C111.367 69.9287 111.456 69.7145 111.636 69.5369C111.818 69.357 112.037 69.267 112.293 69.267C112.534 69.267 112.747 69.357 112.932 69.5369C113.119 69.7145 113.214 69.9287 113.216 70.1797C113.214 70.3501 113.169 70.5052 113.081 70.6449C112.996 70.7846 112.883 70.8958 112.744 70.9787C112.606 71.0616 112.456 71.103 112.293 71.103ZM115.339 71.103C115.084 71.103 114.865 71.013 114.683 70.8331C114.503 70.6532 114.414 70.4354 114.416 70.1797C114.414 69.9287 114.503 69.7145 114.683 69.5369C114.865 69.357 115.084 69.267 115.339 69.267C115.581 69.267 115.794 69.357 115.979 69.5369C116.166 69.7145 116.26 69.9287 116.263 70.1797C116.26 70.3501 116.215 70.5052 116.128 70.6449C116.043 70.7846 115.93 70.8958 115.79 70.9787C115.653 71.0616 115.503 71.103 115.339 71.103ZM120.15 71.0994C119.62 71.0994 119.149 71.0036 118.737 70.8118C118.325 70.62 118 70.3561 117.76 70.0199C117.524 69.6837 117.401 69.2978 117.391 68.8622H119.096C119.11 69.1297 119.219 69.3452 119.422 69.5085C119.626 69.6695 119.869 69.75 120.15 69.75C120.371 69.75 120.566 69.7015 120.736 69.6044C120.907 69.5073 121.041 69.3712 121.138 69.196C121.235 69.0185 121.282 68.8149 121.28 68.5852C121.282 68.3509 121.233 68.1461 121.134 67.9709C121.037 67.7957 120.902 67.6596 120.729 67.5625C120.559 67.4631 120.362 67.4134 120.14 67.4134C119.929 67.411 119.729 67.4571 119.54 67.5518C119.353 67.6465 119.211 67.7756 119.113 67.9389L117.562 67.6477L117.878 63.7273H122.544V65.1442H119.323L119.156 66.8594H119.199C119.319 66.6581 119.514 66.4924 119.781 66.3622C120.051 66.2296 120.358 66.1634 120.701 66.1634C121.136 66.1634 121.525 66.2652 121.866 66.4688C122.209 66.67 122.479 66.9493 122.675 67.3068C122.874 67.6643 122.974 68.0739 122.974 68.5355C122.974 69.035 122.855 69.4777 122.618 69.8636C122.384 70.2495 122.055 70.5526 121.631 70.7727C121.21 70.9905 120.716 71.0994 120.15 71.0994ZM123.953 71V65.5455H125.689V71H123.953ZM124.823 64.9098C124.579 64.9098 124.369 64.8293 124.194 64.6683C124.019 64.505 123.931 64.3085 123.931 64.0788C123.931 63.8516 124.019 63.6574 124.194 63.4964C124.369 63.3331 124.579 63.2514 124.823 63.2514C125.069 63.2514 125.279 63.3331 125.451 63.4964C125.627 63.6574 125.714 63.8516 125.714 64.0788C125.714 64.3085 125.627 64.505 125.451 64.6683C125.279 64.8293 125.069 64.9098 124.823 64.9098ZM129.621 71.0994C129.055 71.0994 128.55 71.0095 128.105 70.8295C127.662 70.6473 127.314 70.401 127.061 70.0909C126.81 69.7784 126.684 69.4257 126.684 69.0327C126.684 68.732 126.757 68.4562 126.901 68.2053C127.046 67.9543 127.241 67.746 127.487 67.5803C127.736 67.4122 128.013 67.3045 128.318 67.2571V67.2003C127.918 67.1269 127.59 66.9411 127.334 66.6428C127.081 66.3445 126.954 65.9953 126.954 65.5952C126.954 65.2164 127.069 64.879 127.299 64.5831C127.531 64.2872 127.847 64.054 128.247 63.8835C128.649 63.7131 129.108 63.6278 129.621 63.6278C130.135 63.6278 130.592 63.7131 130.992 63.8835C131.394 64.054 131.711 64.2872 131.94 64.5831C132.172 64.879 132.288 65.2164 132.288 65.5952C132.288 65.9976 132.159 66.348 131.901 66.6463C131.645 66.9422 131.32 67.1269 130.925 67.2003V67.2571C131.228 67.3045 131.502 67.4122 131.748 67.5803C131.997 67.746 132.193 67.9543 132.338 68.2053C132.485 68.4562 132.558 68.732 132.558 69.0327C132.558 69.4257 132.431 69.7784 132.178 70.0909C131.925 70.401 131.577 70.6473 131.134 70.8295C130.694 71.0095 130.189 71.0994 129.621 71.0994ZM129.621 69.853C129.837 69.853 130.026 69.8127 130.189 69.7322C130.353 69.6494 130.481 69.5346 130.573 69.3878C130.668 69.241 130.715 69.0753 130.715 68.8906C130.715 68.7012 130.668 68.5331 130.573 68.3864C130.478 68.2396 130.348 68.1248 130.182 68.0419C130.019 67.9567 129.832 67.9141 129.621 67.9141C129.413 67.9141 129.226 67.9567 129.06 68.0419C128.894 68.1248 128.764 68.2396 128.67 68.3864C128.575 68.5331 128.528 68.7012 128.528 68.8906C128.528 69.0753 128.574 69.241 128.666 69.3878C128.761 69.5322 128.89 69.6458 129.053 69.7287C129.219 69.8116 129.408 69.853 129.621 69.853ZM129.621 66.6747C129.806 66.6747 129.969 66.6368 130.111 66.5611C130.256 66.4853 130.368 66.38 130.449 66.245C130.532 66.1101 130.573 65.9574 130.573 65.7869C130.573 65.6165 130.532 65.4661 130.449 65.3359C130.368 65.2057 130.257 65.1039 130.115 65.0305C129.973 64.9548 129.808 64.9169 129.621 64.9169C129.437 64.9169 129.272 64.9548 129.128 65.0305C128.983 65.1039 128.871 65.2057 128.79 65.3359C128.71 65.4661 128.67 65.6165 128.67 65.7869C128.67 65.9574 128.71 66.1101 128.79 66.245C128.873 66.3776 128.987 66.483 129.131 66.5611C129.276 66.6368 129.439 66.6747 129.621 66.6747ZM137.114 73.0455V70.1158H137.079C137.005 70.2839 136.901 70.4413 136.766 70.5881C136.631 70.7348 136.462 70.8532 136.258 70.9432C136.057 71.0331 135.819 71.0781 135.545 71.0781C135.142 71.0781 134.776 70.974 134.447 70.7656C134.118 70.5573 133.855 70.2448 133.659 69.8281C133.462 69.4115 133.364 68.8942 133.364 68.2763C133.364 67.6347 133.466 67.1068 133.67 66.6925C133.873 66.2782 134.14 65.9716 134.469 65.7727C134.8 65.5739 135.156 65.4744 135.537 65.4744C135.824 65.4744 136.069 65.5241 136.273 65.6236C136.476 65.7206 136.644 65.8461 136.777 66C136.909 66.1539 137.01 66.3137 137.079 66.4794H137.132V65.5455H138.851V73.0455H137.114ZM136.148 69.7251C136.359 69.7251 136.539 69.666 136.688 69.5476C136.837 69.4268 136.952 69.2576 137.032 69.0398C137.113 68.822 137.153 68.5663 137.153 68.2727C137.153 67.9744 137.113 67.7176 137.032 67.5021C136.954 67.2867 136.84 67.121 136.688 67.005C136.539 66.889 136.359 66.831 136.148 66.831C135.933 66.831 135.751 66.8902 135.601 67.0085C135.452 67.1269 135.339 67.2938 135.26 67.5092C135.185 67.7247 135.147 67.9792 135.147 68.2727C135.147 68.5663 135.186 68.822 135.264 69.0398C135.342 69.2576 135.455 69.4268 135.601 69.5476C135.751 69.666 135.933 69.7251 136.148 69.7251ZM140.244 71L143.177 65.1903V65.1442H139.746V63.7273H144.995V65.1548L142.051 71H140.244ZM147.718 71L145.601 63.7273H147.544L148.641 68.4929H148.702L149.955 63.7273H151.539L152.792 68.5036H152.853L153.954 63.7273H155.893L153.78 71H152.086L150.775 66.5895H150.719L149.408 71H147.718ZM156.619 71V63.7273H161.583V65.1548H158.377V66.6463H161.267V68.0774H158.377V71H156.619ZM167.23 67.2109L165.636 67.2536C165.619 67.1399 165.574 67.0393 165.501 66.9517C165.428 66.8617 165.332 66.7919 165.213 66.7422C165.097 66.6901 164.962 66.6641 164.809 66.6641C164.607 66.6641 164.436 66.7043 164.294 66.7848C164.154 66.8653 164.085 66.9742 164.088 67.1115C164.085 67.218 164.128 67.3104 164.216 67.3885C164.306 67.4666 164.465 67.5294 164.695 67.5767L165.746 67.7756C166.291 67.8797 166.695 68.0526 166.961 68.294C167.228 68.5355 167.363 68.8551 167.365 69.2528C167.363 69.6269 167.252 69.9524 167.032 70.2294C166.814 70.5064 166.516 70.7218 166.137 70.8757C165.758 71.0272 165.325 71.103 164.837 71.103C164.058 71.103 163.444 70.9432 162.994 70.6236C162.547 70.3016 162.291 69.8707 162.227 69.331L163.942 69.2884C163.98 69.4872 164.078 69.6387 164.237 69.7429C164.395 69.8471 164.598 69.8991 164.844 69.8991C165.067 69.8991 165.248 69.8577 165.387 69.7749C165.527 69.692 165.598 69.5819 165.6 69.4446C165.598 69.3215 165.544 69.2232 165.437 69.1499C165.331 69.0741 165.164 69.0149 164.936 68.9723L163.985 68.7912C163.438 68.6918 163.031 68.5083 162.763 68.2408C162.496 67.9709 162.363 67.6276 162.365 67.2109C162.363 66.8464 162.46 66.535 162.657 66.277C162.853 66.0166 163.132 65.8177 163.495 65.6804C163.857 65.5431 164.284 65.4744 164.777 65.4744C165.515 65.4744 166.098 65.6295 166.524 65.9396C166.95 66.2474 167.185 66.6712 167.23 67.2109ZM168.22 71V63.7273H169.978V66.6463H172.844V63.7273H174.598V71H172.844V68.0774H169.978V71H168.22ZM178.471 71.0994C177.94 71.0994 177.469 71.0036 177.057 70.8118C176.645 70.62 176.32 70.3561 176.081 70.0199C175.844 69.6837 175.721 69.2978 175.711 68.8622H177.416C177.43 69.1297 177.539 69.3452 177.743 69.5085C177.946 69.6695 178.189 69.75 178.471 69.75C178.691 69.75 178.886 69.7015 179.057 69.6044C179.227 69.5073 179.361 69.3712 179.458 69.196C179.555 69.0185 179.602 68.8149 179.6 68.5852C179.602 68.3509 179.554 68.1461 179.454 67.9709C179.357 67.7957 179.222 67.6596 179.05 67.5625C178.879 67.4631 178.683 67.4134 178.46 67.4134C178.249 67.411 178.049 67.4571 177.86 67.5518C177.673 67.6465 177.531 67.7756 177.434 67.9389L175.882 67.6477L176.198 63.7273H180.864V65.1442H177.643L177.476 66.8594H177.519C177.64 66.6581 177.834 66.4924 178.101 66.3622C178.371 66.2296 178.678 66.1634 179.021 66.1634C179.457 66.1634 179.845 66.2652 180.186 66.4688C180.529 66.67 180.799 66.9493 180.996 67.3068C181.194 67.6643 181.294 68.0739 181.294 68.5355C181.294 69.035 181.175 69.4777 180.939 69.8636C180.704 70.2495 180.375 70.5526 179.952 70.7727C179.53 70.9905 179.037 71.0994 178.471 71.0994Z" fill="#00A0FF"/>
<path fill-rule="evenodd" clip-rule="evenodd" d="M106.975 17.1523H107.168C108.517 17.1523 109.79 17.6447 110.985 18.6295C111.1 18.7526 111.293 18.9578 111.601 19.286C111.987 18.8757 112.295 18.5885 112.45 18.4654C113.568 17.5627 114.801 17.1523 116.112 17.1523H116.228C117.615 17.1523 118.888 17.6447 120.044 18.6295C120.391 18.9578 120.661 19.245 120.854 19.4912C121.74 20.7221 122.203 22.0762 122.203 23.4713V39.638C122.203 39.6791 122.203 39.6791 122.164 39.6791H119.234C119.196 39.6791 119.196 39.6791 119.196 39.638V23.5534C119.196 22.4455 118.733 21.5838 117.808 20.8863C117.307 20.517 116.729 20.3529 116.15 20.3529C115.187 20.3529 114.416 20.7632 113.76 21.6249C113.336 22.1993 113.105 22.8148 113.105 23.4713V39.6791H110.137C110.098 39.6791 110.098 39.6791 110.098 39.638V23.4713C110.098 22.6096 109.751 21.789 109.019 21.0914C108.44 20.5991 107.785 20.3529 107.091 20.3529C106.05 20.3529 105.202 20.8042 104.547 21.789C104.2 22.3634 104.046 22.9379 104.046 23.5534V39.638C104.046 39.6791 104.046 39.6791 104.046 39.6791H101.039C101.039 39.6791 101 39.6791 101 39.638V23.9227C101 22.5686 101.231 21.4607 101.732 20.558C101.887 20.1887 102.195 19.7374 102.658 19.1629C103.236 18.5474 103.66 18.1782 103.968 18.0551C104.932 17.4396 105.934 17.1523 106.975 17.1523ZM125.557 17.1523H128.564H128.602V28.2311C128.602 29.1338 128.757 29.7903 129.103 30.2006C129.412 30.6109 129.682 30.8161 129.913 30.9392C130.337 31.1854 131.301 31.5547 132.804 32.006C133.537 32.2522 134.192 32.4574 134.655 32.7036V17.1523C134.655 17.1523 134.655 17.1523 134.693 17.1523H137.662V38.2429C137.662 39.7611 137.161 41.1972 136.12 42.4692C135.58 43.0437 135.156 43.413 134.809 43.6181C133.807 44.2747 132.766 44.5619 131.686 44.5619H131.532C130.029 44.5619 128.641 43.9874 127.407 42.7565C126.983 42.3051 126.675 41.8948 126.443 41.4845C125.827 40.4587 125.557 39.3508 125.557 38.2019V38.1609V38.1198H128.564L128.602 38.1609C128.602 39.1867 128.988 40.0483 129.797 40.7459C130.376 41.1562 130.954 41.3614 131.609 41.3614H131.648C132.573 41.3614 133.383 40.9511 134.038 40.0894C134.462 39.4739 134.655 38.8584 134.655 38.2429C134.655 37.053 134.231 36.1913 133.344 35.6989C132.959 35.4117 131.995 35.0424 130.414 34.5911C129.373 34.2628 128.564 33.9345 127.985 33.5652C127.022 32.9908 126.328 32.1291 125.904 30.9802C125.711 30.2827 125.595 29.7903 125.595 29.5031C125.595 29.3389 125.557 29.0517 125.557 28.7234V17.1523ZM140.9 17.1523H143.868C143.907 17.1523 143.907 17.1523 143.907 17.1523V28.4772C144.639 28.149 145.68 27.7797 146.991 27.4104C147.878 27.1232 148.494 26.836 148.841 26.5487C149.343 26.2615 149.651 25.7691 149.844 25.1536C149.921 24.9074 149.959 24.5381 149.959 24.0047V17.1523C149.959 17.1523 149.959 17.1523 149.998 17.1523H152.928C152.966 17.1523 152.966 17.1523 152.966 17.1523V24.5381C152.966 25.9743 152.619 27.2052 151.848 28.2311C151.501 28.6414 151.193 28.9286 151.039 29.0107C150.923 29.0927 150.885 29.1338 150.846 29.1338V29.1748C151.386 29.7082 151.656 29.9954 151.733 30.1185C152.311 30.9392 152.696 31.8419 152.851 32.7856C152.928 33.1549 152.966 33.5242 152.966 33.8525V39.638C152.966 39.6791 152.966 39.6791 152.928 39.6791H149.998C149.959 39.6791 149.959 39.6791 149.959 39.638V34.2628C149.959 33.237 149.69 32.4574 149.111 31.8419C148.803 31.4316 148.263 31.1033 147.492 30.8571L146.991 30.734C146.336 30.9392 145.796 31.1443 145.372 31.3905C144.755 31.7188 144.331 32.1701 144.1 32.7036C143.984 33.0318 143.907 33.5242 143.907 34.1807V39.638C143.907 39.6791 143.907 39.6791 143.868 39.6791H140.9C140.9 39.6791 140.861 39.6791 140.861 39.638V17.1523H140.9ZM162.18 17.1523H162.334C163.722 17.1523 164.994 17.6447 166.112 18.6295C166.536 18.9578 166.806 19.286 166.96 19.4912C167.847 20.7221 168.31 22.0762 168.31 23.4713V27.4104C168.31 28.8876 167.847 30.2006 166.922 31.4726C166.536 31.965 166.189 32.2932 165.881 32.5394C164.763 33.4011 163.568 33.8114 162.257 33.8114C160.638 33.8114 159.25 33.196 158.016 31.965C157.515 31.4316 157.168 30.9392 156.937 30.4058C156.436 29.5031 156.205 28.3952 156.205 27.0821V23.9227C156.205 22.5686 156.436 21.4197 156.937 20.517C157.13 20.1067 157.438 19.6553 157.901 19.0809C158.441 18.5474 158.865 18.1782 159.134 18.0551C160.098 17.4396 161.139 17.1523 162.18 17.1523ZM159.25 23.5123V27.4104C159.25 28.3952 159.636 29.2569 160.445 29.9544C160.985 30.3647 161.563 30.6109 162.141 30.6109H162.334C163.182 30.6109 163.953 30.2006 164.609 29.38C165.071 28.7645 165.303 28.108 165.303 27.4104V23.5123C165.303 22.6096 164.956 21.789 164.223 21.0914C163.645 20.5991 162.99 20.3529 162.296 20.3529H162.257C161.255 20.3529 160.407 20.8042 159.751 21.789C159.404 22.3634 159.25 22.9379 159.25 23.5123ZM156.243 36.4785H168.271C168.31 36.4785 168.31 36.4785 168.31 36.5196V39.638C168.31 39.6791 168.31 39.6791 168.271 39.6791H156.243C156.205 39.6791 156.205 39.6791 156.205 39.638V36.5196L156.243 36.4785ZM177.793 39.6791C176.482 39.6791 175.249 39.2277 174.131 38.325C173.822 38.0788 173.514 37.7505 173.167 37.2992C172.28 36.1503 171.818 34.6731 171.818 32.9498V17.1523C171.818 17.1523 171.818 17.1523 171.856 17.1523H174.825H174.863V18.4654C174.863 19.0398 174.902 19.4091 174.979 19.6553C175.133 20.2708 175.48 20.7632 175.981 21.0914C176.29 21.2966 176.714 21.5428 177.176 21.7069L179.875 22.5276C180.723 22.8558 181.455 23.2251 182.034 23.6765C182.265 23.8816 182.535 24.1689 182.882 24.5381C183.576 25.5229 183.923 26.7539 183.923 28.149V33.3191C183.923 34.4269 183.614 35.4938 183.074 36.5196C182.92 36.8478 182.573 37.2992 182.034 37.9147C180.8 39.1046 179.451 39.6791 177.947 39.6791H177.793ZM174.863 33.278C174.863 33.9345 175.056 34.55 175.441 35.1245C176.097 36.0272 176.906 36.4785 177.832 36.4785H177.909C178.525 36.4785 179.104 36.2734 179.643 35.8631C180.492 35.1245 180.916 34.2628 180.916 33.278V28.6824C180.916 28.0259 180.839 27.5335 180.684 27.2052C180.414 26.5487 179.875 26.0563 179.027 25.6871C178.641 25.4819 178.256 25.3588 177.87 25.2767C176.405 24.8254 175.403 24.4561 174.863 24.2099V33.278ZM192.866 17.1523H192.982C194.37 17.1523 195.642 17.6447 196.799 18.6295C197.184 18.9578 197.454 19.286 197.608 19.4912C198.533 20.7221 198.957 22.0762 198.957 23.4713V27.4104C198.957 28.8876 198.495 30.2006 197.608 31.4726C197.184 31.965 196.837 32.2932 196.529 32.5394C195.411 33.4011 194.216 33.8114 192.905 33.8114C191.324 33.8114 189.898 33.196 188.664 31.965C188.202 31.4316 187.816 30.9392 187.585 30.4058C187.122 29.5031 186.852 28.3952 186.852 27.0821V23.9227C186.852 22.5686 187.122 21.4197 187.585 20.517C187.778 20.1067 188.086 19.6553 188.549 19.0809C189.088 18.5474 189.512 18.1782 189.782 18.0551C190.746 17.4396 191.787 17.1523 192.866 17.1523ZM189.898 23.5123V27.4104C189.898 28.3952 190.322 29.2569 191.093 29.9544C191.671 30.3647 192.211 30.6109 192.789 30.6109H192.982C193.869 30.6109 194.601 30.2006 195.295 29.38C195.719 28.7645 195.95 28.108 195.95 27.4104V23.5123C195.95 22.6096 195.603 21.789 194.91 21.0914C194.293 20.5991 193.637 20.3529 192.943 20.3529H192.905C191.903 20.3529 191.093 20.8042 190.399 21.789C190.091 22.3634 189.898 22.9379 189.898 23.5123ZM186.891 36.4785H198.919C198.957 36.4785 198.957 36.4785 198.957 36.5196V39.638C198.957 39.6791 198.957 39.6791 198.919 39.6791H186.891C186.891 39.6791 186.852 39.6791 186.852 39.638V36.5196L186.891 36.4785Z" fill="#FFFDF7"/>
<path fill-rule="evenodd" clip-rule="evenodd" d="M162.296 17.0391C165.612 17.0391 168.349 19.9524 168.349 23.5222V27.5023C168.349 31.0721 165.612 33.9444 162.296 33.9444C158.942 33.9444 156.205 31.0721 156.205 27.5023V23.5222C156.205 19.9524 158.942 17.0391 162.296 17.0391Z" fill="#FFFDF7"/>
<path fill-rule="evenodd" clip-rule="evenodd" d="M192.943 17C196.259 17 198.996 19.9133 198.996 23.4831V27.4632C198.996 31.033 196.259 33.9053 192.943 33.9053C189.589 33.9053 186.852 31.033 186.852 27.4632V23.4831C186.852 19.9133 189.589 17 192.943 17Z" fill="#FFFDF7"/>
<defs>
<filter id="filter0_d_2823_152" x="22" y="316" width="258" height="38" filterUnits="userSpaceOnUse" color-interpolation-filters="sRGB">
<feFlood flood-opacity="0" result="BackgroundImageFix"/>
<feColorMatrix in="SourceAlpha" type="matrix" values="0 0 0 0 0 0 0 0 0 0 0 0 0 0 0 0 0 0 127 0" result="hardAlpha"/>
<feOffset dy="4"/>
<feGaussianBlur stdDeviation="2"/>
<feComposite in2="hardAlpha" operator="out"/>
<feColorMatrix type="matrix" values="0 0 0 0 0 0 0 0 0 0 0 0 0 0 0 0 0 0 0.25 0"/>
<feBlend mode="normal" in2="BackgroundImageFix" result="effect1_dropShadow_2823_152"/>
<feBlend mode="normal" in="SourceGraphic" in2="effect1_dropShadow_2823_152" result="shape"/>
</filter>
<filter id="filter1_d_2823_152" x="22" y="271" width="258" height="38" filterUnits="userSpaceOnUse" color-interpolation-filters="sRGB">
<feFlood flood-opacity="0" result="BackgroundImageFix"/>
<feColorMatrix in="SourceAlpha" type="matrix" values="0 0 0 0 0 0 0 0 0 0 0 0 0 0 0 0 0 0 127 0" result="hardAlpha"/>
<feOffset dy="4"/>
<feGaussianBlur stdDeviation="2"/>
<feComposite in2="hardAlpha" operator="out"/>
<feColorMatrix type="matrix" values="0 0 0 0 0 0 0 0 0 0 0 0 0 0 0 0 0 0 0.25 0"/>
<feBlend mode="normal" in2="BackgroundImageFix" result="effect1_dropShadow_2823_152"/>
<feBlend mode="normal" in="SourceGraphic" in2="effect1_dropShadow_2823_152" result="shape"/>
</filter>
<filter id="filter2_d_2823_152" x="22" y="223" width="258" height="38" filterUnits="userSpaceOnUse" color-interpolation-filters="sRGB">
<feFlood flood-opacity="0" result="BackgroundImageFix"/>
<feColorMatrix in="SourceAlpha" type="matrix" values="0 0 0 0 0 0 0 0 0 0 0 0 0 0 0 0 0 0 127 0" result="hardAlpha"/>
<feOffset dy="4"/>
<feGaussianBlur stdDeviation="2"/>
<feComposite in2="hardAlpha" operator="out"/>
<feColorMatrix type="matrix" values="0 0 0 0 0 0 0 0 0 0 0 0 0 0 0 0 0 0 0.25 0"/>
<feBlend mode="normal" in2="BackgroundImageFix" result="effect1_dropShadow_2823_152"/>
<feBlend mode="normal" in="SourceGraphic" in2="effect1_dropShadow_2823_152" result="shape"/>
</filter>
<filter id="filter3_d_2823_152" x="22" y="180" width="258" height="38" filterUnits="userSpaceOnUse" color-interpolation-filters="sRGB">
<feFlood flood-opacity="0" result="BackgroundImageFix"/>
<feColorMatrix in="SourceAlpha" type="matrix" values="0 0 0 0 0 0 0 0 0 0 0 0 0 0 0 0 0 0 127 0" result="hardAlpha"/>
<feOffset dy="4"/>
<feGaussianBlur stdDeviation="2"/>
<feComposite in2="hardAlpha" operator="out"/>
<feColorMatrix type="matrix" values="0 0 0 0 0 0 0 0 0 0 0 0 0 0 0 0 0 0 0.25 0"/>
<feBlend mode="normal" in2="BackgroundImageFix" result="effect1_dropShadow_2823_152"/>
<feBlend mode="normal" in="SourceGraphic" in2="effect1_dropShadow_2823_152" result="shape"/>
</filter>
<filter id="filter4_d_2823_152" x="21" y="137" width="258" height="38" filterUnits="userSpaceOnUse" color-interpolation-filters="sRGB">
<feFlood flood-opacity="0" result="BackgroundImageFix"/>
<feColorMatrix in="SourceAlpha" type="matrix" values="0 0 0 0 0 0 0 0 0 0 0 0 0 0 0 0 0 0 127 0" result="hardAlpha"/>
<feOffset dy="4"/>
<feGaussianBlur stdDeviation="2"/>
<feComposite in2="hardAlpha" operator="out"/>
<feColorMatrix type="matrix" values="0 0 0 0 0 0 0 0 0 0 0 0 0 0 0 0 0 0 0.25 0"/>
<feBlend mode="normal" in2="BackgroundImageFix" result="effect1_dropShadow_2823_152"/>
<feBlend mode="normal" in="SourceGraphic" in2="effect1_dropShadow_2823_152" result="shape"/>
</filter>
<filter id="filter5_d_2823_152" x="192" y="90" width="88" height="38" filterUnits="userSpaceOnUse" color-interpolation-filters="sRGB">
<feFlood flood-opacity="0" result="BackgroundImageFix"/>
<feColorMatrix in="SourceAlpha" type="matrix" values="0 0 0 0 0 0 0 0 0 0 0 0 0 0 0 0 0 0 127 0" result="hardAlpha"/>
<feOffset dy="4"/>
<feGaussianBlur stdDeviation="2"/>
<feComposite in2="hardAlpha" operator="out"/>
<feColorMatrix type="matrix" values="0 0 0 0 0 0 0 0 0 0 0 0 0 0 0 0 0 0 0.25 0"/>
<feBlend mode="normal" in2="BackgroundImageFix" result="effect1_dropShadow_2823_152"/>
<feBlend mode="normal" in="SourceGraphic" in2="effect1_dropShadow_2823_152" result="shape"/>
</filter>
<filter id="filter6_d_2823_152" x="107" y="89" width="88" height="38" filterUnits="userSpaceOnUse" color-interpolation-filters="sRGB">
<feFlood flood-opacity="0" result="BackgroundImageFix"/>
<feColorMatrix in="SourceAlpha" type="matrix" values="0 0 0 0 0 0 0 0 0 0 0 0 0 0 0 0 0 0 127 0" result="hardAlpha"/>
<feOffset dy="4"/>
<feGaussianBlur stdDeviation="2"/>
<feComposite in2="hardAlpha" operator="out"/>
<feColorMatrix type="matrix" values="0 0 0 0 0 0 0 0 0 0 0 0 0 0 0 0 0 0 0.25 0"/>
<feBlend mode="normal" in2="BackgroundImageFix" result="effect1_dropShadow_2823_152"/>
<feBlend mode="normal" in="SourceGraphic" in2="effect1_dropShadow_2823_152" result="shape"/>
</filter>
<filter id="filter7_d_2823_152" x="22" y="89" width="88" height="38" filterUnits="userSpaceOnUse" color-interpolation-filters="sRGB">
<feFlood flood-opacity="0" result="BackgroundImageFix"/>
<feColorMatrix in="SourceAlpha" type="matrix" values="0 0 0 0 0 0 0 0 0 0 0 0 0 0 0 0 0 0 127 0" result="hardAlpha"/>
<feOffset dy="4"/>
<feGaussianBlur stdDeviation="2"/>
<feComposite in2="hardAlpha" operator="out"/>
<feColorMatrix type="matrix" values="0 0 0 0 0 0 0 0 0 0 0 0 0 0 0 0 0 0 0.25 0"/>
<feBlend mode="normal" in2="BackgroundImageFix" result="effect1_dropShadow_2823_152"/>
<feBlend mode="normal" in="SourceGraphic" in2="effect1_dropShadow_2823_152" result="shape"/>
</filter>
<filter id="filter8_d_2823_152" x="22" y="52" width="258" height="38" filterUnits="userSpaceOnUse" color-interpolation-filters="sRGB">
<feFlood flood-opacity="0" result="BackgroundImageFix"/>
<feColorMatrix in="SourceAlpha" type="matrix" values="0 0 0 0 0 0 0 0 0 0 0 0 0 0 0 0 0 0 127 0" result="hardAlpha"/>
<feOffset dy="4"/>
<feGaussianBlur stdDeviation="2"/>
<feComposite in2="hardAlpha" operator="out"/>
<feColorMatrix type="matrix" values="0 0 0 0 0 0 0 0 0 0 0 0 0 0 0 0 0 0 0.25 0"/>
<feBlend mode="normal" in2="BackgroundImageFix" result="effect1_dropShadow_2823_152"/>
<feBlend mode="normal" in="SourceGraphic" in2="effect1_dropShadow_2823_152" result="shape"/>
</filter>
<linearGradient id="paint0_linear_2823_152" x1="150" y1="0" x2="150" y2="363" gradientUnits="userSpaceOnUse">
<stop offset="0.355769" stop-color="#929292"/>
<stop offset="0.7" stop-color="#585B68"/>
</linearGradient>
<linearGradient id="paint1_linear_2823_152" x1="151" y1="52" x2="151" y2="82" gradientUnits="userSpaceOnUse">
<stop stop-color="#ECECEC"/>
<stop offset="1" stop-color="#D1D0D0"/>
</linearGradient>
<clipPath id="clip0_2823_152">
<rect width="14" height="14" fill="white" transform="translate(201 98)"/>
</clipPath>
<clipPath id="clip1_2823_152">
<rect width="14" height="14" fill="white" transform="translate(116 97)"/>
</clipPath>
<clipPath id="clip2_2823_152">
<rect width="14" height="14" fill="white" transform="translate(31 97)"/>
</clipPath>
<clipPath id="clip3_2823_152">
<rect width="6.65" height="5.85833" fill="white" transform="translate(34.3252 100.801)"/>
</clipPath>
<clipPath id="clip4_2823_152">
<rect width="12" height="12" fill="white" transform="translate(248 61)"/>
</clipPath>
</defs>
</svg>
