<svg width="300" height="302" viewBox="0 0 300 302" fill="none" xmlns="http://www.w3.org/2000/svg">
<rect width="300" height="302" rx="10" fill="url(#paint0_linear_2823_216)"/>
<g filter="url(#filter0_d_2823_216)">
<rect x="153" y="214" width="122" height="30" rx="10" fill="#929292"/>
</g>
<path d="M192.905 233V225.727H194.663V231.572H197.688V233H192.905ZM198.598 233V227.545H200.335V233H198.598ZM199.468 226.91C199.224 226.91 199.015 226.829 198.84 226.668C198.665 226.505 198.577 226.308 198.577 226.079C198.577 225.852 198.665 225.657 198.84 225.496C199.015 225.333 199.224 225.251 199.468 225.251C199.715 225.251 199.924 225.333 200.097 225.496C200.272 225.657 200.36 225.852 200.36 226.079C200.36 226.308 200.272 226.505 200.097 226.668C199.924 226.829 199.715 226.91 199.468 226.91ZM205.002 235.045V232.116H204.966C204.893 232.284 204.789 232.441 204.654 232.588C204.519 232.735 204.35 232.853 204.146 232.943C203.945 233.033 203.707 233.078 203.432 233.078C203.03 233.078 202.664 232.974 202.335 232.766C202.006 232.557 201.743 232.245 201.547 231.828C201.35 231.411 201.252 230.894 201.252 230.276C201.252 229.635 201.354 229.107 201.557 228.692C201.761 228.278 202.027 227.972 202.356 227.773C202.688 227.574 203.044 227.474 203.425 227.474C203.712 227.474 203.957 227.524 204.16 227.624C204.364 227.721 204.532 227.846 204.665 228C204.797 228.154 204.898 228.314 204.966 228.479H205.02V227.545H206.738V235.045H205.002ZM204.036 231.725C204.247 231.725 204.427 231.666 204.576 231.548C204.725 231.427 204.84 231.258 204.92 231.04C205.001 230.822 205.041 230.566 205.041 230.273C205.041 229.974 205.001 229.718 204.92 229.502C204.842 229.287 204.727 229.121 204.576 229.005C204.427 228.889 204.247 228.831 204.036 228.831C203.821 228.831 203.638 228.89 203.489 229.009C203.34 229.127 203.226 229.294 203.148 229.509C203.072 229.725 203.035 229.979 203.035 230.273C203.035 230.566 203.074 230.822 203.152 231.04C203.23 231.258 203.342 231.427 203.489 231.548C203.638 231.666 203.821 231.725 204.036 231.725ZM211.356 230.646V227.545H213.089V233H211.434V231.984H211.377C211.256 232.318 211.05 232.583 210.759 232.78C210.47 232.974 210.121 233.071 209.712 233.071C209.34 233.071 209.013 232.986 208.731 232.815C208.45 232.645 208.231 232.407 208.074 232.102C207.918 231.794 207.839 231.434 207.837 231.022V227.545H209.573V230.681C209.575 230.977 209.654 231.21 209.807 231.381C209.961 231.551 210.171 231.636 210.436 231.636C210.609 231.636 210.764 231.598 210.901 231.523C211.041 231.445 211.151 231.332 211.231 231.185C211.314 231.036 211.356 230.856 211.356 230.646ZM214.194 233V227.545H215.93V233H214.194ZM215.064 226.91C214.82 226.91 214.611 226.829 214.435 226.668C214.26 226.505 214.173 226.308 214.173 226.079C214.173 225.852 214.26 225.657 214.435 225.496C214.611 225.333 214.82 225.251 215.064 225.251C215.31 225.251 215.52 225.333 215.693 225.496C215.868 225.657 215.955 225.852 215.955 226.079C215.955 226.308 215.868 226.505 215.693 226.668C215.52 226.829 215.31 226.91 215.064 226.91ZM219.028 233.078C218.626 233.078 218.26 232.974 217.931 232.766C217.602 232.557 217.339 232.245 217.142 231.828C216.946 231.411 216.848 230.894 216.848 230.276C216.848 229.635 216.949 229.107 217.153 228.692C217.357 228.278 217.623 227.972 217.952 227.773C218.283 227.574 218.64 227.474 219.021 227.474C219.307 227.474 219.552 227.524 219.756 227.624C219.96 227.721 220.128 227.846 220.26 228C220.393 228.154 220.493 228.314 220.562 228.479H220.598V225.727H222.334V233H220.615V232.116H220.562C220.489 232.284 220.384 232.441 220.25 232.588C220.115 232.735 219.945 232.853 219.742 232.943C219.541 233.033 219.303 233.078 219.028 233.078ZM219.632 231.725C219.842 231.725 220.022 231.666 220.171 231.548C220.321 231.427 220.435 231.258 220.516 231.04C220.596 230.822 220.637 230.566 220.637 230.273C220.637 229.974 220.596 229.718 220.516 229.502C220.438 229.287 220.323 229.121 220.171 229.005C220.022 228.889 219.842 228.831 219.632 228.831C219.416 228.831 219.234 228.89 219.085 229.009C218.936 229.127 218.822 229.294 218.744 229.509C218.668 229.725 218.63 229.979 218.63 230.273C218.63 230.566 218.669 230.822 218.747 231.04C218.826 231.258 218.938 231.427 219.085 231.548C219.234 231.666 219.416 231.725 219.632 231.725ZM223.432 233V227.545H225.169V233H223.432ZM224.302 226.91C224.058 226.91 223.849 226.829 223.674 226.668C223.499 226.505 223.411 226.308 223.411 226.079C223.411 225.852 223.499 225.657 223.674 225.496C223.849 225.333 224.058 225.251 224.302 225.251C224.549 225.251 224.758 225.333 224.931 225.496C225.106 225.657 225.194 225.852 225.194 226.079C225.194 226.308 225.106 226.505 224.931 226.668C224.758 226.829 224.549 226.91 224.302 226.91ZM229.353 227.545V228.824H225.912V227.545H229.353ZM226.633 226.239H228.369V231.285C228.369 231.391 228.386 231.478 228.419 231.544C228.454 231.608 228.505 231.654 228.572 231.683C228.638 231.709 228.717 231.722 228.81 231.722C228.876 231.722 228.946 231.716 229.019 231.704C229.095 231.69 229.152 231.678 229.19 231.668L229.452 232.922C229.369 232.946 229.252 232.975 229.101 233.011C228.952 233.046 228.773 233.069 228.565 233.078C228.157 233.097 227.808 233.05 227.517 232.936C227.228 232.82 227.007 232.64 226.853 232.396C226.701 232.152 226.628 231.846 226.633 231.477V226.239ZM231.301 235.045C231.092 235.045 230.896 235.029 230.711 234.996C230.527 234.965 230.368 234.924 230.235 234.871L230.619 233.611C230.789 233.668 230.943 233.701 231.081 233.71C231.22 233.72 231.34 233.697 231.439 233.643C231.541 233.591 231.619 233.497 231.674 233.362L231.741 233.199L229.802 227.545H231.62L232.625 231.438H232.682L233.701 227.545H235.53L233.474 233.522C233.375 233.82 233.234 234.083 233.051 234.31C232.871 234.54 232.638 234.72 232.352 234.85C232.068 234.98 231.717 235.045 231.301 235.045Z" fill="#FFFDF7"/>
<g filter="url(#filter1_d_2823_216)">
<rect x="24" y="214" width="122" height="30" rx="10" fill="#929292"/>
</g>
<path d="M75.7413 227.908C75.7176 227.647 75.6123 227.445 75.4252 227.3C75.2406 227.154 74.9766 227.08 74.6333 227.08C74.4061 227.08 74.2167 227.11 74.0652 227.169C73.9136 227.228 73.8 227.31 73.7243 227.414C73.6485 227.516 73.6094 227.633 73.6071 227.766C73.6023 227.875 73.6236 227.97 73.671 228.053C73.7207 228.136 73.7917 228.21 73.8841 228.273C73.9788 228.335 74.0924 228.389 74.225 228.437C74.3575 228.484 74.5067 228.526 74.6724 228.561L75.2974 228.703C75.6573 228.781 75.9745 228.885 76.2491 229.016C76.5261 229.146 76.7581 229.301 76.9451 229.481C77.1345 229.661 77.2778 229.868 77.3748 230.102C77.4719 230.337 77.5216 230.599 77.524 230.891C77.5216 231.35 77.4056 231.744 77.176 232.073C76.9463 232.402 76.6161 232.654 76.1852 232.83C75.7567 233.005 75.2394 233.092 74.6333 233.092C74.0249 233.092 73.4946 233.001 73.0424 232.819C72.5903 232.637 72.2387 232.36 71.9877 231.988C71.7368 231.616 71.6078 231.146 71.6007 230.578H73.2839C73.2981 230.812 73.3609 231.008 73.4721 231.164C73.5834 231.32 73.7361 231.439 73.9302 231.519C74.1267 231.6 74.354 231.64 74.612 231.64C74.8488 231.64 75.05 231.608 75.2157 231.544C75.3838 231.48 75.5128 231.391 75.6028 231.278C75.6928 231.164 75.7389 231.034 75.7413 230.887C75.7389 230.75 75.6963 230.633 75.6135 230.536C75.5306 230.436 75.4028 230.351 75.2299 230.28C75.0595 230.206 74.8417 230.139 74.5765 230.077L73.8166 229.9C73.1868 229.755 72.6909 229.522 72.3287 229.2C71.9664 228.876 71.7865 228.438 71.7889 227.886C71.7865 227.437 71.9073 227.042 72.1511 226.704C72.3949 226.365 72.7323 226.101 73.1632 225.912C73.594 225.723 74.0853 225.628 74.6369 225.628C75.2003 225.628 75.6892 225.724 76.1035 225.915C76.5202 226.105 76.8433 226.371 77.073 226.714C77.3026 227.058 77.4198 227.455 77.4245 227.908H75.7413ZM79.4309 233L78.0105 227.545H79.7541L80.4892 231.04H80.5353L81.3237 227.545H83.0247L83.8343 231.015H83.8805L84.5943 227.545H86.3379L84.9139 233H83.0566L82.2044 229.822H82.144L81.2917 233H79.4309ZM88.5724 233.092C88.2244 233.092 87.9155 233.034 87.6456 232.918C87.3781 232.8 87.1662 232.622 87.0099 232.386C86.8561 232.147 86.7791 231.847 86.7791 231.487C86.7791 231.184 86.8324 230.929 86.9389 230.72C87.0455 230.512 87.1922 230.343 87.3793 230.212C87.5663 230.082 87.7817 229.984 88.0256 229.918C88.2694 229.849 88.5298 229.803 88.8068 229.779C89.117 229.751 89.3667 229.721 89.5561 229.69C89.7455 229.657 89.8828 229.611 89.968 229.552C90.0556 229.49 90.0994 229.404 90.0994 229.293V229.275C90.0994 229.093 90.0367 228.952 89.9112 228.852C89.7857 228.753 89.6165 228.703 89.4034 228.703C89.1738 228.703 88.9891 228.753 88.8494 228.852C88.7098 228.952 88.621 229.089 88.5831 229.264L86.9815 229.207C87.0289 228.876 87.1508 228.58 87.3473 228.32C87.5462 228.057 87.8184 227.851 88.1641 227.702C88.5121 227.55 88.9299 227.474 89.4176 227.474C89.7656 227.474 90.0864 227.516 90.38 227.599C90.6735 227.679 90.9292 227.798 91.147 227.954C91.3648 228.108 91.5329 228.297 91.6513 228.522C91.772 228.747 91.8324 229.004 91.8324 229.293V233H90.1989V232.24H90.1562C90.0592 232.425 89.9349 232.581 89.7834 232.709C89.6342 232.837 89.4579 232.933 89.2543 232.996C89.053 233.06 88.8258 233.092 88.5724 233.092ZM89.1087 231.956C89.2957 231.956 89.4638 231.918 89.6129 231.842C89.7644 231.767 89.8852 231.662 89.9751 231.53C90.0651 231.395 90.1101 231.239 90.1101 231.061V230.543C90.0604 230.569 90 230.592 89.929 230.614C89.8603 230.635 89.7846 230.655 89.7017 230.674C89.6188 230.693 89.5336 230.71 89.446 230.724C89.3584 230.738 89.2744 230.751 89.1939 230.763C89.0305 230.789 88.8909 230.829 88.7749 230.884C88.6612 230.938 88.5736 231.009 88.5121 231.097C88.4529 231.182 88.4233 231.284 88.4233 231.402C88.4233 231.582 88.4872 231.719 88.6151 231.814C88.7453 231.909 88.9098 231.956 89.1087 231.956ZM92.8942 235.045V227.545H94.6129V228.479H94.6662C94.7372 228.314 94.8378 228.154 94.968 228C95.1006 227.846 95.2687 227.721 95.4723 227.624C95.6783 227.524 95.9245 227.474 96.2109 227.474C96.5897 227.474 96.9437 227.574 97.2727 227.773C97.6042 227.972 97.8717 228.278 98.0753 228.692C98.2789 229.107 98.3807 229.635 98.3807 230.276C98.3807 230.894 98.2824 231.411 98.0859 231.828C97.8918 232.245 97.629 232.557 97.2976 232.766C96.9685 232.974 96.6027 233.078 96.2003 233.078C95.9257 233.078 95.6877 233.033 95.4865 232.943C95.2853 232.853 95.116 232.735 94.9787 232.588C94.8438 232.441 94.7396 232.284 94.6662 232.116H94.6307V235.045H92.8942ZM94.5952 230.273C94.5952 230.566 94.6342 230.822 94.7124 231.04C94.7929 231.258 94.9077 231.427 95.0568 231.548C95.2083 231.666 95.3894 231.725 95.6001 231.725C95.8132 231.725 95.9943 231.666 96.1435 231.548C96.2926 231.427 96.4051 231.258 96.4808 231.04C96.5589 230.822 96.598 230.566 96.598 230.273C96.598 229.979 96.5589 229.725 96.4808 229.509C96.4051 229.294 96.2926 229.127 96.1435 229.009C95.9967 228.89 95.8156 228.831 95.6001 228.831C95.3871 228.831 95.206 228.889 95.0568 229.005C94.9077 229.121 94.7929 229.287 94.7124 229.502C94.6342 229.718 94.5952 229.974 94.5952 230.273Z" fill="#FFFDF7"/>
<g filter="url(#filter2_d_2823_216)">
<rect x="153" y="177" width="122" height="30" rx="10" fill="#929292"/>
</g>
<path d="M191.39 196L189.273 188.727H191.216L192.313 193.493H192.373L193.627 188.727H195.211L196.464 193.504H196.525L197.626 188.727H199.564L197.452 196H195.758L194.447 191.589H194.39L193.08 196H191.39ZM200.291 196V190.545H202.027V196H200.291ZM201.161 189.91C200.917 189.91 200.707 189.829 200.532 189.668C200.357 189.505 200.269 189.308 200.269 189.079C200.269 188.852 200.357 188.657 200.532 188.496C200.707 188.333 200.917 188.251 201.161 188.251C201.407 188.251 201.616 188.333 201.789 188.496C201.964 188.657 202.052 188.852 202.052 189.079C202.052 189.308 201.964 189.505 201.789 189.668C201.616 189.829 201.407 189.91 201.161 189.91ZM206.211 190.545V191.824H202.77V190.545H206.211ZM203.491 189.239H205.228V194.285C205.228 194.391 205.244 194.478 205.277 194.544C205.313 194.608 205.364 194.654 205.43 194.683C205.496 194.709 205.576 194.722 205.668 194.722C205.734 194.722 205.804 194.716 205.877 194.704C205.953 194.69 206.01 194.678 206.048 194.668L206.311 195.922C206.228 195.946 206.111 195.975 205.959 196.011C205.81 196.046 205.631 196.069 205.423 196.078C205.016 196.097 204.667 196.05 204.375 195.936C204.087 195.82 203.865 195.64 203.711 195.396C203.56 195.152 203.486 194.846 203.491 194.477V189.239ZM208.951 192.889V196H207.214V188.727H208.894V191.547H208.955C209.078 191.211 209.279 190.948 209.558 190.759C209.84 190.569 210.184 190.474 210.592 190.474C210.975 190.474 211.309 190.56 211.593 190.73C211.877 190.898 212.097 191.136 212.254 191.444C212.412 191.752 212.49 192.112 212.488 192.523V196H210.751V192.864C210.754 192.561 210.678 192.325 210.524 192.154C210.37 191.984 210.154 191.898 209.874 191.898C209.692 191.898 209.531 191.939 209.391 192.019C209.254 192.097 209.146 192.21 209.068 192.357C208.992 192.503 208.953 192.681 208.951 192.889ZM215.564 196.078C215.162 196.078 214.796 195.974 214.467 195.766C214.138 195.557 213.875 195.245 213.678 194.828C213.482 194.411 213.384 193.894 213.384 193.276C213.384 192.635 213.485 192.107 213.689 191.692C213.893 191.278 214.159 190.972 214.488 190.773C214.82 190.574 215.176 190.474 215.557 190.474C215.843 190.474 216.088 190.524 216.292 190.624C216.496 190.721 216.664 190.846 216.796 191C216.929 191.154 217.03 191.314 217.098 191.479H217.134V188.727H218.87V196H217.151V195.116H217.098C217.025 195.284 216.921 195.441 216.786 195.588C216.651 195.735 216.481 195.853 216.278 195.943C216.077 196.033 215.839 196.078 215.564 196.078ZM216.168 194.725C216.378 194.725 216.558 194.666 216.708 194.548C216.857 194.427 216.972 194.258 217.052 194.04C217.133 193.822 217.173 193.566 217.173 193.273C217.173 192.974 217.133 192.718 217.052 192.502C216.974 192.287 216.859 192.121 216.708 192.005C216.558 191.889 216.378 191.831 216.168 191.831C215.952 191.831 215.77 191.89 215.621 192.009C215.472 192.127 215.358 192.294 215.28 192.509C215.204 192.725 215.166 192.979 215.166 193.273C215.166 193.566 215.205 193.822 215.284 194.04C215.362 194.258 215.474 194.427 215.621 194.548C215.77 194.666 215.952 194.725 216.168 194.725ZM219.968 196V190.545H221.655V191.54H221.712C221.811 191.18 221.974 190.912 222.199 190.737C222.423 190.56 222.685 190.471 222.983 190.471C223.064 190.471 223.147 190.477 223.232 190.489C223.317 190.498 223.396 190.513 223.47 190.535V192.044C223.387 192.016 223.278 191.993 223.143 191.977C223.011 191.96 222.892 191.952 222.788 191.952C222.582 191.952 222.396 191.998 222.23 192.09C222.067 192.18 221.938 192.307 221.843 192.47C221.751 192.631 221.705 192.821 221.705 193.038V196H219.968ZM225.51 196.092C225.162 196.092 224.853 196.034 224.583 195.918C224.316 195.8 224.104 195.622 223.947 195.386C223.794 195.147 223.717 194.847 223.717 194.487C223.717 194.184 223.77 193.929 223.876 193.72C223.983 193.512 224.13 193.343 224.317 193.212C224.504 193.082 224.719 192.984 224.963 192.918C225.207 192.849 225.467 192.803 225.744 192.779C226.054 192.751 226.304 192.721 226.494 192.69C226.683 192.657 226.82 192.611 226.906 192.552C226.993 192.49 227.037 192.404 227.037 192.293V192.275C227.037 192.093 226.974 191.952 226.849 191.852C226.723 191.753 226.554 191.703 226.341 191.703C226.111 191.703 225.927 191.753 225.787 191.852C225.647 191.952 225.558 192.089 225.521 192.264L223.919 192.207C223.966 191.876 224.088 191.58 224.285 191.32C224.484 191.057 224.756 190.851 225.102 190.702C225.45 190.55 225.867 190.474 226.355 190.474C226.703 190.474 227.024 190.516 227.317 190.599C227.611 190.679 227.867 190.798 228.085 190.954C228.302 191.108 228.47 191.297 228.589 191.522C228.71 191.747 228.77 192.004 228.77 192.293V196H227.136V195.24H227.094C226.997 195.425 226.872 195.581 226.721 195.709C226.572 195.837 226.395 195.933 226.192 195.996C225.991 196.06 225.763 196.092 225.51 196.092ZM226.046 194.956C226.233 194.956 226.401 194.918 226.55 194.842C226.702 194.767 226.823 194.662 226.913 194.53C227.003 194.395 227.048 194.239 227.048 194.061V193.543C226.998 193.569 226.938 193.592 226.866 193.614C226.798 193.635 226.722 193.655 226.639 193.674C226.556 193.693 226.471 193.71 226.384 193.724C226.296 193.738 226.212 193.751 226.131 193.763C225.968 193.789 225.828 193.829 225.712 193.884C225.599 193.938 225.511 194.009 225.45 194.097C225.39 194.182 225.361 194.284 225.361 194.402C225.361 194.582 225.425 194.719 225.553 194.814C225.683 194.909 225.847 194.956 226.046 194.956ZM230.851 196L229.43 190.545H231.174L231.909 194.04H231.955L232.744 190.545H234.445L235.254 194.015H235.3L236.014 190.545H237.758L236.334 196H234.477L233.624 192.822H233.564L232.712 196H230.851Z" fill="#FFFDF7"/>
<g filter="url(#filter3_d_2823_216)">
<rect x="25" y="177" width="122" height="30" rx="10" fill="#929292"/>
</g>
<path d="M69.5004 196H66.8121V188.727H69.4968C70.2378 188.727 70.8758 188.873 71.4109 189.164C71.9483 189.453 72.3626 189.87 72.6538 190.414C72.945 190.956 73.0906 191.605 73.0906 192.36C73.0906 193.118 72.945 193.769 72.6538 194.313C72.3649 194.858 71.9518 195.276 71.4144 195.567C70.877 195.856 70.239 196 69.5004 196ZM68.57 194.501H69.4329C69.8401 194.501 70.1845 194.433 70.4663 194.295C70.7504 194.156 70.9646 193.93 71.109 193.617C71.2558 193.302 71.3292 192.883 71.3292 192.36C71.3292 191.837 71.2558 191.42 71.109 191.11C70.9622 190.798 70.7456 190.573 70.4592 190.435C70.1751 190.296 69.8247 190.226 69.408 190.226H68.57V194.501ZM76.6665 196.103C76.096 196.103 75.6036 195.991 75.1893 195.766C74.7773 195.538 74.4601 195.215 74.2376 194.796C74.0174 194.375 73.9073 193.874 73.9073 193.294C73.9073 192.731 74.0186 192.238 74.2411 191.817C74.4637 191.393 74.7773 191.064 75.1822 190.83C75.587 190.593 76.064 190.474 76.6133 190.474C77.0015 190.474 77.3567 190.535 77.6786 190.656C78.0006 190.776 78.2788 190.955 78.5131 191.192C78.7475 191.429 78.9298 191.721 79.06 192.069C79.1902 192.415 79.2553 192.811 79.2553 193.259V193.692H74.5146V192.683H77.6396C77.6372 192.499 77.5934 192.334 77.5082 192.19C77.4229 192.045 77.3058 191.933 77.1566 191.852C77.0098 191.769 76.8406 191.728 76.6488 191.728C76.4547 191.728 76.2807 191.772 76.1268 191.859C75.9729 191.945 75.851 192.062 75.761 192.211C75.671 192.358 75.6237 192.525 75.619 192.712V193.738C75.619 193.96 75.6628 194.156 75.7504 194.324C75.8379 194.49 75.9622 194.619 76.1232 194.711C76.2842 194.803 76.476 194.849 76.6985 194.849C76.8524 194.849 76.9921 194.828 77.1175 194.786C77.243 194.743 77.3507 194.68 77.4407 194.597C77.5307 194.514 77.5981 194.413 77.6431 194.292L79.2376 194.338C79.1713 194.696 79.0257 195.007 78.8008 195.272C78.5782 195.535 78.2859 195.74 77.9237 195.886C77.5614 196.031 77.1424 196.103 76.6665 196.103ZM80.1422 198.045V190.545H81.861V191.479H81.9142C81.9853 191.314 82.0859 191.154 82.2161 191C82.3487 190.846 82.5167 190.721 82.7203 190.624C82.9263 190.524 83.1725 190.474 83.459 190.474C83.8378 190.474 84.1917 190.574 84.5208 190.773C84.8522 190.972 85.1197 191.278 85.3233 191.692C85.5269 192.107 85.6287 192.635 85.6287 193.276C85.6287 193.894 85.5305 194.411 85.334 194.828C85.1399 195.245 84.8771 195.557 84.5456 195.766C84.2166 195.974 83.8508 196.078 83.4483 196.078C83.1737 196.078 82.9358 196.033 82.7346 195.943C82.5333 195.853 82.3641 195.735 82.2267 195.588C82.0918 195.441 81.9876 195.284 81.9142 195.116H81.8787V198.045H80.1422ZM81.8432 193.273C81.8432 193.566 81.8823 193.822 81.9604 194.04C82.0409 194.258 82.1557 194.427 82.3049 194.548C82.4564 194.666 82.6375 194.725 82.8482 194.725C83.0613 194.725 83.2424 194.666 83.3915 194.548C83.5407 194.427 83.6531 194.258 83.7289 194.04C83.807 193.822 83.8461 193.566 83.8461 193.273C83.8461 192.979 83.807 192.725 83.7289 192.509C83.6531 192.294 83.5407 192.127 83.3915 192.009C83.2447 191.89 83.0636 191.831 82.8482 191.831C82.6351 191.831 82.454 191.889 82.3049 192.005C82.1557 192.121 82.0409 192.287 81.9604 192.502C81.8823 192.718 81.8432 192.974 81.8432 193.273ZM89.0849 196.103C88.512 196.103 88.0195 195.986 87.6076 195.751C87.198 195.515 86.882 195.186 86.6594 194.764C86.4393 194.34 86.3292 193.849 86.3292 193.29C86.3292 192.729 86.4393 192.238 86.6594 191.817C86.882 191.393 87.198 191.064 87.6076 190.83C88.0195 190.593 88.512 190.474 89.0849 190.474C89.6578 190.474 90.149 190.593 90.5586 190.83C90.9705 191.064 91.2866 191.393 91.5067 191.817C91.7293 192.238 91.8406 192.729 91.8406 193.29C91.8406 193.849 91.7293 194.34 91.5067 194.764C91.2866 195.186 90.9705 195.515 90.5586 195.751C90.149 195.986 89.6578 196.103 89.0849 196.103ZM89.0955 194.793C89.3039 194.793 89.4802 194.729 89.6246 194.601C89.7691 194.473 89.8791 194.295 89.9549 194.068C90.033 193.841 90.0721 193.578 90.0721 193.28C90.0721 192.977 90.033 192.712 89.9549 192.484C89.8791 192.257 89.7691 192.08 89.6246 191.952C89.4802 191.824 89.3039 191.76 89.0955 191.76C88.8801 191.76 88.6978 191.824 88.5487 191.952C88.4019 192.08 88.2894 192.257 88.2113 192.484C88.1355 192.712 88.0977 192.977 88.0977 193.28C88.0977 193.578 88.1355 193.841 88.2113 194.068C88.2894 194.295 88.4019 194.473 88.5487 194.601C88.6978 194.729 88.8801 194.793 89.0955 194.793ZM97.4922 192.211L95.8977 192.254C95.8812 192.14 95.8362 192.039 95.7628 191.952C95.6894 191.862 95.5935 191.792 95.4751 191.742C95.3591 191.69 95.2242 191.664 95.0703 191.664C94.8691 191.664 94.6974 191.704 94.5554 191.785C94.4157 191.865 94.3471 191.974 94.3494 192.112C94.3471 192.218 94.3897 192.31 94.4773 192.388C94.5672 192.467 94.727 192.529 94.9567 192.577L96.0078 192.776C96.5523 192.88 96.9571 193.053 97.2223 193.294C97.4898 193.536 97.6248 193.855 97.6271 194.253C97.6248 194.627 97.5135 194.952 97.2933 195.229C97.0755 195.506 96.7772 195.722 96.3984 195.876C96.0196 196.027 95.5864 196.103 95.0987 196.103C94.3198 196.103 93.7055 195.943 93.2557 195.624C92.8082 195.302 92.5526 194.871 92.4886 194.331L94.2038 194.288C94.2417 194.487 94.34 194.639 94.4986 194.743C94.6572 194.847 94.8596 194.899 95.1058 194.899C95.3284 194.899 95.5095 194.858 95.6491 194.775C95.7888 194.692 95.8598 194.582 95.8622 194.445C95.8598 194.321 95.8054 194.223 95.6989 194.15C95.5923 194.074 95.4254 194.015 95.1982 193.972L94.2464 193.791C93.6996 193.692 93.2924 193.508 93.0249 193.241C92.7573 192.971 92.6248 192.628 92.6271 192.211C92.6248 191.846 92.7218 191.535 92.9183 191.277C93.1148 191.017 93.3942 190.818 93.7564 190.68C94.1186 190.543 94.5459 190.474 95.0384 190.474C95.777 190.474 96.3594 190.629 96.7855 190.94C97.2116 191.247 97.4472 191.671 97.4922 192.211ZM98.4821 196V190.545H100.219V196H98.4821ZM99.3521 189.91C99.1083 189.91 98.8987 189.829 98.7235 189.668C98.5484 189.505 98.4608 189.308 98.4608 189.079C98.4608 188.852 98.5484 188.657 98.7235 188.496C98.8987 188.333 99.1083 188.251 99.3521 188.251C99.5983 188.251 99.8078 188.333 99.9806 188.496C100.156 188.657 100.243 188.852 100.243 189.079C100.243 189.308 100.156 189.505 99.9806 189.668C99.8078 189.829 99.5983 189.91 99.3521 189.91ZM104.403 190.545V191.824H100.962V190.545H104.403ZM101.683 189.239H103.419V194.285C103.419 194.391 103.436 194.478 103.469 194.544C103.504 194.608 103.555 194.654 103.621 194.683C103.688 194.709 103.767 194.722 103.859 194.722C103.926 194.722 103.996 194.716 104.069 194.704C104.145 194.69 104.201 194.678 104.239 194.668L104.502 195.922C104.419 195.946 104.302 195.975 104.151 196.011C104.001 196.046 103.823 196.069 103.614 196.078C103.207 196.097 102.858 196.05 102.567 195.936C102.278 195.82 102.057 195.64 101.903 195.396C101.751 195.152 101.678 194.846 101.683 194.477V189.239Z" fill="#FFFDF7"/>
<g filter="url(#filter4_d_2823_216)">
<rect x="25" y="134" width="250" height="30" rx="10" fill="#00A0FF"/>
</g>
<path d="M126.323 148.103C126.283 147.954 126.224 147.822 126.146 147.709C126.067 147.593 125.972 147.495 125.858 147.414C125.744 147.334 125.614 147.273 125.467 147.233C125.321 147.19 125.16 147.169 124.984 147.169C124.632 147.169 124.326 147.254 124.068 147.425C123.812 147.595 123.615 147.844 123.475 148.17C123.335 148.495 123.266 148.889 123.266 149.353C123.266 149.819 123.333 150.217 123.468 150.546C123.603 150.875 123.798 151.126 124.054 151.299C124.31 151.472 124.62 151.558 124.984 151.558C125.306 151.558 125.579 151.506 125.801 151.402C126.026 151.295 126.196 151.145 126.312 150.951C126.429 150.757 126.487 150.528 126.487 150.266L126.813 150.305H125.045V149.023H128.18V149.985C128.18 150.636 128.042 151.194 127.765 151.658C127.49 152.122 127.112 152.478 126.629 152.727C126.148 152.975 125.595 153.099 124.97 153.099C124.277 153.099 123.667 152.949 123.141 152.648C122.616 152.348 122.206 151.919 121.913 151.363C121.619 150.804 121.472 150.141 121.472 149.374C121.472 148.778 121.561 148.249 121.739 147.787C121.916 147.323 122.164 146.93 122.481 146.608C122.8 146.286 123.17 146.042 123.589 145.876C124.01 145.711 124.464 145.628 124.949 145.628C125.37 145.628 125.762 145.688 126.124 145.809C126.489 145.93 126.811 146.1 127.09 146.32C127.372 146.54 127.6 146.802 127.776 147.105C127.951 147.408 128.06 147.741 128.102 148.103H126.323ZM131.766 153.103C131.196 153.103 130.703 152.991 130.289 152.766C129.877 152.538 129.56 152.215 129.337 151.796C129.117 151.375 129.007 150.874 129.007 150.294C129.007 149.731 129.118 149.238 129.341 148.817C129.563 148.393 129.877 148.064 130.282 147.83C130.687 147.593 131.164 147.474 131.713 147.474C132.101 147.474 132.456 147.535 132.778 147.656C133.1 147.776 133.378 147.955 133.613 148.192C133.847 148.429 134.029 148.721 134.16 149.069C134.29 149.415 134.355 149.811 134.355 150.259V150.692H129.614V149.683H132.739C132.737 149.499 132.693 149.334 132.608 149.19C132.523 149.045 132.405 148.933 132.256 148.852C132.109 148.769 131.94 148.728 131.748 148.728C131.554 148.728 131.38 148.772 131.226 148.859C131.073 148.945 130.951 149.062 130.861 149.211C130.771 149.358 130.723 149.525 130.719 149.712V150.738C130.719 150.96 130.762 151.156 130.85 151.324C130.938 151.49 131.062 151.619 131.223 151.711C131.384 151.803 131.576 151.849 131.798 151.849C131.952 151.849 132.092 151.828 132.217 151.786C132.343 151.743 132.45 151.68 132.54 151.597C132.63 151.514 132.698 151.413 132.743 151.292L134.337 151.338C134.271 151.696 134.125 152.007 133.9 152.272C133.678 152.535 133.385 152.74 133.023 152.886C132.661 153.031 132.242 153.103 131.766 153.103ZM138.321 147.545V148.824H134.88V147.545H138.321ZM135.6 146.239H137.337V151.285C137.337 151.391 137.354 151.478 137.387 151.544C137.422 151.608 137.473 151.654 137.539 151.683C137.606 151.709 137.685 151.722 137.777 151.722C137.844 151.722 137.913 151.716 137.987 151.704C138.063 151.69 138.119 151.678 138.157 151.668L138.42 152.922C138.337 152.946 138.22 152.975 138.069 153.011C137.919 153.046 137.741 153.069 137.532 153.078C137.125 153.097 136.776 153.05 136.485 152.936C136.196 152.82 135.975 152.64 135.821 152.396C135.669 152.152 135.596 151.846 135.6 151.477V146.239ZM146.646 147.545L144.775 153H142.786L140.918 147.545H142.747L143.752 151.303H143.809L144.817 147.545H146.646ZM149.686 153.103C149.116 153.103 148.623 152.991 148.209 152.766C147.797 152.538 147.48 152.215 147.257 151.796C147.037 151.375 146.927 150.874 146.927 150.294C146.927 149.731 147.038 149.238 147.261 148.817C147.483 148.393 147.797 148.064 148.202 147.83C148.607 147.593 149.084 147.474 149.633 147.474C150.021 147.474 150.376 147.535 150.698 147.656C151.02 147.776 151.298 147.955 151.533 148.192C151.767 148.429 151.949 148.721 152.08 149.069C152.21 149.415 152.275 149.811 152.275 150.259V150.692H147.534V149.683H150.659C150.657 149.499 150.613 149.334 150.528 149.19C150.442 149.045 150.325 148.933 150.176 148.852C150.029 148.769 149.86 148.728 149.668 148.728C149.474 148.728 149.3 148.772 149.146 148.859C148.992 148.945 148.871 149.062 148.781 149.211C148.691 149.358 148.643 149.525 148.638 149.712V150.738C148.638 150.96 148.682 151.156 148.77 151.324C148.857 151.49 148.982 151.619 149.143 151.711C149.304 151.803 149.496 151.849 149.718 151.849C149.872 151.849 150.012 151.828 150.137 151.786C150.263 151.743 150.37 151.68 150.46 151.597C150.55 151.514 150.618 151.413 150.663 151.292L152.257 151.338C152.191 151.696 152.045 152.007 151.82 152.272C151.598 152.535 151.305 152.74 150.943 152.886C150.581 153.031 150.162 153.103 149.686 153.103ZM153.162 153V147.545H154.849V148.54H154.905C155.005 148.18 155.167 147.912 155.392 147.737C155.617 147.56 155.878 147.471 156.177 147.471C156.257 147.471 156.34 147.477 156.425 147.489C156.51 147.498 156.59 147.513 156.663 147.535V149.044C156.58 149.016 156.471 148.993 156.336 148.977C156.204 148.96 156.086 148.952 155.981 148.952C155.775 148.952 155.59 148.998 155.424 149.09C155.26 149.18 155.131 149.307 155.037 149.47C154.944 149.631 154.898 149.821 154.898 150.038V153H153.162ZM157.371 153V147.545H159.107V153H157.371ZM158.241 146.91C157.997 146.91 157.787 146.829 157.612 146.668C157.437 146.505 157.349 146.308 157.349 146.079C157.349 145.852 157.437 145.657 157.612 145.496C157.787 145.333 157.997 145.251 158.241 145.251C158.487 145.251 158.696 145.333 158.869 145.496C159.045 145.657 159.132 145.852 159.132 146.079C159.132 146.308 159.045 146.505 158.869 146.668C158.696 146.829 158.487 146.91 158.241 146.91ZM163.313 147.545V148.824H159.804V147.545H163.313ZM160.536 153V147.268C160.536 146.847 160.615 146.498 160.774 146.221C160.932 145.942 161.152 145.733 161.434 145.596C161.716 145.456 162.041 145.386 162.411 145.386C162.652 145.386 162.879 145.405 163.093 145.443C163.308 145.479 163.468 145.511 163.572 145.539L163.295 146.81C163.231 146.789 163.153 146.771 163.061 146.757C162.971 146.743 162.885 146.736 162.805 146.736C162.601 146.736 162.462 146.781 162.386 146.871C162.31 146.961 162.272 147.084 162.272 147.24V153H160.536ZM164.148 153V147.545H165.885V153H164.148ZM165.018 146.91C164.774 146.91 164.565 146.829 164.39 146.668C164.214 146.505 164.127 146.308 164.127 146.079C164.127 145.852 164.214 145.657 164.39 145.496C164.565 145.333 164.774 145.251 165.018 145.251C165.264 145.251 165.474 145.333 165.647 145.496C165.822 145.657 165.909 145.852 165.909 146.079C165.909 146.308 165.822 146.505 165.647 146.668C165.474 146.829 165.264 146.91 165.018 146.91ZM169.54 153.103C168.969 153.103 168.477 152.991 168.062 152.766C167.65 152.538 167.333 152.215 167.111 151.796C166.89 151.375 166.78 150.874 166.78 150.294C166.78 149.731 166.892 149.238 167.114 148.817C167.337 148.393 167.65 148.064 168.055 147.83C168.46 147.593 168.937 147.474 169.486 147.474C169.875 147.474 170.23 147.535 170.552 147.656C170.874 147.776 171.152 147.955 171.386 148.192C171.621 148.429 171.803 148.721 171.933 149.069C172.063 149.415 172.128 149.811 172.128 150.259V150.692H167.388V149.683H170.513C170.51 149.499 170.466 149.334 170.381 149.19C170.296 149.045 170.179 148.933 170.03 148.852C169.883 148.769 169.714 148.728 169.522 148.728C169.328 148.728 169.154 148.772 169 148.859C168.846 148.945 168.724 149.062 168.634 149.211C168.544 149.358 168.497 149.525 168.492 149.712V150.738C168.492 150.96 168.536 151.156 168.623 151.324C168.711 151.49 168.835 151.619 168.996 151.711C169.157 151.803 169.349 151.849 169.572 151.849C169.725 151.849 169.865 151.828 169.991 151.786C170.116 151.743 170.224 151.68 170.314 151.597C170.404 151.514 170.471 151.413 170.516 151.292L172.111 151.338C172.044 151.696 171.899 152.007 171.674 152.272C171.451 152.535 171.159 152.74 170.797 152.886C170.434 153.031 170.015 153.103 169.54 153.103ZM175.007 153.078C174.605 153.078 174.239 152.974 173.91 152.766C173.581 152.557 173.318 152.245 173.122 151.828C172.925 151.411 172.827 150.894 172.827 150.276C172.827 149.635 172.929 149.107 173.132 148.692C173.336 148.278 173.602 147.972 173.931 147.773C174.263 147.574 174.619 147.474 175 147.474C175.287 147.474 175.532 147.524 175.735 147.624C175.939 147.721 176.107 147.846 176.24 148C176.372 148.154 176.473 148.314 176.542 148.479H176.577V145.727H178.314V153H176.595V152.116H176.542C176.468 152.284 176.364 152.441 176.229 152.588C176.094 152.735 175.925 152.853 175.721 152.943C175.52 153.033 175.282 153.078 175.007 153.078ZM175.611 151.725C175.822 151.725 176.002 151.666 176.151 151.548C176.3 151.427 176.415 151.258 176.495 151.04C176.576 150.822 176.616 150.566 176.616 150.273C176.616 149.974 176.576 149.718 176.495 149.502C176.417 149.287 176.302 149.121 176.151 149.005C176.002 148.889 175.822 148.831 175.611 148.831C175.396 148.831 175.213 148.89 175.064 149.009C174.915 149.127 174.801 149.294 174.723 149.509C174.648 149.725 174.61 149.979 174.61 150.273C174.61 150.566 174.649 150.822 174.727 151.04C174.805 151.258 174.917 151.427 175.064 151.548C175.213 151.666 175.396 151.725 175.611 151.725Z" fill="#FFFDF7"/>
<g filter="url(#filter5_d_2823_216)">
<rect x="196" y="87" width="80" height="30" rx="10" fill="#00A0FF"/>
</g>
<path d="M226.651 106V104.736L229.304 102.413C229.503 102.233 229.672 102.069 229.812 101.92C229.952 101.768 230.058 101.617 230.132 101.465C230.205 101.311 230.242 101.144 230.242 100.964C230.242 100.763 230.198 100.592 230.11 100.45C230.023 100.305 229.902 100.194 229.748 100.116C229.594 100.038 229.418 99.9986 229.219 99.9986C229.018 99.9986 228.841 100.04 228.69 100.123C228.538 100.203 228.42 100.321 228.335 100.474C228.252 100.628 228.21 100.815 228.21 101.036H226.545C226.545 100.541 226.656 100.113 226.879 99.7536C227.101 99.3937 227.414 99.1167 227.816 98.9226C228.221 98.7261 228.691 98.6278 229.226 98.6278C229.778 98.6278 230.257 98.7202 230.664 98.9048C231.071 99.0895 231.386 99.3475 231.609 99.679C231.834 100.008 231.946 100.39 231.946 100.826C231.946 101.103 231.891 101.378 231.779 101.65C231.668 101.922 231.468 102.223 231.179 102.552C230.893 102.881 230.485 103.275 229.958 103.734L229.088 104.537V104.583H232.035V106H226.651ZM234.815 105.006L234.783 105.4C234.754 105.727 234.696 106.045 234.609 106.355C234.523 106.668 234.432 106.948 234.335 107.197C234.238 107.445 234.161 107.638 234.104 107.776H233.011C233.049 107.638 233.099 107.445 233.163 107.197C233.23 106.948 233.291 106.668 233.348 106.355C233.405 106.043 233.437 105.725 233.444 105.403L233.451 105.006H234.815ZM236.134 106V104.736L238.787 102.413C238.985 102.233 239.155 102.069 239.294 101.92C239.434 101.768 239.541 101.617 239.614 101.465C239.687 101.311 239.724 101.144 239.724 100.964C239.724 100.763 239.68 100.592 239.593 100.45C239.505 100.305 239.384 100.194 239.23 100.116C239.077 100.038 238.9 99.9986 238.701 99.9986C238.5 99.9986 238.324 100.04 238.172 100.123C238.021 100.203 237.902 100.321 237.817 100.474C237.734 100.628 237.693 100.815 237.693 101.036H236.027C236.027 100.541 236.139 100.113 236.361 99.7536C236.584 99.3937 236.896 99.1167 237.299 98.9226C237.703 98.7261 238.173 98.6278 238.708 98.6278C239.26 98.6278 239.739 98.7202 240.147 98.9048C240.554 99.0895 240.869 99.3475 241.091 99.679C241.316 100.008 241.429 100.39 241.429 100.826C241.429 101.103 241.373 101.378 241.262 101.65C241.15 101.922 240.95 102.223 240.662 102.552C240.375 102.881 239.968 103.275 239.44 103.734L238.57 104.537V104.583H241.517V106H236.134ZM242.82 106L245.753 100.19V100.144H242.323V98.7273H247.571V100.155L244.627 106H242.82ZM249.04 106L251.974 100.19V100.144H248.543V98.7273H253.792V100.155L250.848 106H249.04ZM254.498 106.103C254.242 106.103 254.023 106.013 253.841 105.833C253.661 105.653 253.572 105.435 253.574 105.18C253.572 104.929 253.661 104.714 253.841 104.537C254.023 104.357 254.242 104.267 254.498 104.267C254.739 104.267 254.952 104.357 255.137 104.537C255.324 104.714 255.419 104.929 255.421 105.18C255.419 105.35 255.374 105.505 255.286 105.645C255.201 105.785 255.088 105.896 254.949 105.979C254.811 106.062 254.661 106.103 254.498 106.103ZM259.249 106.178C258.615 106.178 258.068 106.027 257.608 105.727C257.149 105.424 256.795 104.989 256.547 104.423C256.298 103.855 256.175 103.172 256.177 102.374C256.18 101.576 256.304 100.899 256.55 100.343C256.799 99.7843 257.152 99.3594 257.608 99.0682C258.068 98.7746 258.615 98.6278 259.249 98.6278C259.884 98.6278 260.43 98.7746 260.89 99.0682C261.351 99.3594 261.706 99.7843 261.955 100.343C262.204 100.902 262.327 101.579 262.324 102.374C262.324 103.174 262.2 103.859 261.952 104.427C261.703 104.995 261.349 105.429 260.89 105.73C260.433 106.028 259.886 106.178 259.249 106.178ZM259.249 104.739C259.628 104.739 259.934 104.546 260.169 104.161C260.403 103.772 260.519 103.177 260.517 102.374C260.517 101.849 260.464 101.415 260.357 101.075C260.251 100.731 260.103 100.476 259.913 100.308C259.724 100.139 259.502 100.055 259.249 100.055C258.873 100.055 258.568 100.246 258.336 100.627C258.104 101.006 257.987 101.588 257.985 102.374C257.983 102.907 258.033 103.348 258.138 103.699C258.244 104.049 258.393 104.311 258.585 104.484C258.777 104.654 258.998 104.739 259.249 104.739ZM266.339 106.178C265.704 106.178 265.158 106.027 264.698 105.727C264.239 105.424 263.885 104.989 263.637 104.423C263.388 103.855 263.265 103.172 263.267 102.374C263.27 101.576 263.394 100.899 263.64 100.343C263.889 99.7843 264.241 99.3594 264.698 99.0682C265.158 98.7746 265.704 98.6278 266.339 98.6278C266.973 98.6278 267.52 98.7746 267.98 99.0682C268.441 99.3594 268.796 99.7843 269.045 100.343C269.294 100.902 269.417 101.579 269.414 102.374C269.414 103.174 269.29 103.859 269.041 104.427C268.793 104.995 268.439 105.429 267.98 105.73C267.523 106.028 266.976 106.178 266.339 106.178ZM266.339 104.739C266.718 104.739 267.024 104.546 267.259 104.161C267.493 103.772 267.609 103.177 267.607 102.374C267.607 101.849 267.553 101.415 267.447 101.075C267.34 100.731 267.192 100.476 267.003 100.308C266.814 100.139 266.592 100.055 266.339 100.055C265.963 100.055 265.658 100.246 265.426 100.627C265.194 101.006 265.077 101.588 265.075 102.374C265.072 102.907 265.123 103.348 265.227 103.699C265.334 104.049 265.483 104.311 265.675 104.484C265.867 104.654 266.088 104.739 266.339 104.739Z" fill="#FFFDF7"/>
<g clip-path="url(#clip0_2823_216)">
<path d="M208 108.853C211.785 108.853 214.854 105.784 214.854 101.999C214.854 98.2132 211.785 95.1445 208 95.1445C204.214 95.1445 201.146 98.2132 201.146 101.999C201.146 105.784 204.214 108.853 208 108.853Z" fill="#0B53BF"/>
<path d="M209.233 97.0078V97.8903C210.994 98.4215 212.284 100.058 212.284 101.999C212.284 103.939 210.994 105.576 209.233 106.107V106.989C211.478 106.441 213.14 104.415 213.14 101.999C213.14 99.5824 211.478 97.5561 209.233 97.0078Z" fill="white"/>
<path d="M203.716 101.999C203.716 100.058 205.006 98.4215 206.766 97.8903V97.0078C204.522 97.5561 202.859 99.5824 202.859 101.999C202.859 104.415 204.522 106.441 206.766 106.989V106.107C205.006 105.58 203.716 103.939 203.716 101.999Z" fill="white"/>
<path d="M209.843 102.954C209.843 101.202 207.097 101.922 207.097 100.953C207.097 100.606 207.375 100.384 207.906 100.384C208.54 100.384 208.759 100.692 208.827 101.108H209.701C209.623 100.328 209.176 99.8354 208.429 99.6888V99H207.572V99.6642C206.754 99.7684 206.24 100.245 206.24 100.953C206.24 102.714 208.99 102.054 208.99 103.005C208.99 103.365 208.643 103.605 208.056 103.605C207.289 103.605 207.037 103.267 206.942 102.8H206.09C206.145 103.654 206.672 104.189 207.572 104.322V104.997H208.429V104.331C209.307 104.217 209.843 103.706 209.843 102.954Z" fill="white"/>
</g>
<g filter="url(#filter6_d_2823_216)">
<rect x="111" y="86" width="80" height="30" rx="10" fill="#00A0FF"/>
</g>
<path d="M157.698 104.178C157.064 104.178 156.517 104.027 156.058 103.727C155.598 103.424 155.244 102.989 154.996 102.423C154.747 101.855 154.624 101.172 154.627 100.374C154.629 99.5765 154.753 98.8994 154.999 98.343C155.248 97.7843 155.601 97.3594 156.058 97.0682C156.517 96.7746 157.064 96.6278 157.698 96.6278C158.333 96.6278 158.88 96.7746 159.339 97.0682C159.801 97.3594 160.156 97.7843 160.404 98.343C160.653 98.9018 160.776 99.5788 160.774 100.374C160.774 101.174 160.649 101.859 160.401 102.427C160.152 102.995 159.798 103.429 159.339 103.73C158.882 104.028 158.335 104.178 157.698 104.178ZM157.698 102.739C158.077 102.739 158.384 102.546 158.618 102.161C158.852 101.772 158.968 101.177 158.966 100.374C158.966 99.8487 158.913 99.4155 158.806 99.0746C158.7 98.7313 158.552 98.4756 158.362 98.3075C158.173 98.1394 157.952 98.0554 157.698 98.0554C157.322 98.0554 157.018 98.246 156.786 98.6271C156.554 99.0059 156.436 99.5883 156.434 100.374C156.432 100.907 156.483 101.348 156.587 101.699C156.693 102.049 156.843 102.311 157.034 102.484C157.226 102.654 157.447 102.739 157.698 102.739ZM162.459 104.103C162.203 104.103 161.984 104.013 161.802 103.833C161.622 103.653 161.533 103.435 161.535 103.18C161.533 102.929 161.622 102.714 161.802 102.537C161.984 102.357 162.203 102.267 162.459 102.267C162.7 102.267 162.913 102.357 163.098 102.537C163.285 102.714 163.38 102.929 163.382 103.18C163.38 103.35 163.335 103.505 163.247 103.645C163.162 103.785 163.049 103.896 162.91 103.979C162.772 104.062 162.622 104.103 162.459 104.103ZM167.21 104.178C166.576 104.178 166.029 104.027 165.569 103.727C165.11 103.424 164.756 102.989 164.508 102.423C164.259 101.855 164.136 101.172 164.138 100.374C164.141 99.5765 164.265 98.8994 164.511 98.343C164.76 97.7843 165.113 97.3594 165.569 97.0682C166.029 96.7746 166.576 96.6278 167.21 96.6278C167.845 96.6278 168.391 96.7746 168.851 97.0682C169.312 97.3594 169.667 97.7843 169.916 98.343C170.165 98.9018 170.288 99.5788 170.285 100.374C170.285 101.174 170.161 101.859 169.912 102.427C169.664 102.995 169.31 103.429 168.851 103.73C168.394 104.028 167.847 104.178 167.21 104.178ZM167.21 102.739C167.589 102.739 167.895 102.546 168.13 102.161C168.364 101.772 168.48 101.177 168.478 100.374C168.478 99.8487 168.425 99.4155 168.318 99.0746C168.211 98.7313 168.064 98.4756 167.874 98.3075C167.685 98.1394 167.463 98.0554 167.21 98.0554C166.834 98.0554 166.529 98.246 166.297 98.6271C166.065 99.0059 165.948 99.5883 165.946 100.374C165.943 100.907 165.994 101.348 166.099 101.699C166.205 102.049 166.354 102.311 166.546 102.484C166.738 102.654 166.959 102.739 167.21 102.739ZM174.3 104.178C173.665 104.178 173.119 104.027 172.659 103.727C172.2 103.424 171.846 102.989 171.597 102.423C171.349 101.855 171.226 101.172 171.228 100.374C171.231 99.5765 171.355 98.8994 171.601 98.343C171.85 97.7843 172.202 97.3594 172.659 97.0682C173.119 96.7746 173.665 96.6278 174.3 96.6278C174.934 96.6278 175.481 96.7746 175.941 97.0682C176.402 97.3594 176.757 97.7843 177.006 98.343C177.254 98.9018 177.378 99.5788 177.375 100.374C177.375 101.174 177.251 101.859 177.002 102.427C176.754 102.995 176.4 103.429 175.941 103.73C175.484 104.028 174.937 104.178 174.3 104.178ZM174.3 102.739C174.679 102.739 174.985 102.546 175.22 102.161C175.454 101.772 175.57 101.177 175.568 100.374C175.568 99.8487 175.514 99.4155 175.408 99.0746C175.301 98.7313 175.153 98.4756 174.964 98.3075C174.775 98.1394 174.553 98.0554 174.3 98.0554C173.923 98.0554 173.619 98.246 173.387 98.6271C173.155 99.0059 173.038 99.5883 173.036 100.374C173.033 100.907 173.084 101.348 173.188 101.699C173.295 102.049 173.444 102.311 173.636 102.484C173.828 102.654 174.049 102.739 174.3 102.739Z" fill="#FFFDF7"/>
<g clip-path="url(#clip1_2823_216)">
<mask id="mask0_2823_216" style="mask-type:luminance" maskUnits="userSpaceOnUse" x="116" y="94" width="14" height="14">
<path d="M130 94H116V108H130V94Z" fill="white"/>
</mask>
<g mask="url(#mask0_2823_216)">
<path d="M123 108C126.866 108 130 104.866 130 101C130 97.134 126.866 94 123 94C119.134 94 116 97.134 116 101C116 104.866 119.134 108 123 108Z" fill="#0B53BF"/>
<path d="M124.488 102.667C124.182 102.789 123.849 102.859 123.53 102.859C122.897 102.859 122.301 102.59 122.016 101.941H123.407L123.678 101.284H121.854C121.845 101.194 121.841 101.099 121.841 101C121.841 100.901 121.845 100.806 121.854 100.716H123.91L124.182 100.059H122.016C122.301 99.41 122.897 99.1406 123.53 99.1406C123.849 99.1406 124.182 99.2106 124.488 99.3331L124.768 98.6681C124.392 98.4713 123.967 98.375 123.543 98.375C122.518 98.375 121.483 98.9476 121.108 100.059H120.437V100.716H120.974C120.966 100.808 120.962 100.903 120.962 101C120.962 101.097 120.966 101.192 120.974 101.284H120.437V101.941H121.108C121.483 103.052 122.518 103.625 123.543 103.625C123.967 103.625 124.392 103.529 124.768 103.332L124.488 102.667Z" fill="white" stroke="#0B53BF" stroke-width="0.03" stroke-miterlimit="10"/>
<path d="M118.625 100.999C118.625 99.0173 119.942 97.3461 121.74 96.8036V95.9023C119.447 96.4623 117.75 98.5317 117.75 100.999C117.75 103.467 119.447 105.536 121.74 106.096V105.195C119.942 104.657 118.625 102.981 118.625 100.999Z" fill="white" stroke="#0B53BF" stroke-width="0.03" stroke-miterlimit="10"/>
<path d="M124.26 95.9023V96.8036C126.058 97.3461 127.375 99.0173 127.375 100.999C127.375 102.981 126.058 104.652 124.26 105.195V106.096C126.552 105.536 128.25 103.467 128.25 100.999C128.25 98.5317 126.552 96.4623 124.26 95.9023Z" fill="white" stroke="#0B53BF" stroke-width="0.03" stroke-miterlimit="10"/>
</g>
</g>
<g filter="url(#filter7_d_2823_216)">
<rect x="26" y="86" width="80" height="30" rx="10" fill="#585B68"/>
</g>
<path d="M70.1626 105L73.0958 99.1903V99.1442H69.6654V97.7273H74.914V99.1548L71.9701 105H70.1626ZM75.6198 105.103C75.3641 105.103 75.1451 105.013 74.9628 104.833C74.7829 104.653 74.6941 104.435 74.6965 104.18C74.6941 103.929 74.7829 103.714 74.9628 103.537C75.1451 103.357 75.3641 103.267 75.6198 103.267C75.8612 103.267 76.0743 103.357 76.259 103.537C76.446 103.714 76.5407 103.929 76.5431 104.18C76.5407 104.35 76.4957 104.505 76.4081 104.645C76.3229 104.785 76.2104 104.896 76.0708 104.979C75.9334 105.062 75.7831 105.103 75.6198 105.103ZM80.2575 97.6278C80.6553 97.6278 81.0352 97.6929 81.3975 97.8232C81.7597 97.951 82.0828 98.1558 82.3669 98.4375C82.651 98.7169 82.8747 99.085 83.0381 99.5419C83.2014 99.9988 83.2831 100.556 83.2831 101.214C83.2855 101.821 83.2145 102.364 83.07 102.844C82.9256 103.323 82.7185 103.73 82.4486 104.066C82.1811 104.402 81.8591 104.659 81.4827 104.837C81.1063 105.012 80.686 105.099 80.222 105.099C79.7107 105.099 79.2597 105.001 78.8691 104.805C78.4808 104.606 78.1695 104.338 77.9351 104.002C77.7031 103.666 77.5646 103.29 77.5196 102.873H79.249C79.3035 103.114 79.4183 103.297 79.5935 103.42C79.7687 103.54 79.9782 103.601 80.222 103.601C80.6671 103.601 80.9997 103.408 81.2199 103.022C81.4401 102.636 81.5502 102.112 81.5502 101.449H81.5075C81.4057 101.667 81.2613 101.854 81.0743 102.01C80.8896 102.166 80.6754 102.286 80.4316 102.369C80.1877 102.451 79.9308 102.493 79.661 102.493C79.2253 102.493 78.8406 102.393 78.5068 102.195C78.1754 101.996 77.915 101.722 77.7256 101.374C77.5386 101.026 77.4439 100.629 77.4415 100.181C77.4391 99.6792 77.5563 99.2365 77.7931 98.853C78.0298 98.4671 78.3601 98.1664 78.7838 97.951C79.2076 97.7332 79.6988 97.6255 80.2575 97.6278ZM80.2682 98.9773C80.0504 98.9773 79.8563 99.0282 79.6858 99.13C79.5177 99.2318 79.3852 99.3691 79.2881 99.5419C79.191 99.7147 79.1437 99.9089 79.146 100.124C79.1484 100.34 79.1969 100.534 79.2916 100.707C79.3887 100.879 79.5201 101.017 79.6858 101.119C79.8539 101.22 80.0457 101.271 80.2611 101.271C80.4221 101.271 80.5712 101.242 80.7085 101.183C80.8459 101.123 80.9654 101.042 81.0672 100.938C81.169 100.831 81.2483 100.708 81.3051 100.568C81.3643 100.429 81.3927 100.279 81.3904 100.121C81.388 99.91 81.3383 99.7183 81.2412 99.5455C81.1441 99.3726 81.0104 99.2353 80.8399 99.1335C80.6718 99.0294 80.4813 98.9773 80.2682 98.9773ZM87.6111 97.7273V105H85.8568V99.3679H85.8142L84.1878 100.362V98.8423L85.9811 97.7273H87.6111Z" fill="#FFFDF7"/>
<g clip-path="url(#clip2_2823_216)">
<circle cx="37.65" cy="100.65" r="6.65" fill="#393939"/>
<g clip-path="url(#clip3_2823_216)">
<path d="M40.941 102.42L39.8432 103.579C39.8193 103.605 39.7904 103.625 39.7583 103.638C39.7263 103.652 39.6916 103.659 39.6567 103.659H34.4526C34.4278 103.659 34.4035 103.652 34.3828 103.639C34.362 103.625 34.3457 103.606 34.3358 103.584C34.3259 103.561 34.3228 103.536 34.327 103.512C34.3313 103.488 34.3425 103.466 34.3595 103.448L35.4581 102.288C35.4819 102.263 35.5107 102.243 35.5426 102.229C35.5746 102.216 35.6091 102.209 35.644 102.208H40.8478C40.8726 102.208 40.8969 102.216 40.9177 102.229C40.9384 102.242 40.9547 102.262 40.9647 102.284C40.9745 102.306 40.9776 102.331 40.9734 102.355C40.9691 102.379 40.9579 102.402 40.941 102.42ZM39.8432 100.084C39.8193 100.059 39.7904 100.039 39.7583 100.025C39.7263 100.012 39.6916 100.005 39.6567 100.005H34.4526C34.4278 100.005 34.4035 100.012 34.3828 100.025C34.362 100.039 34.3457 100.058 34.3358 100.08C34.3259 100.103 34.3228 100.127 34.327 100.151C34.3313 100.176 34.3425 100.198 34.3595 100.216L35.4581 101.375C35.4819 101.401 35.5107 101.421 35.5426 101.434C35.5746 101.448 35.6091 101.455 35.644 101.455H40.8478C40.8726 101.455 40.8969 101.448 40.9177 101.435C40.9384 101.421 40.9547 101.402 40.9647 101.38C40.9745 101.357 40.9776 101.333 40.9734 101.308C40.9691 101.284 40.9579 101.262 40.941 101.244L39.8432 100.084ZM34.4526 99.2514H39.6567C39.6916 99.2514 39.7263 99.2444 39.7583 99.2306C39.7904 99.2169 39.8193 99.1968 39.8432 99.1716L40.941 98.012C40.9579 97.9941 40.9691 97.9717 40.9734 97.9476C40.9776 97.9235 40.9745 97.8987 40.9647 97.8763C40.9547 97.8538 40.9384 97.8348 40.9177 97.8213C40.8969 97.8079 40.8726 97.8008 40.8478 97.8008H35.644C35.6091 97.8008 35.5746 97.808 35.5426 97.8217C35.5107 97.8354 35.4819 97.8554 35.4581 97.8806L34.3597 99.0402C34.3428 99.0581 34.3316 99.0804 34.3273 99.1045C34.3231 99.1286 34.3261 99.1534 34.336 99.1758C34.3458 99.1982 34.3621 99.2173 34.3829 99.2307C34.4036 99.2442 34.4278 99.2514 34.4526 99.2514Z" fill="white"/>
</g>
</g>
<g filter="url(#filter8_d_2823_216)">
<rect x="26" y="49" width="250" height="30" rx="10" fill="url(#paint1_linear_2823_216)"/>
</g>
<path d="M48.516 68H45.8278V60.7273H48.5124C49.2534 60.7273 49.8915 60.8729 50.4265 61.1641C50.9639 61.4529 51.3782 61.8696 51.6694 62.4141C51.9606 62.9562 52.1062 63.6049 52.1062 64.3601C52.1062 65.1177 51.9606 65.7687 51.6694 66.3132C51.3806 66.8577 50.9674 67.2756 50.43 67.5668C49.8926 67.8556 49.2546 68 48.516 68ZM47.5856 66.5014H48.4485C48.8557 66.5014 49.2002 66.4328 49.4819 66.2955C49.766 66.1558 49.9802 65.9297 50.1246 65.6172C50.2714 65.3023 50.3448 64.8833 50.3448 64.3601C50.3448 63.8369 50.2714 63.4202 50.1246 63.1101C49.9779 62.7976 49.7612 62.5727 49.4748 62.4354C49.1907 62.2957 48.8403 62.2259 48.4237 62.2259H47.5856V66.5014ZM53.1325 68V60.7273H54.869V63.4794H54.9045C54.9755 63.3137 55.0761 63.1539 55.2063 63C55.3389 62.8461 55.507 62.7206 55.7106 62.6236C55.9165 62.5241 56.1628 62.4744 56.4492 62.4744C56.828 62.4744 57.1819 62.5739 57.511 62.7727C57.8424 62.9716 58.11 63.2782 58.3136 63.6925C58.5172 64.1068 58.619 64.6347 58.619 65.2763C58.619 65.8942 58.5207 66.4115 58.3242 66.8281C58.1301 67.2448 57.8673 67.5573 57.5359 67.7656C57.2068 67.974 56.841 68.0781 56.4386 68.0781C56.1639 68.0781 55.926 68.0331 55.7248 67.9432C55.5236 67.8532 55.3543 67.7348 55.217 67.5881C55.082 67.4413 54.9779 67.2839 54.9045 67.1158H54.8512V68H53.1325ZM54.8335 65.2727C54.8335 65.5663 54.8725 65.822 54.9506 66.0398C55.0311 66.2576 55.146 66.4268 55.2951 66.5476C55.4466 66.666 55.6277 66.7251 55.8384 66.7251C56.0515 66.7251 56.2326 66.666 56.3817 66.5476C56.5309 66.4268 56.6433 66.2576 56.7191 66.0398C56.7972 65.822 56.8363 65.5663 56.8363 65.2727C56.8363 64.9792 56.7972 64.7247 56.7191 64.5092C56.6433 64.2938 56.5309 64.1269 56.3817 64.0085C56.235 63.8902 56.0539 63.831 55.8384 63.831C55.6254 63.831 55.4442 63.889 55.2951 64.005C55.146 64.121 55.0311 64.2867 54.9506 64.5021C54.8725 64.7176 54.8335 64.9744 54.8335 65.2727ZM60.7603 68H58.8711L61.3249 60.7273H63.6651L66.119 68H64.2298L62.5217 62.5597H62.4648L60.7603 68ZM60.5082 65.1378H64.457V66.473H60.5082V65.1378ZM70.122 70.0455V67.1158H70.0865C70.0131 67.2839 69.9089 67.4413 69.774 67.5881C69.639 67.7348 69.4698 67.8532 69.2662 67.9432C69.0649 68.0331 68.827 68.0781 68.5524 68.0781C68.1499 68.0781 67.7842 67.974 67.4551 67.7656C67.126 67.5573 66.8632 67.2448 66.6667 66.8281C66.4702 66.4115 66.372 65.8942 66.372 65.2763C66.372 64.6347 66.4738 64.1068 66.6774 63.6925C66.881 63.2782 67.1473 62.9716 67.4764 62.7727C67.8078 62.5739 68.1641 62.4744 68.5453 62.4744C68.8317 62.4744 69.0768 62.5241 69.2804 62.6236C69.484 62.7206 69.652 62.8461 69.7846 63C69.9172 63.1539 70.0178 63.3137 70.0865 63.4794H70.1397V62.5455H71.8585V70.0455H70.122ZM69.1561 66.7251C69.3668 66.7251 69.5467 66.666 69.6958 66.5476C69.845 66.4268 69.9598 66.2576 70.0403 66.0398C70.1208 65.822 70.161 65.5663 70.161 65.2727C70.161 64.9744 70.1208 64.7176 70.0403 64.5021C69.9622 64.2867 69.8474 64.121 69.6958 64.005C69.5467 63.889 69.3668 63.831 69.1561 63.831C68.9406 63.831 68.7583 63.8902 68.6092 64.0085C68.46 64.1269 68.3464 64.2938 68.2683 64.5092C68.1925 64.7247 68.1547 64.9792 68.1547 65.2727C68.1547 65.5663 68.1937 65.822 68.2718 66.0398C68.35 66.2576 68.4624 66.4268 68.6092 66.5476C68.7583 66.666 68.9406 66.7251 69.1561 66.7251ZM75.858 68.0994C75.4602 68.0994 75.0791 68.0355 74.7145 67.9077C74.3499 67.7775 74.0256 67.5715 73.7415 67.2898C73.4574 67.0057 73.2337 66.634 73.0703 66.1747C72.907 65.7131 72.8265 65.1508 72.8288 64.4879C72.8312 63.889 72.9046 63.3516 73.049 62.8757C73.1934 62.3975 73.3994 61.9915 73.6669 61.6577C73.9368 61.3239 74.2588 61.0694 74.6328 60.8942C75.0092 60.7166 75.4295 60.6278 75.8935 60.6278C76.4025 60.6278 76.8511 60.7273 77.2393 60.9261C77.63 61.1226 77.9425 61.3878 78.1768 61.7216C78.4112 62.053 78.5497 62.4223 78.5923 62.8295H76.8629C76.8108 62.5999 76.696 62.4259 76.5185 62.3075C76.3433 62.1868 76.1349 62.1264 75.8935 62.1264C75.4484 62.1264 75.1158 62.3194 74.8956 62.7053C74.6778 63.0911 74.5665 63.6072 74.5618 64.2536H74.608C74.7074 64.0357 74.8506 63.8487 75.0376 63.6925C75.2247 63.5362 75.4389 63.4167 75.6804 63.3338C75.9242 63.2486 76.1823 63.206 76.4545 63.206C76.8902 63.206 77.2749 63.3066 77.6087 63.5078C77.9425 63.709 78.2041 63.9848 78.3935 64.3352C78.5829 64.6832 78.6764 65.0821 78.674 65.532C78.6764 66.0386 78.558 66.486 78.3189 66.8743C78.0798 67.2602 77.7483 67.5608 77.3246 67.7763C76.9032 67.9917 76.4143 68.0994 75.858 68.0994ZM75.8473 66.75C76.0627 66.75 76.2557 66.6991 76.4261 66.5973C76.5966 66.4955 76.7304 66.357 76.8274 66.1818C76.9245 66.0066 76.9718 65.8089 76.9695 65.5888C76.9718 65.3662 76.9245 65.1686 76.8274 64.9957C76.7327 64.8229 76.6001 64.6856 76.4297 64.5838C76.2616 64.482 76.0687 64.4311 75.8509 64.4311C75.6922 64.4311 75.5443 64.4607 75.407 64.5199C75.2696 64.5791 75.1501 64.6619 75.0483 64.7685C74.9489 64.8726 74.8707 64.9957 74.8139 65.1378C74.7571 65.2775 74.7275 65.429 74.7251 65.5923C74.7275 65.8078 74.7772 66.0031 74.8743 66.1783C74.9714 66.3535 75.1039 66.4931 75.272 66.5973C75.4401 66.6991 75.6319 66.75 75.8473 66.75ZM79.6994 68V67.0092L82.2278 63.9304V63.8949H79.7882V62.5455H84.2981V63.6321L81.9544 66.6151V66.6506H84.3833V68H79.6994ZM88.2576 68.0994C87.7037 68.0994 87.2124 68.0047 86.7839 67.8153C86.3578 67.6236 86.0216 67.3596 85.7754 67.0234C85.5292 66.6873 85.4037 66.3002 85.399 65.8622H87.1674C87.1745 66.0208 87.2254 66.1617 87.3201 66.2848C87.4148 66.4055 87.5439 66.5002 87.7072 66.5689C87.8706 66.6375 88.0564 66.6719 88.2647 66.6719C88.4731 66.6719 88.6565 66.6352 88.8152 66.5618C88.9761 66.486 89.1016 66.383 89.1916 66.2528C89.2815 66.1203 89.3253 65.9687 89.323 65.7983C89.3253 65.6278 89.2768 65.4763 89.1774 65.3438C89.0779 65.2112 88.9371 65.1082 88.7548 65.0348C88.5749 64.9614 88.3618 64.9247 88.1156 64.9247H87.4089V63.6747H88.1156C88.331 63.6747 88.5204 63.6392 88.6838 63.5682C88.8495 63.4972 88.9785 63.3977 89.0708 63.2699C89.1632 63.1397 89.2082 62.9905 89.2058 62.8224C89.2082 62.6591 89.1691 62.5159 89.0886 62.3928C89.0105 62.2673 88.9004 62.1702 88.7583 62.1016C88.6187 62.0329 88.4565 61.9986 88.2718 61.9986C88.0777 61.9986 87.9013 62.0329 87.7427 62.1016C87.5865 62.1702 87.4622 62.2673 87.3699 62.3928C87.2775 62.5182 87.229 62.6638 87.2243 62.8295H85.5446C85.5493 62.3963 85.67 62.0152 85.9068 61.6861C86.1435 61.3546 86.4655 61.0954 86.8727 60.9084C87.2823 60.7214 87.7486 60.6278 88.2718 60.6278C88.7927 60.6278 89.2508 60.719 89.6461 60.9013C90.0415 61.0836 90.3493 61.3321 90.5694 61.647C90.7896 61.9595 90.8997 62.3134 90.8997 62.7088C90.902 63.1184 90.7683 63.4557 90.4984 63.7209C90.2309 63.986 89.8864 64.1494 89.465 64.2109V64.2678C90.0285 64.334 90.4534 64.5163 90.7399 64.8146C91.0287 65.1129 91.1719 65.4858 91.1696 65.9332C91.1696 66.3546 91.0453 66.7287 90.7967 67.0554C90.5505 67.3797 90.2072 67.6354 89.7669 67.8224C89.3289 68.0071 88.8258 68.0994 88.2576 68.0994ZM95.2543 62.5455V63.8239H91.8132V62.5455H95.2543ZM92.5341 61.2386H94.2706V66.2848C94.2706 66.3913 94.2872 66.4777 94.3203 66.544C94.3558 66.608 94.4067 66.6541 94.473 66.6825C94.5393 66.7086 94.6186 66.7216 94.7109 66.7216C94.7772 66.7216 94.8471 66.7157 94.9205 66.7038C94.9962 66.6896 95.053 66.6778 95.0909 66.6683L95.3537 67.9219C95.2708 67.9455 95.1536 67.9751 95.0021 68.0107C94.853 68.0462 94.6742 68.0687 94.4659 68.0781C94.0587 68.0971 93.7095 68.0497 93.4183 67.9361C93.1295 67.8201 92.9081 67.6402 92.7543 67.3963C92.6027 67.1525 92.5294 66.8459 92.5341 66.4766V61.2386ZM99.0948 60.7273H100.828V65.7557C100.825 66.2268 100.713 66.6387 100.49 66.9915C100.268 67.3419 99.9601 67.6141 99.5671 67.8082C99.1765 68.0024 98.7243 68.0994 98.2106 68.0994C97.756 68.0994 97.3429 68.0201 96.9712 67.8615C96.6019 67.7029 96.3072 67.4567 96.087 67.1229C95.8692 66.7891 95.7615 66.3617 95.7638 65.8409H97.5146C97.5217 66.0279 97.5572 66.1877 97.6211 66.3203C97.6874 66.4505 97.7785 66.5488 97.8945 66.6151C98.0105 66.6813 98.149 66.7145 98.31 66.7145C98.4781 66.7145 98.6201 66.679 98.7362 66.608C98.8522 66.5346 98.9397 66.4268 98.9989 66.2848C99.0605 66.1428 99.0924 65.9664 99.0948 65.7557V60.7273ZM103.668 64.8892V68H101.931V62.5455H103.583V63.5469H103.643C103.764 63.2131 103.97 62.9515 104.261 62.7621C104.552 62.5703 104.899 62.4744 105.301 62.4744C105.685 62.4744 106.017 62.5608 106.299 62.7337C106.583 62.9041 106.803 63.1432 106.96 63.451C107.118 63.7564 107.196 64.1139 107.194 64.5234V68H105.458V64.8643C105.46 64.5613 105.383 64.3246 105.227 64.1541C105.073 63.9837 104.859 63.8984 104.584 63.8984C104.402 63.8984 104.241 63.9387 104.101 64.0192C103.964 64.0973 103.857 64.2098 103.781 64.3565C103.708 64.5033 103.67 64.6809 103.668 64.8892ZM109.246 68.103C108.99 68.103 108.771 68.013 108.589 67.8331C108.409 67.6532 108.32 67.4354 108.322 67.1797C108.32 66.9287 108.409 66.7145 108.589 66.5369C108.771 66.357 108.99 66.267 109.246 66.267C109.487 66.267 109.7 66.357 109.885 66.5369C110.072 66.7145 110.167 66.9287 110.169 67.1797C110.167 67.3501 110.122 67.5052 110.034 67.6449C109.949 67.7846 109.836 67.8958 109.697 67.9787C109.559 68.0616 109.409 68.103 109.246 68.103ZM112.293 68.103C112.037 68.103 111.818 68.013 111.636 67.8331C111.456 67.6532 111.367 67.4354 111.369 67.1797C111.367 66.9287 111.456 66.7145 111.636 66.5369C111.818 66.357 112.037 66.267 112.293 66.267C112.534 66.267 112.747 66.357 112.932 66.5369C113.119 66.7145 113.214 66.9287 113.216 67.1797C113.214 67.3501 113.169 67.5052 113.081 67.6449C112.996 67.7846 112.883 67.8958 112.744 67.9787C112.606 68.0616 112.456 68.103 112.293 68.103ZM115.339 68.103C115.084 68.103 114.865 68.013 114.683 67.8331C114.503 67.6532 114.414 67.4354 114.416 67.1797C114.414 66.9287 114.503 66.7145 114.683 66.5369C114.865 66.357 115.084 66.267 115.339 66.267C115.581 66.267 115.794 66.357 115.979 66.5369C116.166 66.7145 116.26 66.9287 116.263 67.1797C116.26 67.3501 116.215 67.5052 116.128 67.6449C116.043 67.7846 115.93 67.8958 115.79 67.9787C115.653 68.0616 115.503 68.103 115.339 68.103ZM120.15 68.0994C119.62 68.0994 119.149 68.0036 118.737 67.8118C118.325 67.62 118 67.3561 117.76 67.0199C117.524 66.6837 117.401 66.2978 117.391 65.8622H119.096C119.11 66.1297 119.219 66.3452 119.422 66.5085C119.626 66.6695 119.869 66.75 120.15 66.75C120.371 66.75 120.566 66.7015 120.736 66.6044C120.907 66.5073 121.041 66.3712 121.138 66.196C121.235 66.0185 121.282 65.8149 121.28 65.5852C121.282 65.3509 121.233 65.1461 121.134 64.9709C121.037 64.7957 120.902 64.6596 120.729 64.5625C120.559 64.4631 120.362 64.4134 120.14 64.4134C119.929 64.411 119.729 64.4571 119.54 64.5518C119.353 64.6465 119.211 64.7756 119.113 64.9389L117.562 64.6477L117.878 60.7273H122.544V62.1442H119.323L119.156 63.8594H119.199C119.319 63.6581 119.514 63.4924 119.781 63.3622C120.051 63.2296 120.358 63.1634 120.701 63.1634C121.136 63.1634 121.525 63.2652 121.866 63.4688C122.209 63.67 122.479 63.9493 122.675 64.3068C122.874 64.6643 122.974 65.0739 122.974 65.5355C122.974 66.035 122.855 66.4777 122.618 66.8636C122.384 67.2495 122.055 67.5526 121.631 67.7727C121.21 67.9905 120.716 68.0994 120.15 68.0994ZM123.953 68V62.5455H125.689V68H123.953ZM124.823 61.9098C124.579 61.9098 124.369 61.8293 124.194 61.6683C124.019 61.505 123.931 61.3085 123.931 61.0788C123.931 60.8516 124.019 60.6574 124.194 60.4964C124.369 60.3331 124.579 60.2514 124.823 60.2514C125.069 60.2514 125.279 60.3331 125.451 60.4964C125.627 60.6574 125.714 60.8516 125.714 61.0788C125.714 61.3085 125.627 61.505 125.451 61.6683C125.279 61.8293 125.069 61.9098 124.823 61.9098ZM129.621 68.0994C129.055 68.0994 128.55 68.0095 128.105 67.8295C127.662 67.6473 127.314 67.401 127.061 67.0909C126.81 66.7784 126.684 66.4257 126.684 66.0327C126.684 65.732 126.757 65.4562 126.901 65.2053C127.046 64.9543 127.241 64.746 127.487 64.5803C127.736 64.4122 128.013 64.3045 128.318 64.2571V64.2003C127.918 64.1269 127.59 63.9411 127.334 63.6428C127.081 63.3445 126.954 62.9953 126.954 62.5952C126.954 62.2164 127.069 61.879 127.299 61.5831C127.531 61.2872 127.847 61.054 128.247 60.8835C128.649 60.7131 129.108 60.6278 129.621 60.6278C130.135 60.6278 130.592 60.7131 130.992 60.8835C131.394 61.054 131.711 61.2872 131.94 61.5831C132.172 61.879 132.288 62.2164 132.288 62.5952C132.288 62.9976 132.159 63.348 131.901 63.6463C131.645 63.9422 131.32 64.1269 130.925 64.2003V64.2571C131.228 64.3045 131.502 64.4122 131.748 64.5803C131.997 64.746 132.193 64.9543 132.338 65.2053C132.485 65.4562 132.558 65.732 132.558 66.0327C132.558 66.4257 132.431 66.7784 132.178 67.0909C131.925 67.401 131.577 67.6473 131.134 67.8295C130.694 68.0095 130.189 68.0994 129.621 68.0994ZM129.621 66.853C129.837 66.853 130.026 66.8127 130.189 66.7322C130.353 66.6494 130.481 66.5346 130.573 66.3878C130.668 66.241 130.715 66.0753 130.715 65.8906C130.715 65.7012 130.668 65.5331 130.573 65.3864C130.478 65.2396 130.348 65.1248 130.182 65.0419C130.019 64.9567 129.832 64.9141 129.621 64.9141C129.413 64.9141 129.226 64.9567 129.06 65.0419C128.894 65.1248 128.764 65.2396 128.67 65.3864C128.575 65.5331 128.528 65.7012 128.528 65.8906C128.528 66.0753 128.574 66.241 128.666 66.3878C128.761 66.5322 128.89 66.6458 129.053 66.7287C129.219 66.8116 129.408 66.853 129.621 66.853ZM129.621 63.6747C129.806 63.6747 129.969 63.6368 130.111 63.5611C130.256 63.4853 130.368 63.38 130.449 63.245C130.532 63.1101 130.573 62.9574 130.573 62.7869C130.573 62.6165 130.532 62.4661 130.449 62.3359C130.368 62.2057 130.257 62.1039 130.115 62.0305C129.973 61.9548 129.808 61.9169 129.621 61.9169C129.437 61.9169 129.272 61.9548 129.128 62.0305C128.983 62.1039 128.871 62.2057 128.79 62.3359C128.71 62.4661 128.67 62.6165 128.67 62.7869C128.67 62.9574 128.71 63.1101 128.79 63.245C128.873 63.3776 128.987 63.483 129.131 63.5611C129.276 63.6368 129.439 63.6747 129.621 63.6747ZM137.114 70.0455V67.1158H137.079C137.005 67.2839 136.901 67.4413 136.766 67.5881C136.631 67.7348 136.462 67.8532 136.258 67.9432C136.057 68.0331 135.819 68.0781 135.545 68.0781C135.142 68.0781 134.776 67.974 134.447 67.7656C134.118 67.5573 133.855 67.2448 133.659 66.8281C133.462 66.4115 133.364 65.8942 133.364 65.2763C133.364 64.6347 133.466 64.1068 133.67 63.6925C133.873 63.2782 134.14 62.9716 134.469 62.7727C134.8 62.5739 135.156 62.4744 135.537 62.4744C135.824 62.4744 136.069 62.5241 136.273 62.6236C136.476 62.7206 136.644 62.8461 136.777 63C136.909 63.1539 137.01 63.3137 137.079 63.4794H137.132V62.5455H138.851V70.0455H137.114ZM136.148 66.7251C136.359 66.7251 136.539 66.666 136.688 66.5476C136.837 66.4268 136.952 66.2576 137.032 66.0398C137.113 65.822 137.153 65.5663 137.153 65.2727C137.153 64.9744 137.113 64.7176 137.032 64.5021C136.954 64.2867 136.84 64.121 136.688 64.005C136.539 63.889 136.359 63.831 136.148 63.831C135.933 63.831 135.751 63.8902 135.601 64.0085C135.452 64.1269 135.339 64.2938 135.26 64.5092C135.185 64.7247 135.147 64.9792 135.147 65.2727C135.147 65.5663 135.186 65.822 135.264 66.0398C135.342 66.2576 135.455 66.4268 135.601 66.5476C135.751 66.666 135.933 66.7251 136.148 66.7251ZM140.244 68L143.177 62.1903V62.1442H139.746V60.7273H144.995V62.1548L142.051 68H140.244ZM147.718 68L145.601 60.7273H147.544L148.641 65.4929H148.702L149.955 60.7273H151.539L152.792 65.5036H152.853L153.954 60.7273H155.893L153.78 68H152.086L150.775 63.5895H150.719L149.408 68H147.718ZM156.619 68V60.7273H161.583V62.1548H158.377V63.6463H161.267V65.0774H158.377V68H156.619ZM167.23 64.2109L165.636 64.2536C165.619 64.1399 165.574 64.0393 165.501 63.9517C165.428 63.8617 165.332 63.7919 165.213 63.7422C165.097 63.6901 164.962 63.6641 164.809 63.6641C164.607 63.6641 164.436 63.7043 164.294 63.7848C164.154 63.8653 164.085 63.9742 164.088 64.1115C164.085 64.218 164.128 64.3104 164.216 64.3885C164.306 64.4666 164.465 64.5294 164.695 64.5767L165.746 64.7756C166.291 64.8797 166.695 65.0526 166.961 65.294C167.228 65.5355 167.363 65.8551 167.365 66.2528C167.363 66.6269 167.252 66.9524 167.032 67.2294C166.814 67.5064 166.516 67.7218 166.137 67.8757C165.758 68.0272 165.325 68.103 164.837 68.103C164.058 68.103 163.444 67.9432 162.994 67.6236C162.547 67.3016 162.291 66.8707 162.227 66.331L163.942 66.2884C163.98 66.4872 164.078 66.6387 164.237 66.7429C164.395 66.8471 164.598 66.8991 164.844 66.8991C165.067 66.8991 165.248 66.8577 165.387 66.7749C165.527 66.692 165.598 66.5819 165.6 66.4446C165.598 66.3215 165.544 66.2232 165.437 66.1499C165.331 66.0741 165.164 66.0149 164.936 65.9723L163.985 65.7912C163.438 65.6918 163.031 65.5083 162.763 65.2408C162.496 64.9709 162.363 64.6276 162.365 64.2109C162.363 63.8464 162.46 63.535 162.657 63.277C162.853 63.0166 163.132 62.8177 163.495 62.6804C163.857 62.5431 164.284 62.4744 164.777 62.4744C165.515 62.4744 166.098 62.6295 166.524 62.9396C166.95 63.2474 167.185 63.6712 167.23 64.2109ZM168.22 68V60.7273H169.978V63.6463H172.844V60.7273H174.598V68H172.844V65.0774H169.978V68H168.22ZM178.471 68.0994C177.94 68.0994 177.469 68.0036 177.057 67.8118C176.645 67.62 176.32 67.3561 176.081 67.0199C175.844 66.6837 175.721 66.2978 175.711 65.8622H177.416C177.43 66.1297 177.539 66.3452 177.743 66.5085C177.946 66.6695 178.189 66.75 178.471 66.75C178.691 66.75 178.886 66.7015 179.057 66.6044C179.227 66.5073 179.361 66.3712 179.458 66.196C179.555 66.0185 179.602 65.8149 179.6 65.5852C179.602 65.3509 179.554 65.1461 179.454 64.9709C179.357 64.7957 179.222 64.6596 179.05 64.5625C178.879 64.4631 178.683 64.4134 178.46 64.4134C178.249 64.411 178.049 64.4571 177.86 64.5518C177.673 64.6465 177.531 64.7756 177.434 64.9389L175.882 64.6477L176.198 60.7273H180.864V62.1442H177.643L177.476 63.8594H177.519C177.64 63.6581 177.834 63.4924 178.101 63.3622C178.371 63.2296 178.678 63.1634 179.021 63.1634C179.457 63.1634 179.845 63.2652 180.186 63.4688C180.529 63.67 180.799 63.9493 180.996 64.3068C181.194 64.6643 181.294 65.0739 181.294 65.5355C181.294 66.035 181.175 66.4777 180.939 66.8636C180.704 67.2495 180.375 67.5526 179.952 67.7727C179.53 67.9905 179.037 68.0994 178.471 68.0994Z" fill="#00A0FF"/>
<path fill-rule="evenodd" clip-rule="evenodd" d="M106.975 14.1523H107.168C108.517 14.1523 109.79 14.6447 110.985 15.6295C111.1 15.7526 111.293 15.9578 111.601 16.286C111.987 15.8757 112.295 15.5885 112.45 15.4654C113.568 14.5627 114.801 14.1523 116.112 14.1523H116.228C117.615 14.1523 118.888 14.6447 120.044 15.6295C120.391 15.9578 120.661 16.245 120.854 16.4912C121.74 17.7221 122.203 19.0762 122.203 20.4713V36.638C122.203 36.6791 122.203 36.6791 122.164 36.6791H119.234C119.196 36.6791 119.196 36.6791 119.196 36.638V20.5534C119.196 19.4455 118.733 18.5838 117.808 17.8863C117.307 17.517 116.729 17.3529 116.15 17.3529C115.187 17.3529 114.416 17.7632 113.76 18.6249C113.336 19.1993 113.105 19.8148 113.105 20.4713V36.6791H110.137C110.098 36.6791 110.098 36.6791 110.098 36.638V20.4713C110.098 19.6096 109.751 18.789 109.019 18.0914C108.44 17.5991 107.785 17.3529 107.091 17.3529C106.05 17.3529 105.202 17.8042 104.547 18.789C104.2 19.3634 104.046 19.9379 104.046 20.5534V36.638C104.046 36.6791 104.046 36.6791 104.046 36.6791H101.039C101.039 36.6791 101 36.6791 101 36.638V20.9227C101 19.5686 101.231 18.4607 101.732 17.558C101.887 17.1887 102.195 16.7374 102.658 16.1629C103.236 15.5474 103.66 15.1782 103.968 15.0551C104.932 14.4396 105.934 14.1523 106.975 14.1523ZM125.557 14.1523H128.564H128.602V25.2311C128.602 26.1338 128.757 26.7903 129.103 27.2006C129.412 27.6109 129.682 27.8161 129.913 27.9392C130.337 28.1854 131.301 28.5547 132.804 29.006C133.537 29.2522 134.192 29.4574 134.655 29.7036V14.1523C134.655 14.1523 134.655 14.1523 134.693 14.1523H137.662V35.2429C137.662 36.7611 137.161 38.1972 136.12 39.4692C135.58 40.0437 135.156 40.413 134.809 40.6181C133.807 41.2747 132.766 41.5619 131.686 41.5619H131.532C130.029 41.5619 128.641 40.9874 127.407 39.7565C126.983 39.3051 126.675 38.8948 126.443 38.4845C125.827 37.4587 125.557 36.3508 125.557 35.2019V35.1609V35.1198H128.564L128.602 35.1609C128.602 36.1867 128.988 37.0483 129.797 37.7459C130.376 38.1562 130.954 38.3614 131.609 38.3614H131.648C132.573 38.3614 133.383 37.9511 134.038 37.0894C134.462 36.4739 134.655 35.8584 134.655 35.2429C134.655 34.053 134.231 33.1913 133.344 32.6989C132.959 32.4117 131.995 32.0424 130.414 31.5911C129.373 31.2628 128.564 30.9345 127.985 30.5652C127.022 29.9908 126.328 29.1291 125.904 27.9802C125.711 27.2827 125.595 26.7903 125.595 26.5031C125.595 26.3389 125.557 26.0517 125.557 25.7234V14.1523ZM140.9 14.1523H143.868C143.907 14.1523 143.907 14.1523 143.907 14.1523V25.4772C144.639 25.149 145.68 24.7797 146.991 24.4104C147.878 24.1232 148.494 23.836 148.841 23.5487C149.343 23.2615 149.651 22.7691 149.844 22.1536C149.921 21.9074 149.959 21.5381 149.959 21.0047V14.1523C149.959 14.1523 149.959 14.1523 149.998 14.1523H152.928C152.966 14.1523 152.966 14.1523 152.966 14.1523V21.5381C152.966 22.9743 152.619 24.2052 151.848 25.2311C151.501 25.6414 151.193 25.9286 151.039 26.0107C150.923 26.0927 150.885 26.1338 150.846 26.1338V26.1748C151.386 26.7082 151.656 26.9954 151.733 27.1185C152.311 27.9392 152.696 28.8419 152.851 29.7856C152.928 30.1549 152.966 30.5242 152.966 30.8525V36.638C152.966 36.6791 152.966 36.6791 152.928 36.6791H149.998C149.959 36.6791 149.959 36.6791 149.959 36.638V31.2628C149.959 30.237 149.69 29.4574 149.111 28.8419C148.803 28.4316 148.263 28.1033 147.492 27.8571L146.991 27.734C146.336 27.9392 145.796 28.1443 145.372 28.3905C144.755 28.7188 144.331 29.1701 144.1 29.7036C143.984 30.0318 143.907 30.5242 143.907 31.1807V36.638C143.907 36.6791 143.907 36.6791 143.868 36.6791H140.9C140.9 36.6791 140.861 36.6791 140.861 36.638V14.1523H140.9ZM162.18 14.1523H162.334C163.722 14.1523 164.994 14.6447 166.112 15.6295C166.536 15.9578 166.806 16.286 166.96 16.4912C167.847 17.7221 168.31 19.0762 168.31 20.4713V24.4104C168.31 25.8876 167.847 27.2006 166.922 28.4726C166.536 28.965 166.189 29.2932 165.881 29.5394C164.763 30.4011 163.568 30.8114 162.257 30.8114C160.638 30.8114 159.25 30.196 158.016 28.965C157.515 28.4316 157.168 27.9392 156.937 27.4058C156.436 26.5031 156.205 25.3952 156.205 24.0821V20.9227C156.205 19.5686 156.436 18.4197 156.937 17.517C157.13 17.1067 157.438 16.6553 157.901 16.0809C158.441 15.5474 158.865 15.1782 159.134 15.0551C160.098 14.4396 161.139 14.1523 162.18 14.1523ZM159.25 20.5123V24.4104C159.25 25.3952 159.636 26.2569 160.445 26.9544C160.985 27.3647 161.563 27.6109 162.141 27.6109H162.334C163.182 27.6109 163.953 27.2006 164.609 26.38C165.071 25.7645 165.303 25.108 165.303 24.4104V20.5123C165.303 19.6096 164.956 18.789 164.223 18.0914C163.645 17.5991 162.99 17.3529 162.296 17.3529H162.257C161.255 17.3529 160.407 17.8042 159.751 18.789C159.404 19.3634 159.25 19.9379 159.25 20.5123ZM156.243 33.4785H168.271C168.31 33.4785 168.31 33.4785 168.31 33.5196V36.638C168.31 36.6791 168.31 36.6791 168.271 36.6791H156.243C156.205 36.6791 156.205 36.6791 156.205 36.638V33.5196L156.243 33.4785ZM177.793 36.6791C176.482 36.6791 175.249 36.2277 174.131 35.325C173.822 35.0788 173.514 34.7505 173.167 34.2992C172.28 33.1503 171.818 31.6731 171.818 29.9498V14.1523C171.818 14.1523 171.818 14.1523 171.856 14.1523H174.825H174.863V15.4654C174.863 16.0398 174.902 16.4091 174.979 16.6553C175.133 17.2708 175.48 17.7632 175.981 18.0914C176.29 18.2966 176.714 18.5428 177.176 18.7069L179.875 19.5276C180.723 19.8558 181.455 20.2251 182.034 20.6765C182.265 20.8816 182.535 21.1689 182.882 21.5381C183.576 22.5229 183.923 23.7539 183.923 25.149V30.3191C183.923 31.4269 183.614 32.4938 183.074 33.5196C182.92 33.8478 182.573 34.2992 182.034 34.9147C180.8 36.1046 179.451 36.6791 177.947 36.6791H177.793ZM174.863 30.278C174.863 30.9345 175.056 31.55 175.441 32.1245C176.097 33.0272 176.906 33.4785 177.832 33.4785H177.909C178.525 33.4785 179.104 33.2734 179.643 32.8631C180.492 32.1245 180.916 31.2628 180.916 30.278V25.6824C180.916 25.0259 180.839 24.5335 180.684 24.2052C180.414 23.5487 179.875 23.0563 179.027 22.6871C178.641 22.4819 178.256 22.3588 177.87 22.2767C176.405 21.8254 175.403 21.4561 174.863 21.2099V30.278ZM192.866 14.1523H192.982C194.37 14.1523 195.642 14.6447 196.799 15.6295C197.184 15.9578 197.454 16.286 197.608 16.4912C198.533 17.7221 198.957 19.0762 198.957 20.4713V24.4104C198.957 25.8876 198.495 27.2006 197.608 28.4726C197.184 28.965 196.837 29.2932 196.529 29.5394C195.411 30.4011 194.216 30.8114 192.905 30.8114C191.324 30.8114 189.898 30.196 188.664 28.965C188.202 28.4316 187.816 27.9392 187.585 27.4058C187.122 26.5031 186.852 25.3952 186.852 24.0821V20.9227C186.852 19.5686 187.122 18.4197 187.585 17.517C187.778 17.1067 188.086 16.6553 188.549 16.0809C189.088 15.5474 189.512 15.1782 189.782 15.0551C190.746 14.4396 191.787 14.1523 192.866 14.1523ZM189.898 20.5123V24.4104C189.898 25.3952 190.322 26.2569 191.093 26.9544C191.671 27.3647 192.211 27.6109 192.789 27.6109H192.982C193.869 27.6109 194.601 27.2006 195.295 26.38C195.719 25.7645 195.95 25.108 195.95 24.4104V20.5123C195.95 19.6096 195.603 18.789 194.91 18.0914C194.293 17.5991 193.637 17.3529 192.943 17.3529H192.905C191.903 17.3529 191.093 17.8042 190.399 18.789C190.091 19.3634 189.898 19.9379 189.898 20.5123ZM186.891 33.4785H198.919C198.957 33.4785 198.957 33.4785 198.957 33.5196V36.638C198.957 36.6791 198.957 36.6791 198.919 36.6791H186.891C186.891 36.6791 186.852 36.6791 186.852 36.638V33.5196L186.891 33.4785Z" fill="#FFFDF7"/>
<path fill-rule="evenodd" clip-rule="evenodd" d="M162.296 14.0391C165.612 14.0391 168.349 16.9524 168.349 20.5222V24.5023C168.349 28.0721 165.612 30.9444 162.296 30.9444C158.942 30.9444 156.205 28.0721 156.205 24.5023V20.5222C156.205 16.9524 158.942 14.0391 162.296 14.0391Z" fill="#FFFDF7"/>
<path fill-rule="evenodd" clip-rule="evenodd" d="M192.943 14C196.259 14 198.996 16.9133 198.996 20.4831V24.4632C198.996 28.033 196.259 30.9053 192.943 30.9053C189.589 30.9053 186.852 28.033 186.852 24.4632V20.4831C186.852 16.9133 189.589 14 192.943 14Z" fill="#FFFDF7"/>
<g filter="url(#filter9_d_2823_216)">
<rect x="24" y="257" width="250" height="30" rx="10" fill="#E0C4C4"/>
</g>
<g clip-path="url(#clip4_2823_216)">
<path d="M251.857 268.482L254.735 271.36C254.904 271.529 255 271.761 255 272C255 272.239 254.904 272.471 254.735 272.64L251.857 275.518C251.707 275.668 251.505 275.75 251.295 275.75C250.856 275.75 250.5 275.394 250.5 274.955V273.5H247.5C247.085 273.5 246.75 273.165 246.75 272.75V271.25C246.75 270.835 247.085 270.5 247.5 270.5H250.5V269.045C250.5 268.606 250.856 268.25 251.295 268.25C251.505 268.25 251.707 268.334 251.857 268.482ZM246.75 268.25H245.25C244.835 268.25 244.5 268.585 244.5 269V275C244.5 275.415 244.835 275.75 245.25 275.75H246.75C247.165 275.75 247.5 276.085 247.5 276.5C247.5 276.915 247.165 277.25 246.75 277.25H245.25C244.008 277.25 243 276.242 243 275V269C243 267.758 244.008 266.75 245.25 266.75H246.75C247.165 266.75 247.5 267.085 247.5 267.5C247.5 267.915 247.165 268.25 246.75 268.25Z" fill="#FF0101"/>
</g>
<path d="M42.3556 275H39.8912V267.727H42.4054C43.1274 267.727 43.7477 267.873 44.2662 268.164C44.787 268.453 45.1871 268.868 45.4664 269.411C45.7458 269.953 45.8855 270.601 45.8855 271.357C45.8855 272.114 45.7446 272.765 45.4629 273.31C45.1835 273.854 44.7799 274.272 44.252 274.563C43.7264 274.854 43.0943 275 42.3556 275ZM41.2086 273.86H42.2917C42.7984 273.86 43.2209 273.768 43.5595 273.583C43.898 273.396 44.1525 273.118 44.323 272.749C44.4934 272.377 44.5787 271.913 44.5787 271.357C44.5787 270.8 44.4934 270.339 44.323 269.972C44.1525 269.602 43.9004 269.326 43.5666 269.144C43.2351 268.96 42.8232 268.867 42.3308 268.867H41.2086V273.86ZM47.0804 275V269.545H48.3659V275H47.0804ZM47.7267 268.771C47.5231 268.771 47.348 268.704 47.2012 268.569C47.0544 268.432 46.981 268.267 46.981 268.075C46.981 267.881 47.0544 267.717 47.2012 267.582C47.348 267.444 47.5231 267.376 47.7267 267.376C47.9327 267.376 48.1079 267.444 48.2523 267.582C48.3991 267.717 48.4725 267.881 48.4725 268.075C48.4725 268.267 48.3991 268.432 48.2523 268.569C48.1079 268.704 47.9327 268.771 47.7267 268.771ZM53.9989 270.987L52.8271 271.115C52.7939 270.997 52.7359 270.885 52.6531 270.781C52.5726 270.677 52.4637 270.593 52.3263 270.529C52.189 270.465 52.021 270.433 51.8221 270.433C51.5546 270.433 51.3297 270.491 51.1474 270.607C50.9674 270.723 50.8787 270.874 50.881 271.058C50.8787 271.217 50.9367 271.346 51.055 271.445C51.1758 271.545 51.3746 271.626 51.6516 271.69L52.582 271.889C53.0981 272 53.4817 272.177 53.7326 272.418C53.9859 272.66 54.1138 272.976 54.1161 273.366C54.1138 273.71 54.0131 274.013 53.8143 274.276C53.6178 274.536 53.3443 274.74 52.994 274.886C52.6436 275.033 52.2411 275.107 51.7866 275.107C51.119 275.107 50.5816 274.967 50.1744 274.688C49.7672 274.406 49.5245 274.014 49.4464 273.512L50.6999 273.391C50.7567 273.638 50.8775 273.823 51.0621 273.949C51.2468 274.074 51.4871 274.137 51.783 274.137C52.0884 274.137 52.3335 274.074 52.5181 273.949C52.7051 273.823 52.7987 273.668 52.7987 273.484C52.7987 273.327 52.7383 273.198 52.6175 273.097C52.4992 272.995 52.3145 272.917 52.0636 272.862L51.1332 272.667C50.61 272.558 50.2229 272.375 49.9719 272.116C49.721 271.856 49.5967 271.527 49.5991 271.129C49.5967 270.793 49.6879 270.502 49.8725 270.256C50.0595 270.007 50.3188 269.815 50.6502 269.68C50.984 269.543 51.3687 269.474 51.8043 269.474C52.4435 269.474 52.9466 269.611 53.3136 269.883C53.6829 270.155 53.9113 270.523 53.9989 270.987ZM57.5554 275.107C57.0109 275.107 56.5433 274.987 56.1527 274.748C55.7644 274.509 55.465 274.179 55.2543 273.757C55.0459 273.333 54.9418 272.846 54.9418 272.294C54.9418 271.74 55.0483 271.251 55.2614 270.827C55.4744 270.401 55.7751 270.07 56.1634 269.833C56.554 269.594 57.0156 269.474 57.5483 269.474C57.991 269.474 58.3828 269.556 58.7237 269.719C59.067 269.88 59.3404 270.109 59.544 270.405C59.7476 270.698 59.8636 271.042 59.892 271.435H58.6634C58.6136 271.172 58.4953 270.953 58.3082 270.778C58.1236 270.6 57.8762 270.511 57.5661 270.511C57.3033 270.511 57.0724 270.582 56.8736 270.724C56.6747 270.864 56.5196 271.065 56.4084 271.328C56.2995 271.591 56.245 271.906 56.245 272.273C56.245 272.644 56.2995 272.964 56.4084 273.232C56.5173 273.497 56.67 273.701 56.8665 273.846C57.0653 273.988 57.2985 274.059 57.5661 274.059C57.7554 274.059 57.9247 274.023 58.0739 273.952C58.2254 273.879 58.352 273.774 58.4538 273.636C58.5556 273.499 58.6255 273.332 58.6634 273.136H59.892C59.8613 273.522 59.7476 273.864 59.5511 274.162C59.3546 274.458 59.0871 274.69 58.7486 274.858C58.41 275.024 58.0123 275.107 57.5554 275.107ZM63.3269 275.107C62.7942 275.107 62.3326 274.989 61.9419 274.755C61.5513 274.521 61.2483 274.193 61.0328 273.771C60.8198 273.35 60.7132 272.857 60.7132 272.294C60.7132 271.731 60.8198 271.237 61.0328 270.813C61.2483 270.389 61.5513 270.06 61.9419 269.826C62.3326 269.592 62.7942 269.474 63.3269 269.474C63.8596 269.474 64.3212 269.592 64.7118 269.826C65.1025 270.06 65.4043 270.389 65.6174 270.813C65.8328 271.237 65.9405 271.731 65.9405 272.294C65.9405 272.857 65.8328 273.35 65.6174 273.771C65.4043 274.193 65.1025 274.521 64.7118 274.755C64.3212 274.989 63.8596 275.107 63.3269 275.107ZM63.334 274.077C63.6228 274.077 63.8643 273.997 64.0584 273.839C64.2525 273.678 64.397 273.462 64.4917 273.192C64.5887 272.923 64.6373 272.622 64.6373 272.29C64.6373 271.957 64.5887 271.655 64.4917 271.385C64.397 271.113 64.2525 270.896 64.0584 270.735C63.8643 270.574 63.6228 270.494 63.334 270.494C63.0381 270.494 62.7918 270.574 62.5953 270.735C62.4012 270.896 62.2556 271.113 62.1586 271.385C62.0639 271.655 62.0165 271.957 62.0165 272.29C62.0165 272.622 62.0639 272.923 62.1586 273.192C62.2556 273.462 62.4012 273.678 62.5953 273.839C62.7918 273.997 63.0381 274.077 63.334 274.077ZM68.3171 271.804V275H67.0316V269.545H68.2603V270.472H68.3242C68.4497 270.167 68.6497 269.924 68.9244 269.744C69.2013 269.564 69.5434 269.474 69.9506 269.474C70.3271 269.474 70.6549 269.555 70.9343 269.716C71.216 269.877 71.4338 270.11 71.5877 270.415C71.744 270.721 71.8209 271.091 71.8185 271.527V275H70.533V271.726C70.533 271.361 70.4383 271.076 70.2489 270.87C70.0619 270.664 69.8027 270.561 69.4712 270.561C69.2463 270.561 69.0463 270.611 68.8711 270.71C68.6983 270.807 68.5621 270.948 68.4627 271.133C68.3656 271.317 68.3171 271.541 68.3171 271.804ZM74.4109 271.804V275H73.1254V269.545H74.354V270.472H74.418C74.5434 270.167 74.7435 269.924 75.0181 269.744C75.2951 269.564 75.6372 269.474 76.0444 269.474C76.4208 269.474 76.7487 269.555 77.0281 269.716C77.3098 269.877 77.5276 270.11 77.6815 270.415C77.8377 270.721 77.9147 271.091 77.9123 271.527V275H76.6268V271.726C76.6268 271.361 76.5321 271.076 76.3427 270.87C76.1557 270.664 75.8964 270.561 75.565 270.561C75.3401 270.561 75.14 270.611 74.9648 270.71C74.792 270.807 74.6559 270.948 74.5565 271.133C74.4594 271.317 74.4109 271.541 74.4109 271.804ZM80.5046 271.804V275H79.2191V269.545H80.4478V270.472H80.5117C80.6372 270.167 80.8372 269.924 81.1119 269.744C81.3888 269.564 81.7309 269.474 82.1381 269.474C82.5146 269.474 82.8424 269.555 83.1218 269.716C83.4035 269.877 83.6213 270.11 83.7752 270.415C83.9315 270.721 84.0084 271.091 84.006 271.527V275H82.7205V271.726C82.7205 271.361 82.6258 271.076 82.4364 270.87C82.2494 270.664 81.9902 270.561 81.6587 270.561C81.4338 270.561 81.2338 270.611 81.0586 270.71C80.8858 270.807 80.7496 270.948 80.6502 271.133C80.5531 271.317 80.5046 271.541 80.5046 271.804ZM87.7276 275.107C87.1808 275.107 86.7085 274.993 86.3107 274.766C85.9154 274.536 85.6112 274.212 85.3981 273.793C85.185 273.371 85.0785 272.875 85.0785 272.305C85.0785 271.744 85.185 271.251 85.3981 270.827C85.6135 270.401 85.9142 270.07 86.3001 269.833C86.686 269.594 87.1393 269.474 87.6602 269.474C87.9963 269.474 88.3136 269.529 88.6119 269.638C88.9125 269.744 89.1777 269.91 89.4073 270.135C89.6393 270.36 89.8216 270.646 89.9542 270.994C90.0868 271.34 90.1531 271.752 90.1531 272.23V272.624H85.6822V271.758H88.9208C88.9184 271.512 88.8652 271.293 88.761 271.101C88.6568 270.907 88.5112 270.754 88.3242 270.643C88.1396 270.531 87.9241 270.476 87.6779 270.476C87.4151 270.476 87.1843 270.54 86.9854 270.668C86.7866 270.793 86.6315 270.959 86.5202 271.165C86.4113 271.368 86.3557 271.592 86.3533 271.836V272.592C86.3533 272.91 86.4113 273.182 86.5273 273.409C86.6433 273.634 86.8055 273.807 87.0138 273.928C87.2222 274.046 87.466 274.105 87.7454 274.105C87.9324 274.105 88.1017 274.079 88.2532 274.027C88.4047 273.973 88.5361 273.893 88.6474 273.789C88.7586 273.685 88.8427 273.556 88.8995 273.402L90.0998 273.537C90.024 273.854 89.8796 274.131 89.6665 274.368C89.4558 274.602 89.186 274.785 88.8569 274.915C88.5278 275.043 88.1514 275.107 87.7276 275.107ZM93.6199 275.107C93.0753 275.107 92.6078 274.987 92.2172 274.748C91.8289 274.509 91.5294 274.179 91.3187 273.757C91.1104 273.333 91.0062 272.846 91.0062 272.294C91.0062 271.74 91.1127 271.251 91.3258 270.827C91.5389 270.401 91.8395 270.07 92.2278 269.833C92.6184 269.594 93.0801 269.474 93.6127 269.474C94.0555 269.474 94.4473 269.556 94.7882 269.719C95.1315 269.88 95.4049 270.109 95.6085 270.405C95.8121 270.698 95.9281 271.042 95.9565 271.435H94.7278C94.6781 271.172 94.5597 270.953 94.3727 270.778C94.188 270.6 93.9406 270.511 93.6305 270.511C93.3677 270.511 93.1369 270.582 92.938 270.724C92.7392 270.864 92.5841 271.065 92.4728 271.328C92.3639 271.591 92.3095 271.906 92.3095 272.273C92.3095 272.644 92.3639 272.964 92.4728 273.232C92.5817 273.497 92.7344 273.701 92.9309 273.846C93.1298 273.988 93.363 274.059 93.6305 274.059C93.8199 274.059 93.9892 274.023 94.1383 273.952C94.2898 273.879 94.4165 273.774 94.5183 273.636C94.6201 273.499 94.6899 273.332 94.7278 273.136H95.9565C95.9257 273.522 95.8121 273.864 95.6156 274.162C95.4191 274.458 95.1516 274.69 94.813 274.858C94.4745 275.024 94.0768 275.107 93.6199 275.107ZM99.7358 269.545V270.54H96.6001V269.545H99.7358ZM97.3743 268.239H98.6598V273.359C98.6598 273.532 98.6858 273.665 98.7379 273.757C98.7924 273.847 98.8634 273.909 98.951 273.942C99.0386 273.975 99.1357 273.991 99.2422 273.991C99.3227 273.991 99.3961 273.986 99.4624 273.974C99.531 273.962 99.5831 273.951 99.6186 273.942L99.8352 274.947C99.7666 274.97 99.6683 274.996 99.5405 275.025C99.415 275.053 99.2611 275.07 99.0788 275.075C98.7569 275.084 98.4669 275.036 98.2088 274.929C97.9508 274.82 97.746 274.652 97.5945 274.425C97.4453 274.197 97.3719 273.913 97.3743 273.572V268.239ZM104.879 275L102.826 267.727H104.243L105.553 273.072H105.621L107.02 267.727H108.309L109.712 273.075H109.776L111.086 267.727H112.503L110.45 275H109.151L107.695 269.897H107.638L106.178 275H104.879ZM114.373 275.11C114.027 275.11 113.716 275.049 113.439 274.925C113.164 274.8 112.946 274.615 112.785 274.371C112.627 274.128 112.547 273.827 112.547 273.469C112.547 273.162 112.604 272.907 112.718 272.706C112.831 272.505 112.987 272.344 113.183 272.223C113.38 272.102 113.601 272.011 113.847 271.95C114.096 271.886 114.353 271.839 114.618 271.811C114.937 271.778 115.197 271.748 115.395 271.722C115.594 271.694 115.739 271.651 115.829 271.594C115.921 271.535 115.967 271.444 115.967 271.321V271.3C115.967 271.032 115.888 270.825 115.729 270.678C115.571 270.531 115.342 270.458 115.044 270.458C114.729 270.458 114.479 270.527 114.295 270.664C114.112 270.801 113.989 270.964 113.925 271.151L112.725 270.98C112.82 270.649 112.976 270.372 113.194 270.149C113.412 269.924 113.678 269.756 113.993 269.645C114.308 269.531 114.656 269.474 115.037 269.474C115.3 269.474 115.561 269.505 115.822 269.567C116.082 269.628 116.32 269.73 116.535 269.872C116.751 270.012 116.924 270.202 117.054 270.444C117.186 270.685 117.253 270.987 117.253 271.349V275H116.017V274.251H115.974C115.896 274.402 115.786 274.544 115.644 274.677C115.504 274.807 115.328 274.912 115.115 274.993C114.904 275.071 114.657 275.11 114.373 275.11ZM114.706 274.165C114.965 274.165 115.188 274.115 115.378 274.013C115.567 273.909 115.713 273.771 115.814 273.601C115.919 273.43 115.971 273.245 115.971 273.043V272.401C115.93 272.434 115.862 272.464 115.765 272.493C115.67 272.521 115.564 272.546 115.445 272.567C115.327 272.589 115.21 272.608 115.094 272.624C114.978 272.641 114.877 272.655 114.792 272.667C114.6 272.693 114.428 272.736 114.277 272.795C114.125 272.854 114.006 272.937 113.918 273.043C113.831 273.147 113.787 273.282 113.787 273.448C113.787 273.685 113.873 273.864 114.046 273.984C114.219 274.105 114.439 274.165 114.706 274.165ZM119.831 267.727V275H118.545V267.727H119.831ZM122.438 267.727V275H121.153V267.727H122.438ZM126.175 275.107C125.628 275.107 125.156 274.993 124.758 274.766C124.363 274.536 124.058 274.212 123.845 273.793C123.632 273.371 123.526 272.875 123.526 272.305C123.526 271.744 123.632 271.251 123.845 270.827C124.061 270.401 124.361 270.07 124.747 269.833C125.133 269.594 125.587 269.474 126.107 269.474C126.444 269.474 126.761 269.529 127.059 269.638C127.36 269.744 127.625 269.91 127.855 270.135C128.087 270.36 128.269 270.646 128.401 270.994C128.534 271.34 128.6 271.752 128.6 272.23V272.624H124.129V271.758H127.368C127.366 271.512 127.312 271.293 127.208 271.101C127.104 270.907 126.959 270.754 126.771 270.643C126.587 270.531 126.371 270.476 126.125 270.476C125.862 270.476 125.632 270.54 125.433 270.668C125.234 270.793 125.079 270.959 124.968 271.165C124.859 271.368 124.803 271.592 124.801 271.836V272.592C124.801 272.91 124.859 273.182 124.975 273.409C125.091 273.634 125.253 273.807 125.461 273.928C125.669 274.046 125.913 274.105 126.193 274.105C126.38 274.105 126.549 274.079 126.7 274.027C126.852 273.973 126.983 273.893 127.095 273.789C127.206 273.685 127.29 273.556 127.347 273.402L128.547 273.537C128.471 273.854 128.327 274.131 128.114 274.368C127.903 274.602 127.633 274.785 127.304 274.915C126.975 275.043 126.599 275.107 126.175 275.107ZM132.412 269.545V270.54H129.276V269.545H132.412ZM130.05 268.239H131.336V273.359C131.336 273.532 131.362 273.665 131.414 273.757C131.468 273.847 131.539 273.909 131.627 273.942C131.714 273.975 131.811 273.991 131.918 273.991C131.998 273.991 132.072 273.986 132.138 273.974C132.207 273.962 132.259 273.951 132.294 273.942L132.511 274.947C132.442 274.97 132.344 274.996 132.216 275.025C132.091 275.053 131.937 275.07 131.755 275.075C131.433 275.084 131.143 275.036 130.885 274.929C130.627 274.82 130.422 274.652 130.27 274.425C130.121 274.197 130.048 273.913 130.05 273.572V268.239Z" fill="#FF0101"/>
<defs>
<filter id="filter0_d_2823_216" x="149" y="214" width="130" height="38" filterUnits="userSpaceOnUse" color-interpolation-filters="sRGB">
<feFlood flood-opacity="0" result="BackgroundImageFix"/>
<feColorMatrix in="SourceAlpha" type="matrix" values="0 0 0 0 0 0 0 0 0 0 0 0 0 0 0 0 0 0 127 0" result="hardAlpha"/>
<feOffset dy="4"/>
<feGaussianBlur stdDeviation="2"/>
<feComposite in2="hardAlpha" operator="out"/>
<feColorMatrix type="matrix" values="0 0 0 0 0 0 0 0 0 0 0 0 0 0 0 0 0 0 0.25 0"/>
<feBlend mode="normal" in2="BackgroundImageFix" result="effect1_dropShadow_2823_216"/>
<feBlend mode="normal" in="SourceGraphic" in2="effect1_dropShadow_2823_216" result="shape"/>
</filter>
<filter id="filter1_d_2823_216" x="20" y="214" width="130" height="38" filterUnits="userSpaceOnUse" color-interpolation-filters="sRGB">
<feFlood flood-opacity="0" result="BackgroundImageFix"/>
<feColorMatrix in="SourceAlpha" type="matrix" values="0 0 0 0 0 0 0 0 0 0 0 0 0 0 0 0 0 0 127 0" result="hardAlpha"/>
<feOffset dy="4"/>
<feGaussianBlur stdDeviation="2"/>
<feComposite in2="hardAlpha" operator="out"/>
<feColorMatrix type="matrix" values="0 0 0 0 0 0 0 0 0 0 0 0 0 0 0 0 0 0 0.25 0"/>
<feBlend mode="normal" in2="BackgroundImageFix" result="effect1_dropShadow_2823_216"/>
<feBlend mode="normal" in="SourceGraphic" in2="effect1_dropShadow_2823_216" result="shape"/>
</filter>
<filter id="filter2_d_2823_216" x="149" y="177" width="130" height="38" filterUnits="userSpaceOnUse" color-interpolation-filters="sRGB">
<feFlood flood-opacity="0" result="BackgroundImageFix"/>
<feColorMatrix in="SourceAlpha" type="matrix" values="0 0 0 0 0 0 0 0 0 0 0 0 0 0 0 0 0 0 127 0" result="hardAlpha"/>
<feOffset dy="4"/>
<feGaussianBlur stdDeviation="2"/>
<feComposite in2="hardAlpha" operator="out"/>
<feColorMatrix type="matrix" values="0 0 0 0 0 0 0 0 0 0 0 0 0 0 0 0 0 0 0.25 0"/>
<feBlend mode="normal" in2="BackgroundImageFix" result="effect1_dropShadow_2823_216"/>
<feBlend mode="normal" in="SourceGraphic" in2="effect1_dropShadow_2823_216" result="shape"/>
</filter>
<filter id="filter3_d_2823_216" x="21" y="177" width="130" height="38" filterUnits="userSpaceOnUse" color-interpolation-filters="sRGB">
<feFlood flood-opacity="0" result="BackgroundImageFix"/>
<feColorMatrix in="SourceAlpha" type="matrix" values="0 0 0 0 0 0 0 0 0 0 0 0 0 0 0 0 0 0 127 0" result="hardAlpha"/>
<feOffset dy="4"/>
<feGaussianBlur stdDeviation="2"/>
<feComposite in2="hardAlpha" operator="out"/>
<feColorMatrix type="matrix" values="0 0 0 0 0 0 0 0 0 0 0 0 0 0 0 0 0 0 0.25 0"/>
<feBlend mode="normal" in2="BackgroundImageFix" result="effect1_dropShadow_2823_216"/>
<feBlend mode="normal" in="SourceGraphic" in2="effect1_dropShadow_2823_216" result="shape"/>
</filter>
<filter id="filter4_d_2823_216" x="21" y="134" width="258" height="38" filterUnits="userSpaceOnUse" color-interpolation-filters="sRGB">
<feFlood flood-opacity="0" result="BackgroundImageFix"/>
<feColorMatrix in="SourceAlpha" type="matrix" values="0 0 0 0 0 0 0 0 0 0 0 0 0 0 0 0 0 0 127 0" result="hardAlpha"/>
<feOffset dy="4"/>
<feGaussianBlur stdDeviation="2"/>
<feComposite in2="hardAlpha" operator="out"/>
<feColorMatrix type="matrix" values="0 0 0 0 0 0 0 0 0 0 0 0 0 0 0 0 0 0 0.25 0"/>
<feBlend mode="normal" in2="BackgroundImageFix" result="effect1_dropShadow_2823_216"/>
<feBlend mode="normal" in="SourceGraphic" in2="effect1_dropShadow_2823_216" result="shape"/>
</filter>
<filter id="filter5_d_2823_216" x="192" y="87" width="88" height="38" filterUnits="userSpaceOnUse" color-interpolation-filters="sRGB">
<feFlood flood-opacity="0" result="BackgroundImageFix"/>
<feColorMatrix in="SourceAlpha" type="matrix" values="0 0 0 0 0 0 0 0 0 0 0 0 0 0 0 0 0 0 127 0" result="hardAlpha"/>
<feOffset dy="4"/>
<feGaussianBlur stdDeviation="2"/>
<feComposite in2="hardAlpha" operator="out"/>
<feColorMatrix type="matrix" values="0 0 0 0 0 0 0 0 0 0 0 0 0 0 0 0 0 0 0.25 0"/>
<feBlend mode="normal" in2="BackgroundImageFix" result="effect1_dropShadow_2823_216"/>
<feBlend mode="normal" in="SourceGraphic" in2="effect1_dropShadow_2823_216" result="shape"/>
</filter>
<filter id="filter6_d_2823_216" x="107" y="86" width="88" height="38" filterUnits="userSpaceOnUse" color-interpolation-filters="sRGB">
<feFlood flood-opacity="0" result="BackgroundImageFix"/>
<feColorMatrix in="SourceAlpha" type="matrix" values="0 0 0 0 0 0 0 0 0 0 0 0 0 0 0 0 0 0 127 0" result="hardAlpha"/>
<feOffset dy="4"/>
<feGaussianBlur stdDeviation="2"/>
<feComposite in2="hardAlpha" operator="out"/>
<feColorMatrix type="matrix" values="0 0 0 0 0 0 0 0 0 0 0 0 0 0 0 0 0 0 0.25 0"/>
<feBlend mode="normal" in2="BackgroundImageFix" result="effect1_dropShadow_2823_216"/>
<feBlend mode="normal" in="SourceGraphic" in2="effect1_dropShadow_2823_216" result="shape"/>
</filter>
<filter id="filter7_d_2823_216" x="22" y="86" width="88" height="38" filterUnits="userSpaceOnUse" color-interpolation-filters="sRGB">
<feFlood flood-opacity="0" result="BackgroundImageFix"/>
<feColorMatrix in="SourceAlpha" type="matrix" values="0 0 0 0 0 0 0 0 0 0 0 0 0 0 0 0 0 0 127 0" result="hardAlpha"/>
<feOffset dy="4"/>
<feGaussianBlur stdDeviation="2"/>
<feComposite in2="hardAlpha" operator="out"/>
<feColorMatrix type="matrix" values="0 0 0 0 0 0 0 0 0 0 0 0 0 0 0 0 0 0 0.25 0"/>
<feBlend mode="normal" in2="BackgroundImageFix" result="effect1_dropShadow_2823_216"/>
<feBlend mode="normal" in="SourceGraphic" in2="effect1_dropShadow_2823_216" result="shape"/>
</filter>
<filter id="filter8_d_2823_216" x="22" y="49" width="258" height="38" filterUnits="userSpaceOnUse" color-interpolation-filters="sRGB">
<feFlood flood-opacity="0" result="BackgroundImageFix"/>
<feColorMatrix in="SourceAlpha" type="matrix" values="0 0 0 0 0 0 0 0 0 0 0 0 0 0 0 0 0 0 127 0" result="hardAlpha"/>
<feOffset dy="4"/>
<feGaussianBlur stdDeviation="2"/>
<feComposite in2="hardAlpha" operator="out"/>
<feColorMatrix type="matrix" values="0 0 0 0 0 0 0 0 0 0 0 0 0 0 0 0 0 0 0.25 0"/>
<feBlend mode="normal" in2="BackgroundImageFix" result="effect1_dropShadow_2823_216"/>
<feBlend mode="normal" in="SourceGraphic" in2="effect1_dropShadow_2823_216" result="shape"/>
</filter>
<filter id="filter9_d_2823_216" x="20" y="257" width="258" height="38" filterUnits="userSpaceOnUse" color-interpolation-filters="sRGB">
<feFlood flood-opacity="0" result="BackgroundImageFix"/>
<feColorMatrix in="SourceAlpha" type="matrix" values="0 0 0 0 0 0 0 0 0 0 0 0 0 0 0 0 0 0 127 0" result="hardAlpha"/>
<feOffset dy="4"/>
<feGaussianBlur stdDeviation="2"/>
<feComposite in2="hardAlpha" operator="out"/>
<feColorMatrix type="matrix" values="0 0 0 0 0 0 0 0 0 0 0 0 0 0 0 0 0 0 0.25 0"/>
<feBlend mode="normal" in2="BackgroundImageFix" result="effect1_dropShadow_2823_216"/>
<feBlend mode="normal" in="SourceGraphic" in2="effect1_dropShadow_2823_216" result="shape"/>
</filter>
<linearGradient id="paint0_linear_2823_216" x1="150" y1="0" x2="150" y2="302" gradientUnits="userSpaceOnUse">
<stop offset="0.355769" stop-color="#929292"/>
<stop offset="0.7" stop-color="#585B68"/>
</linearGradient>
<linearGradient id="paint1_linear_2823_216" x1="151" y1="49" x2="151" y2="79" gradientUnits="userSpaceOnUse">
<stop stop-color="#ECECEC"/>
<stop offset="1" stop-color="#D1D0D0"/>
</linearGradient>
<clipPath id="clip0_2823_216">
<rect width="14" height="14" fill="white" transform="translate(201 95)"/>
</clipPath>
<clipPath id="clip1_2823_216">
<rect width="14" height="14" fill="white" transform="translate(116 94)"/>
</clipPath>
<clipPath id="clip2_2823_216">
<rect width="14" height="14" fill="white" transform="translate(31 94)"/>
</clipPath>
<clipPath id="clip3_2823_216">
<rect width="6.65" height="5.85833" fill="white" transform="translate(34.3252 97.8008)"/>
</clipPath>
<clipPath id="clip4_2823_216">
<rect width="12" height="12" fill="white" transform="translate(243 266)"/>
</clipPath>
</defs>
</svg>
