<svg width="300" height="273" viewBox="0 0 300 273" fill="none" xmlns="http://www.w3.org/2000/svg">
<rect width="300" height="273" rx="10" fill="url(#paint0_linear_2846_1091)"/>
<path fill-rule="evenodd" clip-rule="evenodd" d="M121.388 52.1445H121.53C122.521 52.1445 123.456 52.506 124.334 53.229C124.419 53.3194 124.56 53.4701 124.787 53.7111C125.07 53.4098 125.297 53.1989 125.41 53.1085C126.231 52.4458 127.138 52.1445 128.101 52.1445H128.186C129.205 52.1445 130.14 52.506 130.99 53.229C131.245 53.4701 131.443 53.6809 131.584 53.8617C132.236 54.7654 132.576 55.7596 132.576 56.7839V68.6533C132.576 68.6834 132.576 68.6834 132.547 68.6834H130.395C130.367 68.6834 130.367 68.6834 130.367 68.6533V56.8441C130.367 56.0307 130.027 55.3981 129.347 54.8859C128.979 54.6148 128.554 54.4943 128.129 54.4943C127.421 54.4943 126.855 54.7956 126.373 55.4282C126.061 55.85 125.892 56.3018 125.892 56.7839V68.6834H123.711C123.682 68.6834 123.682 68.6834 123.682 68.6533V56.7839C123.682 56.1512 123.427 55.5487 122.889 55.0366C122.464 54.6751 121.983 54.4943 121.473 54.4943C120.708 54.4943 120.085 54.8257 119.604 55.5487C119.349 55.9705 119.236 56.3922 119.236 56.8441V68.6533C119.236 68.6834 119.236 68.6834 119.236 68.6834H117.026C117.026 68.6834 116.998 68.6834 116.998 68.6533V57.1152C116.998 56.1211 117.168 55.3077 117.536 54.6449C117.649 54.3738 117.876 54.0424 118.216 53.6207C118.641 53.1688 118.952 52.8977 119.179 52.8073C119.887 52.3554 120.623 52.1445 121.388 52.1445ZM135.04 52.1445H137.249H137.277V60.2784C137.277 60.9412 137.391 61.4232 137.646 61.7244C137.872 62.0257 138.07 62.1763 138.24 62.2667C138.552 62.4474 139.26 62.7186 140.365 63.0499C140.903 63.2307 141.384 63.3813 141.724 63.5621V52.1445C141.724 52.1445 141.724 52.1445 141.752 52.1445H143.933V67.629C143.933 68.7437 143.565 69.798 142.8 70.7319C142.404 71.1537 142.092 71.4248 141.837 71.5755C141.101 72.0575 140.336 72.2683 139.543 72.2683H139.43C138.325 72.2683 137.306 71.8466 136.399 70.9428C136.088 70.6114 135.861 70.3102 135.691 70.0089C135.238 69.2558 135.04 68.4424 135.04 67.5989V67.5688V67.5386H137.249L137.277 67.5688C137.277 68.3219 137.561 68.9545 138.155 69.4667C138.58 69.7679 139.005 69.9186 139.487 69.9186H139.515C140.195 69.9186 140.79 69.6173 141.271 68.9847C141.583 68.5328 141.724 68.0809 141.724 67.629C141.724 66.7554 141.413 66.1227 140.761 65.7612C140.478 65.5504 139.77 65.2792 138.609 64.9479C137.844 64.7068 137.249 64.4658 136.824 64.1947C136.116 63.773 135.606 63.1403 135.295 62.2968C135.153 61.7847 135.068 61.4232 135.068 61.2123C135.068 61.0918 135.04 60.8809 135.04 60.6399V52.1445ZM146.313 52.1445H148.493C148.522 52.1445 148.522 52.1445 148.522 52.1445V60.4592C149.06 60.2182 149.825 59.947 150.788 59.6759C151.439 59.465 151.892 59.2541 152.147 59.0433C152.515 58.8324 152.742 58.4709 152.883 58.019C152.94 57.8382 152.968 57.5671 152.968 57.1755V52.1445C152.968 52.1445 152.968 52.1445 152.997 52.1445H155.149C155.178 52.1445 155.178 52.1445 155.178 52.1445V57.5671C155.178 58.6215 154.923 59.5253 154.356 60.2784C154.101 60.5797 153.875 60.7905 153.762 60.8508C153.677 60.911 153.648 60.9412 153.62 60.9412V60.9713C154.016 61.3629 154.215 61.5738 154.271 61.6642C154.696 62.2667 154.979 62.9294 155.093 63.6223C155.149 63.8935 155.178 64.1646 155.178 64.4056V68.6533C155.178 68.6834 155.178 68.6834 155.149 68.6834H152.997C152.968 68.6834 152.968 68.6834 152.968 68.6533V64.7068C152.968 63.9537 152.77 63.3813 152.345 62.9294C152.119 62.6282 151.722 62.3872 151.156 62.2064L150.788 62.1161C150.306 62.2667 149.91 62.4173 149.598 62.5981C149.145 62.8391 148.833 63.1704 148.663 63.5621C148.578 63.8031 148.522 64.1646 148.522 64.6466V68.6533C148.522 68.6834 148.522 68.6834 148.493 68.6834H146.313C146.313 68.6834 146.284 68.6834 146.284 68.6533V52.1445H146.313ZM161.947 52.1445H162.06C163.08 52.1445 164.015 52.506 164.836 53.229C165.147 53.4701 165.346 53.7111 165.459 53.8617C166.11 54.7654 166.45 55.7596 166.45 56.7839V59.6759C166.45 60.7604 166.11 61.7244 165.431 62.6583C165.147 63.0198 164.893 63.2608 164.666 63.4416C163.845 64.0742 162.967 64.3755 162.004 64.3755C160.814 64.3755 159.794 63.9236 158.888 63.0198C158.52 62.6282 158.265 62.2667 158.095 61.8751C157.727 61.2123 157.557 60.3989 157.557 59.4349V57.1152C157.557 56.1211 157.727 55.2776 158.095 54.6148C158.237 54.3136 158.463 53.9822 158.803 53.5604C159.2 53.1688 159.511 52.8977 159.709 52.8073C160.417 52.3554 161.182 52.1445 161.947 52.1445ZM159.794 56.814V59.6759C159.794 60.3989 160.078 61.0315 160.672 61.5437C161.069 61.8449 161.494 62.0257 161.919 62.0257H162.06C162.683 62.0257 163.25 61.7244 163.731 61.1219C164.071 60.67 164.241 60.188 164.241 59.6759V56.814C164.241 56.1512 163.986 55.5487 163.448 55.0366C163.023 54.6751 162.542 54.4943 162.032 54.4943H162.004C161.267 54.4943 160.644 54.8257 160.163 55.5487C159.908 55.9705 159.794 56.3922 159.794 56.814ZM157.585 66.3336H166.422C166.45 66.3336 166.45 66.3336 166.45 66.3637V68.6533C166.45 68.6834 166.45 68.6834 166.422 68.6834H157.585C157.557 68.6834 157.557 68.6834 157.557 68.6533V66.3637L157.585 66.3336ZM173.418 68.6834C172.455 68.6834 171.548 68.352 170.727 67.6893C170.501 67.5085 170.274 67.2675 170.019 66.9361C169.368 66.0926 169.028 65.0081 169.028 63.7428V52.1445C169.028 52.1445 169.028 52.1445 169.056 52.1445H171.237H171.265V53.1085C171.265 53.5303 171.294 53.8014 171.35 53.9822C171.463 54.4341 171.718 54.7956 172.087 55.0366C172.313 55.1872 172.625 55.368 172.965 55.4885L174.947 56.091C175.57 56.332 176.108 56.6031 176.533 56.9345C176.703 57.0851 176.902 57.296 177.156 57.5671C177.666 58.2901 177.921 59.1939 177.921 60.2182V64.014C177.921 64.8273 177.695 65.6106 177.298 66.3637C177.185 66.6048 176.93 66.9361 176.533 67.388C175.627 68.2617 174.636 68.6834 173.531 68.6834H173.418ZM171.265 63.9838C171.265 64.4658 171.407 64.9177 171.69 65.3395C172.172 66.0022 172.766 66.3336 173.446 66.3336H173.503C173.956 66.3336 174.381 66.183 174.777 65.8817C175.4 65.3395 175.712 64.7068 175.712 63.9838V60.6098C175.712 60.1278 175.655 59.7663 175.542 59.5253C175.344 59.0433 174.947 58.6818 174.324 58.4106C174.041 58.26 173.758 58.1696 173.474 58.1094C172.398 57.778 171.662 57.5069 171.265 57.3261V63.9838ZM184.492 52.1445H184.577C185.597 52.1445 186.531 52.506 187.381 53.229C187.664 53.4701 187.863 53.7111 187.976 53.8617C188.656 54.7654 188.967 55.7596 188.967 56.7839V59.6759C188.967 60.7604 188.627 61.7244 187.976 62.6583C187.664 63.0198 187.409 63.2608 187.183 63.4416C186.361 64.0742 185.483 64.3755 184.52 64.3755C183.359 64.3755 182.311 63.9236 181.405 63.0198C181.065 62.6282 180.782 62.2667 180.612 61.8751C180.272 61.2123 180.074 60.3989 180.074 59.4349V57.1152C180.074 56.1211 180.272 55.2776 180.612 54.6148C180.753 54.3136 180.98 53.9822 181.32 53.5604C181.716 53.1688 182.028 52.8977 182.226 52.8073C182.934 52.3554 183.699 52.1445 184.492 52.1445ZM182.311 56.814V59.6759C182.311 60.3989 182.623 61.0315 183.189 61.5437C183.614 61.8449 184.011 62.0257 184.436 62.0257H184.577C185.229 62.0257 185.767 61.7244 186.277 61.1219C186.588 60.67 186.758 60.188 186.758 59.6759V56.814C186.758 56.1512 186.503 55.5487 185.993 55.0366C185.54 54.6751 185.059 54.4943 184.549 54.4943H184.52C183.784 54.4943 183.189 54.8257 182.679 55.5487C182.453 55.9705 182.311 56.3922 182.311 56.814ZM180.102 66.3336H188.939C188.967 66.3336 188.967 66.3336 188.967 66.3637V68.6533C188.967 68.6834 188.967 68.6834 188.939 68.6834H180.102C180.102 68.6834 180.074 68.6834 180.074 68.6533V66.3637L180.102 66.3336Z" fill="#FFFDF7"/>
<path fill-rule="evenodd" clip-rule="evenodd" d="M162.031 52.0391C164.467 52.0391 166.478 54.178 166.478 56.7989V59.7211C166.478 62.342 164.467 64.4508 162.031 64.4508C159.567 64.4508 157.556 62.342 157.556 59.7211V56.7989C157.556 54.178 159.567 52.0391 162.031 52.0391Z" fill="#FFFDF7"/>
<path fill-rule="evenodd" clip-rule="evenodd" d="M184.551 52C186.986 52 188.998 54.1389 188.998 56.7598V59.682C188.998 62.3029 186.986 64.4117 184.551 64.4117C182.086 64.4117 180.075 62.3029 180.075 59.682V56.7598C180.075 54.1389 182.086 52 184.551 52Z" fill="#FFFDF7"/>
<rect x="26" y="82.3516" width="250" height="30" rx="10" fill="url(#paint1_linear_2846_1091)"/>
<path d="M190.892 100.352H188.741V94.5334H190.889C191.482 94.5334 191.992 94.6499 192.42 94.8828C192.85 95.1139 193.181 95.4472 193.414 95.8828C193.647 96.3165 193.764 96.8355 193.764 97.4396C193.764 98.0457 193.647 98.5665 193.414 99.0021C193.183 99.4377 192.853 99.772 192.423 100.005C191.993 100.236 191.483 100.352 190.892 100.352ZM190.147 99.1527H190.838C191.163 99.1527 191.439 99.0978 191.664 98.9879C191.892 98.8762 192.063 98.6953 192.179 98.4453C192.296 98.1934 192.355 97.8582 192.355 97.4396C192.355 97.0211 192.296 96.6877 192.179 96.4396C192.061 96.1896 191.888 96.0097 191.659 95.8999C191.431 95.7881 191.151 95.7322 190.818 95.7322H190.147V99.1527ZM194.585 100.352V95.9879H195.974V100.352H194.585ZM195.281 95.4794C195.086 95.4794 194.918 95.415 194.778 95.2862C194.638 95.1555 194.568 94.9983 194.568 94.8146C194.568 94.6328 194.638 94.4775 194.778 94.3487C194.918 94.218 195.086 94.1527 195.281 94.1527C195.478 94.1527 195.645 94.218 195.784 94.3487C195.924 94.4775 195.994 94.6328 195.994 94.8146C195.994 94.9983 195.924 95.1555 195.784 95.2862C195.645 95.415 195.478 95.4794 195.281 95.4794ZM200.668 97.3203L199.392 97.3544C199.379 97.2635 199.343 97.183 199.284 97.1129C199.226 97.041 199.149 96.9851 199.054 96.9453C198.962 96.9036 198.854 96.8828 198.73 96.8828C198.569 96.8828 198.432 96.915 198.319 96.9794C198.207 97.0438 198.152 97.1309 198.154 97.2408C198.152 97.326 198.186 97.3999 198.256 97.4624C198.328 97.5249 198.456 97.575 198.64 97.6129L199.48 97.772C199.916 97.8554 200.24 97.9936 200.452 98.1868C200.666 98.38 200.774 98.6357 200.776 98.9538C200.774 99.2531 200.685 99.5135 200.509 99.7351C200.335 99.9567 200.096 100.129 199.793 100.252C199.49 100.373 199.143 100.434 198.753 100.434C198.13 100.434 197.639 100.306 197.279 100.05C196.921 99.7929 196.716 99.4482 196.665 99.0163L198.037 98.9822C198.068 99.1413 198.146 99.2625 198.273 99.3459C198.4 99.4292 198.562 99.4709 198.759 99.4709C198.937 99.4709 199.082 99.4377 199.194 99.3714C199.305 99.3052 199.362 99.2171 199.364 99.1072C199.362 99.0088 199.319 98.9302 199.233 98.8714C199.148 98.8108 199.015 98.7635 198.833 98.7294L198.071 98.5845C197.634 98.505 197.308 98.3582 197.094 98.1442C196.88 97.9283 196.774 97.6536 196.776 97.3203C196.774 97.0286 196.852 96.7796 197.009 96.5732C197.166 96.3648 197.39 96.2057 197.679 96.0959C197.969 95.986 198.311 95.9311 198.705 95.9311C199.296 95.9311 199.762 96.0552 200.103 96.3033C200.444 96.5495 200.632 96.8885 200.668 97.3203ZM203.497 100.434C203.037 100.434 202.642 100.339 202.312 100.15C201.984 99.9605 201.733 99.6972 201.556 99.3601C201.38 99.0211 201.292 98.629 201.292 98.1839C201.292 97.737 201.38 97.3449 201.556 97.0078C201.734 96.6688 201.987 96.4046 202.315 96.2152C202.645 96.0258 203.038 95.9311 203.494 95.9311C203.897 95.9311 204.249 96.004 204.548 96.1499C204.849 96.2957 205.084 96.5021 205.252 96.7692C205.423 97.0343 205.513 97.3459 205.522 97.7038H204.224C204.198 97.4804 204.122 97.3052 203.997 97.1783C203.874 97.0514 203.713 96.9879 203.514 96.9879C203.353 96.9879 203.212 97.0334 203.091 97.1243C202.969 97.2133 202.875 97.3459 202.806 97.522C202.74 97.6963 202.707 97.9122 202.707 98.1697C202.707 98.4273 202.74 98.6451 202.806 98.8232C202.875 98.9993 202.969 99.1328 203.091 99.2237C203.212 99.3127 203.353 99.3572 203.514 99.3572C203.643 99.3572 203.756 99.3298 203.855 99.2749C203.955 99.2199 204.038 99.1394 204.102 99.0334C204.166 98.9254 204.207 98.7947 204.224 98.6413H205.522C205.509 99.0012 205.419 99.3156 205.252 99.5845C205.088 99.8535 204.856 100.063 204.556 100.212C204.259 100.36 203.906 100.434 203.497 100.434ZM208.27 100.434C207.812 100.434 207.418 100.34 207.088 100.153C206.761 99.9633 206.508 99.7 206.33 99.3629C206.154 99.0239 206.066 98.6309 206.066 98.1839C206.066 97.7351 206.154 97.3421 206.33 97.005C206.508 96.666 206.761 96.4027 207.088 96.2152C207.418 96.0258 207.812 95.9311 208.27 95.9311C208.729 95.9311 209.122 96.0258 209.449 96.2152C209.779 96.4027 210.032 96.666 210.208 97.005C210.386 97.3421 210.475 97.7351 210.475 98.1839C210.475 98.6309 210.386 99.0239 210.208 99.3629C210.032 99.7 209.779 99.9633 209.449 100.153C209.122 100.34 208.729 100.434 208.27 100.434ZM208.279 99.3857C208.445 99.3857 208.587 99.3345 208.702 99.2322C208.818 99.13 208.906 98.9879 208.966 98.8061C209.029 98.6243 209.06 98.4141 209.06 98.1754C209.06 97.933 209.029 97.7209 208.966 97.5391C208.906 97.3572 208.818 97.2152 208.702 97.1129C208.587 97.0107 208.445 96.9595 208.279 96.9595C208.106 96.9595 207.961 97.0107 207.841 97.1129C207.724 97.2152 207.634 97.3572 207.571 97.5391C207.511 97.7209 207.48 97.933 207.48 98.1754C207.48 98.4141 207.511 98.6243 207.571 98.8061C207.634 98.9879 207.724 99.13 207.841 99.2322C207.961 99.3345 208.106 99.3857 208.279 99.3857ZM212.576 97.8629V100.352H211.186V95.9879H212.507V96.7891H212.556C212.652 96.522 212.817 96.3127 213.05 96.1612C213.283 96.0078 213.56 95.9311 213.882 95.9311C214.189 95.9311 214.455 96.0002 214.681 96.1385C214.908 96.2749 215.084 96.4661 215.209 96.7124C215.336 96.9567 215.399 97.2427 215.397 97.5703V100.352H214.007V97.843C214.009 97.6006 213.948 97.4112 213.823 97.2749C213.7 97.1385 213.528 97.0703 213.309 97.0703C213.163 97.0703 213.034 97.1025 212.922 97.1669C212.812 97.2294 212.727 97.3194 212.667 97.4368C212.608 97.5542 212.578 97.6963 212.576 97.8629ZM217.646 97.8629V100.352H216.257V95.9879H217.578V96.7891H217.626C217.723 96.522 217.887 96.3127 218.12 96.1612C218.353 96.0078 218.631 95.9311 218.953 95.9311C219.26 95.9311 219.526 96.0002 219.751 96.1385C219.978 96.2749 220.154 96.4661 220.279 96.7124C220.406 96.9567 220.469 97.2427 220.467 97.5703V100.352H219.078V97.843C219.08 97.6006 219.018 97.4112 218.893 97.2749C218.77 97.1385 218.599 97.0703 218.379 97.0703C218.233 97.0703 218.104 97.1025 217.993 97.1669C217.883 97.2294 217.797 97.3194 217.737 97.4368C217.678 97.5542 217.648 97.6963 217.646 97.8629ZM222.716 97.8629V100.352H221.327V95.9879H222.648V96.7891H222.696C222.793 96.522 222.958 96.3127 223.191 96.1612C223.424 96.0078 223.701 95.9311 224.023 95.9311C224.33 95.9311 224.596 96.0002 224.821 96.1385C225.049 96.2749 225.225 96.4661 225.35 96.7124C225.477 96.9567 225.539 97.2427 225.537 97.5703V100.352H224.148V97.843C224.15 97.6006 224.088 97.4112 223.963 97.2749C223.84 97.1385 223.669 97.0703 223.449 97.0703C223.303 97.0703 223.175 97.1025 223.063 97.1669C222.953 97.2294 222.868 97.3194 222.807 97.4368C222.748 97.5542 222.718 97.6963 222.716 97.8629ZM228.437 100.434C227.981 100.434 227.587 100.344 227.255 100.164C226.926 99.9822 226.672 99.7237 226.494 99.3885C226.318 99.0514 226.23 98.6508 226.23 98.1868C226.23 97.736 226.319 97.3421 226.497 97.005C226.675 96.666 226.926 96.4027 227.25 96.2152C227.574 96.0258 227.955 95.9311 228.395 95.9311C228.705 95.9311 228.989 95.9794 229.247 96.076C229.504 96.1726 229.727 96.3156 229.914 96.505C230.102 96.6944 230.248 96.9283 230.352 97.2067C230.456 97.4832 230.508 97.8004 230.508 98.1584V98.505H226.716V97.6982H229.216C229.214 97.5504 229.179 97.4188 229.11 97.3033C229.042 97.1877 228.949 97.0978 228.829 97.0334C228.712 96.9671 228.576 96.9339 228.423 96.9339C228.268 96.9339 228.128 96.969 228.005 97.0391C227.882 97.1072 227.785 97.201 227.713 97.3203C227.641 97.4377 227.603 97.5713 227.599 97.7209V98.5419C227.599 98.7199 227.634 98.8762 227.704 99.0107C227.774 99.1432 227.874 99.2464 228.002 99.3203C228.131 99.3942 228.285 99.4311 228.463 99.4311C228.586 99.4311 228.698 99.4141 228.798 99.38C228.898 99.3459 228.984 99.2957 229.056 99.2294C229.128 99.1631 229.182 99.0817 229.218 98.9851L230.494 99.022C230.441 99.308 230.324 99.5571 230.145 99.7692C229.967 99.9794 229.733 100.143 229.443 100.261C229.153 100.376 228.818 100.434 228.437 100.434ZM233.255 100.434C232.794 100.434 232.4 100.339 232.07 100.15C231.742 99.9605 231.49 99.6972 231.314 99.3601C231.138 99.0211 231.05 98.629 231.05 98.1839C231.05 97.737 231.138 97.3449 231.314 97.0078C231.492 96.6688 231.745 96.4046 232.073 96.2152C232.402 96.0258 232.795 95.9311 233.252 95.9311C233.655 95.9311 234.007 96.004 234.306 96.1499C234.607 96.2957 234.842 96.5021 235.01 96.7692C235.181 97.0343 235.271 97.3459 235.28 97.7038H233.982C233.955 97.4804 233.88 97.3052 233.755 97.1783C233.632 97.0514 233.471 96.9879 233.272 96.9879C233.111 96.9879 232.97 97.0334 232.848 97.1243C232.727 97.2133 232.632 97.3459 232.564 97.522C232.498 97.6963 232.465 97.9122 232.465 98.1697C232.465 98.4273 232.498 98.6451 232.564 98.8232C232.632 98.9993 232.727 99.1328 232.848 99.2237C232.97 99.3127 233.111 99.3572 233.272 99.3572C233.4 99.3572 233.514 99.3298 233.613 99.2749C233.713 99.2199 233.795 99.1394 233.86 99.0334C233.924 98.9254 233.965 98.7947 233.982 98.6413H235.28C235.267 99.0012 235.177 99.3156 235.01 99.5845C234.846 99.8535 234.614 100.063 234.314 100.212C234.017 100.36 233.664 100.434 233.255 100.434ZM238.454 95.9879V97.0107H235.701V95.9879H238.454ZM236.278 94.9425H237.667V98.9794C237.667 99.0646 237.681 99.1338 237.707 99.1868C237.735 99.2379 237.776 99.2749 237.829 99.2976C237.882 99.3184 237.946 99.3288 238.02 99.3288C238.073 99.3288 238.128 99.3241 238.187 99.3146C238.248 99.3033 238.293 99.2938 238.324 99.2862L238.534 100.289C238.467 100.308 238.374 100.332 238.252 100.36C238.133 100.388 237.99 100.406 237.824 100.414C237.498 100.429 237.218 100.391 236.985 100.3C236.754 100.208 236.577 100.064 236.454 99.8686C236.333 99.6735 236.274 99.4283 236.278 99.1328V94.9425ZM242.277 100.352L240.583 94.5334H242.137L243.015 98.3459H243.064L244.066 94.5334H245.333L246.336 98.3544H246.385L247.265 94.5334H248.816L247.126 100.352H245.771L244.723 96.8232H244.677L243.629 100.352H242.277ZM250.143 100.425C249.865 100.425 249.618 100.379 249.402 100.286C249.188 100.192 249.018 100.049 248.893 99.8601C248.77 99.6688 248.708 99.4292 248.708 99.1413C248.708 98.8989 248.751 98.6944 248.836 98.5277C248.922 98.361 249.039 98.2256 249.189 98.1214C249.338 98.0173 249.511 97.9387 249.706 97.8857C249.901 97.8307 250.109 97.7938 250.331 97.7749C250.579 97.7521 250.779 97.7285 250.93 97.7038C251.082 97.6773 251.191 97.6404 251.26 97.593C251.33 97.5438 251.365 97.4747 251.365 97.3857V97.3714C251.365 97.2256 251.315 97.1129 251.214 97.0334C251.114 96.9538 250.978 96.9141 250.808 96.9141C250.624 96.9141 250.476 96.9538 250.365 97.0334C250.253 97.1129 250.182 97.2228 250.152 97.3629L248.87 97.3175C248.908 97.0523 249.006 96.8156 249.163 96.6072C249.322 96.397 249.54 96.2322 249.816 96.1129C250.095 95.9917 250.429 95.9311 250.819 95.9311C251.098 95.9311 251.354 95.9643 251.589 96.0305C251.824 96.0949 252.029 96.1896 252.203 96.3146C252.377 96.4377 252.511 96.5893 252.606 96.7692C252.703 96.9491 252.751 97.1546 252.751 97.3857V100.352H251.444V99.7436H251.41C251.333 99.8913 251.233 100.016 251.112 100.119C250.993 100.221 250.851 100.298 250.689 100.349C250.528 100.4 250.346 100.425 250.143 100.425ZM250.572 99.5163C250.722 99.5163 250.856 99.486 250.975 99.4254C251.097 99.3648 251.193 99.2815 251.265 99.1754C251.337 99.0675 251.373 98.9425 251.373 98.8004V98.3857C251.333 98.4065 251.285 98.4254 251.228 98.4425C251.173 98.4595 251.113 98.4756 251.047 98.4908C250.98 98.5059 250.912 98.5192 250.842 98.5305C250.772 98.5419 250.705 98.5523 250.64 98.5618C250.51 98.5826 250.398 98.6148 250.305 98.6584C250.214 98.7019 250.144 98.7588 250.095 98.8288C250.047 98.897 250.024 98.9785 250.024 99.0732C250.024 99.2171 250.075 99.3269 250.177 99.4027C250.281 99.4785 250.413 99.5163 250.572 99.5163ZM254.99 94.5334V100.352H253.6V94.5334H254.99ZM257.263 94.5334V100.352H255.874V94.5334H257.263ZM260.187 100.434C259.731 100.434 259.337 100.344 259.005 100.164C258.676 99.9822 258.422 99.7237 258.244 99.3885C258.068 99.0514 257.98 98.6508 257.98 98.1868C257.98 97.736 258.069 97.3421 258.247 97.005C258.425 96.666 258.676 96.4027 259 96.2152C259.324 96.0258 259.705 95.9311 260.145 95.9311C260.455 95.9311 260.739 95.9794 260.997 96.076C261.254 96.1726 261.477 96.3156 261.664 96.505C261.852 96.6944 261.998 96.9283 262.102 97.2067C262.206 97.4832 262.258 97.8004 262.258 98.1584V98.505H258.466V97.6982H260.966C260.964 97.5504 260.929 97.4188 260.86 97.3033C260.792 97.1877 260.699 97.0978 260.579 97.0334C260.462 96.9671 260.326 96.9339 260.173 96.9339C260.018 96.9339 259.878 96.969 259.755 97.0391C259.632 97.1072 259.535 97.201 259.463 97.3203C259.391 97.4377 259.353 97.5713 259.349 97.7209V98.5419C259.349 98.7199 259.384 98.8762 259.454 99.0107C259.524 99.1432 259.624 99.2464 259.752 99.3203C259.881 99.3942 260.035 99.4311 260.213 99.4311C260.336 99.4311 260.448 99.4141 260.548 99.38C260.648 99.3459 260.734 99.2957 260.806 99.2294C260.878 99.1631 260.932 99.0817 260.968 98.9851L262.244 99.022C262.191 99.308 262.074 99.5571 261.895 99.7692C261.717 99.9794 261.483 100.143 261.193 100.261C260.903 100.376 260.568 100.434 260.187 100.434ZM265.431 95.9879V97.0107H262.678V95.9879H265.431ZM263.255 94.9425H264.644V98.9794C264.644 99.0646 264.657 99.1338 264.684 99.1868C264.712 99.2379 264.753 99.2749 264.806 99.2976C264.859 99.3184 264.922 99.3288 264.996 99.3288C265.049 99.3288 265.105 99.3241 265.164 99.3146C265.224 99.3033 265.27 99.2938 265.3 99.2862L265.51 100.289C265.444 100.308 265.35 100.332 265.229 100.36C265.11 100.388 264.967 100.406 264.8 100.414C264.474 100.429 264.195 100.391 263.962 100.3C263.731 100.208 263.554 100.064 263.431 99.8686C263.31 99.6735 263.251 99.4283 263.255 99.1328V94.9425Z" fill="#00A0FF"/>
<path d="M39.571 96.4339C39.5388 96.3146 39.4915 96.2095 39.429 96.1186C39.3665 96.0258 39.2898 95.9472 39.1989 95.8828C39.108 95.8184 39.0038 95.7701 38.8864 95.7379C38.7689 95.7038 38.6402 95.6868 38.5 95.6868C38.2178 95.6868 37.9735 95.755 37.767 95.8913C37.5625 96.0277 37.4044 96.2266 37.2926 96.4879C37.1809 96.7474 37.125 97.0627 37.125 97.4339C37.125 97.8071 37.179 98.1252 37.2869 98.3885C37.3949 98.6518 37.5511 98.8525 37.7557 98.9908C37.9602 99.129 38.2083 99.1982 38.5 99.1982C38.7576 99.1982 38.9754 99.1565 39.1534 99.0732C39.3333 98.9879 39.4697 98.8677 39.5625 98.7124C39.6553 98.5571 39.7017 98.3743 39.7017 98.1641L39.9631 98.1953H38.5483V97.1697H41.0568V97.9396C41.0568 98.4605 40.946 98.9065 40.7244 99.2777C40.5047 99.6489 40.2017 99.9339 39.8153 100.133C39.4309 100.332 38.9886 100.431 38.4886 100.431C37.9337 100.431 37.446 100.311 37.0256 100.07C36.6051 99.8298 36.2775 99.487 36.0426 99.0419C35.8078 98.5949 35.6903 98.0646 35.6903 97.451C35.6903 96.9737 35.7614 96.5504 35.9034 96.1811C36.0455 95.8099 36.2434 95.4955 36.4972 95.2379C36.7528 94.9804 37.0483 94.7853 37.3835 94.6527C37.7206 94.5201 38.0833 94.4538 38.4716 94.4538C38.8087 94.4538 39.1222 94.5021 39.4119 94.5987C39.7036 94.6953 39.9612 94.8317 40.1847 95.0078C40.41 95.1839 40.5928 95.3932 40.733 95.6357C40.8731 95.8781 40.9602 96.1442 40.9943 96.4339H39.571ZM43.1527 94.5334L44.2152 96.3714H44.2607L45.3345 94.5334H46.9084L45.1527 97.4425L46.9652 100.352H45.3516L44.2607 98.4936H44.2152L43.1243 100.352H41.522L43.326 97.4425L41.5675 94.5334H43.1527ZM47.6357 94.5334H49.3771L50.8544 98.1357H50.9226L52.3999 94.5334H54.1413V100.352H52.772V96.7777H52.7237L51.326 100.315H50.451L49.0533 96.7578H49.005V100.352H47.6357V94.5334ZM56.2713 99.2067L56.277 97.5504H56.4702L57.6974 95.9879H59.2713L57.4474 98.2266H57.081L56.2713 99.2067ZM55.0185 100.352V94.5334H56.4077V100.352H55.0185ZM57.7287 100.352L56.5866 98.5391L57.5014 97.5533L59.3338 100.352H57.7287ZM62.0298 100.431C61.5772 100.431 61.1728 100.359 60.8168 100.215C60.4626 100.069 60.1842 99.8724 59.9815 99.6243C59.7808 99.3743 59.6804 99.0921 59.6804 98.7777C59.6804 98.5372 59.7382 98.3165 59.8537 98.1158C59.9692 97.915 60.1255 97.7483 60.3224 97.6158C60.5213 97.4813 60.7429 97.3951 60.9872 97.3572V97.3118C60.6671 97.2531 60.4048 97.1044 60.2003 96.8658C59.9976 96.6271 59.8963 96.3478 59.8963 96.0277C59.8963 95.7247 59.9882 95.4548 60.1719 95.218C60.3575 94.9813 60.6103 94.7947 60.9304 94.6584C61.2524 94.522 61.6188 94.4538 62.0298 94.4538C62.4408 94.4538 62.8063 94.522 63.1264 94.6584C63.4484 94.7947 63.7012 94.9813 63.8849 95.218C64.0705 95.4548 64.1634 95.7247 64.1634 96.0277C64.1634 96.3497 64.0601 96.63 63.8537 96.8686C63.6491 97.1054 63.3887 97.2531 63.0724 97.3118V97.3572C63.3149 97.3951 63.5346 97.4813 63.7315 97.6158C63.9304 97.7483 64.0876 97.915 64.2031 98.1158C64.3205 98.3165 64.3793 98.5372 64.3793 98.7777C64.3793 99.0921 64.2779 99.3743 64.0753 99.6243C63.8726 99.8724 63.5942 100.069 63.2401 100.215C62.8878 100.359 62.4844 100.431 62.0298 100.431ZM62.0298 99.4339C62.2022 99.4339 62.3537 99.4018 62.4844 99.3374C62.6151 99.2711 62.7173 99.1792 62.7912 99.0618C62.867 98.9444 62.9048 98.8118 62.9048 98.6641C62.9048 98.5125 62.867 98.3781 62.7912 98.2607C62.7154 98.1432 62.6113 98.0514 62.4787 97.9851C62.348 97.9169 62.1984 97.8828 62.0298 97.8828C61.8632 97.8828 61.7135 97.9169 61.581 97.9851C61.4484 98.0514 61.3442 98.1432 61.2685 98.2607C61.1927 98.3781 61.1548 98.5125 61.1548 98.6641C61.1548 98.8118 61.1918 98.9444 61.2656 99.0618C61.3414 99.1773 61.4446 99.2682 61.5753 99.3345C61.7079 99.4008 61.8594 99.4339 62.0298 99.4339ZM62.0298 96.8913C62.1776 96.8913 62.3082 96.861 62.4219 96.8004C62.5374 96.7398 62.6274 96.6555 62.6918 96.5476C62.758 96.4396 62.7912 96.3175 62.7912 96.1811C62.7912 96.0447 62.758 95.9245 62.6918 95.8203C62.6274 95.7161 62.5384 95.6347 62.4247 95.576C62.3111 95.5154 62.1795 95.4851 62.0298 95.4851C61.8821 95.4851 61.7505 95.5154 61.6349 95.576C61.5194 95.6347 61.4295 95.7161 61.3651 95.8203C61.3007 95.9245 61.2685 96.0447 61.2685 96.1811C61.2685 96.3175 61.3007 96.4396 61.3651 96.5476C61.4313 96.6536 61.5223 96.7379 61.6378 96.8004C61.7533 96.861 61.884 96.8913 62.0298 96.8913ZM65.1747 100.352V95.9879H66.5241V96.7834H66.5696C66.6491 96.4955 66.7789 96.2815 66.9588 96.1413C67.1387 95.9993 67.348 95.9283 67.5866 95.9283C67.651 95.9283 67.7173 95.933 67.7855 95.9425C67.8537 95.95 67.9171 95.9624 67.9759 95.9794V97.1868C67.9096 97.1641 67.8224 97.1461 67.7145 97.1328C67.6084 97.1196 67.5137 97.1129 67.4304 97.1129C67.2656 97.1129 67.117 97.1499 66.9844 97.2237C66.8537 97.2957 66.7505 97.397 66.6747 97.5277C66.6009 97.6565 66.5639 97.808 66.5639 97.9822V100.352H65.1747ZM68.8232 100.434C68.6186 100.434 68.4434 100.362 68.2976 100.218C68.1536 100.074 68.0826 99.8999 68.0845 99.6953C68.0826 99.4946 68.1536 99.3232 68.2976 99.1811C68.4434 99.0372 68.6186 98.9652 68.8232 98.9652C69.0163 98.9652 69.1868 99.0372 69.3345 99.1811C69.4841 99.3232 69.5599 99.4946 69.5618 99.6953C69.5599 99.8317 69.5239 99.9557 69.4538 100.067C69.3857 100.179 69.2957 100.268 69.1839 100.335C69.0741 100.401 68.9538 100.434 68.8232 100.434ZM71.2607 100.434C71.0561 100.434 70.8809 100.362 70.7351 100.218C70.5911 100.074 70.5201 99.8999 70.522 99.6953C70.5201 99.4946 70.5911 99.3232 70.7351 99.1811C70.8809 99.0372 71.0561 98.9652 71.2607 98.9652C71.4538 98.9652 71.6243 99.0372 71.772 99.1811C71.9216 99.3232 71.9974 99.4946 71.9993 99.6953C71.9974 99.8317 71.9614 99.9557 71.8913 100.067C71.8232 100.179 71.7332 100.268 71.6214 100.335C71.5116 100.401 71.3913 100.434 71.2607 100.434ZM73.6982 100.434C73.4936 100.434 73.3184 100.362 73.1726 100.218C73.0286 100.074 72.9576 99.8999 72.9595 99.6953C72.9576 99.4946 73.0286 99.3232 73.1726 99.1811C73.3184 99.0372 73.4936 98.9652 73.6982 98.9652C73.8913 98.9652 74.0618 99.0372 74.2095 99.1811C74.3591 99.3232 74.4349 99.4946 74.4368 99.6953C74.4349 99.8317 74.3989 99.9557 74.3288 100.067C74.2607 100.179 74.1707 100.268 74.0589 100.335C73.9491 100.401 73.8288 100.434 73.6982 100.434ZM75.3544 100.352V94.5334H77.7578C78.1934 94.5334 78.5694 94.6186 78.8857 94.7891C79.2038 94.9576 79.4491 95.1934 79.6214 95.4964C79.7938 95.7976 79.88 96.148 79.88 96.5476C79.88 96.9491 79.7919 97.3004 79.6158 97.6016C79.4415 97.9008 79.1925 98.1328 78.8686 98.2976C78.5447 98.4624 78.1603 98.5447 77.7152 98.5447H76.2322V97.4368H77.4538C77.666 97.4368 77.843 97.3999 77.9851 97.326C78.129 97.2521 78.2379 97.1489 78.3118 97.0163C78.3857 96.8819 78.4226 96.7256 78.4226 96.5476C78.4226 96.3677 78.3857 96.2124 78.3118 96.0817C78.2379 95.9491 78.129 95.8468 77.9851 95.7749C77.8411 95.7029 77.6641 95.6669 77.4538 95.6669H76.7607V100.352H75.3544ZM80.5732 100.352V94.5334H81.9624V96.7351H81.9908C82.0476 96.6025 82.1281 96.4747 82.2322 96.3516C82.3383 96.2285 82.4728 96.1281 82.6357 96.0504C82.8004 95.9709 82.9974 95.9311 83.2266 95.9311C83.5296 95.9311 83.8127 96.0107 84.076 96.1697C84.3411 96.3288 84.5552 96.5741 84.718 96.9055C84.8809 97.237 84.9624 97.6593 84.9624 98.1726C84.9624 98.6669 84.8838 99.0807 84.7266 99.4141C84.5713 99.7474 84.361 99.9974 84.0959 100.164C83.8326 100.331 83.54 100.414 83.218 100.414C82.9983 100.414 82.808 100.378 82.647 100.306C82.486 100.234 82.3506 100.139 82.2408 100.022C82.1328 99.9046 82.0495 99.7786 81.9908 99.6442H81.9482V100.352H80.5732ZM81.9339 98.1697C81.9339 98.4046 81.9652 98.6091 82.0277 98.7834C82.0921 98.9576 82.1839 99.093 82.3033 99.1896C82.4245 99.2843 82.5694 99.3317 82.7379 99.3317C82.9084 99.3317 83.0533 99.2843 83.1726 99.1896C83.2919 99.093 83.3819 98.9576 83.4425 98.7834C83.505 98.6091 83.5362 98.4046 83.5362 98.1697C83.5362 97.9349 83.505 97.7313 83.4425 97.5589C83.3819 97.3866 83.2919 97.2531 83.1726 97.1584C83.0552 97.0637 82.9103 97.0163 82.7379 97.0163C82.5675 97.0163 82.4226 97.0627 82.3033 97.1555C82.1839 97.2483 82.0921 97.3809 82.0277 97.5533C81.9652 97.7256 81.9339 97.9311 81.9339 98.1697ZM86.3991 101.988C86.2325 101.988 86.0753 101.975 85.9276 101.948C85.7798 101.924 85.6529 101.89 85.5469 101.849L85.8537 100.84C85.9901 100.886 86.1132 100.912 86.223 100.92C86.3348 100.927 86.4304 100.909 86.5099 100.866C86.5914 100.824 86.6539 100.749 86.6974 100.641L86.7514 100.511L85.2003 95.9879H86.6548L87.4588 99.1016H87.5043L88.3196 95.9879H89.7827L88.1378 100.769C88.0582 101.008 87.9455 101.218 87.7997 101.4C87.6558 101.584 87.4692 101.728 87.2401 101.832C87.0128 101.936 86.7325 101.988 86.3991 101.988ZM92.2116 100.434C91.7533 100.434 91.3594 100.34 91.0298 100.153C90.7022 99.9633 90.4493 99.7 90.2713 99.3629C90.0952 99.0239 90.0071 98.6309 90.0071 98.1839C90.0071 97.7351 90.0952 97.3421 90.2713 97.005C90.4493 96.666 90.7022 96.4027 91.0298 96.2152C91.3594 96.0258 91.7533 95.9311 92.2116 95.9311C92.67 95.9311 93.063 96.0258 93.3906 96.2152C93.7202 96.4027 93.973 96.666 94.1491 97.005C94.3272 97.3421 94.4162 97.7351 94.4162 98.1839C94.4162 98.6309 94.3272 99.0239 94.1491 99.3629C93.973 99.7 93.7202 99.9633 93.3906 100.153C93.063 100.34 92.67 100.434 92.2116 100.434ZM92.2202 99.3857C92.3868 99.3857 92.5279 99.3345 92.6435 99.2322C92.759 99.13 92.8471 98.9879 92.9077 98.8061C92.9702 98.6243 93.0014 98.4141 93.0014 98.1754C93.0014 97.933 92.9702 97.7209 92.9077 97.5391C92.8471 97.3572 92.759 97.2152 92.6435 97.1129C92.5279 97.0107 92.3868 96.9595 92.2202 96.9595C92.0478 96.9595 91.902 97.0107 91.7827 97.1129C91.6652 97.2152 91.5753 97.3572 91.5128 97.5391C91.4522 97.7209 91.4219 97.933 91.4219 98.1754C91.4219 98.4141 91.4522 98.6243 91.5128 98.8061C91.5753 98.9879 91.6652 99.13 91.7827 99.2322C91.902 99.3345 92.0478 99.3857 92.2202 99.3857Z" fill="#585B68"/>
<rect x="196" y="122" width="80" height="38" rx="10" fill="#585B68"/>
<path d="M218.921 153V151.989L221.043 150.131C221.202 149.987 221.338 149.855 221.45 149.736C221.561 149.615 221.647 149.493 221.705 149.372C221.764 149.249 221.793 149.116 221.793 148.972C221.793 148.811 221.758 148.673 221.688 148.56C221.618 148.444 221.522 148.355 221.398 148.293C221.275 148.23 221.134 148.199 220.975 148.199C220.814 148.199 220.673 148.232 220.552 148.298C220.431 148.363 220.336 148.456 220.268 148.58C220.201 148.703 220.168 148.852 220.168 149.028H218.836C218.836 148.633 218.925 148.291 219.103 148.003C219.281 147.715 219.531 147.493 219.853 147.338C220.177 147.181 220.553 147.102 220.981 147.102C221.422 147.102 221.806 147.176 222.131 147.324C222.457 147.472 222.709 147.678 222.887 147.943C223.067 148.206 223.157 148.512 223.157 148.861C223.157 149.082 223.112 149.302 223.023 149.52C222.934 149.738 222.774 149.978 222.543 150.241C222.314 150.505 221.988 150.82 221.566 151.188L220.87 151.83V151.866H223.228V153H218.921ZM225.452 152.205L225.426 152.52C225.403 152.781 225.357 153.036 225.287 153.284C225.219 153.534 225.146 153.759 225.068 153.957C224.991 154.156 224.929 154.311 224.884 154.42H224.009C224.039 154.311 224.08 154.156 224.131 153.957C224.184 153.759 224.233 153.534 224.278 153.284C224.324 153.034 224.349 152.78 224.355 152.523L224.361 152.205H225.452ZM226.507 153V151.989L228.629 150.131C228.788 149.987 228.924 149.855 229.036 149.736C229.147 149.615 229.232 149.493 229.291 149.372C229.35 149.249 229.379 149.116 229.379 148.972C229.379 148.811 229.344 148.673 229.274 148.56C229.204 148.444 229.107 148.355 228.984 148.293C228.861 148.23 228.72 148.199 228.561 148.199C228.4 148.199 228.259 148.232 228.138 148.298C228.017 148.363 227.922 148.456 227.854 148.58C227.787 148.703 227.754 148.852 227.754 149.028H226.422C226.422 148.633 226.511 148.291 226.689 148.003C226.867 147.715 227.117 147.493 227.439 147.338C227.763 147.181 228.139 147.102 228.567 147.102C229.008 147.102 229.392 147.176 229.717 147.324C230.043 147.472 230.295 147.678 230.473 147.943C230.653 148.206 230.743 148.512 230.743 148.861C230.743 149.082 230.698 149.302 230.609 149.52C230.52 149.738 230.36 149.978 230.129 150.241C229.9 150.505 229.574 150.82 229.152 151.188L228.456 151.83V151.866H230.814V153H226.507ZM231.856 153L234.202 148.352V148.315H231.458V147.182H235.657V148.324L233.302 153H231.856ZM236.832 153L239.179 148.352V148.315H236.435V147.182H240.634V148.324L238.278 153H236.832ZM241.198 153.082C240.994 153.082 240.818 153.01 240.673 152.866C240.529 152.723 240.458 152.548 240.46 152.344C240.458 152.143 240.529 151.972 240.673 151.83C240.818 151.686 240.994 151.614 241.198 151.614C241.391 151.614 241.562 151.686 241.71 151.83C241.859 151.972 241.935 152.143 241.937 152.344C241.935 152.48 241.899 152.604 241.829 152.716C241.761 152.828 241.671 152.917 241.559 152.983C241.449 153.049 241.329 153.082 241.198 153.082ZM244.999 153.142C244.492 153.142 244.054 153.022 243.687 152.781C243.319 152.539 243.036 152.191 242.837 151.739C242.638 151.284 242.54 150.738 242.542 150.099C242.544 149.461 242.643 148.92 242.84 148.474C243.039 148.027 243.321 147.687 243.687 147.455C244.054 147.22 244.492 147.102 244.999 147.102C245.507 147.102 245.944 147.22 246.312 147.455C246.681 147.687 246.965 148.027 247.164 148.474C247.363 148.921 247.461 149.463 247.46 150.099C247.46 150.74 247.36 151.287 247.161 151.741C246.962 152.196 246.679 152.544 246.312 152.784C245.946 153.023 245.509 153.142 244.999 153.142ZM244.999 151.991C245.302 151.991 245.548 151.837 245.735 151.528C245.923 151.218 246.015 150.741 246.013 150.099C246.013 149.679 245.971 149.332 245.886 149.06C245.8 148.785 245.682 148.58 245.531 148.446C245.379 148.312 245.202 148.244 244.999 148.244C244.698 148.244 244.455 148.397 244.269 148.702C244.084 149.005 243.99 149.471 243.988 150.099C243.986 150.526 244.027 150.879 244.11 151.159C244.195 151.439 244.315 151.649 244.468 151.787C244.621 151.923 244.799 151.991 244.999 151.991ZM250.671 153.142C250.164 153.142 249.726 153.022 249.359 152.781C248.991 152.539 248.708 152.191 248.509 151.739C248.31 151.284 248.212 150.738 248.214 150.099C248.216 149.461 248.315 148.92 248.512 148.474C248.711 148.027 248.993 147.687 249.359 147.455C249.726 147.22 250.164 147.102 250.671 147.102C251.179 147.102 251.616 147.22 251.984 147.455C252.353 147.687 252.637 148.027 252.836 148.474C253.035 148.921 253.133 149.463 253.131 150.099C253.131 150.74 253.032 151.287 252.833 151.741C252.634 152.196 252.351 152.544 251.984 152.784C251.618 153.023 251.181 153.142 250.671 153.142ZM250.671 151.991C250.974 151.991 251.219 151.837 251.407 151.528C251.594 151.218 251.687 150.741 251.685 150.099C251.685 149.679 251.643 149.332 251.558 149.06C251.472 148.785 251.354 148.58 251.202 148.446C251.051 148.312 250.874 148.244 250.671 148.244C250.37 148.244 250.127 148.397 249.941 148.702C249.755 149.005 249.662 149.471 249.66 150.099C249.658 150.526 249.699 150.879 249.782 151.159C249.867 151.439 249.987 151.649 250.14 151.787C250.293 151.923 250.47 151.991 250.671 151.991Z" fill="#FFFDF7"/>
<g clip-path="url(#clip0_2846_1091)">
<path d="M236 142.853C239.785 142.853 242.854 139.784 242.854 135.999C242.854 132.213 239.785 129.145 236 129.145C232.214 129.145 229.146 132.213 229.146 135.999C229.146 139.784 232.214 142.853 236 142.853Z" fill="#0B53BF"/>
<path d="M237.233 131.008V131.89C238.994 132.421 240.284 134.058 240.284 135.999C240.284 137.939 238.994 139.576 237.233 140.107V140.989C239.478 140.441 241.14 138.415 241.14 135.999C241.14 133.582 239.478 131.556 237.233 131.008Z" fill="white"/>
<path d="M231.716 135.999C231.716 134.058 233.006 132.421 234.766 131.89V131.008C232.522 131.556 230.859 133.582 230.859 135.999C230.859 138.415 232.522 140.441 234.766 140.989V140.107C233.006 139.58 231.716 137.939 231.716 135.999Z" fill="white"/>
<path d="M237.842 136.954C237.842 135.202 235.097 135.922 235.097 134.953C235.097 134.606 235.375 134.384 235.906 134.384C236.54 134.384 236.759 134.692 236.827 135.108H237.701C237.623 134.328 237.176 133.835 236.429 133.689V133H235.572V133.664C234.754 133.768 234.24 134.245 234.24 134.953C234.24 136.714 236.99 136.054 236.99 137.005C236.99 137.365 236.643 137.605 236.056 137.605C235.289 137.605 235.037 137.267 234.942 136.8H234.09C234.145 137.654 234.672 138.189 235.572 138.322V138.997H236.429V138.331C237.307 138.217 237.842 137.706 237.842 136.954Z" fill="white"/>
</g>
<rect x="111" y="122" width="80" height="38" rx="10" fill="#585B68"/>
<path d="M143.859 153.142C143.351 153.142 142.914 153.022 142.546 152.781C142.179 152.539 141.896 152.191 141.697 151.739C141.498 151.284 141.399 150.738 141.401 150.099C141.403 149.461 141.503 148.92 141.7 148.474C141.898 148.027 142.181 147.687 142.546 147.455C142.914 147.22 143.351 147.102 143.859 147.102C144.366 147.102 144.804 147.22 145.171 147.455C145.54 147.687 145.825 148.027 146.023 148.474C146.222 148.921 146.321 149.463 146.319 150.099C146.319 150.74 146.219 151.287 146.021 151.741C145.822 152.196 145.539 152.544 145.171 152.784C144.806 153.023 144.368 153.142 143.859 153.142ZM143.859 151.991C144.162 151.991 144.407 151.837 144.594 151.528C144.782 151.218 144.875 150.741 144.873 150.099C144.873 149.679 144.83 149.332 144.745 149.06C144.66 148.785 144.541 148.58 144.39 148.446C144.238 148.312 144.061 148.244 143.859 148.244C143.558 148.244 143.314 148.397 143.129 148.702C142.943 149.005 142.849 149.471 142.847 150.099C142.845 150.526 142.886 150.879 142.969 151.159C143.055 151.439 143.174 151.649 143.327 151.787C143.481 151.923 143.658 151.991 143.859 151.991ZM147.667 153.082C147.462 153.082 147.287 153.01 147.141 152.866C146.997 152.723 146.926 152.548 146.928 152.344C146.926 152.143 146.997 151.972 147.141 151.83C147.287 151.686 147.462 151.614 147.667 151.614C147.86 151.614 148.031 151.686 148.178 151.83C148.328 151.972 148.404 152.143 148.406 152.344C148.404 152.48 148.368 152.604 148.298 152.716C148.229 152.828 148.139 152.917 148.028 152.983C147.918 153.049 147.798 153.082 147.667 153.082ZM151.468 153.142C150.96 153.142 150.523 153.022 150.156 152.781C149.788 152.539 149.505 152.191 149.306 151.739C149.107 151.284 149.009 150.738 149.011 150.099C149.013 149.461 149.112 148.92 149.309 148.474C149.508 148.027 149.79 147.687 150.156 147.455C150.523 147.22 150.96 147.102 151.468 147.102C151.976 147.102 152.413 147.22 152.781 147.455C153.15 147.687 153.434 148.027 153.633 148.474C153.832 148.921 153.93 149.463 153.928 150.099C153.928 150.74 153.829 151.287 153.63 151.741C153.431 152.196 153.148 152.544 152.781 152.784C152.415 153.023 151.978 153.142 151.468 153.142ZM151.468 151.991C151.771 151.991 152.016 151.837 152.204 151.528C152.391 151.218 152.484 150.741 152.482 150.099C152.482 149.679 152.44 149.332 152.354 149.06C152.269 148.785 152.151 148.58 151.999 148.446C151.848 148.312 151.671 148.244 151.468 148.244C151.167 148.244 150.924 148.397 150.738 148.702C150.552 149.005 150.459 149.471 150.457 150.099C150.455 150.526 150.496 150.879 150.579 151.159C150.664 151.439 150.783 151.649 150.937 151.787C151.09 151.923 151.267 151.991 151.468 151.991ZM157.14 153.142C156.632 153.142 156.195 153.022 155.827 152.781C155.46 152.539 155.177 152.191 154.978 151.739C154.779 151.284 154.681 150.738 154.683 150.099C154.684 149.461 154.784 148.92 154.981 148.474C155.18 148.027 155.462 147.687 155.827 147.455C156.195 147.22 156.632 147.102 157.14 147.102C157.647 147.102 158.085 147.22 158.452 147.455C158.822 147.687 159.106 148.027 159.305 148.474C159.504 148.921 159.602 149.463 159.6 150.099C159.6 150.74 159.501 151.287 159.302 151.741C159.103 152.196 158.82 152.544 158.452 152.784C158.087 153.023 157.649 153.142 157.14 153.142ZM157.14 151.991C157.443 151.991 157.688 151.837 157.876 151.528C158.063 151.218 158.156 150.741 158.154 150.099C158.154 149.679 158.112 149.332 158.026 149.06C157.941 148.785 157.823 148.58 157.671 148.446C157.52 148.312 157.343 148.244 157.14 148.244C156.839 148.244 156.595 148.397 156.41 148.702C156.224 149.005 156.13 149.471 156.129 150.099C156.127 150.526 156.167 150.879 156.251 151.159C156.336 151.439 156.455 151.649 156.609 151.787C156.762 151.923 156.939 151.991 157.14 151.991Z" fill="#FFFDF7"/>
<g clip-path="url(#clip1_2846_1091)">
<mask id="mask0_2846_1091" style="mask-type:luminance" maskUnits="userSpaceOnUse" x="144" y="129" width="14" height="14">
<path d="M158 129H144V143H158V129Z" fill="white"/>
</mask>
<g mask="url(#mask0_2846_1091)">
<path d="M151 143C154.866 143 158 139.866 158 136C158 132.134 154.866 129 151 129C147.134 129 144 132.134 144 136C144 139.866 147.134 143 151 143Z" fill="#0B53BF"/>
<path d="M152.488 137.667C152.182 137.789 151.849 137.859 151.53 137.859C150.897 137.859 150.301 137.59 150.016 136.941H151.407L151.678 136.284H149.854C149.845 136.194 149.841 136.099 149.841 136C149.841 135.901 149.845 135.806 149.854 135.716H151.91L152.182 135.059H150.016C150.301 134.41 150.897 134.141 151.53 134.141C151.849 134.141 152.182 134.211 152.488 134.333L152.768 133.668C152.392 133.471 151.967 133.375 151.543 133.375C150.518 133.375 149.483 133.948 149.108 135.059H148.437V135.716H148.974C148.966 135.808 148.962 135.903 148.962 136C148.962 136.097 148.966 136.192 148.974 136.284H148.437V136.941H149.108C149.483 138.052 150.518 138.625 151.543 138.625C151.967 138.625 152.392 138.529 152.768 138.332L152.488 137.667Z" fill="white" stroke="#0B53BF" stroke-width="0.03" stroke-miterlimit="10"/>
<path d="M146.625 135.999C146.625 134.017 147.942 132.346 149.74 131.804V130.902C147.447 131.462 145.75 133.532 145.75 135.999C145.75 138.467 147.447 140.536 149.74 141.096V140.195C147.942 139.657 146.625 137.981 146.625 135.999Z" fill="white" stroke="#0B53BF" stroke-width="0.03" stroke-miterlimit="10"/>
<path d="M152.26 130.902V131.804C154.058 132.346 155.375 134.017 155.375 135.999C155.375 137.981 154.058 139.652 152.26 140.195V141.096C154.552 140.536 156.25 138.467 156.25 135.999C156.25 133.532 154.552 131.462 152.26 130.902Z" fill="white" stroke="#0B53BF" stroke-width="0.03" stroke-miterlimit="10"/>
</g>
</g>
<rect x="26" y="122" width="80" height="38" rx="10" fill="#585B68"/>
<path d="M58.93 153L61.2766 148.352V148.315H58.5323V147.182H62.7312V148.324L60.3761 153H58.93ZM63.2958 153.082C63.0913 153.082 62.9161 153.01 62.7702 152.866C62.6263 152.723 62.5553 152.548 62.5572 152.344C62.5553 152.143 62.6263 151.972 62.7702 151.83C62.9161 151.686 63.0913 151.614 63.2958 151.614C63.489 151.614 63.6594 151.686 63.8072 151.83C63.9568 151.972 64.0326 152.143 64.0344 152.344C64.0326 152.48 63.9966 152.604 63.9265 152.716C63.8583 152.828 63.7683 152.917 63.6566 152.983C63.5468 153.049 63.4265 153.082 63.2958 153.082ZM67.006 147.102C67.3242 147.102 67.6282 147.154 67.918 147.259C68.2077 147.361 68.4663 147.525 68.6935 147.75C68.9208 147.973 69.0998 148.268 69.2305 148.634C69.3612 148.999 69.4265 149.445 69.4265 149.972C69.4284 150.456 69.3716 150.891 69.256 151.276C69.1405 151.658 68.9748 151.984 68.7589 152.253C68.5449 152.522 68.2873 152.727 67.9862 152.869C67.685 153.009 67.3488 153.08 66.9776 153.08C66.5685 153.08 66.2077 153.001 65.8952 152.844C65.5846 152.685 65.3356 152.471 65.1481 152.202C64.9625 151.933 64.8517 151.632 64.8157 151.298H66.1992C66.2428 151.491 66.3346 151.637 66.4748 151.736C66.6149 151.832 66.7826 151.881 66.9776 151.881C67.3337 151.881 67.5998 151.726 67.7759 151.418C67.9521 151.109 68.0401 150.689 68.0401 150.159H68.006C67.9246 150.333 67.8091 150.483 67.6594 150.608C67.5117 150.733 67.3403 150.829 67.1452 150.895C66.9502 150.961 66.7447 150.994 66.5288 150.994C66.1803 150.994 65.8725 150.915 65.6055 150.756C65.3403 150.597 65.132 150.378 64.9805 150.099C64.8308 149.821 64.7551 149.503 64.7532 149.145C64.7513 148.743 64.8451 148.389 65.0344 148.082C65.2238 147.774 65.488 147.533 65.8271 147.361C66.1661 147.187 66.5591 147.1 67.006 147.102ZM67.0146 148.182C66.8403 148.182 66.685 148.223 66.5487 148.304C66.4142 148.385 66.3081 148.495 66.2305 148.634C66.1528 148.772 66.1149 148.927 66.1168 149.099C66.1187 149.272 66.1576 149.427 66.2333 149.565C66.311 149.704 66.4161 149.813 66.5487 149.895C66.6831 149.976 66.8365 150.017 67.0089 150.017C67.1377 150.017 67.257 149.993 67.3668 149.946C67.4767 149.899 67.5723 149.833 67.6538 149.75C67.7352 149.665 67.7987 149.566 67.8441 149.455C67.8915 149.343 67.9142 149.223 67.9123 149.097C67.9104 148.928 67.8706 148.775 67.793 148.636C67.7153 148.498 67.6083 148.388 67.4719 148.307C67.3375 148.223 67.185 148.182 67.0146 148.182ZM72.8888 147.182V153H71.4854V148.494H71.4513L70.1502 149.29V148.074L71.5849 147.182H72.8888Z" fill="#FFFDF7"/>
<g clip-path="url(#clip2_2846_1091)">
<circle cx="65.65" cy="135.65" r="6.65" fill="#393939"/>
<g clip-path="url(#clip3_2846_1091)">
<path d="M68.941 137.42L67.8432 138.579C67.8193 138.605 67.7904 138.625 67.7583 138.638C67.7263 138.652 67.6916 138.659 67.6567 138.659H62.4526C62.4278 138.659 62.4035 138.652 62.3828 138.639C62.362 138.625 62.3457 138.606 62.3358 138.584C62.3259 138.561 62.3228 138.536 62.327 138.512C62.3313 138.488 62.3425 138.466 62.3595 138.448L63.4581 137.288C63.4819 137.263 63.5107 137.243 63.5426 137.229C63.5746 137.216 63.6091 137.209 63.644 137.208H68.8478C68.8726 137.208 68.8969 137.216 68.9177 137.229C68.9384 137.242 68.9547 137.262 68.9647 137.284C68.9745 137.306 68.9776 137.331 68.9734 137.355C68.9691 137.379 68.9579 137.402 68.941 137.42ZM67.8432 135.084C67.8193 135.059 67.7904 135.039 67.7583 135.025C67.7263 135.012 67.6916 135.005 67.6567 135.005H62.4526C62.4278 135.005 62.4035 135.012 62.3828 135.025C62.362 135.039 62.3457 135.058 62.3358 135.08C62.3259 135.103 62.3228 135.127 62.327 135.151C62.3313 135.176 62.3425 135.198 62.3595 135.216L63.4581 136.375C63.4819 136.401 63.5107 136.421 63.5426 136.434C63.5746 136.448 63.6091 136.455 63.644 136.455H68.8478C68.8726 136.455 68.8969 136.448 68.9177 136.435C68.9384 136.421 68.9547 136.402 68.9647 136.38C68.9745 136.357 68.9776 136.333 68.9734 136.308C68.9691 136.284 68.9579 136.262 68.941 136.244L67.8432 135.084ZM62.4526 134.251H67.6567C67.6916 134.251 67.7263 134.244 67.7583 134.231C67.7904 134.217 67.8193 134.197 67.8432 134.172L68.941 133.012C68.9579 132.994 68.9691 132.972 68.9734 132.948C68.9776 132.924 68.9745 132.899 68.9647 132.876C68.9547 132.854 68.9384 132.835 68.9177 132.821C68.8969 132.808 68.8726 132.801 68.8478 132.801H63.644C63.6091 132.801 63.5746 132.808 63.5426 132.822C63.5107 132.835 63.4819 132.855 63.4581 132.881L62.3597 134.04C62.3428 134.058 62.3316 134.08 62.3273 134.105C62.3231 134.129 62.3261 134.153 62.336 134.176C62.3458 134.198 62.3621 134.217 62.3829 134.231C62.4036 134.244 62.4278 134.251 62.4526 134.251Z" fill="white"/>
</g>
</g>
<rect x="25" y="170" width="250" height="51" rx="10" fill="url(#paint2_linear_2846_1091)"/>
<rect x="189" y="185" width="78" height="21" rx="10" fill="#F8A720"/>
<path d="M211.44 199V193.182H213.844C214.279 193.182 214.655 193.267 214.972 193.438C215.29 193.606 215.535 193.842 215.707 194.145C215.88 194.446 215.966 194.796 215.966 195.196C215.966 195.598 215.878 195.949 215.702 196.25C215.527 196.549 215.278 196.781 214.955 196.946C214.631 197.111 214.246 197.193 213.801 197.193H212.318V196.085H213.54C213.752 196.085 213.929 196.048 214.071 195.974C214.215 195.901 214.324 195.797 214.398 195.665C214.472 195.53 214.509 195.374 214.509 195.196C214.509 195.016 214.472 194.861 214.398 194.73C214.324 194.598 214.215 194.495 214.071 194.423C213.927 194.351 213.75 194.315 213.54 194.315H212.847V199H211.44ZM218.613 199.082C218.156 199.082 217.763 198.992 217.431 198.812C217.102 198.631 216.848 198.372 216.67 198.037C216.494 197.7 216.406 197.299 216.406 196.835C216.406 196.384 216.495 195.991 216.673 195.653C216.851 195.314 217.102 195.051 217.425 194.864C217.749 194.674 218.131 194.58 218.57 194.58C218.881 194.58 219.165 194.628 219.423 194.724C219.68 194.821 219.903 194.964 220.09 195.153C220.278 195.343 220.424 195.577 220.528 195.855C220.632 196.132 220.684 196.449 220.684 196.807V197.153H216.891V196.347H219.391C219.389 196.199 219.354 196.067 219.286 195.952C219.218 195.836 219.124 195.746 219.005 195.682C218.888 195.616 218.752 195.582 218.599 195.582C218.443 195.582 218.304 195.617 218.181 195.688C218.058 195.756 217.96 195.849 217.888 195.969C217.817 196.086 217.779 196.22 217.775 196.369V197.19C217.775 197.368 217.81 197.525 217.88 197.659C217.95 197.792 218.049 197.895 218.178 197.969C218.307 198.043 218.46 198.08 218.638 198.08C218.762 198.08 218.873 198.062 218.974 198.028C219.074 197.994 219.16 197.944 219.232 197.878C219.304 197.812 219.358 197.73 219.394 197.634L220.67 197.67C220.617 197.956 220.5 198.205 220.32 198.418C220.142 198.628 219.908 198.792 219.619 198.909C219.329 199.025 218.994 199.082 218.613 199.082ZM222.783 196.511V199H221.393V194.636H222.714V195.438H222.763C222.859 195.17 223.024 194.961 223.257 194.81C223.49 194.656 223.768 194.58 224.089 194.58C224.396 194.58 224.662 194.649 224.888 194.787C225.115 194.923 225.291 195.115 225.416 195.361C225.543 195.605 225.606 195.891 225.604 196.219V199H224.214V196.491C224.216 196.249 224.155 196.06 224.03 195.923C223.907 195.787 223.735 195.719 223.516 195.719C223.37 195.719 223.241 195.751 223.129 195.815C223.019 195.878 222.934 195.968 222.874 196.085C222.815 196.203 222.785 196.345 222.783 196.511ZM228.058 199.062C227.736 199.062 227.443 198.979 227.18 198.812C226.916 198.646 226.706 198.396 226.549 198.062C226.392 197.729 226.313 197.315 226.313 196.821C226.313 196.308 226.395 195.885 226.558 195.554C226.72 195.223 226.933 194.977 227.197 194.818C227.462 194.659 227.747 194.58 228.052 194.58C228.281 194.58 228.477 194.619 228.64 194.699C228.803 194.777 228.937 194.877 229.043 195C229.149 195.123 229.23 195.251 229.285 195.384H229.313V193.182H230.702V199H229.327V198.293H229.285C229.226 198.427 229.143 198.553 229.035 198.67C228.927 198.788 228.791 198.883 228.629 198.955C228.468 199.027 228.277 199.062 228.058 199.062ZM228.54 197.98C228.709 197.98 228.853 197.933 228.972 197.838C229.092 197.741 229.183 197.606 229.248 197.432C229.312 197.258 229.344 197.053 229.344 196.818C229.344 196.58 229.312 196.374 229.248 196.202C229.185 196.029 229.094 195.897 228.972 195.804C228.853 195.711 228.709 195.665 228.54 195.665C228.368 195.665 228.222 195.712 228.103 195.807C227.984 195.902 227.893 196.035 227.83 196.207C227.77 196.38 227.739 196.583 227.739 196.818C227.739 197.053 227.771 197.258 227.833 197.432C227.896 197.606 227.986 197.741 228.103 197.838C228.222 197.933 228.368 197.98 228.54 197.98ZM231.581 199V194.636H232.97V199H231.581ZM232.277 194.128C232.082 194.128 231.914 194.063 231.774 193.935C231.634 193.804 231.564 193.647 231.564 193.463C231.564 193.281 231.634 193.126 231.774 192.997C231.914 192.866 232.082 192.801 232.277 192.801C232.474 192.801 232.642 192.866 232.78 192.997C232.92 193.126 232.99 193.281 232.99 193.463C232.99 193.647 232.92 193.804 232.78 193.935C232.642 194.063 232.474 194.128 232.277 194.128ZM235.244 196.511V199H233.854V194.636H235.175V195.438H235.224C235.32 195.17 235.485 194.961 235.718 194.81C235.951 194.656 236.228 194.58 236.55 194.58C236.857 194.58 237.123 194.649 237.349 194.787C237.576 194.923 237.752 195.115 237.877 195.361C238.004 195.605 238.067 195.891 238.065 196.219V199H236.675V196.491C236.677 196.249 236.616 196.06 236.491 195.923C236.368 195.787 236.196 195.719 235.977 195.719C235.831 195.719 235.702 195.751 235.59 195.815C235.48 195.878 235.395 195.968 235.335 196.085C235.276 196.203 235.246 196.345 235.244 196.511ZM240.959 200.727C240.544 200.727 240.189 200.67 239.893 200.554C239.598 200.438 239.366 200.28 239.197 200.08C239.029 199.879 238.928 199.652 238.893 199.398L240.209 199.324C240.233 199.413 240.279 199.491 240.345 199.557C240.413 199.623 240.501 199.674 240.609 199.71C240.719 199.746 240.848 199.764 240.996 199.764C241.229 199.764 241.421 199.707 241.572 199.594C241.726 199.482 241.803 199.286 241.803 199.006V198.239H241.754C241.699 198.373 241.616 198.493 241.504 198.599C241.393 198.705 241.253 198.789 241.087 198.849C240.922 198.91 240.732 198.94 240.518 198.94C240.2 198.94 239.909 198.866 239.643 198.719C239.38 198.569 239.169 198.338 239.01 198.026C238.853 197.711 238.774 197.307 238.774 196.812C238.774 196.303 238.856 195.884 239.018 195.554C239.181 195.223 239.394 194.977 239.658 194.818C239.923 194.659 240.208 194.58 240.513 194.58C240.742 194.58 240.938 194.619 241.101 194.699C241.266 194.777 241.401 194.877 241.507 195C241.613 195.123 241.694 195.251 241.749 195.384H241.788V194.636H243.172V199.017C243.172 199.386 243.079 199.698 242.893 199.952C242.708 200.205 242.448 200.398 242.115 200.528C241.782 200.661 241.396 200.727 240.959 200.727ZM241.001 197.929C241.17 197.929 241.314 197.884 241.433 197.795C241.553 197.706 241.644 197.579 241.709 197.412C241.773 197.245 241.805 197.045 241.805 196.812C241.805 196.576 241.773 196.372 241.709 196.202C241.646 196.029 241.554 195.897 241.433 195.804C241.314 195.711 241.17 195.665 241.001 195.665C240.829 195.665 240.683 195.712 240.564 195.807C240.445 195.902 240.354 196.035 240.291 196.207C240.231 196.378 240.2 196.58 240.2 196.812C240.2 197.045 240.232 197.245 240.294 197.412C240.357 197.579 240.446 197.706 240.564 197.795C240.683 197.884 240.829 197.929 241.001 197.929Z" fill="#585B68"/>
<path d="M116.429 199V197.989L118.551 196.131C118.71 195.987 118.846 195.855 118.957 195.736C119.069 195.615 119.154 195.493 119.213 195.372C119.272 195.249 119.301 195.116 119.301 194.972C119.301 194.811 119.266 194.673 119.196 194.56C119.126 194.444 119.029 194.355 118.906 194.293C118.783 194.23 118.642 194.199 118.483 194.199C118.322 194.199 118.181 194.232 118.06 194.298C117.938 194.363 117.844 194.456 117.776 194.58C117.709 194.703 117.676 194.852 117.676 195.028H116.344C116.344 194.633 116.433 194.291 116.611 194.003C116.789 193.715 117.039 193.493 117.361 193.338C117.685 193.181 118.061 193.102 118.489 193.102C118.93 193.102 119.313 193.176 119.639 193.324C119.965 193.472 120.217 193.678 120.395 193.943C120.575 194.206 120.665 194.512 120.665 194.861C120.665 195.082 120.62 195.302 120.531 195.52C120.442 195.738 120.282 195.978 120.051 196.241C119.822 196.505 119.496 196.82 119.074 197.188L118.378 197.83V197.866H120.736V199H116.429ZM123.937 199.142C123.429 199.142 122.992 199.022 122.624 198.781C122.257 198.539 121.974 198.191 121.775 197.739C121.576 197.284 121.478 196.738 121.479 196.099C121.481 195.461 121.581 194.92 121.778 194.474C121.977 194.027 122.259 193.687 122.624 193.455C122.992 193.22 123.429 193.102 123.937 193.102C124.444 193.102 124.882 193.22 125.249 193.455C125.619 193.687 125.903 194.027 126.102 194.474C126.3 194.921 126.399 195.463 126.397 196.099C126.397 196.74 126.298 197.287 126.099 197.741C125.9 198.196 125.617 198.544 125.249 198.784C124.884 199.023 124.446 199.142 123.937 199.142ZM123.937 197.991C124.24 197.991 124.485 197.837 124.673 197.528C124.86 197.218 124.953 196.741 124.951 196.099C124.951 195.679 124.908 195.332 124.823 195.06C124.738 194.785 124.62 194.58 124.468 194.446C124.317 194.312 124.139 194.244 123.937 194.244C123.636 194.244 123.392 194.397 123.207 194.702C123.021 195.005 122.927 195.471 122.925 196.099C122.924 196.526 122.964 196.879 123.048 197.159C123.133 197.439 123.252 197.649 123.406 197.787C123.559 197.923 123.736 197.991 123.937 197.991ZM129.609 199.142C129.101 199.142 128.664 199.022 128.296 198.781C127.929 198.539 127.646 198.191 127.447 197.739C127.248 197.284 127.149 196.738 127.151 196.099C127.153 195.461 127.253 194.92 127.45 194.474C127.648 194.027 127.931 193.687 128.296 193.455C128.664 193.22 129.101 193.102 129.609 193.102C130.116 193.102 130.554 193.22 130.921 193.455C131.29 193.687 131.575 194.027 131.773 194.474C131.972 194.921 132.071 195.463 132.069 196.099C132.069 196.74 131.969 197.287 131.771 197.741C131.572 198.196 131.289 198.544 130.921 198.784C130.556 199.023 130.118 199.142 129.609 199.142ZM129.609 197.991C129.912 197.991 130.157 197.837 130.344 197.528C130.532 197.218 130.625 196.741 130.623 196.099C130.623 195.679 130.58 195.332 130.495 195.06C130.41 194.785 130.291 194.58 130.14 194.446C129.988 194.312 129.811 194.244 129.609 194.244C129.308 194.244 129.064 194.397 128.879 194.702C128.693 195.005 128.599 195.471 128.597 196.099C128.595 196.526 128.636 196.879 128.719 197.159C128.805 197.439 128.924 197.649 129.077 197.787C129.231 197.923 129.408 197.991 129.609 197.991ZM135.281 199.142C134.773 199.142 134.335 199.022 133.968 198.781C133.601 198.539 133.317 198.191 133.119 197.739C132.92 197.284 132.821 196.738 132.823 196.099C132.825 195.461 132.924 194.92 133.121 194.474C133.32 194.027 133.603 193.687 133.968 193.455C134.335 193.22 134.773 193.102 135.281 193.102C135.788 193.102 136.226 193.22 136.593 193.455C136.962 193.687 137.246 194.027 137.445 194.474C137.644 194.921 137.743 195.463 137.741 196.099C137.741 196.74 137.641 197.287 137.442 197.741C137.244 198.196 136.96 198.544 136.593 198.784C136.228 199.023 135.79 199.142 135.281 199.142ZM135.281 197.991C135.584 197.991 135.829 197.837 136.016 197.528C136.204 197.218 136.297 196.741 136.295 196.099C136.295 195.679 136.252 195.332 136.167 195.06C136.082 194.785 135.963 194.58 135.812 194.446C135.66 194.312 135.483 194.244 135.281 194.244C134.979 194.244 134.736 194.397 134.55 194.702C134.365 195.005 134.271 195.471 134.269 196.099C134.267 196.526 134.308 196.879 134.391 197.159C134.477 197.439 134.596 197.649 134.749 197.787C134.903 197.923 135.08 197.991 135.281 197.991ZM139.089 199.082C138.884 199.082 138.709 199.01 138.563 198.866C138.419 198.723 138.348 198.548 138.35 198.344C138.348 198.143 138.419 197.972 138.563 197.83C138.709 197.686 138.884 197.614 139.089 197.614C139.282 197.614 139.452 197.686 139.6 197.83C139.75 197.972 139.826 198.143 139.827 198.344C139.826 198.48 139.79 198.604 139.719 198.716C139.651 198.828 139.561 198.917 139.45 198.983C139.34 199.049 139.219 199.082 139.089 199.082ZM142.89 199.142C142.382 199.142 141.945 199.022 141.577 198.781C141.21 198.539 140.927 198.191 140.728 197.739C140.529 197.284 140.431 196.738 140.433 196.099C140.434 195.461 140.534 194.92 140.731 194.474C140.93 194.027 141.212 193.687 141.577 193.455C141.945 193.22 142.382 193.102 142.89 193.102C143.397 193.102 143.835 193.22 144.202 193.455C144.572 193.687 144.856 194.027 145.055 194.474C145.254 194.921 145.352 195.463 145.35 196.099C145.35 196.74 145.251 197.287 145.052 197.741C144.853 198.196 144.57 198.544 144.202 198.784C143.837 199.023 143.399 199.142 142.89 199.142ZM142.89 197.991C143.193 197.991 143.438 197.837 143.626 197.528C143.813 197.218 143.906 196.741 143.904 196.099C143.904 195.679 143.862 195.332 143.776 195.06C143.691 194.785 143.573 194.58 143.421 194.446C143.27 194.312 143.093 194.244 142.89 194.244C142.589 194.244 142.345 194.397 142.16 194.702C141.974 195.005 141.88 195.471 141.879 196.099C141.877 196.526 141.917 196.879 142.001 197.159C142.086 197.439 142.205 197.649 142.359 197.787C142.512 197.923 142.689 197.991 142.89 197.991ZM148.562 199.142C148.054 199.142 147.617 199.022 147.249 198.781C146.882 198.539 146.599 198.191 146.4 197.739C146.201 197.284 146.103 196.738 146.104 196.099C146.106 195.461 146.206 194.92 146.403 194.474C146.602 194.027 146.884 193.687 147.249 193.455C147.617 193.22 148.054 193.102 148.562 193.102C149.069 193.102 149.507 193.22 149.874 193.455C150.244 193.687 150.528 194.027 150.727 194.474C150.925 194.921 151.024 195.463 151.022 196.099C151.022 196.74 150.923 197.287 150.724 197.741C150.525 198.196 150.242 198.544 149.874 198.784C149.509 199.023 149.071 199.142 148.562 199.142ZM148.562 197.991C148.865 197.991 149.11 197.837 149.298 197.528C149.485 197.218 149.578 196.741 149.576 196.099C149.576 195.679 149.533 195.332 149.448 195.06C149.363 194.785 149.245 194.58 149.093 194.446C148.942 194.312 148.764 194.244 148.562 194.244C148.261 194.244 148.017 194.397 147.832 194.702C147.646 195.005 147.552 195.471 147.55 196.099C147.549 196.526 147.589 196.879 147.673 197.159C147.758 197.439 147.877 197.649 148.031 197.787C148.184 197.923 148.361 197.991 148.562 197.991ZM153.558 199V193.182H157.614V194.324H154.964V195.517H157.407V196.662H154.964V197.858H157.614V199H153.558ZM162.015 193.182H163.418V196.935C163.418 197.368 163.315 197.746 163.109 198.068C162.902 198.388 162.614 198.636 162.245 198.812C161.876 198.987 161.447 199.074 160.958 199.074C160.464 199.074 160.032 198.987 159.663 198.812C159.293 198.636 159.006 198.388 158.802 198.068C158.597 197.746 158.495 197.368 158.495 196.935V193.182H159.901V196.812C159.901 197.013 159.945 197.192 160.032 197.349C160.121 197.507 160.245 197.63 160.404 197.719C160.563 197.808 160.748 197.852 160.958 197.852C161.168 197.852 161.352 197.808 161.509 197.719C161.668 197.63 161.792 197.507 161.881 197.349C161.97 197.192 162.015 197.013 162.015 196.812V193.182ZM164.3 199V193.182H166.703C167.139 193.182 167.515 193.26 167.831 193.418C168.149 193.573 168.394 193.796 168.567 194.088C168.739 194.378 168.825 194.722 168.825 195.119C168.825 195.523 168.737 195.866 168.561 196.148C168.385 196.428 168.135 196.642 167.811 196.79C167.487 196.936 167.104 197.009 166.661 197.009H165.141V195.901H166.399C166.611 195.901 166.788 195.873 166.93 195.818C167.074 195.761 167.183 195.676 167.257 195.562C167.331 195.447 167.368 195.299 167.368 195.119C167.368 194.939 167.331 194.791 167.257 194.673C167.183 194.554 167.074 194.465 166.93 194.406C166.786 194.346 166.609 194.315 166.399 194.315H165.706V199H164.3ZM167.575 196.341L169.024 199H167.49L166.07 196.341H167.575ZM174.878 195.29H173.457C173.438 195.144 173.4 195.012 173.341 194.895C173.282 194.777 173.205 194.677 173.108 194.594C173.011 194.51 172.897 194.447 172.764 194.403C172.634 194.358 172.489 194.335 172.33 194.335C172.047 194.335 171.804 194.404 171.599 194.543C171.397 194.681 171.241 194.881 171.131 195.142C171.023 195.403 170.969 195.72 170.969 196.091C170.969 196.477 171.024 196.801 171.134 197.062C171.245 197.322 171.402 197.518 171.602 197.651C171.805 197.781 172.045 197.847 172.321 197.847C172.476 197.847 172.617 197.827 172.744 197.787C172.873 197.747 172.986 197.689 173.082 197.614C173.181 197.536 173.261 197.442 173.324 197.332C173.388 197.221 173.433 197.095 173.457 196.955L174.878 196.963C174.853 197.221 174.778 197.474 174.653 197.724C174.53 197.974 174.361 198.203 174.145 198.409C173.929 198.614 173.666 198.777 173.355 198.898C173.046 199.019 172.692 199.08 172.293 199.08C171.766 199.08 171.295 198.964 170.878 198.733C170.463 198.5 170.135 198.161 169.895 197.716C169.654 197.271 169.534 196.729 169.534 196.091C169.534 195.451 169.656 194.908 169.901 194.463C170.145 194.018 170.475 193.68 170.892 193.449C171.309 193.218 171.776 193.102 172.293 193.102C172.645 193.102 172.971 193.152 173.27 193.25C173.569 193.347 173.832 193.489 174.06 193.676C174.287 193.862 174.472 194.09 174.614 194.361C174.756 194.632 174.844 194.941 174.878 195.29Z" fill="#585B68"/>
<path d="M72.5909 199H70.4403V193.182H72.5881C73.1809 193.182 73.6913 193.298 74.1193 193.531C74.5492 193.762 74.8807 194.096 75.1136 194.531C75.3466 194.965 75.4631 195.484 75.4631 196.088C75.4631 196.694 75.3466 197.215 75.1136 197.651C74.8826 198.086 74.5521 198.42 74.1222 198.653C73.6922 198.884 73.1818 199 72.5909 199ZM71.8466 197.801H72.5369C72.8627 197.801 73.1383 197.746 73.3636 197.636C73.5909 197.525 73.7623 197.344 73.8778 197.094C73.9953 196.842 74.054 196.507 74.054 196.088C74.054 195.67 73.9953 195.336 73.8778 195.088C73.7604 194.838 73.5871 194.658 73.358 194.548C73.1307 194.437 72.8504 194.381 72.517 194.381H71.8466V197.801ZM78.3239 199.082C77.8674 199.082 77.4735 198.992 77.142 198.812C76.8125 198.631 76.5587 198.372 76.3807 198.037C76.2045 197.7 76.1165 197.299 76.1165 196.835C76.1165 196.384 76.2055 195.991 76.3835 195.653C76.5616 195.314 76.8125 195.051 77.1364 194.864C77.4602 194.674 77.8419 194.58 78.2812 194.58C78.5919 194.58 78.8759 194.628 79.1335 194.724C79.3911 194.821 79.6136 194.964 79.8011 195.153C79.9886 195.343 80.1345 195.577 80.2386 195.855C80.3428 196.132 80.3949 196.449 80.3949 196.807V197.153H76.6023V196.347H79.1023C79.1004 196.199 79.0653 196.067 78.9972 195.952C78.929 195.836 78.8352 195.746 78.7159 195.682C78.5985 195.616 78.4631 195.582 78.3097 195.582C78.1544 195.582 78.0152 195.617 77.892 195.688C77.7689 195.756 77.6714 195.849 77.5994 195.969C77.5275 196.086 77.4896 196.22 77.4858 196.369V197.19C77.4858 197.368 77.5208 197.525 77.5909 197.659C77.661 197.792 77.7604 197.895 77.8892 197.969C78.018 198.043 78.1714 198.08 78.3494 198.08C78.4725 198.08 78.5843 198.062 78.6847 198.028C78.785 197.994 78.8712 197.944 78.9432 197.878C79.0152 197.812 79.0691 197.73 79.1051 197.634L80.3807 197.67C80.3277 197.956 80.2112 198.205 80.0312 198.418C79.8532 198.628 79.6193 198.792 79.3295 198.909C79.0398 199.025 78.7045 199.082 78.3239 199.082ZM81.1044 200.636V194.636H82.4794V195.384H82.522C82.5788 195.251 82.6593 195.123 82.7635 195C82.8696 194.877 83.004 194.777 83.1669 194.699C83.3317 194.619 83.5286 194.58 83.7578 194.58C84.0608 194.58 84.344 194.659 84.6072 194.818C84.8724 194.977 85.0864 195.223 85.2493 195.554C85.4122 195.885 85.4936 196.308 85.4936 196.821C85.4936 197.315 85.415 197.729 85.2578 198.062C85.1025 198.396 84.8923 198.646 84.6271 198.812C84.3639 198.979 84.0713 199.062 83.7493 199.062C83.5296 199.062 83.3393 199.027 83.1783 198.955C83.0173 198.883 82.8819 198.788 82.772 198.67C82.6641 198.553 82.5807 198.427 82.522 198.293H82.4936V200.636H81.1044ZM82.4652 196.818C82.4652 197.053 82.4964 197.258 82.5589 197.432C82.6233 197.606 82.7152 197.741 82.8345 197.838C82.9557 197.933 83.1006 197.98 83.2692 197.98C83.4396 197.98 83.5845 197.933 83.7038 197.838C83.8232 197.741 83.9131 197.606 83.9737 197.432C84.0362 197.258 84.0675 197.053 84.0675 196.818C84.0675 196.583 84.0362 196.38 83.9737 196.207C83.9131 196.035 83.8232 195.902 83.7038 195.807C83.5864 195.712 83.4415 195.665 83.2692 195.665C83.0987 195.665 82.9538 195.711 82.8345 195.804C82.7152 195.897 82.6233 196.029 82.5589 196.202C82.4964 196.374 82.4652 196.58 82.4652 196.818ZM88.2585 199.082C87.8002 199.082 87.4063 198.989 87.0767 198.801C86.7491 198.612 86.4962 198.348 86.3182 198.011C86.142 197.672 86.054 197.279 86.054 196.832C86.054 196.384 86.142 195.991 86.3182 195.653C86.4962 195.314 86.7491 195.051 87.0767 194.864C87.4063 194.674 87.8002 194.58 88.2585 194.58C88.7169 194.58 89.1098 194.674 89.4375 194.864C89.767 195.051 90.0199 195.314 90.196 195.653C90.3741 195.991 90.4631 196.384 90.4631 196.832C90.4631 197.279 90.3741 197.672 90.196 198.011C90.0199 198.348 89.767 198.612 89.4375 198.801C89.1098 198.989 88.7169 199.082 88.2585 199.082ZM88.267 198.034C88.4337 198.034 88.5748 197.983 88.6903 197.881C88.8059 197.778 88.8939 197.636 88.9545 197.455C89.017 197.273 89.0483 197.062 89.0483 196.824C89.0483 196.581 89.017 196.369 88.9545 196.188C88.8939 196.006 88.8059 195.864 88.6903 195.761C88.5748 195.659 88.4337 195.608 88.267 195.608C88.0947 195.608 87.9489 195.659 87.8295 195.761C87.7121 195.864 87.6222 196.006 87.5597 196.188C87.4991 196.369 87.4688 196.581 87.4688 196.824C87.4688 197.062 87.4991 197.273 87.5597 197.455C87.6222 197.636 87.7121 197.778 87.8295 197.881C87.9489 197.983 88.0947 198.034 88.267 198.034ZM94.9844 195.969L93.7088 196.003C93.6955 195.912 93.6596 195.831 93.6009 195.761C93.5421 195.689 93.4654 195.634 93.3707 195.594C93.2779 195.552 93.17 195.531 93.0469 195.531C92.8859 195.531 92.7486 195.563 92.6349 195.628C92.5232 195.692 92.4683 195.779 92.4702 195.889C92.4683 195.974 92.5024 196.048 92.5724 196.111C92.6444 196.173 92.7723 196.223 92.956 196.261L93.7969 196.42C94.2325 196.504 94.5563 196.642 94.7685 196.835C94.9825 197.028 95.0904 197.284 95.0923 197.602C95.0904 197.902 95.0014 198.162 94.8253 198.384C94.651 198.605 94.4124 198.777 94.1094 198.901C93.8063 199.022 93.4598 199.082 93.0696 199.082C92.4465 199.082 91.955 198.955 91.5952 198.699C91.2372 198.441 91.0327 198.097 90.9815 197.665L92.3537 197.631C92.384 197.79 92.4626 197.911 92.5895 197.994C92.7164 198.078 92.8783 198.119 93.0753 198.119C93.2533 198.119 93.3982 198.086 93.5099 198.02C93.6217 197.954 93.6785 197.866 93.6804 197.756C93.6785 197.657 93.6349 197.579 93.5497 197.52C93.4645 197.459 93.331 197.412 93.1491 197.378L92.3878 197.233C91.9503 197.153 91.6245 197.007 91.4105 196.793C91.1965 196.577 91.0904 196.302 91.0923 195.969C91.0904 195.677 91.1681 195.428 91.3253 195.222C91.4825 195.013 91.706 194.854 91.9957 194.744C92.2855 194.634 92.6274 194.58 93.0213 194.58C93.6122 194.58 94.0781 194.704 94.419 194.952C94.7599 195.198 94.9484 195.537 94.9844 195.969ZM95.7763 199V194.636H97.1655V199H95.7763ZM96.4723 194.128C96.2772 194.128 96.1096 194.063 95.9695 193.935C95.8293 193.804 95.7592 193.647 95.7592 193.463C95.7592 193.281 95.8293 193.126 95.9695 192.997C96.1096 192.866 96.2772 192.801 96.4723 192.801C96.6693 192.801 96.8369 192.866 96.9751 192.997C97.1153 193.126 97.1854 193.281 97.1854 193.463C97.1854 193.647 97.1153 193.804 96.9751 193.935C96.8369 194.063 96.6693 194.128 96.4723 194.128ZM100.513 194.636V195.659H97.7599V194.636H100.513ZM98.3366 193.591H99.7259V197.628C99.7259 197.713 99.7391 197.782 99.7656 197.835C99.794 197.886 99.8348 197.923 99.8878 197.946C99.9408 197.967 100.004 197.977 100.078 197.977C100.131 197.977 100.187 197.973 100.246 197.963C100.306 197.952 100.352 197.942 100.382 197.935L100.592 198.938C100.526 198.956 100.432 198.98 100.311 199.009C100.192 199.037 100.049 199.055 99.8821 199.062C99.5563 199.078 99.277 199.04 99.044 198.949C98.813 198.856 98.6359 198.712 98.5128 198.517C98.3916 198.322 98.3329 198.077 98.3366 197.781V193.591Z" fill="#585B68"/>
<path d="M34.6875 196.699V195.517L38.8011 193.79V195.082L36.0852 196.097L36.1278 196.034V196.185L36.0852 196.119L38.8011 197.136V198.426L34.6875 196.699ZM42.6115 193.182V199H41.2081V194.494H41.174L39.8729 195.29V194.074L41.3075 193.182H42.6115ZM43.9091 199V194.636H45.2301V195.438H45.2784C45.3693 195.172 45.5227 194.963 45.7386 194.81C45.9545 194.656 46.2121 194.58 46.5114 194.58C46.8144 194.58 47.0739 194.657 47.2898 194.812C47.5057 194.968 47.643 195.176 47.7017 195.438H47.7472C47.8286 195.178 47.9877 194.971 48.2244 194.815C48.4612 194.658 48.7405 194.58 49.0625 194.58C49.4754 194.58 49.8106 194.712 50.0682 194.977C50.3258 195.241 50.4545 195.602 50.4545 196.062V199H49.0653V196.381C49.0653 196.163 49.0095 195.997 48.8977 195.884C48.786 195.768 48.6411 195.71 48.4631 195.71C48.2718 195.71 48.1212 195.773 48.0114 195.898C47.9034 196.021 47.8494 196.187 47.8494 196.395V199H46.5142V196.366C46.5142 196.164 46.4593 196.004 46.3494 195.886C46.2396 195.769 46.0947 195.71 45.9148 195.71C45.7936 195.71 45.6866 195.74 45.5938 195.798C45.5009 195.855 45.428 195.937 45.375 196.043C45.3239 196.149 45.2983 196.274 45.2983 196.418V199H43.9091Z" fill="#585B68"/>
<defs>
<linearGradient id="paint0_linear_2846_1091" x1="150" y1="0" x2="150" y2="273" gradientUnits="userSpaceOnUse">
<stop offset="0.355769" stop-color="#929292"/>
<stop offset="0.7" stop-color="#585B68"/>
</linearGradient>
<linearGradient id="paint1_linear_2846_1091" x1="151" y1="82.3516" x2="151" y2="112.352" gradientUnits="userSpaceOnUse">
<stop stop-color="#ECECEC"/>
<stop offset="1" stop-color="#D1D0D0"/>
</linearGradient>
<linearGradient id="paint2_linear_2846_1091" x1="150" y1="170" x2="150" y2="221" gradientUnits="userSpaceOnUse">
<stop stop-color="#ECECEC"/>
<stop offset="1" stop-color="#D1D0D0"/>
</linearGradient>
<clipPath id="clip0_2846_1091">
<rect width="14" height="14" fill="white" transform="translate(229 129)"/>
</clipPath>
<clipPath id="clip1_2846_1091">
<rect width="14" height="14" fill="white" transform="translate(144 129)"/>
</clipPath>
<clipPath id="clip2_2846_1091">
<rect width="14" height="14" fill="white" transform="translate(59 129)"/>
</clipPath>
<clipPath id="clip3_2846_1091">
<rect width="6.65" height="5.85833" fill="white" transform="translate(62.3252 132.801)"/>
</clipPath>
</defs>
</svg>
