<svg width="300" height="302" viewBox="0 0 300 302" fill="none" xmlns="http://www.w3.org/2000/svg">
<rect width="300" height="302" rx="10" fill="url(#paint0_linear_2843_208)"/>
<rect x="153" y="237" width="122" height="30" rx="10" fill="#929292"/>
<path d="M197.624 255V249.182H199.03V253.858H201.451V255H197.624ZM202.179 255V250.636H203.568V255H202.179ZM202.875 250.128C202.68 250.128 202.512 250.063 202.372 249.935C202.232 249.804 202.162 249.647 202.162 249.463C202.162 249.281 202.232 249.126 202.372 248.997C202.512 248.866 202.68 248.801 202.875 248.801C203.072 248.801 203.239 248.866 203.377 248.997C203.518 249.126 203.588 249.281 203.588 249.463C203.588 249.647 203.518 249.804 203.377 249.935C203.239 250.063 203.072 250.128 202.875 250.128ZM207.301 256.636V254.293H207.273C207.214 254.427 207.131 254.553 207.023 254.67C206.915 254.788 206.78 254.883 206.617 254.955C206.456 255.027 206.266 255.062 206.046 255.062C205.724 255.062 205.431 254.979 205.168 254.812C204.905 254.646 204.694 254.396 204.537 254.062C204.38 253.729 204.301 253.315 204.301 252.821C204.301 252.308 204.383 251.885 204.546 251.554C204.709 251.223 204.922 250.977 205.185 250.818C205.45 250.659 205.735 250.58 206.04 250.58C206.269 250.58 206.465 250.619 206.628 250.699C206.791 250.777 206.926 250.877 207.032 251C207.138 251.123 207.218 251.251 207.273 251.384H207.316V250.636H208.691V256.636H207.301ZM206.529 253.98C206.697 253.98 206.841 253.933 206.961 253.838C207.08 253.741 207.172 253.606 207.236 253.432C207.301 253.258 207.333 253.053 207.333 252.818C207.333 252.58 207.301 252.374 207.236 252.202C207.174 252.029 207.082 251.897 206.961 251.804C206.841 251.711 206.697 251.665 206.529 251.665C206.356 251.665 206.211 251.712 206.091 251.807C205.972 251.902 205.881 252.035 205.819 252.207C205.758 252.38 205.728 252.583 205.728 252.818C205.728 253.053 205.759 253.258 205.821 253.432C205.884 253.606 205.974 253.741 206.091 253.838C206.211 253.933 206.356 253.98 206.529 253.98ZM212.385 253.116V250.636H213.771V255H212.447V254.188H212.402C212.305 254.455 212.14 254.667 211.907 254.824C211.676 254.979 211.397 255.057 211.069 255.057C210.772 255.057 210.511 254.989 210.285 254.852C210.06 254.716 209.885 254.526 209.76 254.281C209.635 254.035 209.571 253.747 209.569 253.418V250.636H210.958V253.145C210.96 253.382 211.023 253.568 211.146 253.705C211.269 253.841 211.437 253.909 211.649 253.909C211.787 253.909 211.911 253.879 212.021 253.818C212.133 253.756 212.221 253.666 212.285 253.548C212.351 253.429 212.385 253.285 212.385 253.116ZM214.655 255V250.636H216.044V255H214.655ZM215.351 250.128C215.156 250.128 214.989 250.063 214.848 249.935C214.708 249.804 214.638 249.647 214.638 249.463C214.638 249.281 214.708 249.126 214.848 248.997C214.989 248.866 215.156 248.801 215.351 248.801C215.548 248.801 215.716 248.866 215.854 248.997C215.994 249.126 216.064 249.281 216.064 249.463C216.064 249.647 215.994 249.804 215.854 249.935C215.716 250.063 215.548 250.128 215.351 250.128ZM218.522 255.062C218.2 255.062 217.908 254.979 217.645 254.812C217.381 254.646 217.171 254.396 217.014 254.062C216.857 253.729 216.778 253.315 216.778 252.821C216.778 252.308 216.859 251.885 217.022 251.554C217.185 251.223 217.398 250.977 217.662 250.818C217.927 250.659 218.212 250.58 218.517 250.58C218.746 250.58 218.942 250.619 219.105 250.699C219.268 250.777 219.402 250.877 219.508 251C219.614 251.123 219.695 251.251 219.75 251.384H219.778V249.182H221.167V255H219.792V254.293H219.75C219.691 254.427 219.608 254.553 219.5 254.67C219.392 254.788 219.256 254.883 219.093 254.955C218.932 255.027 218.742 255.062 218.522 255.062ZM219.005 253.98C219.174 253.98 219.318 253.933 219.437 253.838C219.556 253.741 219.648 253.606 219.713 253.432C219.777 253.258 219.809 253.053 219.809 252.818C219.809 252.58 219.777 252.374 219.713 252.202C219.65 252.029 219.558 251.897 219.437 251.804C219.318 251.711 219.174 251.665 219.005 251.665C218.833 251.665 218.687 251.712 218.568 251.807C218.449 251.902 218.358 252.035 218.295 252.207C218.234 252.38 218.204 252.583 218.204 252.818C218.204 253.053 218.235 253.258 218.298 253.432C218.36 253.606 218.45 253.741 218.568 253.838C218.687 253.933 218.833 253.98 219.005 253.98ZM222.046 255V250.636H223.435V255H222.046ZM222.742 250.128C222.547 250.128 222.379 250.063 222.239 249.935C222.099 249.804 222.029 249.647 222.029 249.463C222.029 249.281 222.099 249.126 222.239 248.997C222.379 248.866 222.547 248.801 222.742 248.801C222.939 248.801 223.106 248.866 223.245 248.997C223.385 249.126 223.455 249.281 223.455 249.463C223.455 249.647 223.385 249.804 223.245 249.935C223.106 250.063 222.939 250.128 222.742 250.128ZM226.782 250.636V251.659H224.029V250.636H226.782ZM224.606 249.591H225.995V253.628C225.995 253.713 226.009 253.782 226.035 253.835C226.064 253.886 226.104 253.923 226.157 253.946C226.21 253.967 226.274 253.977 226.348 253.977C226.401 253.977 226.457 253.973 226.515 253.963C226.576 253.952 226.621 253.942 226.652 253.935L226.862 254.938C226.796 254.956 226.702 254.98 226.581 255.009C226.461 255.037 226.318 255.055 226.152 255.062C225.826 255.078 225.547 255.04 225.314 254.949C225.083 254.856 224.905 254.712 224.782 254.517C224.661 254.322 224.602 254.077 224.606 253.781V249.591ZM228.341 256.636C228.174 256.636 228.017 256.623 227.869 256.597C227.721 256.572 227.594 256.539 227.488 256.497L227.795 255.489C227.931 255.534 228.055 255.561 228.164 255.568C228.276 255.576 228.372 255.558 228.451 255.514C228.533 255.473 228.595 255.398 228.639 255.29L228.693 255.159L227.142 250.636H228.596L229.4 253.75H229.446L230.261 250.636H231.724L230.079 255.418C230 255.656 229.887 255.866 229.741 256.048C229.597 256.232 229.411 256.376 229.181 256.48C228.954 256.584 228.674 256.636 228.341 256.636Z" fill="#FFFDF7"/>
<rect x="25" y="237" width="122" height="30" rx="10" fill="#929292"/>
<path d="M78.593 250.926C78.5741 250.718 78.4898 250.556 78.3402 250.44C78.1925 250.323 77.9813 250.264 77.7067 250.264C77.5249 250.264 77.3733 250.288 77.2521 250.335C77.1309 250.383 77.04 250.448 76.9794 250.531C76.9188 250.613 76.8875 250.706 76.8857 250.812C76.8819 250.9 76.8989 250.976 76.9368 251.043C76.9766 251.109 77.0334 251.168 77.1072 251.219C77.183 251.268 77.2739 251.312 77.38 251.349C77.486 251.387 77.6054 251.42 77.7379 251.449L78.2379 251.562C78.5258 251.625 78.7796 251.708 78.9993 251.812C79.2209 251.917 79.4065 252.041 79.5561 252.185C79.7076 252.329 79.8222 252.494 79.8999 252.682C79.9775 252.869 80.0173 253.08 80.0192 253.312C80.0173 253.68 79.9245 253.995 79.7408 254.259C79.5571 254.522 79.2929 254.723 78.9482 254.864C78.6054 255.004 78.1915 255.074 77.7067 255.074C77.2199 255.074 76.7957 255.001 76.4339 254.855C76.0722 254.709 75.791 254.488 75.5902 254.19C75.3894 253.893 75.2862 253.517 75.2805 253.062H76.6271C76.6385 253.25 76.6887 253.406 76.7777 253.531C76.8667 253.656 76.9889 253.751 77.1442 253.815C77.3014 253.88 77.4832 253.912 77.6896 253.912C77.879 253.912 78.04 253.886 78.1726 253.835C78.3071 253.784 78.4103 253.713 78.4822 253.622C78.5542 253.531 78.5911 253.427 78.593 253.31C78.5911 253.2 78.5571 253.106 78.4908 253.028C78.4245 252.949 78.3222 252.881 78.1839 252.824C78.0476 252.765 77.8733 252.711 77.6612 252.662L77.0533 252.52C76.5495 252.404 76.1527 252.218 75.8629 251.96C75.5732 251.701 75.4292 251.35 75.4311 250.909C75.4292 250.549 75.5258 250.234 75.7209 249.963C75.916 249.692 76.1858 249.481 76.5305 249.33C76.8752 249.178 77.2682 249.102 77.7095 249.102C78.1603 249.102 78.5514 249.179 78.8828 249.332C79.2161 249.484 79.4747 249.697 79.6584 249.972C79.8421 250.246 79.9358 250.564 79.9396 250.926H78.593ZM81.5447 255L80.4084 250.636H81.8033L82.3913 253.432H82.4283L83.0589 250.636H84.4197L85.0675 253.412H85.1044L85.6754 250.636H87.0703L85.9311 255H84.4453L83.7635 252.457H83.7152L83.0334 255H81.5447ZM88.858 255.074C88.5795 255.074 88.3324 255.027 88.1165 254.935C87.9025 254.84 87.733 254.698 87.608 254.509C87.4848 254.317 87.4233 254.078 87.4233 253.79C87.4233 253.547 87.4659 253.343 87.5511 253.176C87.6364 253.009 87.7538 252.874 87.9034 252.77C88.053 252.666 88.2254 252.587 88.4205 252.534C88.6155 252.479 88.8239 252.442 89.0455 252.423C89.2936 252.401 89.4934 252.377 89.6449 252.352C89.7964 252.326 89.9063 252.289 89.9744 252.241C90.0445 252.192 90.0795 252.123 90.0795 252.034V252.02C90.0795 251.874 90.0294 251.761 89.929 251.682C89.8286 251.602 89.6932 251.562 89.5227 251.562C89.339 251.562 89.1913 251.602 89.0795 251.682C88.9678 251.761 88.8968 251.871 88.8665 252.011L87.5852 251.966C87.6231 251.701 87.7206 251.464 87.8778 251.256C88.0369 251.045 88.2547 250.881 88.5312 250.761C88.8097 250.64 89.1439 250.58 89.5341 250.58C89.8125 250.58 90.0691 250.613 90.304 250.679C90.5388 250.743 90.7434 250.838 90.9176 250.963C91.0919 251.086 91.2263 251.238 91.321 251.418C91.4176 251.598 91.4659 251.803 91.4659 252.034V255H90.1591V254.392H90.125C90.0473 254.54 89.9479 254.665 89.8267 254.767C89.7074 254.869 89.5663 254.946 89.4034 254.997C89.2424 255.048 89.0606 255.074 88.858 255.074ZM89.2869 254.165C89.4366 254.165 89.571 254.134 89.6903 254.074C89.8116 254.013 89.9081 253.93 89.9801 253.824C90.0521 253.716 90.0881 253.591 90.0881 253.449V253.034C90.0483 253.055 90 253.074 89.9432 253.091C89.8883 253.108 89.8277 253.124 89.7614 253.139C89.6951 253.154 89.6269 253.168 89.5568 253.179C89.4867 253.19 89.4195 253.201 89.3551 253.21C89.2244 253.231 89.1127 253.263 89.0199 253.307C88.929 253.35 88.8589 253.407 88.8097 253.477C88.7623 253.545 88.7386 253.627 88.7386 253.722C88.7386 253.866 88.7898 253.975 88.892 254.051C88.9962 254.127 89.1278 254.165 89.2869 254.165ZM92.3153 256.636V250.636H93.6903V251.384H93.733C93.7898 251.251 93.8703 251.123 93.9744 251C94.0805 250.877 94.215 250.777 94.3778 250.699C94.5426 250.619 94.7396 250.58 94.9688 250.58C95.2718 250.58 95.5549 250.659 95.8182 250.818C96.0833 250.977 96.2973 251.223 96.4602 251.554C96.6231 251.885 96.7045 252.308 96.7045 252.821C96.7045 253.315 96.6259 253.729 96.4688 254.062C96.3134 254.396 96.1032 254.646 95.8381 254.812C95.5748 254.979 95.2822 255.062 94.9602 255.062C94.7405 255.062 94.5502 255.027 94.3892 254.955C94.2282 254.883 94.0928 254.788 93.983 254.67C93.875 254.553 93.7917 254.427 93.733 254.293H93.7045V256.636H92.3153ZM93.6761 252.818C93.6761 253.053 93.7074 253.258 93.7699 253.432C93.8343 253.606 93.9261 253.741 94.0455 253.838C94.1667 253.933 94.3116 253.98 94.4801 253.98C94.6506 253.98 94.7955 253.933 94.9148 253.838C95.0341 253.741 95.1241 253.606 95.1847 253.432C95.2472 253.258 95.2784 253.053 95.2784 252.818C95.2784 252.583 95.2472 252.38 95.1847 252.207C95.1241 252.035 95.0341 251.902 94.9148 251.807C94.7973 251.712 94.6525 251.665 94.4801 251.665C94.3097 251.665 94.1648 251.711 94.0455 251.804C93.9261 251.897 93.8343 252.029 93.7699 252.202C93.7074 252.374 93.6761 252.58 93.6761 252.818Z" fill="#FFFDF7"/>
<rect x="153" y="200" width="122" height="30" rx="10" fill="#929292"/>
<path d="M195.312 218L193.619 212.182H195.173L196.05 215.994H196.099L197.102 212.182H198.369L199.371 216.003H199.42L200.3 212.182H201.852L200.161 218H198.806L197.758 214.472H197.712L196.664 218H195.312ZM202.433 218V213.636H203.822V218H202.433ZM203.129 213.128C202.933 213.128 202.766 213.063 202.626 212.935C202.486 212.804 202.415 212.647 202.415 212.463C202.415 212.281 202.486 212.126 202.626 211.997C202.766 211.866 202.933 211.801 203.129 211.801C203.326 211.801 203.493 211.866 203.631 211.997C203.772 212.126 203.842 212.281 203.842 212.463C203.842 212.647 203.772 212.804 203.631 212.935C203.493 213.063 203.326 213.128 203.129 213.128ZM207.169 213.636V214.659H204.416V213.636H207.169ZM204.993 212.591H206.382V216.628C206.382 216.713 206.395 216.782 206.422 216.835C206.45 216.886 206.491 216.923 206.544 216.946C206.597 216.967 206.661 216.977 206.734 216.977C206.787 216.977 206.843 216.973 206.902 216.963C206.963 216.952 207.008 216.942 207.038 216.935L207.249 217.938C207.182 217.956 207.089 217.98 206.967 218.009C206.848 218.037 206.705 218.055 206.538 218.062C206.213 218.078 205.933 218.04 205.7 217.949C205.469 217.856 205.292 217.712 205.169 217.517C205.048 217.322 204.989 217.077 204.993 216.781V212.591ZM209.361 215.511V218H207.972V212.182H209.315V214.438H209.364C209.462 214.169 209.623 213.958 209.847 213.807C210.072 213.655 210.348 213.58 210.673 213.58C210.98 213.58 211.247 213.648 211.474 213.784C211.702 213.919 211.878 214.109 212.003 214.355C212.13 214.601 212.192 214.889 212.19 215.219V218H210.801V215.491C210.803 215.249 210.742 215.06 210.619 214.923C210.496 214.787 210.323 214.719 210.099 214.719C209.954 214.719 209.825 214.751 209.713 214.815C209.603 214.878 209.517 214.968 209.455 215.085C209.394 215.203 209.363 215.345 209.361 215.511ZM214.651 218.062C214.329 218.062 214.037 217.979 213.773 217.812C213.51 217.646 213.3 217.396 213.143 217.062C212.986 216.729 212.907 216.315 212.907 215.821C212.907 215.308 212.988 214.885 213.151 214.554C213.314 214.223 213.527 213.977 213.79 213.818C214.056 213.659 214.341 213.58 214.646 213.58C214.875 213.58 215.071 213.619 215.234 213.699C215.397 213.777 215.531 213.877 215.637 214C215.743 214.123 215.824 214.251 215.879 214.384H215.907V212.182H217.296V218H215.921V217.293H215.879C215.82 217.427 215.737 217.553 215.629 217.67C215.521 217.788 215.385 217.883 215.222 217.955C215.061 218.027 214.871 218.062 214.651 218.062ZM215.134 216.98C215.303 216.98 215.447 216.933 215.566 216.838C215.685 216.741 215.777 216.606 215.842 216.432C215.906 216.258 215.938 216.053 215.938 215.818C215.938 215.58 215.906 215.374 215.842 215.202C215.779 215.029 215.687 214.897 215.566 214.804C215.447 214.711 215.303 214.665 215.134 214.665C214.962 214.665 214.816 214.712 214.697 214.807C214.577 214.902 214.487 215.035 214.424 215.207C214.363 215.38 214.333 215.583 214.333 215.818C214.333 216.053 214.364 216.258 214.427 216.432C214.489 216.606 214.579 216.741 214.697 216.838C214.816 216.933 214.962 216.98 215.134 216.98ZM218.175 218V213.636H219.524V214.432H219.57C219.649 214.144 219.779 213.93 219.959 213.79C220.139 213.648 220.348 213.577 220.587 213.577C220.651 213.577 220.717 213.581 220.786 213.591C220.854 213.598 220.917 213.611 220.976 213.628V214.835C220.91 214.812 220.822 214.795 220.714 214.781C220.608 214.768 220.514 214.761 220.43 214.761C220.266 214.761 220.117 214.798 219.984 214.872C219.854 214.944 219.75 215.045 219.675 215.176C219.601 215.305 219.564 215.456 219.564 215.631V218H218.175ZM222.608 218.074C222.33 218.074 222.082 218.027 221.866 217.935C221.652 217.84 221.483 217.698 221.358 217.509C221.235 217.317 221.173 217.078 221.173 216.79C221.173 216.547 221.216 216.343 221.301 216.176C221.386 216.009 221.504 215.874 221.653 215.77C221.803 215.666 221.975 215.587 222.17 215.534C222.366 215.479 222.574 215.442 222.795 215.423C223.044 215.401 223.243 215.377 223.395 215.352C223.546 215.326 223.656 215.289 223.724 215.241C223.795 215.192 223.83 215.123 223.83 215.034V215.02C223.83 214.874 223.779 214.761 223.679 214.682C223.579 214.602 223.443 214.562 223.273 214.562C223.089 214.562 222.941 214.602 222.83 214.682C222.718 214.761 222.647 214.871 222.616 215.011L221.335 214.966C221.373 214.701 221.471 214.464 221.628 214.256C221.787 214.045 222.005 213.881 222.281 213.761C222.56 213.64 222.894 213.58 223.284 213.58C223.563 213.58 223.819 213.613 224.054 213.679C224.289 213.743 224.493 213.838 224.668 213.963C224.842 214.086 224.976 214.238 225.071 214.418C225.168 214.598 225.216 214.803 225.216 215.034V218H223.909V217.392H223.875C223.797 217.54 223.698 217.665 223.577 217.767C223.457 217.869 223.316 217.946 223.153 217.997C222.992 218.048 222.811 218.074 222.608 218.074ZM223.037 217.165C223.187 217.165 223.321 217.134 223.44 217.074C223.562 217.013 223.658 216.93 223.73 216.824C223.802 216.716 223.838 216.591 223.838 216.449V216.034C223.798 216.055 223.75 216.074 223.693 216.091C223.638 216.108 223.578 216.124 223.511 216.139C223.445 216.154 223.377 216.168 223.307 216.179C223.237 216.19 223.17 216.201 223.105 216.21C222.974 216.231 222.863 216.263 222.77 216.307C222.679 216.35 222.609 216.407 222.56 216.477C222.512 216.545 222.489 216.627 222.489 216.722C222.489 216.866 222.54 216.975 222.642 217.051C222.746 217.127 222.878 217.165 223.037 217.165ZM226.881 218L225.744 213.636H227.139L227.727 216.432H227.764L228.395 213.636H229.756L230.403 216.412H230.44L231.011 213.636H232.406L231.267 218H229.781L229.099 215.457H229.051L228.369 218H226.881Z" fill="#FFFDF7"/>
<rect x="26" y="200" width="122" height="30" rx="10" fill="#929292"/>
<path d="M73.7003 218H71.5497V212.182H73.6974C74.2902 212.182 74.8007 212.298 75.2287 212.531C75.6586 212.762 75.9901 213.096 76.223 213.531C76.456 213.965 76.5724 214.484 76.5724 215.088C76.5724 215.694 76.456 216.215 76.223 216.651C75.992 217.086 75.6615 217.42 75.2315 217.653C74.8016 217.884 74.2912 218 73.7003 218ZM72.956 216.801H73.6463C73.9721 216.801 74.2476 216.746 74.473 216.636C74.7003 216.525 74.8717 216.344 74.9872 216.094C75.1046 215.842 75.1634 215.507 75.1634 215.088C75.1634 214.67 75.1046 214.336 74.9872 214.088C74.8698 213.838 74.6965 213.658 74.4673 213.548C74.2401 213.437 73.9598 213.381 73.6264 213.381H72.956V216.801ZM79.4332 218.082C78.9768 218.082 78.5829 217.992 78.2514 217.812C77.9219 217.631 77.6681 217.372 77.4901 217.037C77.3139 216.7 77.2259 216.299 77.2259 215.835C77.2259 215.384 77.3149 214.991 77.4929 214.653C77.6709 214.314 77.9219 214.051 78.2457 213.864C78.5696 213.674 78.9512 213.58 79.3906 213.58C79.7012 213.58 79.9853 213.628 80.2429 213.724C80.5005 213.821 80.723 213.964 80.9105 214.153C81.098 214.343 81.2438 214.577 81.348 214.855C81.4522 215.132 81.5043 215.449 81.5043 215.807V216.153H77.7116V215.347H80.2116C80.2098 215.199 80.1747 215.067 80.1065 214.952C80.0384 214.836 79.9446 214.746 79.8253 214.682C79.7079 214.616 79.5724 214.582 79.419 214.582C79.2637 214.582 79.1245 214.617 79.0014 214.688C78.8783 214.756 78.7808 214.849 78.7088 214.969C78.6368 215.086 78.599 215.22 78.5952 215.369V216.19C78.5952 216.368 78.6302 216.525 78.7003 216.659C78.7704 216.792 78.8698 216.895 78.9986 216.969C79.1274 217.043 79.2808 217.08 79.4588 217.08C79.5819 217.08 79.6937 217.062 79.794 217.028C79.8944 216.994 79.9806 216.944 80.0526 216.878C80.1245 216.812 80.1785 216.73 80.2145 216.634L81.4901 216.67C81.437 216.956 81.3205 217.205 81.1406 217.418C80.9626 217.628 80.7287 217.792 80.4389 217.909C80.1491 218.025 79.8139 218.082 79.4332 218.082ZM82.2138 219.636V213.636H83.5888V214.384H83.6314C83.6882 214.251 83.7687 214.123 83.8729 214C83.9789 213.877 84.1134 213.777 84.2763 213.699C84.4411 213.619 84.638 213.58 84.8672 213.58C85.1702 213.58 85.4534 213.659 85.7166 213.818C85.9818 213.977 86.1958 214.223 86.3587 214.554C86.5215 214.885 86.603 215.308 86.603 215.821C86.603 216.315 86.5244 216.729 86.3672 217.062C86.2119 217.396 86.0017 217.646 85.7365 217.812C85.4732 217.979 85.1806 218.062 84.8587 218.062C84.639 218.062 84.4486 218.027 84.2876 217.955C84.1267 217.883 83.9912 217.788 83.8814 217.67C83.7734 217.553 83.6901 217.427 83.6314 217.293H83.603V219.636H82.2138ZM83.5746 215.818C83.5746 216.053 83.6058 216.258 83.6683 216.432C83.7327 216.606 83.8246 216.741 83.9439 216.838C84.0651 216.933 84.21 216.98 84.3786 216.98C84.549 216.98 84.6939 216.933 84.8132 216.838C84.9325 216.741 85.0225 216.606 85.0831 216.432C85.1456 216.258 85.1768 216.053 85.1768 215.818C85.1768 215.583 85.1456 215.38 85.0831 215.207C85.0225 215.035 84.9325 214.902 84.8132 214.807C84.6958 214.712 84.5509 214.665 84.3786 214.665C84.2081 214.665 84.0632 214.711 83.9439 214.804C83.8246 214.897 83.7327 215.029 83.6683 215.202C83.6058 215.374 83.5746 215.58 83.5746 215.818ZM89.3679 218.082C88.9096 218.082 88.5156 217.989 88.1861 217.801C87.8584 217.612 87.6056 217.348 87.4276 217.011C87.2514 216.672 87.1634 216.279 87.1634 215.832C87.1634 215.384 87.2514 214.991 87.4276 214.653C87.6056 214.314 87.8584 214.051 88.1861 213.864C88.5156 213.674 88.9096 213.58 89.3679 213.58C89.8262 213.58 90.2192 213.674 90.5469 213.864C90.8764 214.051 91.1293 214.314 91.3054 214.653C91.4834 214.991 91.5724 215.384 91.5724 215.832C91.5724 216.279 91.4834 216.672 91.3054 217.011C91.1293 217.348 90.8764 217.612 90.5469 217.801C90.2192 217.989 89.8262 218.082 89.3679 218.082ZM89.3764 217.034C89.5431 217.034 89.6842 216.983 89.7997 216.881C89.9152 216.778 90.0033 216.636 90.0639 216.455C90.1264 216.273 90.1577 216.062 90.1577 215.824C90.1577 215.581 90.1264 215.369 90.0639 215.188C90.0033 215.006 89.9152 214.864 89.7997 214.761C89.6842 214.659 89.5431 214.608 89.3764 214.608C89.2041 214.608 89.0582 214.659 88.9389 214.761C88.8215 214.864 88.7315 215.006 88.669 215.188C88.6084 215.369 88.5781 215.581 88.5781 215.824C88.5781 216.062 88.6084 216.273 88.669 216.455C88.7315 216.636 88.8215 216.778 88.9389 216.881C89.0582 216.983 89.2041 217.034 89.3764 217.034ZM96.0938 214.969L94.8182 215.003C94.8049 214.912 94.7689 214.831 94.7102 214.761C94.6515 214.689 94.5748 214.634 94.4801 214.594C94.3873 214.552 94.2794 214.531 94.1562 214.531C93.9953 214.531 93.858 214.563 93.7443 214.628C93.6326 214.692 93.5777 214.779 93.5795 214.889C93.5777 214.974 93.6117 215.048 93.6818 215.111C93.7538 215.173 93.8816 215.223 94.0653 215.261L94.9062 215.42C95.3419 215.504 95.6657 215.642 95.8778 215.835C96.0919 216.028 96.1998 216.284 96.2017 216.602C96.1998 216.902 96.1108 217.162 95.9347 217.384C95.7604 217.605 95.5218 217.777 95.2188 217.901C94.9157 218.022 94.5691 218.082 94.179 218.082C93.5559 218.082 93.0644 217.955 92.7045 217.699C92.3466 217.441 92.142 217.097 92.0909 216.665L93.4631 216.631C93.4934 216.79 93.572 216.911 93.6989 216.994C93.8258 217.078 93.9877 217.119 94.1847 217.119C94.3627 217.119 94.5076 217.086 94.6193 217.02C94.7311 216.954 94.7879 216.866 94.7898 216.756C94.7879 216.657 94.7443 216.579 94.6591 216.52C94.5739 216.459 94.4403 216.412 94.2585 216.378L93.4972 216.233C93.0597 216.153 92.7339 216.007 92.5199 215.793C92.3059 215.577 92.1998 215.302 92.2017 214.969C92.1998 214.677 92.2775 214.428 92.4347 214.222C92.5919 214.013 92.8153 213.854 93.1051 213.744C93.3949 213.634 93.7367 213.58 94.1307 213.58C94.7216 213.58 95.1875 213.704 95.5284 213.952C95.8693 214.198 96.0578 214.537 96.0938 214.969ZM96.8857 218V213.636H98.2749V218H96.8857ZM97.5817 213.128C97.3866 213.128 97.219 213.063 97.0788 212.935C96.9387 212.804 96.8686 212.647 96.8686 212.463C96.8686 212.281 96.9387 212.126 97.0788 211.997C97.219 211.866 97.3866 211.801 97.5817 211.801C97.7786 211.801 97.9463 211.866 98.0845 211.997C98.2247 212.126 98.2947 212.281 98.2947 212.463C98.2947 212.647 98.2247 212.804 98.0845 212.935C97.9463 213.063 97.7786 213.128 97.5817 213.128ZM101.622 213.636V214.659H98.8693V213.636H101.622ZM99.446 212.591H100.835V216.628C100.835 216.713 100.848 216.782 100.875 216.835C100.903 216.886 100.944 216.923 100.997 216.946C101.05 216.967 101.114 216.977 101.188 216.977C101.241 216.977 101.296 216.973 101.355 216.963C101.416 216.952 101.461 216.942 101.491 216.935L101.702 217.938C101.635 217.956 101.542 217.98 101.42 218.009C101.301 218.037 101.158 218.055 100.991 218.062C100.666 218.078 100.386 218.04 100.153 217.949C99.9223 217.856 99.7453 217.712 99.6222 217.517C99.5009 217.322 99.4422 217.077 99.446 216.781V212.591Z" fill="#FFFDF7"/>
<rect x="24" y="159" width="250" height="30" rx="10" fill="#00A0FF"/>
<path d="M124.259 173.082C124.226 172.963 124.179 172.858 124.116 172.767C124.054 172.674 123.977 172.596 123.886 172.531C123.795 172.467 123.691 172.419 123.574 172.386C123.456 172.352 123.328 172.335 123.188 172.335C122.905 172.335 122.661 172.403 122.455 172.54C122.25 172.676 122.092 172.875 121.98 173.136C121.868 173.396 121.812 173.711 121.812 174.082C121.812 174.455 121.866 174.774 121.974 175.037C122.082 175.3 122.239 175.501 122.443 175.639C122.648 175.777 122.896 175.847 123.188 175.847C123.445 175.847 123.663 175.805 123.841 175.722C124.021 175.636 124.157 175.516 124.25 175.361C124.343 175.205 124.389 175.023 124.389 174.812L124.651 174.844H123.236V173.818H125.744V174.588C125.744 175.109 125.634 175.555 125.412 175.926C125.192 176.297 124.889 176.582 124.503 176.781C124.118 176.98 123.676 177.08 123.176 177.08C122.621 177.08 122.134 176.959 121.713 176.719C121.293 176.478 120.965 176.135 120.73 175.69C120.495 175.243 120.378 174.713 120.378 174.099C120.378 173.622 120.449 173.199 120.591 172.83C120.733 172.458 120.931 172.144 121.185 171.886C121.44 171.629 121.736 171.434 122.071 171.301C122.408 171.169 122.771 171.102 123.159 171.102C123.496 171.102 123.81 171.151 124.099 171.247C124.391 171.344 124.649 171.48 124.872 171.656C125.098 171.832 125.28 172.042 125.42 172.284C125.561 172.527 125.648 172.793 125.682 173.082H124.259ZM128.613 177.082C128.156 177.082 127.763 176.992 127.431 176.812C127.102 176.631 126.848 176.372 126.67 176.037C126.494 175.7 126.406 175.299 126.406 174.835C126.406 174.384 126.495 173.991 126.673 173.653C126.851 173.314 127.102 173.051 127.425 172.864C127.749 172.674 128.131 172.58 128.57 172.58C128.881 172.58 129.165 172.628 129.423 172.724C129.68 172.821 129.903 172.964 130.09 173.153C130.278 173.343 130.424 173.577 130.528 173.855C130.632 174.132 130.684 174.449 130.684 174.807V175.153H126.891V174.347H129.391C129.389 174.199 129.354 174.067 129.286 173.952C129.218 173.836 129.124 173.746 129.005 173.682C128.888 173.616 128.752 173.582 128.599 173.582C128.443 173.582 128.304 173.617 128.181 173.688C128.058 173.756 127.96 173.849 127.888 173.969C127.817 174.086 127.779 174.22 127.775 174.369V175.19C127.775 175.368 127.81 175.525 127.88 175.659C127.95 175.792 128.049 175.895 128.178 175.969C128.307 176.043 128.46 176.08 128.638 176.08C128.762 176.08 128.873 176.062 128.974 176.028C129.074 175.994 129.16 175.944 129.232 175.878C129.304 175.812 129.358 175.73 129.394 175.634L130.67 175.67C130.617 175.956 130.5 176.205 130.32 176.418C130.142 176.628 129.908 176.792 129.619 176.909C129.329 177.025 128.994 177.082 128.613 177.082ZM133.857 172.636V173.659H131.104V172.636H133.857ZM131.68 171.591H133.07V175.628C133.07 175.713 133.083 175.782 133.109 175.835C133.138 175.886 133.179 175.923 133.232 175.946C133.285 175.967 133.348 175.977 133.422 175.977C133.475 175.977 133.531 175.973 133.589 175.963C133.65 175.952 133.696 175.942 133.726 175.935L133.936 176.938C133.87 176.956 133.776 176.98 133.655 177.009C133.536 177.037 133.393 177.055 133.226 177.062C132.9 177.078 132.621 177.04 132.388 176.949C132.157 176.856 131.98 176.712 131.857 176.517C131.735 176.322 131.677 176.077 131.68 175.781V171.591ZM140.517 172.636L139.02 177H137.429L135.935 172.636H137.398L138.202 175.642H138.247L139.054 172.636H140.517ZM142.949 177.082C142.492 177.082 142.098 176.992 141.767 176.812C141.438 176.631 141.184 176.372 141.006 176.037C140.83 175.7 140.741 175.299 140.741 174.835C140.741 174.384 140.83 173.991 141.009 173.653C141.187 173.314 141.438 173.051 141.761 172.864C142.085 172.674 142.467 172.58 142.906 172.58C143.217 172.58 143.501 172.628 143.759 172.724C144.016 172.821 144.239 172.964 144.426 173.153C144.614 173.343 144.759 173.577 144.864 173.855C144.968 174.132 145.02 174.449 145.02 174.807V175.153H141.227V174.347H143.727C143.725 174.199 143.69 174.067 143.622 173.952C143.554 173.836 143.46 173.746 143.341 173.682C143.223 173.616 143.088 173.582 142.935 173.582C142.779 173.582 142.64 173.617 142.517 173.688C142.394 173.756 142.296 173.849 142.224 173.969C142.152 174.086 142.115 174.22 142.111 174.369V175.19C142.111 175.368 142.146 175.525 142.216 175.659C142.286 175.792 142.385 175.895 142.514 175.969C142.643 176.043 142.796 176.08 142.974 176.08C143.098 176.08 143.209 176.062 143.31 176.028C143.41 175.994 143.496 175.944 143.568 175.878C143.64 175.812 143.694 175.73 143.73 175.634L145.006 175.67C144.953 175.956 144.836 176.205 144.656 176.418C144.478 176.628 144.244 176.792 143.955 176.909C143.665 177.025 143.33 177.082 142.949 177.082ZM145.729 177V172.636H147.079V173.432H147.124C147.204 173.144 147.334 172.93 147.513 172.79C147.693 172.648 147.903 172.577 148.141 172.577C148.206 172.577 148.272 172.581 148.34 172.591C148.408 172.598 148.472 172.611 148.531 172.628V173.835C148.464 173.812 148.377 173.795 148.269 173.781C148.163 173.768 148.068 173.761 147.985 173.761C147.82 173.761 147.672 173.798 147.539 173.872C147.408 173.944 147.305 174.045 147.229 174.176C147.156 174.305 147.119 174.456 147.119 174.631V177H145.729ZM149.097 177V172.636H150.486V177H149.097ZM149.793 172.128C149.598 172.128 149.43 172.063 149.29 171.935C149.15 171.804 149.08 171.647 149.08 171.463C149.08 171.281 149.15 171.126 149.29 170.997C149.43 170.866 149.598 170.801 149.793 170.801C149.99 170.801 150.157 170.866 150.295 170.997C150.436 171.126 150.506 171.281 150.506 171.463C150.506 171.647 150.436 171.804 150.295 171.935C150.157 172.063 149.99 172.128 149.793 172.128ZM153.85 172.636V173.659H151.043V172.636H153.85ZM151.629 177V172.415C151.629 172.078 151.692 171.798 151.819 171.577C151.946 171.353 152.122 171.187 152.347 171.077C152.573 170.965 152.833 170.909 153.129 170.909C153.322 170.909 153.504 170.924 153.674 170.955C153.846 170.983 153.974 171.009 154.058 171.031L153.836 172.048C153.785 172.031 153.722 172.017 153.648 172.006C153.576 171.994 153.508 171.989 153.444 171.989C153.281 171.989 153.169 172.025 153.109 172.097C153.048 172.169 153.018 172.267 153.018 172.392V177H151.629ZM154.518 177V172.636H155.908V177H154.518ZM155.214 172.128C155.019 172.128 154.852 172.063 154.712 171.935C154.571 171.804 154.501 171.647 154.501 171.463C154.501 171.281 154.571 171.126 154.712 170.997C154.852 170.866 155.019 170.801 155.214 170.801C155.411 170.801 155.579 170.866 155.717 170.997C155.857 171.126 155.928 171.281 155.928 171.463C155.928 171.647 155.857 171.804 155.717 171.935C155.579 172.063 155.411 172.128 155.214 172.128ZM158.832 177.082C158.375 177.082 157.981 176.992 157.65 176.812C157.32 176.631 157.067 176.372 156.888 176.037C156.712 175.7 156.624 175.299 156.624 174.835C156.624 174.384 156.713 173.991 156.891 173.653C157.069 173.314 157.32 173.051 157.644 172.864C157.968 172.674 158.35 172.58 158.789 172.58C159.1 172.58 159.384 172.628 159.641 172.724C159.899 172.821 160.121 172.964 160.309 173.153C160.496 173.343 160.642 173.577 160.746 173.855C160.851 174.132 160.903 174.449 160.903 174.807V175.153H157.11V174.347H159.61C159.608 174.199 159.573 174.067 159.505 173.952C159.437 173.836 159.343 173.746 159.224 173.682C159.106 173.616 158.971 173.582 158.817 173.582C158.662 173.582 158.523 173.617 158.4 173.688C158.277 173.756 158.179 173.849 158.107 173.969C158.035 174.086 157.997 174.22 157.994 174.369V175.19C157.994 175.368 158.029 175.525 158.099 175.659C158.169 175.792 158.268 175.895 158.397 175.969C158.526 176.043 158.679 176.08 158.857 176.08C158.98 176.08 159.092 176.062 159.192 176.028C159.293 175.994 159.379 175.944 159.451 175.878C159.523 175.812 159.577 175.73 159.613 175.634L160.888 175.67C160.835 175.956 160.719 176.205 160.539 176.418C160.361 176.628 160.127 176.792 159.837 176.909C159.548 177.025 159.212 177.082 158.832 177.082ZM163.206 177.062C162.884 177.062 162.591 176.979 162.328 176.812C162.065 176.646 161.855 176.396 161.697 176.062C161.54 175.729 161.462 175.315 161.462 174.821C161.462 174.308 161.543 173.885 161.706 173.554C161.869 173.223 162.082 172.977 162.345 172.818C162.61 172.659 162.895 172.58 163.2 172.58C163.429 172.58 163.625 172.619 163.788 172.699C163.951 172.777 164.086 172.877 164.192 173C164.298 173.123 164.378 173.251 164.433 173.384H164.462V171.182H165.851V177H164.476V176.293H164.433C164.375 176.427 164.291 176.553 164.183 176.67C164.075 176.788 163.94 176.883 163.777 176.955C163.616 177.027 163.426 177.062 163.206 177.062ZM163.689 175.98C163.857 175.98 164.001 175.933 164.121 175.838C164.24 175.741 164.332 175.606 164.396 175.432C164.461 175.258 164.493 175.053 164.493 174.818C164.493 174.58 164.461 174.374 164.396 174.202C164.334 174.029 164.242 173.897 164.121 173.804C164.001 173.711 163.857 173.665 163.689 173.665C163.517 173.665 163.371 173.712 163.251 173.807C163.132 173.902 163.041 174.035 162.979 174.207C162.918 174.38 162.888 174.583 162.888 174.818C162.888 175.053 162.919 175.258 162.982 175.432C163.044 175.606 163.134 175.741 163.251 175.838C163.371 175.933 163.517 175.98 163.689 175.98Z" fill="#FFFDF7"/>
<rect x="194" y="109.719" width="80" height="38" rx="10" fill="#585B68"/>
<path d="M226.859 140.861C226.351 140.861 225.914 140.741 225.546 140.5C225.179 140.258 224.896 139.91 224.697 139.457C224.498 139.003 224.399 138.456 224.401 137.818C224.403 137.18 224.503 136.638 224.7 136.193C224.898 135.746 225.181 135.406 225.546 135.173C225.914 134.938 226.351 134.821 226.859 134.821C227.366 134.821 227.804 134.938 228.171 135.173C228.54 135.406 228.825 135.746 229.023 136.193C229.222 136.64 229.321 137.182 229.319 137.818C229.319 138.458 229.219 139.006 229.021 139.46C228.822 139.915 228.539 140.262 228.171 140.503C227.806 140.741 227.368 140.861 226.859 140.861ZM226.859 139.71C227.162 139.71 227.407 139.556 227.594 139.247C227.782 138.937 227.875 138.46 227.873 137.818C227.873 137.398 227.83 137.051 227.745 136.778C227.66 136.504 227.541 136.299 227.39 136.165C227.238 136.03 227.061 135.963 226.859 135.963C226.558 135.963 226.314 136.116 226.129 136.42C225.943 136.723 225.849 137.189 225.847 137.818C225.845 138.244 225.886 138.598 225.969 138.878C226.055 139.158 226.174 139.367 226.327 139.506C226.481 139.642 226.658 139.71 226.859 139.71ZM230.667 140.801C230.462 140.801 230.287 140.729 230.141 140.585C229.997 140.441 229.926 140.267 229.928 140.062C229.926 139.862 229.997 139.69 230.141 139.548C230.287 139.404 230.462 139.332 230.667 139.332C230.86 139.332 231.031 139.404 231.178 139.548C231.328 139.69 231.404 139.862 231.406 140.062C231.404 140.199 231.368 140.323 231.298 140.435C231.229 140.546 231.139 140.635 231.028 140.702C230.918 140.768 230.798 140.801 230.667 140.801ZM234.468 140.861C233.96 140.861 233.523 140.741 233.156 140.5C232.788 140.258 232.505 139.91 232.306 139.457C232.107 139.003 232.009 138.456 232.011 137.818C232.013 137.18 232.112 136.638 232.309 136.193C232.508 135.746 232.79 135.406 233.156 135.173C233.523 134.938 233.96 134.821 234.468 134.821C234.976 134.821 235.413 134.938 235.781 135.173C236.15 135.406 236.434 135.746 236.633 136.193C236.832 136.64 236.93 137.182 236.928 137.818C236.928 138.458 236.829 139.006 236.63 139.46C236.431 139.915 236.148 140.262 235.781 140.503C235.415 140.741 234.978 140.861 234.468 140.861ZM234.468 139.71C234.771 139.71 235.016 139.556 235.204 139.247C235.391 138.937 235.484 138.46 235.482 137.818C235.482 137.398 235.44 137.051 235.354 136.778C235.269 136.504 235.151 136.299 234.999 136.165C234.848 136.03 234.671 135.963 234.468 135.963C234.167 135.963 233.924 136.116 233.738 136.42C233.552 136.723 233.459 137.189 233.457 137.818C233.455 138.244 233.496 138.598 233.579 138.878C233.664 139.158 233.783 139.367 233.937 139.506C234.09 139.642 234.267 139.71 234.468 139.71ZM240.14 140.861C239.632 140.861 239.195 140.741 238.827 140.5C238.46 140.258 238.177 139.91 237.978 139.457C237.779 139.003 237.681 138.456 237.683 137.818C237.684 137.18 237.784 136.638 237.981 136.193C238.18 135.746 238.462 135.406 238.827 135.173C239.195 134.938 239.632 134.821 240.14 134.821C240.647 134.821 241.085 134.938 241.452 135.173C241.822 135.406 242.106 135.746 242.305 136.193C242.504 136.64 242.602 137.182 242.6 137.818C242.6 138.458 242.501 139.006 242.302 139.46C242.103 139.915 241.82 140.262 241.452 140.503C241.087 140.741 240.649 140.861 240.14 140.861ZM240.14 139.71C240.443 139.71 240.688 139.556 240.876 139.247C241.063 138.937 241.156 138.46 241.154 137.818C241.154 137.398 241.112 137.051 241.026 136.778C240.941 136.504 240.823 136.299 240.671 136.165C240.52 136.03 240.343 135.963 240.14 135.963C239.839 135.963 239.595 136.116 239.41 136.42C239.224 136.723 239.13 137.189 239.129 137.818C239.127 138.244 239.167 138.598 239.251 138.878C239.336 139.158 239.455 139.367 239.609 139.506C239.762 139.642 239.939 139.71 240.14 139.71Z" fill="#FFFDF7"/>
<g clip-path="url(#clip0_2843_208)">
<path d="M234 130.572C237.785 130.572 240.854 127.503 240.854 123.717C240.854 119.932 237.785 116.863 234 116.863C230.214 116.863 227.146 119.932 227.146 123.717C227.146 127.503 230.214 130.572 234 130.572Z" fill="#0B53BF"/>
<path d="M235.233 118.727V119.609C236.994 120.14 238.284 121.777 238.284 123.717C238.284 125.658 236.994 127.294 235.233 127.825V128.708C237.478 128.16 239.14 126.133 239.14 123.717C239.14 121.301 237.478 119.275 235.233 118.727Z" fill="white"/>
<path d="M229.716 123.717C229.716 121.777 231.006 120.14 232.766 119.609V118.727C230.522 119.275 228.859 121.301 228.859 123.717C228.859 126.133 230.522 128.16 232.766 128.708V127.825C231.006 127.299 229.716 125.658 229.716 123.717Z" fill="white"/>
<path d="M235.842 124.673C235.842 122.921 233.097 123.64 233.097 122.672C233.097 122.325 233.375 122.102 233.906 122.102C234.54 122.102 234.759 122.411 234.827 122.826H235.701C235.623 122.047 235.176 121.554 234.429 121.408V120.719H233.572V121.383C232.754 121.487 232.24 121.964 232.24 122.672C232.24 124.433 234.99 123.773 234.99 124.724C234.99 125.084 234.643 125.324 234.056 125.324C233.289 125.324 233.037 124.985 232.942 124.519H232.09C232.145 125.373 232.672 125.907 233.572 126.041V126.716H234.429V126.05C235.307 125.936 235.842 125.425 235.842 124.673Z" fill="white"/>
</g>
<rect x="109" y="109.719" width="80" height="38" rx="10" fill="#585B68"/>
<path d="M141.859 140.861C141.351 140.861 140.914 140.741 140.546 140.5C140.179 140.258 139.896 139.91 139.697 139.457C139.498 139.003 139.399 138.456 139.401 137.818C139.403 137.18 139.503 136.638 139.7 136.193C139.898 135.746 140.181 135.406 140.546 135.173C140.914 134.938 141.351 134.821 141.859 134.821C142.366 134.821 142.804 134.938 143.171 135.173C143.54 135.406 143.825 135.746 144.023 136.193C144.222 136.64 144.321 137.182 144.319 137.818C144.319 138.458 144.219 139.006 144.021 139.46C143.822 139.915 143.539 140.262 143.171 140.503C142.806 140.741 142.368 140.861 141.859 140.861ZM141.859 139.71C142.162 139.71 142.407 139.556 142.594 139.247C142.782 138.937 142.875 138.46 142.873 137.818C142.873 137.398 142.83 137.051 142.745 136.778C142.66 136.504 142.541 136.299 142.39 136.165C142.238 136.03 142.061 135.963 141.859 135.963C141.558 135.963 141.314 136.116 141.129 136.42C140.943 136.723 140.849 137.189 140.847 137.818C140.845 138.244 140.886 138.598 140.969 138.878C141.055 139.158 141.174 139.367 141.327 139.506C141.481 139.642 141.658 139.71 141.859 139.71ZM145.667 140.801C145.462 140.801 145.287 140.729 145.141 140.585C144.997 140.441 144.926 140.267 144.928 140.062C144.926 139.862 144.997 139.69 145.141 139.548C145.287 139.404 145.462 139.332 145.667 139.332C145.86 139.332 146.031 139.404 146.178 139.548C146.328 139.69 146.404 139.862 146.406 140.062C146.404 140.199 146.368 140.323 146.298 140.435C146.229 140.546 146.139 140.635 146.028 140.702C145.918 140.768 145.798 140.801 145.667 140.801ZM149.468 140.861C148.96 140.861 148.523 140.741 148.156 140.5C147.788 140.258 147.505 139.91 147.306 139.457C147.107 139.003 147.009 138.456 147.011 137.818C147.013 137.18 147.112 136.638 147.309 136.193C147.508 135.746 147.79 135.406 148.156 135.173C148.523 134.938 148.96 134.821 149.468 134.821C149.976 134.821 150.413 134.938 150.781 135.173C151.15 135.406 151.434 135.746 151.633 136.193C151.832 136.64 151.93 137.182 151.928 137.818C151.928 138.458 151.829 139.006 151.63 139.46C151.431 139.915 151.148 140.262 150.781 140.503C150.415 140.741 149.978 140.861 149.468 140.861ZM149.468 139.71C149.771 139.71 150.016 139.556 150.204 139.247C150.391 138.937 150.484 138.46 150.482 137.818C150.482 137.398 150.44 137.051 150.354 136.778C150.269 136.504 150.151 136.299 149.999 136.165C149.848 136.03 149.671 135.963 149.468 135.963C149.167 135.963 148.924 136.116 148.738 136.42C148.552 136.723 148.459 137.189 148.457 137.818C148.455 138.244 148.496 138.598 148.579 138.878C148.664 139.158 148.783 139.367 148.937 139.506C149.09 139.642 149.267 139.71 149.468 139.71ZM155.14 140.861C154.632 140.861 154.195 140.741 153.827 140.5C153.46 140.258 153.177 139.91 152.978 139.457C152.779 139.003 152.681 138.456 152.683 137.818C152.684 137.18 152.784 136.638 152.981 136.193C153.18 135.746 153.462 135.406 153.827 135.173C154.195 134.938 154.632 134.821 155.14 134.821C155.647 134.821 156.085 134.938 156.452 135.173C156.822 135.406 157.106 135.746 157.305 136.193C157.504 136.64 157.602 137.182 157.6 137.818C157.6 138.458 157.501 139.006 157.302 139.46C157.103 139.915 156.82 140.262 156.452 140.503C156.087 140.741 155.649 140.861 155.14 140.861ZM155.14 139.71C155.443 139.71 155.688 139.556 155.876 139.247C156.063 138.937 156.156 138.46 156.154 137.818C156.154 137.398 156.112 137.051 156.026 136.778C155.941 136.504 155.823 136.299 155.671 136.165C155.52 136.03 155.343 135.963 155.14 135.963C154.839 135.963 154.595 136.116 154.41 136.42C154.224 136.723 154.13 137.189 154.129 137.818C154.127 138.244 154.167 138.598 154.251 138.878C154.336 139.158 154.455 139.367 154.609 139.506C154.762 139.642 154.939 139.71 155.14 139.71Z" fill="#FFFDF7"/>
<g clip-path="url(#clip1_2843_208)">
<mask id="mask0_2843_208" style="mask-type:luminance" maskUnits="userSpaceOnUse" x="142" y="116" width="14" height="15">
<path d="M156 116.719H142V130.719H156V116.719Z" fill="white"/>
</mask>
<g mask="url(#mask0_2843_208)">
<path d="M149 130.719C152.866 130.719 156 127.585 156 123.719C156 119.853 152.866 116.719 149 116.719C145.134 116.719 142 119.853 142 123.719C142 127.585 145.134 130.719 149 130.719Z" fill="#0B53BF"/>
<path d="M150.488 125.386C150.182 125.508 149.849 125.578 149.53 125.578C148.897 125.578 148.301 125.309 148.016 124.659H149.407L149.678 124.003H147.854C147.845 123.913 147.841 123.818 147.841 123.719C147.841 123.619 147.845 123.525 147.854 123.434H149.91L150.182 122.778H148.016C148.301 122.129 148.897 121.859 149.53 121.859C149.849 121.859 150.182 121.929 150.488 122.052L150.768 121.387C150.392 121.19 149.967 121.094 149.543 121.094C148.518 121.094 147.483 121.666 147.108 122.778H146.437V123.434H146.974C146.966 123.527 146.962 123.621 146.962 123.719C146.962 123.816 146.966 123.911 146.974 124.003H146.437V124.659H147.108C147.483 125.771 148.518 126.344 149.543 126.344C149.967 126.344 150.392 126.248 150.768 126.051L150.488 125.386Z" fill="white" stroke="#0B53BF" stroke-width="0.03" stroke-miterlimit="10"/>
<path d="M144.625 123.718C144.625 121.736 145.942 120.065 147.74 119.522V118.621C145.447 119.181 143.75 121.25 143.75 123.718C143.75 126.185 145.447 128.255 147.74 128.815V127.914C145.942 127.375 144.625 125.7 144.625 123.718Z" fill="white" stroke="#0B53BF" stroke-width="0.03" stroke-miterlimit="10"/>
<path d="M150.26 118.621V119.522C152.058 120.065 153.375 121.736 153.375 123.718C153.375 125.7 152.058 127.371 150.26 127.914V128.815C152.552 128.255 154.25 126.185 154.25 123.718C154.25 121.25 152.552 119.181 150.26 118.621Z" fill="white" stroke="#0B53BF" stroke-width="0.03" stroke-miterlimit="10"/>
</g>
</g>
<rect x="24" y="109.719" width="80" height="38" rx="10" fill="#585B68"/>
<path d="M56.8587 140.861C56.3511 140.861 55.9136 140.741 55.5462 140.5C55.1787 140.258 54.8956 139.91 54.6967 139.457C54.4979 139.003 54.3994 138.456 54.4013 137.818C54.4032 137.18 54.5026 136.638 54.6996 136.193C54.8984 135.746 55.1806 135.406 55.5462 135.173C55.9136 134.938 56.3511 134.821 56.8587 134.821C57.3662 134.821 57.8037 134.938 58.1712 135.173C58.5405 135.406 58.8246 135.746 59.0234 136.193C59.2223 136.64 59.3208 137.182 59.3189 137.818C59.3189 138.458 59.2195 139.006 59.0206 139.46C58.8217 139.915 58.5386 140.262 58.1712 140.503C57.8056 140.741 57.3681 140.861 56.8587 140.861ZM56.8587 139.71C57.1617 139.71 57.407 139.556 57.5945 139.247C57.782 138.937 57.8748 138.46 57.8729 137.818C57.8729 137.398 57.8303 137.051 57.745 136.778C57.6598 136.504 57.5414 136.299 57.3899 136.165C57.2384 136.03 57.0613 135.963 56.8587 135.963C56.5575 135.963 56.3142 136.116 56.1286 136.42C55.9429 136.723 55.8492 137.189 55.8473 137.818C55.8454 138.244 55.8861 138.598 55.9695 138.878C56.0547 139.158 56.174 139.367 56.3274 139.506C56.4808 139.642 56.6579 139.71 56.8587 139.71ZM60.6669 140.801C60.4624 140.801 60.2872 140.729 60.1413 140.585C59.9974 140.441 59.9264 140.267 59.9283 140.062C59.9264 139.862 59.9974 139.69 60.1413 139.548C60.2872 139.404 60.4624 139.332 60.6669 139.332C60.8601 139.332 61.0305 139.404 61.1783 139.548C61.3279 139.69 61.4036 139.862 61.4055 140.062C61.4036 140.199 61.3677 140.323 61.2976 140.435C61.2294 140.546 61.1394 140.635 61.0277 140.702C60.9179 140.768 60.7976 140.801 60.6669 140.801ZM64.468 140.861C63.9605 140.861 63.523 140.741 63.1555 140.5C62.7881 140.258 62.505 139.91 62.3061 139.457C62.1072 139.003 62.0088 138.456 62.0107 137.818C62.0125 137.18 62.112 136.638 62.3089 136.193C62.5078 135.746 62.79 135.406 63.1555 135.173C63.523 134.938 63.9605 134.821 64.468 134.821C64.9756 134.821 65.4131 134.938 65.7805 135.173C66.1499 135.406 66.4339 135.746 66.6328 136.193C66.8317 136.64 66.9302 137.182 66.9283 137.818C66.9283 138.458 66.8288 139.006 66.63 139.46C66.4311 139.915 66.148 140.262 65.7805 140.503C65.415 140.741 64.9775 140.861 64.468 140.861ZM64.468 139.71C64.7711 139.71 65.0163 139.556 65.2038 139.247C65.3913 138.937 65.4841 138.46 65.4822 137.818C65.4822 137.398 65.4396 137.051 65.3544 136.778C65.2692 136.504 65.1508 136.299 64.9993 136.165C64.8478 136.03 64.6707 135.963 64.468 135.963C64.1669 135.963 63.9235 136.116 63.7379 136.42C63.5523 136.723 63.4586 137.189 63.4567 137.818C63.4548 138.244 63.4955 138.598 63.5788 138.878C63.6641 139.158 63.7834 139.367 63.9368 139.506C64.0902 139.642 64.2673 139.71 64.468 139.71ZM70.1399 140.861C69.6323 140.861 69.1948 140.741 68.8274 140.5C68.46 140.258 68.1768 139.91 67.978 139.457C67.7791 139.003 67.6806 138.456 67.6825 137.818C67.6844 137.18 67.7839 136.638 67.9808 136.193C68.1797 135.746 68.4619 135.406 68.8274 135.173C69.1948 134.938 69.6323 134.821 70.1399 134.821C70.6475 134.821 71.085 134.938 71.4524 135.173C71.8217 135.406 72.1058 135.746 72.3047 136.193C72.5036 136.64 72.602 137.182 72.6001 137.818C72.6001 138.458 72.5007 139.006 72.3018 139.46C72.103 139.915 71.8198 140.262 71.4524 140.503C71.0869 140.741 70.6494 140.861 70.1399 140.861ZM70.1399 139.71C70.4429 139.71 70.6882 139.556 70.8757 139.247C71.0632 138.937 71.156 138.46 71.1541 137.818C71.1541 137.398 71.1115 137.051 71.0263 136.778C70.9411 136.504 70.8227 136.299 70.6712 136.165C70.5196 136.03 70.3426 135.963 70.1399 135.963C69.8388 135.963 69.5954 136.116 69.4098 136.42C69.2242 136.723 69.1304 137.189 69.1286 137.818C69.1267 138.244 69.1674 138.598 69.2507 138.878C69.3359 139.158 69.4553 139.367 69.6087 139.506C69.7621 139.642 69.9392 139.71 70.1399 139.71Z" fill="#FFFDF7"/>
<g clip-path="url(#clip2_2843_208)">
<circle cx="63.65" cy="123.369" r="6.65" fill="#393939"/>
<g clip-path="url(#clip3_2843_208)">
<path d="M66.941 125.138L65.8432 126.298C65.8193 126.323 65.7904 126.343 65.7583 126.357C65.7263 126.371 65.6916 126.378 65.6567 126.378H60.4526C60.4278 126.378 60.4035 126.371 60.3828 126.357C60.362 126.344 60.3457 126.325 60.3358 126.302C60.3259 126.28 60.3228 126.255 60.327 126.231C60.3313 126.207 60.3425 126.185 60.3595 126.167L61.4581 125.007C61.4819 124.982 61.5107 124.962 61.5426 124.948C61.5746 124.934 61.6091 124.927 61.644 124.927H66.8478C66.8726 124.927 66.8969 124.934 66.9177 124.948C66.9384 124.961 66.9547 124.98 66.9647 125.003C66.9745 125.025 66.9776 125.05 66.9734 125.074C66.9691 125.098 66.9579 125.121 66.941 125.138ZM65.8432 122.803C65.8193 122.778 65.7904 122.758 65.7583 122.744C65.7263 122.73 65.6916 122.723 65.6567 122.723H60.4526C60.4278 122.723 60.4035 122.731 60.3828 122.744C60.362 122.757 60.3457 122.776 60.3358 122.799C60.3259 122.821 60.3228 122.846 60.327 122.87C60.3313 122.894 60.3425 122.917 60.3595 122.935L61.4581 124.094C61.4819 124.119 61.5107 124.139 61.5426 124.153C61.5746 124.167 61.6091 124.174 61.644 124.174H66.8478C66.8726 124.174 66.8969 124.167 66.9177 124.153C66.9384 124.14 66.9547 124.121 66.9647 124.099C66.9745 124.076 66.9776 124.051 66.9734 124.027C66.9691 124.003 66.9579 123.981 66.941 123.963L65.8432 122.803ZM60.4526 121.97H65.6567C65.6916 121.97 65.7263 121.963 65.7583 121.949C65.7904 121.936 65.8193 121.916 65.8432 121.89L66.941 120.731C66.9579 120.713 66.9691 120.69 66.9734 120.666C66.9776 120.642 66.9745 120.617 66.9647 120.595C66.9547 120.573 66.9384 120.554 66.9177 120.54C66.8969 120.527 66.8726 120.52 66.8478 120.52H61.644C61.6091 120.52 61.5746 120.527 61.5426 120.54C61.5107 120.554 61.4819 120.574 61.4581 120.599L60.3597 121.759C60.3428 121.777 60.3316 121.799 60.3273 121.823C60.3231 121.847 60.3261 121.872 60.336 121.895C60.3458 121.917 60.3621 121.936 60.3829 121.949C60.4036 121.963 60.4278 121.97 60.4526 121.97Z" fill="white"/>
</g>
</g>
<rect x="24" y="67" width="250" height="30" rx="10" fill="url(#paint1_linear_2843_208)"/>
<path d="M188.892 85H186.741V79.1818H188.889C189.482 79.1818 189.992 79.2983 190.42 79.5312C190.85 79.7623 191.181 80.0956 191.414 80.5312C191.647 80.965 191.764 81.4839 191.764 82.0881C191.764 82.6941 191.647 83.215 191.414 83.6506C191.183 84.0862 190.853 84.4205 190.423 84.6534C189.993 84.8845 189.483 85 188.892 85ZM188.147 83.8011H188.838C189.163 83.8011 189.439 83.7462 189.664 83.6364C189.892 83.5246 190.063 83.3438 190.179 83.0938C190.296 82.8419 190.355 82.5066 190.355 82.0881C190.355 81.6695 190.296 81.3362 190.179 81.0881C190.061 80.8381 189.888 80.6581 189.659 80.5483C189.431 80.4366 189.151 80.3807 188.818 80.3807H188.147V83.8011ZM192.585 85V80.6364H193.974V85H192.585ZM193.281 80.1278C193.086 80.1278 192.918 80.0634 192.778 79.9347C192.638 79.804 192.568 79.6468 192.568 79.4631C192.568 79.2812 192.638 79.1259 192.778 78.9972C192.918 78.8665 193.086 78.8011 193.281 78.8011C193.478 78.8011 193.645 78.8665 193.784 78.9972C193.924 79.1259 193.994 79.2812 193.994 79.4631C193.994 79.6468 193.924 79.804 193.784 79.9347C193.645 80.0634 193.478 80.1278 193.281 80.1278ZM198.668 81.9688L197.392 82.0028C197.379 81.9119 197.343 81.8314 197.284 81.7614C197.226 81.6894 197.149 81.6335 197.054 81.5938C196.962 81.5521 196.854 81.5312 196.73 81.5312C196.569 81.5312 196.432 81.5634 196.319 81.6278C196.207 81.6922 196.152 81.7794 196.154 81.8892C196.152 81.9744 196.186 82.0483 196.256 82.1108C196.328 82.1733 196.456 82.2235 196.64 82.2614L197.48 82.4205C197.916 82.5038 198.24 82.642 198.452 82.8352C198.666 83.0284 198.774 83.2841 198.776 83.6023C198.774 83.9015 198.685 84.1619 198.509 84.3835C198.335 84.6051 198.096 84.7775 197.793 84.9006C197.49 85.0218 197.143 85.0824 196.753 85.0824C196.13 85.0824 195.639 84.9545 195.279 84.6989C194.921 84.4413 194.716 84.0966 194.665 83.6648L196.037 83.6307C196.068 83.7898 196.146 83.911 196.273 83.9943C196.4 84.0777 196.562 84.1193 196.759 84.1193C196.937 84.1193 197.082 84.0862 197.194 84.0199C197.305 83.9536 197.362 83.8655 197.364 83.7557C197.362 83.6572 197.319 83.5786 197.233 83.5199C197.148 83.4593 197.015 83.4119 196.833 83.3778L196.071 83.233C195.634 83.1534 195.308 83.0066 195.094 82.7926C194.88 82.5767 194.774 82.3021 194.776 81.9688C194.774 81.6771 194.852 81.428 195.009 81.2216C195.166 81.0133 195.39 80.8542 195.679 80.7443C195.969 80.6345 196.311 80.5795 196.705 80.5795C197.296 80.5795 197.762 80.7036 198.103 80.9517C198.444 81.1979 198.632 81.5369 198.668 81.9688ZM201.497 85.0824C201.037 85.0824 200.642 84.9877 200.312 84.7983C199.984 84.6089 199.733 84.3456 199.556 84.0085C199.38 83.6695 199.292 83.2775 199.292 82.8324C199.292 82.3854 199.38 81.9934 199.556 81.6562C199.734 81.3172 199.987 81.053 200.315 80.8636C200.645 80.6742 201.038 80.5795 201.494 80.5795C201.897 80.5795 202.249 80.6525 202.548 80.7983C202.849 80.9441 203.084 81.1506 203.252 81.4176C203.423 81.6828 203.513 81.9943 203.522 82.3523H202.224C202.198 82.1288 202.122 81.9536 201.997 81.8267C201.874 81.6998 201.713 81.6364 201.514 81.6364C201.353 81.6364 201.212 81.6818 201.091 81.7727C200.969 81.8617 200.875 81.9943 200.806 82.1705C200.74 82.3447 200.707 82.5606 200.707 82.8182C200.707 83.0758 200.74 83.2936 200.806 83.4716C200.875 83.6477 200.969 83.7812 201.091 83.8722C201.212 83.9612 201.353 84.0057 201.514 84.0057C201.643 84.0057 201.756 83.9782 201.855 83.9233C201.955 83.8684 202.038 83.7879 202.102 83.6818C202.166 83.5739 202.207 83.4432 202.224 83.2898H203.522C203.509 83.6496 203.419 83.964 203.252 84.233C203.088 84.5019 202.856 84.7112 202.556 84.8608C202.259 85.0085 201.906 85.0824 201.497 85.0824ZM206.27 85.0824C205.812 85.0824 205.418 84.9886 205.088 84.8011C204.761 84.6117 204.508 84.3485 204.33 84.0114C204.154 83.6723 204.066 83.2794 204.066 82.8324C204.066 82.3835 204.154 81.9905 204.33 81.6534C204.508 81.3144 204.761 81.0511 205.088 80.8636C205.418 80.6742 205.812 80.5795 206.27 80.5795C206.729 80.5795 207.122 80.6742 207.449 80.8636C207.779 81.0511 208.032 81.3144 208.208 81.6534C208.386 81.9905 208.475 82.3835 208.475 82.8324C208.475 83.2794 208.386 83.6723 208.208 84.0114C208.032 84.3485 207.779 84.6117 207.449 84.8011C207.122 84.9886 206.729 85.0824 206.27 85.0824ZM206.279 84.0341C206.445 84.0341 206.587 83.983 206.702 83.8807C206.818 83.7784 206.906 83.6364 206.966 83.4545C207.029 83.2727 207.06 83.0625 207.06 82.8239C207.06 82.5814 207.029 82.3693 206.966 82.1875C206.906 82.0057 206.818 81.8636 206.702 81.7614C206.587 81.6591 206.445 81.608 206.279 81.608C206.106 81.608 205.961 81.6591 205.841 81.7614C205.724 81.8636 205.634 82.0057 205.571 82.1875C205.511 82.3693 205.48 82.5814 205.48 82.8239C205.48 83.0625 205.511 83.2727 205.571 83.4545C205.634 83.6364 205.724 83.7784 205.841 83.8807C205.961 83.983 206.106 84.0341 206.279 84.0341ZM210.576 82.5114V85H209.186V80.6364H210.507V81.4375H210.556C210.652 81.1705 210.817 80.9612 211.05 80.8097C211.283 80.6562 211.56 80.5795 211.882 80.5795C212.189 80.5795 212.455 80.6487 212.681 80.7869C212.908 80.9233 213.084 81.1146 213.209 81.3608C213.336 81.6051 213.399 81.8911 213.397 82.2188V85H212.007V82.4915C212.009 82.2491 211.948 82.0597 211.823 81.9233C211.7 81.7869 211.528 81.7188 211.309 81.7188C211.163 81.7188 211.034 81.7509 210.922 81.8153C210.812 81.8778 210.727 81.9678 210.667 82.0852C210.608 82.2027 210.578 82.3447 210.576 82.5114ZM215.646 82.5114V85H214.257V80.6364H215.578V81.4375H215.626C215.723 81.1705 215.887 80.9612 216.12 80.8097C216.353 80.6562 216.631 80.5795 216.953 80.5795C217.26 80.5795 217.526 80.6487 217.751 80.7869C217.978 80.9233 218.154 81.1146 218.279 81.3608C218.406 81.6051 218.469 81.8911 218.467 82.2188V85H217.078V82.4915C217.08 82.2491 217.018 82.0597 216.893 81.9233C216.77 81.7869 216.599 81.7188 216.379 81.7188C216.233 81.7188 216.104 81.7509 215.993 81.8153C215.883 81.8778 215.797 81.9678 215.737 82.0852C215.678 82.2027 215.648 82.3447 215.646 82.5114ZM220.716 82.5114V85H219.327V80.6364H220.648V81.4375H220.696C220.793 81.1705 220.958 80.9612 221.191 80.8097C221.424 80.6562 221.701 80.5795 222.023 80.5795C222.33 80.5795 222.596 80.6487 222.821 80.7869C223.049 80.9233 223.225 81.1146 223.35 81.3608C223.477 81.6051 223.539 81.8911 223.537 82.2188V85H222.148V82.4915C222.15 82.2491 222.088 82.0597 221.963 81.9233C221.84 81.7869 221.669 81.7188 221.449 81.7188C221.303 81.7188 221.175 81.7509 221.063 81.8153C220.953 81.8778 220.868 81.9678 220.807 82.0852C220.748 82.2027 220.718 82.3447 220.716 82.5114ZM226.437 85.0824C225.981 85.0824 225.587 84.9924 225.255 84.8125C224.926 84.6307 224.672 84.3722 224.494 84.0369C224.318 83.6998 224.23 83.2992 224.23 82.8352C224.23 82.3845 224.319 81.9905 224.497 81.6534C224.675 81.3144 224.926 81.0511 225.25 80.8636C225.574 80.6742 225.955 80.5795 226.395 80.5795C226.705 80.5795 226.989 80.6278 227.247 80.7244C227.504 80.821 227.727 80.964 227.914 81.1534C228.102 81.3428 228.248 81.5767 228.352 81.8551C228.456 82.1316 228.508 82.4489 228.508 82.8068V83.1534H224.716V82.3466H227.216C227.214 82.1989 227.179 82.0672 227.11 81.9517C227.042 81.8362 226.949 81.7462 226.829 81.6818C226.712 81.6155 226.576 81.5824 226.423 81.5824C226.268 81.5824 226.128 81.6174 226.005 81.6875C225.882 81.7557 225.785 81.8494 225.713 81.9688C225.641 82.0862 225.603 82.2197 225.599 82.3693V83.1903C225.599 83.3684 225.634 83.5246 225.704 83.6591C225.774 83.7917 225.874 83.8949 226.002 83.9688C226.131 84.0426 226.285 84.0795 226.463 84.0795C226.586 84.0795 226.698 84.0625 226.798 84.0284C226.898 83.9943 226.984 83.9441 227.056 83.8778C227.128 83.8116 227.182 83.7301 227.218 83.6335L228.494 83.6705C228.441 83.9564 228.324 84.2055 228.145 84.4176C227.967 84.6278 227.733 84.7917 227.443 84.9091C227.153 85.0246 226.818 85.0824 226.437 85.0824ZM231.255 85.0824C230.794 85.0824 230.4 84.9877 230.07 84.7983C229.742 84.6089 229.49 84.3456 229.314 84.0085C229.138 83.6695 229.05 83.2775 229.05 82.8324C229.05 82.3854 229.138 81.9934 229.314 81.6562C229.492 81.3172 229.745 81.053 230.073 80.8636C230.402 80.6742 230.795 80.5795 231.252 80.5795C231.655 80.5795 232.007 80.6525 232.306 80.7983C232.607 80.9441 232.842 81.1506 233.01 81.4176C233.181 81.6828 233.271 81.9943 233.28 82.3523H231.982C231.955 82.1288 231.88 81.9536 231.755 81.8267C231.632 81.6998 231.471 81.6364 231.272 81.6364C231.111 81.6364 230.97 81.6818 230.848 81.7727C230.727 81.8617 230.632 81.9943 230.564 82.1705C230.498 82.3447 230.465 82.5606 230.465 82.8182C230.465 83.0758 230.498 83.2936 230.564 83.4716C230.632 83.6477 230.727 83.7812 230.848 83.8722C230.97 83.9612 231.111 84.0057 231.272 84.0057C231.4 84.0057 231.514 83.9782 231.613 83.9233C231.713 83.8684 231.795 83.7879 231.86 83.6818C231.924 83.5739 231.965 83.4432 231.982 83.2898H233.28C233.267 83.6496 233.177 83.964 233.01 84.233C232.846 84.5019 232.614 84.7112 232.314 84.8608C232.017 85.0085 231.664 85.0824 231.255 85.0824ZM236.454 80.6364V81.6591H233.701V80.6364H236.454ZM234.278 79.5909H235.667V83.6278C235.667 83.7131 235.681 83.7822 235.707 83.8352C235.735 83.8864 235.776 83.9233 235.829 83.946C235.882 83.9669 235.946 83.9773 236.02 83.9773C236.073 83.9773 236.128 83.9725 236.187 83.9631C236.248 83.9517 236.293 83.9422 236.324 83.9347L236.534 84.9375C236.467 84.9564 236.374 84.9801 236.252 85.0085C236.133 85.0369 235.99 85.0549 235.824 85.0625C235.498 85.0777 235.218 85.0398 234.985 84.9489C234.754 84.8561 234.577 84.7121 234.454 84.517C234.333 84.322 234.274 84.0767 234.278 83.7812V79.5909ZM240.277 85L238.583 79.1818H240.137L241.015 82.9943H241.064L242.066 79.1818H243.333L244.336 83.0028H244.385L245.265 79.1818H246.816L245.126 85H243.771L242.723 81.4716H242.677L241.629 85H240.277ZM248.143 85.0739C247.865 85.0739 247.618 85.0275 247.402 84.9347C247.188 84.84 247.018 84.6979 246.893 84.5085C246.77 84.3172 246.708 84.0777 246.708 83.7898C246.708 83.5473 246.751 83.3428 246.836 83.1761C246.922 83.0095 247.039 82.8741 247.189 82.7699C247.338 82.6657 247.511 82.5871 247.706 82.5341C247.901 82.4792 248.109 82.4422 248.331 82.4233C248.579 82.4006 248.779 82.3769 248.93 82.3523C249.082 82.3258 249.191 82.2888 249.26 82.2415C249.33 82.1922 249.365 82.1231 249.365 82.0341V82.0199C249.365 81.8741 249.315 81.7614 249.214 81.6818C249.114 81.6023 248.978 81.5625 248.808 81.5625C248.624 81.5625 248.476 81.6023 248.365 81.6818C248.253 81.7614 248.182 81.8712 248.152 82.0114L246.87 81.9659C246.908 81.7008 247.006 81.464 247.163 81.2557C247.322 81.0455 247.54 80.8807 247.816 80.7614C248.095 80.6402 248.429 80.5795 248.819 80.5795C249.098 80.5795 249.354 80.6127 249.589 80.679C249.824 80.7434 250.029 80.8381 250.203 80.9631C250.377 81.0862 250.511 81.2377 250.606 81.4176C250.703 81.5975 250.751 81.803 250.751 82.0341V85H249.444V84.392H249.41C249.333 84.5398 249.233 84.6648 249.112 84.767C248.993 84.8693 248.851 84.946 248.689 84.9972C248.528 85.0483 248.346 85.0739 248.143 85.0739ZM248.572 84.1648C248.722 84.1648 248.856 84.1345 248.975 84.0739C249.097 84.0133 249.193 83.9299 249.265 83.8239C249.337 83.7159 249.373 83.5909 249.373 83.4489V83.0341C249.333 83.0549 249.285 83.0739 249.228 83.0909C249.173 83.108 249.113 83.1241 249.047 83.1392C248.98 83.1544 248.912 83.1676 248.842 83.179C248.772 83.1903 248.705 83.2008 248.64 83.2102C248.51 83.2311 248.398 83.2633 248.305 83.3068C248.214 83.3504 248.144 83.4072 248.095 83.4773C248.047 83.5455 248.024 83.6269 248.024 83.7216C248.024 83.8655 248.075 83.9754 248.177 84.0511C248.281 84.1269 248.413 84.1648 248.572 84.1648ZM252.99 79.1818V85H251.6V79.1818H252.99ZM255.263 79.1818V85H253.874V79.1818H255.263ZM258.187 85.0824C257.731 85.0824 257.337 84.9924 257.005 84.8125C256.676 84.6307 256.422 84.3722 256.244 84.0369C256.068 83.6998 255.98 83.2992 255.98 82.8352C255.98 82.3845 256.069 81.9905 256.247 81.6534C256.425 81.3144 256.676 81.0511 257 80.8636C257.324 80.6742 257.705 80.5795 258.145 80.5795C258.455 80.5795 258.739 80.6278 258.997 80.7244C259.254 80.821 259.477 80.964 259.664 81.1534C259.852 81.3428 259.998 81.5767 260.102 81.8551C260.206 82.1316 260.258 82.4489 260.258 82.8068V83.1534H256.466V82.3466H258.966C258.964 82.1989 258.929 82.0672 258.86 81.9517C258.792 81.8362 258.699 81.7462 258.579 81.6818C258.462 81.6155 258.326 81.5824 258.173 81.5824C258.018 81.5824 257.878 81.6174 257.755 81.6875C257.632 81.7557 257.535 81.8494 257.463 81.9688C257.391 82.0862 257.353 82.2197 257.349 82.3693V83.1903C257.349 83.3684 257.384 83.5246 257.454 83.6591C257.524 83.7917 257.624 83.8949 257.752 83.9688C257.881 84.0426 258.035 84.0795 258.213 84.0795C258.336 84.0795 258.448 84.0625 258.548 84.0284C258.648 83.9943 258.734 83.9441 258.806 83.8778C258.878 83.8116 258.932 83.7301 258.968 83.6335L260.244 83.6705C260.191 83.9564 260.074 84.2055 259.895 84.4176C259.717 84.6278 259.483 84.7917 259.193 84.9091C258.903 85.0246 258.568 85.0824 258.187 85.0824ZM263.431 80.6364V81.6591H260.678V80.6364H263.431ZM261.255 79.5909H262.644V83.6278C262.644 83.7131 262.657 83.7822 262.684 83.8352C262.712 83.8864 262.753 83.9233 262.806 83.946C262.859 83.9669 262.922 83.9773 262.996 83.9773C263.049 83.9773 263.105 83.9725 263.164 83.9631C263.224 83.9517 263.27 83.9422 263.3 83.9347L263.51 84.9375C263.444 84.9564 263.35 84.9801 263.229 85.0085C263.11 85.0369 262.967 85.0549 262.8 85.0625C262.474 85.0777 262.195 85.0398 261.962 84.9489C261.731 84.8561 261.554 84.7121 261.431 84.517C261.31 84.322 261.251 84.0767 261.255 83.7812V79.5909Z" fill="#00A0FF"/>
<path d="M37.571 81.0824C37.5388 80.9631 37.4915 80.858 37.429 80.767C37.3665 80.6742 37.2898 80.5956 37.1989 80.5312C37.108 80.4669 37.0038 80.4186 36.8864 80.3864C36.7689 80.3523 36.6402 80.3352 36.5 80.3352C36.2178 80.3352 35.9735 80.4034 35.767 80.5398C35.5625 80.6761 35.4044 80.875 35.2926 81.1364C35.1809 81.3958 35.125 81.7112 35.125 82.0824C35.125 82.4555 35.179 82.7737 35.2869 83.0369C35.3949 83.3002 35.5511 83.5009 35.7557 83.6392C35.9602 83.7775 36.2083 83.8466 36.5 83.8466C36.7576 83.8466 36.9754 83.8049 37.1534 83.7216C37.3333 83.6364 37.4697 83.5161 37.5625 83.3608C37.6553 83.2055 37.7017 83.0227 37.7017 82.8125L37.9631 82.8438H36.5483V81.8182H39.0568V82.5881C39.0568 83.1089 38.946 83.5549 38.7244 83.9261C38.5047 84.2973 38.2017 84.5824 37.8153 84.7812C37.4309 84.9801 36.9886 85.0795 36.4886 85.0795C35.9337 85.0795 35.446 84.9593 35.0256 84.7188C34.6051 84.4782 34.2775 84.1354 34.0426 83.6903C33.8078 83.2434 33.6903 82.7131 33.6903 82.0994C33.6903 81.6222 33.7614 81.1989 33.9034 80.8295C34.0455 80.4583 34.2434 80.1439 34.4972 79.8864C34.7528 79.6288 35.0483 79.4337 35.3835 79.3011C35.7206 79.1686 36.0833 79.1023 36.4716 79.1023C36.8087 79.1023 37.1222 79.1506 37.4119 79.2472C37.7036 79.3438 37.9612 79.4801 38.1847 79.6562C38.41 79.8324 38.5928 80.0417 38.733 80.2841C38.8731 80.5265 38.9602 80.7926 38.9943 81.0824H37.571ZM41.1527 79.1818L42.2152 81.0199H42.2607L43.3345 79.1818H44.9084L43.1527 82.0909L44.9652 85H43.3516L42.2607 83.142H42.2152L41.1243 85H39.522L41.326 82.0909L39.5675 79.1818H41.1527ZM45.6357 79.1818H47.3771L48.8544 82.7841H48.9226L50.3999 79.1818H52.1413V85H50.772V81.4261H50.7237L49.326 84.9631H48.451L47.0533 81.4062H47.005V85H45.6357V79.1818ZM54.2713 83.8551L54.277 82.1989H54.4702L55.6974 80.6364H57.2713L55.4474 82.875H55.081L54.2713 83.8551ZM53.0185 85V79.1818H54.4077V85H53.0185ZM55.7287 85L54.5866 83.1875L55.5014 82.2017L57.3338 85H55.7287ZM60.0298 85.0795C59.5772 85.0795 59.1728 85.0076 58.8168 84.8636C58.4626 84.7178 58.1842 84.5208 57.9815 84.2727C57.7808 84.0227 57.6804 83.7405 57.6804 83.4261C57.6804 83.1856 57.7382 82.965 57.8537 82.7642C57.9692 82.5634 58.1255 82.3968 58.3224 82.2642C58.5213 82.1297 58.7429 82.0436 58.9872 82.0057V81.9602C58.6671 81.9015 58.4048 81.7528 58.2003 81.5142C57.9976 81.2756 57.8963 80.9962 57.8963 80.6761C57.8963 80.3731 57.9882 80.1032 58.1719 79.8665C58.3575 79.6297 58.6103 79.4432 58.9304 79.3068C59.2524 79.1705 59.6188 79.1023 60.0298 79.1023C60.4408 79.1023 60.8063 79.1705 61.1264 79.3068C61.4484 79.4432 61.7012 79.6297 61.8849 79.8665C62.0705 80.1032 62.1634 80.3731 62.1634 80.6761C62.1634 80.9981 62.0601 81.2784 61.8537 81.517C61.6491 81.7538 61.3887 81.9015 61.0724 81.9602V82.0057C61.3149 82.0436 61.5346 82.1297 61.7315 82.2642C61.9304 82.3968 62.0876 82.5634 62.2031 82.7642C62.3205 82.965 62.3793 83.1856 62.3793 83.4261C62.3793 83.7405 62.2779 84.0227 62.0753 84.2727C61.8726 84.5208 61.5942 84.7178 61.2401 84.8636C60.8878 85.0076 60.4844 85.0795 60.0298 85.0795ZM60.0298 84.0824C60.2022 84.0824 60.3537 84.0502 60.4844 83.9858C60.6151 83.9195 60.7173 83.8277 60.7912 83.7102C60.867 83.5928 60.9048 83.4602 60.9048 83.3125C60.9048 83.161 60.867 83.0265 60.7912 82.9091C60.7154 82.7917 60.6113 82.6998 60.4787 82.6335C60.348 82.5653 60.1984 82.5312 60.0298 82.5312C59.8632 82.5312 59.7135 82.5653 59.581 82.6335C59.4484 82.6998 59.3442 82.7917 59.2685 82.9091C59.1927 83.0265 59.1548 83.161 59.1548 83.3125C59.1548 83.4602 59.1918 83.5928 59.2656 83.7102C59.3414 83.8258 59.4446 83.9167 59.5753 83.983C59.7079 84.0492 59.8594 84.0824 60.0298 84.0824ZM60.0298 81.5398C60.1776 81.5398 60.3082 81.5095 60.4219 81.4489C60.5374 81.3883 60.6274 81.304 60.6918 81.196C60.758 81.0881 60.7912 80.9659 60.7912 80.8295C60.7912 80.6932 60.758 80.5729 60.6918 80.4688C60.6274 80.3646 60.5384 80.2831 60.4247 80.2244C60.3111 80.1638 60.1795 80.1335 60.0298 80.1335C59.8821 80.1335 59.7505 80.1638 59.6349 80.2244C59.5194 80.2831 59.4295 80.3646 59.3651 80.4688C59.3007 80.5729 59.2685 80.6932 59.2685 80.8295C59.2685 80.9659 59.3007 81.0881 59.3651 81.196C59.4313 81.3021 59.5223 81.3864 59.6378 81.4489C59.7533 81.5095 59.884 81.5398 60.0298 81.5398ZM63.1747 85V80.6364H64.5241V81.4318H64.5696C64.6491 81.1439 64.7789 80.9299 64.9588 80.7898C65.1387 80.6477 65.348 80.5767 65.5866 80.5767C65.651 80.5767 65.7173 80.5814 65.7855 80.5909C65.8537 80.5985 65.9171 80.6108 65.9759 80.6278V81.8352C65.9096 81.8125 65.8224 81.7945 65.7145 81.7812C65.6084 81.768 65.5137 81.7614 65.4304 81.7614C65.2656 81.7614 65.117 81.7983 64.9844 81.8722C64.8537 81.9441 64.7505 82.0455 64.6747 82.1761C64.6009 82.3049 64.5639 82.4564 64.5639 82.6307V85H63.1747ZM66.8232 85.0824C66.6186 85.0824 66.4434 85.0104 66.2976 84.8665C66.1536 84.7225 66.0826 84.5483 66.0845 84.3438C66.0826 84.143 66.1536 83.9716 66.2976 83.8295C66.4434 83.6856 66.6186 83.6136 66.8232 83.6136C67.0163 83.6136 67.1868 83.6856 67.3345 83.8295C67.4841 83.9716 67.5599 84.143 67.5618 84.3438C67.5599 84.4801 67.5239 84.6042 67.4538 84.7159C67.3857 84.8277 67.2957 84.9167 67.1839 84.983C67.0741 85.0492 66.9538 85.0824 66.8232 85.0824ZM69.2607 85.0824C69.0561 85.0824 68.8809 85.0104 68.7351 84.8665C68.5911 84.7225 68.5201 84.5483 68.522 84.3438C68.5201 84.143 68.5911 83.9716 68.7351 83.8295C68.8809 83.6856 69.0561 83.6136 69.2607 83.6136C69.4538 83.6136 69.6243 83.6856 69.772 83.8295C69.9216 83.9716 69.9974 84.143 69.9993 84.3438C69.9974 84.4801 69.9614 84.6042 69.8913 84.7159C69.8232 84.8277 69.7332 84.9167 69.6214 84.983C69.5116 85.0492 69.3913 85.0824 69.2607 85.0824ZM71.6982 85.0824C71.4936 85.0824 71.3184 85.0104 71.1726 84.8665C71.0286 84.7225 70.9576 84.5483 70.9595 84.3438C70.9576 84.143 71.0286 83.9716 71.1726 83.8295C71.3184 83.6856 71.4936 83.6136 71.6982 83.6136C71.8913 83.6136 72.0618 83.6856 72.2095 83.8295C72.3591 83.9716 72.4349 84.143 72.4368 84.3438C72.4349 84.4801 72.3989 84.6042 72.3288 84.7159C72.2607 84.8277 72.1707 84.9167 72.0589 84.983C71.9491 85.0492 71.8288 85.0824 71.6982 85.0824ZM73.3544 85V79.1818H75.7578C76.1934 79.1818 76.5694 79.267 76.8857 79.4375C77.2038 79.6061 77.4491 79.8419 77.6214 80.1449C77.7938 80.446 77.88 80.7964 77.88 81.196C77.88 81.5975 77.7919 81.9489 77.6158 82.25C77.4415 82.5492 77.1925 82.7812 76.8686 82.946C76.5447 83.1108 76.1603 83.1932 75.7152 83.1932H74.2322V82.0852H75.4538C75.666 82.0852 75.843 82.0483 75.9851 81.9744C76.129 81.9006 76.2379 81.7973 76.3118 81.6648C76.3857 81.5303 76.4226 81.3741 76.4226 81.196C76.4226 81.0161 76.3857 80.8608 76.3118 80.7301C76.2379 80.5975 76.129 80.4953 75.9851 80.4233C75.8411 80.3513 75.6641 80.3153 75.4538 80.3153H74.7607V85H73.3544ZM78.5732 85V79.1818H79.9624V81.3835H79.9908C80.0476 81.2509 80.1281 81.1231 80.2322 81C80.3383 80.8769 80.4728 80.7765 80.6357 80.6989C80.8004 80.6193 80.9974 80.5795 81.2266 80.5795C81.5296 80.5795 81.8127 80.6591 82.076 80.8182C82.3411 80.9773 82.5552 81.2225 82.718 81.554C82.8809 81.8854 82.9624 82.3078 82.9624 82.821C82.9624 83.3153 82.8838 83.7292 82.7266 84.0625C82.5713 84.3958 82.361 84.6458 82.0959 84.8125C81.8326 84.9792 81.54 85.0625 81.218 85.0625C80.9983 85.0625 80.808 85.0265 80.647 84.9545C80.486 84.8826 80.3506 84.7879 80.2408 84.6705C80.1328 84.553 80.0495 84.4271 79.9908 84.2926H79.9482V85H78.5732ZM79.9339 82.8182C79.9339 83.053 79.9652 83.2576 80.0277 83.4318C80.0921 83.6061 80.1839 83.7415 80.3033 83.8381C80.4245 83.9328 80.5694 83.9801 80.7379 83.9801C80.9084 83.9801 81.0533 83.9328 81.1726 83.8381C81.2919 83.7415 81.3819 83.6061 81.4425 83.4318C81.505 83.2576 81.5362 83.053 81.5362 82.8182C81.5362 82.5833 81.505 82.3797 81.4425 82.2074C81.3819 82.035 81.2919 81.9015 81.1726 81.8068C81.0552 81.7121 80.9103 81.6648 80.7379 81.6648C80.5675 81.6648 80.4226 81.7112 80.3033 81.804C80.1839 81.8968 80.0921 82.0294 80.0277 82.2017C79.9652 82.3741 79.9339 82.5795 79.9339 82.8182ZM84.3991 86.6364C84.2325 86.6364 84.0753 86.6231 83.9276 86.5966C83.7798 86.572 83.6529 86.5388 83.5469 86.4972L83.8537 85.4886C83.9901 85.5341 84.1132 85.5606 84.223 85.5682C84.3348 85.5758 84.4304 85.5578 84.5099 85.5142C84.5914 85.4725 84.6539 85.3977 84.6974 85.2898L84.7514 85.1591L83.2003 80.6364H84.6548L85.4588 83.75H85.5043L86.3196 80.6364H87.7827L86.1378 85.4176C86.0582 85.6563 85.9455 85.8665 85.7997 86.0483C85.6558 86.232 85.4692 86.3759 85.2401 86.4801C85.0128 86.5843 84.7325 86.6364 84.3991 86.6364ZM90.2116 85.0824C89.7533 85.0824 89.3594 84.9886 89.0298 84.8011C88.7022 84.6117 88.4493 84.3485 88.2713 84.0114C88.0952 83.6723 88.0071 83.2794 88.0071 82.8324C88.0071 82.3835 88.0952 81.9905 88.2713 81.6534C88.4493 81.3144 88.7022 81.0511 89.0298 80.8636C89.3594 80.6742 89.7533 80.5795 90.2116 80.5795C90.67 80.5795 91.063 80.6742 91.3906 80.8636C91.7202 81.0511 91.973 81.3144 92.1491 81.6534C92.3272 81.9905 92.4162 82.3835 92.4162 82.8324C92.4162 83.2794 92.3272 83.6723 92.1491 84.0114C91.973 84.3485 91.7202 84.6117 91.3906 84.8011C91.063 84.9886 90.67 85.0824 90.2116 85.0824ZM90.2202 84.0341C90.3868 84.0341 90.5279 83.983 90.6435 83.8807C90.759 83.7784 90.8471 83.6364 90.9077 83.4545C90.9702 83.2727 91.0014 83.0625 91.0014 82.8239C91.0014 82.5814 90.9702 82.3693 90.9077 82.1875C90.8471 82.0057 90.759 81.8636 90.6435 81.7614C90.5279 81.6591 90.3868 81.608 90.2202 81.608C90.0478 81.608 89.902 81.6591 89.7827 81.7614C89.6652 81.8636 89.5753 82.0057 89.5128 82.1875C89.4522 82.3693 89.4219 82.5814 89.4219 82.8239C89.4219 83.0625 89.4522 83.2727 89.5128 83.4545C89.5753 83.6364 89.6652 83.7784 89.7827 83.8807C89.902 83.983 90.0478 84.0341 90.2202 84.0341Z" fill="#585B68"/>
<path fill-rule="evenodd" clip-rule="evenodd" d="M117.39 36.1445H117.532C118.523 36.1445 119.458 36.506 120.336 37.229C120.421 37.3194 120.562 37.4701 120.789 37.7111C121.072 37.4098 121.299 37.1989 121.412 37.1085C122.233 36.4458 123.14 36.1445 124.103 36.1445H124.188C125.207 36.1445 126.142 36.506 126.992 37.229C127.247 37.4701 127.445 37.6809 127.586 37.8617C128.238 38.7654 128.578 39.7596 128.578 40.7839V52.6533C128.578 52.6834 128.578 52.6834 128.549 52.6834H126.397C126.369 52.6834 126.369 52.6834 126.369 52.6533V40.8441C126.369 40.0307 126.029 39.3981 125.349 38.8859C124.981 38.6148 124.556 38.4943 124.131 38.4943C123.423 38.4943 122.856 38.7956 122.375 39.4282C122.063 39.85 121.893 40.3018 121.893 40.7839V52.6834H119.713C119.684 52.6834 119.684 52.6834 119.684 52.6533V40.7839C119.684 40.1512 119.429 39.5487 118.891 39.0366C118.466 38.6751 117.985 38.4943 117.475 38.4943C116.71 38.4943 116.087 38.8257 115.606 39.5487C115.351 39.9705 115.238 40.3922 115.238 40.8441V52.6533C115.238 52.6834 115.238 52.6834 115.238 52.6834H113.028C113.028 52.6834 113 52.6834 113 52.6533V41.1152C113 40.1211 113.17 39.3077 113.538 38.6449C113.651 38.3738 113.878 38.0424 114.218 37.6207C114.643 37.1688 114.954 36.8977 115.181 36.8073C115.889 36.3554 116.625 36.1445 117.39 36.1445ZM131.042 36.1445H133.251H133.279V44.2784C133.279 44.9412 133.393 45.4232 133.648 45.7244C133.874 46.0257 134.072 46.1763 134.242 46.2667C134.554 46.4474 135.262 46.7186 136.367 47.0499C136.905 47.2307 137.386 47.3813 137.726 47.5621V36.1445C137.726 36.1445 137.726 36.1445 137.754 36.1445H139.935V51.629C139.935 52.7437 139.567 53.798 138.802 54.7319C138.406 55.1537 138.094 55.4248 137.839 55.5755C137.103 56.0575 136.338 56.2683 135.545 56.2683H135.432C134.327 56.2683 133.308 55.8466 132.401 54.9428C132.09 54.6114 131.863 54.3102 131.693 54.0089C131.24 53.2558 131.042 52.4424 131.042 51.5989V51.5688V51.5386H133.251L133.279 51.5688C133.279 52.3219 133.563 52.9545 134.157 53.4667C134.582 53.7679 135.007 53.9186 135.489 53.9186H135.517C136.197 53.9186 136.791 53.6173 137.273 52.9847C137.585 52.5328 137.726 52.0809 137.726 51.629C137.726 50.7554 137.415 50.1227 136.763 49.7612C136.48 49.5504 135.772 49.2792 134.611 48.9479C133.846 48.7068 133.251 48.4658 132.826 48.1947C132.118 47.773 131.608 47.1403 131.297 46.2968C131.155 45.7847 131.07 45.4232 131.07 45.2123C131.07 45.0918 131.042 44.8809 131.042 44.6399V36.1445ZM142.314 36.1445H144.495C144.524 36.1445 144.524 36.1445 144.524 36.1445V44.4592C145.062 44.2182 145.827 43.947 146.79 43.6759C147.441 43.465 147.894 43.2541 148.149 43.0433C148.517 42.8324 148.744 42.4709 148.885 42.019C148.942 41.8382 148.97 41.5671 148.97 41.1755V36.1445C148.97 36.1445 148.97 36.1445 148.999 36.1445H151.151C151.18 36.1445 151.18 36.1445 151.18 36.1445V41.5671C151.18 42.6215 150.925 43.5253 150.358 44.2784C150.103 44.5797 149.877 44.7905 149.763 44.8508C149.679 44.911 149.65 44.9412 149.622 44.9412V44.9713C150.018 45.3629 150.217 45.5738 150.273 45.6642C150.698 46.2667 150.981 46.9294 151.095 47.6223C151.151 47.8935 151.18 48.1646 151.18 48.4056V52.6533C151.18 52.6834 151.18 52.6834 151.151 52.6834H148.999C148.97 52.6834 148.97 52.6834 148.97 52.6533V48.7068C148.97 47.9537 148.772 47.3813 148.347 46.9294C148.121 46.6282 147.724 46.3872 147.158 46.2064L146.79 46.1161C146.308 46.2667 145.912 46.4173 145.6 46.5981C145.147 46.8391 144.835 47.1704 144.665 47.5621C144.58 47.8031 144.524 48.1646 144.524 48.6466V52.6533C144.524 52.6834 144.524 52.6834 144.495 52.6834H142.314C142.314 52.6834 142.286 52.6834 142.286 52.6533V36.1445H142.314ZM157.949 36.1445H158.062C159.082 36.1445 160.016 36.506 160.838 37.229C161.149 37.4701 161.348 37.7111 161.461 37.8617C162.112 38.7654 162.452 39.7596 162.452 40.7839V43.6759C162.452 44.7604 162.112 45.7244 161.433 46.6583C161.149 47.0198 160.894 47.2608 160.668 47.4416C159.847 48.0742 158.969 48.3755 158.006 48.3755C156.816 48.3755 155.796 47.9236 154.89 47.0198C154.522 46.6282 154.267 46.2667 154.097 45.8751C153.729 45.2123 153.559 44.3989 153.559 43.4349V41.1152C153.559 40.1211 153.729 39.2776 154.097 38.6148C154.239 38.3136 154.465 37.9822 154.805 37.5604C155.202 37.1688 155.513 36.8977 155.711 36.8073C156.419 36.3554 157.184 36.1445 157.949 36.1445ZM155.796 40.814V43.6759C155.796 44.3989 156.08 45.0315 156.674 45.5437C157.071 45.8449 157.496 46.0257 157.921 46.0257H158.062C158.685 46.0257 159.252 45.7244 159.733 45.1219C160.073 44.67 160.243 44.188 160.243 43.6759V40.814C160.243 40.1512 159.988 39.5487 159.45 39.0366C159.025 38.6751 158.544 38.4943 158.034 38.4943H158.006C157.269 38.4943 156.646 38.8257 156.165 39.5487C155.91 39.9705 155.796 40.3922 155.796 40.814ZM153.587 50.3336H162.424C162.452 50.3336 162.452 50.3336 162.452 50.3637V52.6533C162.452 52.6834 162.452 52.6834 162.424 52.6834H153.587C153.559 52.6834 153.559 52.6834 153.559 52.6533V50.3637L153.587 50.3336ZM169.42 52.6834C168.457 52.6834 167.55 52.352 166.729 51.6893C166.502 51.5085 166.276 51.2675 166.021 50.9361C165.37 50.0926 165.03 49.0081 165.03 47.7428V36.1445C165.03 36.1445 165.03 36.1445 165.058 36.1445H167.239H167.267V37.1085C167.267 37.5303 167.296 37.8014 167.352 37.9822C167.465 38.4341 167.72 38.7956 168.089 39.0366C168.315 39.1872 168.627 39.368 168.967 39.4885L170.949 40.091C171.572 40.332 172.11 40.6031 172.535 40.9345C172.705 41.0851 172.903 41.296 173.158 41.5671C173.668 42.2901 173.923 43.1939 173.923 44.2182V48.014C173.923 48.8273 173.697 49.6106 173.3 50.3637C173.187 50.6048 172.932 50.9361 172.535 51.388C171.629 52.2617 170.638 52.6834 169.533 52.6834H169.42ZM167.267 47.9838C167.267 48.4658 167.409 48.9177 167.692 49.3395C168.174 50.0022 168.768 50.3336 169.448 50.3336H169.505C169.958 50.3336 170.383 50.183 170.779 49.8817C171.402 49.3395 171.714 48.7068 171.714 47.9838V44.6098C171.714 44.1278 171.657 43.7663 171.544 43.5253C171.346 43.0433 170.949 42.6818 170.326 42.4106C170.043 42.26 169.76 42.1696 169.476 42.1094C168.4 41.778 167.664 41.5069 167.267 41.3261V47.9838ZM180.494 36.1445H180.579C181.599 36.1445 182.533 36.506 183.383 37.229C183.666 37.4701 183.865 37.7111 183.978 37.8617C184.658 38.7654 184.969 39.7596 184.969 40.7839V43.6759C184.969 44.7604 184.629 45.7244 183.978 46.6583C183.666 47.0198 183.411 47.2608 183.185 47.4416C182.363 48.0742 181.485 48.3755 180.522 48.3755C179.361 48.3755 178.313 47.9236 177.407 47.0198C177.067 46.6282 176.784 46.2667 176.614 45.8751C176.274 45.2123 176.076 44.3989 176.076 43.4349V41.1152C176.076 40.1211 176.274 39.2776 176.614 38.6148C176.755 38.3136 176.982 37.9822 177.322 37.5604C177.718 37.1688 178.03 36.8977 178.228 36.8073C178.936 36.3554 179.701 36.1445 180.494 36.1445ZM178.313 40.814V43.6759C178.313 44.3989 178.625 45.0315 179.191 45.5437C179.616 45.8449 180.013 46.0257 180.437 46.0257H180.579C181.231 46.0257 181.769 45.7244 182.278 45.1219C182.59 44.67 182.76 44.188 182.76 43.6759V40.814C182.76 40.1512 182.505 39.5487 181.995 39.0366C181.542 38.6751 181.061 38.4943 180.551 38.4943H180.522C179.786 38.4943 179.191 38.8257 178.681 39.5487C178.455 39.9705 178.313 40.3922 178.313 40.814ZM176.104 50.3336H184.941C184.969 50.3336 184.969 50.3336 184.969 50.3637V52.6533C184.969 52.6834 184.969 52.6834 184.941 52.6834H176.104C176.104 52.6834 176.076 52.6834 176.076 52.6533V50.3637L176.104 50.3336Z" fill="#FFFDF7"/>
<path fill-rule="evenodd" clip-rule="evenodd" d="M158.033 36.0391C160.469 36.0391 162.48 38.178 162.48 40.7989V43.7211C162.48 46.342 160.469 48.4508 158.033 48.4508C155.569 48.4508 153.558 46.342 153.558 43.7211V40.7989C153.558 38.178 155.569 36.0391 158.033 36.0391Z" fill="#FFFDF7"/>
<path fill-rule="evenodd" clip-rule="evenodd" d="M180.553 36C182.988 36 185 38.1389 185 40.7598V43.682C185 46.3029 182.988 48.4117 180.553 48.4117C178.088 48.4117 176.077 46.3029 176.077 43.682V40.7598C176.077 38.1389 178.088 36 180.553 36Z" fill="#FFFDF7"/>
<defs>
<linearGradient id="paint0_linear_2843_208" x1="150" y1="0" x2="150" y2="302" gradientUnits="userSpaceOnUse">
<stop offset="0.355769" stop-color="#929292"/>
<stop offset="0.7" stop-color="#585B68"/>
</linearGradient>
<linearGradient id="paint1_linear_2843_208" x1="149" y1="67" x2="149" y2="97" gradientUnits="userSpaceOnUse">
<stop stop-color="#ECECEC"/>
<stop offset="1" stop-color="#D1D0D0"/>
</linearGradient>
<clipPath id="clip0_2843_208">
<rect width="14" height="14" fill="white" transform="translate(227 116.719)"/>
</clipPath>
<clipPath id="clip1_2843_208">
<rect width="14" height="14" fill="white" transform="translate(142 116.719)"/>
</clipPath>
<clipPath id="clip2_2843_208">
<rect width="14" height="14" fill="white" transform="translate(57 116.719)"/>
</clipPath>
<clipPath id="clip3_2843_208">
<rect width="6.65" height="5.85833" fill="white" transform="translate(60.3252 120.52)"/>
</clipPath>
</defs>
</svg>
