<svg width="300" height="271" viewBox="0 0 300 271" fill="none" xmlns="http://www.w3.org/2000/svg">
<rect width="300" height="271" rx="10" fill="url(#paint0_linear_2814_124)"/>
<rect x="25" y="93" width="250" height="146" rx="10" fill="#646873" fill-opacity="0.5"/>
<rect x="49" y="179" width="200" height="30" rx="10" fill="#00A0FF"/>
<path d="M137.208 192.926C137.189 192.718 137.105 192.556 136.955 192.44C136.808 192.323 136.596 192.264 136.322 192.264C136.14 192.264 135.988 192.288 135.867 192.335C135.746 192.383 135.655 192.448 135.595 192.531C135.534 192.613 135.503 192.706 135.501 192.812C135.497 192.9 135.514 192.976 135.552 193.043C135.592 193.109 135.649 193.168 135.722 193.219C135.798 193.268 135.889 193.312 135.995 193.349C136.101 193.387 136.22 193.42 136.353 193.449L136.853 193.562C137.141 193.625 137.395 193.708 137.614 193.812C137.836 193.917 138.022 194.041 138.171 194.185C138.323 194.329 138.437 194.494 138.515 194.682C138.593 194.869 138.632 195.08 138.634 195.312C138.632 195.68 138.54 195.995 138.356 196.259C138.172 196.522 137.908 196.723 137.563 196.864C137.22 197.004 136.807 197.074 136.322 197.074C135.835 197.074 135.411 197.001 135.049 196.855C134.687 196.709 134.406 196.488 134.205 196.19C134.005 195.893 133.901 195.517 133.896 195.062H135.242C135.254 195.25 135.304 195.406 135.393 195.531C135.482 195.656 135.604 195.751 135.759 195.815C135.916 195.88 136.098 195.912 136.305 195.912C136.494 195.912 136.655 195.886 136.788 195.835C136.922 195.784 137.025 195.713 137.097 195.622C137.169 195.531 137.206 195.427 137.208 195.31C137.206 195.2 137.172 195.106 137.106 195.028C137.04 194.949 136.937 194.881 136.799 194.824C136.663 194.765 136.488 194.711 136.276 194.662L135.668 194.52C135.165 194.404 134.768 194.218 134.478 193.96C134.188 193.701 134.044 193.35 134.046 192.909C134.044 192.549 134.141 192.234 134.336 191.963C134.531 191.692 134.801 191.481 135.146 191.33C135.49 191.178 135.883 191.102 136.325 191.102C136.775 191.102 137.166 191.179 137.498 191.332C137.831 191.484 138.09 191.697 138.274 191.972C138.457 192.246 138.551 192.564 138.555 192.926H137.208ZM141.381 197.082C140.923 197.082 140.529 196.989 140.2 196.801C139.872 196.612 139.619 196.348 139.441 196.011C139.265 195.672 139.177 195.279 139.177 194.832C139.177 194.384 139.265 193.991 139.441 193.653C139.619 193.314 139.872 193.051 140.2 192.864C140.529 192.674 140.923 192.58 141.381 192.58C141.84 192.58 142.233 192.674 142.56 192.864C142.89 193.051 143.143 193.314 143.319 193.653C143.497 193.991 143.586 194.384 143.586 194.832C143.586 195.279 143.497 195.672 143.319 196.011C143.143 196.348 142.89 196.612 142.56 196.801C142.233 196.989 141.84 197.082 141.381 197.082ZM141.39 196.034C141.557 196.034 141.698 195.983 141.813 195.881C141.929 195.778 142.017 195.636 142.077 195.455C142.14 195.273 142.171 195.062 142.171 194.824C142.171 194.581 142.14 194.369 142.077 194.188C142.017 194.006 141.929 193.864 141.813 193.761C141.698 193.659 141.557 193.608 141.39 193.608C141.218 193.608 141.072 193.659 140.952 193.761C140.835 193.864 140.745 194.006 140.683 194.188C140.622 194.369 140.592 194.581 140.592 194.824C140.592 195.062 140.622 195.273 140.683 195.455C140.745 195.636 140.835 195.778 140.952 195.881C141.072 195.983 141.218 196.034 141.39 196.034ZM145.687 191.182V197H144.298V191.182H145.687ZM149.051 192.636V193.659H146.244V192.636H149.051ZM146.83 197V192.415C146.83 192.078 146.893 191.798 147.02 191.577C147.147 191.353 147.323 191.187 147.548 191.077C147.774 190.965 148.034 190.909 148.33 190.909C148.523 190.909 148.705 190.924 148.875 190.955C149.047 190.983 149.175 191.009 149.259 191.031L149.037 192.048C148.986 192.031 148.923 192.017 148.849 192.006C148.778 191.994 148.709 191.989 148.645 191.989C148.482 191.989 148.37 192.025 148.31 192.097C148.249 192.169 148.219 192.267 148.219 192.392V197H146.83ZM151.109 191.182V197H149.72V191.182H151.109ZM153.223 197.074C152.945 197.074 152.698 197.027 152.482 196.935C152.268 196.84 152.098 196.698 151.973 196.509C151.85 196.317 151.788 196.078 151.788 195.79C151.788 195.547 151.831 195.343 151.916 195.176C152.001 195.009 152.119 194.874 152.269 194.77C152.418 194.666 152.591 194.587 152.786 194.534C152.981 194.479 153.189 194.442 153.411 194.423C153.659 194.401 153.858 194.377 154.01 194.352C154.162 194.326 154.271 194.289 154.34 194.241C154.41 194.192 154.445 194.123 154.445 194.034V194.02C154.445 193.874 154.394 193.761 154.294 193.682C154.194 193.602 154.058 193.562 153.888 193.562C153.704 193.562 153.556 193.602 153.445 193.682C153.333 193.761 153.262 193.871 153.232 194.011L151.95 193.966C151.988 193.701 152.086 193.464 152.243 193.256C152.402 193.045 152.62 192.881 152.896 192.761C153.175 192.64 153.509 192.58 153.899 192.58C154.178 192.58 154.434 192.613 154.669 192.679C154.904 192.743 155.108 192.838 155.283 192.963C155.457 193.086 155.591 193.238 155.686 193.418C155.783 193.598 155.831 193.803 155.831 194.034V197H154.524V196.392H154.49C154.412 196.54 154.313 196.665 154.192 196.767C154.073 196.869 153.931 196.946 153.769 196.997C153.608 197.048 153.426 197.074 153.223 197.074ZM153.652 196.165C153.802 196.165 153.936 196.134 154.055 196.074C154.177 196.013 154.273 195.93 154.345 195.824C154.417 195.716 154.453 195.591 154.453 195.449V195.034C154.413 195.055 154.365 195.074 154.308 195.091C154.253 195.108 154.193 195.124 154.126 195.139C154.06 195.154 153.992 195.168 153.922 195.179C153.852 195.19 153.785 195.201 153.72 195.21C153.59 195.231 153.478 195.263 153.385 195.307C153.294 195.35 153.224 195.407 153.175 195.477C153.127 195.545 153.104 195.627 153.104 195.722C153.104 195.866 153.155 195.975 153.257 196.051C153.361 196.127 153.493 196.165 153.652 196.165ZM156.68 197V192.636H158.03V193.432H158.075C158.155 193.144 158.285 192.93 158.465 192.79C158.644 192.648 158.854 192.577 159.092 192.577C159.157 192.577 159.223 192.581 159.291 192.591C159.359 192.598 159.423 192.611 159.482 192.628V193.835C159.415 193.812 159.328 193.795 159.22 193.781C159.114 193.768 159.019 193.761 158.936 193.761C158.771 193.761 158.623 193.798 158.49 193.872C158.359 193.944 158.256 194.045 158.18 194.176C158.107 194.305 158.07 194.456 158.07 194.631V197H156.68ZM161.861 197.082C161.404 197.082 161.01 196.992 160.679 196.812C160.349 196.631 160.096 196.372 159.918 196.037C159.742 195.7 159.653 195.299 159.653 194.835C159.653 194.384 159.742 193.991 159.921 193.653C160.099 193.314 160.349 193.051 160.673 192.864C160.997 192.674 161.379 192.58 161.818 192.58C162.129 192.58 162.413 192.628 162.671 192.724C162.928 192.821 163.151 192.964 163.338 193.153C163.526 193.343 163.671 193.577 163.776 193.855C163.88 194.132 163.932 194.449 163.932 194.807V195.153H160.139V194.347H162.639C162.637 194.199 162.602 194.067 162.534 193.952C162.466 193.836 162.372 193.746 162.253 193.682C162.135 193.616 162 193.582 161.847 193.582C161.691 193.582 161.552 193.617 161.429 193.688C161.306 193.756 161.208 193.849 161.136 193.969C161.064 194.086 161.027 194.22 161.023 194.369V195.19C161.023 195.368 161.058 195.525 161.128 195.659C161.198 195.792 161.297 195.895 161.426 195.969C161.555 196.043 161.708 196.08 161.886 196.08C162.01 196.08 162.121 196.062 162.222 196.028C162.322 195.994 162.408 195.944 162.48 195.878C162.552 195.812 162.606 195.73 162.642 195.634L163.918 195.67C163.865 195.956 163.748 196.205 163.568 196.418C163.39 196.628 163.156 196.792 162.867 196.909C162.577 197.025 162.242 197.082 161.861 197.082Z" fill="#FFFDF7"/>
<rect x="50" y="135" width="200" height="30" rx="10" fill="#00A0FF"/>
<path d="M131.667 153V147.182H134.07C134.506 147.182 134.882 147.267 135.198 147.438C135.516 147.606 135.762 147.842 135.934 148.145C136.106 148.446 136.192 148.796 136.192 149.196C136.192 149.598 136.104 149.949 135.928 150.25C135.754 150.549 135.505 150.781 135.181 150.946C134.857 151.111 134.473 151.193 134.028 151.193H132.545V150.085H133.766C133.978 150.085 134.156 150.048 134.298 149.974C134.442 149.901 134.55 149.797 134.624 149.665C134.698 149.53 134.735 149.374 134.735 149.196C134.735 149.016 134.698 148.861 134.624 148.73C134.55 148.598 134.442 148.495 134.298 148.423C134.154 148.351 133.977 148.315 133.766 148.315H133.073V153H131.667ZM138.275 150.511V153H136.886V147.182H138.229V149.438H138.278C138.376 149.169 138.537 148.958 138.761 148.807C138.986 148.655 139.262 148.58 139.587 148.58C139.894 148.58 140.161 148.648 140.388 148.784C140.616 148.919 140.792 149.109 140.917 149.355C141.044 149.601 141.106 149.889 141.104 150.219V153H139.715V150.491C139.717 150.249 139.656 150.06 139.533 149.923C139.41 149.787 139.237 149.719 139.013 149.719C138.868 149.719 138.739 149.751 138.627 149.815C138.517 149.878 138.431 149.968 138.369 150.085C138.308 150.203 138.277 150.345 138.275 150.511ZM143.202 153.074C142.923 153.074 142.676 153.027 142.46 152.935C142.246 152.84 142.077 152.698 141.952 152.509C141.829 152.317 141.767 152.078 141.767 151.79C141.767 151.547 141.81 151.343 141.895 151.176C141.98 151.009 142.098 150.874 142.247 150.77C142.397 150.666 142.569 150.587 142.764 150.534C142.959 150.479 143.168 150.442 143.389 150.423C143.637 150.401 143.837 150.377 143.989 150.352C144.14 150.326 144.25 150.289 144.318 150.241C144.388 150.192 144.423 150.123 144.423 150.034V150.02C144.423 149.874 144.373 149.761 144.273 149.682C144.172 149.602 144.037 149.562 143.866 149.562C143.683 149.562 143.535 149.602 143.423 149.682C143.312 149.761 143.241 149.871 143.21 150.011L141.929 149.966C141.967 149.701 142.064 149.464 142.222 149.256C142.381 149.045 142.598 148.881 142.875 148.761C143.153 148.64 143.488 148.58 143.878 148.58C144.156 148.58 144.413 148.613 144.648 148.679C144.883 148.743 145.087 148.838 145.261 148.963C145.436 149.086 145.57 149.238 145.665 149.418C145.761 149.598 145.81 149.803 145.81 150.034V153H144.503V152.392H144.469C144.391 152.54 144.292 152.665 144.17 152.767C144.051 152.869 143.91 152.946 143.747 152.997C143.586 153.048 143.404 153.074 143.202 153.074ZM143.631 152.165C143.78 152.165 143.915 152.134 144.034 152.074C144.155 152.013 144.252 151.93 144.324 151.824C144.396 151.716 144.432 151.591 144.432 151.449V151.034C144.392 151.055 144.344 151.074 144.287 151.091C144.232 151.108 144.171 151.124 144.105 151.139C144.039 151.154 143.971 151.168 143.901 151.179C143.83 151.19 143.763 151.201 143.699 151.21C143.568 151.231 143.456 151.263 143.364 151.307C143.273 151.35 143.203 151.407 143.153 151.477C143.106 151.545 143.082 151.627 143.082 151.722C143.082 151.866 143.134 151.975 143.236 152.051C143.34 152.127 143.472 152.165 143.631 152.165ZM148.048 150.511V153H146.659V148.636H147.98V149.438H148.028C148.125 149.17 148.29 148.961 148.523 148.81C148.756 148.656 149.033 148.58 149.355 148.58C149.662 148.58 149.928 148.649 150.153 148.787C150.381 148.923 150.557 149.115 150.682 149.361C150.809 149.605 150.871 149.891 150.869 150.219V153H149.48V150.491C149.482 150.249 149.42 150.06 149.295 149.923C149.172 149.787 149.001 149.719 148.781 149.719C148.635 149.719 148.507 149.751 148.395 149.815C148.285 149.878 148.2 149.968 148.139 150.085C148.08 150.203 148.05 150.345 148.048 150.511ZM154.192 148.636V149.659H151.44V148.636H154.192ZM152.016 147.591H153.406V151.628C153.406 151.713 153.419 151.782 153.445 151.835C153.474 151.886 153.514 151.923 153.567 151.946C153.621 151.967 153.684 151.977 153.758 151.977C153.811 151.977 153.867 151.973 153.925 151.963C153.986 151.952 154.031 151.942 154.062 151.935L154.272 152.938C154.206 152.956 154.112 152.98 153.991 153.009C153.871 153.037 153.728 153.055 153.562 153.062C153.236 153.078 152.957 153.04 152.724 152.949C152.493 152.856 152.316 152.712 152.192 152.517C152.071 152.322 152.013 152.077 152.016 151.781V147.591ZM156.891 153.082C156.433 153.082 156.039 152.989 155.71 152.801C155.382 152.612 155.129 152.348 154.951 152.011C154.775 151.672 154.687 151.279 154.687 150.832C154.687 150.384 154.775 149.991 154.951 149.653C155.129 149.314 155.382 149.051 155.71 148.864C156.039 148.674 156.433 148.58 156.891 148.58C157.35 148.58 157.743 148.674 158.07 148.864C158.4 149.051 158.653 149.314 158.829 149.653C159.007 149.991 159.096 150.384 159.096 150.832C159.096 151.279 159.007 151.672 158.829 152.011C158.653 152.348 158.4 152.612 158.07 152.801C157.743 152.989 157.35 153.082 156.891 153.082ZM156.9 152.034C157.067 152.034 157.208 151.983 157.323 151.881C157.439 151.778 157.527 151.636 157.587 151.455C157.65 151.273 157.681 151.062 157.681 150.824C157.681 150.581 157.65 150.369 157.587 150.188C157.527 150.006 157.439 149.864 157.323 149.761C157.208 149.659 157.067 149.608 156.9 149.608C156.728 149.608 156.582 149.659 156.462 149.761C156.345 149.864 156.255 150.006 156.192 150.188C156.132 150.369 156.102 150.581 156.102 150.824C156.102 151.062 156.132 151.273 156.192 151.455C156.255 151.636 156.345 151.778 156.462 151.881C156.582 151.983 156.728 152.034 156.9 152.034ZM159.808 153V148.636H161.129V149.438H161.177C161.268 149.172 161.421 148.963 161.637 148.81C161.853 148.656 162.111 148.58 162.41 148.58C162.713 148.58 162.972 148.657 163.188 148.812C163.404 148.968 163.541 149.176 163.6 149.438H163.646C163.727 149.178 163.886 148.971 164.123 148.815C164.36 148.658 164.639 148.58 164.961 148.58C165.374 148.58 165.709 148.712 165.967 148.977C166.224 149.241 166.353 149.602 166.353 150.062V153H164.964V150.381C164.964 150.163 164.908 149.997 164.796 149.884C164.684 149.768 164.54 149.71 164.362 149.71C164.17 149.71 164.02 149.773 163.91 149.898C163.802 150.021 163.748 150.187 163.748 150.395V153H162.413V150.366C162.413 150.164 162.358 150.004 162.248 149.886C162.138 149.769 161.993 149.71 161.813 149.71C161.692 149.71 161.585 149.74 161.492 149.798C161.399 149.855 161.326 149.937 161.273 150.043C161.222 150.149 161.197 150.274 161.197 150.418V153H159.808Z" fill="#FFFDF7"/>
<path d="M111.554 107.145H110.491C110.461 106.971 110.405 106.816 110.324 106.682C110.242 106.545 110.141 106.43 110.02 106.335C109.899 106.241 109.76 106.17 109.605 106.122C109.452 106.073 109.286 106.048 109.108 106.048C108.792 106.048 108.511 106.128 108.267 106.287C108.023 106.444 107.831 106.675 107.693 106.98C107.555 107.283 107.486 107.653 107.486 108.091C107.486 108.536 107.555 108.911 107.693 109.216C107.833 109.519 108.025 109.748 108.267 109.903C108.511 110.057 108.791 110.134 109.105 110.134C109.279 110.134 109.442 110.111 109.594 110.065C109.747 110.018 109.884 109.949 110.006 109.858C110.129 109.767 110.232 109.655 110.315 109.523C110.401 109.39 110.459 109.239 110.491 109.068L111.554 109.074C111.514 109.35 111.428 109.61 111.295 109.852C111.165 110.095 110.993 110.309 110.781 110.494C110.569 110.678 110.321 110.822 110.037 110.926C109.753 111.028 109.438 111.08 109.091 111.08C108.58 111.08 108.123 110.961 107.722 110.724C107.32 110.488 107.004 110.146 106.773 109.699C106.542 109.252 106.426 108.716 106.426 108.091C106.426 107.464 106.543 106.928 106.776 106.483C107.009 106.036 107.326 105.694 107.727 105.457C108.129 105.221 108.583 105.102 109.091 105.102C109.415 105.102 109.716 105.148 109.994 105.239C110.273 105.33 110.521 105.463 110.739 105.639C110.956 105.813 111.135 106.027 111.276 106.281C111.418 106.533 111.51 106.821 111.554 107.145ZM114.377 111.085C113.951 111.085 113.582 110.991 113.269 110.804C112.957 110.616 112.714 110.354 112.542 110.017C112.371 109.68 112.286 109.286 112.286 108.835C112.286 108.384 112.371 107.99 112.542 107.651C112.714 107.312 112.957 107.048 113.269 106.861C113.582 106.673 113.951 106.58 114.377 106.58C114.803 106.58 115.173 106.673 115.485 106.861C115.798 107.048 116.039 107.312 116.21 107.651C116.382 107.99 116.468 108.384 116.468 108.835C116.468 109.286 116.382 109.68 116.21 110.017C116.039 110.354 115.798 110.616 115.485 110.804C115.173 110.991 114.803 111.085 114.377 111.085ZM114.383 110.261C114.614 110.261 114.807 110.198 114.962 110.071C115.118 109.942 115.233 109.77 115.309 109.554C115.387 109.338 115.425 109.098 115.425 108.832C115.425 108.565 115.387 108.324 115.309 108.108C115.233 107.89 115.118 107.717 114.962 107.588C114.807 107.459 114.614 107.395 114.383 107.395C114.146 107.395 113.949 107.459 113.792 107.588C113.637 107.717 113.52 107.89 113.442 108.108C113.367 108.324 113.329 108.565 113.329 108.832C113.329 109.098 113.367 109.338 113.442 109.554C113.52 109.77 113.637 109.942 113.792 110.071C113.949 110.198 114.146 110.261 114.383 110.261ZM118.369 108.443V111H117.341V106.636H118.324V107.378H118.375C118.475 107.134 118.635 106.939 118.855 106.795C119.077 106.652 119.35 106.58 119.676 106.58C119.977 106.58 120.24 106.644 120.463 106.773C120.688 106.902 120.863 107.088 120.986 107.332C121.111 107.577 121.172 107.873 121.17 108.222V111H120.142V108.381C120.142 108.089 120.066 107.861 119.915 107.696C119.765 107.531 119.558 107.449 119.293 107.449C119.113 107.449 118.953 107.489 118.812 107.568C118.674 107.646 118.565 107.759 118.486 107.906C118.408 108.054 118.369 108.233 118.369 108.443ZM123.244 108.443V111H122.216V106.636H123.199V107.378H123.25C123.35 107.134 123.51 106.939 123.73 106.795C123.952 106.652 124.225 106.58 124.551 106.58C124.852 106.58 125.115 106.644 125.338 106.773C125.563 106.902 125.738 107.088 125.861 107.332C125.986 107.577 126.047 107.873 126.045 108.222V111H125.017V108.381C125.017 108.089 124.941 107.861 124.79 107.696C124.64 107.531 124.433 107.449 124.168 107.449C123.988 107.449 123.828 107.489 123.688 107.568C123.549 107.646 123.44 107.759 123.361 107.906C123.283 108.054 123.244 108.233 123.244 108.443ZM129.023 111.085C128.585 111.085 128.207 110.994 127.889 110.812C127.573 110.629 127.33 110.369 127.159 110.034C126.989 109.697 126.903 109.3 126.903 108.844C126.903 108.395 126.989 108.001 127.159 107.662C127.331 107.321 127.572 107.056 127.881 106.866C128.189 106.675 128.552 106.58 128.969 106.58C129.238 106.58 129.491 106.623 129.73 106.71C129.971 106.795 130.183 106.928 130.366 107.108C130.552 107.288 130.698 107.517 130.804 107.795C130.91 108.072 130.963 108.402 130.963 108.784V109.099H127.386V108.406H129.977C129.975 108.209 129.933 108.034 129.849 107.881C129.766 107.725 129.65 107.603 129.5 107.514C129.352 107.425 129.18 107.381 128.983 107.381C128.773 107.381 128.588 107.432 128.429 107.534C128.27 107.634 128.146 107.767 128.057 107.932C127.97 108.095 127.925 108.274 127.923 108.469V109.074C127.923 109.328 127.97 109.545 128.062 109.727C128.155 109.907 128.285 110.045 128.452 110.142C128.618 110.237 128.813 110.284 129.037 110.284C129.187 110.284 129.322 110.263 129.443 110.222C129.564 110.178 129.67 110.115 129.759 110.031C129.848 109.948 129.915 109.845 129.96 109.722L130.92 109.83C130.86 110.083 130.744 110.305 130.574 110.494C130.405 110.682 130.189 110.828 129.926 110.932C129.663 111.034 129.362 111.085 129.023 111.085ZM133.737 111.085C133.301 111.085 132.927 110.99 132.614 110.798C132.304 110.607 132.064 110.343 131.896 110.006C131.729 109.667 131.646 109.277 131.646 108.835C131.646 108.392 131.731 108.001 131.901 107.662C132.072 107.321 132.312 107.056 132.623 106.866C132.935 106.675 133.305 106.58 133.731 106.58C134.085 106.58 134.398 106.645 134.671 106.776C134.946 106.904 135.165 107.087 135.327 107.324C135.49 107.559 135.583 107.833 135.606 108.148H134.623C134.583 107.937 134.488 107.762 134.339 107.622C134.191 107.48 133.993 107.409 133.745 107.409C133.535 107.409 133.35 107.466 133.191 107.58C133.032 107.691 132.908 107.852 132.819 108.062C132.732 108.273 132.688 108.525 132.688 108.818C132.688 109.116 132.732 109.371 132.819 109.585C132.906 109.797 133.028 109.961 133.185 110.077C133.344 110.19 133.531 110.247 133.745 110.247C133.897 110.247 134.032 110.219 134.151 110.162C134.272 110.103 134.374 110.019 134.455 109.909C134.537 109.799 134.593 109.666 134.623 109.509H135.606C135.581 109.817 135.49 110.091 135.333 110.33C135.176 110.566 134.962 110.752 134.691 110.886C134.42 111.019 134.102 111.085 133.737 111.085ZM138.629 106.636V107.432H136.121V106.636H138.629ZM136.74 105.591H137.768V109.688C137.768 109.826 137.789 109.932 137.831 110.006C137.875 110.078 137.931 110.127 138.001 110.153C138.071 110.18 138.149 110.193 138.234 110.193C138.299 110.193 138.357 110.188 138.411 110.179C138.465 110.17 138.507 110.161 138.536 110.153L138.709 110.957C138.654 110.976 138.575 110.997 138.473 111.02C138.373 111.043 138.25 111.056 138.104 111.06C137.846 111.067 137.614 111.028 137.408 110.943C137.201 110.856 137.037 110.722 136.916 110.54C136.797 110.358 136.738 110.131 136.74 109.858V105.591ZM144.681 106.781C144.655 106.533 144.543 106.34 144.346 106.202C144.151 106.063 143.897 105.994 143.585 105.994C143.365 105.994 143.176 106.027 143.019 106.094C142.862 106.16 142.742 106.25 142.658 106.364C142.575 106.477 142.532 106.607 142.531 106.753C142.531 106.874 142.558 106.979 142.613 107.068C142.67 107.157 142.746 107.233 142.843 107.295C142.94 107.356 143.047 107.407 143.164 107.449C143.281 107.491 143.4 107.526 143.519 107.554L144.065 107.69C144.284 107.741 144.496 107.811 144.698 107.898C144.903 107.985 145.085 108.095 145.246 108.227C145.409 108.36 145.538 108.52 145.633 108.707C145.728 108.895 145.775 109.115 145.775 109.366C145.775 109.707 145.688 110.008 145.513 110.267C145.339 110.525 145.087 110.726 144.758 110.872C144.43 111.016 144.033 111.088 143.567 111.088C143.115 111.088 142.722 111.018 142.388 110.878C142.057 110.738 141.798 110.533 141.61 110.264C141.424 109.995 141.324 109.668 141.309 109.281H142.346C142.361 109.484 142.424 109.652 142.533 109.787C142.643 109.921 142.786 110.022 142.962 110.088C143.14 110.154 143.339 110.188 143.559 110.188C143.788 110.188 143.989 110.153 144.161 110.085C144.335 110.015 144.472 109.919 144.57 109.795C144.669 109.67 144.719 109.525 144.721 109.358C144.719 109.206 144.674 109.081 144.587 108.983C144.5 108.883 144.378 108.799 144.221 108.733C144.066 108.665 143.884 108.604 143.675 108.551L143.013 108.381C142.534 108.258 142.156 108.071 141.877 107.821C141.601 107.569 141.462 107.235 141.462 106.818C141.462 106.475 141.555 106.175 141.741 105.918C141.928 105.66 142.183 105.46 142.505 105.318C142.827 105.174 143.192 105.102 143.599 105.102C144.012 105.102 144.373 105.174 144.684 105.318C144.996 105.46 145.242 105.658 145.42 105.912C145.598 106.164 145.69 106.454 145.695 106.781H144.681ZM148.572 111.085C148.146 111.085 147.777 110.991 147.464 110.804C147.152 110.616 146.91 110.354 146.737 110.017C146.567 109.68 146.482 109.286 146.482 108.835C146.482 108.384 146.567 107.99 146.737 107.651C146.91 107.312 147.152 107.048 147.464 106.861C147.777 106.673 148.146 106.58 148.572 106.58C148.999 106.58 149.368 106.673 149.68 106.861C149.993 107.048 150.234 107.312 150.405 107.651C150.577 107.99 150.663 108.384 150.663 108.835C150.663 109.286 150.577 109.68 150.405 110.017C150.234 110.354 149.993 110.616 149.68 110.804C149.368 110.991 148.999 111.085 148.572 111.085ZM148.578 110.261C148.809 110.261 149.002 110.198 149.158 110.071C149.313 109.942 149.429 109.77 149.504 109.554C149.582 109.338 149.621 109.098 149.621 108.832C149.621 108.565 149.582 108.324 149.504 108.108C149.429 107.89 149.313 107.717 149.158 107.588C149.002 107.459 148.809 107.395 148.578 107.395C148.341 107.395 148.144 107.459 147.987 107.588C147.832 107.717 147.715 107.89 147.638 108.108C147.562 108.324 147.524 108.565 147.524 108.832C147.524 109.098 147.562 109.338 147.638 109.554C147.715 109.77 147.832 109.942 147.987 110.071C148.144 110.198 148.341 110.261 148.578 110.261ZM152.565 105.182V111H151.536V105.182H152.565ZM154.878 111.088C154.601 111.088 154.352 111.039 154.131 110.94C153.911 110.84 153.737 110.692 153.608 110.497C153.481 110.302 153.418 110.062 153.418 109.776C153.418 109.529 153.463 109.326 153.554 109.165C153.645 109.004 153.769 108.875 153.926 108.778C154.083 108.682 154.26 108.609 154.457 108.56C154.656 108.509 154.862 108.472 155.074 108.449C155.33 108.422 155.537 108.399 155.696 108.378C155.855 108.355 155.971 108.321 156.043 108.276C156.116 108.228 156.153 108.155 156.153 108.057V108.04C156.153 107.826 156.09 107.66 155.963 107.543C155.836 107.425 155.653 107.366 155.415 107.366C155.163 107.366 154.963 107.421 154.815 107.531C154.67 107.641 154.571 107.771 154.52 107.92L153.56 107.784C153.635 107.519 153.76 107.297 153.935 107.119C154.109 106.939 154.322 106.805 154.574 106.716C154.826 106.625 155.104 106.58 155.409 106.58C155.619 106.58 155.829 106.604 156.037 106.653C156.245 106.703 156.436 106.784 156.608 106.898C156.78 107.009 156.919 107.162 157.023 107.355C157.129 107.548 157.182 107.79 157.182 108.08V111H156.193V110.401H156.159C156.097 110.522 156.009 110.635 155.895 110.741C155.783 110.846 155.642 110.93 155.472 110.994C155.303 111.057 155.105 111.088 154.878 111.088ZM155.145 110.332C155.351 110.332 155.53 110.292 155.682 110.21C155.833 110.127 155.95 110.017 156.031 109.881C156.115 109.744 156.156 109.596 156.156 109.435V108.92C156.124 108.947 156.069 108.972 155.991 108.994C155.916 109.017 155.83 109.037 155.736 109.054C155.641 109.071 155.547 109.086 155.455 109.099C155.362 109.113 155.281 109.124 155.213 109.134C155.06 109.154 154.922 109.188 154.801 109.236C154.68 109.283 154.584 109.349 154.514 109.435C154.444 109.518 154.409 109.626 154.409 109.759C154.409 109.948 154.478 110.091 154.616 110.188C154.755 110.284 154.931 110.332 155.145 110.332ZM159.244 108.443V111H158.216V106.636H159.199V107.378H159.25C159.35 107.134 159.51 106.939 159.73 106.795C159.952 106.652 160.225 106.58 160.551 106.58C160.852 106.58 161.115 106.644 161.338 106.773C161.563 106.902 161.738 107.088 161.861 107.332C161.986 107.577 162.047 107.873 162.045 108.222V111H161.017V108.381C161.017 108.089 160.941 107.861 160.79 107.696C160.64 107.531 160.433 107.449 160.168 107.449C159.988 107.449 159.828 107.489 159.688 107.568C159.549 107.646 159.44 107.759 159.361 107.906C159.283 108.054 159.244 108.233 159.244 108.443ZM164.347 111.088C164.07 111.088 163.821 111.039 163.599 110.94C163.38 110.84 163.205 110.692 163.077 110.497C162.95 110.302 162.886 110.062 162.886 109.776C162.886 109.529 162.932 109.326 163.023 109.165C163.114 109.004 163.238 108.875 163.395 108.778C163.552 108.682 163.729 108.609 163.926 108.56C164.125 108.509 164.33 108.472 164.543 108.449C164.798 108.422 165.006 108.399 165.165 108.378C165.324 108.355 165.439 108.321 165.511 108.276C165.585 108.228 165.622 108.155 165.622 108.057V108.04C165.622 107.826 165.559 107.66 165.432 107.543C165.305 107.425 165.122 107.366 164.884 107.366C164.632 107.366 164.432 107.421 164.284 107.531C164.138 107.641 164.04 107.771 163.989 107.92L163.028 107.784C163.104 107.519 163.229 107.297 163.403 107.119C163.578 106.939 163.791 106.805 164.043 106.716C164.295 106.625 164.573 106.58 164.878 106.58C165.088 106.58 165.297 106.604 165.506 106.653C165.714 106.703 165.904 106.784 166.077 106.898C166.249 107.009 166.387 107.162 166.491 107.355C166.598 107.548 166.651 107.79 166.651 108.08V111H165.662V110.401H165.628C165.565 110.522 165.477 110.635 165.364 110.741C165.252 110.846 165.111 110.93 164.94 110.994C164.772 111.057 164.574 111.088 164.347 111.088ZM164.614 110.332C164.82 110.332 164.999 110.292 165.151 110.21C165.302 110.127 165.419 110.017 165.5 109.881C165.583 109.744 165.625 109.596 165.625 109.435V108.92C165.593 108.947 165.538 108.972 165.46 108.994C165.384 109.017 165.299 109.037 165.205 109.054C165.11 109.071 165.016 109.086 164.923 109.099C164.83 109.113 164.75 109.124 164.682 109.134C164.528 109.154 164.391 109.188 164.27 109.236C164.149 109.283 164.053 109.349 163.983 109.435C163.913 109.518 163.878 109.626 163.878 109.759C163.878 109.948 163.947 110.091 164.085 110.188C164.223 110.284 164.4 110.332 164.614 110.332ZM170.939 111L169.297 105.182H170.43L171.479 109.457H171.533L172.652 105.182H173.683L174.805 109.46H174.857L175.905 105.182H177.038L175.396 111H174.357L173.192 106.918H173.146L171.979 111H170.939ZM178.534 111.088C178.258 111.088 178.009 111.039 177.787 110.94C177.567 110.84 177.393 110.692 177.264 110.497C177.137 110.302 177.074 110.062 177.074 109.776C177.074 109.529 177.119 109.326 177.21 109.165C177.301 109.004 177.425 108.875 177.582 108.778C177.74 108.682 177.917 108.609 178.114 108.56C178.313 108.509 178.518 108.472 178.73 108.449C178.986 108.422 179.193 108.399 179.352 108.378C179.511 108.355 179.627 108.321 179.699 108.276C179.773 108.228 179.81 108.155 179.81 108.057V108.04C179.81 107.826 179.746 107.66 179.619 107.543C179.492 107.425 179.31 107.366 179.071 107.366C178.819 107.366 178.619 107.421 178.472 107.531C178.326 107.641 178.227 107.771 178.176 107.92L177.216 107.784C177.292 107.519 177.417 107.297 177.591 107.119C177.765 106.939 177.978 106.805 178.23 106.716C178.482 106.625 178.76 106.58 179.065 106.58C179.276 106.58 179.485 106.604 179.693 106.653C179.902 106.703 180.092 106.784 180.264 106.898C180.437 107.009 180.575 107.162 180.679 107.355C180.785 107.548 180.838 107.79 180.838 108.08V111H179.849V110.401H179.815C179.753 110.522 179.665 110.635 179.551 110.741C179.439 110.846 179.298 110.93 179.128 110.994C178.959 111.057 178.761 111.088 178.534 111.088ZM178.801 110.332C179.008 110.332 179.187 110.292 179.338 110.21C179.49 110.127 179.606 110.017 179.688 109.881C179.771 109.744 179.812 109.596 179.812 109.435V108.92C179.78 108.947 179.725 108.972 179.648 108.994C179.572 109.017 179.487 109.037 179.392 109.054C179.297 109.071 179.204 109.086 179.111 109.099C179.018 109.113 178.938 109.124 178.869 109.134C178.716 109.154 178.579 109.188 178.457 109.236C178.336 109.283 178.241 109.349 178.17 109.435C178.1 109.518 178.065 109.626 178.065 109.759C178.065 109.948 178.134 110.091 178.273 110.188C178.411 110.284 178.587 110.332 178.801 110.332ZM182.901 105.182V111H181.872V105.182H182.901ZM184.987 105.182V111H183.958V105.182H184.987ZM187.976 111.085C187.538 111.085 187.161 110.994 186.842 110.812C186.526 110.629 186.283 110.369 186.112 110.034C185.942 109.697 185.857 109.3 185.857 108.844C185.857 108.395 185.942 108.001 186.112 107.662C186.285 107.321 186.525 107.056 186.834 106.866C187.143 106.675 187.505 106.58 187.922 106.58C188.191 106.58 188.445 106.623 188.683 106.71C188.924 106.795 189.136 106.928 189.32 107.108C189.505 107.288 189.651 107.517 189.757 107.795C189.863 108.072 189.916 108.402 189.916 108.784V109.099H186.339V108.406H188.93C188.929 108.209 188.886 108.034 188.803 107.881C188.719 107.725 188.603 107.603 188.453 107.514C188.305 107.425 188.133 107.381 187.936 107.381C187.726 107.381 187.541 107.432 187.382 107.534C187.223 107.634 187.099 107.767 187.01 107.932C186.923 108.095 186.878 108.274 186.876 108.469V109.074C186.876 109.328 186.923 109.545 187.016 109.727C187.108 109.907 187.238 110.045 187.405 110.142C187.571 110.237 187.767 110.284 187.99 110.284C188.14 110.284 188.275 110.263 188.396 110.222C188.518 110.178 188.623 110.115 188.712 110.031C188.801 109.948 188.868 109.845 188.913 109.722L189.874 109.83C189.813 110.083 189.697 110.305 189.527 110.494C189.358 110.682 189.143 110.828 188.879 110.932C188.616 111.034 188.315 111.085 187.976 111.085ZM192.965 106.636V107.432H190.457V106.636H192.965ZM191.076 105.591H192.104V109.688C192.104 109.826 192.125 109.932 192.167 110.006C192.21 110.078 192.267 110.127 192.337 110.153C192.407 110.18 192.485 110.193 192.57 110.193C192.635 110.193 192.693 110.188 192.746 110.179C192.801 110.17 192.843 110.161 192.871 110.153L193.045 110.957C192.99 110.976 192.911 110.997 192.809 111.02C192.709 111.043 192.585 111.056 192.44 111.06C192.182 111.067 191.95 111.028 191.744 110.943C191.537 110.856 191.373 110.722 191.252 110.54C191.133 110.358 191.074 110.131 191.076 109.858V105.591Z" fill="#FFFDF7"/>
<path d="M106.273 65.7102C106.243 65.4413 106.118 65.233 105.898 65.0852C105.679 64.9356 105.402 64.8608 105.069 64.8608C104.83 64.8608 104.624 64.8987 104.45 64.9744C104.275 65.0483 104.14 65.1506 104.043 65.2812C103.949 65.41 103.901 65.5568 103.901 65.7216C103.901 65.8598 103.933 65.9792 103.998 66.0795C104.064 66.1799 104.15 66.2642 104.256 66.3324C104.364 66.3987 104.48 66.4545 104.603 66.5C104.726 66.5436 104.844 66.5795 104.958 66.608L105.526 66.7557C105.712 66.8011 105.902 66.8627 106.097 66.9403C106.292 67.018 106.473 67.1203 106.64 67.2472C106.807 67.3741 106.941 67.5312 107.043 67.7188C107.147 67.9062 107.2 68.1307 107.2 68.392C107.2 68.7216 107.114 69.0142 106.944 69.2699C106.775 69.5256 106.53 69.7273 106.208 69.875C105.888 70.0227 105.501 70.0966 105.046 70.0966C104.611 70.0966 104.234 70.0275 103.915 69.8892C103.597 69.7509 103.348 69.5549 103.168 69.3011C102.988 69.0455 102.889 68.7424 102.87 68.392H103.751C103.768 68.6023 103.836 68.7775 103.955 68.9176C104.076 69.0559 104.231 69.1591 104.418 69.2273C104.608 69.2936 104.815 69.3267 105.04 69.3267C105.289 69.3267 105.509 69.2879 105.702 69.2102C105.897 69.1307 106.051 69.0208 106.163 68.8807C106.274 68.7386 106.33 68.5729 106.33 68.3835C106.33 68.2112 106.281 68.0701 106.183 67.9602C106.086 67.8504 105.954 67.7595 105.788 67.6875C105.623 67.6155 105.436 67.5521 105.228 67.4972L104.54 67.3097C104.075 67.1828 103.705 66.9962 103.433 66.75C103.162 66.5038 103.026 66.178 103.026 65.7727C103.026 65.4375 103.117 65.1449 103.299 64.8949C103.481 64.6449 103.727 64.4508 104.038 64.3125C104.348 64.1723 104.699 64.1023 105.089 64.1023C105.483 64.1023 105.83 64.1714 106.131 64.3097C106.434 64.4479 106.673 64.6383 106.847 64.8807C107.022 65.1212 107.112 65.3977 107.12 65.7102H106.273ZM110.217 65.6364V66.3182H107.834V65.6364H110.217ZM108.473 64.5909H109.322V68.7188C109.322 68.8835 109.347 69.0076 109.396 69.0909C109.446 69.1723 109.509 69.2282 109.587 69.2585C109.666 69.2869 109.752 69.3011 109.845 69.3011C109.913 69.3011 109.973 69.2964 110.024 69.2869C110.075 69.2775 110.115 69.2699 110.143 69.2642L110.297 69.9659C110.248 69.9848 110.178 70.0038 110.087 70.0227C109.996 70.0436 109.882 70.0549 109.746 70.0568C109.522 70.0606 109.314 70.0208 109.121 69.9375C108.928 69.8542 108.771 69.7254 108.652 69.5511C108.533 69.3769 108.473 69.1581 108.473 68.8949V64.5909ZM112.427 70.0966C112.15 70.0966 111.9 70.0455 111.677 69.9432C111.453 69.839 111.276 69.6884 111.146 69.4915C111.017 69.2945 110.952 69.053 110.952 68.767C110.952 68.5208 111 68.3182 111.094 68.1591C111.189 68 111.317 67.8741 111.478 67.7812C111.639 67.6884 111.819 67.6184 112.018 67.571C112.217 67.5237 112.419 67.4877 112.626 67.4631C112.887 67.4328 113.099 67.4081 113.262 67.3892C113.425 67.3684 113.543 67.3352 113.617 67.2898C113.691 67.2443 113.728 67.1705 113.728 67.0682V67.0483C113.728 66.8002 113.658 66.608 113.518 66.4716C113.379 66.3352 113.173 66.267 112.898 66.267C112.612 66.267 112.387 66.3305 112.222 66.4574C112.059 66.5824 111.947 66.7216 111.884 66.875L111.086 66.6932C111.181 66.428 111.319 66.214 111.501 66.0511C111.684 65.8864 111.896 65.767 112.134 65.6932C112.373 65.6174 112.624 65.5795 112.887 65.5795C113.061 65.5795 113.246 65.6004 113.441 65.642C113.638 65.6818 113.822 65.7557 113.992 65.8636C114.165 65.9716 114.306 66.1259 114.415 66.3267C114.525 66.5256 114.58 66.7841 114.58 67.1023V70H113.751V69.4034H113.717C113.662 69.5133 113.579 69.6212 113.469 69.7273C113.36 69.8333 113.219 69.9214 113.046 69.9915C112.874 70.0616 112.667 70.0966 112.427 70.0966ZM112.612 69.4148C112.846 69.4148 113.047 69.3684 113.214 69.2756C113.382 69.1828 113.51 69.0616 113.597 68.9119C113.686 68.7604 113.731 68.5985 113.731 68.4261V67.8636C113.701 67.8939 113.642 67.9223 113.555 67.9489C113.469 67.9735 113.372 67.9953 113.262 68.0142C113.152 68.0312 113.045 68.0473 112.941 68.0625C112.837 68.0758 112.75 68.0871 112.68 68.0966C112.515 68.1174 112.364 68.1525 112.228 68.2017C112.094 68.2509 111.986 68.322 111.904 68.4148C111.825 68.5057 111.785 68.6269 111.785 68.7784C111.785 68.9886 111.862 69.1477 112.018 69.2557C112.173 69.3617 112.371 69.4148 112.612 69.4148ZM115.78 70V64.1818H116.629V66.3438H116.68C116.73 66.2528 116.801 66.1477 116.893 66.0284C116.986 65.9091 117.115 65.8049 117.28 65.7159C117.445 65.625 117.662 65.5795 117.933 65.5795C118.286 65.5795 118.6 65.6686 118.876 65.8466C119.153 66.0246 119.37 66.2812 119.527 66.6165C119.686 66.9517 119.766 67.3551 119.766 67.8267C119.766 68.2983 119.687 68.7027 119.53 69.0398C119.373 69.375 119.157 69.6335 118.882 69.8153C118.607 69.9953 118.294 70.0852 117.942 70.0852C117.677 70.0852 117.46 70.0407 117.291 69.9517C117.125 69.8627 116.994 69.7585 116.899 69.6392C116.804 69.5199 116.732 69.4138 116.68 69.321H116.609V70H115.78ZM116.612 67.8182C116.612 68.125 116.657 68.3939 116.746 68.625C116.835 68.8561 116.964 69.0369 117.132 69.1676C117.301 69.2964 117.507 69.3608 117.751 69.3608C118.005 69.3608 118.217 69.2936 118.388 69.1591C118.558 69.0227 118.687 68.8381 118.774 68.6051C118.863 68.3722 118.908 68.1098 118.908 67.8182C118.908 67.5303 118.864 67.2718 118.777 67.0426C118.692 66.8134 118.563 66.6326 118.391 66.5C118.22 66.3674 118.007 66.3011 117.751 66.3011C117.505 66.3011 117.297 66.3646 117.126 66.4915C116.958 66.6184 116.83 66.7955 116.743 67.0227C116.656 67.25 116.612 67.5152 116.612 67.8182ZM121.569 64.1818V70H120.719V64.1818H121.569ZM124.592 70.0881C124.162 70.0881 123.792 69.9962 123.482 69.8125C123.173 69.6269 122.934 69.3665 122.766 69.0312C122.599 68.6941 122.516 68.2992 122.516 67.8466C122.516 67.3996 122.599 67.0057 122.766 66.6648C122.934 66.3239 123.169 66.0578 123.47 65.8665C123.773 65.6752 124.127 65.5795 124.533 65.5795C124.779 65.5795 125.018 65.6203 125.249 65.7017C125.48 65.7831 125.687 65.911 125.871 66.0852C126.054 66.2595 126.199 66.4858 126.305 66.7642C126.411 67.0407 126.464 67.3769 126.464 67.7727V68.0739H122.996V67.4375H125.632C125.632 67.214 125.587 67.0161 125.496 66.8438C125.405 66.6695 125.277 66.5322 125.112 66.4318C124.949 66.3314 124.758 66.2812 124.538 66.2812C124.3 66.2812 124.091 66.34 123.913 66.4574C123.737 66.5729 123.601 66.7244 123.504 66.9119C123.41 67.0975 123.362 67.2992 123.362 67.517V68.0142C123.362 68.3059 123.413 68.554 123.516 68.7585C123.62 68.9631 123.765 69.1193 123.95 69.2273C124.136 69.3333 124.353 69.3864 124.601 69.3864C124.762 69.3864 124.909 69.3636 125.041 69.3182C125.174 69.2708 125.288 69.2008 125.385 69.108C125.482 69.0152 125.555 68.9006 125.607 68.7642L126.411 68.9091C126.346 69.1458 126.231 69.3532 126.064 69.5312C125.899 69.7074 125.692 69.8447 125.442 69.9432C125.194 70.0398 124.911 70.0881 124.592 70.0881ZM129.245 70.0881C128.823 70.0881 128.459 69.9924 128.154 69.8011C127.851 69.608 127.618 69.3419 127.455 69.0028C127.292 68.6638 127.211 68.2756 127.211 67.8381C127.211 67.3949 127.294 67.0038 127.461 66.6648C127.628 66.3239 127.862 66.0578 128.165 65.8665C128.469 65.6752 128.826 65.5795 129.237 65.5795C129.568 65.5795 129.863 65.6411 130.123 65.7642C130.382 65.8854 130.592 66.0559 130.751 66.2756C130.912 66.4953 131.007 66.7519 131.038 67.0455H130.211C130.165 66.8409 130.061 66.6648 129.898 66.517C129.737 66.3693 129.522 66.2955 129.251 66.2955C129.014 66.2955 128.807 66.358 128.629 66.483C128.452 66.6061 128.315 66.7822 128.217 67.0114C128.118 67.2386 128.069 67.5076 128.069 67.8182C128.069 68.1364 128.117 68.411 128.214 68.642C128.31 68.8731 128.447 69.0521 128.623 69.179C128.801 69.3059 129.01 69.3693 129.251 69.3693C129.412 69.3693 129.558 69.34 129.688 69.2812C129.821 69.2206 129.932 69.1345 130.021 69.0227C130.112 68.911 130.175 68.7765 130.211 68.6193H131.038C131.007 68.9015 130.915 69.1534 130.762 69.375C130.609 69.5966 130.403 69.7708 130.146 69.8977C129.89 70.0246 129.59 70.0881 129.245 70.0881ZM133.784 70.0881C133.375 70.0881 133.018 69.9943 132.713 69.8068C132.408 69.6193 132.171 69.357 132.003 69.0199C131.834 68.6828 131.75 68.2888 131.75 67.8381C131.75 67.3854 131.834 66.9896 132.003 66.6506C132.171 66.3116 132.408 66.0483 132.713 65.8608C133.018 65.6733 133.375 65.5795 133.784 65.5795C134.193 65.5795 134.55 65.6733 134.855 65.8608C135.16 66.0483 135.397 66.3116 135.565 66.6506C135.734 66.9896 135.818 67.3854 135.818 67.8381C135.818 68.2888 135.734 68.6828 135.565 69.0199C135.397 69.357 135.16 69.6193 134.855 69.8068C134.55 69.9943 134.193 70.0881 133.784 70.0881ZM133.787 69.375C134.052 69.375 134.272 69.3049 134.446 69.1648C134.62 69.0246 134.749 68.8381 134.832 68.6051C134.918 68.3722 134.96 68.1155 134.96 67.8352C134.96 67.5568 134.918 67.3011 134.832 67.0682C134.749 66.8333 134.62 66.6449 134.446 66.5028C134.272 66.3608 134.052 66.2898 133.787 66.2898C133.52 66.2898 133.298 66.3608 133.122 66.5028C132.948 66.6449 132.818 66.8333 132.733 67.0682C132.65 67.3011 132.608 67.5568 132.608 67.8352C132.608 68.1155 132.65 68.3722 132.733 68.6051C132.818 68.8381 132.948 69.0246 133.122 69.1648C133.298 69.3049 133.52 69.375 133.787 69.375ZM136.766 70V65.6364H137.616V70H136.766ZM137.195 64.9631C137.048 64.9631 136.921 64.9138 136.815 64.8153C136.71 64.715 136.658 64.5956 136.658 64.4574C136.658 64.3172 136.71 64.1979 136.815 64.0994C136.921 63.9991 137.048 63.9489 137.195 63.9489C137.343 63.9489 137.469 63.9991 137.573 64.0994C137.679 64.1979 137.732 64.3172 137.732 64.4574C137.732 64.5956 137.679 64.715 137.573 64.8153C137.469 64.9138 137.343 64.9631 137.195 64.9631ZM139.608 67.4091V70H138.759V65.6364H139.574V66.3466H139.628C139.728 66.1155 139.885 65.9299 140.099 65.7898C140.315 65.6496 140.587 65.5795 140.915 65.5795C141.212 65.5795 141.473 65.642 141.696 65.767C141.92 65.8902 142.093 66.0739 142.216 66.3182C142.339 66.5625 142.401 66.8646 142.401 67.2244V70H141.551V67.3267C141.551 67.0104 141.469 66.7633 141.304 66.5852C141.139 66.4053 140.913 66.3153 140.625 66.3153C140.428 66.3153 140.253 66.358 140.099 66.4432C139.948 66.5284 139.828 66.6534 139.739 66.8182C139.652 66.9811 139.608 67.178 139.608 67.4091ZM146.603 64.1818V70H145.725V64.1818H146.603ZM148.663 67.4091V70H147.813V65.6364H148.629V66.3466H148.683C148.783 66.1155 148.94 65.9299 149.154 65.7898C149.37 65.6496 149.642 65.5795 149.969 65.5795C150.267 65.5795 150.527 65.642 150.751 65.767C150.974 65.8902 151.147 66.0739 151.271 66.3182C151.394 66.5625 151.455 66.8646 151.455 67.2244V70H150.606V67.3267C150.606 67.0104 150.523 66.7633 150.359 66.5852C150.194 66.4053 149.968 66.3153 149.68 66.3153C149.483 66.3153 149.308 66.358 149.154 66.4432C149.003 66.5284 148.882 66.6534 148.793 66.8182C148.706 66.9811 148.663 67.178 148.663 67.4091ZM154.671 65.6364V66.3182H152.205V65.6364H154.671ZM152.881 70V65.1307C152.881 64.858 152.941 64.6316 153.06 64.4517C153.18 64.2699 153.338 64.1345 153.535 64.0455C153.732 63.9545 153.946 63.9091 154.177 63.9091C154.347 63.9091 154.493 63.9233 154.614 63.9517C154.736 63.9782 154.826 64.0028 154.884 64.0256L154.685 64.7131C154.646 64.7017 154.594 64.6884 154.532 64.6733C154.469 64.6562 154.394 64.6477 154.305 64.6477C154.098 64.6477 153.951 64.6989 153.862 64.8011C153.774 64.9034 153.731 65.0511 153.731 65.2443V70H152.881ZM155.548 70V65.6364H156.369V66.3295H156.414C156.494 66.0947 156.634 65.91 156.835 65.7756C157.037 65.6392 157.266 65.571 157.522 65.571C157.575 65.571 157.638 65.5729 157.71 65.5767C157.783 65.5805 157.841 65.5852 157.883 65.5909V66.4034C157.849 66.3939 157.788 66.3835 157.701 66.3722C157.614 66.3589 157.527 66.3523 157.44 66.3523C157.239 66.3523 157.06 66.3949 156.903 66.4801C156.747 66.5634 156.624 66.6799 156.533 66.8295C156.442 66.9773 156.397 67.1458 156.397 67.3352V70H155.548ZM159.849 70.0966C159.572 70.0966 159.322 70.0455 159.099 69.9432C158.875 69.839 158.698 69.6884 158.567 69.4915C158.439 69.2945 158.374 69.053 158.374 68.767C158.374 68.5208 158.422 68.3182 158.516 68.1591C158.611 68 158.739 67.8741 158.9 67.7812C159.061 67.6884 159.241 67.6184 159.44 67.571C159.638 67.5237 159.841 67.4877 160.048 67.4631C160.309 67.4328 160.521 67.4081 160.684 67.3892C160.847 67.3684 160.965 67.3352 161.039 67.2898C161.113 67.2443 161.15 67.1705 161.15 67.0682V67.0483C161.15 66.8002 161.08 66.608 160.94 66.4716C160.801 66.3352 160.595 66.267 160.32 66.267C160.034 66.267 159.809 66.3305 159.644 66.4574C159.481 66.5824 159.369 66.7216 159.306 66.875L158.508 66.6932C158.603 66.428 158.741 66.214 158.923 66.0511C159.106 65.8864 159.317 65.767 159.556 65.6932C159.795 65.6174 160.046 65.5795 160.309 65.5795C160.483 65.5795 160.668 65.6004 160.863 65.642C161.06 65.6818 161.244 65.7557 161.414 65.8636C161.586 65.9716 161.728 66.1259 161.837 66.3267C161.947 66.5256 162.002 66.7841 162.002 67.1023V70H161.173V69.4034H161.138C161.084 69.5133 161.001 69.6212 160.891 69.7273C160.781 69.8333 160.64 69.9214 160.468 69.9915C160.296 70.0616 160.089 70.0966 159.849 70.0966ZM160.033 69.4148C160.268 69.4148 160.469 69.3684 160.636 69.2756C160.804 69.1828 160.932 69.0616 161.019 68.9119C161.108 68.7604 161.153 68.5985 161.153 68.4261V67.8636C161.122 67.8939 161.064 67.9223 160.977 67.9489C160.891 67.9735 160.794 67.9953 160.684 68.0142C160.574 68.0312 160.467 68.0473 160.363 68.0625C160.259 68.0758 160.172 68.0871 160.102 68.0966C159.937 68.1174 159.786 68.1525 159.65 68.2017C159.515 68.2509 159.407 68.322 159.326 68.4148C159.246 68.5057 159.207 68.6269 159.207 68.7784C159.207 68.9886 159.284 69.1477 159.44 69.2557C159.595 69.3617 159.793 69.4148 160.033 69.4148ZM166.403 66.7017L165.634 66.8381C165.601 66.7396 165.55 66.6458 165.48 66.5568C165.412 66.4678 165.319 66.3949 165.202 66.3381C165.084 66.2812 164.938 66.2528 164.761 66.2528C164.521 66.2528 164.32 66.3068 164.159 66.4148C163.998 66.5208 163.918 66.6581 163.918 66.8267C163.918 66.9725 163.972 67.09 164.08 67.179C164.188 67.268 164.362 67.3409 164.602 67.3977L165.295 67.5568C165.697 67.6496 165.996 67.7926 166.193 67.9858C166.39 68.179 166.489 68.4299 166.489 68.7386C166.489 69 166.413 69.233 166.261 69.4375C166.112 69.6402 165.902 69.7992 165.634 69.9148C165.366 70.0303 165.057 70.0881 164.705 70.0881C164.216 70.0881 163.817 69.9839 163.509 69.7756C163.2 69.5653 163.01 69.267 162.94 68.8807L163.761 68.7557C163.813 68.9697 163.918 69.1316 164.077 69.2415C164.236 69.3494 164.443 69.4034 164.699 69.4034C164.977 69.4034 165.2 69.3456 165.366 69.2301C165.533 69.1127 165.616 68.9697 165.616 68.8011C165.616 68.6648 165.565 68.5502 165.463 68.4574C165.363 68.3646 165.208 68.2945 165 68.2472L164.261 68.0852C163.854 67.9924 163.553 67.8447 163.358 67.642C163.165 67.4394 163.068 67.1828 163.068 66.8722C163.068 66.6146 163.14 66.3892 163.284 66.196C163.428 66.0028 163.627 65.8523 163.881 65.7443C164.134 65.6345 164.425 65.5795 164.753 65.5795C165.224 65.5795 165.596 65.6818 165.866 65.8864C166.137 66.089 166.316 66.3608 166.403 66.7017ZM169.46 65.6364V66.3182H167.076V65.6364H169.46ZM167.715 64.5909H168.565V68.7188C168.565 68.8835 168.589 69.0076 168.638 69.0909C168.688 69.1723 168.751 69.2282 168.829 69.2585C168.908 69.2869 168.995 69.3011 169.087 69.3011C169.156 69.3011 169.215 69.2964 169.266 69.2869C169.317 69.2775 169.357 69.2699 169.386 69.2642L169.539 69.9659C169.49 69.9848 169.42 70.0038 169.329 70.0227C169.238 70.0436 169.124 70.0549 168.988 70.0568C168.764 70.0606 168.556 70.0208 168.363 69.9375C168.17 69.8542 168.013 69.7254 167.894 69.5511C167.775 69.3769 167.715 69.1581 167.715 68.8949V64.5909ZM170.399 70V65.6364H171.22V66.3295H171.266C171.345 66.0947 171.485 65.91 171.686 65.7756C171.889 65.6392 172.118 65.571 172.374 65.571C172.427 65.571 172.489 65.5729 172.561 65.5767C172.635 65.5805 172.693 65.5852 172.734 65.5909V66.4034C172.7 66.3939 172.64 66.3835 172.553 66.3722C172.465 66.3589 172.378 66.3523 172.291 66.3523C172.09 66.3523 171.911 66.3949 171.754 66.4801C171.599 66.5634 171.476 66.6799 171.385 66.8295C171.294 66.9773 171.249 67.1458 171.249 67.3352V70H170.399ZM176.234 68.1903V65.6364H177.086V70H176.251V69.2443H176.205C176.105 69.4773 175.944 69.6714 175.722 69.8267C175.503 69.9801 175.229 70.0568 174.901 70.0568C174.621 70.0568 174.373 69.9953 174.157 69.8722C173.943 69.7472 173.774 69.5625 173.651 69.3182C173.53 69.0739 173.469 68.7718 173.469 68.4119V65.6364H174.319V68.3097C174.319 68.607 174.401 68.8437 174.566 69.0199C174.731 69.196 174.945 69.2841 175.208 69.2841C175.367 69.2841 175.525 69.2443 175.683 69.1648C175.842 69.0852 175.973 68.965 176.077 68.804C176.183 68.643 176.236 68.4384 176.234 68.1903ZM180.065 70.0881C179.643 70.0881 179.279 69.9924 178.974 69.8011C178.671 69.608 178.438 69.3419 178.276 69.0028C178.113 68.6638 178.031 68.2756 178.031 67.8381C178.031 67.3949 178.115 67.0038 178.281 66.6648C178.448 66.3239 178.683 66.0578 178.986 65.8665C179.289 65.6752 179.646 65.5795 180.057 65.5795C180.388 65.5795 180.684 65.6411 180.943 65.7642C181.203 65.8854 181.412 66.0559 181.571 66.2756C181.732 66.4953 181.828 66.7519 181.858 67.0455H181.031C180.986 66.8409 180.882 66.6648 180.719 66.517C180.558 66.3693 180.342 66.2955 180.071 66.2955C179.834 66.2955 179.627 66.358 179.449 66.483C179.273 66.6061 179.135 66.7822 179.037 67.0114C178.938 67.2386 178.889 67.5076 178.889 67.8182C178.889 68.1364 178.938 68.411 179.034 68.642C179.131 68.8731 179.267 69.0521 179.443 69.179C179.621 69.3059 179.83 69.3693 180.071 69.3693C180.232 69.3693 180.378 69.34 180.509 69.2812C180.641 69.2206 180.752 69.1345 180.841 69.0227C180.932 68.911 180.995 68.7765 181.031 68.6193H181.858C181.828 68.9015 181.736 69.1534 181.582 69.375C181.429 69.5966 181.223 69.7708 180.966 69.8977C180.71 70.0246 180.41 70.0881 180.065 70.0881ZM184.803 65.6364V66.3182H182.42V65.6364H184.803ZM183.059 64.5909H183.908V68.7188C183.908 68.8835 183.933 69.0076 183.982 69.0909C184.031 69.1723 184.095 69.2282 184.173 69.2585C184.252 69.2869 184.338 69.3011 184.431 69.3011C184.499 69.3011 184.559 69.2964 184.61 69.2869C184.661 69.2775 184.701 69.2699 184.729 69.2642L184.883 69.9659C184.834 69.9848 184.763 70.0038 184.673 70.0227C184.582 70.0436 184.468 70.0549 184.332 70.0568C184.108 70.0606 183.9 70.0208 183.707 69.9375C183.513 69.8542 183.357 69.7254 183.238 69.5511C183.119 69.3769 183.059 69.1581 183.059 68.8949V64.5909ZM188.507 68.1903V65.6364H189.359V70H188.524V69.2443H188.479C188.378 69.4773 188.217 69.6714 187.996 69.8267C187.776 69.9801 187.502 70.0568 187.175 70.0568C186.894 70.0568 186.646 69.9953 186.43 69.8722C186.216 69.7472 186.048 69.5625 185.925 69.3182C185.804 69.0739 185.743 68.7718 185.743 68.4119V65.6364H186.592V68.3097C186.592 68.607 186.675 68.8437 186.839 69.0199C187.004 69.196 187.218 69.2841 187.482 69.2841C187.641 69.2841 187.799 69.2443 187.956 69.1648C188.115 69.0852 188.247 68.965 188.351 68.804C188.457 68.643 188.509 68.4384 188.507 68.1903ZM190.501 70V65.6364H191.322V66.3295H191.367C191.447 66.0947 191.587 65.91 191.788 65.7756C191.99 65.6392 192.219 65.571 192.475 65.571C192.528 65.571 192.591 65.5729 192.663 65.5767C192.737 65.5805 192.794 65.5852 192.836 65.5909V66.4034C192.802 66.3939 192.741 66.3835 192.654 66.3722C192.567 66.3589 192.48 66.3523 192.393 66.3523C192.192 66.3523 192.013 66.3949 191.856 66.4801C191.701 66.5634 191.577 66.6799 191.487 66.8295C191.396 66.9773 191.35 67.1458 191.35 67.3352V70H190.501ZM195.295 70.0881C194.866 70.0881 194.495 69.9962 194.185 69.8125C193.876 69.6269 193.637 69.3665 193.469 69.0312C193.302 68.6941 193.219 68.2992 193.219 67.8466C193.219 67.3996 193.302 67.0057 193.469 66.6648C193.637 66.3239 193.872 66.0578 194.173 65.8665C194.476 65.6752 194.83 65.5795 195.236 65.5795C195.482 65.5795 195.721 65.6203 195.952 65.7017C196.183 65.7831 196.39 65.911 196.574 66.0852C196.758 66.2595 196.902 66.4858 197.009 66.7642C197.115 67.0407 197.168 67.3769 197.168 67.7727V68.0739H193.699V67.4375H196.335C196.335 67.214 196.29 67.0161 196.199 66.8438C196.108 66.6695 195.98 66.5322 195.815 66.4318C195.652 66.3314 195.461 66.2812 195.241 66.2812C195.003 66.2812 194.795 66.34 194.616 66.4574C194.44 66.5729 194.304 66.7244 194.207 66.9119C194.113 67.0975 194.065 67.2992 194.065 67.517V68.0142C194.065 68.3059 194.116 68.554 194.219 68.7585C194.323 68.9631 194.468 69.1193 194.653 69.2273C194.839 69.3333 195.056 69.3864 195.304 69.3864C195.465 69.3864 195.612 69.3636 195.744 69.3182C195.877 69.2708 195.991 69.2008 196.088 69.108C196.185 69.0152 196.259 68.9006 196.31 68.7642L197.114 68.9091C197.049 69.1458 196.934 69.3532 196.767 69.5312C196.602 69.7074 196.395 69.8447 196.145 69.9432C195.897 70.0398 195.614 70.0881 195.295 70.0881Z" fill="#FFFDF7"/>
<path fill-rule="evenodd" clip-rule="evenodd" d="M117.39 41.1445H117.532C118.523 41.1445 119.458 41.506 120.336 42.229C120.421 42.3194 120.562 42.4701 120.789 42.7111C121.072 42.4098 121.299 42.1989 121.412 42.1085C122.233 41.4458 123.14 41.1445 124.103 41.1445H124.188C125.207 41.1445 126.142 41.506 126.992 42.229C127.247 42.4701 127.445 42.6809 127.586 42.8617C128.238 43.7654 128.578 44.7596 128.578 45.7839V57.6533C128.578 57.6834 128.578 57.6834 128.549 57.6834H126.397C126.369 57.6834 126.369 57.6834 126.369 57.6533V45.8441C126.369 45.0307 126.029 44.3981 125.349 43.8859C124.981 43.6148 124.556 43.4943 124.131 43.4943C123.423 43.4943 122.856 43.7956 122.375 44.4282C122.063 44.85 121.893 45.3018 121.893 45.7839V57.6834H119.713C119.684 57.6834 119.684 57.6834 119.684 57.6533V45.7839C119.684 45.1512 119.429 44.5487 118.891 44.0366C118.466 43.6751 117.985 43.4943 117.475 43.4943C116.71 43.4943 116.087 43.8257 115.606 44.5487C115.351 44.9705 115.238 45.3922 115.238 45.8441V57.6533C115.238 57.6834 115.238 57.6834 115.238 57.6834H113.028C113.028 57.6834 113 57.6834 113 57.6533V46.1152C113 45.1211 113.17 44.3077 113.538 43.6449C113.651 43.3738 113.878 43.0424 114.218 42.6207C114.643 42.1688 114.954 41.8977 115.181 41.8073C115.889 41.3554 116.625 41.1445 117.39 41.1445ZM131.042 41.1445H133.251H133.279V49.2784C133.279 49.9412 133.393 50.4232 133.648 50.7244C133.874 51.0257 134.072 51.1763 134.242 51.2667C134.554 51.4474 135.262 51.7186 136.367 52.0499C136.905 52.2307 137.386 52.3813 137.726 52.5621V41.1445C137.726 41.1445 137.726 41.1445 137.754 41.1445H139.935V56.629C139.935 57.7437 139.567 58.798 138.802 59.7319C138.406 60.1537 138.094 60.4248 137.839 60.5755C137.103 61.0575 136.338 61.2683 135.545 61.2683H135.432C134.327 61.2683 133.308 60.8466 132.401 59.9428C132.09 59.6114 131.863 59.3102 131.693 59.0089C131.24 58.2558 131.042 57.4424 131.042 56.5989V56.5688V56.5386H133.251L133.279 56.5688C133.279 57.3219 133.563 57.9545 134.157 58.4667C134.582 58.7679 135.007 58.9186 135.489 58.9186H135.517C136.197 58.9186 136.791 58.6173 137.273 57.9847C137.585 57.5328 137.726 57.0809 137.726 56.629C137.726 55.7554 137.415 55.1227 136.763 54.7612C136.48 54.5504 135.772 54.2792 134.611 53.9479C133.846 53.7068 133.251 53.4658 132.826 53.1947C132.118 52.773 131.608 52.1403 131.297 51.2968C131.155 50.7847 131.07 50.4232 131.07 50.2123C131.07 50.0918 131.042 49.8809 131.042 49.6399V41.1445ZM142.314 41.1445H144.495C144.524 41.1445 144.524 41.1445 144.524 41.1445V49.4592C145.062 49.2182 145.827 48.947 146.79 48.6759C147.441 48.465 147.894 48.2541 148.149 48.0433C148.517 47.8324 148.744 47.4709 148.885 47.019C148.942 46.8382 148.97 46.5671 148.97 46.1755V41.1445C148.97 41.1445 148.97 41.1445 148.999 41.1445H151.151C151.18 41.1445 151.18 41.1445 151.18 41.1445V46.5671C151.18 47.6215 150.925 48.5253 150.358 49.2784C150.103 49.5797 149.877 49.7905 149.763 49.8508C149.679 49.911 149.65 49.9412 149.622 49.9412V49.9713C150.018 50.3629 150.217 50.5738 150.273 50.6642C150.698 51.2667 150.981 51.9294 151.095 52.6223C151.151 52.8935 151.18 53.1646 151.18 53.4056V57.6533C151.18 57.6834 151.18 57.6834 151.151 57.6834H148.999C148.97 57.6834 148.97 57.6834 148.97 57.6533V53.7068C148.97 52.9537 148.772 52.3813 148.347 51.9294C148.121 51.6282 147.724 51.3872 147.158 51.2064L146.79 51.1161C146.308 51.2667 145.912 51.4173 145.6 51.5981C145.147 51.8391 144.835 52.1704 144.665 52.5621C144.58 52.8031 144.524 53.1646 144.524 53.6466V57.6533C144.524 57.6834 144.524 57.6834 144.495 57.6834H142.314C142.314 57.6834 142.286 57.6834 142.286 57.6533V41.1445H142.314ZM157.949 41.1445H158.062C159.082 41.1445 160.016 41.506 160.838 42.229C161.149 42.4701 161.348 42.7111 161.461 42.8617C162.112 43.7654 162.452 44.7596 162.452 45.7839V48.6759C162.452 49.7604 162.112 50.7244 161.433 51.6583C161.149 52.0198 160.894 52.2608 160.668 52.4416C159.847 53.0742 158.969 53.3755 158.006 53.3755C156.816 53.3755 155.796 52.9236 154.89 52.0198C154.522 51.6282 154.267 51.2667 154.097 50.8751C153.729 50.2123 153.559 49.3989 153.559 48.4349V46.1152C153.559 45.1211 153.729 44.2776 154.097 43.6148C154.239 43.3136 154.465 42.9822 154.805 42.5604C155.202 42.1688 155.513 41.8977 155.711 41.8073C156.419 41.3554 157.184 41.1445 157.949 41.1445ZM155.796 45.814V48.6759C155.796 49.3989 156.08 50.0315 156.674 50.5437C157.071 50.8449 157.496 51.0257 157.921 51.0257H158.062C158.685 51.0257 159.252 50.7244 159.733 50.1219C160.073 49.67 160.243 49.188 160.243 48.6759V45.814C160.243 45.1512 159.988 44.5487 159.45 44.0366C159.025 43.6751 158.544 43.4943 158.034 43.4943H158.006C157.269 43.4943 156.646 43.8257 156.165 44.5487C155.91 44.9705 155.796 45.3922 155.796 45.814ZM153.587 55.3336H162.424C162.452 55.3336 162.452 55.3336 162.452 55.3637V57.6533C162.452 57.6834 162.452 57.6834 162.424 57.6834H153.587C153.559 57.6834 153.559 57.6834 153.559 57.6533V55.3637L153.587 55.3336ZM169.42 57.6834C168.457 57.6834 167.55 57.352 166.729 56.6893C166.502 56.5085 166.276 56.2675 166.021 55.9361C165.37 55.0926 165.03 54.0081 165.03 52.7428V41.1445C165.03 41.1445 165.03 41.1445 165.058 41.1445H167.239H167.267V42.1085C167.267 42.5303 167.296 42.8014 167.352 42.9822C167.465 43.4341 167.72 43.7956 168.089 44.0366C168.315 44.1872 168.627 44.368 168.967 44.4885L170.949 45.091C171.572 45.332 172.11 45.6031 172.535 45.9345C172.705 46.0851 172.903 46.296 173.158 46.5671C173.668 47.2901 173.923 48.1939 173.923 49.2182V53.014C173.923 53.8273 173.697 54.6106 173.3 55.3637C173.187 55.6048 172.932 55.9361 172.535 56.388C171.629 57.2617 170.638 57.6834 169.533 57.6834H169.42ZM167.267 52.9838C167.267 53.4658 167.409 53.9177 167.692 54.3395C168.174 55.0022 168.768 55.3336 169.448 55.3336H169.505C169.958 55.3336 170.383 55.183 170.779 54.8817C171.402 54.3395 171.714 53.7068 171.714 52.9838V49.6098C171.714 49.1278 171.657 48.7663 171.544 48.5253C171.346 48.0433 170.949 47.6818 170.326 47.4106C170.043 47.26 169.76 47.1696 169.476 47.1094C168.4 46.778 167.664 46.5069 167.267 46.3261V52.9838ZM180.494 41.1445H180.579C181.599 41.1445 182.533 41.506 183.383 42.229C183.666 42.4701 183.865 42.7111 183.978 42.8617C184.658 43.7654 184.969 44.7596 184.969 45.7839V48.6759C184.969 49.7604 184.629 50.7244 183.978 51.6583C183.666 52.0198 183.411 52.2608 183.185 52.4416C182.363 53.0742 181.485 53.3755 180.522 53.3755C179.361 53.3755 178.313 52.9236 177.407 52.0198C177.067 51.6282 176.784 51.2667 176.614 50.8751C176.274 50.2123 176.076 49.3989 176.076 48.4349V46.1152C176.076 45.1211 176.274 44.2776 176.614 43.6148C176.755 43.3136 176.982 42.9822 177.322 42.5604C177.718 42.1688 178.03 41.8977 178.228 41.8073C178.936 41.3554 179.701 41.1445 180.494 41.1445ZM178.313 45.814V48.6759C178.313 49.3989 178.625 50.0315 179.191 50.5437C179.616 50.8449 180.013 51.0257 180.437 51.0257H180.579C181.231 51.0257 181.769 50.7244 182.278 50.1219C182.59 49.67 182.76 49.188 182.76 48.6759V45.814C182.76 45.1512 182.505 44.5487 181.995 44.0366C181.542 43.6751 181.061 43.4943 180.551 43.4943H180.522C179.786 43.4943 179.191 43.8257 178.681 44.5487C178.455 44.9705 178.313 45.3922 178.313 45.814ZM176.104 55.3336H184.941C184.969 55.3336 184.969 55.3336 184.969 55.3637V57.6533C184.969 57.6834 184.969 57.6834 184.941 57.6834H176.104C176.104 57.6834 176.076 57.6834 176.076 57.6533V55.3637L176.104 55.3336Z" fill="#FFFDF7"/>
<path fill-rule="evenodd" clip-rule="evenodd" d="M158.033 41.0391C160.469 41.0391 162.48 43.178 162.48 45.7989V48.7211C162.48 51.342 160.469 53.4508 158.033 53.4508C155.569 53.4508 153.558 51.342 153.558 48.7211V45.7989C153.558 43.178 155.569 41.0391 158.033 41.0391Z" fill="#FFFDF7"/>
<path fill-rule="evenodd" clip-rule="evenodd" d="M180.553 41C182.988 41 185 43.1389 185 45.7598V48.682C185 51.3029 182.988 53.4117 180.553 53.4117C178.088 53.4117 176.077 51.3029 176.077 48.682V45.7598C176.077 43.1389 178.088 41 180.553 41Z" fill="#FFFDF7"/>
<defs>
<linearGradient id="paint0_linear_2814_124" x1="150" y1="0" x2="150" y2="271" gradientUnits="userSpaceOnUse">
<stop offset="0.355769" stop-color="#929292"/>
<stop offset="0.7" stop-color="#585B68"/>
</linearGradient>
</defs>
</svg>
