<svg width="300" height="248" viewBox="0 0 300 248" fill="none" xmlns="http://www.w3.org/2000/svg">
<rect width="300" height="248" rx="10" fill="url(#paint0_linear_2843_255)"/>
<path fill-rule="evenodd" clip-rule="evenodd" d="M120.388 47.1445H120.53C121.521 47.1445 122.456 47.506 123.334 48.229C123.419 48.3194 123.56 48.4701 123.787 48.7111C124.07 48.4098 124.297 48.1989 124.41 48.1085C125.231 47.4458 126.138 47.1445 127.101 47.1445H127.186C128.205 47.1445 129.14 47.506 129.99 48.229C130.245 48.4701 130.443 48.6809 130.584 48.8617C131.236 49.7654 131.576 50.7596 131.576 51.7839V63.6533C131.576 63.6834 131.576 63.6834 131.547 63.6834H129.395C129.367 63.6834 129.367 63.6834 129.367 63.6533V51.8441C129.367 51.0307 129.027 50.3981 128.347 49.8859C127.979 49.6148 127.554 49.4943 127.129 49.4943C126.421 49.4943 125.855 49.7956 125.373 50.4282C125.061 50.85 124.892 51.3018 124.892 51.7839V63.6834H122.711C122.682 63.6834 122.682 63.6834 122.682 63.6533V51.7839C122.682 51.1512 122.427 50.5487 121.889 50.0366C121.464 49.6751 120.983 49.4943 120.473 49.4943C119.708 49.4943 119.085 49.8257 118.604 50.5487C118.349 50.9705 118.236 51.3922 118.236 51.8441V63.6533C118.236 63.6834 118.236 63.6834 118.236 63.6834H116.026C116.026 63.6834 115.998 63.6834 115.998 63.6533V52.1152C115.998 51.1211 116.168 50.3077 116.536 49.6449C116.649 49.3738 116.876 49.0424 117.216 48.6207C117.641 48.1688 117.952 47.8977 118.179 47.8073C118.887 47.3554 119.623 47.1445 120.388 47.1445ZM134.04 47.1445H136.249H136.277V55.2784C136.277 55.9412 136.391 56.4232 136.646 56.7244C136.872 57.0257 137.07 57.1763 137.24 57.2667C137.552 57.4474 138.26 57.7186 139.365 58.0499C139.903 58.2307 140.384 58.3813 140.724 58.5621V47.1445C140.724 47.1445 140.724 47.1445 140.752 47.1445H142.933V62.629C142.933 63.7437 142.565 64.798 141.8 65.7319C141.404 66.1537 141.092 66.4248 140.837 66.5755C140.101 67.0575 139.336 67.2683 138.543 67.2683H138.43C137.325 67.2683 136.306 66.8466 135.399 65.9428C135.088 65.6114 134.861 65.3102 134.691 65.0089C134.238 64.2558 134.04 63.4424 134.04 62.5989V62.5688V62.5386H136.249L136.277 62.5688C136.277 63.3219 136.561 63.9545 137.155 64.4667C137.58 64.7679 138.005 64.9186 138.487 64.9186H138.515C139.195 64.9186 139.79 64.6173 140.271 63.9847C140.583 63.5328 140.724 63.0809 140.724 62.629C140.724 61.7554 140.413 61.1227 139.761 60.7612C139.478 60.5504 138.77 60.2792 137.609 59.9479C136.844 59.7068 136.249 59.4658 135.824 59.1947C135.116 58.773 134.606 58.1403 134.295 57.2968C134.153 56.7847 134.068 56.4232 134.068 56.2123C134.068 56.0918 134.04 55.8809 134.04 55.6399V47.1445ZM145.313 47.1445H147.493C147.522 47.1445 147.522 47.1445 147.522 47.1445V55.4592C148.06 55.2182 148.825 54.947 149.788 54.6759C150.439 54.465 150.892 54.2541 151.147 54.0433C151.515 53.8324 151.742 53.4709 151.883 53.019C151.94 52.8382 151.968 52.5671 151.968 52.1755V47.1445C151.968 47.1445 151.968 47.1445 151.997 47.1445H154.149C154.178 47.1445 154.178 47.1445 154.178 47.1445V52.5671C154.178 53.6215 153.923 54.5253 153.356 55.2784C153.101 55.5797 152.875 55.7905 152.762 55.8508C152.677 55.911 152.648 55.9412 152.62 55.9412V55.9713C153.016 56.3629 153.215 56.5738 153.271 56.6642C153.696 57.2667 153.979 57.9294 154.093 58.6223C154.149 58.8935 154.178 59.1646 154.178 59.4056V63.6533C154.178 63.6834 154.178 63.6834 154.149 63.6834H151.997C151.968 63.6834 151.968 63.6834 151.968 63.6533V59.7068C151.968 58.9537 151.77 58.3813 151.345 57.9294C151.119 57.6282 150.722 57.3872 150.156 57.2064L149.788 57.1161C149.306 57.2667 148.91 57.4173 148.598 57.5981C148.145 57.8391 147.833 58.1704 147.663 58.5621C147.578 58.8031 147.522 59.1646 147.522 59.6466V63.6533C147.522 63.6834 147.522 63.6834 147.493 63.6834H145.313C145.313 63.6834 145.284 63.6834 145.284 63.6533V47.1445H145.313ZM160.947 47.1445H161.06C162.08 47.1445 163.015 47.506 163.836 48.229C164.147 48.4701 164.346 48.7111 164.459 48.8617C165.11 49.7654 165.45 50.7596 165.45 51.7839V54.6759C165.45 55.7604 165.11 56.7244 164.431 57.6583C164.147 58.0198 163.893 58.2608 163.666 58.4416C162.845 59.0742 161.967 59.3755 161.004 59.3755C159.814 59.3755 158.794 58.9236 157.888 58.0198C157.52 57.6282 157.265 57.2667 157.095 56.8751C156.727 56.2123 156.557 55.3989 156.557 54.4349V52.1152C156.557 51.1211 156.727 50.2776 157.095 49.6148C157.237 49.3136 157.463 48.9822 157.803 48.5604C158.2 48.1688 158.511 47.8977 158.709 47.8073C159.417 47.3554 160.182 47.1445 160.947 47.1445ZM158.794 51.814V54.6759C158.794 55.3989 159.078 56.0315 159.672 56.5437C160.069 56.8449 160.494 57.0257 160.919 57.0257H161.06C161.683 57.0257 162.25 56.7244 162.731 56.1219C163.071 55.67 163.241 55.188 163.241 54.6759V51.814C163.241 51.1512 162.986 50.5487 162.448 50.0366C162.023 49.6751 161.542 49.4943 161.032 49.4943H161.004C160.267 49.4943 159.644 49.8257 159.163 50.5487C158.908 50.9705 158.794 51.3922 158.794 51.814ZM156.585 61.3336H165.422C165.45 61.3336 165.45 61.3336 165.45 61.3637V63.6533C165.45 63.6834 165.45 63.6834 165.422 63.6834H156.585C156.557 63.6834 156.557 63.6834 156.557 63.6533V61.3637L156.585 61.3336ZM172.418 63.6834C171.455 63.6834 170.548 63.352 169.727 62.6893C169.501 62.5085 169.274 62.2675 169.019 61.9361C168.368 61.0926 168.028 60.0081 168.028 58.7428V47.1445C168.028 47.1445 168.028 47.1445 168.056 47.1445H170.237H170.265V48.1085C170.265 48.5303 170.294 48.8014 170.35 48.9822C170.463 49.4341 170.718 49.7956 171.087 50.0366C171.313 50.1872 171.625 50.368 171.965 50.4885L173.947 51.091C174.57 51.332 175.108 51.6031 175.533 51.9345C175.703 52.0851 175.902 52.296 176.156 52.5671C176.666 53.2901 176.921 54.1939 176.921 55.2182V59.014C176.921 59.8273 176.695 60.6106 176.298 61.3637C176.185 61.6048 175.93 61.9361 175.533 62.388C174.627 63.2617 173.636 63.6834 172.531 63.6834H172.418ZM170.265 58.9838C170.265 59.4658 170.407 59.9177 170.69 60.3395C171.172 61.0022 171.766 61.3336 172.446 61.3336H172.503C172.956 61.3336 173.381 61.183 173.777 60.8817C174.4 60.3395 174.712 59.7068 174.712 58.9838V55.6098C174.712 55.1278 174.655 54.7663 174.542 54.5253C174.344 54.0433 173.947 53.6818 173.324 53.4106C173.041 53.26 172.758 53.1696 172.474 53.1094C171.398 52.778 170.662 52.5069 170.265 52.3261V58.9838ZM183.492 47.1445H183.577C184.597 47.1445 185.531 47.506 186.381 48.229C186.664 48.4701 186.863 48.7111 186.976 48.8617C187.656 49.7654 187.967 50.7596 187.967 51.7839V54.6759C187.967 55.7604 187.627 56.7244 186.976 57.6583C186.664 58.0198 186.409 58.2608 186.183 58.4416C185.361 59.0742 184.483 59.3755 183.52 59.3755C182.359 59.3755 181.311 58.9236 180.405 58.0198C180.065 57.6282 179.782 57.2667 179.612 56.8751C179.272 56.2123 179.074 55.3989 179.074 54.4349V52.1152C179.074 51.1211 179.272 50.2776 179.612 49.6148C179.753 49.3136 179.98 48.9822 180.32 48.5604C180.716 48.1688 181.028 47.8977 181.226 47.8073C181.934 47.3554 182.699 47.1445 183.492 47.1445ZM181.311 51.814V54.6759C181.311 55.3989 181.623 56.0315 182.189 56.5437C182.614 56.8449 183.011 57.0257 183.436 57.0257H183.577C184.229 57.0257 184.767 56.7244 185.277 56.1219C185.588 55.67 185.758 55.188 185.758 54.6759V51.814C185.758 51.1512 185.503 50.5487 184.993 50.0366C184.54 49.6751 184.059 49.4943 183.549 49.4943H183.52C182.784 49.4943 182.189 49.8257 181.679 50.5487C181.453 50.9705 181.311 51.3922 181.311 51.814ZM179.102 61.3336H187.939C187.967 61.3336 187.967 61.3336 187.967 61.3637V63.6533C187.967 63.6834 187.967 63.6834 187.939 63.6834H179.102C179.102 63.6834 179.074 63.6834 179.074 63.6533V61.3637L179.102 61.3336Z" fill="#FFFDF7"/>
<path fill-rule="evenodd" clip-rule="evenodd" d="M161.031 47.0391C163.467 47.0391 165.478 49.178 165.478 51.7989V54.7211C165.478 57.342 163.467 59.4508 161.031 59.4508C158.567 59.4508 156.556 57.342 156.556 54.7211V51.7989C156.556 49.178 158.567 47.0391 161.031 47.0391Z" fill="#FFFDF7"/>
<path fill-rule="evenodd" clip-rule="evenodd" d="M183.551 47C185.986 47 187.998 49.1389 187.998 51.7598V54.682C187.998 57.3029 185.986 59.4117 183.551 59.4117C181.086 59.4117 179.075 57.3029 179.075 54.682V51.7598C179.075 49.1389 181.086 47 183.551 47Z" fill="#FFFDF7"/>
<rect x="25" y="73.3516" width="250" height="30" rx="10" fill="url(#paint1_linear_2843_255)"/>
<path d="M189.892 91.3516H187.741V85.5334H189.889C190.482 85.5334 190.992 85.6499 191.42 85.8828C191.85 86.1139 192.181 86.4472 192.414 86.8828C192.647 87.3165 192.764 87.8355 192.764 88.4396C192.764 89.0457 192.647 89.5665 192.414 90.0021C192.183 90.4377 191.853 90.772 191.423 91.005C190.993 91.236 190.483 91.3516 189.892 91.3516ZM189.147 90.1527H189.838C190.163 90.1527 190.439 90.0978 190.664 89.9879C190.892 89.8762 191.063 89.6953 191.179 89.4453C191.296 89.1934 191.355 88.8582 191.355 88.4396C191.355 88.0211 191.296 87.6877 191.179 87.4396C191.061 87.1896 190.888 87.0097 190.659 86.8999C190.431 86.7881 190.151 86.7322 189.818 86.7322H189.147V90.1527ZM193.585 91.3516V86.9879H194.974V91.3516H193.585ZM194.281 86.4794C194.086 86.4794 193.918 86.415 193.778 86.2862C193.638 86.1555 193.568 85.9983 193.568 85.8146C193.568 85.6328 193.638 85.4775 193.778 85.3487C193.918 85.218 194.086 85.1527 194.281 85.1527C194.478 85.1527 194.645 85.218 194.784 85.3487C194.924 85.4775 194.994 85.6328 194.994 85.8146C194.994 85.9983 194.924 86.1555 194.784 86.2862C194.645 86.415 194.478 86.4794 194.281 86.4794ZM199.668 88.3203L198.392 88.3544C198.379 88.2635 198.343 88.183 198.284 88.1129C198.226 88.041 198.149 87.9851 198.054 87.9453C197.962 87.9036 197.854 87.8828 197.73 87.8828C197.569 87.8828 197.432 87.915 197.319 87.9794C197.207 88.0438 197.152 88.1309 197.154 88.2408C197.152 88.326 197.186 88.3999 197.256 88.4624C197.328 88.5249 197.456 88.575 197.64 88.6129L198.48 88.772C198.916 88.8554 199.24 88.9936 199.452 89.1868C199.666 89.38 199.774 89.6357 199.776 89.9538C199.774 90.2531 199.685 90.5135 199.509 90.7351C199.335 90.9567 199.096 91.129 198.793 91.2521C198.49 91.3733 198.143 91.4339 197.753 91.4339C197.13 91.4339 196.639 91.3061 196.279 91.0504C195.921 90.7929 195.716 90.4482 195.665 90.0163L197.037 89.9822C197.068 90.1413 197.146 90.2625 197.273 90.3459C197.4 90.4292 197.562 90.4709 197.759 90.4709C197.937 90.4709 198.082 90.4377 198.194 90.3714C198.305 90.3052 198.362 90.2171 198.364 90.1072C198.362 90.0088 198.319 89.9302 198.233 89.8714C198.148 89.8108 198.015 89.7635 197.833 89.7294L197.071 89.5845C196.634 89.505 196.308 89.3582 196.094 89.1442C195.88 88.9283 195.774 88.6536 195.776 88.3203C195.774 88.0286 195.852 87.7796 196.009 87.5732C196.166 87.3648 196.39 87.2057 196.679 87.0959C196.969 86.986 197.311 86.9311 197.705 86.9311C198.296 86.9311 198.762 87.0552 199.103 87.3033C199.444 87.5495 199.632 87.8885 199.668 88.3203ZM202.497 91.4339C202.037 91.4339 201.642 91.3393 201.312 91.1499C200.984 90.9605 200.733 90.6972 200.556 90.3601C200.38 90.0211 200.292 89.629 200.292 89.1839C200.292 88.737 200.38 88.3449 200.556 88.0078C200.734 87.6688 200.987 87.4046 201.315 87.2152C201.645 87.0258 202.038 86.9311 202.494 86.9311C202.897 86.9311 203.249 87.004 203.548 87.1499C203.849 87.2957 204.084 87.5021 204.252 87.7692C204.423 88.0343 204.513 88.3459 204.522 88.7038H203.224C203.198 88.4804 203.122 88.3052 202.997 88.1783C202.874 88.0514 202.713 87.9879 202.514 87.9879C202.353 87.9879 202.212 88.0334 202.091 88.1243C201.969 88.2133 201.875 88.3459 201.806 88.522C201.74 88.6963 201.707 88.9122 201.707 89.1697C201.707 89.4273 201.74 89.6451 201.806 89.8232C201.875 89.9993 201.969 90.1328 202.091 90.2237C202.212 90.3127 202.353 90.3572 202.514 90.3572C202.643 90.3572 202.756 90.3298 202.855 90.2749C202.955 90.2199 203.038 90.1394 203.102 90.0334C203.166 89.9254 203.207 89.7947 203.224 89.6413H204.522C204.509 90.0012 204.419 90.3156 204.252 90.5845C204.088 90.8535 203.856 91.0627 203.556 91.2124C203.259 91.3601 202.906 91.4339 202.497 91.4339ZM207.27 91.4339C206.812 91.4339 206.418 91.3402 206.088 91.1527C205.761 90.9633 205.508 90.7 205.33 90.3629C205.154 90.0239 205.066 89.6309 205.066 89.1839C205.066 88.7351 205.154 88.3421 205.33 88.005C205.508 87.666 205.761 87.4027 206.088 87.2152C206.418 87.0258 206.812 86.9311 207.27 86.9311C207.729 86.9311 208.122 87.0258 208.449 87.2152C208.779 87.4027 209.032 87.666 209.208 88.005C209.386 88.3421 209.475 88.7351 209.475 89.1839C209.475 89.6309 209.386 90.0239 209.208 90.3629C209.032 90.7 208.779 90.9633 208.449 91.1527C208.122 91.3402 207.729 91.4339 207.27 91.4339ZM207.279 90.3857C207.445 90.3857 207.587 90.3345 207.702 90.2322C207.818 90.13 207.906 89.9879 207.966 89.8061C208.029 89.6243 208.06 89.4141 208.06 89.1754C208.06 88.933 208.029 88.7209 207.966 88.5391C207.906 88.3572 207.818 88.2152 207.702 88.1129C207.587 88.0107 207.445 87.9595 207.279 87.9595C207.106 87.9595 206.961 88.0107 206.841 88.1129C206.724 88.2152 206.634 88.3572 206.571 88.5391C206.511 88.7209 206.48 88.933 206.48 89.1754C206.48 89.4141 206.511 89.6243 206.571 89.8061C206.634 89.9879 206.724 90.13 206.841 90.2322C206.961 90.3345 207.106 90.3857 207.279 90.3857ZM211.576 88.8629V91.3516H210.186V86.9879H211.507V87.7891H211.556C211.652 87.522 211.817 87.3127 212.05 87.1612C212.283 87.0078 212.56 86.9311 212.882 86.9311C213.189 86.9311 213.455 87.0002 213.681 87.1385C213.908 87.2749 214.084 87.4661 214.209 87.7124C214.336 87.9567 214.399 88.2427 214.397 88.5703V91.3516H213.007V88.843C213.009 88.6006 212.948 88.4112 212.823 88.2749C212.7 88.1385 212.528 88.0703 212.309 88.0703C212.163 88.0703 212.034 88.1025 211.922 88.1669C211.812 88.2294 211.727 88.3194 211.667 88.4368C211.608 88.5542 211.578 88.6963 211.576 88.8629ZM216.646 88.8629V91.3516H215.257V86.9879H216.578V87.7891H216.626C216.723 87.522 216.887 87.3127 217.12 87.1612C217.353 87.0078 217.631 86.9311 217.953 86.9311C218.26 86.9311 218.526 87.0002 218.751 87.1385C218.978 87.2749 219.154 87.4661 219.279 87.7124C219.406 87.9567 219.469 88.2427 219.467 88.5703V91.3516H218.078V88.843C218.08 88.6006 218.018 88.4112 217.893 88.2749C217.77 88.1385 217.599 88.0703 217.379 88.0703C217.233 88.0703 217.104 88.1025 216.993 88.1669C216.883 88.2294 216.797 88.3194 216.737 88.4368C216.678 88.5542 216.648 88.6963 216.646 88.8629ZM221.716 88.8629V91.3516H220.327V86.9879H221.648V87.7891H221.696C221.793 87.522 221.958 87.3127 222.191 87.1612C222.424 87.0078 222.701 86.9311 223.023 86.9311C223.33 86.9311 223.596 87.0002 223.821 87.1385C224.049 87.2749 224.225 87.4661 224.35 87.7124C224.477 87.9567 224.539 88.2427 224.537 88.5703V91.3516H223.148V88.843C223.15 88.6006 223.088 88.4112 222.963 88.2749C222.84 88.1385 222.669 88.0703 222.449 88.0703C222.303 88.0703 222.175 88.1025 222.063 88.1669C221.953 88.2294 221.868 88.3194 221.807 88.4368C221.748 88.5542 221.718 88.6963 221.716 88.8629ZM227.437 91.4339C226.981 91.4339 226.587 91.344 226.255 91.1641C225.926 90.9822 225.672 90.7237 225.494 90.3885C225.318 90.0514 225.23 89.6508 225.23 89.1868C225.23 88.736 225.319 88.3421 225.497 88.005C225.675 87.666 225.926 87.4027 226.25 87.2152C226.574 87.0258 226.955 86.9311 227.395 86.9311C227.705 86.9311 227.989 86.9794 228.247 87.076C228.504 87.1726 228.727 87.3156 228.914 87.505C229.102 87.6944 229.248 87.9283 229.352 88.2067C229.456 88.4832 229.508 88.8004 229.508 89.1584V89.505H225.716V88.6982H228.216C228.214 88.5504 228.179 88.4188 228.11 88.3033C228.042 88.1877 227.949 88.0978 227.829 88.0334C227.712 87.9671 227.576 87.9339 227.423 87.9339C227.268 87.9339 227.128 87.969 227.005 88.0391C226.882 88.1072 226.785 88.201 226.713 88.3203C226.641 88.4377 226.603 88.5713 226.599 88.7209V89.5419C226.599 89.7199 226.634 89.8762 226.704 90.0107C226.774 90.1432 226.874 90.2464 227.002 90.3203C227.131 90.3942 227.285 90.4311 227.463 90.4311C227.586 90.4311 227.698 90.4141 227.798 90.38C227.898 90.3459 227.984 90.2957 228.056 90.2294C228.128 90.1631 228.182 90.0817 228.218 89.9851L229.494 90.022C229.441 90.308 229.324 90.5571 229.145 90.7692C228.967 90.9794 228.733 91.1432 228.443 91.2607C228.153 91.3762 227.818 91.4339 227.437 91.4339ZM232.255 91.4339C231.794 91.4339 231.4 91.3393 231.07 91.1499C230.742 90.9605 230.49 90.6972 230.314 90.3601C230.138 90.0211 230.05 89.629 230.05 89.1839C230.05 88.737 230.138 88.3449 230.314 88.0078C230.492 87.6688 230.745 87.4046 231.073 87.2152C231.402 87.0258 231.795 86.9311 232.252 86.9311C232.655 86.9311 233.007 87.004 233.306 87.1499C233.607 87.2957 233.842 87.5021 234.01 87.7692C234.181 88.0343 234.271 88.3459 234.28 88.7038H232.982C232.955 88.4804 232.88 88.3052 232.755 88.1783C232.632 88.0514 232.471 87.9879 232.272 87.9879C232.111 87.9879 231.97 88.0334 231.848 88.1243C231.727 88.2133 231.632 88.3459 231.564 88.522C231.498 88.6963 231.465 88.9122 231.465 89.1697C231.465 89.4273 231.498 89.6451 231.564 89.8232C231.632 89.9993 231.727 90.1328 231.848 90.2237C231.97 90.3127 232.111 90.3572 232.272 90.3572C232.4 90.3572 232.514 90.3298 232.613 90.2749C232.713 90.2199 232.795 90.1394 232.86 90.0334C232.924 89.9254 232.965 89.7947 232.982 89.6413H234.28C234.267 90.0012 234.177 90.3156 234.01 90.5845C233.846 90.8535 233.614 91.0627 233.314 91.2124C233.017 91.3601 232.664 91.4339 232.255 91.4339ZM237.454 86.9879V88.0107H234.701V86.9879H237.454ZM235.278 85.9425H236.667V89.9794C236.667 90.0646 236.681 90.1338 236.707 90.1868C236.735 90.2379 236.776 90.2749 236.829 90.2976C236.882 90.3184 236.946 90.3288 237.02 90.3288C237.073 90.3288 237.128 90.3241 237.187 90.3146C237.248 90.3033 237.293 90.2938 237.324 90.2862L237.534 91.2891C237.467 91.308 237.374 91.3317 237.252 91.3601C237.133 91.3885 236.99 91.4065 236.824 91.4141C236.498 91.4292 236.218 91.3913 235.985 91.3004C235.754 91.2076 235.577 91.0637 235.454 90.8686C235.333 90.6735 235.274 90.4283 235.278 90.1328V85.9425ZM241.277 91.3516L239.583 85.5334H241.137L242.015 89.3459H242.064L243.066 85.5334H244.333L245.336 89.3544H245.385L246.265 85.5334H247.816L246.126 91.3516H244.771L243.723 87.8232H243.677L242.629 91.3516H241.277ZM249.143 91.4254C248.865 91.4254 248.618 91.379 248.402 91.2862C248.188 91.1915 248.018 91.0495 247.893 90.8601C247.77 90.6688 247.708 90.4292 247.708 90.1413C247.708 89.8989 247.751 89.6944 247.836 89.5277C247.922 89.361 248.039 89.2256 248.189 89.1214C248.338 89.0173 248.511 88.9387 248.706 88.8857C248.901 88.8307 249.109 88.7938 249.331 88.7749C249.579 88.7521 249.779 88.7285 249.93 88.7038C250.082 88.6773 250.191 88.6404 250.26 88.593C250.33 88.5438 250.365 88.4747 250.365 88.3857V88.3714C250.365 88.2256 250.315 88.1129 250.214 88.0334C250.114 87.9538 249.978 87.9141 249.808 87.9141C249.624 87.9141 249.476 87.9538 249.365 88.0334C249.253 88.1129 249.182 88.2228 249.152 88.3629L247.87 88.3175C247.908 88.0523 248.006 87.8156 248.163 87.6072C248.322 87.397 248.54 87.2322 248.816 87.1129C249.095 86.9917 249.429 86.9311 249.819 86.9311C250.098 86.9311 250.354 86.9643 250.589 87.0305C250.824 87.0949 251.029 87.1896 251.203 87.3146C251.377 87.4377 251.511 87.5893 251.606 87.7692C251.703 87.9491 251.751 88.1546 251.751 88.3857V91.3516H250.444V90.7436H250.41C250.333 90.8913 250.233 91.0163 250.112 91.1186C249.993 91.2209 249.851 91.2976 249.689 91.3487C249.528 91.3999 249.346 91.4254 249.143 91.4254ZM249.572 90.5163C249.722 90.5163 249.856 90.486 249.975 90.4254C250.097 90.3648 250.193 90.2815 250.265 90.1754C250.337 90.0675 250.373 89.9425 250.373 89.8004V89.3857C250.333 89.4065 250.285 89.4254 250.228 89.4425C250.173 89.4595 250.113 89.4756 250.047 89.4908C249.98 89.5059 249.912 89.5192 249.842 89.5305C249.772 89.5419 249.705 89.5523 249.64 89.5618C249.51 89.5826 249.398 89.6148 249.305 89.6584C249.214 89.7019 249.144 89.7588 249.095 89.8288C249.047 89.897 249.024 89.9785 249.024 90.0732C249.024 90.2171 249.075 90.3269 249.177 90.4027C249.281 90.4785 249.413 90.5163 249.572 90.5163ZM253.99 85.5334V91.3516H252.6V85.5334H253.99ZM256.263 85.5334V91.3516H254.874V85.5334H256.263ZM259.187 91.4339C258.731 91.4339 258.337 91.344 258.005 91.1641C257.676 90.9822 257.422 90.7237 257.244 90.3885C257.068 90.0514 256.98 89.6508 256.98 89.1868C256.98 88.736 257.069 88.3421 257.247 88.005C257.425 87.666 257.676 87.4027 258 87.2152C258.324 87.0258 258.705 86.9311 259.145 86.9311C259.455 86.9311 259.739 86.9794 259.997 87.076C260.254 87.1726 260.477 87.3156 260.664 87.505C260.852 87.6944 260.998 87.9283 261.102 88.2067C261.206 88.4832 261.258 88.8004 261.258 89.1584V89.505H257.466V88.6982H259.966C259.964 88.5504 259.929 88.4188 259.86 88.3033C259.792 88.1877 259.699 88.0978 259.579 88.0334C259.462 87.9671 259.326 87.9339 259.173 87.9339C259.018 87.9339 258.878 87.969 258.755 88.0391C258.632 88.1072 258.535 88.201 258.463 88.3203C258.391 88.4377 258.353 88.5713 258.349 88.7209V89.5419C258.349 89.7199 258.384 89.8762 258.454 90.0107C258.524 90.1432 258.624 90.2464 258.752 90.3203C258.881 90.3942 259.035 90.4311 259.213 90.4311C259.336 90.4311 259.448 90.4141 259.548 90.38C259.648 90.3459 259.734 90.2957 259.806 90.2294C259.878 90.1631 259.932 90.0817 259.968 89.9851L261.244 90.022C261.191 90.308 261.074 90.5571 260.895 90.7692C260.717 90.9794 260.483 91.1432 260.193 91.2607C259.903 91.3762 259.568 91.4339 259.187 91.4339ZM264.431 86.9879V88.0107H261.678V86.9879H264.431ZM262.255 85.9425H263.644V89.9794C263.644 90.0646 263.657 90.1338 263.684 90.1868C263.712 90.2379 263.753 90.2749 263.806 90.2976C263.859 90.3184 263.922 90.3288 263.996 90.3288C264.049 90.3288 264.105 90.3241 264.164 90.3146C264.224 90.3033 264.27 90.2938 264.3 90.2862L264.51 91.2891C264.444 91.308 264.35 91.3317 264.229 91.3601C264.11 91.3885 263.967 91.4065 263.8 91.4141C263.474 91.4292 263.195 91.3913 262.962 91.3004C262.731 91.2076 262.554 91.0637 262.431 90.8686C262.31 90.6735 262.251 90.4283 262.255 90.1328V85.9425Z" fill="#00A0FF"/>
<path d="M38.571 87.4339C38.5388 87.3146 38.4915 87.2095 38.429 87.1186C38.3665 87.0258 38.2898 86.9472 38.1989 86.8828C38.108 86.8184 38.0038 86.7701 37.8864 86.7379C37.7689 86.7038 37.6402 86.6868 37.5 86.6868C37.2178 86.6868 36.9735 86.755 36.767 86.8913C36.5625 87.0277 36.4044 87.2266 36.2926 87.4879C36.1809 87.7474 36.125 88.0627 36.125 88.4339C36.125 88.8071 36.179 89.1252 36.2869 89.3885C36.3949 89.6518 36.5511 89.8525 36.7557 89.9908C36.9602 90.129 37.2083 90.1982 37.5 90.1982C37.7576 90.1982 37.9754 90.1565 38.1534 90.0732C38.3333 89.9879 38.4697 89.8677 38.5625 89.7124C38.6553 89.5571 38.7017 89.3743 38.7017 89.1641L38.9631 89.1953H37.5483V88.1697H40.0568V88.9396C40.0568 89.4605 39.946 89.9065 39.7244 90.2777C39.5047 90.6489 39.2017 90.9339 38.8153 91.1328C38.4309 91.3317 37.9886 91.4311 37.4886 91.4311C36.9337 91.4311 36.446 91.3108 36.0256 91.0703C35.6051 90.8298 35.2775 90.487 35.0426 90.0419C34.8078 89.5949 34.6903 89.0646 34.6903 88.451C34.6903 87.9737 34.7614 87.5504 34.9034 87.1811C35.0455 86.8099 35.2434 86.4955 35.4972 86.2379C35.7528 85.9804 36.0483 85.7853 36.3835 85.6527C36.7206 85.5201 37.0833 85.4538 37.4716 85.4538C37.8087 85.4538 38.1222 85.5021 38.4119 85.5987C38.7036 85.6953 38.9612 85.8317 39.1847 86.0078C39.41 86.1839 39.5928 86.3932 39.733 86.6357C39.8731 86.8781 39.9602 87.1442 39.9943 87.4339H38.571ZM42.1527 85.5334L43.2152 87.3714H43.2607L44.3345 85.5334H45.9084L44.1527 88.4425L45.9652 91.3516H44.3516L43.2607 89.4936H43.2152L42.1243 91.3516H40.522L42.326 88.4425L40.5675 85.5334H42.1527ZM46.6357 85.5334H48.3771L49.8544 89.1357H49.9226L51.3999 85.5334H53.1413V91.3516H51.772V87.7777H51.7237L50.326 91.3146H49.451L48.0533 87.7578H48.005V91.3516H46.6357V85.5334ZM55.2713 90.2067L55.277 88.5504H55.4702L56.6974 86.9879H58.2713L56.4474 89.2266H56.081L55.2713 90.2067ZM54.0185 91.3516V85.5334H55.4077V91.3516H54.0185ZM56.7287 91.3516L55.5866 89.5391L56.5014 88.5533L58.3338 91.3516H56.7287ZM61.0298 91.4311C60.5772 91.4311 60.1728 91.3591 59.8168 91.2152C59.4626 91.0694 59.1842 90.8724 58.9815 90.6243C58.7808 90.3743 58.6804 90.0921 58.6804 89.7777C58.6804 89.5372 58.7382 89.3165 58.8537 89.1158C58.9692 88.915 59.1255 88.7483 59.3224 88.6158C59.5213 88.4813 59.7429 88.3951 59.9872 88.3572V88.3118C59.6671 88.2531 59.4048 88.1044 59.2003 87.8658C58.9976 87.6271 58.8963 87.3478 58.8963 87.0277C58.8963 86.7247 58.9882 86.4548 59.1719 86.218C59.3575 85.9813 59.6103 85.7947 59.9304 85.6584C60.2524 85.522 60.6188 85.4538 61.0298 85.4538C61.4408 85.4538 61.8063 85.522 62.1264 85.6584C62.4484 85.7947 62.7012 85.9813 62.8849 86.218C63.0705 86.4548 63.1634 86.7247 63.1634 87.0277C63.1634 87.3497 63.0601 87.63 62.8537 87.8686C62.6491 88.1054 62.3887 88.2531 62.0724 88.3118V88.3572C62.3149 88.3951 62.5346 88.4813 62.7315 88.6158C62.9304 88.7483 63.0876 88.915 63.2031 89.1158C63.3205 89.3165 63.3793 89.5372 63.3793 89.7777C63.3793 90.0921 63.2779 90.3743 63.0753 90.6243C62.8726 90.8724 62.5942 91.0694 62.2401 91.2152C61.8878 91.3591 61.4844 91.4311 61.0298 91.4311ZM61.0298 90.4339C61.2022 90.4339 61.3537 90.4018 61.4844 90.3374C61.6151 90.2711 61.7173 90.1792 61.7912 90.0618C61.867 89.9444 61.9048 89.8118 61.9048 89.6641C61.9048 89.5125 61.867 89.3781 61.7912 89.2607C61.7154 89.1432 61.6113 89.0514 61.4787 88.9851C61.348 88.9169 61.1984 88.8828 61.0298 88.8828C60.8632 88.8828 60.7135 88.9169 60.581 88.9851C60.4484 89.0514 60.3442 89.1432 60.2685 89.2607C60.1927 89.3781 60.1548 89.5125 60.1548 89.6641C60.1548 89.8118 60.1918 89.9444 60.2656 90.0618C60.3414 90.1773 60.4446 90.2682 60.5753 90.3345C60.7079 90.4008 60.8594 90.4339 61.0298 90.4339ZM61.0298 87.8913C61.1776 87.8913 61.3082 87.861 61.4219 87.8004C61.5374 87.7398 61.6274 87.6555 61.6918 87.5476C61.758 87.4396 61.7912 87.3175 61.7912 87.1811C61.7912 87.0447 61.758 86.9245 61.6918 86.8203C61.6274 86.7161 61.5384 86.6347 61.4247 86.576C61.3111 86.5154 61.1795 86.4851 61.0298 86.4851C60.8821 86.4851 60.7505 86.5154 60.6349 86.576C60.5194 86.6347 60.4295 86.7161 60.3651 86.8203C60.3007 86.9245 60.2685 87.0447 60.2685 87.1811C60.2685 87.3175 60.3007 87.4396 60.3651 87.5476C60.4313 87.6536 60.5223 87.7379 60.6378 87.8004C60.7533 87.861 60.884 87.8913 61.0298 87.8913ZM64.1747 91.3516V86.9879H65.5241V87.7834H65.5696C65.6491 87.4955 65.7789 87.2815 65.9588 87.1413C66.1387 86.9993 66.348 86.9283 66.5866 86.9283C66.651 86.9283 66.7173 86.933 66.7855 86.9425C66.8537 86.95 66.9171 86.9624 66.9759 86.9794V88.1868C66.9096 88.1641 66.8224 88.1461 66.7145 88.1328C66.6084 88.1196 66.5137 88.1129 66.4304 88.1129C66.2656 88.1129 66.117 88.1499 65.9844 88.2237C65.8537 88.2957 65.7505 88.397 65.6747 88.5277C65.6009 88.6565 65.5639 88.808 65.5639 88.9822V91.3516H64.1747ZM67.8232 91.4339C67.6186 91.4339 67.4434 91.362 67.2976 91.218C67.1536 91.0741 67.0826 90.8999 67.0845 90.6953C67.0826 90.4946 67.1536 90.3232 67.2976 90.1811C67.4434 90.0372 67.6186 89.9652 67.8232 89.9652C68.0163 89.9652 68.1868 90.0372 68.3345 90.1811C68.4841 90.3232 68.5599 90.4946 68.5618 90.6953C68.5599 90.8317 68.5239 90.9557 68.4538 91.0675C68.3857 91.1792 68.2957 91.2682 68.1839 91.3345C68.0741 91.4008 67.9538 91.4339 67.8232 91.4339ZM70.2607 91.4339C70.0561 91.4339 69.8809 91.362 69.7351 91.218C69.5911 91.0741 69.5201 90.8999 69.522 90.6953C69.5201 90.4946 69.5911 90.3232 69.7351 90.1811C69.8809 90.0372 70.0561 89.9652 70.2607 89.9652C70.4538 89.9652 70.6243 90.0372 70.772 90.1811C70.9216 90.3232 70.9974 90.4946 70.9993 90.6953C70.9974 90.8317 70.9614 90.9557 70.8913 91.0675C70.8232 91.1792 70.7332 91.2682 70.6214 91.3345C70.5116 91.4008 70.3913 91.4339 70.2607 91.4339ZM72.6982 91.4339C72.4936 91.4339 72.3184 91.362 72.1726 91.218C72.0286 91.0741 71.9576 90.8999 71.9595 90.6953C71.9576 90.4946 72.0286 90.3232 72.1726 90.1811C72.3184 90.0372 72.4936 89.9652 72.6982 89.9652C72.8913 89.9652 73.0618 90.0372 73.2095 90.1811C73.3591 90.3232 73.4349 90.4946 73.4368 90.6953C73.4349 90.8317 73.3989 90.9557 73.3288 91.0675C73.2607 91.1792 73.1707 91.2682 73.0589 91.3345C72.9491 91.4008 72.8288 91.4339 72.6982 91.4339ZM74.3544 91.3516V85.5334H76.7578C77.1934 85.5334 77.5694 85.6186 77.8857 85.7891C78.2038 85.9576 78.4491 86.1934 78.6214 86.4964C78.7938 86.7976 78.88 87.148 78.88 87.5476C78.88 87.9491 78.7919 88.3004 78.6158 88.6016C78.4415 88.9008 78.1925 89.1328 77.8686 89.2976C77.5447 89.4624 77.1603 89.5447 76.7152 89.5447H75.2322V88.4368H76.4538C76.666 88.4368 76.843 88.3999 76.9851 88.326C77.129 88.2521 77.2379 88.1489 77.3118 88.0163C77.3857 87.8819 77.4226 87.7256 77.4226 87.5476C77.4226 87.3677 77.3857 87.2124 77.3118 87.0817C77.2379 86.9491 77.129 86.8468 76.9851 86.7749C76.8411 86.7029 76.6641 86.6669 76.4538 86.6669H75.7607V91.3516H74.3544ZM79.5732 91.3516V85.5334H80.9624V87.7351H80.9908C81.0476 87.6025 81.1281 87.4747 81.2322 87.3516C81.3383 87.2285 81.4728 87.1281 81.6357 87.0504C81.8004 86.9709 81.9974 86.9311 82.2266 86.9311C82.5296 86.9311 82.8127 87.0107 83.076 87.1697C83.3411 87.3288 83.5552 87.5741 83.718 87.9055C83.8809 88.237 83.9624 88.6593 83.9624 89.1726C83.9624 89.6669 83.8838 90.0807 83.7266 90.4141C83.5713 90.7474 83.361 90.9974 83.0959 91.1641C82.8326 91.3307 82.54 91.4141 82.218 91.4141C81.9983 91.4141 81.808 91.3781 81.647 91.3061C81.486 91.2341 81.3506 91.1394 81.2408 91.022C81.1328 90.9046 81.0495 90.7786 80.9908 90.6442H80.9482V91.3516H79.5732ZM80.9339 89.1697C80.9339 89.4046 80.9652 89.6091 81.0277 89.7834C81.0921 89.9576 81.1839 90.093 81.3033 90.1896C81.4245 90.2843 81.5694 90.3317 81.7379 90.3317C81.9084 90.3317 82.0533 90.2843 82.1726 90.1896C82.2919 90.093 82.3819 89.9576 82.4425 89.7834C82.505 89.6091 82.5362 89.4046 82.5362 89.1697C82.5362 88.9349 82.505 88.7313 82.4425 88.5589C82.3819 88.3866 82.2919 88.2531 82.1726 88.1584C82.0552 88.0637 81.9103 88.0163 81.7379 88.0163C81.5675 88.0163 81.4226 88.0627 81.3033 88.1555C81.1839 88.2483 81.0921 88.3809 81.0277 88.5533C80.9652 88.7256 80.9339 88.9311 80.9339 89.1697ZM85.3991 92.9879C85.2325 92.9879 85.0753 92.9747 84.9276 92.9482C84.7798 92.9235 84.6529 92.8904 84.5469 92.8487L84.8537 91.8402C84.9901 91.8857 85.1132 91.9122 85.223 91.9197C85.3348 91.9273 85.4304 91.9093 85.5099 91.8658C85.5914 91.8241 85.6539 91.7493 85.6974 91.6413L85.7514 91.5107L84.2003 86.9879H85.6548L86.4588 90.1016H86.5043L87.3196 86.9879H88.7827L87.1378 91.7692C87.0582 92.0078 86.9455 92.218 86.7997 92.3999C86.6558 92.5836 86.4692 92.7275 86.2401 92.8317C86.0128 92.9358 85.7325 92.9879 85.3991 92.9879ZM91.2116 91.4339C90.7533 91.4339 90.3594 91.3402 90.0298 91.1527C89.7022 90.9633 89.4493 90.7 89.2713 90.3629C89.0952 90.0239 89.0071 89.6309 89.0071 89.1839C89.0071 88.7351 89.0952 88.3421 89.2713 88.005C89.4493 87.666 89.7022 87.4027 90.0298 87.2152C90.3594 87.0258 90.7533 86.9311 91.2116 86.9311C91.67 86.9311 92.063 87.0258 92.3906 87.2152C92.7202 87.4027 92.973 87.666 93.1491 88.005C93.3272 88.3421 93.4162 88.7351 93.4162 89.1839C93.4162 89.6309 93.3272 90.0239 93.1491 90.3629C92.973 90.7 92.7202 90.9633 92.3906 91.1527C92.063 91.3402 91.67 91.4339 91.2116 91.4339ZM91.2202 90.3857C91.3868 90.3857 91.5279 90.3345 91.6435 90.2322C91.759 90.13 91.8471 89.9879 91.9077 89.8061C91.9702 89.6243 92.0014 89.4141 92.0014 89.1754C92.0014 88.933 91.9702 88.7209 91.9077 88.5391C91.8471 88.3572 91.759 88.2152 91.6435 88.1129C91.5279 88.0107 91.3868 87.9595 91.2202 87.9595C91.0478 87.9595 90.902 88.0107 90.7827 88.1129C90.6652 88.2152 90.5753 88.3572 90.5128 88.5391C90.4522 88.7209 90.4219 88.933 90.4219 89.1754C90.4219 89.4141 90.4522 89.6243 90.5128 89.8061C90.5753 89.9879 90.6652 90.13 90.7827 90.2322C90.902 90.3345 91.0478 90.3857 91.2202 90.3857Z" fill="#585B68"/>
<rect x="195" y="113.352" width="80" height="38" rx="10" fill="#585B68"/>
<path d="M217.921 144.352V143.34L220.043 141.482C220.202 141.338 220.338 141.207 220.45 141.087C220.561 140.966 220.647 140.845 220.705 140.724C220.764 140.601 220.793 140.467 220.793 140.323C220.793 140.162 220.758 140.025 220.688 139.911C220.618 139.796 220.522 139.707 220.398 139.644C220.275 139.582 220.134 139.55 219.975 139.55C219.814 139.55 219.673 139.584 219.552 139.65C219.431 139.714 219.336 139.808 219.268 139.931C219.201 140.054 219.168 140.204 219.168 140.38H217.836C217.836 139.984 217.925 139.642 218.103 139.354C218.281 139.067 218.531 138.845 218.853 138.69C219.177 138.532 219.553 138.454 219.981 138.454C220.422 138.454 220.806 138.528 221.131 138.675C221.457 138.823 221.709 139.03 221.887 139.295C222.067 139.558 222.157 139.864 222.157 140.212C222.157 140.434 222.112 140.654 222.023 140.871C221.934 141.089 221.774 141.33 221.543 141.593C221.314 141.856 220.988 142.172 220.566 142.539L219.87 143.181V143.218H222.228V144.352H217.921ZM224.452 143.556L224.426 143.871C224.403 144.133 224.357 144.388 224.287 144.636C224.219 144.886 224.146 145.11 224.068 145.309C223.991 145.508 223.929 145.662 223.884 145.772H223.009C223.039 145.662 223.08 145.508 223.131 145.309C223.184 145.11 223.233 144.886 223.278 144.636C223.324 144.386 223.349 144.132 223.355 143.874L223.361 143.556H224.452ZM225.507 144.352V143.34L227.629 141.482C227.788 141.338 227.924 141.207 228.036 141.087C228.147 140.966 228.232 140.845 228.291 140.724C228.35 140.601 228.379 140.467 228.379 140.323C228.379 140.162 228.344 140.025 228.274 139.911C228.204 139.796 228.107 139.707 227.984 139.644C227.861 139.582 227.72 139.55 227.561 139.55C227.4 139.55 227.259 139.584 227.138 139.65C227.017 139.714 226.922 139.808 226.854 139.931C226.787 140.054 226.754 140.204 226.754 140.38H225.422C225.422 139.984 225.511 139.642 225.689 139.354C225.867 139.067 226.117 138.845 226.439 138.69C226.763 138.532 227.139 138.454 227.567 138.454C228.008 138.454 228.392 138.528 228.717 138.675C229.043 138.823 229.295 139.03 229.473 139.295C229.653 139.558 229.743 139.864 229.743 140.212C229.743 140.434 229.698 140.654 229.609 140.871C229.52 141.089 229.36 141.33 229.129 141.593C228.9 141.856 228.574 142.172 228.152 142.539L227.456 143.181V143.218H229.814V144.352H225.507ZM230.856 144.352L233.202 139.704V139.667H230.458V138.533H234.657V139.675L232.302 144.352H230.856ZM235.832 144.352L238.179 139.704V139.667H235.435V138.533H239.634V139.675L237.278 144.352H235.832ZM240.198 144.434C239.994 144.434 239.818 144.362 239.673 144.218C239.529 144.074 239.458 143.9 239.46 143.695C239.458 143.495 239.529 143.323 239.673 143.181C239.818 143.037 239.994 142.965 240.198 142.965C240.391 142.965 240.562 143.037 240.71 143.181C240.859 143.323 240.935 143.495 240.937 143.695C240.935 143.832 240.899 143.956 240.829 144.067C240.761 144.179 240.671 144.268 240.559 144.335C240.449 144.401 240.329 144.434 240.198 144.434ZM243.999 144.494C243.492 144.494 243.054 144.373 242.687 144.133C242.319 143.89 242.036 143.543 241.837 143.09C241.638 142.636 241.54 142.089 241.542 141.451C241.544 140.813 241.643 140.271 241.84 139.826C242.039 139.379 242.321 139.039 242.687 138.806C243.054 138.571 243.492 138.454 243.999 138.454C244.507 138.454 244.944 138.571 245.312 138.806C245.681 139.039 245.965 139.379 246.164 139.826C246.363 140.273 246.461 140.815 246.46 141.451C246.46 142.091 246.36 142.638 246.161 143.093C245.962 143.548 245.679 143.895 245.312 144.136C244.946 144.374 244.509 144.494 243.999 144.494ZM243.999 143.343C244.302 143.343 244.548 143.189 244.735 142.88C244.923 142.569 245.015 142.093 245.013 141.451C245.013 141.031 244.971 140.684 244.886 140.411C244.8 140.137 244.682 139.932 244.531 139.798C244.379 139.663 244.202 139.596 243.999 139.596C243.698 139.596 243.455 139.748 243.269 140.053C243.084 140.356 242.99 140.822 242.988 141.451C242.986 141.877 243.027 142.23 243.11 142.511C243.195 142.791 243.315 143 243.468 143.138C243.621 143.275 243.799 143.343 243.999 143.343ZM249.671 144.494C249.164 144.494 248.726 144.373 248.359 144.133C247.991 143.89 247.708 143.543 247.509 143.09C247.31 142.636 247.212 142.089 247.214 141.451C247.216 140.813 247.315 140.271 247.512 139.826C247.711 139.379 247.993 139.039 248.359 138.806C248.726 138.571 249.164 138.454 249.671 138.454C250.179 138.454 250.616 138.571 250.984 138.806C251.353 139.039 251.637 139.379 251.836 139.826C252.035 140.273 252.133 140.815 252.131 141.451C252.131 142.091 252.032 142.638 251.833 143.093C251.634 143.548 251.351 143.895 250.984 144.136C250.618 144.374 250.181 144.494 249.671 144.494ZM249.671 143.343C249.974 143.343 250.219 143.189 250.407 142.88C250.594 142.569 250.687 142.093 250.685 141.451C250.685 141.031 250.643 140.684 250.558 140.411C250.472 140.137 250.354 139.932 250.202 139.798C250.051 139.663 249.874 139.596 249.671 139.596C249.37 139.596 249.127 139.748 248.941 140.053C248.755 140.356 248.662 140.822 248.66 141.451C248.658 141.877 248.699 142.23 248.782 142.511C248.867 142.791 248.987 143 249.14 143.138C249.293 143.275 249.47 143.343 249.671 143.343Z" fill="#FFFDF7"/>
<g clip-path="url(#clip0_2843_255)">
<path d="M235 134.204C238.785 134.204 241.854 131.136 241.854 127.35C241.854 123.565 238.785 120.496 235 120.496C231.214 120.496 228.146 123.565 228.146 127.35C228.146 131.136 231.214 134.204 235 134.204Z" fill="#0B53BF"/>
<path d="M236.233 122.359V123.242C237.994 123.773 239.284 125.409 239.284 127.35C239.284 129.291 237.994 130.927 236.233 131.458V132.341C238.478 131.792 240.14 129.766 240.14 127.35C240.14 124.934 238.478 122.908 236.233 122.359Z" fill="white"/>
<path d="M230.716 127.35C230.716 125.409 232.006 123.773 233.766 123.242V122.359C231.522 122.908 229.859 124.934 229.859 127.35C229.859 129.766 231.522 131.792 233.766 132.341V131.458C232.006 130.931 230.716 129.291 230.716 127.35Z" fill="white"/>
<path d="M236.842 128.306C236.842 126.553 234.097 127.273 234.097 126.305C234.097 125.958 234.375 125.735 234.906 125.735C235.54 125.735 235.759 126.044 235.827 126.459H236.701C236.623 125.679 236.176 125.187 235.429 125.04V124.352H234.572V125.016C233.754 125.12 233.24 125.596 233.24 126.305C233.24 128.066 235.99 127.406 235.99 128.357C235.99 128.717 235.643 128.957 235.056 128.957C234.289 128.957 234.037 128.618 233.942 128.151H233.09C233.145 129.005 233.672 129.54 234.572 129.673V130.349H235.429V129.682C236.307 129.569 236.842 129.058 236.842 128.306Z" fill="white"/>
</g>
<rect x="110" y="113.352" width="80" height="38" rx="10" fill="#585B68"/>
<path d="M142.859 144.494C142.351 144.494 141.914 144.373 141.546 144.133C141.179 143.89 140.896 143.543 140.697 143.09C140.498 142.636 140.399 142.089 140.401 141.451C140.403 140.813 140.503 140.271 140.7 139.826C140.898 139.379 141.181 139.039 141.546 138.806C141.914 138.571 142.351 138.454 142.859 138.454C143.366 138.454 143.804 138.571 144.171 138.806C144.54 139.039 144.825 139.379 145.023 139.826C145.222 140.273 145.321 140.815 145.319 141.451C145.319 142.091 145.219 142.638 145.021 143.093C144.822 143.548 144.539 143.895 144.171 144.136C143.806 144.374 143.368 144.494 142.859 144.494ZM142.859 143.343C143.162 143.343 143.407 143.189 143.594 142.88C143.782 142.569 143.875 142.093 143.873 141.451C143.873 141.031 143.83 140.684 143.745 140.411C143.66 140.137 143.541 139.932 143.39 139.798C143.238 139.663 143.061 139.596 142.859 139.596C142.558 139.596 142.314 139.748 142.129 140.053C141.943 140.356 141.849 140.822 141.847 141.451C141.845 141.877 141.886 142.23 141.969 142.511C142.055 142.791 142.174 143 142.327 143.138C142.481 143.275 142.658 143.343 142.859 143.343ZM146.667 144.434C146.462 144.434 146.287 144.362 146.141 144.218C145.997 144.074 145.926 143.9 145.928 143.695C145.926 143.495 145.997 143.323 146.141 143.181C146.287 143.037 146.462 142.965 146.667 142.965C146.86 142.965 147.031 143.037 147.178 143.181C147.328 143.323 147.404 143.495 147.406 143.695C147.404 143.832 147.368 143.956 147.298 144.067C147.229 144.179 147.139 144.268 147.028 144.335C146.918 144.401 146.798 144.434 146.667 144.434ZM150.468 144.494C149.96 144.494 149.523 144.373 149.156 144.133C148.788 143.89 148.505 143.543 148.306 143.09C148.107 142.636 148.009 142.089 148.011 141.451C148.013 140.813 148.112 140.271 148.309 139.826C148.508 139.379 148.79 139.039 149.156 138.806C149.523 138.571 149.96 138.454 150.468 138.454C150.976 138.454 151.413 138.571 151.781 138.806C152.15 139.039 152.434 139.379 152.633 139.826C152.832 140.273 152.93 140.815 152.928 141.451C152.928 142.091 152.829 142.638 152.63 143.093C152.431 143.548 152.148 143.895 151.781 144.136C151.415 144.374 150.978 144.494 150.468 144.494ZM150.468 143.343C150.771 143.343 151.016 143.189 151.204 142.88C151.391 142.569 151.484 142.093 151.482 141.451C151.482 141.031 151.44 140.684 151.354 140.411C151.269 140.137 151.151 139.932 150.999 139.798C150.848 139.663 150.671 139.596 150.468 139.596C150.167 139.596 149.924 139.748 149.738 140.053C149.552 140.356 149.459 140.822 149.457 141.451C149.455 141.877 149.496 142.23 149.579 142.511C149.664 142.791 149.783 143 149.937 143.138C150.09 143.275 150.267 143.343 150.468 143.343ZM156.14 144.494C155.632 144.494 155.195 144.373 154.827 144.133C154.46 143.89 154.177 143.543 153.978 143.09C153.779 142.636 153.681 142.089 153.683 141.451C153.684 140.813 153.784 140.271 153.981 139.826C154.18 139.379 154.462 139.039 154.827 138.806C155.195 138.571 155.632 138.454 156.14 138.454C156.647 138.454 157.085 138.571 157.452 138.806C157.822 139.039 158.106 139.379 158.305 139.826C158.504 140.273 158.602 140.815 158.6 141.451C158.6 142.091 158.501 142.638 158.302 143.093C158.103 143.548 157.82 143.895 157.452 144.136C157.087 144.374 156.649 144.494 156.14 144.494ZM156.14 143.343C156.443 143.343 156.688 143.189 156.876 142.88C157.063 142.569 157.156 142.093 157.154 141.451C157.154 141.031 157.112 140.684 157.026 140.411C156.941 140.137 156.823 139.932 156.671 139.798C156.52 139.663 156.343 139.596 156.14 139.596C155.839 139.596 155.595 139.748 155.41 140.053C155.224 140.356 155.13 140.822 155.129 141.451C155.127 141.877 155.167 142.23 155.251 142.511C155.336 142.791 155.455 143 155.609 143.138C155.762 143.275 155.939 143.343 156.14 143.343Z" fill="#FFFDF7"/>
<g clip-path="url(#clip1_2843_255)">
<mask id="mask0_2843_255" style="mask-type:luminance" maskUnits="userSpaceOnUse" x="143" y="120" width="14" height="15">
<path d="M157 120.352H143V134.352H157V120.352Z" fill="white"/>
</mask>
<g mask="url(#mask0_2843_255)">
<path d="M150 134.352C153.866 134.352 157 131.218 157 127.352C157 123.486 153.866 120.352 150 120.352C146.134 120.352 143 123.486 143 127.352C143 131.218 146.134 134.352 150 134.352Z" fill="#0B53BF"/>
<path d="M151.488 129.018C151.182 129.141 150.849 129.211 150.53 129.211C149.897 129.211 149.301 128.942 149.016 128.292H150.407L150.678 127.636H148.854C148.845 127.546 148.841 127.451 148.841 127.352C148.841 127.252 148.845 127.158 148.854 127.067H150.91L151.182 126.411H149.016C149.301 125.762 149.897 125.492 150.53 125.492C150.849 125.492 151.182 125.562 151.488 125.685L151.768 125.02C151.392 124.823 150.967 124.727 150.543 124.727C149.518 124.727 148.483 125.299 148.108 126.411H147.437V127.067H147.974C147.966 127.159 147.962 127.254 147.962 127.352C147.962 127.449 147.966 127.544 147.974 127.636H147.437V128.292H148.108C148.483 129.404 149.518 129.977 150.543 129.977C150.967 129.977 151.392 129.88 151.768 129.683L151.488 129.018Z" fill="white" stroke="#0B53BF" stroke-width="0.03" stroke-miterlimit="10"/>
<path d="M145.625 127.351C145.625 125.369 146.942 123.698 148.74 123.155V122.254C146.447 122.814 144.75 124.883 144.75 127.351C144.75 129.818 146.447 131.888 148.74 132.448V131.546C146.942 131.008 145.625 129.333 145.625 127.351Z" fill="white" stroke="#0B53BF" stroke-width="0.03" stroke-miterlimit="10"/>
<path d="M151.26 122.254V123.155C153.058 123.698 154.375 125.369 154.375 127.351C154.375 129.333 153.058 131.004 151.26 131.546V132.448C153.552 131.888 155.25 129.818 155.25 127.351C155.25 124.883 153.552 122.814 151.26 122.254Z" fill="white" stroke="#0B53BF" stroke-width="0.03" stroke-miterlimit="10"/>
</g>
</g>
<rect x="25" y="113.352" width="80" height="38" rx="10" fill="#585B68"/>
<path d="M57.93 144.352L60.2766 139.704V139.667H57.5323V138.533H61.7312V139.675L59.3761 144.352H57.93ZM62.2958 144.434C62.0913 144.434 61.9161 144.362 61.7702 144.218C61.6263 144.074 61.5553 143.9 61.5572 143.695C61.5553 143.495 61.6263 143.323 61.7702 143.181C61.9161 143.037 62.0913 142.965 62.2958 142.965C62.489 142.965 62.6594 143.037 62.8072 143.181C62.9568 143.323 63.0326 143.495 63.0344 143.695C63.0326 143.832 62.9966 143.956 62.9265 144.067C62.8583 144.179 62.7683 144.268 62.6566 144.335C62.5468 144.401 62.4265 144.434 62.2958 144.434ZM66.006 138.454C66.3242 138.454 66.6282 138.506 66.918 138.61C67.2077 138.712 67.4663 138.876 67.6935 139.102C67.9208 139.325 68.0998 139.62 68.2305 139.985C68.3612 140.351 68.4265 140.797 68.4265 141.323C68.4284 141.808 68.3716 142.243 68.256 142.627C68.1405 143.01 67.9748 143.335 67.7589 143.604C67.5449 143.873 67.2873 144.079 66.9862 144.221C66.685 144.361 66.3488 144.431 65.9776 144.431C65.5685 144.431 65.2077 144.353 64.8952 144.195C64.5846 144.036 64.3356 143.822 64.1481 143.553C63.9625 143.284 63.8517 142.983 63.8157 142.65H65.1992C65.2428 142.843 65.3346 142.989 65.4748 143.087C65.6149 143.184 65.7826 143.232 65.9776 143.232C66.3337 143.232 66.5998 143.078 66.7759 142.769C66.9521 142.46 67.0401 142.041 67.0401 141.511H67.006C66.9246 141.685 66.8091 141.835 66.6594 141.96C66.5117 142.085 66.3403 142.18 66.1452 142.246C65.9502 142.313 65.7447 142.346 65.5288 142.346C65.1803 142.346 64.8725 142.266 64.6055 142.107C64.3403 141.948 64.132 141.729 63.9805 141.451C63.8308 141.173 63.7551 140.854 63.7532 140.496C63.7513 140.095 63.8451 139.741 64.0344 139.434C64.2238 139.125 64.488 138.885 64.8271 138.712C65.1661 138.538 65.5591 138.452 66.006 138.454ZM66.0146 139.533C65.8403 139.533 65.685 139.574 65.5487 139.656C65.4142 139.737 65.3081 139.847 65.2305 139.985C65.1528 140.123 65.1149 140.279 65.1168 140.451C65.1187 140.623 65.1576 140.779 65.2333 140.917C65.311 141.055 65.4161 141.165 65.5487 141.246C65.6831 141.328 65.8365 141.369 66.0089 141.369C66.1377 141.369 66.257 141.345 66.3668 141.298C66.4767 141.25 66.5723 141.185 66.6538 141.102C66.7352 141.016 66.7987 140.918 66.8441 140.806C66.8915 140.694 66.9142 140.575 66.9123 140.448C66.9104 140.28 66.8706 140.126 66.793 139.988C66.7153 139.85 66.6083 139.74 66.4719 139.658C66.3375 139.575 66.185 139.533 66.0146 139.533ZM71.8888 138.533V144.352H70.4854V139.846H70.4513L69.1502 140.641V139.425L70.5849 138.533H71.8888Z" fill="#FFFDF7"/>
<g clip-path="url(#clip2_2843_255)">
<circle cx="64.65" cy="127.002" r="6.65" fill="#393939"/>
<g clip-path="url(#clip3_2843_255)">
<path d="M67.941 128.771L66.8432 129.931C66.8193 129.956 66.7904 129.976 66.7583 129.99C66.7263 130.004 66.6916 130.011 66.6567 130.011H61.4526C61.4278 130.011 61.4035 130.004 61.3828 129.99C61.362 129.977 61.3457 129.958 61.3358 129.935C61.3259 129.913 61.3228 129.888 61.327 129.864C61.3313 129.84 61.3425 129.817 61.3595 129.799L62.4581 128.64C62.4819 128.615 62.5107 128.595 62.5426 128.581C62.5746 128.567 62.6091 128.56 62.644 128.56H67.8478C67.8726 128.56 67.8969 128.567 67.9177 128.581C67.9384 128.594 67.9547 128.613 67.9647 128.636C67.9745 128.658 67.9776 128.683 67.9734 128.707C67.9691 128.731 67.9579 128.753 67.941 128.771ZM66.8432 126.436C66.8193 126.411 66.7904 126.391 66.7583 126.377C66.7263 126.363 66.6916 126.356 66.6567 126.356H61.4526C61.4278 126.356 61.4035 126.363 61.3828 126.377C61.362 126.39 61.3457 126.409 61.3358 126.432C61.3259 126.454 61.3228 126.479 61.327 126.503C61.3313 126.527 61.3425 126.549 61.3595 126.567L62.4581 127.727C62.4819 127.752 62.5107 127.772 62.5426 127.786C62.5746 127.8 62.6091 127.807 62.644 127.807H67.8478C67.8726 127.807 67.8969 127.8 67.9177 127.786C67.9384 127.773 67.9547 127.754 67.9647 127.731C67.9745 127.709 67.9776 127.684 67.9734 127.66C67.9691 127.636 67.9579 127.614 67.941 127.596L66.8432 126.436ZM61.4526 125.603H66.6567C66.6916 125.603 66.7263 125.596 66.7583 125.582C66.7904 125.568 66.8193 125.548 66.8432 125.523L67.941 124.364C67.9579 124.346 67.9691 124.323 67.9734 124.299C67.9776 124.275 67.9745 124.25 67.9647 124.228C67.9547 124.205 67.9384 124.186 67.9177 124.173C67.8969 124.159 67.8726 124.152 67.8478 124.152H62.644C62.6091 124.152 62.5746 124.16 62.5426 124.173C62.5107 124.187 62.4819 124.207 62.4581 124.232L61.3597 125.392C61.3428 125.41 61.3316 125.432 61.3273 125.456C61.3231 125.48 61.3261 125.505 61.336 125.527C61.3458 125.55 61.3621 125.569 61.3829 125.582C61.4036 125.596 61.4278 125.603 61.4526 125.603Z" fill="white"/>
</g>
</g>
<rect x="25" y="170" width="250" height="30" rx="10" fill="url(#paint2_linear_2843_255)"/>
<path d="M35.5732 188V182.182H37.9766C38.4122 182.182 38.7881 182.267 39.1044 182.438C39.4226 182.606 39.6679 182.842 39.8402 183.145C40.0125 183.446 40.0987 183.796 40.0987 184.196C40.0987 184.598 40.0107 184.949 39.8345 185.25C39.6603 185.549 39.4112 185.781 39.0874 185.946C38.7635 186.111 38.379 186.193 37.9339 186.193H36.451V185.085H37.6726C37.8847 185.085 38.0618 185.048 38.2038 184.974C38.3478 184.901 38.4567 184.797 38.5305 184.665C38.6044 184.53 38.6413 184.374 38.6413 184.196C38.6413 184.016 38.6044 183.861 38.5305 183.73C38.4567 183.598 38.3478 183.495 38.2038 183.423C38.0599 183.351 37.8828 183.315 37.6726 183.315H36.9794V188H35.5732ZM42.1811 182.182V188H40.7919V182.182H42.1811ZM45.1051 188.082C44.6487 188.082 44.2547 187.992 43.9233 187.812C43.5938 187.631 43.34 187.372 43.1619 187.037C42.9858 186.7 42.8977 186.299 42.8977 185.835C42.8977 185.384 42.9867 184.991 43.1648 184.653C43.3428 184.314 43.5938 184.051 43.9176 183.864C44.2415 183.674 44.6231 183.58 45.0625 183.58C45.3731 183.58 45.6572 183.628 45.9148 183.724C46.1723 183.821 46.3949 183.964 46.5824 184.153C46.7699 184.343 46.9157 184.577 47.0199 184.855C47.1241 185.132 47.1761 185.449 47.1761 185.807V186.153H43.3835V185.347H45.8835C45.8816 185.199 45.8466 185.067 45.7784 184.952C45.7102 184.836 45.6165 184.746 45.4972 184.682C45.3797 184.616 45.2443 184.582 45.0909 184.582C44.9356 184.582 44.7964 184.617 44.6733 184.688C44.5502 184.756 44.4527 184.849 44.3807 184.969C44.3087 185.086 44.2708 185.22 44.267 185.369V186.19C44.267 186.368 44.3021 186.525 44.3722 186.659C44.4422 186.792 44.5417 186.895 44.6705 186.969C44.7992 187.043 44.9527 187.08 45.1307 187.08C45.2538 187.08 45.3655 187.062 45.4659 187.028C45.5663 186.994 45.6525 186.944 45.7244 186.878C45.7964 186.812 45.8504 186.73 45.8864 186.634L47.1619 186.67C47.1089 186.956 46.9924 187.205 46.8125 187.418C46.6345 187.628 46.4006 187.792 46.1108 187.909C45.821 188.025 45.4858 188.082 45.1051 188.082ZM49.1158 188.074C48.8374 188.074 48.5902 188.027 48.3743 187.935C48.1603 187.84 47.9908 187.698 47.8658 187.509C47.7427 187.317 47.6811 187.078 47.6811 186.79C47.6811 186.547 47.7237 186.343 47.8089 186.176C47.8942 186.009 48.0116 185.874 48.1612 185.77C48.3108 185.666 48.4832 185.587 48.6783 185.534C48.8733 185.479 49.0817 185.442 49.3033 185.423C49.5514 185.401 49.7512 185.377 49.9027 185.352C50.0542 185.326 50.1641 185.289 50.2322 185.241C50.3023 185.192 50.3374 185.123 50.3374 185.034V185.02C50.3374 184.874 50.2872 184.761 50.1868 184.682C50.0864 184.602 49.951 184.562 49.7805 184.562C49.5968 184.562 49.4491 184.602 49.3374 184.682C49.2256 184.761 49.1546 184.871 49.1243 185.011L47.843 184.966C47.8809 184.701 47.9785 184.464 48.1357 184.256C48.2947 184.045 48.5125 183.881 48.7891 183.761C49.0675 183.64 49.4018 183.58 49.7919 183.58C50.0703 183.58 50.3269 183.613 50.5618 183.679C50.7966 183.743 51.0012 183.838 51.1754 183.963C51.3497 184.086 51.4841 184.238 51.5788 184.418C51.6754 184.598 51.7237 184.803 51.7237 185.034V188H50.4169V187.392H50.3828C50.3052 187.54 50.2057 187.665 50.0845 187.767C49.9652 187.869 49.8241 187.946 49.6612 187.997C49.5002 188.048 49.3184 188.074 49.1158 188.074ZM49.5447 187.165C49.6944 187.165 49.8288 187.134 49.9482 187.074C50.0694 187.013 50.166 186.93 50.2379 186.824C50.3099 186.716 50.3459 186.591 50.3459 186.449V186.034C50.3061 186.055 50.2578 186.074 50.201 186.091C50.1461 186.108 50.0855 186.124 50.0192 186.139C49.9529 186.154 49.8847 186.168 49.8146 186.179C49.7446 186.19 49.6773 186.201 49.6129 186.21C49.4822 186.231 49.3705 186.263 49.2777 186.307C49.1868 186.35 49.1167 186.407 49.0675 186.477C49.0201 186.545 48.9964 186.627 48.9964 186.722C48.9964 186.866 49.0476 186.975 49.1499 187.051C49.254 187.127 49.3857 187.165 49.5447 187.165ZM56.3828 184.969L55.1072 185.003C55.094 184.912 55.058 184.831 54.9993 184.761C54.9406 184.689 54.8639 184.634 54.7692 184.594C54.6764 184.552 54.5684 184.531 54.4453 184.531C54.2843 184.531 54.147 184.563 54.0334 184.628C53.9216 184.692 53.8667 184.779 53.8686 184.889C53.8667 184.974 53.9008 185.048 53.9709 185.111C54.0429 185.173 54.1707 185.223 54.3544 185.261L55.1953 185.42C55.6309 185.504 55.9548 185.642 56.1669 185.835C56.3809 186.028 56.4889 186.284 56.4908 186.602C56.4889 186.902 56.3999 187.162 56.2237 187.384C56.0495 187.605 55.8108 187.777 55.5078 187.901C55.2048 188.022 54.8582 188.082 54.468 188.082C53.8449 188.082 53.3535 187.955 52.9936 187.699C52.6357 187.441 52.4311 187.097 52.38 186.665L53.7521 186.631C53.7824 186.79 53.861 186.911 53.9879 186.994C54.1148 187.078 54.2768 187.119 54.4737 187.119C54.6518 187.119 54.7966 187.086 54.9084 187.02C55.0201 186.954 55.0769 186.866 55.0788 186.756C55.0769 186.657 55.0334 186.579 54.9482 186.52C54.8629 186.459 54.7294 186.412 54.5476 186.378L53.7862 186.233C53.3487 186.153 53.023 186.007 52.8089 185.793C52.5949 185.577 52.4889 185.302 52.4908 184.969C52.4889 184.677 52.5665 184.428 52.7237 184.222C52.8809 184.013 53.1044 183.854 53.3942 183.744C53.6839 183.634 54.0258 183.58 54.4197 183.58C55.0107 183.58 55.4766 183.704 55.8175 183.952C56.1584 184.198 56.3468 184.537 56.3828 184.969ZM59.2145 188.082C58.758 188.082 58.3641 187.992 58.0327 187.812C57.7031 187.631 57.4493 187.372 57.2713 187.037C57.0952 186.7 57.0071 186.299 57.0071 185.835C57.0071 185.384 57.0961 184.991 57.2741 184.653C57.4522 184.314 57.7031 184.051 58.027 183.864C58.3509 183.674 58.7325 183.58 59.1719 183.58C59.4825 183.58 59.7666 183.628 60.0241 183.724C60.2817 183.821 60.5043 183.964 60.6918 184.153C60.8793 184.343 61.0251 184.577 61.1293 184.855C61.2334 185.132 61.2855 185.449 61.2855 185.807V186.153H57.4929V185.347H59.9929C59.991 185.199 59.956 185.067 59.8878 184.952C59.8196 184.836 59.7259 184.746 59.6065 184.682C59.4891 184.616 59.3537 184.582 59.2003 184.582C59.045 184.582 58.9058 184.617 58.7827 184.688C58.6596 184.756 58.562 184.849 58.4901 184.969C58.4181 185.086 58.3802 185.22 58.3764 185.369V186.19C58.3764 186.368 58.4115 186.525 58.4815 186.659C58.5516 186.792 58.651 186.895 58.7798 186.969C58.9086 187.043 59.062 187.08 59.2401 187.08C59.3632 187.08 59.4749 187.062 59.5753 187.028C59.6757 186.994 59.7618 186.944 59.8338 186.878C59.9058 186.812 59.9598 186.73 59.9957 186.634L61.2713 186.67C61.2183 186.956 61.1018 187.205 60.9219 187.418C60.7438 187.628 60.5099 187.792 60.2202 187.909C59.9304 188.025 59.5952 188.082 59.2145 188.082ZM67.5234 184.969L66.2479 185.003C66.2346 184.912 66.1986 184.831 66.1399 184.761C66.0812 184.689 66.0045 184.634 65.9098 184.594C65.817 184.552 65.709 184.531 65.5859 184.531C65.425 184.531 65.2876 184.563 65.174 184.628C65.0623 184.692 65.0073 184.779 65.0092 184.889C65.0073 184.974 65.0414 185.048 65.1115 185.111C65.1835 185.173 65.3113 185.223 65.495 185.261L66.3359 185.42C66.7715 185.504 67.0954 185.642 67.3075 185.835C67.5215 186.028 67.6295 186.284 67.6314 186.602C67.6295 186.902 67.5405 187.162 67.3643 187.384C67.1901 187.605 66.9515 187.777 66.6484 187.901C66.3454 188.022 65.9988 188.082 65.6087 188.082C64.9856 188.082 64.4941 187.955 64.1342 187.699C63.7763 187.441 63.5717 187.097 63.5206 186.665L64.8928 186.631C64.9231 186.79 65.0017 186.911 65.1286 186.994C65.2554 187.078 65.4174 187.119 65.6143 187.119C65.7924 187.119 65.9373 187.086 66.049 187.02C66.1607 186.954 66.2176 186.866 66.2195 186.756C66.2176 186.657 66.174 186.579 66.0888 186.52C66.0036 186.459 65.87 186.412 65.6882 186.378L64.9268 186.233C64.4893 186.153 64.1636 186.007 63.9496 185.793C63.7356 185.577 63.6295 185.302 63.6314 184.969C63.6295 184.677 63.7071 184.428 63.8643 184.222C64.0215 184.013 64.245 183.854 64.5348 183.744C64.8246 183.634 65.1664 183.58 65.5604 183.58C66.1513 183.58 66.6172 183.704 66.9581 183.952C67.299 184.198 67.4875 184.537 67.5234 184.969ZM70.3551 188.082C69.8987 188.082 69.5047 187.992 69.1733 187.812C68.8438 187.631 68.59 187.372 68.4119 187.037C68.2358 186.7 68.1477 186.299 68.1477 185.835C68.1477 185.384 68.2367 184.991 68.4148 184.653C68.5928 184.314 68.8438 184.051 69.1676 183.864C69.4915 183.674 69.8731 183.58 70.3125 183.58C70.6231 183.58 70.9072 183.628 71.1648 183.724C71.4223 183.821 71.6449 183.964 71.8324 184.153C72.0199 184.343 72.1657 184.577 72.2699 184.855C72.3741 185.132 72.4261 185.449 72.4261 185.807V186.153H68.6335V185.347H71.1335C71.1316 185.199 71.0966 185.067 71.0284 184.952C70.9602 184.836 70.8665 184.746 70.7472 184.682C70.6297 184.616 70.4943 184.582 70.3409 184.582C70.1856 184.582 70.0464 184.617 69.9233 184.688C69.8002 184.756 69.7027 184.849 69.6307 184.969C69.5587 185.086 69.5208 185.22 69.517 185.369V186.19C69.517 186.368 69.5521 186.525 69.6222 186.659C69.6922 186.792 69.7917 186.895 69.9205 186.969C70.0492 187.043 70.2027 187.08 70.3807 187.08C70.5038 187.08 70.6155 187.062 70.7159 187.028C70.8163 186.994 70.9025 186.944 70.9744 186.878C71.0464 186.812 71.1004 186.73 71.1364 186.634L72.4119 186.67C72.3589 186.956 72.2424 187.205 72.0625 187.418C71.8845 187.628 71.6506 187.792 71.3608 187.909C71.071 188.025 70.7358 188.082 70.3551 188.082ZM74.5249 182.182V188H73.1357V182.182H74.5249ZM77.4489 188.082C76.9924 188.082 76.5985 187.992 76.267 187.812C75.9375 187.631 75.6837 187.372 75.5057 187.037C75.3295 186.7 75.2415 186.299 75.2415 185.835C75.2415 185.384 75.3305 184.991 75.5085 184.653C75.6866 184.314 75.9375 184.051 76.2614 183.864C76.5852 183.674 76.9669 183.58 77.4062 183.58C77.7169 183.58 78.0009 183.628 78.2585 183.724C78.5161 183.821 78.7386 183.964 78.9261 184.153C79.1136 184.343 79.2595 184.577 79.3636 184.855C79.4678 185.132 79.5199 185.449 79.5199 185.807V186.153H75.7273V185.347H78.2273C78.2254 185.199 78.1903 185.067 78.1222 184.952C78.054 184.836 77.9602 184.746 77.8409 184.682C77.7235 184.616 77.5881 184.582 77.4347 184.582C77.2794 184.582 77.1402 184.617 77.017 184.688C76.8939 184.756 76.7964 184.849 76.7244 184.969C76.6525 185.086 76.6146 185.22 76.6108 185.369V186.19C76.6108 186.368 76.6458 186.525 76.7159 186.659C76.786 186.792 76.8854 186.895 77.0142 186.969C77.143 187.043 77.2964 187.08 77.4744 187.08C77.5975 187.08 77.7093 187.062 77.8097 187.028C77.91 186.994 77.9962 186.944 78.0682 186.878C78.1402 186.812 78.1941 186.73 78.2301 186.634L79.5057 186.67C79.4527 186.956 79.3362 187.205 79.1562 187.418C78.9782 187.628 78.7443 187.792 78.4545 187.909C78.1648 188.025 77.8295 188.082 77.4489 188.082ZM82.2663 188.082C81.8061 188.082 81.4112 187.988 81.0817 187.798C80.754 187.609 80.5021 187.346 80.326 187.009C80.1499 186.67 80.0618 186.277 80.0618 185.832C80.0618 185.385 80.1499 184.993 80.326 184.656C80.504 184.317 80.7569 184.053 81.0845 183.864C81.4141 183.674 81.8071 183.58 82.2635 183.58C82.6669 183.58 83.0182 183.652 83.3175 183.798C83.6186 183.944 83.8535 184.151 84.022 184.418C84.1925 184.683 84.2824 184.994 84.2919 185.352H82.9936C82.9671 185.129 82.8913 184.954 82.7663 184.827C82.6432 184.7 82.4822 184.636 82.2834 184.636C82.1224 184.636 81.9813 184.682 81.8601 184.773C81.7389 184.862 81.6442 184.994 81.576 185.17C81.5097 185.345 81.4766 185.561 81.4766 185.818C81.4766 186.076 81.5097 186.294 81.576 186.472C81.6442 186.648 81.7389 186.781 81.8601 186.872C81.9813 186.961 82.1224 187.006 82.2834 187.006C82.4122 187.006 82.5258 186.978 82.6243 186.923C82.7247 186.868 82.8071 186.788 82.8714 186.682C82.9358 186.574 82.9766 186.443 82.9936 186.29H84.2919C84.2786 186.65 84.1887 186.964 84.022 187.233C83.8572 187.502 83.6252 187.711 83.326 187.861C83.0286 188.009 82.6754 188.082 82.2663 188.082ZM87.4659 183.636V184.659H84.7131V183.636H87.4659ZM85.2898 182.591H86.679V186.628C86.679 186.713 86.6922 186.782 86.7188 186.835C86.7472 186.886 86.7879 186.923 86.8409 186.946C86.8939 186.967 86.9574 186.977 87.0312 186.977C87.0843 186.977 87.1402 186.973 87.1989 186.963C87.2595 186.952 87.3049 186.942 87.3352 186.935L87.5455 187.938C87.4792 187.956 87.3854 187.98 87.2642 188.009C87.1449 188.037 87.0019 188.055 86.8352 188.062C86.5095 188.078 86.2301 188.04 85.9972 187.949C85.7661 187.856 85.589 187.712 85.4659 187.517C85.3447 187.322 85.286 187.077 85.2898 186.781V182.591ZM92.3565 183.636V184.659H89.6037V183.636H92.3565ZM90.1804 182.591H91.5696V186.628C91.5696 186.713 91.5829 186.782 91.6094 186.835C91.6378 186.886 91.6785 186.923 91.7315 186.946C91.7846 186.967 91.848 186.977 91.9219 186.977C91.9749 186.977 92.0308 186.973 92.0895 186.963C92.1501 186.952 92.1955 186.942 92.2259 186.935L92.4361 187.938C92.3698 187.956 92.276 187.98 92.1548 188.009C92.0355 188.037 91.8925 188.055 91.7259 188.062C91.4001 188.078 91.1207 188.04 90.8878 187.949C90.6567 187.856 90.4796 187.712 90.3565 187.517C90.2353 187.322 90.1766 187.077 90.1804 186.781V182.591ZM94.5483 185.511V188H93.1591V182.182H94.5028V184.438H94.5511C94.6496 184.169 94.8106 183.958 95.0341 183.807C95.2595 183.655 95.535 183.58 95.8608 183.58C96.1676 183.58 96.4347 183.648 96.6619 183.784C96.8892 183.919 97.0653 184.109 97.1903 184.355C97.3172 184.601 97.3797 184.889 97.3778 185.219V188H95.9886V185.491C95.9905 185.249 95.9299 185.06 95.8068 184.923C95.6837 184.787 95.5104 184.719 95.2869 184.719C95.1411 184.719 95.0123 184.751 94.9006 184.815C94.7907 184.878 94.7045 184.968 94.642 185.085C94.5814 185.203 94.5502 185.345 94.5483 185.511ZM100.285 188.082C99.8284 188.082 99.4344 187.992 99.103 187.812C98.7734 187.631 98.5196 187.372 98.3416 187.037C98.1655 186.7 98.0774 186.299 98.0774 185.835C98.0774 185.384 98.1664 184.991 98.3445 184.653C98.5225 184.314 98.7734 184.051 99.0973 183.864C99.4212 183.674 99.8028 183.58 100.242 183.58C100.553 183.58 100.837 183.628 101.094 183.724C101.352 183.821 101.575 183.964 101.762 184.153C101.95 184.343 102.095 184.577 102.2 184.855C102.304 185.132 102.356 185.449 102.356 185.807V186.153H98.5632V185.347H101.063C101.061 185.199 101.026 185.067 100.958 184.952C100.89 184.836 100.796 184.746 100.677 184.682C100.559 184.616 100.424 184.582 100.271 184.582C100.115 184.582 99.9761 184.617 99.853 184.688C99.7299 184.756 99.6323 184.849 99.5604 184.969C99.4884 185.086 99.4505 185.22 99.4467 185.369V186.19C99.4467 186.368 99.4818 186.525 99.5518 186.659C99.6219 186.792 99.7214 186.895 99.8501 186.969C99.9789 187.043 100.132 187.08 100.31 187.08C100.433 187.08 100.545 187.062 100.646 187.028C100.746 186.994 100.832 186.944 100.904 186.878C100.976 186.812 101.03 186.73 101.066 186.634L102.342 186.67C102.289 186.956 102.172 187.205 101.992 187.418C101.814 187.628 101.58 187.792 101.29 187.909C101.001 188.025 100.665 188.082 100.285 188.082ZM107.929 183.926C107.91 183.718 107.826 183.556 107.676 183.44C107.528 183.323 107.317 183.264 107.043 183.264C106.861 183.264 106.709 183.288 106.588 183.335C106.467 183.383 106.376 183.448 106.315 183.531C106.255 183.613 106.223 183.706 106.222 183.812C106.218 183.9 106.235 183.976 106.273 184.043C106.313 184.109 106.369 184.168 106.443 184.219C106.519 184.268 106.61 184.312 106.716 184.349C106.822 184.387 106.941 184.42 107.074 184.449L107.574 184.562C107.862 184.625 108.116 184.708 108.335 184.812C108.557 184.917 108.742 185.041 108.892 185.185C109.044 185.329 109.158 185.494 109.236 185.682C109.313 185.869 109.353 186.08 109.355 186.312C109.353 186.68 109.26 186.995 109.077 187.259C108.893 187.522 108.629 187.723 108.284 187.864C107.941 188.004 107.527 188.074 107.043 188.074C106.556 188.074 106.132 188.001 105.77 187.855C105.408 187.709 105.127 187.488 104.926 187.19C104.725 186.893 104.622 186.517 104.616 186.062H105.963C105.974 186.25 106.025 186.406 106.114 186.531C106.203 186.656 106.325 186.751 106.48 186.815C106.637 186.88 106.819 186.912 107.026 186.912C107.215 186.912 107.376 186.886 107.509 186.835C107.643 186.784 107.746 186.713 107.818 186.622C107.89 186.531 107.927 186.427 107.929 186.31C107.927 186.2 107.893 186.106 107.827 186.028C107.76 185.949 107.658 185.881 107.52 185.824C107.384 185.765 107.209 185.711 106.997 185.662L106.389 185.52C105.885 185.404 105.489 185.218 105.199 184.96C104.909 184.701 104.765 184.35 104.767 183.909C104.765 183.549 104.862 183.234 105.057 182.963C105.252 182.692 105.522 182.481 105.866 182.33C106.211 182.178 106.604 182.102 107.045 182.102C107.496 182.102 107.887 182.179 108.219 182.332C108.552 182.484 108.811 182.697 108.994 182.972C109.178 183.246 109.272 183.564 109.276 183.926H107.929ZM112.528 183.636V184.659H109.776V183.636H112.528ZM110.352 182.591H111.741V186.628C111.741 186.713 111.755 186.782 111.781 186.835C111.81 186.886 111.85 186.923 111.903 186.946C111.956 186.967 112.02 186.977 112.094 186.977C112.147 186.977 112.203 186.973 112.261 186.963C112.322 186.952 112.367 186.942 112.398 186.935L112.608 187.938C112.542 187.956 112.448 187.98 112.327 188.009C112.207 188.037 112.064 188.055 111.898 188.062C111.572 188.078 111.293 188.04 111.06 187.949C110.829 187.856 110.652 187.712 110.528 187.517C110.407 187.322 110.348 187.077 110.352 186.781V182.591ZM114.467 188.074C114.189 188.074 113.942 188.027 113.726 187.935C113.512 187.84 113.342 187.698 113.217 187.509C113.094 187.317 113.033 187.078 113.033 186.79C113.033 186.547 113.075 186.343 113.161 186.176C113.246 186.009 113.363 185.874 113.513 185.77C113.662 185.666 113.835 185.587 114.03 185.534C114.225 185.479 114.433 185.442 114.655 185.423C114.903 185.401 115.103 185.377 115.254 185.352C115.406 185.326 115.516 185.289 115.584 185.241C115.654 185.192 115.689 185.123 115.689 185.034V185.02C115.689 184.874 115.639 184.761 115.538 184.682C115.438 184.602 115.303 184.562 115.132 184.562C114.948 184.562 114.801 184.602 114.689 184.682C114.577 184.761 114.506 184.871 114.476 185.011L113.195 184.966C113.232 184.701 113.33 184.464 113.487 184.256C113.646 184.045 113.864 183.881 114.141 183.761C114.419 183.64 114.753 183.58 115.143 183.58C115.422 183.58 115.679 183.613 115.913 183.679C116.148 183.743 116.353 183.838 116.527 183.963C116.701 184.086 116.836 184.238 116.93 184.418C117.027 184.598 117.075 184.803 117.075 185.034V188H115.768V187.392H115.734C115.657 187.54 115.557 187.665 115.436 187.767C115.317 187.869 115.176 187.946 115.013 187.997C114.852 188.048 114.67 188.074 114.467 188.074ZM114.896 187.165C115.046 187.165 115.18 187.134 115.3 187.074C115.421 187.013 115.518 186.93 115.589 186.824C115.661 186.716 115.697 186.591 115.697 186.449V186.034C115.658 186.055 115.609 186.074 115.553 186.091C115.498 186.108 115.437 186.124 115.371 186.139C115.304 186.154 115.236 186.168 115.166 186.179C115.096 186.19 115.029 186.201 114.964 186.21C114.834 186.231 114.722 186.263 114.629 186.307C114.538 186.35 114.468 186.407 114.419 186.477C114.372 186.545 114.348 186.627 114.348 186.722C114.348 186.866 114.399 186.975 114.501 187.051C114.606 187.127 114.737 187.165 114.896 187.165ZM117.925 188V182.182H119.314V184.384H119.342C119.399 184.251 119.48 184.123 119.584 184C119.69 183.877 119.824 183.777 119.987 183.699C120.152 183.619 120.349 183.58 120.578 183.58C120.881 183.58 121.164 183.659 121.428 183.818C121.693 183.977 121.907 184.223 122.07 184.554C122.232 184.885 122.314 185.308 122.314 185.821C122.314 186.315 122.235 186.729 122.078 187.062C121.923 187.396 121.713 187.646 121.447 187.812C121.184 187.979 120.892 188.062 120.57 188.062C120.35 188.062 120.16 188.027 119.999 187.955C119.838 187.883 119.702 187.788 119.592 187.67C119.484 187.553 119.401 187.427 119.342 187.293H119.3V188H117.925ZM119.286 185.818C119.286 186.053 119.317 186.258 119.379 186.432C119.444 186.606 119.536 186.741 119.655 186.838C119.776 186.933 119.921 186.98 120.089 186.98C120.26 186.98 120.405 186.933 120.524 186.838C120.643 186.741 120.733 186.606 120.794 186.432C120.857 186.258 120.888 186.053 120.888 185.818C120.888 185.583 120.857 185.38 120.794 185.207C120.733 185.035 120.643 184.902 120.524 184.807C120.407 184.712 120.262 184.665 120.089 184.665C119.919 184.665 119.774 184.711 119.655 184.804C119.536 184.897 119.444 185.029 119.379 185.202C119.317 185.374 119.286 185.58 119.286 185.818ZM124.431 182.182V188H123.042V182.182H124.431ZM127.355 188.082C126.899 188.082 126.505 187.992 126.173 187.812C125.844 187.631 125.59 187.372 125.412 187.037C125.236 186.7 125.148 186.299 125.148 185.835C125.148 185.384 125.237 184.991 125.415 184.653C125.593 184.314 125.844 184.051 126.168 183.864C126.491 183.674 126.873 183.58 127.312 183.58C127.623 183.58 127.907 183.628 128.165 183.724C128.422 183.821 128.645 183.964 128.832 184.153C129.02 184.343 129.166 184.577 129.27 184.855C129.374 185.132 129.426 185.449 129.426 185.807V186.153H125.634V185.347H128.134C128.132 185.199 128.097 185.067 128.028 184.952C127.96 184.836 127.866 184.746 127.747 184.682C127.63 184.616 127.494 184.582 127.341 184.582C127.186 184.582 127.046 184.617 126.923 184.688C126.8 184.756 126.703 184.849 126.631 184.969C126.559 185.086 126.521 185.22 126.517 185.369V186.19C126.517 186.368 126.552 186.525 126.622 186.659C126.692 186.792 126.792 186.895 126.92 186.969C127.049 187.043 127.203 187.08 127.381 187.08C127.504 187.08 127.616 187.062 127.716 187.028C127.816 186.994 127.902 186.944 127.974 186.878C128.046 186.812 128.1 186.73 128.136 186.634L129.412 186.67C129.359 186.956 129.242 187.205 129.062 187.418C128.884 187.628 128.651 187.792 128.361 187.909C128.071 188.025 127.736 188.082 127.355 188.082ZM132.173 188.082C131.712 188.082 131.317 187.988 130.988 187.798C130.66 187.609 130.408 187.346 130.232 187.009C130.056 186.67 129.968 186.277 129.968 185.832C129.968 185.385 130.056 184.993 130.232 184.656C130.41 184.317 130.663 184.053 130.991 183.864C131.32 183.674 131.713 183.58 132.17 183.58C132.573 183.58 132.924 183.652 133.224 183.798C133.525 183.944 133.76 184.151 133.928 184.418C134.099 184.683 134.189 184.994 134.198 185.352H132.9C132.873 185.129 132.798 184.954 132.673 184.827C132.549 184.7 132.388 184.636 132.19 184.636C132.029 184.636 131.888 184.682 131.766 184.773C131.645 184.862 131.55 184.994 131.482 185.17C131.416 185.345 131.383 185.561 131.383 185.818C131.383 186.076 131.416 186.294 131.482 186.472C131.55 186.648 131.645 186.781 131.766 186.872C131.888 186.961 132.029 187.006 132.19 187.006C132.318 187.006 132.432 186.978 132.531 186.923C132.631 186.868 132.713 186.788 132.778 186.682C132.842 186.574 132.883 186.443 132.9 186.29H134.198C134.185 186.65 134.095 186.964 133.928 187.233C133.763 187.502 133.531 187.711 133.232 187.861C132.935 188.009 132.582 188.082 132.173 188.082ZM136.946 188.082C136.488 188.082 136.094 187.989 135.764 187.801C135.437 187.612 135.184 187.348 135.006 187.011C134.83 186.672 134.741 186.279 134.741 185.832C134.741 185.384 134.83 184.991 135.006 184.653C135.184 184.314 135.437 184.051 135.764 183.864C136.094 183.674 136.488 183.58 136.946 183.58C137.404 183.58 137.797 183.674 138.125 183.864C138.455 184.051 138.707 184.314 138.884 184.653C139.062 184.991 139.151 185.384 139.151 185.832C139.151 186.279 139.062 186.672 138.884 187.011C138.707 187.348 138.455 187.612 138.125 187.801C137.797 187.989 137.404 188.082 136.946 188.082ZM136.955 187.034C137.121 187.034 137.262 186.983 137.378 186.881C137.493 186.778 137.581 186.636 137.642 186.455C137.705 186.273 137.736 186.062 137.736 185.824C137.736 185.581 137.705 185.369 137.642 185.188C137.581 185.006 137.493 184.864 137.378 184.761C137.262 184.659 137.121 184.608 136.955 184.608C136.782 184.608 136.636 184.659 136.517 184.761C136.4 184.864 136.31 185.006 136.247 185.188C136.187 185.369 136.156 185.581 136.156 185.824C136.156 186.062 136.187 186.273 136.247 186.455C136.31 186.636 136.4 186.778 136.517 186.881C136.636 186.983 136.782 187.034 136.955 187.034ZM139.862 188V183.636H141.251V188H139.862ZM140.558 183.128C140.363 183.128 140.196 183.063 140.055 182.935C139.915 182.804 139.845 182.647 139.845 182.463C139.845 182.281 139.915 182.126 140.055 181.997C140.196 181.866 140.363 181.801 140.558 181.801C140.755 181.801 140.923 181.866 141.061 181.997C141.201 182.126 141.271 182.281 141.271 182.463C141.271 182.647 141.201 182.804 141.061 182.935C140.923 183.063 140.755 183.128 140.558 183.128ZM143.525 185.511V188H142.136V183.636H143.457V184.438H143.505C143.602 184.17 143.766 183.961 143.999 183.81C144.232 183.656 144.51 183.58 144.832 183.58C145.138 183.58 145.405 183.649 145.63 183.787C145.857 183.923 146.033 184.115 146.158 184.361C146.285 184.605 146.348 184.891 146.346 185.219V188H144.957V185.491C144.959 185.249 144.897 185.06 144.772 184.923C144.649 184.787 144.478 184.719 144.258 184.719C144.112 184.719 143.983 184.751 143.871 184.815C143.762 184.878 143.676 184.968 143.616 185.085C143.557 185.203 143.527 185.345 143.525 185.511ZM150.155 188.074C149.876 188.074 149.629 188.027 149.413 187.935C149.199 187.84 149.03 187.698 148.905 187.509C148.782 187.317 148.72 187.078 148.72 186.79C148.72 186.547 148.763 186.343 148.848 186.176C148.933 186.009 149.051 185.874 149.2 185.77C149.35 185.666 149.522 185.587 149.717 185.534C149.912 185.479 150.121 185.442 150.342 185.423C150.59 185.401 150.79 185.377 150.942 185.352C151.093 185.326 151.203 185.289 151.271 185.241C151.341 185.192 151.376 185.123 151.376 185.034V185.02C151.376 184.874 151.326 184.761 151.226 184.682C151.125 184.602 150.99 184.562 150.82 184.562C150.636 184.562 150.488 184.602 150.376 184.682C150.265 184.761 150.194 184.871 150.163 185.011L148.882 184.966C148.92 184.701 149.018 184.464 149.175 184.256C149.334 184.045 149.552 183.881 149.828 183.761C150.107 183.64 150.441 183.58 150.831 183.58C151.109 183.58 151.366 183.613 151.601 183.679C151.836 183.743 152.04 183.838 152.214 183.963C152.389 184.086 152.523 184.238 152.618 184.418C152.714 184.598 152.763 184.803 152.763 185.034V188H151.456V187.392H151.422C151.344 187.54 151.245 187.665 151.124 187.767C151.004 187.869 150.863 187.946 150.7 187.997C150.539 188.048 150.357 188.074 150.155 188.074ZM150.584 187.165C150.733 187.165 150.868 187.134 150.987 187.074C151.108 187.013 151.205 186.93 151.277 186.824C151.349 186.716 151.385 186.591 151.385 186.449V186.034C151.345 186.055 151.297 186.074 151.24 186.091C151.185 186.108 151.125 186.124 151.058 186.139C150.992 186.154 150.924 186.168 150.854 186.179C150.784 186.19 150.716 186.201 150.652 186.21C150.521 186.231 150.41 186.263 150.317 186.307C150.226 186.35 150.156 186.407 150.107 186.477C150.059 186.545 150.036 186.627 150.036 186.722C150.036 186.866 150.087 186.975 150.189 187.051C150.293 187.127 150.425 187.165 150.584 187.165ZM157.422 184.969L156.146 185.003C156.133 184.912 156.097 184.831 156.038 184.761C155.98 184.689 155.903 184.634 155.808 184.594C155.715 184.552 155.607 184.531 155.484 184.531C155.323 184.531 155.186 184.563 155.072 184.628C154.961 184.692 154.906 184.779 154.908 184.889C154.906 184.974 154.94 185.048 155.01 185.111C155.082 185.173 155.21 185.223 155.393 185.261L156.234 185.42C156.67 185.504 156.994 185.642 157.206 185.835C157.42 186.028 157.528 186.284 157.53 186.602C157.528 186.902 157.439 187.162 157.263 187.384C157.089 187.605 156.85 187.777 156.547 187.901C156.244 188.022 155.897 188.082 155.507 188.082C154.884 188.082 154.393 187.955 154.033 187.699C153.675 187.441 153.47 187.097 153.419 186.665L154.791 186.631C154.821 186.79 154.9 186.911 155.027 186.994C155.154 187.078 155.316 187.119 155.513 187.119C155.691 187.119 155.836 187.086 155.947 187.02C156.059 186.954 156.116 186.866 156.118 186.756C156.116 186.657 156.072 186.579 155.987 186.52C155.902 186.459 155.768 186.412 155.587 186.378L154.825 186.233C154.388 186.153 154.062 186.007 153.848 185.793C153.634 185.577 153.528 185.302 153.53 184.969C153.528 184.677 153.606 184.428 153.763 184.222C153.92 184.013 154.143 183.854 154.433 183.744C154.723 183.634 155.065 183.58 155.459 183.58C156.05 183.58 156.516 183.704 156.857 183.952C157.197 184.198 157.386 184.537 157.422 184.969ZM162.023 184.969L160.748 185.003C160.735 184.912 160.699 184.831 160.64 184.761C160.581 184.689 160.504 184.634 160.41 184.594C160.317 184.552 160.209 184.531 160.086 184.531C159.925 184.531 159.788 184.563 159.674 184.628C159.562 184.692 159.507 184.779 159.509 184.889C159.507 184.974 159.541 185.048 159.612 185.111C159.683 185.173 159.811 185.223 159.995 185.261L160.836 185.42C161.272 185.504 161.595 185.642 161.808 185.835C162.022 186.028 162.129 186.284 162.131 186.602C162.129 186.902 162.04 187.162 161.864 187.384C161.69 187.605 161.451 187.777 161.148 187.901C160.845 188.022 160.499 188.082 160.109 188.082C159.486 188.082 158.994 187.955 158.634 187.699C158.276 187.441 158.072 187.097 158.021 186.665L159.393 186.631C159.423 186.79 159.502 186.911 159.629 186.994C159.755 187.078 159.917 187.119 160.114 187.119C160.292 187.119 160.437 187.086 160.549 187.02C160.661 186.954 160.718 186.866 160.719 186.756C160.718 186.657 160.674 186.579 160.589 186.52C160.504 186.459 160.37 186.412 160.188 186.378L159.427 186.233C158.989 186.153 158.664 186.007 158.45 185.793C158.236 185.577 158.129 185.302 158.131 184.969C158.129 184.677 158.207 184.428 158.364 184.222C158.522 184.013 158.745 183.854 159.035 183.744C159.325 183.634 159.666 183.58 160.06 183.58C160.651 183.58 161.117 183.704 161.458 183.952C161.799 184.198 161.987 184.537 162.023 184.969ZM164.855 188.082C164.399 188.082 164.005 187.992 163.673 187.812C163.344 187.631 163.09 187.372 162.912 187.037C162.736 186.7 162.648 186.299 162.648 185.835C162.648 185.384 162.737 184.991 162.915 184.653C163.093 184.314 163.344 184.051 163.668 183.864C163.991 183.674 164.373 183.58 164.812 183.58C165.123 183.58 165.407 183.628 165.665 183.724C165.922 183.821 166.145 183.964 166.332 184.153C166.52 184.343 166.666 184.577 166.77 184.855C166.874 185.132 166.926 185.449 166.926 185.807V186.153H163.134V185.347H165.634C165.632 185.199 165.597 185.067 165.528 184.952C165.46 184.836 165.366 184.746 165.247 184.682C165.13 184.616 164.994 184.582 164.841 184.582C164.686 184.582 164.546 184.617 164.423 184.688C164.3 184.756 164.203 184.849 164.131 184.969C164.059 185.086 164.021 185.22 164.017 185.369V186.19C164.017 186.368 164.052 186.525 164.122 186.659C164.192 186.792 164.292 186.895 164.42 186.969C164.549 187.043 164.703 187.08 164.881 187.08C165.004 187.08 165.116 187.062 165.216 187.028C165.316 186.994 165.402 186.944 165.474 186.878C165.546 186.812 165.6 186.73 165.636 186.634L166.912 186.67C166.859 186.956 166.742 187.205 166.562 187.418C166.384 187.628 166.151 187.792 165.861 187.909C165.571 188.025 165.236 188.082 164.855 188.082ZM170.099 183.636V184.659H167.346V183.636H170.099ZM167.923 182.591H169.312V186.628C169.312 186.713 169.325 186.782 169.352 186.835C169.38 186.886 169.421 186.923 169.474 186.946C169.527 186.967 169.59 186.977 169.664 186.977C169.717 186.977 169.773 186.973 169.832 186.963C169.892 186.952 169.938 186.942 169.968 186.935L170.178 187.938C170.112 187.956 170.018 187.98 169.897 188.009C169.778 188.037 169.635 188.055 169.468 188.062C169.142 188.078 168.863 188.04 168.63 187.949C168.399 187.856 168.222 187.712 168.099 187.517C167.978 187.322 167.919 187.077 167.923 186.781V182.591ZM173.376 189.636C173.209 189.636 173.052 189.623 172.904 189.597C172.756 189.572 172.629 189.539 172.523 189.497L172.83 188.489C172.967 188.534 173.09 188.561 173.2 188.568C173.311 188.576 173.407 188.558 173.487 188.514C173.568 188.473 173.63 188.398 173.674 188.29L173.728 188.159L172.177 183.636H173.631L174.435 186.75H174.481L175.296 183.636H176.759L175.114 188.418C175.035 188.656 174.922 188.866 174.776 189.048C174.632 189.232 174.446 189.376 174.217 189.48C173.989 189.584 173.709 189.636 173.376 189.636ZM179.188 188.082C178.73 188.082 178.336 187.989 178.006 187.801C177.679 187.612 177.426 187.348 177.248 187.011C177.072 186.672 176.984 186.279 176.984 185.832C176.984 185.384 177.072 184.991 177.248 184.653C177.426 184.314 177.679 184.051 178.006 183.864C178.336 183.674 178.73 183.58 179.188 183.58C179.647 183.58 180.04 183.674 180.367 183.864C180.697 184.051 180.95 184.314 181.126 184.653C181.304 184.991 181.393 185.384 181.393 185.832C181.393 186.279 181.304 186.672 181.126 187.011C180.95 187.348 180.697 187.612 180.367 187.801C180.04 187.989 179.647 188.082 179.188 188.082ZM179.197 187.034C179.363 187.034 179.504 186.983 179.62 186.881C179.736 186.778 179.824 186.636 179.884 186.455C179.947 186.273 179.978 186.062 179.978 185.824C179.978 185.581 179.947 185.369 179.884 185.188C179.824 185.006 179.736 184.864 179.62 184.761C179.504 184.659 179.363 184.608 179.197 184.608C179.024 184.608 178.879 184.659 178.759 184.761C178.642 184.864 178.552 185.006 178.489 185.188C178.429 185.369 178.398 185.581 178.398 185.824C178.398 186.062 178.429 186.273 178.489 186.455C178.552 186.636 178.642 186.778 178.759 186.881C178.879 186.983 179.024 187.034 179.197 187.034ZM184.92 186.116V183.636H186.306V188H184.982V187.188H184.937C184.84 187.455 184.675 187.667 184.442 187.824C184.211 187.979 183.932 188.057 183.604 188.057C183.307 188.057 183.046 187.989 182.82 187.852C182.595 187.716 182.42 187.526 182.295 187.281C182.17 187.035 182.106 186.747 182.104 186.418V183.636H183.494V186.145C183.496 186.382 183.558 186.568 183.681 186.705C183.804 186.841 183.972 186.909 184.184 186.909C184.322 186.909 184.446 186.879 184.556 186.818C184.668 186.756 184.756 186.666 184.82 186.548C184.887 186.429 184.92 186.285 184.92 186.116ZM189.724 188L188.588 183.636H189.983L190.571 186.432H190.608L191.239 183.636H192.599L193.247 186.412H193.284L193.855 183.636H195.25L194.111 188H192.625L191.943 185.457H191.895L191.213 188H189.724ZM197.038 188.074C196.759 188.074 196.512 188.027 196.296 187.935C196.082 187.84 195.913 187.698 195.788 187.509C195.665 187.317 195.603 187.078 195.603 186.79C195.603 186.547 195.646 186.343 195.731 186.176C195.816 186.009 195.933 185.874 196.083 185.77C196.233 185.666 196.405 185.587 196.6 185.534C196.795 185.479 197.004 185.442 197.225 185.423C197.473 185.401 197.673 185.377 197.825 185.352C197.976 185.326 198.086 185.289 198.154 185.241C198.224 185.192 198.259 185.123 198.259 185.034V185.02C198.259 184.874 198.209 184.761 198.109 184.682C198.008 184.602 197.873 184.562 197.702 184.562C197.519 184.562 197.371 184.602 197.259 184.682C197.147 184.761 197.076 184.871 197.046 185.011L195.765 184.966C195.803 184.701 195.9 184.464 196.058 184.256C196.217 184.045 196.434 183.881 196.711 183.761C196.989 183.64 197.324 183.58 197.714 183.58C197.992 183.58 198.249 183.613 198.484 183.679C198.719 183.743 198.923 183.838 199.097 183.963C199.272 184.086 199.406 184.238 199.501 184.418C199.597 184.598 199.646 184.803 199.646 185.034V188H198.339V187.392H198.305C198.227 187.54 198.128 187.665 198.006 187.767C197.887 187.869 197.746 187.946 197.583 187.997C197.422 188.048 197.24 188.074 197.038 188.074ZM197.467 187.165C197.616 187.165 197.751 187.134 197.87 187.074C197.991 187.013 198.088 186.93 198.16 186.824C198.232 186.716 198.268 186.591 198.268 186.449V186.034C198.228 186.055 198.18 186.074 198.123 186.091C198.068 186.108 198.007 186.124 197.941 186.139C197.875 186.154 197.807 186.168 197.737 186.179C197.666 186.19 197.599 186.201 197.535 186.21C197.404 186.231 197.292 186.263 197.2 186.307C197.109 186.35 197.039 186.407 196.989 186.477C196.942 186.545 196.918 186.627 196.918 186.722C196.918 186.866 196.969 186.975 197.072 187.051C197.176 187.127 197.308 187.165 197.467 187.165ZM201.884 185.511V188H200.495V183.636H201.816V184.438H201.864C201.961 184.17 202.126 183.961 202.359 183.81C202.592 183.656 202.869 183.58 203.191 183.58C203.498 183.58 203.764 183.649 203.989 183.787C204.217 183.923 204.393 184.115 204.518 184.361C204.645 184.605 204.707 184.891 204.705 185.219V188H203.316V185.491C203.318 185.249 203.256 185.06 203.131 184.923C203.008 184.787 202.837 184.719 202.617 184.719C202.471 184.719 202.343 184.751 202.231 184.815C202.121 184.878 202.036 184.968 201.975 185.085C201.916 185.203 201.886 185.345 201.884 185.511ZM208.028 183.636V184.659H205.276V183.636H208.028ZM205.852 182.591H207.241V186.628C207.241 186.713 207.255 186.782 207.281 186.835C207.31 186.886 207.35 186.923 207.403 186.946C207.456 186.967 207.52 186.977 207.594 186.977C207.647 186.977 207.703 186.973 207.761 186.963C207.822 186.952 207.867 186.942 207.898 186.935L208.108 187.938C208.042 187.956 207.948 187.98 207.827 188.009C207.707 188.037 207.564 188.055 207.398 188.062C207.072 188.078 206.793 188.04 206.56 187.949C206.329 187.856 206.152 187.712 206.028 187.517C205.907 187.322 205.848 187.077 205.852 186.781V182.591ZM212.919 183.636V184.659H210.166V183.636H212.919ZM210.743 182.591H212.132V186.628C212.132 186.713 212.145 186.782 212.172 186.835C212.2 186.886 212.241 186.923 212.294 186.946C212.347 186.967 212.411 186.977 212.484 186.977C212.537 186.977 212.593 186.973 212.652 186.963C212.713 186.952 212.758 186.942 212.788 186.935L212.999 187.938C212.932 187.956 212.839 187.98 212.717 188.009C212.598 188.037 212.455 188.055 212.288 188.062C211.963 188.078 211.683 188.04 211.45 187.949C211.219 187.856 211.042 187.712 210.919 187.517C210.798 187.322 210.739 187.077 210.743 186.781V182.591ZM215.618 188.082C215.16 188.082 214.766 187.989 214.436 187.801C214.108 187.612 213.856 187.348 213.678 187.011C213.501 186.672 213.413 186.279 213.413 185.832C213.413 185.384 213.501 184.991 213.678 184.653C213.856 184.314 214.108 184.051 214.436 183.864C214.766 183.674 215.16 183.58 215.618 183.58C216.076 183.58 216.469 183.674 216.797 183.864C217.126 184.051 217.379 184.314 217.555 184.653C217.733 184.991 217.822 185.384 217.822 185.832C217.822 186.279 217.733 186.672 217.555 187.011C217.379 187.348 217.126 187.612 216.797 187.801C216.469 187.989 216.076 188.082 215.618 188.082ZM215.626 187.034C215.793 187.034 215.934 186.983 216.05 186.881C216.165 186.778 216.253 186.636 216.314 186.455C216.376 186.273 216.408 186.062 216.408 185.824C216.408 185.581 216.376 185.369 216.314 185.188C216.253 185.006 216.165 184.864 216.05 184.761C215.934 184.659 215.793 184.608 215.626 184.608C215.454 184.608 215.308 184.659 215.189 184.761C215.071 184.864 214.982 185.006 214.919 185.188C214.858 185.369 214.828 185.581 214.828 185.824C214.828 186.062 214.858 186.273 214.919 186.455C214.982 186.636 215.071 186.778 215.189 186.881C215.308 186.983 215.454 187.034 215.626 187.034ZM221.847 188.062C221.525 188.062 221.232 187.979 220.969 187.812C220.705 187.646 220.495 187.396 220.338 187.062C220.181 186.729 220.102 186.315 220.102 185.821C220.102 185.308 220.184 184.885 220.347 184.554C220.509 184.223 220.723 183.977 220.986 183.818C221.251 183.659 221.536 183.58 221.841 183.58C222.07 183.58 222.266 183.619 222.429 183.699C222.592 183.777 222.726 183.877 222.832 184C222.938 184.123 223.019 184.251 223.074 184.384H223.102V182.182H224.491V188H223.116V187.293H223.074C223.015 187.427 222.932 187.553 222.824 187.67C222.716 187.788 222.58 187.883 222.418 187.955C222.257 188.027 222.066 188.062 221.847 188.062ZM222.33 186.98C222.498 186.98 222.642 186.933 222.761 186.838C222.881 186.741 222.973 186.606 223.037 186.432C223.101 186.258 223.134 186.053 223.134 185.818C223.134 185.58 223.101 185.374 223.037 185.202C222.974 185.029 222.883 184.897 222.761 184.804C222.642 184.711 222.498 184.665 222.33 184.665C222.157 184.665 222.011 184.712 221.892 184.807C221.773 184.902 221.682 185.035 221.619 185.207C221.559 185.38 221.528 185.583 221.528 185.818C221.528 186.053 221.56 186.258 221.622 186.432C221.685 186.606 221.775 186.741 221.892 186.838C222.011 186.933 222.157 186.98 222.33 186.98ZM227.41 188.082C226.953 188.082 226.559 187.992 226.228 187.812C225.898 187.631 225.645 187.372 225.467 187.037C225.29 186.7 225.202 186.299 225.202 185.835C225.202 185.384 225.291 184.991 225.469 184.653C225.647 184.314 225.898 184.051 226.222 183.864C226.546 183.674 226.928 183.58 227.367 183.58C227.678 183.58 227.962 183.628 228.219 183.724C228.477 183.821 228.7 183.964 228.887 184.153C229.075 184.343 229.22 184.577 229.325 184.855C229.429 185.132 229.481 185.449 229.481 185.807V186.153H225.688V185.347H228.188C228.186 185.199 228.151 185.067 228.083 184.952C228.015 184.836 227.921 184.746 227.802 184.682C227.684 184.616 227.549 184.582 227.396 184.582C227.24 184.582 227.101 184.617 226.978 184.688C226.855 184.756 226.757 184.849 226.685 184.969C226.613 185.086 226.576 185.22 226.572 185.369V186.19C226.572 186.368 226.607 186.525 226.677 186.659C226.747 186.792 226.846 186.895 226.975 186.969C227.104 187.043 227.257 187.08 227.435 187.08C227.558 187.08 227.67 187.062 227.771 187.028C227.871 186.994 227.957 186.944 228.029 186.878C228.101 186.812 228.155 186.73 228.191 186.634L229.467 186.67C229.414 186.956 229.297 187.205 229.117 187.418C228.939 187.628 228.705 187.792 228.415 187.909C228.126 188.025 227.79 188.082 227.41 188.082ZM230.19 189.636V183.636H231.565V184.384H231.608C231.665 184.251 231.745 184.123 231.849 184C231.955 183.877 232.09 183.777 232.253 183.699C232.418 183.619 232.615 183.58 232.844 183.58C233.147 183.58 233.43 183.659 233.693 183.818C233.958 183.977 234.172 184.223 234.335 184.554C234.498 184.885 234.58 185.308 234.58 185.821C234.58 186.315 234.501 186.729 234.344 187.062C234.188 187.396 233.978 187.646 233.713 187.812C233.45 187.979 233.157 188.062 232.835 188.062C232.616 188.062 232.425 188.027 232.264 187.955C232.103 187.883 231.968 187.788 231.858 187.67C231.75 187.553 231.667 187.427 231.608 187.293H231.58V189.636H230.19ZM231.551 185.818C231.551 186.053 231.582 186.258 231.645 186.432C231.709 186.606 231.801 186.741 231.92 186.838C232.042 186.933 232.187 186.98 232.355 186.98C232.526 186.98 232.67 186.933 232.79 186.838C232.909 186.741 232.999 186.606 233.06 186.432C233.122 186.258 233.153 186.053 233.153 185.818C233.153 185.583 233.122 185.38 233.06 185.207C232.999 185.035 232.909 184.902 232.79 184.807C232.672 184.712 232.527 184.665 232.355 184.665C232.185 184.665 232.04 184.711 231.92 184.804C231.801 184.897 231.709 185.029 231.645 185.202C231.582 185.374 231.551 185.58 231.551 185.818ZM237.344 188.082C236.886 188.082 236.492 187.989 236.163 187.801C235.835 187.612 235.582 187.348 235.404 187.011C235.228 186.672 235.14 186.279 235.14 185.832C235.14 185.384 235.228 184.991 235.404 184.653C235.582 184.314 235.835 184.051 236.163 183.864C236.492 183.674 236.886 183.58 237.344 183.58C237.803 183.58 238.196 183.674 238.523 183.864C238.853 184.051 239.106 184.314 239.282 184.653C239.46 184.991 239.549 185.384 239.549 185.832C239.549 186.279 239.46 186.672 239.282 187.011C239.106 187.348 238.853 187.612 238.523 187.801C238.196 187.989 237.803 188.082 237.344 188.082ZM237.353 187.034C237.52 187.034 237.661 186.983 237.776 186.881C237.892 186.778 237.98 186.636 238.04 186.455C238.103 186.273 238.134 186.062 238.134 185.824C238.134 185.581 238.103 185.369 238.04 185.188C237.98 185.006 237.892 184.864 237.776 184.761C237.661 184.659 237.52 184.608 237.353 184.608C237.181 184.608 237.035 184.659 236.915 184.761C236.798 184.864 236.708 185.006 236.646 185.188C236.585 185.369 236.555 185.581 236.555 185.824C236.555 186.062 236.585 186.273 236.646 186.455C236.708 186.636 236.798 186.778 236.915 186.881C237.035 186.983 237.181 187.034 237.353 187.034ZM244.07 184.969L242.795 185.003C242.781 184.912 242.746 184.831 242.687 184.761C242.628 184.689 242.551 184.634 242.457 184.594C242.364 184.552 242.256 184.531 242.133 184.531C241.972 184.531 241.835 184.563 241.721 184.628C241.609 184.692 241.554 184.779 241.556 184.889C241.554 184.974 241.588 185.048 241.658 185.111C241.73 185.173 241.858 185.223 242.042 185.261L242.883 185.42C243.318 185.504 243.642 185.642 243.854 185.835C244.068 186.028 244.176 186.284 244.178 186.602C244.176 186.902 244.087 187.162 243.911 187.384C243.737 187.605 243.498 187.777 243.195 187.901C242.892 188.022 242.546 188.082 242.156 188.082C241.532 188.082 241.041 187.955 240.681 187.699C240.323 187.441 240.119 187.097 240.067 186.665L241.44 186.631C241.47 186.79 241.549 186.911 241.675 186.994C241.802 187.078 241.964 187.119 242.161 187.119C242.339 187.119 242.484 187.086 242.596 187.02C242.708 186.954 242.764 186.866 242.766 186.756C242.764 186.657 242.721 186.579 242.636 186.52C242.55 186.459 242.417 186.412 242.235 186.378L241.474 186.233C241.036 186.153 240.71 186.007 240.496 185.793C240.282 185.577 240.176 185.302 240.178 184.969C240.176 184.677 240.254 184.428 240.411 184.222C240.568 184.013 240.792 183.854 241.082 183.744C241.371 183.634 241.713 183.58 242.107 183.58C242.698 183.58 243.164 183.704 243.505 183.952C243.846 184.198 244.034 184.537 244.07 184.969ZM244.862 188V183.636H246.251V188H244.862ZM245.558 183.128C245.363 183.128 245.196 183.063 245.055 182.935C244.915 182.804 244.845 182.647 244.845 182.463C244.845 182.281 244.915 182.126 245.055 181.997C245.196 181.866 245.363 181.801 245.558 181.801C245.755 181.801 245.923 181.866 246.061 181.997C246.201 182.126 246.271 182.281 246.271 182.463C246.271 182.647 246.201 182.804 246.061 182.935C245.923 183.063 245.755 183.128 245.558 183.128ZM249.599 183.636V184.659H246.846V183.636H249.599ZM247.423 182.591H248.812V186.628C248.812 186.713 248.825 186.782 248.852 186.835C248.88 186.886 248.921 186.923 248.974 186.946C249.027 186.967 249.09 186.977 249.164 186.977C249.217 186.977 249.273 186.973 249.332 186.963C249.392 186.952 249.438 186.942 249.468 186.935L249.678 187.938C249.612 187.956 249.518 187.98 249.397 188.009C249.278 188.037 249.135 188.055 248.968 188.062C248.642 188.078 248.363 188.04 248.13 187.949C247.899 187.856 247.722 187.712 247.599 187.517C247.478 187.322 247.419 187.077 247.423 186.781V182.591Z" fill="#585B68"/>
<defs>
<linearGradient id="paint0_linear_2843_255" x1="150" y1="0" x2="150" y2="248" gradientUnits="userSpaceOnUse">
<stop offset="0.355769" stop-color="#929292"/>
<stop offset="0.7" stop-color="#585B68"/>
</linearGradient>
<linearGradient id="paint1_linear_2843_255" x1="150" y1="73.3516" x2="150" y2="103.352" gradientUnits="userSpaceOnUse">
<stop stop-color="#ECECEC"/>
<stop offset="1" stop-color="#D1D0D0"/>
</linearGradient>
<linearGradient id="paint2_linear_2843_255" x1="150" y1="170" x2="150" y2="200" gradientUnits="userSpaceOnUse">
<stop stop-color="#ECECEC"/>
<stop offset="1" stop-color="#D1D0D0"/>
</linearGradient>
<clipPath id="clip0_2843_255">
<rect width="14" height="14" fill="white" transform="translate(228 120.352)"/>
</clipPath>
<clipPath id="clip1_2843_255">
<rect width="14" height="14" fill="white" transform="translate(143 120.352)"/>
</clipPath>
<clipPath id="clip2_2843_255">
<rect width="14" height="14" fill="white" transform="translate(58 120.352)"/>
</clipPath>
<clipPath id="clip3_2843_255">
<rect width="6.65" height="5.85833" fill="white" transform="translate(61.3252 124.152)"/>
</clipPath>
</defs>
</svg>
