<svg width="300" height="363" viewBox="0 0 300 363" fill="none" xmlns="http://www.w3.org/2000/svg">
<rect width="300" height="363" rx="10" fill="url(#paint0_linear_2814_232)"/>
<g filter="url(#filter0_d_2814_232)">
<rect x="26" y="316" width="250" height="30" rx="10" fill="#00A0FF"/>
</g>
<path d="M110.912 336V327.273H113.022V334.287H116.653V336H110.912ZM117.744 336V329.455H119.828V336H117.744ZM118.789 328.692C118.496 328.692 118.244 328.595 118.034 328.402C117.824 328.206 117.719 327.97 117.719 327.695C117.719 327.422 117.824 327.189 118.034 326.996C118.244 326.8 118.496 326.702 118.789 326.702C119.084 326.702 119.335 326.8 119.543 326.996C119.753 327.189 119.858 327.422 119.858 327.695C119.858 327.97 119.753 328.206 119.543 328.402C119.335 328.595 119.084 328.692 118.789 328.692ZM125.429 338.455V334.939H125.386C125.298 335.141 125.173 335.33 125.011 335.506C124.849 335.682 124.646 335.824 124.402 335.932C124.16 336.04 123.875 336.094 123.545 336.094C123.062 336.094 122.623 335.969 122.229 335.719C121.834 335.469 121.518 335.094 121.282 334.594C121.047 334.094 120.929 333.473 120.929 332.732C120.929 331.962 121.051 331.328 121.295 330.831C121.54 330.334 121.859 329.966 122.254 329.727C122.652 329.489 123.079 329.369 123.537 329.369C123.881 329.369 124.175 329.429 124.419 329.548C124.663 329.665 124.865 329.815 125.024 330C125.183 330.185 125.304 330.376 125.386 330.575H125.45V329.455H127.513V338.455H125.429ZM124.27 334.47C124.523 334.47 124.738 334.399 124.917 334.257C125.096 334.112 125.234 333.909 125.331 333.648C125.427 333.386 125.476 333.08 125.476 332.727C125.476 332.369 125.427 332.061 125.331 331.803C125.237 331.544 125.099 331.345 124.917 331.206C124.738 331.067 124.523 330.997 124.27 330.997C124.011 330.997 123.792 331.068 123.613 331.21C123.434 331.352 123.298 331.553 123.204 331.811C123.113 332.07 123.068 332.375 123.068 332.727C123.068 333.08 123.115 333.386 123.209 333.648C123.302 333.909 123.437 334.112 123.613 334.257C123.792 334.399 124.011 334.47 124.27 334.47ZM133.053 333.175V329.455H135.133V336H133.147V334.781H133.079C132.934 335.182 132.687 335.5 132.338 335.736C131.991 335.969 131.572 336.085 131.08 336.085C130.634 336.085 130.242 335.983 129.904 335.778C129.566 335.574 129.303 335.288 129.116 334.922C128.928 334.553 128.833 334.121 128.83 333.626V329.455H130.914V333.217C130.917 333.572 131.011 333.852 131.195 334.057C131.38 334.261 131.632 334.364 131.95 334.364C132.157 334.364 132.343 334.318 132.508 334.227C132.676 334.134 132.808 333.999 132.904 333.822C133.004 333.643 133.053 333.428 133.053 333.175ZM136.459 336V329.455H138.543V336H136.459ZM137.503 328.692C137.211 328.692 136.959 328.595 136.749 328.402C136.539 328.206 136.434 327.97 136.434 327.695C136.434 327.422 136.539 327.189 136.749 326.996C136.959 326.8 137.211 326.702 137.503 326.702C137.799 326.702 138.05 326.8 138.258 326.996C138.468 327.189 138.573 327.422 138.573 327.695C138.573 327.97 138.468 328.206 138.258 328.402C138.05 328.595 137.799 328.692 137.503 328.692ZM142.26 336.094C141.777 336.094 141.338 335.969 140.943 335.719C140.548 335.469 140.233 335.094 139.997 334.594C139.762 334.094 139.644 333.473 139.644 332.732C139.644 331.962 139.766 331.328 140.01 330.831C140.254 330.334 140.574 329.966 140.969 329.727C141.367 329.489 141.794 329.369 142.252 329.369C142.595 329.369 142.889 329.429 143.134 329.548C143.378 329.665 143.58 329.815 143.739 330C143.898 330.185 144.019 330.376 144.101 330.575H144.144V327.273H146.227V336H144.165V334.939H144.101C144.013 335.141 143.888 335.33 143.726 335.506C143.564 335.682 143.361 335.824 143.117 335.932C142.875 336.04 142.59 336.094 142.26 336.094ZM142.985 334.47C143.237 334.47 143.453 334.399 143.632 334.257C143.811 334.112 143.949 333.909 144.046 333.648C144.142 333.386 144.191 333.08 144.191 332.727C144.191 332.369 144.142 332.061 144.046 331.803C143.952 331.544 143.814 331.345 143.632 331.206C143.453 331.067 143.237 330.997 142.985 330.997C142.726 330.997 142.507 331.068 142.328 331.21C142.149 331.352 142.013 331.553 141.919 331.811C141.828 332.07 141.783 332.375 141.783 332.727C141.783 333.08 141.83 333.386 141.923 333.648C142.017 333.909 142.152 334.112 142.328 334.257C142.507 334.399 142.726 334.47 142.985 334.47ZM147.545 336V329.455H149.629V336H147.545ZM148.589 328.692C148.297 328.692 148.045 328.595 147.835 328.402C147.625 328.206 147.52 327.97 147.52 327.695C147.52 327.422 147.625 327.189 147.835 326.996C148.045 326.8 148.297 326.702 148.589 326.702C148.885 326.702 149.136 326.8 149.344 326.996C149.554 327.189 149.659 327.422 149.659 327.695C149.659 327.97 149.554 328.206 149.344 328.402C149.136 328.595 148.885 328.692 148.589 328.692ZM154.65 329.455V330.989H150.521V329.455H154.65ZM151.386 327.886H153.47V333.942C153.47 334.07 153.49 334.173 153.529 334.253C153.572 334.33 153.633 334.385 153.713 334.419C153.792 334.45 153.887 334.466 153.998 334.466C154.078 334.466 154.161 334.459 154.249 334.445C154.34 334.428 154.409 334.413 154.454 334.402L154.769 335.906C154.67 335.935 154.529 335.97 154.347 336.013C154.169 336.055 153.954 336.082 153.704 336.094C153.215 336.116 152.796 336.06 152.447 335.923C152.1 335.784 151.835 335.568 151.65 335.276C151.468 334.983 151.38 334.615 151.386 334.172V327.886ZM156.987 338.455C156.737 338.455 156.502 338.435 156.28 338.395C156.058 338.358 155.868 338.308 155.709 338.246L156.169 336.733C156.374 336.801 156.558 336.841 156.723 336.852C156.891 336.864 157.034 336.837 157.154 336.771C157.276 336.709 157.369 336.597 157.435 336.435L157.516 336.239L155.189 329.455H157.371L158.577 334.125H158.645L159.868 329.455H162.063L159.595 336.626C159.476 336.984 159.307 337.3 159.088 337.572C158.872 337.848 158.593 338.064 158.249 338.22C157.908 338.376 157.487 338.455 156.987 338.455ZM165.44 336V327.273H169.045C169.698 327.273 170.262 327.401 170.737 327.656C171.214 327.909 171.582 328.263 171.84 328.717C172.099 329.169 172.228 329.695 172.228 330.294C172.228 330.896 172.096 331.423 171.832 331.875C171.57 332.324 171.197 332.672 170.711 332.919C170.225 333.166 169.649 333.29 168.981 333.29H166.757V331.628H168.589C168.907 331.628 169.173 331.572 169.386 331.462C169.602 331.351 169.765 331.196 169.876 330.997C169.987 330.795 170.042 330.561 170.042 330.294C170.042 330.024 169.987 329.791 169.876 329.595C169.765 329.396 169.602 329.243 169.386 329.135C169.17 329.027 168.904 328.973 168.589 328.973H167.549V336H165.44ZM176.194 336.124C175.507 336.124 174.916 335.983 174.422 335.702C173.93 335.418 173.551 335.023 173.284 334.517C173.02 334.009 172.888 333.419 172.888 332.749C172.888 332.075 173.02 331.486 173.284 330.98C173.551 330.472 173.93 330.077 174.422 329.795C174.916 329.511 175.507 329.369 176.194 329.369C176.882 329.369 177.471 329.511 177.963 329.795C178.457 330.077 178.836 330.472 179.101 330.98C179.368 331.486 179.501 332.075 179.501 332.749C179.501 333.419 179.368 334.009 179.101 334.517C178.836 335.023 178.457 335.418 177.963 335.702C177.471 335.983 176.882 336.124 176.194 336.124ZM176.207 334.551C176.457 334.551 176.669 334.474 176.842 334.321C177.015 334.168 177.148 333.955 177.238 333.682C177.332 333.409 177.379 333.094 177.379 332.736C177.379 332.372 177.332 332.054 177.238 331.781C177.148 331.509 177.015 331.295 176.842 331.142C176.669 330.989 176.457 330.912 176.207 330.912C175.949 330.912 175.73 330.989 175.551 331.142C175.375 331.295 175.24 331.509 175.146 331.781C175.055 332.054 175.01 332.372 175.01 332.736C175.01 333.094 175.055 333.409 175.146 333.682C175.24 333.955 175.375 334.168 175.551 334.321C175.73 334.474 175.949 334.551 176.207 334.551ZM183.624 336.124C182.937 336.124 182.346 335.983 181.851 335.702C181.36 335.418 180.981 335.023 180.714 334.517C180.449 334.009 180.317 333.419 180.317 332.749C180.317 332.075 180.449 331.486 180.714 330.98C180.981 330.472 181.36 330.077 181.851 329.795C182.346 329.511 182.937 329.369 183.624 329.369C184.312 329.369 184.901 329.511 185.393 329.795C185.887 330.077 186.266 330.472 186.53 330.98C186.797 331.486 186.931 332.075 186.931 332.749C186.931 333.419 186.797 334.009 186.53 334.517C186.266 335.023 185.887 335.418 185.393 335.702C184.901 335.983 184.312 336.124 183.624 336.124ZM183.637 334.551C183.887 334.551 184.099 334.474 184.272 334.321C184.445 334.168 184.577 333.955 184.668 333.682C184.762 333.409 184.809 333.094 184.809 332.736C184.809 332.372 184.762 332.054 184.668 331.781C184.577 331.509 184.445 331.295 184.272 331.142C184.099 330.989 183.887 330.912 183.637 330.912C183.378 330.912 183.16 330.989 182.981 331.142C182.805 331.295 182.67 331.509 182.576 331.781C182.485 332.054 182.439 332.372 182.439 332.736C182.439 333.094 182.485 333.409 182.576 333.682C182.67 333.955 182.805 334.168 182.981 334.321C183.16 334.474 183.378 334.551 183.637 334.551ZM190.082 327.273V336H187.998V327.273H190.082Z" fill="#FFFDF7"/>
<g filter="url(#filter1_d_2814_232)">
<rect x="26" y="271" width="250" height="30" rx="10" fill="#00A0FF"/>
</g>
<path d="M139.39 284.889C139.361 284.577 139.235 284.334 139.01 284.161C138.789 283.984 138.472 283.896 138.06 283.896C137.787 283.896 137.56 283.932 137.378 284.003C137.196 284.074 137.06 284.172 136.969 284.297C136.878 284.419 136.831 284.56 136.828 284.719C136.823 284.849 136.848 284.964 136.905 285.064C136.965 285.163 137.05 285.251 137.161 285.328C137.275 285.402 137.411 285.467 137.57 285.524C137.729 285.581 137.908 285.631 138.107 285.673L138.857 285.844C139.289 285.938 139.669 286.062 139.999 286.219C140.331 286.375 140.61 286.561 140.834 286.777C141.061 286.993 141.233 287.241 141.35 287.523C141.466 287.804 141.526 288.119 141.529 288.469C141.526 289.02 141.387 289.493 141.111 289.888C140.836 290.283 140.439 290.585 139.922 290.795C139.408 291.006 138.787 291.111 138.06 291.111C137.33 291.111 136.694 291.001 136.151 290.783C135.608 290.564 135.186 290.232 134.885 289.786C134.584 289.339 134.429 288.776 134.421 288.094H136.441C136.458 288.375 136.533 288.609 136.667 288.797C136.8 288.984 136.983 289.126 137.216 289.223C137.452 289.32 137.725 289.368 138.034 289.368C138.319 289.368 138.56 289.33 138.759 289.253C138.961 289.176 139.115 289.07 139.223 288.933C139.331 288.797 139.387 288.641 139.39 288.464C139.387 288.3 139.336 288.159 139.236 288.043C139.137 287.923 138.983 287.821 138.776 287.736C138.571 287.648 138.31 287.567 137.992 287.493L137.08 287.28C136.324 287.107 135.729 286.827 135.294 286.44C134.86 286.051 134.644 285.526 134.647 284.864C134.644 284.324 134.789 283.851 135.081 283.445C135.374 283.038 135.779 282.722 136.296 282.494C136.813 282.267 137.402 282.153 138.064 282.153C138.74 282.153 139.327 282.268 139.824 282.499C140.324 282.726 140.712 283.045 140.988 283.457C141.263 283.869 141.404 284.347 141.409 284.889H139.39ZM143.817 291L142.113 284.455H144.205L145.087 288.648H145.142L146.088 284.455H148.13L149.101 288.618H149.157L150.013 284.455H152.105L150.397 291H148.168L147.145 287.186H147.073L146.05 291H143.817ZM154.787 291.111C154.369 291.111 153.999 291.041 153.675 290.902C153.354 290.76 153.099 290.547 152.912 290.263C152.727 289.976 152.635 289.616 152.635 289.185C152.635 288.821 152.699 288.514 152.827 288.264C152.955 288.014 153.131 287.811 153.355 287.655C153.58 287.499 153.838 287.381 154.131 287.301C154.423 287.219 154.736 287.163 155.068 287.135C155.44 287.101 155.74 287.065 155.967 287.028C156.195 286.989 156.359 286.933 156.462 286.862C156.567 286.788 156.619 286.685 156.619 286.551V286.53C156.619 286.311 156.544 286.142 156.393 286.023C156.243 285.903 156.04 285.844 155.784 285.844C155.509 285.844 155.287 285.903 155.119 286.023C154.952 286.142 154.845 286.307 154.8 286.517L152.878 286.449C152.935 286.051 153.081 285.696 153.317 285.384C153.555 285.068 153.882 284.821 154.297 284.642C154.714 284.46 155.216 284.369 155.801 284.369C156.219 284.369 156.604 284.419 156.956 284.518C157.308 284.615 157.615 284.757 157.876 284.945C158.138 285.129 158.339 285.357 158.482 285.626C158.626 285.896 158.699 286.205 158.699 286.551V291H156.739V290.088H156.688C156.571 290.31 156.422 290.497 156.24 290.651C156.061 290.804 155.849 290.919 155.605 290.996C155.364 291.072 155.091 291.111 154.787 291.111ZM155.43 289.747C155.655 289.747 155.857 289.702 156.036 289.611C156.217 289.52 156.362 289.395 156.47 289.236C156.578 289.074 156.632 288.886 156.632 288.673V288.051C156.572 288.082 156.5 288.111 156.415 288.136C156.332 288.162 156.241 288.186 156.142 288.209C156.043 288.232 155.94 288.251 155.835 288.268C155.73 288.286 155.629 288.301 155.533 288.315C155.337 288.347 155.169 288.395 155.03 288.46C154.893 288.526 154.788 288.611 154.714 288.716C154.643 288.818 154.608 288.94 154.608 289.082C154.608 289.298 154.685 289.463 154.838 289.577C154.994 289.69 155.192 289.747 155.43 289.747ZM159.973 293.455V284.455H162.036V285.575H162.099C162.185 285.376 162.305 285.185 162.462 285C162.621 284.815 162.822 284.665 163.067 284.548C163.314 284.429 163.609 284.369 163.953 284.369C164.408 284.369 164.832 284.489 165.227 284.727C165.625 284.966 165.946 285.334 166.19 285.831C166.435 286.328 166.557 286.962 166.557 287.732C166.557 288.473 166.439 289.094 166.203 289.594C165.97 290.094 165.655 290.469 165.257 290.719C164.862 290.969 164.423 291.094 163.94 291.094C163.611 291.094 163.325 291.04 163.084 290.932C162.842 290.824 162.639 290.682 162.474 290.506C162.312 290.33 162.188 290.141 162.099 289.939H162.057V293.455H159.973ZM162.014 287.727C162.014 288.08 162.061 288.386 162.155 288.648C162.251 288.909 162.389 289.112 162.568 289.257C162.75 289.399 162.967 289.47 163.22 289.47C163.476 289.47 163.693 289.399 163.872 289.257C164.051 289.112 164.186 288.909 164.277 288.648C164.371 288.386 164.418 288.08 164.418 287.727C164.418 287.375 164.371 287.07 164.277 286.811C164.186 286.553 164.051 286.352 163.872 286.21C163.696 286.068 163.479 285.997 163.22 285.997C162.964 285.997 162.747 286.067 162.568 286.206C162.389 286.345 162.251 286.544 162.155 286.803C162.061 287.061 162.014 287.369 162.014 287.727Z" fill="#FFFDF7"/>
<g filter="url(#filter2_d_2814_232)">
<rect x="26" y="223" width="250" height="30" rx="10" fill="#00A0FF"/>
</g>
<path d="M123.968 243L121.428 234.273H123.759L125.076 239.991H125.148L126.652 234.273H128.553L130.057 240.004H130.13L131.451 234.273H133.777L131.242 243H129.209L127.637 237.707H127.569L125.996 243H123.968ZM134.649 243V236.455H136.733V243H134.649ZM135.693 235.692C135.4 235.692 135.149 235.595 134.939 235.402C134.728 235.206 134.623 234.97 134.623 234.695C134.623 234.422 134.728 234.189 134.939 233.996C135.149 233.8 135.4 233.702 135.693 233.702C135.988 233.702 136.24 233.8 136.447 233.996C136.657 234.189 136.762 234.422 136.762 234.695C136.762 234.97 136.657 235.206 136.447 235.402C136.24 235.595 135.988 235.692 135.693 235.692ZM141.754 236.455V237.989H137.624V236.455H141.754ZM138.489 234.886H140.573V240.942C140.573 241.07 140.593 241.173 140.633 241.253C140.675 241.33 140.737 241.385 140.816 241.419C140.896 241.45 140.991 241.466 141.102 241.466C141.181 241.466 141.265 241.459 141.353 241.445C141.444 241.428 141.512 241.413 141.558 241.402L141.873 242.906C141.773 242.935 141.633 242.97 141.451 243.013C141.272 243.055 141.058 243.082 140.808 243.094C140.319 243.116 139.9 243.06 139.55 242.923C139.204 242.784 138.938 242.568 138.754 242.276C138.572 241.983 138.484 241.615 138.489 241.172V234.886ZM145.041 239.267V243H142.957V234.273H144.973V237.656H145.045C145.193 237.253 145.435 236.937 145.77 236.71C146.108 236.483 146.521 236.369 147.01 236.369C147.47 236.369 147.871 236.472 148.212 236.676C148.553 236.878 148.817 237.163 149.004 237.533C149.195 237.902 149.288 238.334 149.286 238.828V243H147.202V239.237C147.205 238.874 147.114 238.589 146.929 238.385C146.744 238.18 146.484 238.078 146.149 238.078C145.93 238.078 145.737 238.126 145.57 238.223C145.405 238.317 145.276 238.452 145.182 238.628C145.091 238.804 145.044 239.017 145.041 239.267ZM152.977 243.094C152.494 243.094 152.055 242.969 151.66 242.719C151.265 242.469 150.95 242.094 150.714 241.594C150.478 241.094 150.36 240.473 150.36 239.732C150.36 238.962 150.483 238.328 150.727 237.831C150.971 237.334 151.291 236.966 151.686 236.727C152.083 236.489 152.511 236.369 152.968 236.369C153.312 236.369 153.606 236.429 153.85 236.548C154.095 236.665 154.297 236.815 154.456 237C154.615 237.185 154.735 237.376 154.818 237.575H154.86V234.273H156.944V243H154.882V241.939H154.818C154.73 242.141 154.605 242.33 154.443 242.506C154.281 242.682 154.078 242.824 153.833 242.932C153.592 243.04 153.306 243.094 152.977 243.094ZM153.701 241.47C153.954 241.47 154.17 241.399 154.349 241.257C154.528 241.112 154.666 240.909 154.762 240.648C154.859 240.386 154.907 240.08 154.907 239.727C154.907 239.369 154.859 239.061 154.762 238.803C154.669 238.544 154.531 238.345 154.349 238.206C154.17 238.067 153.954 237.997 153.701 237.997C153.443 237.997 153.224 238.068 153.045 238.21C152.866 238.352 152.73 238.553 152.636 238.811C152.545 239.07 152.5 239.375 152.5 239.727C152.5 240.08 152.547 240.386 152.64 240.648C152.734 240.909 152.869 241.112 153.045 241.257C153.224 241.399 153.443 241.47 153.701 241.47ZM158.262 243V236.455H160.286V237.648H160.354C160.474 237.216 160.668 236.895 160.938 236.685C161.208 236.472 161.522 236.365 161.88 236.365C161.977 236.365 162.076 236.372 162.178 236.386C162.281 236.398 162.376 236.416 162.464 236.442V238.253C162.364 238.219 162.234 238.192 162.072 238.172C161.913 238.152 161.771 238.142 161.646 238.142C161.398 238.142 161.175 238.197 160.977 238.308C160.781 238.416 160.626 238.568 160.512 238.764C160.401 238.957 160.346 239.185 160.346 239.446V243H158.262ZM164.912 243.111C164.494 243.111 164.124 243.041 163.8 242.902C163.479 242.76 163.224 242.547 163.037 242.263C162.852 241.976 162.76 241.616 162.76 241.185C162.76 240.821 162.824 240.514 162.952 240.264C163.08 240.014 163.256 239.811 163.48 239.655C163.705 239.499 163.963 239.381 164.256 239.301C164.548 239.219 164.861 239.163 165.193 239.135C165.565 239.101 165.865 239.065 166.092 239.028C166.32 238.989 166.484 238.933 166.587 238.862C166.692 238.788 166.744 238.685 166.744 238.551V238.53C166.744 238.311 166.669 238.142 166.518 238.023C166.368 237.903 166.165 237.844 165.909 237.844C165.634 237.844 165.412 237.903 165.244 238.023C165.077 238.142 164.97 238.307 164.925 238.517L163.003 238.449C163.06 238.051 163.206 237.696 163.442 237.384C163.68 237.068 164.007 236.821 164.422 236.642C164.839 236.46 165.341 236.369 165.926 236.369C166.344 236.369 166.729 236.419 167.081 236.518C167.433 236.615 167.74 236.757 168.001 236.945C168.263 237.129 168.464 237.357 168.607 237.626C168.751 237.896 168.824 238.205 168.824 238.551V243H166.864V242.088H166.812C166.696 242.31 166.547 242.497 166.365 242.651C166.186 242.804 165.974 242.919 165.73 242.996C165.489 243.072 165.216 243.111 164.912 243.111ZM165.555 241.747C165.78 241.747 165.982 241.702 166.161 241.611C166.342 241.52 166.487 241.395 166.595 241.236C166.703 241.074 166.757 240.886 166.757 240.673V240.051C166.697 240.082 166.625 240.111 166.54 240.136C166.457 240.162 166.366 240.186 166.267 240.209C166.168 240.232 166.065 240.251 165.96 240.268C165.855 240.286 165.754 240.301 165.658 240.315C165.462 240.347 165.294 240.395 165.155 240.46C165.018 240.526 164.913 240.611 164.839 240.716C164.768 240.818 164.733 240.94 164.733 241.082C164.733 241.298 164.81 241.463 164.963 241.577C165.119 241.69 165.317 241.747 165.555 241.747ZM171.321 243L169.616 236.455H171.709L172.591 240.648H172.646L173.592 236.455H175.634L176.605 240.618H176.661L177.517 236.455H179.609L177.901 243H175.672L174.649 239.186H174.577L173.554 243H171.321Z" fill="#FFFDF7"/>
<g filter="url(#filter3_d_2814_232)">
<rect x="26" y="180" width="250" height="30" rx="10" fill="#00A0FF"/>
</g>
<path d="M131.3 200H128.075V191.273H131.296C132.185 191.273 132.951 191.447 133.593 191.797C134.238 192.143 134.735 192.643 135.085 193.297C135.434 193.947 135.609 194.726 135.609 195.632C135.609 196.541 135.434 197.322 135.085 197.976C134.738 198.629 134.242 199.131 133.597 199.48C132.952 199.827 132.187 200 131.3 200ZM130.184 198.202H131.219C131.708 198.202 132.121 198.119 132.46 197.955C132.8 197.787 133.058 197.516 133.231 197.141C133.407 196.763 133.495 196.26 133.495 195.632C133.495 195.004 133.407 194.504 133.231 194.132C133.055 193.757 132.795 193.487 132.451 193.322C132.11 193.155 131.69 193.071 131.19 193.071H130.184V198.202ZM139.9 200.124C139.215 200.124 138.624 199.989 138.127 199.719C137.633 199.446 137.252 199.058 136.985 198.555C136.721 198.05 136.589 197.449 136.589 196.753C136.589 196.077 136.722 195.486 136.989 194.98C137.256 194.472 137.633 194.077 138.119 193.795C138.604 193.511 139.177 193.369 139.836 193.369C140.302 193.369 140.728 193.442 141.114 193.587C141.501 193.732 141.835 193.946 142.116 194.23C142.397 194.514 142.616 194.865 142.772 195.283C142.928 195.697 143.006 196.173 143.006 196.71V197.23H137.317V196.02H141.067C141.065 195.798 141.012 195.601 140.91 195.428C140.808 195.254 140.667 195.119 140.488 195.023C140.312 194.923 140.109 194.874 139.879 194.874C139.646 194.874 139.437 194.926 139.252 195.031C139.067 195.134 138.921 195.274 138.813 195.453C138.705 195.629 138.648 195.83 138.643 196.054V197.286C138.643 197.553 138.695 197.787 138.8 197.989C138.906 198.187 139.055 198.342 139.248 198.453C139.441 198.564 139.671 198.619 139.938 198.619C140.123 198.619 140.29 198.594 140.441 198.543C140.592 198.491 140.721 198.416 140.829 198.317C140.937 198.217 141.018 198.095 141.072 197.95L142.985 198.006C142.906 198.435 142.731 198.808 142.461 199.126C142.194 199.442 141.843 199.687 141.408 199.864C140.974 200.037 140.471 200.124 139.9 200.124ZM144.071 202.455V193.455H146.133V194.575H146.197C146.282 194.376 146.403 194.185 146.559 194C146.718 193.815 146.92 193.665 147.164 193.548C147.412 193.429 147.707 193.369 148.051 193.369C148.505 193.369 148.93 193.489 149.325 193.727C149.723 193.966 150.044 194.334 150.288 194.831C150.532 195.328 150.654 195.962 150.654 196.732C150.654 197.473 150.537 198.094 150.301 198.594C150.068 199.094 149.752 199.469 149.355 199.719C148.96 199.969 148.521 200.094 148.038 200.094C147.708 200.094 147.423 200.04 147.181 199.932C146.94 199.824 146.737 199.682 146.572 199.506C146.41 199.33 146.285 199.141 146.197 198.939H146.154V202.455H144.071ZM146.112 196.727C146.112 197.08 146.159 197.386 146.252 197.648C146.349 197.909 146.487 198.112 146.666 198.257C146.848 198.399 147.065 198.47 147.318 198.47C147.574 198.47 147.791 198.399 147.97 198.257C148.149 198.112 148.284 197.909 148.375 197.648C148.468 197.386 148.515 197.08 148.515 196.727C148.515 196.375 148.468 196.07 148.375 195.811C148.284 195.553 148.149 195.352 147.97 195.21C147.794 195.068 147.576 194.997 147.318 194.997C147.062 194.997 146.845 195.067 146.666 195.206C146.487 195.345 146.349 195.544 146.252 195.803C146.159 196.061 146.112 196.369 146.112 196.727ZM154.802 200.124C154.114 200.124 153.523 199.983 153.029 199.702C152.538 199.418 152.158 199.023 151.891 198.517C151.627 198.009 151.495 197.419 151.495 196.749C151.495 196.075 151.627 195.486 151.891 194.98C152.158 194.472 152.538 194.077 153.029 193.795C153.523 193.511 154.114 193.369 154.802 193.369C155.489 193.369 156.079 193.511 156.57 193.795C157.065 194.077 157.444 194.472 157.708 194.98C157.975 195.486 158.109 196.075 158.109 196.749C158.109 197.419 157.975 198.009 157.708 198.517C157.444 199.023 157.065 199.418 156.57 199.702C156.079 199.983 155.489 200.124 154.802 200.124ZM154.815 198.551C155.065 198.551 155.276 198.474 155.45 198.321C155.623 198.168 155.755 197.955 155.846 197.682C155.94 197.409 155.987 197.094 155.987 196.736C155.987 196.372 155.94 196.054 155.846 195.781C155.755 195.509 155.623 195.295 155.45 195.142C155.276 194.989 155.065 194.912 154.815 194.912C154.556 194.912 154.337 194.989 154.158 195.142C153.982 195.295 153.847 195.509 153.754 195.781C153.663 196.054 153.617 196.372 153.617 196.736C153.617 197.094 153.663 197.409 153.754 197.682C153.847 197.955 153.982 198.168 154.158 198.321C154.337 198.474 154.556 198.551 154.815 198.551ZM164.891 195.453L162.977 195.504C162.957 195.368 162.903 195.247 162.815 195.142C162.727 195.034 162.612 194.95 162.47 194.891C162.331 194.828 162.169 194.797 161.984 194.797C161.743 194.797 161.537 194.845 161.366 194.942C161.199 195.038 161.116 195.169 161.119 195.334C161.116 195.462 161.168 195.572 161.273 195.666C161.381 195.76 161.572 195.835 161.848 195.892L163.109 196.131C163.763 196.256 164.249 196.463 164.567 196.753C164.888 197.043 165.05 197.426 165.053 197.903C165.05 198.352 164.916 198.743 164.652 199.075C164.391 199.408 164.033 199.666 163.578 199.851C163.124 200.033 162.604 200.124 162.018 200.124C161.084 200.124 160.347 199.932 159.807 199.548C159.27 199.162 158.963 198.645 158.886 197.997L160.945 197.946C160.99 198.185 161.108 198.366 161.298 198.491C161.489 198.616 161.732 198.679 162.027 198.679C162.294 198.679 162.511 198.629 162.679 198.53C162.847 198.43 162.932 198.298 162.935 198.134C162.932 197.986 162.866 197.868 162.739 197.78C162.611 197.689 162.411 197.618 162.138 197.567L160.996 197.349C160.339 197.23 159.851 197.01 159.53 196.689C159.209 196.365 159.05 195.953 159.053 195.453C159.05 195.016 159.166 194.642 159.402 194.332C159.638 194.02 159.973 193.781 160.408 193.616C160.842 193.452 161.355 193.369 161.946 193.369C162.832 193.369 163.531 193.555 164.043 193.928C164.554 194.297 164.837 194.805 164.891 195.453ZM166.078 200V193.455H168.162V200H166.078ZM167.123 192.692C166.83 192.692 166.578 192.595 166.368 192.402C166.158 192.206 166.053 191.97 166.053 191.695C166.053 191.422 166.158 191.189 166.368 190.996C166.578 190.8 166.83 190.702 167.123 190.702C167.418 190.702 167.669 190.8 167.877 190.996C168.087 191.189 168.192 191.422 168.192 191.695C168.192 191.97 168.087 192.206 167.877 192.402C167.669 192.595 167.418 192.692 167.123 192.692ZM173.183 193.455V194.989H169.054V193.455H173.183ZM169.919 191.886H172.003V197.942C172.003 198.07 172.023 198.173 172.062 198.253C172.105 198.33 172.166 198.385 172.246 198.419C172.325 198.45 172.42 198.466 172.531 198.466C172.611 198.466 172.695 198.459 172.783 198.445C172.874 198.428 172.942 198.413 172.987 198.402L173.303 199.906C173.203 199.935 173.063 199.97 172.881 200.013C172.702 200.055 172.487 200.082 172.237 200.094C171.749 200.116 171.33 200.06 170.98 199.923C170.634 199.784 170.368 199.568 170.183 199.276C170.001 198.983 169.913 198.615 169.919 198.172V191.886Z" fill="#FFFDF7"/>
<g filter="url(#filter4_d_2814_232)">
<rect x="25" y="137" width="250" height="30" rx="10" fill="url(#paint1_linear_2814_232)"/>
</g>
<path d="M37.294 156L35.1776 148.727H37.12L38.2173 153.493H38.2777L39.5312 148.727H41.1151L42.3686 153.504H42.429L43.5298 148.727H45.4688L43.3558 156H41.6619L40.3516 151.589H40.2947L38.9844 156H37.294ZM48.1392 156.103C47.5687 156.103 47.0762 155.991 46.6619 155.766C46.25 155.538 45.9328 155.215 45.7102 154.796C45.4901 154.375 45.38 153.874 45.38 153.294C45.38 152.731 45.4912 152.238 45.7138 151.817C45.9363 151.393 46.25 151.064 46.6548 150.83C47.0597 150.593 47.5367 150.474 48.0859 150.474C48.4742 150.474 48.8293 150.535 49.1513 150.656C49.4732 150.776 49.7514 150.955 49.9858 151.192C50.2202 151.429 50.4025 151.721 50.5327 152.069C50.6629 152.415 50.728 152.811 50.728 153.259V153.692H45.9872V152.683H49.1122C49.1098 152.499 49.0661 152.334 48.9808 152.19C48.8956 152.045 48.7784 151.933 48.6293 151.852C48.4825 151.769 48.3132 151.728 48.1214 151.728C47.9273 151.728 47.7533 151.772 47.5994 151.859C47.4455 151.945 47.3236 152.062 47.2337 152.211C47.1437 152.358 47.0964 152.525 47.0916 152.712V153.738C47.0916 153.96 47.1354 154.156 47.223 154.324C47.3106 154.49 47.4349 154.619 47.5959 154.711C47.7569 154.803 47.9486 154.849 48.1712 154.849C48.325 154.849 48.4647 154.828 48.5902 154.786C48.7157 154.743 48.8234 154.68 48.9134 154.597C49.0033 154.514 49.0708 154.413 49.1158 154.292L50.7102 154.338C50.6439 154.696 50.4983 155.007 50.2734 155.272C50.0509 155.535 49.7585 155.74 49.3963 155.886C49.0341 156.031 48.6151 156.103 48.1392 156.103ZM53.3514 148.727V156H51.6149V148.727H53.3514ZM57.0028 156.103C56.4276 156.103 55.9339 155.985 55.522 155.748C55.1125 155.511 54.7976 155.182 54.5774 154.761C54.3572 154.337 54.2472 153.847 54.2472 153.29C54.2472 152.732 54.3572 152.242 54.5774 151.82C54.8 151.397 55.116 151.066 55.5256 150.83C55.9375 150.593 56.4287 150.474 56.9993 150.474C57.5036 150.474 57.9427 150.566 58.3168 150.748C58.6932 150.93 58.9867 151.188 59.1974 151.522C59.4105 151.853 59.523 152.243 59.5348 152.69H57.9119C57.8788 152.411 57.7841 152.192 57.6278 152.033C57.474 151.875 57.2727 151.795 57.0241 151.795C56.8229 151.795 56.6465 151.852 56.495 151.966C56.3435 152.077 56.2251 152.243 56.1399 152.463C56.0571 152.681 56.0156 152.951 56.0156 153.273C56.0156 153.595 56.0571 153.867 56.1399 154.089C56.2251 154.31 56.3435 154.477 56.495 154.59C56.6465 154.701 56.8229 154.757 57.0241 154.757C57.1851 154.757 57.3272 154.723 57.4503 154.654C57.5758 154.585 57.6787 154.485 57.7592 154.352C57.8397 154.217 57.8906 154.054 57.9119 153.862H59.5348C59.5182 154.312 59.4058 154.705 59.1974 155.041C58.9915 155.377 58.7015 155.639 58.3274 155.826C57.9557 156.011 57.5142 156.103 57.0028 156.103ZM62.9696 156.103C62.3967 156.103 61.9043 155.986 61.4924 155.751C61.0828 155.515 60.7667 155.186 60.5442 154.764C60.324 154.34 60.214 153.849 60.214 153.29C60.214 152.729 60.324 152.238 60.5442 151.817C60.7667 151.393 61.0828 151.064 61.4924 150.83C61.9043 150.593 62.3967 150.474 62.9696 150.474C63.5426 150.474 64.0338 150.593 64.4434 150.83C64.8553 151.064 65.1713 151.393 65.3915 151.817C65.6141 152.238 65.7253 152.729 65.7253 153.29C65.7253 153.849 65.6141 154.34 65.3915 154.764C65.1713 155.186 64.8553 155.515 64.4434 155.751C64.0338 155.986 63.5426 156.103 62.9696 156.103ZM62.9803 154.793C63.1886 154.793 63.365 154.729 63.5094 154.601C63.6538 154.473 63.7639 154.295 63.8397 154.068C63.9178 153.841 63.9569 153.578 63.9569 153.28C63.9569 152.977 63.9178 152.712 63.8397 152.484C63.7639 152.257 63.6538 152.08 63.5094 151.952C63.365 151.824 63.1886 151.76 62.9803 151.76C62.7649 151.76 62.5826 151.824 62.4334 151.952C62.2866 152.08 62.1742 152.257 62.0961 152.484C62.0203 152.712 61.9824 152.977 61.9824 153.28C61.9824 153.578 62.0203 153.841 62.0961 154.068C62.1742 154.295 62.2866 154.473 62.4334 154.601C62.5826 154.729 62.7649 154.793 62.9803 154.793ZM66.6149 156V150.545H68.2662V151.547H68.3265C68.4402 151.215 68.6319 150.954 68.9018 150.762C69.1717 150.57 69.4937 150.474 69.8677 150.474C70.2465 150.474 70.5708 150.571 70.8407 150.766C71.1106 150.96 71.2823 151.22 71.3556 151.547H71.4125C71.5143 151.223 71.7131 150.963 72.0091 150.769C72.305 150.573 72.6542 150.474 73.0566 150.474C73.5727 150.474 73.9918 150.64 74.3137 150.972C74.6357 151.301 74.7967 151.753 74.7967 152.328V156H73.0602V152.726C73.0602 152.454 72.9904 152.246 72.8507 152.104C72.711 151.96 72.5299 151.888 72.3074 151.888C72.0682 151.888 71.88 151.966 71.7427 152.122C71.6078 152.276 71.5403 152.483 71.5403 152.744V156H69.8713V152.708C69.8713 152.455 69.8026 152.255 69.6653 152.108C69.528 151.961 69.3469 151.888 69.122 151.888C68.9705 151.888 68.8367 151.924 68.7207 151.998C68.6047 152.069 68.5136 152.171 68.4473 152.303C68.3833 152.436 68.3514 152.592 68.3514 152.772V156H66.6149ZM78.4224 156.103C77.8519 156.103 77.3594 155.991 76.9451 155.766C76.5332 155.538 76.216 155.215 75.9934 154.796C75.7733 154.375 75.6632 153.874 75.6632 153.294C75.6632 152.731 75.7744 152.238 75.997 151.817C76.2195 151.393 76.5332 151.064 76.938 150.83C77.3429 150.593 77.8199 150.474 78.3691 150.474C78.7574 150.474 79.1125 150.535 79.4345 150.656C79.7565 150.776 80.0346 150.955 80.269 151.192C80.5034 151.429 80.6857 151.721 80.8159 152.069C80.9461 152.415 81.0112 152.811 81.0112 153.259V153.692H76.2704V152.683H79.3954C79.3931 152.499 79.3493 152.334 79.264 152.19C79.1788 152.045 79.0616 151.933 78.9125 151.852C78.7657 151.769 78.5964 151.728 78.4047 151.728C78.2105 151.728 78.0365 151.772 77.8826 151.859C77.7288 151.945 77.6068 152.062 77.5169 152.211C77.4269 152.358 77.3796 152.525 77.3748 152.712V153.738C77.3748 153.96 77.4186 154.156 77.5062 154.324C77.5938 154.49 77.7181 154.619 77.8791 154.711C78.0401 154.803 78.2318 154.849 78.4544 154.849C78.6083 154.849 78.7479 154.828 78.8734 154.786C78.9989 154.743 79.1066 154.68 79.1966 154.597C79.2865 154.514 79.354 154.413 79.399 154.292L80.9934 154.338C80.9271 154.696 80.7815 155.007 80.5566 155.272C80.3341 155.535 80.0417 155.74 79.6795 155.886C79.3173 156.031 78.8983 156.103 78.4224 156.103ZM84.0465 156V148.727H85.783V151.479H85.8185C85.8896 151.314 85.9902 151.154 86.1204 151C86.253 150.846 86.421 150.721 86.6246 150.624C86.8306 150.524 87.0768 150.474 87.3633 150.474C87.7421 150.474 88.096 150.574 88.4251 150.773C88.7565 150.972 89.024 151.278 89.2276 151.692C89.4312 152.107 89.533 152.635 89.533 153.276C89.533 153.894 89.4348 154.411 89.2383 154.828C89.0442 155.245 88.7814 155.557 88.4499 155.766C88.1209 155.974 87.7551 156.078 87.3526 156.078C87.078 156.078 86.8401 156.033 86.6388 155.943C86.4376 155.853 86.2683 155.735 86.131 155.588C85.9961 155.441 85.8919 155.284 85.8185 155.116H85.7653V156H84.0465ZM85.7475 153.273C85.7475 153.566 85.7866 153.822 85.8647 154.04C85.9452 154.258 86.06 154.427 86.2092 154.548C86.3607 154.666 86.5418 154.725 86.7525 154.725C86.9656 154.725 87.1467 154.666 87.2958 154.548C87.445 154.427 87.5574 154.258 87.6332 154.04C87.7113 153.822 87.7504 153.566 87.7504 153.273C87.7504 152.979 87.7113 152.725 87.6332 152.509C87.5574 152.294 87.445 152.127 87.2958 152.009C87.149 151.89 86.9679 151.831 86.7525 151.831C86.5394 151.831 86.3583 151.889 86.2092 152.005C86.06 152.121 85.9452 152.287 85.8647 152.502C85.7866 152.718 85.7475 152.974 85.7475 153.273ZM91.9806 156.092C91.6326 156.092 91.3237 156.034 91.0538 155.918C90.7863 155.8 90.5744 155.622 90.4181 155.386C90.2643 155.147 90.1873 154.847 90.1873 154.487C90.1873 154.184 90.2406 153.929 90.3471 153.72C90.4537 153.512 90.6004 153.343 90.7875 153.212C90.9745 153.082 91.1899 152.984 91.4338 152.918C91.6776 152.849 91.938 152.803 92.215 152.779C92.5252 152.751 92.7749 152.721 92.9643 152.69C93.1537 152.657 93.291 152.611 93.3762 152.552C93.4638 152.49 93.5076 152.404 93.5076 152.293V152.275C93.5076 152.093 93.4449 151.952 93.3194 151.852C93.194 151.753 93.0247 151.703 92.8116 151.703C92.582 151.703 92.3973 151.753 92.2576 151.852C92.118 151.952 92.0292 152.089 91.9913 152.264L90.3897 152.207C90.4371 151.876 90.559 151.58 90.7555 151.32C90.9544 151.057 91.2266 150.851 91.5723 150.702C91.9203 150.55 92.3381 150.474 92.8258 150.474C93.1738 150.474 93.4946 150.516 93.7882 150.599C94.0817 150.679 94.3374 150.798 94.5552 150.954C94.773 151.108 94.9411 151.297 95.0595 151.522C95.1802 151.747 95.2406 152.004 95.2406 152.293V156H93.6071V155.24H93.5645C93.4674 155.425 93.3431 155.581 93.1916 155.709C93.0424 155.837 92.8661 155.933 92.6625 155.996C92.4612 156.06 92.234 156.092 91.9806 156.092ZM92.5169 154.956C92.7039 154.956 92.872 154.918 93.0211 154.842C93.1726 154.767 93.2934 154.662 93.3833 154.53C93.4733 154.395 93.5183 154.239 93.5183 154.061V153.543C93.4686 153.569 93.4082 153.592 93.3372 153.614C93.2685 153.635 93.1928 153.655 93.1099 153.674C93.027 153.693 92.9418 153.71 92.8542 153.724C92.7666 153.738 92.6826 153.751 92.6021 153.763C92.4387 153.789 92.2991 153.829 92.1831 153.884C92.0694 153.938 91.9818 154.009 91.9203 154.097C91.8611 154.182 91.8315 154.284 91.8315 154.402C91.8315 154.582 91.8954 154.719 92.0233 154.814C92.1535 154.909 92.318 154.956 92.5169 154.956ZM98.8485 156.103C98.2733 156.103 97.7797 155.985 97.3677 155.748C96.9582 155.511 96.6433 155.182 96.4231 154.761C96.2029 154.337 96.0929 153.847 96.0929 153.29C96.0929 152.732 96.2029 152.242 96.4231 151.82C96.6457 151.397 96.9617 151.066 97.3713 150.83C97.7832 150.593 98.2744 150.474 98.845 150.474C99.3493 150.474 99.7884 150.566 100.162 150.748C100.539 150.93 100.832 151.188 101.043 151.522C101.256 151.853 101.369 152.243 101.381 152.69H99.7576C99.7245 152.411 99.6298 152.192 99.4735 152.033C99.3197 151.875 99.1184 151.795 98.8699 151.795C98.6686 151.795 98.4922 151.852 98.3407 151.966C98.1892 152.077 98.0708 152.243 97.9856 152.463C97.9028 152.681 97.8613 152.951 97.8613 153.273C97.8613 153.595 97.9028 153.867 97.9856 154.089C98.0708 154.31 98.1892 154.477 98.3407 154.59C98.4922 154.701 98.6686 154.757 98.8699 154.757C99.0308 154.757 99.1729 154.723 99.296 154.654C99.4215 154.585 99.5244 154.485 99.6049 154.352C99.6854 154.217 99.7363 154.054 99.7576 153.862H101.381C101.364 154.312 101.251 154.705 101.043 155.041C100.837 155.377 100.547 155.639 100.173 155.826C99.8014 156.011 99.3599 156.103 98.8485 156.103ZM103.835 154.569L103.842 152.499H104.084L105.618 150.545H107.585L105.305 153.344H104.847L103.835 154.569ZM102.269 156V148.727H104.006V156H102.269ZM105.657 156L104.229 153.734L105.373 152.502L107.663 156H105.657ZM113.31 148.727H115.043V153.756C115.04 154.227 114.928 154.639 114.705 154.991C114.483 155.342 114.175 155.614 113.782 155.808C113.391 156.002 112.939 156.099 112.425 156.099C111.971 156.099 111.558 156.02 111.186 155.862C110.817 155.703 110.522 155.457 110.302 155.123C110.084 154.789 109.976 154.362 109.979 153.841H111.729C111.737 154.028 111.772 154.188 111.836 154.32C111.902 154.451 111.993 154.549 112.109 154.615C112.225 154.681 112.364 154.714 112.525 154.714C112.693 154.714 112.835 154.679 112.951 154.608C113.067 154.535 113.155 154.427 113.214 154.285C113.275 154.143 113.307 153.966 113.31 153.756V148.727ZM118.692 156.103C118.119 156.103 117.627 155.986 117.215 155.751C116.805 155.515 116.489 155.186 116.267 154.764C116.047 154.34 115.937 153.849 115.937 153.29C115.937 152.729 116.047 152.238 116.267 151.817C116.489 151.393 116.805 151.064 117.215 150.83C117.627 150.593 118.119 150.474 118.692 150.474C119.265 150.474 119.756 150.593 120.166 150.83C120.578 151.064 120.894 151.393 121.114 151.817C121.337 152.238 121.448 152.729 121.448 153.29C121.448 153.849 121.337 154.34 121.114 154.764C120.894 155.186 120.578 155.515 120.166 155.751C119.756 155.986 119.265 156.103 118.692 156.103ZM118.703 154.793C118.911 154.793 119.088 154.729 119.232 154.601C119.376 154.473 119.487 154.295 119.562 154.068C119.64 153.841 119.68 153.578 119.68 153.28C119.68 152.977 119.64 152.712 119.562 152.484C119.487 152.257 119.376 152.08 119.232 151.952C119.088 151.824 118.911 151.76 118.703 151.76C118.488 151.76 118.305 151.824 118.156 151.952C118.009 152.08 117.897 152.257 117.819 152.484C117.743 152.712 117.705 152.977 117.705 153.28C117.705 153.578 117.743 153.841 117.819 154.068C117.897 154.295 118.009 154.473 118.156 154.601C118.305 154.729 118.488 154.793 118.703 154.793ZM124.074 152.889V156H122.338V148.727H124.017V151.547H124.078C124.201 151.211 124.402 150.948 124.681 150.759C124.963 150.569 125.307 150.474 125.715 150.474C126.098 150.474 126.432 150.56 126.716 150.73C127 150.898 127.22 151.136 127.377 151.444C127.535 151.752 127.613 152.112 127.611 152.523V156H125.874V152.864C125.877 152.561 125.801 152.325 125.647 152.154C125.493 151.984 125.277 151.898 124.997 151.898C124.815 151.898 124.654 151.939 124.514 152.019C124.377 152.097 124.269 152.21 124.191 152.357C124.115 152.503 124.076 152.681 124.074 152.889ZM130.431 152.889V156H128.695V150.545H130.346V151.547H130.407C130.527 151.213 130.733 150.951 131.025 150.762C131.316 150.57 131.663 150.474 132.065 150.474C132.449 150.474 132.781 150.561 133.063 150.734C133.347 150.904 133.567 151.143 133.723 151.451C133.882 151.756 133.96 152.114 133.958 152.523V156H132.221V152.864C132.224 152.561 132.147 152.325 131.99 152.154C131.837 151.984 131.622 151.898 131.348 151.898C131.165 151.898 131.004 151.939 130.865 152.019C130.727 152.097 130.621 152.21 130.545 152.357C130.472 152.503 130.434 152.681 130.431 152.889ZM141.112 150.908C141.089 150.647 140.983 150.445 140.796 150.3C140.612 150.154 140.348 150.08 140.004 150.08C139.777 150.08 139.588 150.11 139.436 150.169C139.285 150.228 139.171 150.31 139.095 150.414C139.02 150.516 138.981 150.633 138.978 150.766C138.973 150.875 138.995 150.97 139.042 151.053C139.092 151.136 139.163 151.21 139.255 151.273C139.35 151.335 139.463 151.389 139.596 151.437C139.729 151.484 139.878 151.526 140.044 151.561L140.669 151.703C141.028 151.781 141.346 151.885 141.62 152.016C141.897 152.146 142.129 152.301 142.316 152.481C142.506 152.661 142.649 152.868 142.746 153.102C142.843 153.337 142.893 153.599 142.895 153.891C142.893 154.35 142.777 154.744 142.547 155.073C142.317 155.402 141.987 155.654 141.556 155.83C141.128 156.005 140.61 156.092 140.004 156.092C139.396 156.092 138.866 156.001 138.414 155.819C137.961 155.637 137.61 155.36 137.359 154.988C137.108 154.616 136.979 154.146 136.972 153.578H138.655C138.669 153.812 138.732 154.008 138.843 154.164C138.954 154.32 139.107 154.439 139.301 154.519C139.498 154.6 139.725 154.64 139.983 154.64C140.22 154.64 140.421 154.608 140.587 154.544C140.755 154.48 140.884 154.391 140.974 154.278C141.064 154.164 141.11 154.034 141.112 153.887C141.11 153.75 141.067 153.633 140.985 153.536C140.902 153.436 140.774 153.351 140.601 153.28C140.431 153.206 140.213 153.139 139.948 153.077L139.188 152.9C138.558 152.755 138.062 152.522 137.7 152.2C137.338 151.876 137.158 151.438 137.16 150.886C137.158 150.437 137.278 150.042 137.522 149.704C137.766 149.365 138.103 149.101 138.534 148.912C138.965 148.723 139.456 148.628 140.008 148.628C140.571 148.628 141.06 148.724 141.475 148.915C141.891 149.105 142.214 149.371 142.444 149.714C142.674 150.058 142.791 150.455 142.796 150.908H141.112ZM143.783 156V150.545H145.434V151.547H145.494C145.608 151.215 145.8 150.954 146.07 150.762C146.34 150.57 146.662 150.474 147.036 150.474C147.414 150.474 147.739 150.571 148.009 150.766C148.279 150.96 148.45 151.22 148.524 151.547H148.58C148.682 151.223 148.881 150.963 149.177 150.769C149.473 150.573 149.822 150.474 150.225 150.474C150.741 150.474 151.16 150.64 151.482 150.972C151.804 151.301 151.965 151.753 151.965 152.328V156H150.228V152.726C150.228 152.454 150.158 152.246 150.019 152.104C149.879 151.96 149.698 151.888 149.475 151.888C149.236 151.888 149.048 151.966 148.911 152.122C148.776 152.276 148.708 152.483 148.708 152.744V156H147.039V152.708C147.039 152.455 146.971 152.255 146.833 152.108C146.696 151.961 146.515 151.888 146.29 151.888C146.138 151.888 146.005 151.924 145.889 151.998C145.773 152.069 145.682 152.171 145.615 152.303C145.551 152.436 145.519 152.592 145.519 152.772V156H143.783ZM153.041 156V150.545H154.777V156H153.041ZM153.911 149.91C153.667 149.91 153.457 149.829 153.282 149.668C153.107 149.505 153.019 149.308 153.019 149.079C153.019 148.852 153.107 148.657 153.282 148.496C153.457 148.333 153.667 148.251 153.911 148.251C154.157 148.251 154.366 148.333 154.539 148.496C154.714 148.657 154.802 148.852 154.802 149.079C154.802 149.308 154.714 149.505 154.539 149.668C154.366 149.829 154.157 149.91 153.911 149.91ZM158.961 150.545V151.824H155.52V150.545H158.961ZM156.241 149.239H157.978V154.285C157.978 154.391 157.994 154.478 158.027 154.544C158.063 154.608 158.114 154.654 158.18 154.683C158.246 154.709 158.326 154.722 158.418 154.722C158.484 154.722 158.554 154.716 158.627 154.704C158.703 154.69 158.76 154.678 158.798 154.668L159.061 155.922C158.978 155.946 158.861 155.975 158.709 156.011C158.56 156.046 158.381 156.069 158.173 156.078C157.766 156.097 157.417 156.05 157.125 155.936C156.837 155.82 156.615 155.64 156.461 155.396C156.31 155.152 156.236 154.846 156.241 154.477V149.239ZM161.701 152.889V156H159.964V148.727H161.644V151.547H161.705C161.828 151.211 162.029 150.948 162.308 150.759C162.59 150.569 162.934 150.474 163.342 150.474C163.725 150.474 164.059 150.56 164.343 150.73C164.627 150.898 164.847 151.136 165.004 151.444C165.162 151.752 165.24 152.112 165.238 152.523V156H163.501V152.864C163.504 152.561 163.428 152.325 163.274 152.154C163.12 151.984 162.904 151.898 162.624 151.898C162.442 151.898 162.281 151.939 162.141 152.019C162.004 152.097 161.896 152.21 161.818 152.357C161.742 152.503 161.703 152.681 161.701 152.889Z" fill="#585B68"/>
<g filter="url(#filter5_d_2814_232)">
<rect x="196" y="90" width="80" height="30" rx="10" fill="#00A0FF"/>
</g>
<path d="M226.651 109V107.736L229.304 105.413C229.503 105.233 229.672 105.069 229.812 104.92C229.952 104.768 230.058 104.617 230.132 104.465C230.205 104.311 230.242 104.144 230.242 103.964C230.242 103.763 230.198 103.592 230.11 103.45C230.023 103.305 229.902 103.194 229.748 103.116C229.594 103.038 229.418 102.999 229.219 102.999C229.018 102.999 228.841 103.04 228.69 103.123C228.538 103.203 228.42 103.321 228.335 103.474C228.252 103.628 228.21 103.815 228.21 104.036H226.545C226.545 103.541 226.656 103.113 226.879 102.754C227.101 102.394 227.414 102.117 227.816 101.923C228.221 101.726 228.691 101.628 229.226 101.628C229.778 101.628 230.257 101.72 230.664 101.905C231.071 102.089 231.386 102.348 231.609 102.679C231.834 103.008 231.946 103.39 231.946 103.826C231.946 104.103 231.891 104.378 231.779 104.65C231.668 104.922 231.468 105.223 231.179 105.552C230.893 105.881 230.485 106.275 229.958 106.734L229.088 107.537V107.583H232.035V109H226.651ZM234.815 108.006L234.783 108.4C234.754 108.727 234.696 109.045 234.609 109.355C234.523 109.668 234.432 109.948 234.335 110.197C234.238 110.445 234.161 110.638 234.104 110.776H233.011C233.049 110.638 233.099 110.445 233.163 110.197C233.23 109.948 233.291 109.668 233.348 109.355C233.405 109.043 233.437 108.725 233.444 108.403L233.451 108.006H234.815ZM236.134 109V107.736L238.787 105.413C238.985 105.233 239.155 105.069 239.294 104.92C239.434 104.768 239.541 104.617 239.614 104.465C239.687 104.311 239.724 104.144 239.724 103.964C239.724 103.763 239.68 103.592 239.593 103.45C239.505 103.305 239.384 103.194 239.23 103.116C239.077 103.038 238.9 102.999 238.701 102.999C238.5 102.999 238.324 103.04 238.172 103.123C238.021 103.203 237.902 103.321 237.817 103.474C237.734 103.628 237.693 103.815 237.693 104.036H236.027C236.027 103.541 236.139 103.113 236.361 102.754C236.584 102.394 236.896 102.117 237.299 101.923C237.703 101.726 238.173 101.628 238.708 101.628C239.26 101.628 239.739 101.72 240.147 101.905C240.554 102.089 240.869 102.348 241.091 102.679C241.316 103.008 241.429 103.39 241.429 103.826C241.429 104.103 241.373 104.378 241.262 104.65C241.15 104.922 240.95 105.223 240.662 105.552C240.375 105.881 239.968 106.275 239.44 106.734L238.57 107.537V107.583H241.517V109H236.134ZM242.82 109L245.753 103.19V103.144H242.323V101.727H247.571V103.155L244.627 109H242.82ZM249.04 109L251.974 103.19V103.144H248.543V101.727H253.792V103.155L250.848 109H249.04ZM254.498 109.103C254.242 109.103 254.023 109.013 253.841 108.833C253.661 108.653 253.572 108.435 253.574 108.18C253.572 107.929 253.661 107.714 253.841 107.537C254.023 107.357 254.242 107.267 254.498 107.267C254.739 107.267 254.952 107.357 255.137 107.537C255.324 107.714 255.419 107.929 255.421 108.18C255.419 108.35 255.374 108.505 255.286 108.645C255.201 108.785 255.088 108.896 254.949 108.979C254.811 109.062 254.661 109.103 254.498 109.103ZM259.249 109.178C258.615 109.178 258.068 109.027 257.608 108.727C257.149 108.424 256.795 107.989 256.547 107.423C256.298 106.855 256.175 106.172 256.177 105.374C256.18 104.576 256.304 103.899 256.55 103.343C256.799 102.784 257.152 102.359 257.608 102.068C258.068 101.775 258.615 101.628 259.249 101.628C259.884 101.628 260.43 101.775 260.89 102.068C261.351 102.359 261.706 102.784 261.955 103.343C262.204 103.902 262.327 104.579 262.324 105.374C262.324 106.174 262.2 106.859 261.952 107.427C261.703 107.995 261.349 108.429 260.89 108.73C260.433 109.028 259.886 109.178 259.249 109.178ZM259.249 107.739C259.628 107.739 259.934 107.546 260.169 107.161C260.403 106.772 260.519 106.177 260.517 105.374C260.517 104.849 260.464 104.415 260.357 104.075C260.251 103.731 260.103 103.476 259.913 103.308C259.724 103.139 259.502 103.055 259.249 103.055C258.873 103.055 258.568 103.246 258.336 103.627C258.104 104.006 257.987 104.588 257.985 105.374C257.983 105.907 258.033 106.348 258.138 106.699C258.244 107.049 258.393 107.311 258.585 107.484C258.777 107.654 258.998 107.739 259.249 107.739ZM266.339 109.178C265.704 109.178 265.158 109.027 264.698 108.727C264.239 108.424 263.885 107.989 263.637 107.423C263.388 106.855 263.265 106.172 263.267 105.374C263.27 104.576 263.394 103.899 263.64 103.343C263.889 102.784 264.241 102.359 264.698 102.068C265.158 101.775 265.704 101.628 266.339 101.628C266.973 101.628 267.52 101.775 267.98 102.068C268.441 102.359 268.796 102.784 269.045 103.343C269.294 103.902 269.417 104.579 269.414 105.374C269.414 106.174 269.29 106.859 269.041 107.427C268.793 107.995 268.439 108.429 267.98 108.73C267.523 109.028 266.976 109.178 266.339 109.178ZM266.339 107.739C266.718 107.739 267.024 107.546 267.259 107.161C267.493 106.772 267.609 106.177 267.607 105.374C267.607 104.849 267.553 104.415 267.447 104.075C267.34 103.731 267.192 103.476 267.003 103.308C266.814 103.139 266.592 103.055 266.339 103.055C265.963 103.055 265.658 103.246 265.426 103.627C265.194 104.006 265.077 104.588 265.075 105.374C265.072 105.907 265.123 106.348 265.227 106.699C265.334 107.049 265.483 107.311 265.675 107.484C265.867 107.654 266.088 107.739 266.339 107.739Z" fill="#FFFDF7"/>
<g clip-path="url(#clip0_2814_232)">
<path d="M208 111.853C211.785 111.853 214.854 108.784 214.854 104.999C214.854 101.213 211.785 98.1445 208 98.1445C204.214 98.1445 201.146 101.213 201.146 104.999C201.146 108.784 204.214 111.853 208 111.853Z" fill="#0B53BF"/>
<path d="M209.233 100.008V100.89C210.994 101.421 212.284 103.058 212.284 104.999C212.284 106.939 210.994 108.576 209.233 109.107V109.989C211.478 109.441 213.14 107.415 213.14 104.999C213.14 102.582 211.478 100.556 209.233 100.008Z" fill="white"/>
<path d="M203.716 104.999C203.716 103.058 205.006 101.421 206.766 100.89V100.008C204.522 100.556 202.859 102.582 202.859 104.999C202.859 107.415 204.522 109.441 206.766 109.989V109.107C205.006 108.58 203.716 106.939 203.716 104.999Z" fill="white"/>
<path d="M209.843 105.954C209.843 104.202 207.097 104.922 207.097 103.953C207.097 103.606 207.375 103.384 207.906 103.384C208.54 103.384 208.759 103.692 208.827 104.108H209.701C209.623 103.328 209.176 102.835 208.429 102.689V102H207.572V102.664C206.754 102.768 206.24 103.245 206.24 103.953C206.24 105.714 208.99 105.054 208.99 106.005C208.99 106.365 208.643 106.605 208.056 106.605C207.289 106.605 207.037 106.267 206.942 105.8H206.09C206.145 106.654 206.672 107.189 207.572 107.322V107.997H208.429V107.331C209.307 107.217 209.843 106.706 209.843 105.954Z" fill="white"/>
</g>
<g filter="url(#filter6_d_2814_232)">
<rect x="111" y="89" width="80" height="30" rx="10" fill="#00A0FF"/>
</g>
<path d="M157.698 107.178C157.064 107.178 156.517 107.027 156.058 106.727C155.598 106.424 155.244 105.989 154.996 105.423C154.747 104.855 154.624 104.172 154.627 103.374C154.629 102.576 154.753 101.899 154.999 101.343C155.248 100.784 155.601 100.359 156.058 100.068C156.517 99.7746 157.064 99.6278 157.698 99.6278C158.333 99.6278 158.88 99.7746 159.339 100.068C159.801 100.359 160.156 100.784 160.404 101.343C160.653 101.902 160.776 102.579 160.774 103.374C160.774 104.174 160.649 104.859 160.401 105.427C160.152 105.995 159.798 106.429 159.339 106.73C158.882 107.028 158.335 107.178 157.698 107.178ZM157.698 105.739C158.077 105.739 158.384 105.546 158.618 105.161C158.852 104.772 158.968 104.177 158.966 103.374C158.966 102.849 158.913 102.415 158.806 102.075C158.7 101.731 158.552 101.476 158.362 101.308C158.173 101.139 157.952 101.055 157.698 101.055C157.322 101.055 157.018 101.246 156.786 101.627C156.554 102.006 156.436 102.588 156.434 103.374C156.432 103.907 156.483 104.348 156.587 104.699C156.693 105.049 156.843 105.311 157.034 105.484C157.226 105.654 157.447 105.739 157.698 105.739ZM162.459 107.103C162.203 107.103 161.984 107.013 161.802 106.833C161.622 106.653 161.533 106.435 161.535 106.18C161.533 105.929 161.622 105.714 161.802 105.537C161.984 105.357 162.203 105.267 162.459 105.267C162.7 105.267 162.913 105.357 163.098 105.537C163.285 105.714 163.38 105.929 163.382 106.18C163.38 106.35 163.335 106.505 163.247 106.645C163.162 106.785 163.049 106.896 162.91 106.979C162.772 107.062 162.622 107.103 162.459 107.103ZM167.21 107.178C166.576 107.178 166.029 107.027 165.569 106.727C165.11 106.424 164.756 105.989 164.508 105.423C164.259 104.855 164.136 104.172 164.138 103.374C164.141 102.576 164.265 101.899 164.511 101.343C164.76 100.784 165.113 100.359 165.569 100.068C166.029 99.7746 166.576 99.6278 167.21 99.6278C167.845 99.6278 168.391 99.7746 168.851 100.068C169.312 100.359 169.667 100.784 169.916 101.343C170.165 101.902 170.288 102.579 170.285 103.374C170.285 104.174 170.161 104.859 169.912 105.427C169.664 105.995 169.31 106.429 168.851 106.73C168.394 107.028 167.847 107.178 167.21 107.178ZM167.21 105.739C167.589 105.739 167.895 105.546 168.13 105.161C168.364 104.772 168.48 104.177 168.478 103.374C168.478 102.849 168.425 102.415 168.318 102.075C168.211 101.731 168.064 101.476 167.874 101.308C167.685 101.139 167.463 101.055 167.21 101.055C166.834 101.055 166.529 101.246 166.297 101.627C166.065 102.006 165.948 102.588 165.946 103.374C165.943 103.907 165.994 104.348 166.099 104.699C166.205 105.049 166.354 105.311 166.546 105.484C166.738 105.654 166.959 105.739 167.21 105.739ZM174.3 107.178C173.665 107.178 173.119 107.027 172.659 106.727C172.2 106.424 171.846 105.989 171.597 105.423C171.349 104.855 171.226 104.172 171.228 103.374C171.231 102.576 171.355 101.899 171.601 101.343C171.85 100.784 172.202 100.359 172.659 100.068C173.119 99.7746 173.665 99.6278 174.3 99.6278C174.934 99.6278 175.481 99.7746 175.941 100.068C176.402 100.359 176.757 100.784 177.006 101.343C177.254 101.902 177.378 102.579 177.375 103.374C177.375 104.174 177.251 104.859 177.002 105.427C176.754 105.995 176.4 106.429 175.941 106.73C175.484 107.028 174.937 107.178 174.3 107.178ZM174.3 105.739C174.679 105.739 174.985 105.546 175.22 105.161C175.454 104.772 175.57 104.177 175.568 103.374C175.568 102.849 175.514 102.415 175.408 102.075C175.301 101.731 175.153 101.476 174.964 101.308C174.775 101.139 174.553 101.055 174.3 101.055C173.923 101.055 173.619 101.246 173.387 101.627C173.155 102.006 173.038 102.588 173.036 103.374C173.033 103.907 173.084 104.348 173.188 104.699C173.295 105.049 173.444 105.311 173.636 105.484C173.828 105.654 174.049 105.739 174.3 105.739Z" fill="#FFFDF7"/>
<g clip-path="url(#clip1_2814_232)">
<mask id="mask0_2814_232" style="mask-type:luminance" maskUnits="userSpaceOnUse" x="116" y="97" width="14" height="14">
<path d="M130 97H116V111H130V97Z" fill="white"/>
</mask>
<g mask="url(#mask0_2814_232)">
<path d="M123 111C126.866 111 130 107.866 130 104C130 100.134 126.866 97 123 97C119.134 97 116 100.134 116 104C116 107.866 119.134 111 123 111Z" fill="#0B53BF"/>
<path d="M124.488 105.667C124.182 105.789 123.849 105.859 123.53 105.859C122.897 105.859 122.301 105.59 122.016 104.941H123.407L123.678 104.284H121.854C121.845 104.194 121.841 104.099 121.841 104C121.841 103.901 121.845 103.806 121.854 103.716H123.91L124.182 103.059H122.016C122.301 102.41 122.897 102.141 123.53 102.141C123.849 102.141 124.182 102.211 124.488 102.333L124.768 101.668C124.392 101.471 123.967 101.375 123.543 101.375C122.518 101.375 121.483 101.948 121.108 103.059H120.437V103.716H120.974C120.966 103.808 120.962 103.903 120.962 104C120.962 104.097 120.966 104.192 120.974 104.284H120.437V104.941H121.108C121.483 106.052 122.518 106.625 123.543 106.625C123.967 106.625 124.392 106.529 124.768 106.332L124.488 105.667Z" fill="white" stroke="#0B53BF" stroke-width="0.03" stroke-miterlimit="10"/>
<path d="M118.625 103.999C118.625 102.017 119.942 100.346 121.74 99.8036V98.9023C119.447 99.4623 117.75 101.532 117.75 103.999C117.75 106.467 119.447 108.536 121.74 109.096V108.195C119.942 107.657 118.625 105.981 118.625 103.999Z" fill="white" stroke="#0B53BF" stroke-width="0.03" stroke-miterlimit="10"/>
<path d="M124.26 98.9023V99.8036C126.058 100.346 127.375 102.017 127.375 103.999C127.375 105.981 126.058 107.652 124.26 108.195V109.096C126.552 108.536 128.25 106.467 128.25 103.999C128.25 101.532 126.552 99.4623 124.26 98.9023Z" fill="white" stroke="#0B53BF" stroke-width="0.03" stroke-miterlimit="10"/>
</g>
</g>
<g filter="url(#filter7_d_2814_232)">
<rect x="26" y="89" width="80" height="30" rx="10" fill="#585B68"/>
</g>
<path d="M70.1626 108L73.0958 102.19V102.144H69.6654V100.727H74.914V102.155L71.9701 108H70.1626ZM75.6198 108.103C75.3641 108.103 75.1451 108.013 74.9628 107.833C74.7829 107.653 74.6941 107.435 74.6965 107.18C74.6941 106.929 74.7829 106.714 74.9628 106.537C75.1451 106.357 75.3641 106.267 75.6198 106.267C75.8612 106.267 76.0743 106.357 76.259 106.537C76.446 106.714 76.5407 106.929 76.5431 107.18C76.5407 107.35 76.4957 107.505 76.4081 107.645C76.3229 107.785 76.2104 107.896 76.0708 107.979C75.9334 108.062 75.7831 108.103 75.6198 108.103ZM80.2575 100.628C80.6553 100.628 81.0352 100.693 81.3975 100.823C81.7597 100.951 82.0828 101.156 82.3669 101.438C82.651 101.717 82.8747 102.085 83.0381 102.542C83.2014 102.999 83.2831 103.556 83.2831 104.214C83.2855 104.821 83.2145 105.364 83.07 105.844C82.9256 106.323 82.7185 106.73 82.4486 107.066C82.1811 107.402 81.8591 107.659 81.4827 107.837C81.1063 108.012 80.686 108.099 80.222 108.099C79.7107 108.099 79.2597 108.001 78.8691 107.805C78.4808 107.606 78.1695 107.338 77.9351 107.002C77.7031 106.666 77.5646 106.29 77.5196 105.873H79.249C79.3035 106.114 79.4183 106.297 79.5935 106.42C79.7687 106.54 79.9782 106.601 80.222 106.601C80.6671 106.601 80.9997 106.408 81.2199 106.022C81.4401 105.636 81.5502 105.112 81.5502 104.449H81.5075C81.4057 104.667 81.2613 104.854 81.0743 105.01C80.8896 105.166 80.6754 105.286 80.4316 105.369C80.1877 105.451 79.9308 105.493 79.661 105.493C79.2253 105.493 78.8406 105.393 78.5068 105.195C78.1754 104.996 77.915 104.722 77.7256 104.374C77.5386 104.026 77.4439 103.629 77.4415 103.181C77.4391 102.679 77.5563 102.237 77.7931 101.853C78.0298 101.467 78.3601 101.166 78.7838 100.951C79.2076 100.733 79.6988 100.625 80.2575 100.628ZM80.2682 101.977C80.0504 101.977 79.8563 102.028 79.6858 102.13C79.5177 102.232 79.3852 102.369 79.2881 102.542C79.191 102.715 79.1437 102.909 79.146 103.124C79.1484 103.34 79.1969 103.534 79.2916 103.707C79.3887 103.879 79.5201 104.017 79.6858 104.119C79.8539 104.22 80.0457 104.271 80.2611 104.271C80.4221 104.271 80.5712 104.242 80.7085 104.183C80.8459 104.123 80.9654 104.042 81.0672 103.938C81.169 103.831 81.2483 103.708 81.3051 103.568C81.3643 103.429 81.3927 103.279 81.3904 103.121C81.388 102.91 81.3383 102.718 81.2412 102.545C81.1441 102.373 81.0104 102.235 80.8399 102.134C80.6718 102.029 80.4813 101.977 80.2682 101.977ZM87.6111 100.727V108H85.8568V102.368H85.8142L84.1878 103.362V101.842L85.9811 100.727H87.6111Z" fill="#FFFDF7"/>
<g clip-path="url(#clip2_2814_232)">
<circle cx="37.65" cy="103.65" r="6.65" fill="#393939"/>
<g clip-path="url(#clip3_2814_232)">
<path d="M40.941 105.42L39.8432 106.579C39.8193 106.605 39.7904 106.625 39.7583 106.638C39.7263 106.652 39.6916 106.659 39.6567 106.659H34.4526C34.4278 106.659 34.4035 106.652 34.3828 106.639C34.362 106.625 34.3457 106.606 34.3358 106.584C34.3259 106.561 34.3228 106.536 34.327 106.512C34.3313 106.488 34.3425 106.466 34.3595 106.448L35.4581 105.288C35.4819 105.263 35.5107 105.243 35.5426 105.229C35.5746 105.216 35.6091 105.209 35.644 105.208H40.8478C40.8726 105.208 40.8969 105.216 40.9177 105.229C40.9384 105.242 40.9547 105.262 40.9647 105.284C40.9745 105.306 40.9776 105.331 40.9734 105.355C40.9691 105.379 40.9579 105.402 40.941 105.42ZM39.8432 103.084C39.8193 103.059 39.7904 103.039 39.7583 103.025C39.7263 103.012 39.6916 103.005 39.6567 103.005H34.4526C34.4278 103.005 34.4035 103.012 34.3828 103.025C34.362 103.039 34.3457 103.058 34.3358 103.08C34.3259 103.103 34.3228 103.127 34.327 103.151C34.3313 103.176 34.3425 103.198 34.3595 103.216L35.4581 104.375C35.4819 104.401 35.5107 104.421 35.5426 104.434C35.5746 104.448 35.6091 104.455 35.644 104.455H40.8478C40.8726 104.455 40.8969 104.448 40.9177 104.435C40.9384 104.421 40.9547 104.402 40.9647 104.38C40.9745 104.357 40.9776 104.333 40.9734 104.308C40.9691 104.284 40.9579 104.262 40.941 104.244L39.8432 103.084ZM34.4526 102.251H39.6567C39.6916 102.251 39.7263 102.244 39.7583 102.231C39.7904 102.217 39.8193 102.197 39.8432 102.172L40.941 101.012C40.9579 100.994 40.9691 100.972 40.9734 100.948C40.9776 100.924 40.9745 100.899 40.9647 100.876C40.9547 100.854 40.9384 100.835 40.9177 100.821C40.8969 100.808 40.8726 100.801 40.8478 100.801H35.644C35.6091 100.801 35.5746 100.808 35.5426 100.822C35.5107 100.835 35.4819 100.855 35.4581 100.881L34.3597 102.04C34.3428 102.058 34.3316 102.08 34.3273 102.105C34.3231 102.129 34.3261 102.153 34.336 102.176C34.3458 102.198 34.3621 102.217 34.3829 102.231C34.4036 102.244 34.4278 102.251 34.4526 102.251Z" fill="white"/>
</g>
</g>
<g filter="url(#filter8_d_2814_232)">
<rect x="26" y="52" width="250" height="30" rx="10" fill="url(#paint2_linear_2814_232)"/>
</g>
<g clip-path="url(#clip4_2814_232)">
<path d="M256.857 63.482L259.735 66.3602C259.904 66.5289 260 66.7609 260 67C260 67.2391 259.904 67.4711 259.735 67.6398L256.857 70.518C256.707 70.668 256.505 70.75 256.295 70.75C255.856 70.75 255.5 70.3937 255.5 69.9555V68.5H252.5C252.085 68.5 251.75 68.1648 251.75 67.75V66.25C251.75 65.8352 252.085 65.5 252.5 65.5H255.5V64.0445C255.5 63.6062 255.856 63.25 256.295 63.25C256.505 63.25 256.707 63.3344 256.857 63.482ZM251.75 63.25H250.25C249.835 63.25 249.5 63.5852 249.5 64V70C249.5 70.4148 249.835 70.75 250.25 70.75H251.75C252.165 70.75 252.5 71.0852 252.5 71.5C252.5 71.9148 252.165 72.25 251.75 72.25H250.25C249.008 72.25 248 71.2422 248 70V64C248 62.7578 249.008 61.75 250.25 61.75H251.75C252.165 61.75 252.5 62.0852 252.5 62.5C252.5 62.9148 252.165 63.25 251.75 63.25Z" fill="#00A0FF"/>
</g>
<path d="M48.516 71H45.8278V63.7273H48.5124C49.2534 63.7273 49.8915 63.8729 50.4265 64.1641C50.9639 64.4529 51.3782 64.8696 51.6694 65.4141C51.9606 65.9562 52.1062 66.6049 52.1062 67.3601C52.1062 68.1177 51.9606 68.7687 51.6694 69.3132C51.3806 69.8577 50.9674 70.2756 50.43 70.5668C49.8926 70.8556 49.2546 71 48.516 71ZM47.5856 69.5014H48.4485C48.8557 69.5014 49.2002 69.4328 49.4819 69.2955C49.766 69.1558 49.9802 68.9297 50.1246 68.6172C50.2714 68.3023 50.3448 67.8833 50.3448 67.3601C50.3448 66.8369 50.2714 66.4202 50.1246 66.1101C49.9779 65.7976 49.7612 65.5727 49.4748 65.4354C49.1907 65.2957 48.8403 65.2259 48.4237 65.2259H47.5856V69.5014ZM53.1325 71V63.7273H54.869V66.4794H54.9045C54.9755 66.3137 55.0761 66.1539 55.2063 66C55.3389 65.8461 55.507 65.7206 55.7106 65.6236C55.9165 65.5241 56.1628 65.4744 56.4492 65.4744C56.828 65.4744 57.1819 65.5739 57.511 65.7727C57.8424 65.9716 58.11 66.2782 58.3136 66.6925C58.5172 67.1068 58.619 67.6347 58.619 68.2763C58.619 68.8942 58.5207 69.4115 58.3242 69.8281C58.1301 70.2448 57.8673 70.5573 57.5359 70.7656C57.2068 70.974 56.841 71.0781 56.4386 71.0781C56.1639 71.0781 55.926 71.0331 55.7248 70.9432C55.5236 70.8532 55.3543 70.7348 55.217 70.5881C55.082 70.4413 54.9779 70.2839 54.9045 70.1158H54.8512V71H53.1325ZM54.8335 68.2727C54.8335 68.5663 54.8725 68.822 54.9506 69.0398C55.0311 69.2576 55.146 69.4268 55.2951 69.5476C55.4466 69.666 55.6277 69.7251 55.8384 69.7251C56.0515 69.7251 56.2326 69.666 56.3817 69.5476C56.5309 69.4268 56.6433 69.2576 56.7191 69.0398C56.7972 68.822 56.8363 68.5663 56.8363 68.2727C56.8363 67.9792 56.7972 67.7247 56.7191 67.5092C56.6433 67.2938 56.5309 67.1269 56.3817 67.0085C56.235 66.8902 56.0539 66.831 55.8384 66.831C55.6254 66.831 55.4442 66.889 55.2951 67.005C55.146 67.121 55.0311 67.2867 54.9506 67.5021C54.8725 67.7176 54.8335 67.9744 54.8335 68.2727ZM60.7603 71H58.8711L61.3249 63.7273H63.6651L66.119 71H64.2298L62.5217 65.5597H62.4648L60.7603 71ZM60.5082 68.1378H64.457V69.473H60.5082V68.1378ZM70.122 73.0455V70.1158H70.0865C70.0131 70.2839 69.9089 70.4413 69.774 70.5881C69.639 70.7348 69.4698 70.8532 69.2662 70.9432C69.0649 71.0331 68.827 71.0781 68.5524 71.0781C68.1499 71.0781 67.7842 70.974 67.4551 70.7656C67.126 70.5573 66.8632 70.2448 66.6667 69.8281C66.4702 69.4115 66.372 68.8942 66.372 68.2763C66.372 67.6347 66.4738 67.1068 66.6774 66.6925C66.881 66.2782 67.1473 65.9716 67.4764 65.7727C67.8078 65.5739 68.1641 65.4744 68.5453 65.4744C68.8317 65.4744 69.0768 65.5241 69.2804 65.6236C69.484 65.7206 69.652 65.8461 69.7846 66C69.9172 66.1539 70.0178 66.3137 70.0865 66.4794H70.1397V65.5455H71.8585V73.0455H70.122ZM69.1561 69.7251C69.3668 69.7251 69.5467 69.666 69.6958 69.5476C69.845 69.4268 69.9598 69.2576 70.0403 69.0398C70.1208 68.822 70.161 68.5663 70.161 68.2727C70.161 67.9744 70.1208 67.7176 70.0403 67.5021C69.9622 67.2867 69.8474 67.121 69.6958 67.005C69.5467 66.889 69.3668 66.831 69.1561 66.831C68.9406 66.831 68.7583 66.8902 68.6092 67.0085C68.46 67.1269 68.3464 67.2938 68.2683 67.5092C68.1925 67.7247 68.1547 67.9792 68.1547 68.2727C68.1547 68.5663 68.1937 68.822 68.2718 69.0398C68.35 69.2576 68.4624 69.4268 68.6092 69.5476C68.7583 69.666 68.9406 69.7251 69.1561 69.7251ZM75.858 71.0994C75.4602 71.0994 75.0791 71.0355 74.7145 70.9077C74.3499 70.7775 74.0256 70.5715 73.7415 70.2898C73.4574 70.0057 73.2337 69.634 73.0703 69.1747C72.907 68.7131 72.8265 68.1508 72.8288 67.4879C72.8312 66.889 72.9046 66.3516 73.049 65.8757C73.1934 65.3975 73.3994 64.9915 73.6669 64.6577C73.9368 64.3239 74.2588 64.0694 74.6328 63.8942C75.0092 63.7166 75.4295 63.6278 75.8935 63.6278C76.4025 63.6278 76.8511 63.7273 77.2393 63.9261C77.63 64.1226 77.9425 64.3878 78.1768 64.7216C78.4112 65.053 78.5497 65.4223 78.5923 65.8295H76.8629C76.8108 65.5999 76.696 65.4259 76.5185 65.3075C76.3433 65.1868 76.1349 65.1264 75.8935 65.1264C75.4484 65.1264 75.1158 65.3194 74.8956 65.7053C74.6778 66.0911 74.5665 66.6072 74.5618 67.2536H74.608C74.7074 67.0357 74.8506 66.8487 75.0376 66.6925C75.2247 66.5362 75.4389 66.4167 75.6804 66.3338C75.9242 66.2486 76.1823 66.206 76.4545 66.206C76.8902 66.206 77.2749 66.3066 77.6087 66.5078C77.9425 66.709 78.2041 66.9848 78.3935 67.3352C78.5829 67.6832 78.6764 68.0821 78.674 68.532C78.6764 69.0386 78.558 69.486 78.3189 69.8743C78.0798 70.2602 77.7483 70.5608 77.3246 70.7763C76.9032 70.9917 76.4143 71.0994 75.858 71.0994ZM75.8473 69.75C76.0627 69.75 76.2557 69.6991 76.4261 69.5973C76.5966 69.4955 76.7304 69.357 76.8274 69.1818C76.9245 69.0066 76.9718 68.8089 76.9695 68.5888C76.9718 68.3662 76.9245 68.1686 76.8274 67.9957C76.7327 67.8229 76.6001 67.6856 76.4297 67.5838C76.2616 67.482 76.0687 67.4311 75.8509 67.4311C75.6922 67.4311 75.5443 67.4607 75.407 67.5199C75.2696 67.5791 75.1501 67.6619 75.0483 67.7685C74.9489 67.8726 74.8707 67.9957 74.8139 68.1378C74.7571 68.2775 74.7275 68.429 74.7251 68.5923C74.7275 68.8078 74.7772 69.0031 74.8743 69.1783C74.9714 69.3535 75.1039 69.4931 75.272 69.5973C75.4401 69.6991 75.6319 69.75 75.8473 69.75ZM79.6994 71V70.0092L82.2278 66.9304V66.8949H79.7882V65.5455H84.2981V66.6321L81.9544 69.6151V69.6506H84.3833V71H79.6994ZM88.2576 71.0994C87.7037 71.0994 87.2124 71.0047 86.7839 70.8153C86.3578 70.6236 86.0216 70.3596 85.7754 70.0234C85.5292 69.6873 85.4037 69.3002 85.399 68.8622H87.1674C87.1745 69.0208 87.2254 69.1617 87.3201 69.2848C87.4148 69.4055 87.5439 69.5002 87.7072 69.5689C87.8706 69.6375 88.0564 69.6719 88.2647 69.6719C88.4731 69.6719 88.6565 69.6352 88.8152 69.5618C88.9761 69.486 89.1016 69.383 89.1916 69.2528C89.2815 69.1203 89.3253 68.9687 89.323 68.7983C89.3253 68.6278 89.2768 68.4763 89.1774 68.3438C89.0779 68.2112 88.9371 68.1082 88.7548 68.0348C88.5749 67.9614 88.3618 67.9247 88.1156 67.9247H87.4089V66.6747H88.1156C88.331 66.6747 88.5204 66.6392 88.6838 66.5682C88.8495 66.4972 88.9785 66.3977 89.0708 66.2699C89.1632 66.1397 89.2082 65.9905 89.2058 65.8224C89.2082 65.6591 89.1691 65.5159 89.0886 65.3928C89.0105 65.2673 88.9004 65.1702 88.7583 65.1016C88.6187 65.0329 88.4565 64.9986 88.2718 64.9986C88.0777 64.9986 87.9013 65.0329 87.7427 65.1016C87.5865 65.1702 87.4622 65.2673 87.3699 65.3928C87.2775 65.5182 87.229 65.6638 87.2243 65.8295H85.5446C85.5493 65.3963 85.67 65.0152 85.9068 64.6861C86.1435 64.3546 86.4655 64.0954 86.8727 63.9084C87.2823 63.7214 87.7486 63.6278 88.2718 63.6278C88.7927 63.6278 89.2508 63.719 89.6461 63.9013C90.0415 64.0836 90.3493 64.3321 90.5694 64.647C90.7896 64.9595 90.8997 65.3134 90.8997 65.7088C90.902 66.1184 90.7683 66.4557 90.4984 66.7209C90.2309 66.986 89.8864 67.1494 89.465 67.2109V67.2678C90.0285 67.334 90.4534 67.5163 90.7399 67.8146C91.0287 68.1129 91.1719 68.4858 91.1696 68.9332C91.1696 69.3546 91.0453 69.7287 90.7967 70.0554C90.5505 70.3797 90.2072 70.6354 89.7669 70.8224C89.3289 71.0071 88.8258 71.0994 88.2576 71.0994ZM95.2543 65.5455V66.8239H91.8132V65.5455H95.2543ZM92.5341 64.2386H94.2706V69.2848C94.2706 69.3913 94.2872 69.4777 94.3203 69.544C94.3558 69.608 94.4067 69.6541 94.473 69.6825C94.5393 69.7086 94.6186 69.7216 94.7109 69.7216C94.7772 69.7216 94.8471 69.7157 94.9205 69.7038C94.9962 69.6896 95.053 69.6778 95.0909 69.6683L95.3537 70.9219C95.2708 70.9455 95.1536 70.9751 95.0021 71.0107C94.853 71.0462 94.6742 71.0687 94.4659 71.0781C94.0587 71.0971 93.7095 71.0497 93.4183 70.9361C93.1295 70.8201 92.9081 70.6402 92.7543 70.3963C92.6027 70.1525 92.5294 69.8459 92.5341 69.4766V64.2386ZM99.0948 63.7273H100.828V68.7557C100.825 69.2268 100.713 69.6387 100.49 69.9915C100.268 70.3419 99.9601 70.6141 99.5671 70.8082C99.1765 71.0024 98.7243 71.0994 98.2106 71.0994C97.756 71.0994 97.3429 71.0201 96.9712 70.8615C96.6019 70.7029 96.3072 70.4567 96.087 70.1229C95.8692 69.7891 95.7615 69.3617 95.7638 68.8409H97.5146C97.5217 69.0279 97.5572 69.1877 97.6211 69.3203C97.6874 69.4505 97.7785 69.5488 97.8945 69.6151C98.0105 69.6813 98.149 69.7145 98.31 69.7145C98.4781 69.7145 98.6201 69.679 98.7362 69.608C98.8522 69.5346 98.9397 69.4268 98.9989 69.2848C99.0605 69.1428 99.0924 68.9664 99.0948 68.7557V63.7273ZM103.668 67.8892V71H101.931V65.5455H103.583V66.5469H103.643C103.764 66.2131 103.97 65.9515 104.261 65.7621C104.552 65.5703 104.899 65.4744 105.301 65.4744C105.685 65.4744 106.017 65.5608 106.299 65.7337C106.583 65.9041 106.803 66.1432 106.96 66.451C107.118 66.7564 107.196 67.1139 107.194 67.5234V71H105.458V67.8643C105.46 67.5613 105.383 67.3246 105.227 67.1541C105.073 66.9837 104.859 66.8984 104.584 66.8984C104.402 66.8984 104.241 66.9387 104.101 67.0192C103.964 67.0973 103.857 67.2098 103.781 67.3565C103.708 67.5033 103.67 67.6809 103.668 67.8892ZM109.246 71.103C108.99 71.103 108.771 71.013 108.589 70.8331C108.409 70.6532 108.32 70.4354 108.322 70.1797C108.32 69.9287 108.409 69.7145 108.589 69.5369C108.771 69.357 108.99 69.267 109.246 69.267C109.487 69.267 109.7 69.357 109.885 69.5369C110.072 69.7145 110.167 69.9287 110.169 70.1797C110.167 70.3501 110.122 70.5052 110.034 70.6449C109.949 70.7846 109.836 70.8958 109.697 70.9787C109.559 71.0616 109.409 71.103 109.246 71.103ZM112.293 71.103C112.037 71.103 111.818 71.013 111.636 70.8331C111.456 70.6532 111.367 70.4354 111.369 70.1797C111.367 69.9287 111.456 69.7145 111.636 69.5369C111.818 69.357 112.037 69.267 112.293 69.267C112.534 69.267 112.747 69.357 112.932 69.5369C113.119 69.7145 113.214 69.9287 113.216 70.1797C113.214 70.3501 113.169 70.5052 113.081 70.6449C112.996 70.7846 112.883 70.8958 112.744 70.9787C112.606 71.0616 112.456 71.103 112.293 71.103ZM115.339 71.103C115.084 71.103 114.865 71.013 114.683 70.8331C114.503 70.6532 114.414 70.4354 114.416 70.1797C114.414 69.9287 114.503 69.7145 114.683 69.5369C114.865 69.357 115.084 69.267 115.339 69.267C115.581 69.267 115.794 69.357 115.979 69.5369C116.166 69.7145 116.26 69.9287 116.263 70.1797C116.26 70.3501 116.215 70.5052 116.128 70.6449C116.043 70.7846 115.93 70.8958 115.79 70.9787C115.653 71.0616 115.503 71.103 115.339 71.103ZM120.15 71.0994C119.62 71.0994 119.149 71.0036 118.737 70.8118C118.325 70.62 118 70.3561 117.76 70.0199C117.524 69.6837 117.401 69.2978 117.391 68.8622H119.096C119.11 69.1297 119.219 69.3452 119.422 69.5085C119.626 69.6695 119.869 69.75 120.15 69.75C120.371 69.75 120.566 69.7015 120.736 69.6044C120.907 69.5073 121.041 69.3712 121.138 69.196C121.235 69.0185 121.282 68.8149 121.28 68.5852C121.282 68.3509 121.233 68.1461 121.134 67.9709C121.037 67.7957 120.902 67.6596 120.729 67.5625C120.559 67.4631 120.362 67.4134 120.14 67.4134C119.929 67.411 119.729 67.4571 119.54 67.5518C119.353 67.6465 119.211 67.7756 119.113 67.9389L117.562 67.6477L117.878 63.7273H122.544V65.1442H119.323L119.156 66.8594H119.199C119.319 66.6581 119.514 66.4924 119.781 66.3622C120.051 66.2296 120.358 66.1634 120.701 66.1634C121.136 66.1634 121.525 66.2652 121.866 66.4688C122.209 66.67 122.479 66.9493 122.675 67.3068C122.874 67.6643 122.974 68.0739 122.974 68.5355C122.974 69.035 122.855 69.4777 122.618 69.8636C122.384 70.2495 122.055 70.5526 121.631 70.7727C121.21 70.9905 120.716 71.0994 120.15 71.0994ZM123.953 71V65.5455H125.689V71H123.953ZM124.823 64.9098C124.579 64.9098 124.369 64.8293 124.194 64.6683C124.019 64.505 123.931 64.3085 123.931 64.0788C123.931 63.8516 124.019 63.6574 124.194 63.4964C124.369 63.3331 124.579 63.2514 124.823 63.2514C125.069 63.2514 125.279 63.3331 125.451 63.4964C125.627 63.6574 125.714 63.8516 125.714 64.0788C125.714 64.3085 125.627 64.505 125.451 64.6683C125.279 64.8293 125.069 64.9098 124.823 64.9098ZM129.621 71.0994C129.055 71.0994 128.55 71.0095 128.105 70.8295C127.662 70.6473 127.314 70.401 127.061 70.0909C126.81 69.7784 126.684 69.4257 126.684 69.0327C126.684 68.732 126.757 68.4562 126.901 68.2053C127.046 67.9543 127.241 67.746 127.487 67.5803C127.736 67.4122 128.013 67.3045 128.318 67.2571V67.2003C127.918 67.1269 127.59 66.9411 127.334 66.6428C127.081 66.3445 126.954 65.9953 126.954 65.5952C126.954 65.2164 127.069 64.879 127.299 64.5831C127.531 64.2872 127.847 64.054 128.247 63.8835C128.649 63.7131 129.108 63.6278 129.621 63.6278C130.135 63.6278 130.592 63.7131 130.992 63.8835C131.394 64.054 131.711 64.2872 131.94 64.5831C132.172 64.879 132.288 65.2164 132.288 65.5952C132.288 65.9976 132.159 66.348 131.901 66.6463C131.645 66.9422 131.32 67.1269 130.925 67.2003V67.2571C131.228 67.3045 131.502 67.4122 131.748 67.5803C131.997 67.746 132.193 67.9543 132.338 68.2053C132.485 68.4562 132.558 68.732 132.558 69.0327C132.558 69.4257 132.431 69.7784 132.178 70.0909C131.925 70.401 131.577 70.6473 131.134 70.8295C130.694 71.0095 130.189 71.0994 129.621 71.0994ZM129.621 69.853C129.837 69.853 130.026 69.8127 130.189 69.7322C130.353 69.6494 130.481 69.5346 130.573 69.3878C130.668 69.241 130.715 69.0753 130.715 68.8906C130.715 68.7012 130.668 68.5331 130.573 68.3864C130.478 68.2396 130.348 68.1248 130.182 68.0419C130.019 67.9567 129.832 67.9141 129.621 67.9141C129.413 67.9141 129.226 67.9567 129.06 68.0419C128.894 68.1248 128.764 68.2396 128.67 68.3864C128.575 68.5331 128.528 68.7012 128.528 68.8906C128.528 69.0753 128.574 69.241 128.666 69.3878C128.761 69.5322 128.89 69.6458 129.053 69.7287C129.219 69.8116 129.408 69.853 129.621 69.853ZM129.621 66.6747C129.806 66.6747 129.969 66.6368 130.111 66.5611C130.256 66.4853 130.368 66.38 130.449 66.245C130.532 66.1101 130.573 65.9574 130.573 65.7869C130.573 65.6165 130.532 65.4661 130.449 65.3359C130.368 65.2057 130.257 65.1039 130.115 65.0305C129.973 64.9548 129.808 64.9169 129.621 64.9169C129.437 64.9169 129.272 64.9548 129.128 65.0305C128.983 65.1039 128.871 65.2057 128.79 65.3359C128.71 65.4661 128.67 65.6165 128.67 65.7869C128.67 65.9574 128.71 66.1101 128.79 66.245C128.873 66.3776 128.987 66.483 129.131 66.5611C129.276 66.6368 129.439 66.6747 129.621 66.6747ZM137.114 73.0455V70.1158H137.079C137.005 70.2839 136.901 70.4413 136.766 70.5881C136.631 70.7348 136.462 70.8532 136.258 70.9432C136.057 71.0331 135.819 71.0781 135.545 71.0781C135.142 71.0781 134.776 70.974 134.447 70.7656C134.118 70.5573 133.855 70.2448 133.659 69.8281C133.462 69.4115 133.364 68.8942 133.364 68.2763C133.364 67.6347 133.466 67.1068 133.67 66.6925C133.873 66.2782 134.14 65.9716 134.469 65.7727C134.8 65.5739 135.156 65.4744 135.537 65.4744C135.824 65.4744 136.069 65.5241 136.273 65.6236C136.476 65.7206 136.644 65.8461 136.777 66C136.909 66.1539 137.01 66.3137 137.079 66.4794H137.132V65.5455H138.851V73.0455H137.114ZM136.148 69.7251C136.359 69.7251 136.539 69.666 136.688 69.5476C136.837 69.4268 136.952 69.2576 137.032 69.0398C137.113 68.822 137.153 68.5663 137.153 68.2727C137.153 67.9744 137.113 67.7176 137.032 67.5021C136.954 67.2867 136.84 67.121 136.688 67.005C136.539 66.889 136.359 66.831 136.148 66.831C135.933 66.831 135.751 66.8902 135.601 67.0085C135.452 67.1269 135.339 67.2938 135.26 67.5092C135.185 67.7247 135.147 67.9792 135.147 68.2727C135.147 68.5663 135.186 68.822 135.264 69.0398C135.342 69.2576 135.455 69.4268 135.601 69.5476C135.751 69.666 135.933 69.7251 136.148 69.7251ZM140.244 71L143.177 65.1903V65.1442H139.746V63.7273H144.995V65.1548L142.051 71H140.244ZM147.718 71L145.601 63.7273H147.544L148.641 68.4929H148.702L149.955 63.7273H151.539L152.792 68.5036H152.853L153.954 63.7273H155.893L153.78 71H152.086L150.775 66.5895H150.719L149.408 71H147.718ZM156.619 71V63.7273H161.583V65.1548H158.377V66.6463H161.267V68.0774H158.377V71H156.619ZM167.23 67.2109L165.636 67.2536C165.619 67.1399 165.574 67.0393 165.501 66.9517C165.428 66.8617 165.332 66.7919 165.213 66.7422C165.097 66.6901 164.962 66.6641 164.809 66.6641C164.607 66.6641 164.436 66.7043 164.294 66.7848C164.154 66.8653 164.085 66.9742 164.088 67.1115C164.085 67.218 164.128 67.3104 164.216 67.3885C164.306 67.4666 164.465 67.5294 164.695 67.5767L165.746 67.7756C166.291 67.8797 166.695 68.0526 166.961 68.294C167.228 68.5355 167.363 68.8551 167.365 69.2528C167.363 69.6269 167.252 69.9524 167.032 70.2294C166.814 70.5064 166.516 70.7218 166.137 70.8757C165.758 71.0272 165.325 71.103 164.837 71.103C164.058 71.103 163.444 70.9432 162.994 70.6236C162.547 70.3016 162.291 69.8707 162.227 69.331L163.942 69.2884C163.98 69.4872 164.078 69.6387 164.237 69.7429C164.395 69.8471 164.598 69.8991 164.844 69.8991C165.067 69.8991 165.248 69.8577 165.387 69.7749C165.527 69.692 165.598 69.5819 165.6 69.4446C165.598 69.3215 165.544 69.2232 165.437 69.1499C165.331 69.0741 165.164 69.0149 164.936 68.9723L163.985 68.7912C163.438 68.6918 163.031 68.5083 162.763 68.2408C162.496 67.9709 162.363 67.6276 162.365 67.2109C162.363 66.8464 162.46 66.535 162.657 66.277C162.853 66.0166 163.132 65.8177 163.495 65.6804C163.857 65.5431 164.284 65.4744 164.777 65.4744C165.515 65.4744 166.098 65.6295 166.524 65.9396C166.95 66.2474 167.185 66.6712 167.23 67.2109ZM168.22 71V63.7273H169.978V66.6463H172.844V63.7273H174.598V71H172.844V68.0774H169.978V71H168.22ZM178.471 71.0994C177.94 71.0994 177.469 71.0036 177.057 70.8118C176.645 70.62 176.32 70.3561 176.081 70.0199C175.844 69.6837 175.721 69.2978 175.711 68.8622H177.416C177.43 69.1297 177.539 69.3452 177.743 69.5085C177.946 69.6695 178.189 69.75 178.471 69.75C178.691 69.75 178.886 69.7015 179.057 69.6044C179.227 69.5073 179.361 69.3712 179.458 69.196C179.555 69.0185 179.602 68.8149 179.6 68.5852C179.602 68.3509 179.554 68.1461 179.454 67.9709C179.357 67.7957 179.222 67.6596 179.05 67.5625C178.879 67.4631 178.683 67.4134 178.46 67.4134C178.249 67.411 178.049 67.4571 177.86 67.5518C177.673 67.6465 177.531 67.7756 177.434 67.9389L175.882 67.6477L176.198 63.7273H180.864V65.1442H177.643L177.476 66.8594H177.519C177.64 66.6581 177.834 66.4924 178.101 66.3622C178.371 66.2296 178.678 66.1634 179.021 66.1634C179.457 66.1634 179.845 66.2652 180.186 66.4688C180.529 66.67 180.799 66.9493 180.996 67.3068C181.194 67.6643 181.294 68.0739 181.294 68.5355C181.294 69.035 181.175 69.4777 180.939 69.8636C180.704 70.2495 180.375 70.5526 179.952 70.7727C179.53 70.9905 179.037 71.0994 178.471 71.0994Z" fill="#00A0FF"/>
<path fill-rule="evenodd" clip-rule="evenodd" d="M106.975 17.1523H107.168C108.517 17.1523 109.79 17.6447 110.985 18.6295C111.1 18.7526 111.293 18.9578 111.601 19.286C111.987 18.8757 112.295 18.5885 112.45 18.4654C113.568 17.5627 114.801 17.1523 116.112 17.1523H116.228C117.615 17.1523 118.888 17.6447 120.044 18.6295C120.391 18.9578 120.661 19.245 120.854 19.4912C121.74 20.7221 122.203 22.0762 122.203 23.4713V39.638C122.203 39.6791 122.203 39.6791 122.164 39.6791H119.234C119.196 39.6791 119.196 39.6791 119.196 39.638V23.5534C119.196 22.4455 118.733 21.5838 117.808 20.8863C117.307 20.517 116.729 20.3529 116.15 20.3529C115.187 20.3529 114.416 20.7632 113.76 21.6249C113.336 22.1993 113.105 22.8148 113.105 23.4713V39.6791H110.137C110.098 39.6791 110.098 39.6791 110.098 39.638V23.4713C110.098 22.6096 109.751 21.789 109.019 21.0914C108.44 20.5991 107.785 20.3529 107.091 20.3529C106.05 20.3529 105.202 20.8042 104.547 21.789C104.2 22.3634 104.046 22.9379 104.046 23.5534V39.638C104.046 39.6791 104.046 39.6791 104.046 39.6791H101.039C101.039 39.6791 101 39.6791 101 39.638V23.9227C101 22.5686 101.231 21.4607 101.732 20.558C101.887 20.1887 102.195 19.7374 102.658 19.1629C103.236 18.5474 103.66 18.1782 103.968 18.0551C104.932 17.4396 105.934 17.1523 106.975 17.1523ZM125.557 17.1523H128.564H128.602V28.2311C128.602 29.1338 128.757 29.7903 129.103 30.2006C129.412 30.6109 129.682 30.8161 129.913 30.9392C130.337 31.1854 131.301 31.5547 132.804 32.006C133.537 32.2522 134.192 32.4574 134.655 32.7036V17.1523C134.655 17.1523 134.655 17.1523 134.693 17.1523H137.662V38.2429C137.662 39.7611 137.161 41.1972 136.12 42.4692C135.58 43.0437 135.156 43.413 134.809 43.6181C133.807 44.2747 132.766 44.5619 131.686 44.5619H131.532C130.029 44.5619 128.641 43.9874 127.407 42.7565C126.983 42.3051 126.675 41.8948 126.443 41.4845C125.827 40.4587 125.557 39.3508 125.557 38.2019V38.1609V38.1198H128.564L128.602 38.1609C128.602 39.1867 128.988 40.0483 129.797 40.7459C130.376 41.1562 130.954 41.3614 131.609 41.3614H131.648C132.573 41.3614 133.383 40.9511 134.038 40.0894C134.462 39.4739 134.655 38.8584 134.655 38.2429C134.655 37.053 134.231 36.1913 133.344 35.6989C132.959 35.4117 131.995 35.0424 130.414 34.5911C129.373 34.2628 128.564 33.9345 127.985 33.5652C127.022 32.9908 126.328 32.1291 125.904 30.9802C125.711 30.2827 125.595 29.7903 125.595 29.5031C125.595 29.3389 125.557 29.0517 125.557 28.7234V17.1523ZM140.9 17.1523H143.868C143.907 17.1523 143.907 17.1523 143.907 17.1523V28.4772C144.639 28.149 145.68 27.7797 146.991 27.4104C147.878 27.1232 148.494 26.836 148.841 26.5487C149.343 26.2615 149.651 25.7691 149.844 25.1536C149.921 24.9074 149.959 24.5381 149.959 24.0047V17.1523C149.959 17.1523 149.959 17.1523 149.998 17.1523H152.928C152.966 17.1523 152.966 17.1523 152.966 17.1523V24.5381C152.966 25.9743 152.619 27.2052 151.848 28.2311C151.501 28.6414 151.193 28.9286 151.039 29.0107C150.923 29.0927 150.885 29.1338 150.846 29.1338V29.1748C151.386 29.7082 151.656 29.9954 151.733 30.1185C152.311 30.9392 152.696 31.8419 152.851 32.7856C152.928 33.1549 152.966 33.5242 152.966 33.8525V39.638C152.966 39.6791 152.966 39.6791 152.928 39.6791H149.998C149.959 39.6791 149.959 39.6791 149.959 39.638V34.2628C149.959 33.237 149.69 32.4574 149.111 31.8419C148.803 31.4316 148.263 31.1033 147.492 30.8571L146.991 30.734C146.336 30.9392 145.796 31.1443 145.372 31.3905C144.755 31.7188 144.331 32.1701 144.1 32.7036C143.984 33.0318 143.907 33.5242 143.907 34.1807V39.638C143.907 39.6791 143.907 39.6791 143.868 39.6791H140.9C140.9 39.6791 140.861 39.6791 140.861 39.638V17.1523H140.9ZM162.18 17.1523H162.334C163.722 17.1523 164.994 17.6447 166.112 18.6295C166.536 18.9578 166.806 19.286 166.96 19.4912C167.847 20.7221 168.31 22.0762 168.31 23.4713V27.4104C168.31 28.8876 167.847 30.2006 166.922 31.4726C166.536 31.965 166.189 32.2932 165.881 32.5394C164.763 33.4011 163.568 33.8114 162.257 33.8114C160.638 33.8114 159.25 33.196 158.016 31.965C157.515 31.4316 157.168 30.9392 156.937 30.4058C156.436 29.5031 156.205 28.3952 156.205 27.0821V23.9227C156.205 22.5686 156.436 21.4197 156.937 20.517C157.13 20.1067 157.438 19.6553 157.901 19.0809C158.441 18.5474 158.865 18.1782 159.134 18.0551C160.098 17.4396 161.139 17.1523 162.18 17.1523ZM159.25 23.5123V27.4104C159.25 28.3952 159.636 29.2569 160.445 29.9544C160.985 30.3647 161.563 30.6109 162.141 30.6109H162.334C163.182 30.6109 163.953 30.2006 164.609 29.38C165.071 28.7645 165.303 28.108 165.303 27.4104V23.5123C165.303 22.6096 164.956 21.789 164.223 21.0914C163.645 20.5991 162.99 20.3529 162.296 20.3529H162.257C161.255 20.3529 160.407 20.8042 159.751 21.789C159.404 22.3634 159.25 22.9379 159.25 23.5123ZM156.243 36.4785H168.271C168.31 36.4785 168.31 36.4785 168.31 36.5196V39.638C168.31 39.6791 168.31 39.6791 168.271 39.6791H156.243C156.205 39.6791 156.205 39.6791 156.205 39.638V36.5196L156.243 36.4785ZM177.793 39.6791C176.482 39.6791 175.249 39.2277 174.131 38.325C173.822 38.0788 173.514 37.7505 173.167 37.2992C172.28 36.1503 171.818 34.6731 171.818 32.9498V17.1523C171.818 17.1523 171.818 17.1523 171.856 17.1523H174.825H174.863V18.4654C174.863 19.0398 174.902 19.4091 174.979 19.6553C175.133 20.2708 175.48 20.7632 175.981 21.0914C176.29 21.2966 176.714 21.5428 177.176 21.7069L179.875 22.5276C180.723 22.8558 181.455 23.2251 182.034 23.6765C182.265 23.8816 182.535 24.1689 182.882 24.5381C183.576 25.5229 183.923 26.7539 183.923 28.149V33.3191C183.923 34.4269 183.614 35.4938 183.074 36.5196C182.92 36.8478 182.573 37.2992 182.034 37.9147C180.8 39.1046 179.451 39.6791 177.947 39.6791H177.793ZM174.863 33.278C174.863 33.9345 175.056 34.55 175.441 35.1245C176.097 36.0272 176.906 36.4785 177.832 36.4785H177.909C178.525 36.4785 179.104 36.2734 179.643 35.8631C180.492 35.1245 180.916 34.2628 180.916 33.278V28.6824C180.916 28.0259 180.839 27.5335 180.684 27.2052C180.414 26.5487 179.875 26.0563 179.027 25.6871C178.641 25.4819 178.256 25.3588 177.87 25.2767C176.405 24.8254 175.403 24.4561 174.863 24.2099V33.278ZM192.866 17.1523H192.982C194.37 17.1523 195.642 17.6447 196.799 18.6295C197.184 18.9578 197.454 19.286 197.608 19.4912C198.533 20.7221 198.957 22.0762 198.957 23.4713V27.4104C198.957 28.8876 198.495 30.2006 197.608 31.4726C197.184 31.965 196.837 32.2932 196.529 32.5394C195.411 33.4011 194.216 33.8114 192.905 33.8114C191.324 33.8114 189.898 33.196 188.664 31.965C188.202 31.4316 187.816 30.9392 187.585 30.4058C187.122 29.5031 186.852 28.3952 186.852 27.0821V23.9227C186.852 22.5686 187.122 21.4197 187.585 20.517C187.778 20.1067 188.086 19.6553 188.549 19.0809C189.088 18.5474 189.512 18.1782 189.782 18.0551C190.746 17.4396 191.787 17.1523 192.866 17.1523ZM189.898 23.5123V27.4104C189.898 28.3952 190.322 29.2569 191.093 29.9544C191.671 30.3647 192.211 30.6109 192.789 30.6109H192.982C193.869 30.6109 194.601 30.2006 195.295 29.38C195.719 28.7645 195.95 28.108 195.95 27.4104V23.5123C195.95 22.6096 195.603 21.789 194.91 21.0914C194.293 20.5991 193.637 20.3529 192.943 20.3529H192.905C191.903 20.3529 191.093 20.8042 190.399 21.789C190.091 22.3634 189.898 22.9379 189.898 23.5123ZM186.891 36.4785H198.919C198.957 36.4785 198.957 36.4785 198.957 36.5196V39.638C198.957 39.6791 198.957 39.6791 198.919 39.6791H186.891C186.891 39.6791 186.852 39.6791 186.852 39.638V36.5196L186.891 36.4785Z" fill="#FFFDF7"/>
<path fill-rule="evenodd" clip-rule="evenodd" d="M162.296 17.0391C165.612 17.0391 168.349 19.9524 168.349 23.5222V27.5023C168.349 31.0721 165.612 33.9444 162.296 33.9444C158.942 33.9444 156.205 31.0721 156.205 27.5023V23.5222C156.205 19.9524 158.942 17.0391 162.296 17.0391Z" fill="#FFFDF7"/>
<path fill-rule="evenodd" clip-rule="evenodd" d="M192.943 17C196.259 17 198.996 19.9133 198.996 23.4831V27.4632C198.996 31.033 196.259 33.9053 192.943 33.9053C189.589 33.9053 186.852 31.033 186.852 27.4632V23.4831C186.852 19.9133 189.589 17 192.943 17Z" fill="#FFFDF7"/>
<defs>
<filter id="filter0_d_2814_232" x="22" y="316" width="258" height="38" filterUnits="userSpaceOnUse" color-interpolation-filters="sRGB">
<feFlood flood-opacity="0" result="BackgroundImageFix"/>
<feColorMatrix in="SourceAlpha" type="matrix" values="0 0 0 0 0 0 0 0 0 0 0 0 0 0 0 0 0 0 127 0" result="hardAlpha"/>
<feOffset dy="4"/>
<feGaussianBlur stdDeviation="2"/>
<feComposite in2="hardAlpha" operator="out"/>
<feColorMatrix type="matrix" values="0 0 0 0 0 0 0 0 0 0 0 0 0 0 0 0 0 0 0.25 0"/>
<feBlend mode="normal" in2="BackgroundImageFix" result="effect1_dropShadow_2814_232"/>
<feBlend mode="normal" in="SourceGraphic" in2="effect1_dropShadow_2814_232" result="shape"/>
</filter>
<filter id="filter1_d_2814_232" x="22" y="271" width="258" height="38" filterUnits="userSpaceOnUse" color-interpolation-filters="sRGB">
<feFlood flood-opacity="0" result="BackgroundImageFix"/>
<feColorMatrix in="SourceAlpha" type="matrix" values="0 0 0 0 0 0 0 0 0 0 0 0 0 0 0 0 0 0 127 0" result="hardAlpha"/>
<feOffset dy="4"/>
<feGaussianBlur stdDeviation="2"/>
<feComposite in2="hardAlpha" operator="out"/>
<feColorMatrix type="matrix" values="0 0 0 0 0 0 0 0 0 0 0 0 0 0 0 0 0 0 0.25 0"/>
<feBlend mode="normal" in2="BackgroundImageFix" result="effect1_dropShadow_2814_232"/>
<feBlend mode="normal" in="SourceGraphic" in2="effect1_dropShadow_2814_232" result="shape"/>
</filter>
<filter id="filter2_d_2814_232" x="22" y="223" width="258" height="38" filterUnits="userSpaceOnUse" color-interpolation-filters="sRGB">
<feFlood flood-opacity="0" result="BackgroundImageFix"/>
<feColorMatrix in="SourceAlpha" type="matrix" values="0 0 0 0 0 0 0 0 0 0 0 0 0 0 0 0 0 0 127 0" result="hardAlpha"/>
<feOffset dy="4"/>
<feGaussianBlur stdDeviation="2"/>
<feComposite in2="hardAlpha" operator="out"/>
<feColorMatrix type="matrix" values="0 0 0 0 0 0 0 0 0 0 0 0 0 0 0 0 0 0 0.25 0"/>
<feBlend mode="normal" in2="BackgroundImageFix" result="effect1_dropShadow_2814_232"/>
<feBlend mode="normal" in="SourceGraphic" in2="effect1_dropShadow_2814_232" result="shape"/>
</filter>
<filter id="filter3_d_2814_232" x="22" y="180" width="258" height="38" filterUnits="userSpaceOnUse" color-interpolation-filters="sRGB">
<feFlood flood-opacity="0" result="BackgroundImageFix"/>
<feColorMatrix in="SourceAlpha" type="matrix" values="0 0 0 0 0 0 0 0 0 0 0 0 0 0 0 0 0 0 127 0" result="hardAlpha"/>
<feOffset dy="4"/>
<feGaussianBlur stdDeviation="2"/>
<feComposite in2="hardAlpha" operator="out"/>
<feColorMatrix type="matrix" values="0 0 0 0 0 0 0 0 0 0 0 0 0 0 0 0 0 0 0.25 0"/>
<feBlend mode="normal" in2="BackgroundImageFix" result="effect1_dropShadow_2814_232"/>
<feBlend mode="normal" in="SourceGraphic" in2="effect1_dropShadow_2814_232" result="shape"/>
</filter>
<filter id="filter4_d_2814_232" x="21" y="137" width="258" height="38" filterUnits="userSpaceOnUse" color-interpolation-filters="sRGB">
<feFlood flood-opacity="0" result="BackgroundImageFix"/>
<feColorMatrix in="SourceAlpha" type="matrix" values="0 0 0 0 0 0 0 0 0 0 0 0 0 0 0 0 0 0 127 0" result="hardAlpha"/>
<feOffset dy="4"/>
<feGaussianBlur stdDeviation="2"/>
<feComposite in2="hardAlpha" operator="out"/>
<feColorMatrix type="matrix" values="0 0 0 0 0 0 0 0 0 0 0 0 0 0 0 0 0 0 0.25 0"/>
<feBlend mode="normal" in2="BackgroundImageFix" result="effect1_dropShadow_2814_232"/>
<feBlend mode="normal" in="SourceGraphic" in2="effect1_dropShadow_2814_232" result="shape"/>
</filter>
<filter id="filter5_d_2814_232" x="192" y="90" width="88" height="38" filterUnits="userSpaceOnUse" color-interpolation-filters="sRGB">
<feFlood flood-opacity="0" result="BackgroundImageFix"/>
<feColorMatrix in="SourceAlpha" type="matrix" values="0 0 0 0 0 0 0 0 0 0 0 0 0 0 0 0 0 0 127 0" result="hardAlpha"/>
<feOffset dy="4"/>
<feGaussianBlur stdDeviation="2"/>
<feComposite in2="hardAlpha" operator="out"/>
<feColorMatrix type="matrix" values="0 0 0 0 0 0 0 0 0 0 0 0 0 0 0 0 0 0 0.25 0"/>
<feBlend mode="normal" in2="BackgroundImageFix" result="effect1_dropShadow_2814_232"/>
<feBlend mode="normal" in="SourceGraphic" in2="effect1_dropShadow_2814_232" result="shape"/>
</filter>
<filter id="filter6_d_2814_232" x="107" y="89" width="88" height="38" filterUnits="userSpaceOnUse" color-interpolation-filters="sRGB">
<feFlood flood-opacity="0" result="BackgroundImageFix"/>
<feColorMatrix in="SourceAlpha" type="matrix" values="0 0 0 0 0 0 0 0 0 0 0 0 0 0 0 0 0 0 127 0" result="hardAlpha"/>
<feOffset dy="4"/>
<feGaussianBlur stdDeviation="2"/>
<feComposite in2="hardAlpha" operator="out"/>
<feColorMatrix type="matrix" values="0 0 0 0 0 0 0 0 0 0 0 0 0 0 0 0 0 0 0.25 0"/>
<feBlend mode="normal" in2="BackgroundImageFix" result="effect1_dropShadow_2814_232"/>
<feBlend mode="normal" in="SourceGraphic" in2="effect1_dropShadow_2814_232" result="shape"/>
</filter>
<filter id="filter7_d_2814_232" x="22" y="89" width="88" height="38" filterUnits="userSpaceOnUse" color-interpolation-filters="sRGB">
<feFlood flood-opacity="0" result="BackgroundImageFix"/>
<feColorMatrix in="SourceAlpha" type="matrix" values="0 0 0 0 0 0 0 0 0 0 0 0 0 0 0 0 0 0 127 0" result="hardAlpha"/>
<feOffset dy="4"/>
<feGaussianBlur stdDeviation="2"/>
<feComposite in2="hardAlpha" operator="out"/>
<feColorMatrix type="matrix" values="0 0 0 0 0 0 0 0 0 0 0 0 0 0 0 0 0 0 0.25 0"/>
<feBlend mode="normal" in2="BackgroundImageFix" result="effect1_dropShadow_2814_232"/>
<feBlend mode="normal" in="SourceGraphic" in2="effect1_dropShadow_2814_232" result="shape"/>
</filter>
<filter id="filter8_d_2814_232" x="22" y="52" width="258" height="38" filterUnits="userSpaceOnUse" color-interpolation-filters="sRGB">
<feFlood flood-opacity="0" result="BackgroundImageFix"/>
<feColorMatrix in="SourceAlpha" type="matrix" values="0 0 0 0 0 0 0 0 0 0 0 0 0 0 0 0 0 0 127 0" result="hardAlpha"/>
<feOffset dy="4"/>
<feGaussianBlur stdDeviation="2"/>
<feComposite in2="hardAlpha" operator="out"/>
<feColorMatrix type="matrix" values="0 0 0 0 0 0 0 0 0 0 0 0 0 0 0 0 0 0 0.25 0"/>
<feBlend mode="normal" in2="BackgroundImageFix" result="effect1_dropShadow_2814_232"/>
<feBlend mode="normal" in="SourceGraphic" in2="effect1_dropShadow_2814_232" result="shape"/>
</filter>
<linearGradient id="paint0_linear_2814_232" x1="150" y1="0" x2="150" y2="363" gradientUnits="userSpaceOnUse">
<stop offset="0.355769" stop-color="#929292"/>
<stop offset="0.7" stop-color="#585B68"/>
</linearGradient>
<linearGradient id="paint1_linear_2814_232" x1="150" y1="137" x2="150" y2="167" gradientUnits="userSpaceOnUse">
<stop stop-color="#ECECEC"/>
<stop offset="1" stop-color="#D1D0D0"/>
</linearGradient>
<linearGradient id="paint2_linear_2814_232" x1="151" y1="52" x2="151" y2="82" gradientUnits="userSpaceOnUse">
<stop stop-color="#ECECEC"/>
<stop offset="1" stop-color="#D1D0D0"/>
</linearGradient>
<clipPath id="clip0_2814_232">
<rect width="14" height="14" fill="white" transform="translate(201 98)"/>
</clipPath>
<clipPath id="clip1_2814_232">
<rect width="14" height="14" fill="white" transform="translate(116 97)"/>
</clipPath>
<clipPath id="clip2_2814_232">
<rect width="14" height="14" fill="white" transform="translate(31 97)"/>
</clipPath>
<clipPath id="clip3_2814_232">
<rect width="6.65" height="5.85833" fill="white" transform="translate(34.3252 100.801)"/>
</clipPath>
<clipPath id="clip4_2814_232">
<rect width="12" height="12" fill="white" transform="translate(248 61)"/>
</clipPath>
</defs>
</svg>
