<svg width="14" height="14" viewBox="0 0 14 14" fill="none" xmlns="http://www.w3.org/2000/svg">
<g clip-path="url(#clip0_2823_244)">
<mask id="mask0_2823_244" style="mask-type:luminance" maskUnits="userSpaceOnUse" x="0" y="0" width="14" height="14">
<path d="M14 0H0V14H14V0Z" fill="white"/>
</mask>
<g mask="url(#mask0_2823_244)">
<path d="M7 14C10.866 14 14 10.866 14 7C14 3.134 10.866 0 7 0C3.134 0 0 3.134 0 7C0 10.866 3.134 14 7 14Z" fill="#0B53BF"/>
<path d="M8.48777 8.66688C8.18152 8.78938 7.84902 8.85938 7.52965 8.85938C6.89715 8.85938 6.30084 8.59001 6.0159 7.94063H7.40715L7.6784 7.28438H5.85398C5.84536 7.19399 5.8409 7.09927 5.8409 7C5.8409 6.90073 5.84536 6.80601 5.85398 6.71563H7.91027L8.18152 6.05938H6.0159C6.30084 5.40999 6.89715 5.14063 7.52965 5.14063C7.84902 5.14063 8.18152 5.21062 8.48777 5.33312L8.76777 4.66813C8.39152 4.47125 7.96715 4.375 7.54277 4.375C6.5185 4.375 5.48311 4.94764 5.1083 6.05938H4.43652V6.71563H4.97373C4.96572 6.80776 4.96152 6.90257 4.96152 7C4.96152 7.09743 4.96568 7.19224 4.97373 7.28438H4.43652V7.94063H5.1083C5.48311 9.05236 6.5185 9.625 7.54277 9.625C7.96715 9.625 8.39152 9.52875 8.76777 9.33188L8.48777 8.66688Z" fill="white" stroke="#0B53BF" stroke-width="0.03" stroke-miterlimit="10"/>
<path d="M2.625 6.99922C2.625 5.01734 3.94187 3.34609 5.74 2.80359V1.90234C3.4475 2.46234 1.75 4.53172 1.75 6.99922C1.75 9.46672 3.4475 11.5361 5.74 12.0961V11.1948C3.94187 10.6567 2.625 8.98109 2.625 6.99922Z" fill="white" stroke="#0B53BF" stroke-width="0.03" stroke-miterlimit="10"/>
<path d="M8.25977 1.90234V2.80359C10.0579 3.34609 11.3748 5.01734 11.3748 6.99922C11.3748 8.98109 10.0579 10.6523 8.25977 11.1948V12.0961C10.5523 11.5361 12.2498 9.46672 12.2498 6.99922C12.2498 4.53172 10.5523 2.46234 8.25977 1.90234Z" fill="white" stroke="#0B53BF" stroke-width="0.03" stroke-miterlimit="10"/>
</g>
</g>
<defs>
<clipPath id="clip0_2823_244">
<rect width="14" height="14" fill="white"/>
</clipPath>
</defs>
</svg>
