<?xml version="1.0" encoding="UTF-8" standalone="no"?>
<!DOCTYPE svg PUBLIC "-//W3C//DTD SVG 1.1//EN" "http://www.w3.org/Graphics/SVG/1.1/DTD/svg11.dtd">
<svg width="100%" height="100%" viewBox="0 0 1024 271" version="1.1" xmlns="http://www.w3.org/2000/svg" xmlns:xlink="http://www.w3.org/1999/xlink" xml:space="preserve" xmlns:serif="http://www.serif.com/" style="fill-rule:evenodd;clip-rule:evenodd;stroke-linejoin:round;stroke-miterlimit:2;">
    <g transform="matrix(1,0,0,1,-1080,-537.099)">
        <g transform="matrix(1,0,0,1,793.422,873.716)">
            <g id="Logo-White" serif:id="Logo White" transform="matrix(5.59526,0,0,5.59526,-1740.84,-729.336)">
                <g transform="matrix(1,0,0,1,522.734,84.6227)">
                    <path d="M0,19.729L22.489,19.729C22.523,19.729 22.541,19.746 22.541,19.781L22.541,25.299C22.541,25.334 22.523,25.351 22.489,25.351L0,25.351C-0.035,25.351 -0.052,25.334 -0.052,25.299L-0.052,19.781L0,19.729ZM5.622,-3.02L5.622,3.799C5.622,5.535 6.369,7.027 7.861,8.276C8.902,9.04 9.96,9.422 11.036,9.422L11.401,9.422C12.997,9.422 14.42,8.71 15.669,7.287C16.502,6.177 16.919,5.014 16.919,3.799L16.919,-3.02C16.919,-4.617 16.26,-6.022 14.941,-7.237C13.83,-8.139 12.615,-8.59 11.297,-8.59L11.245,-8.59C9.37,-8.59 7.809,-7.74 6.559,-6.039C5.935,-5.033 5.622,-4.026 5.622,-3.02M11.14,-14.212L11.401,-14.212C13.969,-14.212 16.329,-13.345 18.48,-11.61C19.209,-10.985 19.73,-10.464 20.042,-10.048C21.708,-7.896 22.541,-5.571 22.541,-3.072L22.541,3.852C22.541,6.385 21.691,8.745 19.99,10.931C19.227,11.799 18.567,12.423 18.012,12.805C15.93,14.298 13.674,15.044 11.245,15.044C8.26,15.044 5.622,13.968 3.332,11.816C2.43,10.879 1.753,9.977 1.302,9.109C0.399,7.478 -0.052,5.517 -0.052,3.227L-0.052,-2.291C-0.052,-4.686 0.399,-6.681 1.302,-8.278C1.649,-8.972 2.256,-9.805 3.123,-10.777C4.13,-11.748 4.893,-12.356 5.414,-12.599C7.219,-13.675 9.128,-14.212 11.14,-14.212M-22.489,14.107C-22.489,15.287 -22.124,16.38 -21.396,17.386C-20.181,18.948 -18.689,19.729 -16.919,19.729L-16.815,19.729C-15.634,19.729 -14.542,19.365 -13.535,18.636C-11.973,17.386 -11.192,15.877 -11.192,14.107L-11.192,6.038C-11.192,4.893 -11.331,4.025 -11.609,3.435C-12.095,2.324 -13.118,1.44 -14.68,0.78C-15.409,0.468 -16.138,0.225 -16.866,0.051C-19.608,-0.747 -21.482,-1.372 -22.489,-1.823L-22.489,14.107ZM-16.971,25.351C-19.435,25.351 -21.725,24.553 -23.842,22.957C-24.397,22.54 -24.987,21.95 -25.612,21.187C-27.313,19.139 -28.163,16.588 -28.163,13.534L-28.163,-14.16C-28.163,-14.195 -28.146,-14.212 -28.111,-14.212L-22.541,-14.212C-22.506,-14.212 -22.489,-14.195 -22.489,-14.16L-22.489,-11.87C-22.489,-10.898 -22.419,-10.204 -22.281,-9.788C-21.968,-8.712 -21.344,-7.879 -20.406,-7.289C-19.782,-6.873 -19.018,-6.508 -18.116,-6.196L-13.118,-4.738C-11.522,-4.183 -10.169,-3.506 -9.058,-2.708C-8.641,-2.395 -8.121,-1.892 -7.496,-1.198C-6.212,0.537 -5.57,2.637 -5.57,5.101L-5.57,14.159C-5.57,16.137 -6.091,18.028 -7.132,19.833C-7.409,20.388 -8.069,21.204 -9.11,22.28C-11.4,24.327 -13.934,25.351 -16.71,25.351L-16.971,25.351ZM-57.263,19.729L-34.774,19.729C-34.74,19.729 -34.722,19.746 -34.722,19.781L-34.722,25.299C-34.722,25.334 -34.74,25.351 -34.774,25.351L-57.263,25.351C-57.298,25.351 -57.315,25.334 -57.315,25.299L-57.315,19.781L-57.263,19.729ZM-51.641,-3.02L-51.641,3.799C-51.641,5.535 -50.895,7.027 -49.402,8.276C-48.361,9.04 -47.303,9.422 -46.227,9.422L-45.863,9.422C-44.266,9.422 -42.843,8.71 -41.594,7.287C-40.761,6.177 -40.344,5.014 -40.344,3.799L-40.344,-3.02C-40.344,-4.617 -41.004,-6.022 -42.323,-7.237C-43.433,-8.139 -44.648,-8.59 -45.967,-8.59L-46.019,-8.59C-47.893,-8.59 -49.455,-7.74 -50.704,-6.039C-51.329,-5.033 -51.641,-4.026 -51.641,-3.02M-46.123,-14.212L-45.863,-14.212C-43.294,-14.212 -40.935,-13.345 -38.783,-11.61C-38.054,-10.985 -37.533,-10.464 -37.221,-10.048C-35.555,-7.896 -34.722,-5.571 -34.722,-3.072L-34.722,3.852C-34.722,6.385 -35.573,8.745 -37.273,10.931C-38.037,11.799 -38.696,12.423 -39.251,12.805C-41.334,14.298 -43.59,15.044 -46.019,15.044C-49.003,15.044 -51.641,13.968 -53.931,11.816C-54.834,10.879 -55.511,9.977 -55.962,9.109C-56.864,7.478 -57.315,5.517 -57.315,3.227L-57.315,-2.291C-57.315,-4.686 -56.864,-6.681 -55.962,-8.278C-55.615,-8.972 -55.007,-9.805 -54.14,-10.777C-53.133,-11.748 -52.37,-12.356 -51.849,-12.599C-50.044,-13.675 -48.136,-14.212 -46.123,-14.212M-85.895,-14.212L-80.324,-14.212C-80.29,-14.212 -80.273,-14.195 -80.273,-14.16L-80.273,5.725C-78.919,5.101 -76.993,4.459 -74.494,3.799C-72.898,3.314 -71.753,2.828 -71.058,2.342C-70.156,1.786 -69.531,0.971 -69.184,-0.105C-69.046,-0.556 -68.976,-1.233 -68.976,-2.135L-68.976,-14.16C-68.976,-14.195 -68.959,-14.212 -68.924,-14.212L-63.406,-14.212C-63.371,-14.212 -63.354,-14.195 -63.354,-14.16L-63.354,-1.25C-63.354,1.318 -64.048,3.487 -65.436,5.257C-66.13,5.986 -66.651,6.454 -66.998,6.663C-67.172,6.801 -67.276,6.871 -67.31,6.871L-67.31,6.923C-66.339,7.825 -65.801,8.38 -65.697,8.589C-64.586,10.046 -63.875,11.591 -63.562,13.222C-63.423,13.916 -63.354,14.541 -63.354,15.096L-63.354,25.299C-63.354,25.334 -63.371,25.351 -63.406,25.351L-68.924,25.351C-68.959,25.351 -68.976,25.334 -68.976,25.299L-68.976,15.877C-68.976,14.072 -69.497,12.649 -70.538,11.608C-71.163,10.845 -72.169,10.272 -73.557,9.89L-74.494,9.682C-75.743,10.029 -76.75,10.393 -77.514,10.775C-78.694,11.4 -79.492,12.181 -79.908,13.118C-80.151,13.673 -80.273,14.541 -80.273,15.72L-80.273,25.299C-80.273,25.334 -80.29,25.351 -80.324,25.351L-85.895,25.351C-85.93,25.351 -85.947,25.334 -85.947,25.299L-85.947,-14.16C-85.947,-14.195 -85.93,-14.212 -85.895,-14.212M-114.526,-14.212L-108.956,-14.212C-108.922,-14.212 -108.904,-14.195 -108.904,-14.16L-108.904,5.257C-108.904,6.854 -108.575,8.016 -107.915,8.745C-107.36,9.404 -106.857,9.821 -106.406,9.994C-105.642,10.48 -103.855,11.105 -101.043,11.868C-99.621,12.285 -98.458,12.701 -97.556,13.118L-97.556,-14.16C-97.556,-14.195 -97.538,-14.212 -97.504,-14.212L-91.985,-14.212C-91.951,-14.212 -91.934,-14.195 -91.934,-14.16L-91.934,22.8C-91.934,25.507 -92.905,27.989 -94.849,30.245C-95.82,31.216 -96.636,31.893 -97.295,32.275C-99.169,33.385 -101.096,33.941 -103.074,33.941L-103.386,33.941C-106.232,33.941 -108.8,32.882 -111.091,30.765C-111.889,29.967 -112.496,29.221 -112.913,28.527C-114.023,26.687 -114.578,24.761 -114.578,22.748L-114.578,22.696L-114.526,22.644L-108.956,22.644C-108.922,22.644 -108.904,22.662 -108.904,22.696C-108.904,24.466 -108.141,25.976 -106.614,27.225C-105.572,27.954 -104.462,28.319 -103.282,28.319L-103.178,28.319C-101.443,28.319 -99.968,27.572 -98.753,26.08C-97.955,25.004 -97.556,23.928 -97.556,22.853C-97.556,20.736 -98.371,19.243 -100.002,18.375C-100.731,17.855 -102.553,17.213 -105.468,16.449C-107.447,15.859 -108.956,15.252 -109.997,14.627C-111.837,13.621 -113.138,12.111 -113.902,10.098C-114.284,8.884 -114.474,8.016 -114.474,7.496C-114.509,7.183 -114.544,6.715 -114.578,6.09L-114.578,-14.16L-114.526,-14.212ZM-149.249,-14.212L-148.936,-14.212C-146.368,-14.212 -143.974,-13.327 -141.752,-11.558C-141.544,-11.384 -141.163,-11.002 -140.607,-10.412C-139.878,-11.176 -139.358,-11.662 -139.045,-11.87C-136.928,-13.432 -134.655,-14.212 -132.226,-14.212L-131.966,-14.212C-129.397,-14.212 -127.038,-13.345 -124.886,-11.61C-124.192,-11.02 -123.671,-10.499 -123.324,-10.048C-121.658,-7.896 -120.825,-5.571 -120.825,-3.072L-120.825,25.299C-120.825,25.334 -120.843,25.351 -120.878,25.351L-126.395,25.351C-126.43,25.351 -126.448,25.334 -126.448,25.299L-126.448,-2.916C-126.448,-4.86 -127.298,-6.439 -128.999,-7.653C-129.97,-8.278 -131.011,-8.59 -132.122,-8.59C-133.892,-8.59 -135.384,-7.844 -136.599,-6.352C-137.397,-5.311 -137.796,-4.218 -137.796,-3.072L-137.796,25.351L-143.366,25.351C-143.401,25.351 -143.418,25.334 -143.418,25.299L-143.418,-3.072C-143.418,-4.634 -144.095,-6.022 -145.448,-7.237C-146.525,-8.139 -147.722,-8.59 -149.041,-8.59C-150.984,-8.59 -152.581,-7.74 -153.83,-6.039C-154.42,-5.068 -154.715,-4.026 -154.715,-2.916L-154.715,25.299C-154.715,25.334 -154.732,25.351 -154.767,25.351L-160.337,25.351C-160.372,25.351 -160.389,25.334 -160.389,25.299L-160.389,-2.291C-160.389,-4.651 -159.955,-6.612 -159.088,-8.174C-158.775,-8.833 -158.185,-9.666 -157.318,-10.673C-156.242,-11.714 -155.426,-12.356 -154.871,-12.599C-153.066,-13.675 -151.192,-14.212 -149.249,-14.212" style="fill:white;"/>
                </g>
                <g transform="matrix(1,0,0,1,476.771,99.924)">
                    <path d="M0,-29.666C6.243,-29.666 11.351,-24.558 11.351,-18.315L11.351,-11.351C11.351,-5.108 6.243,0 0,0C-6.243,0 -11.351,-5.108 -11.351,-11.351L-11.351,-18.315C-11.351,-24.558 -6.243,-29.666 0,-29.666" style="fill:white;"/>
                </g>
                <g transform="matrix(1,0,0,1,534.006,99.8537)">
                    <path d="M0,-29.666C6.243,-29.666 11.351,-24.558 11.351,-18.315L11.351,-11.351C11.351,-5.108 6.243,0 0,0C-6.243,0 -11.35,-5.108 -11.35,-11.351L-11.35,-18.315C-11.35,-24.558 -6.243,-29.666 0,-29.666" style="fill:white;"/>
                </g>
            </g>
        </g>
    </g>
</svg>