<svg width="14" height="14" viewBox="0 0 14 14" fill="none" xmlns="http://www.w3.org/2000/svg">
<g clip-path="url(#clip0_2823_256)">
<circle cx="6.65" cy="6.65" r="6.65" fill="#393939"/>
<g clip-path="url(#clip1_2823_256)">
<path d="M9.94096 8.41966L8.84317 9.57933C8.81931 9.60452 8.79043 9.6246 8.75835 9.63833C8.72626 9.65206 8.69165 9.65913 8.65667 9.65911H3.45264C3.42781 9.65911 3.40352 9.65197 3.38275 9.63856C3.36199 9.62514 3.34565 9.60605 3.33576 9.58362C3.32586 9.56119 3.32283 9.5364 3.32704 9.51229C3.33125 9.48818 3.34252 9.46582 3.35946 9.44794L4.45807 8.28826C4.48187 8.26314 4.51065 8.2431 4.54263 8.22938C4.57462 8.21565 4.60912 8.20854 4.64401 8.20848H9.84775C9.87258 8.20848 9.89687 8.21563 9.91765 8.22904C9.93839 8.24245 9.95472 8.26155 9.96466 8.28398C9.97454 8.30641 9.97757 8.3312 9.97335 8.3553C9.96914 8.37941 9.95788 8.40178 9.94096 8.41966ZM8.84317 6.08441C8.81931 6.05922 8.79043 6.03914 8.75835 6.02541C8.72626 6.01169 8.69165 6.00461 8.65667 6.00463H3.45264C3.42781 6.00463 3.40352 6.01178 3.38275 6.02519C3.36199 6.0386 3.34565 6.0577 3.33576 6.08013C3.32586 6.10256 3.32283 6.12735 3.32704 6.15146C3.33125 6.17556 3.34252 6.19792 3.35946 6.21581L4.45807 7.37548C4.48187 7.40061 4.51065 7.42065 4.54263 7.43437C4.57462 7.44809 4.60912 7.45521 4.64401 7.45526H9.84775C9.87258 7.45526 9.89687 7.44812 9.91765 7.43471C9.93839 7.42129 9.95472 7.4022 9.96466 7.37977C9.97454 7.35734 9.97757 7.33254 9.97335 7.30844C9.96914 7.28434 9.95788 7.26197 9.94096 7.24408L8.84317 6.08441ZM3.45264 5.25142H8.65667C8.69165 5.25143 8.72626 5.24436 8.75835 5.23063C8.79043 5.21691 8.81931 5.19682 8.84317 5.17163L9.94096 4.01196C9.95788 3.99408 9.96914 3.97171 9.97335 3.94761C9.97757 3.9235 9.97454 3.89871 9.96466 3.87628C9.95472 3.85385 9.93839 3.83475 9.91765 3.82134C9.89687 3.80793 9.87258 3.80078 9.84775 3.80078H4.64401C4.60912 3.80084 4.57462 3.80795 4.54263 3.82167C4.51065 3.8354 4.48187 3.85544 4.45807 3.88057L3.35974 5.04024C3.34282 5.0581 3.33156 5.08045 3.32734 5.10452C3.32312 5.1286 3.32612 5.15337 3.33598 5.17579C3.34585 5.19821 3.36214 5.21731 3.38286 5.23074C3.40358 5.24417 3.42783 5.25136 3.45264 5.25142Z" fill="white"/>
</g>
</g>
<defs>
<clipPath id="clip0_2823_256">
<rect width="14" height="14" fill="white"/>
</clipPath>
<clipPath id="clip1_2823_256">
<rect width="6.65" height="5.85833" fill="white" transform="translate(3.3252 3.80078)"/>
</clipPath>
</defs>
</svg>
