<svg width="14" height="14" viewBox="0 0 14 14" fill="none" xmlns="http://www.w3.org/2000/svg">
<g clip-path="url(#clip0_2823_236)">
<path d="M6.99967 13.8529C10.7851 13.8529 13.8538 10.7842 13.8538 6.9987C13.8538 3.21324 10.7851 0.144531 6.99967 0.144531C3.21422 0.144531 0.145508 3.21324 0.145508 6.9987C0.145508 10.7842 3.21422 13.8529 6.99967 13.8529Z" fill="#0B53BF"/>
<path d="M8.2334 2.00781V2.89029C9.99407 3.42149 11.2835 5.05792 11.2835 6.99851C11.2835 8.9391 9.99407 10.5755 8.2334 11.1067V11.9892C10.4781 11.4409 12.1403 9.4146 12.1403 6.99851C12.1403 4.58241 10.4781 2.55615 8.2334 2.00781Z" fill="white"/>
<path d="M2.71615 6.99851C2.71615 5.05792 4.00559 3.42149 5.76625 2.89029V2.00781C3.52151 2.55615 1.85938 4.58241 1.85938 6.99851C1.85938 9.4146 3.52151 11.4409 5.76625 11.9892V11.1067C4.00559 10.5798 2.71615 8.9391 2.71615 6.99851Z" fill="white"/>
<path d="M8.8425 7.95399C8.8425 6.20189 6.09655 6.9216 6.09655 5.95344C6.09655 5.60644 6.375 5.38368 6.9062 5.38368C7.54021 5.38368 7.75868 5.69212 7.82722 6.10766H8.70113C8.62317 5.32783 8.17559 4.83544 7.42884 4.68876V4H6.57206V4.66417C5.75397 4.76835 5.23978 5.24476 5.23978 5.95344C5.23978 7.7141 7.99002 7.05439 7.99002 8.0054C7.99002 8.36524 7.64302 8.60514 7.05613 8.60514C6.28932 8.60514 6.03658 8.26672 5.94233 7.79977H5.08984C5.14507 8.65394 5.67176 9.18852 6.57206 9.32192V9.9974H7.42884V9.33091C8.3075 9.21739 8.8425 8.70625 8.8425 7.95399Z" fill="white"/>
</g>
<defs>
<clipPath id="clip0_2823_236">
<rect width="14" height="14" fill="white"/>
</clipPath>
</defs>
</svg>
